<svg width="2015" height="1059" viewBox="0 0 2015 1059" fill="none" xmlns="http://www.w3.org/2000/svg">
<g clip-path="url(#clip0_808_2099)">
<path d="M24.6768 333.435L15.1094 349.759H0.3799L17.4634 322.653L0 296.458H15.1094L25.8155 312.555L35.2305 296.458H49.9605L33.0284 323.336L50.6436 349.759H35.5342L24.6768 333.435Z" fill="#3A3A3C"/>
<path d="M24.6768 715.85L15.1094 732.174H0.3799L17.4634 705.067L0 678.872H15.1094L25.8155 694.969L35.2305 678.872H49.9605L33.0284 705.751L50.6436 732.174H35.5342L24.6768 715.85Z" fill="#3A3A3C"/>
<path d="M885.385 698.853C895.59 698.853 903.291 704.597 905.735 713.886H894.246C892.474 710.219 889.235 708.386 885.263 708.386C878.846 708.386 874.446 713.152 874.446 720.73C874.446 728.307 878.846 733.074 885.263 733.074C889.235 733.074 892.474 731.241 894.246 727.574H905.735C903.291 736.863 895.59 742.547 885.385 742.547C872.735 742.547 863.812 733.564 863.812 720.73C863.812 707.896 872.735 698.853 885.385 698.853Z" fill="#3A3A3C"/>
<path d="M912.154 697.019H922.604V742.241H912.154V697.019Z" fill="#3A3A3C"/>
<path d="M945.339 742.731C935.317 742.731 928.105 736.008 928.105 725.191C928.105 714.375 935.195 707.652 945.339 707.652C955.3 707.652 962.328 714.252 962.328 724.642C962.328 725.619 962.267 726.658 962.145 727.696H938.495C938.861 732.158 941.611 734.235 944.972 734.235C947.906 734.235 949.556 732.769 950.411 730.936H961.534C959.884 737.597 953.834 742.731 945.339 742.731ZM938.556 721.891H951.634C951.634 718.163 948.7 716.025 945.217 716.025C941.794 716.025 939.167 718.103 938.556 721.891Z" fill="#3A3A3C"/>
<path d="M980.786 707.652C985.858 707.652 989.463 709.975 991.297 712.969V708.141H1001.75V742.241H991.297V737.413C989.402 740.408 985.797 742.731 980.725 742.731C972.413 742.731 965.752 735.886 965.752 725.13C965.752 714.374 972.413 707.652 980.786 707.652ZM983.841 716.758C979.93 716.758 976.386 719.691 976.386 725.13C976.386 730.568 979.93 733.624 983.841 733.624C987.814 733.624 991.297 730.63 991.297 725.191C991.297 719.753 987.814 716.758 983.841 716.758Z" fill="#3A3A3C"/>
<path d="M1019.78 742.241H1009.33V708.141H1019.78V713.824C1022.16 710.219 1025.89 707.774 1030.47 707.774V718.836H1027.6C1022.65 718.836 1019.78 720.547 1019.78 726.413L1019.78 742.241Z" fill="#3A3A3C"/>
<path d="M1079.36 742.731C1070.25 742.731 1064.14 737.658 1063.65 731.058H1073.98C1074.22 733.441 1076.36 735.03 1079.23 735.03C1081.92 735.03 1083.33 733.808 1083.33 732.28C1083.33 726.78 1064.75 730.752 1064.75 718.225C1064.75 712.419 1069.7 707.652 1078.62 707.652C1087.42 707.652 1092.31 712.541 1092.98 719.264H1083.33C1083.02 716.941 1081.25 715.413 1078.32 715.413C1075.87 715.413 1074.53 716.391 1074.53 718.041C1074.53 723.48 1092.98 719.63 1093.17 732.341C1093.17 738.268 1087.91 742.731 1079.36 742.731Z" fill="#3A3A3C"/>
<path d="M1120.55 707.652C1128.92 707.652 1135.58 714.374 1135.58 725.13C1135.58 735.886 1128.92 742.73 1120.55 742.73C1115.54 742.73 1111.93 740.347 1110.04 737.475V758.497H1099.59V708.141H1110.04V712.969C1111.93 709.975 1115.54 707.652 1120.55 707.652ZM1117.43 716.758C1113.52 716.758 1109.97 719.752 1109.97 725.191C1109.97 730.631 1113.52 733.624 1117.43 733.624C1121.4 733.624 1124.95 730.569 1124.95 725.13C1124.95 719.691 1121.4 716.758 1117.43 716.758Z" fill="#3A3A3C"/>
<path d="M1154.04 707.652C1159.11 707.652 1162.71 709.975 1164.55 712.969V708.141H1175V742.241H1164.55V737.413C1162.65 740.408 1159.05 742.731 1153.98 742.731C1145.67 742.731 1139 735.886 1139 725.13C1139 714.374 1145.67 707.652 1154.04 707.652ZM1157.09 716.758C1153.18 716.758 1149.64 719.691 1149.64 725.13C1149.64 730.568 1153.18 733.624 1157.09 733.624C1161.07 733.624 1164.55 730.63 1164.55 725.191C1164.55 719.753 1161.07 716.758 1157.09 716.758Z" fill="#3A3A3C"/>
<path d="M1197.61 707.652C1206.17 707.652 1212.22 712.357 1213.99 720.485H1202.87C1202.01 718.103 1200.3 716.574 1197.43 716.574C1193.7 716.574 1191.13 719.508 1191.13 725.191C1191.13 730.875 1193.7 733.808 1197.43 733.808C1200.3 733.808 1201.95 732.402 1202.87 729.897H1213.99C1212.22 737.78 1206.17 742.731 1197.61 742.731C1187.59 742.731 1180.5 736.008 1180.5 725.191C1180.5 714.436 1187.59 707.652 1197.61 707.652Z" fill="#3A3A3C"/>
<path d="M1234.71 742.731C1224.69 742.731 1217.47 736.008 1217.47 725.191C1217.47 714.375 1224.56 707.652 1234.71 707.652C1244.67 707.652 1251.7 714.252 1251.7 724.642C1251.7 725.619 1251.64 726.658 1251.51 727.696H1227.86C1228.23 732.158 1230.98 734.235 1234.34 734.235C1237.28 734.235 1238.92 732.769 1239.78 730.936H1250.9C1249.25 737.597 1243.2 742.731 1234.71 742.731ZM1227.92 721.891H1241C1241 718.163 1238.07 716.025 1234.59 716.025C1231.16 716.025 1228.54 718.103 1227.92 721.891Z" fill="#3A3A3C"/>
<path d="M2014.61 273.623H2008.61" stroke="#214457" stroke-width="3" stroke-miterlimit="10"/>
<path d="M1996.61 273.623L82.9004 273.623" stroke="#214457" stroke-width="3" stroke-miterlimit="10"/>
<path d="M76.9004 273.623H70.9004" stroke="#214457" stroke-width="3" stroke-miterlimit="10"/>
<path d="M2014.61 405.025H2008.61" stroke="#214457" stroke-width="3" stroke-miterlimit="10"/>
<path d="M1996.61 405.026L82.9004 405.025" stroke="#214457" stroke-width="3" stroke-miterlimit="10"/>
<path d="M76.9004 405.025H70.9004" stroke="#214457" stroke-width="3" stroke-miterlimit="10"/>
<path d="M2014.61 656.037H2008.61" stroke="#214457" stroke-width="3" stroke-miterlimit="10"/>
<path d="M1996.61 656.037L82.9004 656.037" stroke="#214457" stroke-width="3" stroke-miterlimit="10"/>
<path d="M76.9004 656.037H70.9004" stroke="#214457" stroke-width="3" stroke-miterlimit="10"/>
<path d="M2014.61 787.439H2008.61" stroke="#214457" stroke-width="3" stroke-miterlimit="10"/>
<path d="M1996.61 787.44L82.9004 787.439" stroke="#214457" stroke-width="3" stroke-miterlimit="10"/>
<path d="M76.9004 787.439H70.9004" stroke="#214457" stroke-width="3" stroke-miterlimit="10"/>
<path d="M232.645 149.19V155.19" stroke="#214457" stroke-width="3" stroke-miterlimit="10"/>
<path d="M232.645 167.247V956.936" stroke="#214457" stroke-width="3" stroke-miterlimit="10"/>
<path d="M232.645 962.964V968.964" stroke="#214457" stroke-width="3" stroke-miterlimit="10"/>
<path d="M360.561 149.19V155.19" stroke="#214457" stroke-width="3" stroke-miterlimit="10"/>
<path d="M360.561 167.247V956.936" stroke="#214457" stroke-width="3" stroke-miterlimit="10"/>
<path d="M360.561 962.964V968.964" stroke="#214457" stroke-width="3" stroke-miterlimit="10"/>
<path d="M295.971 116.389L286.658 132.281H272.319L288.949 105.893L271.949 80.3936H286.658L297.08 96.0631L306.245 80.3936H320.584L304.101 106.559L321.249 132.28H306.54L295.971 116.389Z" fill="#3A3A3C"/>
<path d="M295.971 1042.25L286.658 1058.14H272.319L288.949 1031.75L271.949 1006.25H286.658L297.08 1021.92L306.245 1006.25H320.584L304.101 1032.42L321.249 1058.14H306.54L295.971 1042.25Z" fill="#3A3A3C"/>
<path d="M1721.4 149.19V155.19" stroke="#214457" stroke-width="3" stroke-miterlimit="10"/>
<path d="M1721.4 167.247V956.936" stroke="#214457" stroke-width="3" stroke-miterlimit="10"/>
<path d="M1721.4 962.964V968.964" stroke="#214457" stroke-width="3" stroke-miterlimit="10"/>
<path d="M1849.31 149.19V155.19" stroke="#214457" stroke-width="3" stroke-miterlimit="10"/>
<path d="M1849.31 167.247V956.936" stroke="#214457" stroke-width="3" stroke-miterlimit="10"/>
<path d="M1849.31 962.964V968.964" stroke="#214457" stroke-width="3" stroke-miterlimit="10"/>
<path d="M1784.72 116.389L1775.41 132.281H1761.07L1777.7 105.893L1760.7 80.3936H1775.41L1785.83 96.0631L1795 80.3936H1809.34L1792.85 106.559L1810 132.28H1795.29L1784.72 116.389Z" fill="#3A3A3C"/>
<path d="M1784.72 1042.25L1775.41 1058.14H1761.07L1777.7 1031.75L1760.7 1006.25H1775.41L1785.83 1021.92L1795 1006.25H1809.34L1792.85 1032.42L1810 1058.14H1795.29L1784.72 1042.25Z" fill="#3A3A3C"/>
<path d="M1143.05 611.549H1141.3C1129.82 611.549 1118.34 611.549 1106.85 611.549C1106.32 611.583 1105.78 611.479 1105.3 611.247C1104.81 611.015 1104.39 610.662 1104.08 610.221C1090.62 593.24 1077.14 576.28 1063.62 559.341C1063.23 558.688 1062.69 558.139 1062.04 557.738V559.83C1062.04 567.268 1062.04 574.707 1062.14 582.145C1062.16 582.692 1062.08 583.238 1061.88 583.75C1061.69 584.262 1061.4 584.73 1061.03 585.126C1051.5 596.062 1042 607.015 1032.53 617.985C1032.22 618.349 1031.98 618.799 1031.45 618.975C1030.96 618.536 1031.19 617.935 1031.18 617.434C1030.85 590.661 1030.53 563.887 1030.2 537.113C1030.01 521.685 1029.8 506.241 1029.6 490.779C1029.6 489.264 1029.6 489.251 1028.08 488.788L1017.85 485.62C1018.27 485.36 1018.77 485.25 1019.26 485.307H1060.52C1062.29 485.307 1062.08 485.307 1062.08 487.16V541.772C1062.76 541.897 1062.91 541.396 1063.17 541.108C1077.53 524.561 1091.87 508.002 1106.21 491.43C1106.58 490.953 1107.06 490.572 1107.6 490.321C1108.15 490.07 1108.75 489.957 1109.34 489.99C1119.96 490.053 1130.59 489.99 1141.21 489.99H1142.97C1143.09 490.754 1142.62 491.03 1142.32 491.38C1130.68 505.047 1119.02 518.709 1107.35 532.367L1095.93 545.742C1094.69 547.182 1094.95 546.931 1095.93 548.171C1107.49 563.524 1119.03 578.873 1130.55 594.217C1134.46 599.402 1138.36 604.582 1142.25 609.758C1142.7 610.25 1142.99 610.879 1143.05 611.549Z" fill="#173303"/>
<path d="M1525.47 564.376C1526.1 569.997 1528.46 575.275 1532.21 579.469C1535.97 583.663 1540.93 586.561 1546.4 587.756C1559.56 590.623 1571.73 588.031 1582.91 580.555L1584.55 579.441C1585.16 579.641 1585.26 580.18 1585.49 580.593C1589.09 587.138 1592.69 593.692 1596.29 600.253C1597.07 601.669 1597.45 601.506 1595.72 602.645C1586.95 608.627 1577.06 612.738 1566.66 614.73C1555.29 616.953 1543.56 616.465 1532.4 613.302C1514.8 608.08 1503.41 596.359 1497.8 578.814C1496.04 573.012 1495 567.008 1494.72 560.944C1494.1 551.909 1494.99 542.833 1497.34 534.096C1502.46 515.412 1514.75 504.154 1533.07 499.307C1540.77 497.44 1548.72 496.81 1556.61 497.442C1563.86 497.708 1571 499.215 1577.75 501.9C1591.92 507.848 1599.95 518.53 1601.71 533.958C1602.62 543.159 1601.78 552.451 1599.23 561.333C1599.21 561.511 1599.16 561.684 1599.07 561.841C1598.99 561.998 1598.87 562.135 1598.73 562.245C1598.59 562.355 1598.43 562.435 1598.26 562.481C1598.09 562.526 1597.91 562.536 1597.73 562.51C1585.09 562.802 1572.45 563.111 1559.81 563.437L1526.87 564.301C1526.44 564.301 1526 564.351 1525.47 564.376ZM1549.51 544.878V544.765H1552.26L1571.97 544.665C1572.46 544.665 1572.95 544.665 1573.45 544.665C1573.94 544.665 1574.22 544.427 1574.2 543.888C1574.2 542.636 1574.2 541.384 1574.09 540.132C1573.39 530.852 1569 524.278 1558.89 521.961C1553.71 520.837 1548.36 520.807 1543.17 521.874C1539.79 522.434 1536.61 523.839 1533.91 525.961C1531.2 528.082 1529.07 530.853 1527.7 534.021C1526.31 536.995 1525.37 540.16 1524.91 543.413C1524.7 544.828 1524.69 544.853 1526.15 544.853L1549.51 544.878Z" fill="#173303"/>
<path d="M557.896 594.067C557.722 594.109 557.558 594.189 557.417 594.301C557.275 594.414 557.16 594.556 557.079 594.718C549.819 604.285 540.217 610.246 528.819 613.502C521.652 615.523 514.214 616.389 506.779 616.069C501.174 615.938 495.653 614.66 490.55 612.312C481.989 608.18 476.786 601.205 473.986 592.276C472.268 586.515 471.433 580.523 471.508 574.506C471.458 552.015 471.458 529.52 471.508 507.021C471.508 506.708 471.508 506.395 471.508 506.082C471.508 505.468 471.756 505.18 472.375 505.193H500.56C502.356 505.193 502.369 505.193 502.369 507.021C502.369 526.907 502.369 546.802 502.369 566.705C502.271 570.496 502.658 574.284 503.521 577.975C503.744 578.814 503.979 579.653 504.277 580.48C506.916 587.993 512.268 591.988 520.023 592.351C533.874 593.002 544.417 587.054 551.9 575.37C552.909 573.827 553.428 572.01 553.387 570.161C553.387 549.273 553.387 528.397 553.387 507.547C553.387 505.043 553.077 505.293 555.691 505.28H582.03C582.451 505.28 582.885 505.28 583.269 505.28C584 505.28 584.235 505.631 584.198 506.307C584.161 506.984 584.198 507.309 584.198 507.797V581.056C584.16 582.418 584.251 583.781 584.471 585.126C584.667 586.368 585.255 587.513 586.149 588.388C587.042 589.264 588.192 589.824 589.426 589.984C589.789 590.069 590.158 590.124 590.529 590.147C591.384 590.147 591.632 590.623 591.619 591.475C591.619 598.604 591.619 605.73 591.619 612.851C591.619 613.565 591.471 614.028 590.678 614.103C584.335 615.068 578.004 615.806 571.623 614.516C568.796 614.006 566.125 612.84 563.818 611.11C562.388 610.083 561.187 608.762 560.295 607.235C559.403 605.707 558.839 604.007 558.64 602.244C558.318 599.589 558.144 596.872 557.896 594.067Z" fill="#173303"/>
<path d="M743.844 559.567C743.844 550.888 743.844 542.223 743.844 533.545C743.818 532.373 744.151 531.223 744.798 530.251C751.332 520.226 760.806 512.519 771.892 508.211C779.325 505.249 787.2 503.58 795.184 503.277C803.778 502.719 812.404 503.642 820.693 506.007C834.321 510.102 845.706 517.653 853.684 529.8C859.795 539.114 862.871 550.126 862.481 561.295C862.084 580.317 850.86 600.554 829.13 610.134C821.731 613.344 813.847 615.262 805.813 615.807C796.862 616.584 787.845 615.783 779.165 613.44C765.029 609.47 753.358 601.856 745.082 589.371C744.244 588.162 743.81 586.714 743.844 585.238C743.881 576.673 743.844 568.12 743.844 559.567ZM802.196 592.301C812.85 591.863 822.737 585.952 828.275 573.517C831.054 567.037 831.793 559.849 830.393 552.93C827.68 537.902 816.294 528.247 802.679 527.083C792.297 526.206 783.352 529.374 776.315 537.176C768.956 545.341 766.8 555.209 768.498 565.891C771.025 581.682 783.625 592.326 802.196 592.326V592.301Z" fill="#173303"/>
<path d="M1630.85 518.442L1634.17 515.824C1641.02 510.27 1648.58 505.674 1656.65 502.162C1664.74 498.766 1673.52 497.42 1682.24 498.242C1692.3 499.169 1699.42 504.266 1703.21 513.858C1705.14 518.957 1706.32 524.316 1706.7 529.762C1707.6 540.172 1707.94 550.623 1707.72 561.069C1707.52 569.835 1707.3 578.601 1706.78 587.254C1706.38 593.754 1705.81 600.215 1705.19 606.69C1705.18 607.059 1705.14 607.426 1705.08 607.792C1704.62 610.058 1705.27 609.733 1702.89 609.683C1693.56 609.47 1684.23 609.207 1674.9 608.944C1673.5 608.944 1673.45 608.944 1673.6 607.466C1674.06 602.908 1674.38 598.337 1674.74 593.779C1675.24 587.417 1675.63 581.043 1675.76 574.669C1675.92 566.178 1676.04 557.688 1675.63 549.21C1675.55 545.802 1675.11 542.413 1674.3 539.104C1673.99 537.846 1673.58 536.618 1673.06 535.435C1672.29 533.596 1671.03 532.008 1669.42 530.85C1667.81 529.691 1665.91 529.007 1663.94 528.873C1660.32 528.556 1656.67 529.047 1653.26 530.313C1649.61 531.614 1646.14 533.368 1642.93 535.535C1639.31 537.992 1635.83 540.651 1632.51 543.5C1632.08 543.831 1631.74 544.267 1631.52 544.766C1631.31 545.265 1631.22 545.812 1631.27 546.355C1631.42 562.96 1631.54 579.565 1631.64 596.17C1631.64 599.952 1631.64 603.734 1631.64 607.516C1631.64 609.482 1631.88 609.319 1629.91 609.432C1624.95 609.72 1619.99 609.971 1615.04 610.234L1602.17 610.897C1600.77 610.972 1600.75 610.897 1600.73 609.507C1600.73 608.643 1600.73 607.779 1600.73 606.915C1600.64 606.521 1600.68 606.107 1600.86 605.742C1601.03 605.378 1601.32 605.084 1601.68 604.911C1602.29 604.623 1602.25 604.173 1601.89 603.659C1600.56 601.918 1600.65 599.902 1600.58 597.824C1600.42 586.979 1600.2 576.147 1600.01 565.264C1600.01 562.76 1600.01 562.76 1602.38 562.76C1604.42 562.672 1604.21 563.035 1604.78 560.806C1607.04 552.617 1607.99 544.115 1607.59 535.623C1607.07 527.107 1604.88 519.155 1599.79 512.193C1599.34 511.604 1599.11 510.88 1599.12 510.139C1599.12 508.035 1599.03 505.919 1598.98 503.878C1598.98 502.262 1598.98 502.237 1600.52 502.15L1613.94 501.361L1628.44 500.446C1628.62 500.459 1628.81 500.459 1628.99 500.446C1629.87 500.309 1630.23 500.659 1630.23 501.561C1630.31 504.717 1630.46 507.822 1630.61 511.028C1630.57 513.345 1630.71 515.687 1630.85 518.442Z" fill="#173303"/>
<path d="M1420.73 521.51L1424.21 518.705C1429.83 514.08 1436.05 510.239 1442.68 507.284C1450.22 504.013 1458.44 502.684 1466.6 503.415C1476.14 504.266 1482.71 509.188 1486.02 518.354C1487.59 522.855 1488.58 527.545 1488.94 532.305C1489.78 543.863 1490.01 555.459 1489.65 567.043C1489.52 575.049 1489.16 583.034 1488.55 590.999C1488.24 595.006 1487.8 599.013 1487.41 603.021C1487.27 604.423 1487.24 604.448 1485.87 604.423C1477.27 604.248 1468.68 604.064 1460.09 603.872C1458.94 603.872 1458.92 603.872 1459.03 602.62C1459.67 596.146 1460.27 589.671 1460.56 583.172C1461.12 572.219 1461.22 561.253 1460.86 550.275C1460.82 546.431 1460.25 542.611 1459.16 538.929C1457.47 533.72 1454.4 531.415 1448.95 531.24C1444.76 531.196 1440.61 532.171 1436.87 534.083C1431.11 536.85 1426.22 540.883 1421.41 545.053C1421.15 545.307 1420.95 545.622 1420.83 545.972C1420.72 546.321 1420.69 546.694 1420.75 547.056C1420.75 556.407 1420.8 565.765 1420.89 575.132C1420.89 584.049 1421.03 592.977 1421.1 601.894C1421.07 602.269 1421.07 602.645 1421.1 603.021C1421.2 603.922 1420.77 604.173 1419.86 604.273C1415.2 604.486 1410.54 604.749 1405.89 604.999C1401.96 605.2 1398.03 605.375 1394.12 605.613C1393.32 605.613 1393 605.475 1393 604.636C1392.94 604.18 1392.99 603.716 1393.13 603.281C1393.28 602.846 1393.53 602.452 1393.86 602.132C1394.78 601.22 1395.64 600.25 1396.45 599.226C1397.47 597.974 1397.46 597.974 1396.58 596.722C1395.7 595.469 1394.6 593.892 1393.55 592.514C1393 591.798 1392.7 590.917 1392.69 590.01C1392.49 577.128 1392.25 564.242 1391.97 551.352C1391.82 543.162 1391.7 534.985 1391.51 526.807C1391.44 526.271 1391.52 525.725 1391.74 525.231C1391.96 524.737 1392.31 524.315 1392.75 524.014C1394.82 522.562 1396.76 520.921 1398.8 519.444C1399.64 518.83 1399.63 518.354 1399.13 517.503C1397.24 514.234 1394.92 511.242 1392.22 508.612C1391.86 508.302 1391.57 507.918 1391.37 507.486C1391.18 507.054 1391.07 506.584 1391.07 506.107C1390.9 494.837 1390.67 483.679 1390.46 472.458C1390.46 470.768 1390.33 470.83 1391.99 470.743L1418.46 469.29H1418.82C1420.34 469.29 1420.37 469.29 1420.38 470.718C1420.38 474.374 1420.38 478.031 1420.44 481.688C1420.49 494.386 1420.55 507.088 1420.6 519.794L1420.73 521.51Z" fill="#173303"/>
<path d="M890.479 526.557C890.801 526.557 890.9 526.357 891.036 526.169C896.587 518.155 904.218 512.957 913.163 509.601C923.817 505.499 935.338 504.239 946.613 505.945C959.362 507.886 967.675 515.299 971.676 527.647C973.076 532.397 973.908 537.299 974.154 542.248C974.377 545.154 974.427 548.059 974.427 551.014C974.427 571.969 974.427 592.915 974.427 613.853C974.427 616.446 974.662 616.095 972.147 616.095H944.408C943.851 616.095 943.653 615.82 943.665 615.294C943.677 614.768 943.665 614.304 943.665 613.803C943.665 594.285 943.665 574.766 943.665 555.247C943.76 551.089 943.259 546.938 942.178 542.925C940.159 536.062 935.86 531.579 928.736 530.189C924.974 529.51 921.108 529.716 917.437 530.79C909.067 533.091 901.757 538.278 896.773 545.454C896.075 546.473 895.442 547.535 894.877 548.635C893.763 550.704 893.2 553.03 893.242 555.385C893.316 574.72 893.242 594.055 893.242 613.378C893.242 613.816 893.242 614.254 893.242 614.63C893.242 616.02 893.242 616.045 891.805 616.045H864.004C862.455 616.045 862.443 616.045 862.443 614.367C862.443 606.002 862.443 597.636 862.443 589.321C862.437 588.335 862.708 587.367 863.223 586.529C867.958 578.284 870.403 568.9 870.297 559.367C870.311 550.083 867.901 540.96 863.31 532.919C862.719 531.912 862.415 530.759 862.43 529.588C862.43 522.838 862.43 516.088 862.43 509.326C862.43 508.9 862.43 508.462 862.43 508.074C862.43 507.685 862.678 507.16 863.31 507.185C863.669 507.185 864.041 507.185 864.412 507.185H888.175C888.48 507.203 888.786 507.203 889.091 507.185C889.959 507.084 890.33 507.435 890.268 508.337C890.268 511.255 890.268 514.16 890.268 517.103C890.268 520.046 890.268 522.8 890.268 525.656C890.305 525.881 890.169 526.269 890.479 526.557Z" fill="#173303"/>
<path d="M449.58 531.641C447.982 533.57 446.681 535.123 445.38 536.651C440.647 542.348 435.89 548.021 431.182 553.744C430.881 554.163 430.48 554.497 430.016 554.716C429.553 554.935 429.042 555.032 428.531 554.996C419.623 554.996 410.728 554.996 401.82 554.996C401.073 554.901 400.313 554.982 399.602 555.234C400.309 555.485 400.841 555.66 401.287 555.81C404.1 556.687 406.912 557.601 409.737 558.403C409.929 558.428 410.114 558.493 410.282 558.593C410.449 558.692 410.595 558.825 410.71 558.983C410.826 559.14 410.909 559.32 410.954 559.511C411 559.701 411.007 559.9 410.976 560.093C410.976 565.666 410.976 571.238 410.976 576.811C410.973 577.28 410.876 577.745 410.691 578.175C410.506 578.606 410.236 578.994 409.898 579.316L389.741 603.497L380.61 614.442C380.277 614.986 379.795 615.421 379.223 615.694V613.44C379.223 567.582 379.223 521.728 379.223 475.878C379.223 472.784 379.693 473.511 376.745 472.559C372.83 471.307 368.903 470.13 365 468.689H501.787C501.985 469.24 501.44 469.503 501.155 469.854C494.849 477.443 488.494 485.007 482.225 492.633C481.906 493.036 481.49 493.351 481.018 493.548C480.546 493.745 480.032 493.818 479.524 493.76H420.961H401.436H399.417C400.116 494.258 400.915 494.591 401.758 494.737C404.335 495.563 406.924 496.327 409.501 497.129C411.298 497.692 410.951 497.63 410.963 499.17C410.963 509.263 410.963 519.361 410.963 529.462C410.963 532.042 410.653 531.716 413.23 531.716H449.58V531.641Z" fill="#173303"/>
<path d="M700.569 518.104L688.291 534.747L685.987 533.294C679.461 528.961 672.231 525.824 664.628 524.027C658.649 522.539 652.429 522.334 646.367 523.426C644.204 523.867 642.117 524.626 640.172 525.68C635.626 528.185 634.3 532.893 635.217 537.426C635.467 538.458 635.927 539.426 636.567 540.269C637.207 541.112 638.012 541.811 638.933 542.323C640.766 543.451 642.725 544.355 644.769 545.015C649.859 546.638 655.028 548.001 660.255 549.098C668.158 550.868 675.948 553.118 683.583 555.835C687.694 557.307 691.606 559.293 695.229 561.746C703.133 567.193 705.946 574.92 705.215 584.287C704.422 594.305 699.578 601.906 691.339 607.391C685.351 611.323 678.586 613.887 671.517 614.905C652.048 618.032 632.098 615.206 614.23 606.79C613.115 606.277 612.062 605.625 610.959 605.099C610.619 604.965 610.332 604.72 610.146 604.402C609.959 604.084 609.884 603.713 609.931 603.346C609.931 599.59 609.931 595.92 609.931 592.201C609.931 590.548 609.931 590.548 608.407 590.022C608.32 589.484 608.754 589.158 609.002 588.77C610.24 586.741 611.678 584.762 612.954 582.721C613.437 581.945 613.833 581.92 614.552 582.396C617.812 584.491 621.187 586.397 624.661 588.106C631.665 591.729 639.191 594.21 646.961 595.457C652.707 596.436 658.579 596.381 664.306 595.294C666.848 594.81 669.261 593.795 671.393 592.314C672.96 591.252 674.182 589.744 674.903 587.981C675.624 586.218 675.812 584.279 675.444 582.408C675.248 581.24 674.801 580.129 674.136 579.153C673.47 578.178 672.602 577.361 671.591 576.76C670.282 575.947 668.885 575.288 667.428 574.794C660.833 572.455 654.117 570.482 647.308 568.884C639.364 567.02 631.543 564.653 623.893 561.796C620.388 560.453 617.088 558.615 614.093 556.336C611.678 554.507 609.712 552.14 608.348 549.419C606.983 546.698 606.257 543.695 606.226 540.645C605.731 528.31 610.823 518.855 620.821 511.968C627.289 507.621 634.669 504.856 642.378 503.89C655.308 502.025 668.49 503.165 680.92 507.222C687.529 509.385 693.728 512.662 699.255 516.914C699.602 517.177 699.937 517.453 700.259 517.728C700.37 517.741 700.408 517.866 700.569 518.104Z" fill="#173303"/>
<path d="M1245.65 472.684C1245.85 473.338 1245.92 474.03 1245.83 474.712C1245.83 483.061 1245.83 491.409 1245.83 499.758C1245.83 500.184 1245.83 500.622 1245.83 501.01C1245.83 501.398 1246.04 501.812 1246.59 501.799H1247.83C1257.95 501.686 1268.08 501.549 1278.21 501.449C1280.35 501.449 1280.32 501.048 1280.25 503.515C1280.06 510.561 1279.87 517.619 1279.68 524.691C1279.68 526.131 1279.68 526.143 1278.29 526.181L1248.1 526.92H1247.37C1246.06 526.92 1246.03 526.92 1246.03 528.26C1246.03 532.405 1246.03 536.562 1246.03 540.707C1246.03 548.822 1246.07 556.937 1246.14 565.052C1246.12 567.84 1246.46 570.619 1247.16 573.317C1247.6 575.034 1248.43 576.623 1249.59 577.96C1250.74 579.297 1252.19 580.343 1253.81 581.018C1256.87 582.338 1260.21 582.88 1263.52 582.596C1267.2 582.355 1270.83 581.648 1274.33 580.492C1275.81 580.029 1275.81 580.041 1275.99 581.582C1276.81 588.895 1277.64 596.208 1278.47 603.521C1278.47 603.96 1278.47 604.398 1278.59 604.774C1278.75 605.6 1278.39 606.026 1277.6 606.226C1267.34 609.395 1256.97 611.749 1246.13 611.035C1241.87 610.824 1237.68 609.879 1233.74 608.243C1230.22 606.734 1227.05 604.511 1224.42 601.71C1221.79 598.909 1219.75 595.592 1218.44 591.963C1216.71 587.454 1215.61 582.726 1215.16 577.912C1214.55 572.365 1214.54 566.792 1214.46 561.22C1214.31 550.625 1214.16 540.031 1214.03 529.437C1214.02 529.253 1214.02 529.069 1214.03 528.886C1214.12 528.022 1213.81 527.634 1212.89 527.634C1211.65 527.709 1210.31 527.634 1209.03 527.634L1198.36 527.934C1196.81 527.934 1196.82 527.934 1196.86 526.444C1197.05 519.189 1197.23 511.943 1197.4 504.704C1197.4 504.391 1197.4 504.091 1197.4 503.778C1197.4 501.874 1197.29 501.974 1199.24 501.962L1211.76 501.849C1213.61 501.849 1213.61 501.987 1213.57 500.033C1213.47 493.096 1213.35 486.158 1213.23 479.221C1213.23 476.541 1213.23 476.591 1215.7 476.253C1223.79 475.201 1231.88 474.099 1239.96 473.034C1241.93 473.122 1243.76 472.909 1245.65 472.684Z" fill="#173303"/>
<path d="M1371.22 535.51C1369.96 533.774 1368.52 532.175 1366.94 530.739C1362.19 526.734 1356.27 524.423 1350.09 524.165C1335.28 523.263 1324.99 533.131 1322.26 545.453C1320.27 553.5 1320.71 561.962 1323.5 569.76C1325.32 574.78 1328.62 579.108 1332.97 582.149C1337.32 585.19 1342.5 586.794 1347.78 586.741C1356.08 587.009 1364.2 584.258 1370.67 578.989C1371.91 577.926 1373.08 576.78 1374.17 575.558C1374.87 575.834 1375.06 576.385 1375.41 576.81C1379.52 582.521 1383.61 588.244 1387.72 593.954C1388.96 595.632 1388.73 595.344 1387.59 596.734C1381.61 603.981 1373.63 609.261 1364.67 611.899C1352.59 615.789 1339.63 615.88 1327.5 612.162C1311.27 607.153 1300.46 596.133 1294.46 580.229C1291.3 571.679 1289.88 562.573 1290.29 553.455C1290.46 544.813 1292.41 536.302 1296.01 528.46C1303.93 511.542 1317.17 501.498 1335.29 498.167C1347.25 495.82 1359.64 497.25 1370.76 502.262C1378.75 505.649 1385.48 511.483 1390.02 518.943C1390.24 519.306 1390.45 519.682 1390.66 520.057C1390.71 520.135 1390.75 520.222 1390.77 520.314C1390.78 520.405 1390.78 520.5 1390.76 520.591C1390.74 520.683 1390.71 520.769 1390.65 520.845C1390.6 520.921 1390.53 520.985 1390.45 521.034L1389.72 521.61L1372.45 534.897C1372.12 535.229 1371.69 535.444 1371.22 535.51Z" fill="#173303"/>
<path d="M1191.3 558.402C1191.19 572.878 1191.56 590.035 1191.56 607.241C1191.56 609.595 1191.92 609.382 1189.4 609.52C1180.32 610.004 1171.23 610.48 1162.15 610.948C1160.58 611.035 1160.6 611.023 1160.56 609.37C1160.25 598.792 1159.95 588.206 1159.64 577.612C1159.43 569.998 1159.28 562.384 1159.09 554.77C1158.88 546.589 1158.66 538.416 1158.44 530.251C1158.28 523.877 1158.14 517.503 1157.97 511.116C1157.97 509.263 1157.8 507.359 1157.76 505.556C1157.76 504.141 1157.76 504.116 1159.14 504.028L1171.26 503.289L1188.52 502.225H1189.08C1190.89 502.125 1190.89 502.125 1190.9 503.941C1191.06 521.159 1191.17 538.478 1191.3 558.402Z" fill="#173303"/>
<path d="M708.237 517.992C708.019 517.731 707.769 517.5 707.494 517.303C706.558 516.929 705.79 516.223 705.334 515.316C704.877 514.41 704.764 513.366 705.016 512.382C705.099 511.131 705.099 509.876 705.016 508.625C705.016 506.959 704.681 506.834 706.85 506.846H734.663C736.199 506.846 736.199 506.846 736.224 508.349V509.276C736.224 544.098 736.224 578.923 736.224 613.753C736.224 616.258 736.608 616.008 733.994 616.02H707.296C706.862 616.02 706.428 616.02 706.057 616.02C705.375 616.02 705.078 615.832 705.078 615.081C705.078 610.986 705.078 606.903 705.078 602.808C705.096 602.505 705.177 602.209 705.316 601.939C705.455 601.669 705.648 601.432 705.883 601.243C708.889 597.938 711.02 593.919 712.078 589.559C713.552 583.298 713.639 577.037 711.049 571.038C709.887 568.442 708.199 566.121 706.094 564.226C705.805 564.014 705.572 563.734 705.412 563.412C705.253 563.089 705.172 562.733 705.177 562.372C705.177 549.365 705.177 536.354 705.177 523.339C705.155 522.594 705.407 521.867 705.883 521.298C706.565 520.296 707.345 519.181 708.237 517.992Z" fill="#173303"/>
<path d="M720.454 492.144H706.466C705.054 492.144 705.029 492.144 705.029 490.716C705.029 482.368 705.029 474.019 705.029 465.671C705.029 464.268 705.029 464.243 706.454 464.243H734.788C736.2 464.243 736.225 464.243 736.225 465.658C736.225 474.007 736.225 482.355 736.225 490.704C736.225 492.106 736.225 492.131 734.8 492.144H720.454Z" fill="#173303"/>
<path d="M1175.29 454.789C1180.25 454.538 1185.2 454.288 1190.16 454C1190.85 454 1191.21 454.15 1191.16 454.902C1191.16 455.027 1191.16 455.152 1191.16 455.277C1191.16 463.325 1191.16 471.373 1191.16 479.421C1191.16 480.673 1191.16 480.673 1189.8 480.761C1185.51 480.999 1181.22 481.199 1176.94 481.4L1160.83 482.126C1159.23 482.126 1159.25 482.126 1159.2 480.561C1159.02 473.047 1158.83 465.559 1158.63 458.095C1158.63 457.607 1158.63 457.106 1158.63 456.617C1158.63 455.903 1158.86 455.615 1159.57 455.603C1160.55 455.603 1161.51 455.465 1162.5 455.415L1175.36 454.801L1175.29 454.789Z" fill="#173303"/>
</g>
<defs>
<clipPath id="clip0_808_2099">
<rect width="2014.61" height="1058.14" fill="white"/>
</clipPath>
</defs>
</svg>
