<svg width="1404" height="1065" viewBox="0 0 1404 1065" fill="none" xmlns="http://www.w3.org/2000/svg">
<g clip-path="url(#clip0_809_2304)">
<path d="M236.123 130.727V136.727" stroke="#214457" stroke-width="3" stroke-miterlimit="10"/>
<path d="M236.123 148.758V960.83" stroke="#214457" stroke-width="3" stroke-miterlimit="10"/>
<path d="M236.123 966.845V972.845" stroke="#214457" stroke-width="3" stroke-miterlimit="10"/>
<path d="M367.525 130.727V136.727" stroke="#214457" stroke-width="3" stroke-miterlimit="10"/>
<path d="M367.525 148.758V960.83" stroke="#214457" stroke-width="3" stroke-miterlimit="10"/>
<path d="M367.525 966.845V972.845" stroke="#214457" stroke-width="3" stroke-miterlimit="10"/>
<path d="M301.177 97.0317L291.609 113.356H276.88L293.963 86.2495L276.5 60.0547H291.609L302.315 76.1514L311.73 60.0547H326.46L309.528 86.9331L327.144 113.356H312.034L301.177 97.0317Z" fill="#3A3A3C"/>
<path d="M24.6768 333.436L15.1094 349.76H0.3799L17.4634 322.654L0 296.459H15.1094L25.8155 312.556L35.2305 296.459H49.9605L33.0284 323.337L50.6436 349.76H35.5342L24.6768 333.436Z" fill="#3A3A3C"/>
<path d="M24.6768 764.594L15.1094 780.918H0.3799L17.4634 753.812L0 727.616H15.1094L25.8155 743.713L35.2305 727.616H49.9605L33.0284 754.495L50.6436 780.918H35.5342L24.6768 764.594Z" fill="#3A3A3C"/>
<path d="M301.177 1048.13L291.609 1064.45H276.88L293.963 1037.35L276.5 1011.15H291.609L302.315 1027.25L311.73 1011.15H326.46L309.528 1038.03L327.144 1064.45H312.034L301.177 1048.13Z" fill="#3A3A3C"/>
<path d="M1108.34 130.727V136.727" stroke="#214457" stroke-width="3" stroke-miterlimit="10"/>
<path d="M1108.34 148.758V960.83" stroke="#214457" stroke-width="3" stroke-miterlimit="10"/>
<path d="M1108.34 966.845V972.845" stroke="#214457" stroke-width="3" stroke-miterlimit="10"/>
<path d="M1239.74 130.727V136.727" stroke="#214457" stroke-width="3" stroke-miterlimit="10"/>
<path d="M1239.74 148.758V960.83" stroke="#214457" stroke-width="3" stroke-miterlimit="10"/>
<path d="M1239.74 966.845V972.845" stroke="#214457" stroke-width="3" stroke-miterlimit="10"/>
<path d="M1152.8 114.355L1151.08 111.775L1149.57 114.355H1147.24L1149.94 110.071L1147.18 105.931H1149.57L1151.26 108.475L1152.75 105.931H1155.08L1152.4 110.179L1155.19 114.355H1152.8Z" fill="#3A3A3C"/>
<path d="M580.562 747.597C590.768 747.597 598.468 753.341 600.913 762.63H589.424C587.651 758.963 584.413 757.13 580.44 757.13C574.024 757.13 569.624 761.897 569.624 769.474C569.624 777.051 574.024 781.818 580.44 781.818C584.413 781.818 587.651 779.985 589.424 776.318H600.913C598.468 785.607 590.768 791.291 580.562 791.291C567.913 791.291 558.99 782.308 558.99 769.474C558.99 756.64 567.913 747.597 580.562 747.597Z" fill="#3A3A3C"/>
<path d="M607.332 745.763H617.782V790.985H607.332V745.763Z" fill="#3A3A3C"/>
<path d="M640.517 791.475C630.495 791.475 623.283 784.752 623.283 773.936C623.283 763.119 630.373 756.396 640.517 756.396C650.478 756.396 657.506 762.996 657.506 773.386C657.506 774.363 657.445 775.402 657.322 776.44H633.672C634.039 780.902 636.789 782.98 640.15 782.98C643.084 782.98 644.733 781.513 645.589 779.68H656.711C655.062 786.341 649.011 791.475 640.517 791.475ZM633.733 770.635H646.811C646.811 766.907 643.878 764.769 640.394 764.769C636.972 764.769 634.345 766.847 633.733 770.635Z" fill="#3A3A3C"/>
<path d="M675.964 756.396C681.036 756.396 684.641 758.719 686.475 761.713V756.885H696.924V790.985H686.475V786.157C684.58 789.152 680.975 791.475 675.902 791.475C667.591 791.475 660.93 784.63 660.93 773.874C660.93 763.118 667.591 756.396 675.964 756.396ZM679.019 765.502C675.108 765.502 671.564 768.436 671.564 773.874C671.564 779.313 675.108 782.368 679.019 782.368C682.991 782.368 686.475 779.374 686.475 773.936C686.475 768.497 682.991 765.502 679.019 765.502Z" fill="#3A3A3C"/>
<path d="M714.954 790.985H704.504V756.885H714.954V762.568C717.337 758.963 721.065 756.519 725.648 756.519V767.58H722.776C717.826 767.58 714.954 769.291 714.954 775.157L714.954 790.985Z" fill="#3A3A3C"/>
<path d="M764.534 791.475C755.428 791.475 749.317 786.402 748.828 779.802H759.156C759.4 782.186 761.54 783.775 764.412 783.775C767.101 783.775 768.506 782.552 768.506 781.025C768.506 775.525 749.928 779.496 749.928 766.969C749.928 761.163 754.878 756.396 763.8 756.396C772.601 756.396 777.489 761.285 778.162 768.008H768.506C768.201 765.686 766.428 764.157 763.495 764.157C761.05 764.157 759.706 765.135 759.706 766.785C759.706 772.225 778.162 768.374 778.345 781.085C778.345 787.013 773.089 791.475 764.534 791.475Z" fill="#3A3A3C"/>
<path d="M805.726 756.396C814.098 756.396 820.759 763.118 820.759 773.874C820.759 784.63 814.098 791.475 805.726 791.475C800.714 791.475 797.108 789.091 795.214 786.219V807.241H784.764V756.885H795.214V761.713C797.108 758.719 800.714 756.396 805.726 756.396ZM802.608 765.502C798.697 765.502 795.152 768.496 795.152 773.936C795.152 779.375 798.697 782.368 802.608 782.368C806.581 782.368 810.125 779.313 810.125 773.874C810.125 768.435 806.581 765.502 802.608 765.502Z" fill="#3A3A3C"/>
<path d="M839.215 756.396C844.287 756.396 847.893 758.719 849.727 761.713V756.885H860.177V790.985H849.727V786.157C847.832 789.152 844.227 791.475 839.154 791.475C830.843 791.475 824.182 784.63 824.182 773.874C824.182 763.118 830.843 756.396 839.215 756.396ZM842.271 765.502C838.36 765.502 834.816 768.436 834.816 773.874C834.816 779.313 838.359 782.368 842.271 782.368C846.243 782.368 849.727 779.374 849.727 773.936C849.727 768.497 846.243 765.502 842.271 765.502Z" fill="#3A3A3C"/>
<path d="M882.789 756.396C891.345 756.396 897.395 761.102 899.167 769.229H888.045C887.189 766.847 885.478 765.318 882.605 765.318C878.878 765.318 876.311 768.252 876.311 773.936C876.311 779.619 878.878 782.552 882.605 782.552C885.478 782.552 887.128 781.146 888.045 778.641H899.167C897.394 786.524 891.345 791.475 882.789 791.475C872.767 791.475 865.678 784.752 865.678 773.936C865.678 763.18 872.767 756.396 882.789 756.396Z" fill="#3A3A3C"/>
<path d="M919.886 791.475C909.863 791.475 902.652 784.752 902.652 773.936C902.652 763.119 909.741 756.396 919.886 756.396C929.847 756.396 936.875 762.996 936.875 773.386C936.875 774.363 936.814 775.402 936.691 776.44H913.041C913.408 780.902 916.158 782.98 919.52 782.98C922.453 782.98 924.103 781.513 924.958 779.68H936.08C934.431 786.341 928.381 791.475 919.886 791.475ZM913.103 770.635H926.181C926.181 766.907 923.247 764.769 919.764 764.769C916.342 764.769 913.714 766.847 913.103 770.635Z" fill="#3A3A3C"/>
<path d="M1173.4 1035.31L1163.83 1051.63H1149.1L1166.18 1024.53L1148.72 998.333H1163.83L1174.53 1014.43L1183.95 998.333H1198.68L1181.75 1025.21L1199.36 1051.63H1184.25L1173.4 1035.31Z" fill="#3A3A3C"/>
<path d="M1403.81 273.623H1397.81" stroke="#214457" stroke-width="3" stroke-miterlimit="10"/>
<path d="M1385.7 273.623L84.1113 273.623" stroke="#214457" stroke-width="3" stroke-miterlimit="10"/>
<path d="M78.0566 273.623H72.0566" stroke="#214457" stroke-width="3" stroke-miterlimit="10"/>
<path d="M1403.81 405.025H1397.81" stroke="#214457" stroke-width="3" stroke-miterlimit="10"/>
<path d="M1385.7 405.026L84.1113 405.025" stroke="#214457" stroke-width="3" stroke-miterlimit="10"/>
<path d="M78.0566 405.025H72.0566" stroke="#214457" stroke-width="3" stroke-miterlimit="10"/>
<path d="M1403.81 704.781H1397.81" stroke="#214457" stroke-width="3" stroke-miterlimit="10"/>
<path d="M1385.7 704.782L84.1113 704.781" stroke="#214457" stroke-width="3" stroke-miterlimit="10"/>
<path d="M78.0566 704.781H72.0566" stroke="#214457" stroke-width="3" stroke-miterlimit="10"/>
<path d="M1403.81 836.184L1397.81 836.184" stroke="#214457" stroke-width="3" stroke-miterlimit="10"/>
<path d="M1385.7 836.184L84.1113 836.184" stroke="#214457" stroke-width="3" stroke-miterlimit="10"/>
<path d="M78.0566 836.184H72.0566" stroke="#214457" stroke-width="3" stroke-miterlimit="10"/>
<g clip-path="url(#clip1_809_2304)">
<path d="M644.032 547.917C643.902 547.922 643.775 547.96 643.664 548.028C643.553 548.096 643.462 548.192 643.399 548.306C637.021 556.68 628.466 561.688 618.365 564.257C612.66 565.725 606.765 566.329 600.879 566.049C595.763 565.797 590.803 564.816 586.262 562.353C579.646 558.783 575.68 553.124 573.492 546.115C572.078 541.403 571.381 536.506 571.426 531.587C571.384 512.896 571.384 494.209 571.426 475.524C571.426 475.272 571.426 475.039 571.426 474.771C571.426 474.261 571.665 474.048 572.157 474.062C572.459 474.062 572.761 474.062 573.063 474.062H595.69C595.992 474.062 596.294 474.062 596.596 474.062C597.083 474.062 597.337 474.257 597.317 474.771C597.317 475.175 597.317 475.573 597.317 475.976V525.122C597.245 528.432 597.629 531.737 598.457 534.943C598.775 536.103 599.197 537.231 599.719 538.314C602.077 543.172 606.053 545.79 611.349 546.227C621.878 547.101 630.395 543.196 636.992 535.055C637.182 534.822 637.353 534.569 637.533 534.331C640.178 530.708 640.178 530.708 640.178 526.205V476.175C640.178 475.923 640.178 475.689 640.178 475.422C640.178 474.121 640.178 474.106 641.509 474.106H664.437C666.303 474.106 666.079 474.004 666.079 475.859C666.079 496.147 666.079 516.437 666.079 536.731C666.03 537.882 666.095 539.036 666.274 540.175C666.796 542.778 667.999 544.017 670.586 544.546C672.287 544.881 672.287 544.881 672.287 546.577C672.287 552.036 672.287 557.497 672.287 562.96C672.287 564.417 672.287 564.417 670.864 564.651C666.576 565.306 662.284 565.7 657.943 565.282C655.381 565.082 652.891 564.345 650.634 563.121C647.024 561.076 644.875 558.069 644.588 553.848C644.408 551.847 644.208 549.904 644.032 547.917Z" fill="#173303"/>
<path d="M800.26 519.254C800.26 512.094 800.26 504.93 800.26 497.765C800.241 496.67 800.568 495.596 801.195 494.696C806.701 486.409 814.224 480.609 823.374 476.826C829.479 474.352 835.959 472.92 842.541 472.59C849.567 472.172 856.524 472.59 863.336 474.421C874.055 477.277 883.273 482.645 890.226 491.422C897.778 500.961 901.032 511.9 899.624 523.917C897.539 541.656 887.775 553.935 871.58 561.26C865.421 564.043 858.912 565.369 852.174 565.864C844.39 566.52 836.551 565.77 829.035 563.65C819.291 560.823 810.896 555.844 804.328 548.019C803.113 546.546 801.975 545.012 800.918 543.424C800.442 542.72 800.203 541.883 800.235 541.034C800.269 533.792 800.26 526.506 800.26 519.254ZM873.49 519.317C873.441 518.516 873.397 517.714 873.353 516.918C872.691 505.498 864.763 493.938 850.161 492.286C838.151 490.931 828.465 497.216 823.953 505.556C820.777 511.429 819.89 517.7 820.899 524.199C822.847 536.925 832.767 545.784 845.679 546.333C855.248 546.736 863.078 543.244 868.661 535.336C872.038 530.557 873.431 525.122 873.49 519.317Z" fill="#173303"/>
<path d="M923.295 491.821C923.655 491.928 923.724 491.763 923.782 491.651C928.211 485.336 934.243 481.047 941.356 478.225C950.725 474.422 960.959 473.246 970.95 474.825C981.314 476.467 988.164 482.495 991.536 492.413C992.719 495.901 993.212 499.52 993.635 503.153C993.915 505.995 994.028 508.851 993.972 511.707C993.972 529.235 993.972 546.765 993.972 564.296C993.972 566.38 994.21 566.098 992.106 566.103C984.713 566.103 977.323 566.103 969.937 566.103C969.635 566.086 969.332 566.086 969.031 566.103C968.202 566.2 967.973 565.783 968.056 565.044C968.085 564.695 968.056 564.345 968.056 563.995C968.056 547.866 968.056 531.736 968.056 515.607C968.136 512.147 967.718 508.694 966.814 505.353C964.821 498.553 959.681 494.643 952.592 494.555C945.858 494.473 940.031 496.95 934.842 501.05C931.339 503.818 928.425 507.102 926.559 511.25C926.013 512.43 925.734 513.715 925.741 515.014C925.77 531.445 925.77 547.874 925.741 564.301C925.741 566.361 925.97 566.113 923.87 566.113C916.48 566.113 909.091 566.113 901.701 566.113C901.35 566.113 900.995 566.113 900.644 566.113C900.069 566.147 899.811 565.899 899.845 565.321C899.845 565.025 899.845 564.724 899.845 564.423C899.845 557.661 899.845 550.9 899.845 544.134C899.834 543.24 900.059 542.359 900.498 541.579C908.566 526.651 908.538 511.734 900.415 496.829C900.052 496.231 899.854 495.55 899.84 494.852C899.864 488.94 899.84 483.034 899.84 477.123C899.84 475.753 899.84 475.743 901.272 475.743H921.833H922.588C923.076 475.743 923.309 476.001 923.295 476.491C923.295 476.841 923.295 477.191 923.295 477.54V491.835V491.821Z" fill="#173303"/>
<path d="M482.043 443.748H596.799C597.038 444.234 596.648 444.418 596.443 444.666C591.142 450.956 585.822 457.232 580.545 463.541C580.274 463.891 579.92 464.167 579.515 464.346C579.111 464.525 578.668 464.601 578.226 464.566C559.617 464.54 541.013 464.54 522.414 464.566H511.257C511.15 465.081 511.554 465.052 511.803 465.11L519.296 467.403C520.573 467.796 520.578 467.801 520.578 469.142C520.578 477.513 520.578 485.88 520.578 494.244C520.578 496.323 520.344 496.095 522.414 496.095H552.661C552.691 496.722 552.301 496.945 552.057 497.232C547.243 502.949 542.4 508.646 537.611 514.388C537.341 514.738 536.989 515.016 536.585 515.197C536.181 515.379 535.738 515.457 535.297 515.427C527.754 515.383 520.193 515.393 512.67 515.388H511.13C511.296 515.932 511.7 515.874 511.998 515.976C514.541 516.763 517.079 517.554 519.637 518.303C519.785 518.32 519.927 518.366 520.056 518.439C520.186 518.512 520.299 518.61 520.39 518.727C520.48 518.845 520.547 518.979 520.585 519.122C520.623 519.265 520.632 519.414 520.612 519.561C520.579 524.272 520.579 528.982 520.612 533.69C520.59 534.34 520.317 534.955 519.852 535.41C514.408 541.847 508.967 548.287 503.53 554.727C500.713 558.059 497.897 561.393 495.081 564.728C494.835 565.123 494.502 565.455 494.107 565.7C493.746 565.258 493.931 564.728 493.931 564.286C493.931 526.16 493.931 488.034 493.931 449.907C493.931 447.163 494.277 447.77 491.787 446.993C488.962 446.104 486.121 445.254 483.29 444.384C482.871 444.258 482.457 444.122 482.043 443.991V443.748Z" fill="#173303"/>
<path d="M577.063 696.395C576.587 696.578 576.073 696.638 575.567 696.57C567.226 696.57 558.88 696.57 550.534 696.599C550.094 696.625 549.655 696.539 549.259 696.349C548.862 696.158 548.521 695.87 548.268 695.511C538.498 683.348 528.709 671.205 518.903 659.081L517.792 657.716C517.417 658.328 517.563 658.882 517.563 659.387C517.563 664.694 517.578 670.005 517.607 675.319C517.63 675.688 517.579 676.057 517.457 676.406C517.335 676.754 517.144 677.075 516.896 677.349C509.821 685.354 502.763 693.375 495.721 701.412C495.56 701.602 495.414 701.806 495.234 702.01C494.664 701.611 494.878 701.121 494.873 700.723C494.652 684.532 494.443 668.354 494.245 652.189L493.689 609.367C493.689 608.104 493.689 608.094 492.466 607.72C490.454 607.094 488.432 606.491 486.415 605.874C485.876 605.787 485.37 605.556 484.953 605.204H515.819C516.121 605.204 516.423 605.204 516.725 605.204C517.305 605.17 517.548 605.437 517.514 606.006C517.514 606.355 517.514 606.705 517.514 607.055C517.514 619.528 517.514 631.995 517.514 644.456C517.454 645.007 517.484 645.565 517.602 646.107C518.089 646.107 518.235 645.66 518.479 645.384C528.977 633.444 539.472 621.497 549.964 609.542C550.166 609.262 550.432 609.034 550.741 608.876C551.049 608.719 551.391 608.638 551.737 608.638C559.879 608.667 568.025 608.638 576.166 608.638C576.4 608.638 576.629 608.692 577.078 608.745C576.673 609.231 576.4 609.571 576.103 609.896L542.826 648.366C541.564 649.823 541.559 649.823 542.757 651.387L576.05 695.059C576.391 695.486 576.693 695.89 577.063 696.395Z" fill="#173303"/>
<path d="M686.269 544.396C687.662 542.298 689.007 540.306 690.318 538.29C690.693 537.708 691.034 537.805 691.545 538.101C692.776 538.872 694.027 539.615 695.297 540.33C702.391 544.313 709.802 547.476 717.89 548.816C722.825 549.632 727.785 549.885 732.74 548.967C735.081 548.595 737.314 547.727 739.289 546.422C740.432 545.678 741.366 544.656 742.002 543.451C742.637 542.246 742.953 540.899 742.918 539.539C742.943 538.303 742.635 537.083 742.028 536.005C741.421 534.927 740.535 534.031 739.464 533.409C738.121 532.618 736.692 531.981 735.206 531.51C729.715 529.542 724.053 528.158 718.401 526.735C712.749 525.312 707.195 523.821 701.763 521.921C698.716 520.887 695.798 519.508 693.066 517.812C687.428 514.252 684.651 509.181 684.602 502.507C684.534 493.225 688.403 485.992 695.784 480.503C700.882 476.786 706.8 474.343 713.042 473.378C726.372 471.143 739.386 472.367 751.937 477.526C755.876 479.186 759.583 481.349 762.963 483.962C763.937 484.69 764.069 484.627 763.275 485.681C760.264 489.693 757.262 493.71 754.271 497.732C753.559 498.679 753.54 498.704 752.502 498.014C747.196 494.614 741.608 491.787 735.449 490.198C730.046 488.8 724.574 488.256 719.025 489.144C716.884 489.48 714.821 490.195 712.935 491.257C708.973 493.497 708.179 497.703 709.076 501.263C709.461 502.803 710.537 503.877 711.79 504.751C713.176 505.66 714.675 506.388 716.248 506.917C720.603 508.506 725.135 509.428 729.632 510.482C736.157 511.93 742.595 513.741 748.916 515.908C752.44 517.106 755.801 518.737 758.919 520.765C763.119 523.573 766.334 527.192 767.26 532.263C769.048 542.079 766.568 550.545 758.646 557.035C753.774 561.037 748.049 563.315 741.924 564.612C734.925 566.037 727.756 566.455 720.638 565.851C712.465 565.265 704.417 563.525 696.734 560.683C694.11 559.669 691.542 558.516 689.041 557.229C688.603 557.069 688.231 556.766 687.987 556.369C687.743 555.973 687.64 555.505 687.696 555.043C687.774 552.09 687.726 549.132 687.721 546.174C687.701 544.872 687.696 544.872 686.269 544.396Z" fill="#173303"/>
<path d="M857.684 662.457C857.615 662.594 857.576 662.744 857.571 662.898C857.566 663.051 857.595 663.204 857.655 663.345C860.223 673.944 866.912 679.19 877.251 680.035C885.592 680.715 893.183 678.578 900.073 673.9C901.047 673.225 901.081 673.235 901.69 674.328C904.331 679.056 906.965 683.785 909.593 688.516C910.124 689.487 910.114 689.487 909.15 690.109C901.5 695.054 893.261 698.454 884.116 699.425C877.003 700.188 869.948 699.911 863.039 697.968C850.118 694.281 841.63 685.951 837.396 673.283C835.209 666.726 834.673 659.965 834.96 653.111C835.115 648.147 835.973 643.23 837.508 638.505C841.44 626.644 849.723 619.251 861.606 615.71C867.502 613.952 873.568 613.626 879.673 613.898C885.032 614.141 890.27 614.986 895.264 616.92C903.737 620.174 909.647 625.925 912.375 634.673C913.676 638.836 913.905 643.134 913.739 647.457C913.542 651.662 912.87 655.832 911.737 659.887C911.42 661.053 911.41 661.043 910.241 661.072L865.611 662.151C863.604 662.199 861.592 662.238 859.584 662.301C858.947 662.262 858.307 662.315 857.684 662.457ZM875.059 648.273V648.162C880.082 648.162 885.105 648.162 890.128 648.162C891.103 648.162 892.389 648.589 893.052 647.967C893.788 647.268 893.276 645.976 893.227 644.956C892.896 637.937 888.935 633.211 882.07 631.72C877.827 630.804 873.429 630.892 869.227 631.977C867.293 632.445 865.477 633.304 863.892 634.503C862.307 635.701 860.986 637.213 860.013 638.942C858.558 641.466 857.596 644.241 857.177 647.122C856.997 648.254 856.997 648.268 858.196 648.268C863.825 648.278 869.446 648.28 875.059 648.273Z" fill="#173303"/>
<path d="M934.895 629.112C935.87 628.359 936.567 627.805 937.278 627.256C941.572 623.857 946.219 620.925 951.14 618.513C957.711 615.274 965.043 613.882 972.348 614.486C979.925 615.142 985.236 618.858 988.037 625.964C989.694 630.161 990.337 634.557 990.688 639.016C991.438 648.468 991.394 657.93 991.121 667.397C990.873 676.14 990.356 684.883 989.382 693.626C989.382 693.728 989.382 693.825 989.382 693.927C989.206 695.292 989.206 695.321 987.847 695.287C981.065 695.116 974.283 694.938 967.501 694.753C966.175 694.719 966.166 694.7 966.302 693.374C966.779 688.743 967.151 684.104 967.418 679.457C968.084 669.559 968.165 659.629 967.661 649.721C967.553 647.568 967.184 645.437 966.56 643.373C966.262 642.408 965.852 641.482 965.337 640.614C963.876 638.112 961.62 636.917 958.77 636.728C955.359 636.475 952.187 637.301 949.108 638.637C945.767 640.151 942.628 642.073 939.763 644.359C938.491 645.33 937.283 646.404 936.006 647.375C935.703 647.594 935.463 647.889 935.312 648.23C935.16 648.572 935.102 648.947 935.144 649.318C935.198 652.47 935.193 655.632 935.212 658.785L935.431 693.048C935.431 693.398 935.402 693.752 935.431 694.102C935.505 694.821 935.163 695.074 934.457 695.074C932.547 695.146 930.642 695.268 928.732 695.37C923.766 695.632 918.799 695.894 913.833 696.157C912.775 696.215 912.751 696.21 912.722 695.127C912.722 694.423 912.722 693.723 912.722 693.019C912.68 692.797 912.71 692.567 912.807 692.363C912.904 692.159 913.064 691.99 913.263 691.882C913.808 691.61 913.813 691.207 913.477 690.785C912.527 689.59 912.576 688.196 912.556 686.782C912.449 678.918 912.308 671.054 912.186 663.19C912.157 661.408 912.186 661.408 914.008 661.315C915.29 661.252 915.309 661.257 915.626 660.038C917.36 653.456 918.262 646.787 917.575 639.968C917.034 634.479 915.402 629.384 912.132 624.91C911.704 624.353 911.478 623.669 911.489 622.967C911.489 621.461 911.489 619.961 911.372 618.46C911.324 617.668 911.621 617.391 912.381 617.352C914.89 617.231 917.394 617.07 919.904 616.925C924.289 616.672 928.63 616.439 932.995 616.167C934.238 616.089 934.243 616.06 934.301 617.318C934.457 620.767 934.611 624.217 934.764 627.669C934.803 628.048 934.842 628.432 934.895 629.112Z" fill="#173303"/>
<path d="M780.663 631.423L782.427 630C786.51 626.722 790.812 623.778 795.582 621.607C801.818 618.795 808.308 617.571 815.129 618.387C821.551 619.149 825.99 622.501 828.392 628.504C829.672 631.878 830.457 635.418 830.721 639.015C831.481 647.273 831.427 655.53 831.276 663.788C831.14 671.049 830.818 678.301 830.116 685.534C829.951 687.229 829.727 688.934 829.59 690.609C829.537 691.275 829.254 691.455 828.616 691.435C826.808 691.382 824.996 691.367 823.188 691.333L809.921 691.086C808.654 691.056 808.644 691.042 808.781 689.818C810.008 678.261 810.501 666.639 810.257 655.02C810.208 651.814 810.072 648.609 809.331 645.471C809.107 644.442 808.772 643.441 808.333 642.484C807.854 641.399 807.095 640.459 806.134 639.762C805.173 639.064 804.044 638.632 802.861 638.51C799.999 638.197 797.104 638.6 794.437 639.681C791.026 640.958 788.01 642.964 785.141 645.184C783.913 646.156 782.763 647.19 781.53 648.137C781.233 648.361 781 648.658 780.852 648.998C780.704 649.339 780.648 649.711 780.687 650.08C780.746 655.088 780.751 660.096 780.785 665.104C780.837 673.222 780.897 681.337 780.965 689.449C780.965 689.648 780.965 689.847 780.965 690.051C780.965 691.158 780.965 691.188 779.801 691.246C773.779 691.57 767.757 691.876 761.734 692.164C761.325 692.164 760.697 692.509 760.521 691.979C760.372 691.658 760.319 691.301 760.367 690.951C760.416 690.601 760.564 690.271 760.794 690.002C761.515 689.24 762.227 688.463 762.914 687.661C763.698 686.743 763.688 686.729 763.011 685.772C762.742 685.349 762.444 684.944 762.119 684.562C760.55 682.901 760.136 680.963 760.107 678.685C759.922 664.312 759.62 649.944 759.298 635.572C759.269 634.42 759.493 633.629 760.521 632.944C761.905 632.04 763.177 630.962 764.492 629.957C765.418 629.247 765.423 629.238 764.794 628.189C763.456 625.888 761.796 623.79 759.863 621.957C759.585 621.717 759.363 621.418 759.214 621.082C759.066 620.746 758.995 620.381 759.006 620.014C758.894 611.951 758.738 603.892 758.602 595.829C758.602 594.581 758.602 594.562 759.795 594.494C766.321 594.144 772.845 593.799 779.367 593.459C780.566 593.401 780.585 593.415 780.59 594.698C780.619 603.463 780.642 612.229 780.658 620.995C780.668 624.308 780.663 627.664 780.663 631.423Z" fill="#173303"/>
<path d="M674.351 674.003C674.636 675.364 674.818 676.744 674.897 678.131C675.414 682.654 675.872 687.185 676.437 691.703C676.524 692.446 676.227 692.674 675.628 692.868C669.167 694.811 662.624 696.356 655.827 696.429C652.758 696.487 649.694 696.131 646.721 695.37C639.939 693.568 635.252 689.396 632.533 682.979C630.813 678.918 630.097 674.644 629.727 670.277C629.566 668.281 629.541 666.28 629.507 664.279C629.381 655.535 629.273 646.753 629.137 637.991C629.103 635.737 629.264 636.048 627.188 636.048C624.026 636.092 620.854 636.189 617.692 636.257C616.523 636.286 616.508 636.257 616.533 635.14C616.646 629.68 616.766 624.222 616.893 618.766C616.922 617.503 616.942 617.498 618.282 617.479C621.093 617.44 623.909 617.449 626.72 617.372C629.079 617.304 628.762 617.595 628.742 615.361C628.703 610.989 628.616 606.647 628.547 602.295C628.547 601.542 628.572 600.784 628.499 600.041C628.426 599.298 628.806 599.001 629.527 598.919C631.919 598.637 634.306 598.312 636.699 598.001L650.292 596.228L650.741 596.179C652.441 596.014 652.412 595.805 652.412 597.637C652.412 603.546 652.412 609.456 652.412 615.366C652.412 615.715 652.412 616.07 652.412 616.415C652.378 616.993 652.626 617.216 653.206 617.207C654.867 617.182 656.524 617.207 658.185 617.177L675.823 616.935C676.174 616.935 676.529 616.935 676.88 616.935C677.431 616.901 677.747 617.095 677.699 617.697C677.699 617.998 677.699 618.299 677.699 618.601C677.549 623.587 677.398 628.584 677.246 633.59C677.246 634.824 677.246 634.824 675.993 634.824C668.662 634.996 661.328 635.157 653.99 635.31C653.688 635.31 653.386 635.31 653.084 635.31C653.009 635.309 652.934 635.324 652.865 635.353C652.796 635.382 652.733 635.426 652.682 635.481C652.631 635.536 652.591 635.601 652.567 635.672C652.542 635.742 652.532 635.818 652.538 635.893C652.538 636.296 652.538 636.694 652.538 637.097C652.59 646.012 652.646 654.927 652.704 663.841C652.723 664.942 652.822 666.039 653.001 667.125C653.727 671.778 656.241 674.629 661.859 675.499C665.46 676.057 668.958 675.353 672.417 674.401C673.031 674.28 673.616 673.935 674.351 674.003Z" fill="#173303"/>
<path d="M746.791 670.506C747.922 672.046 749.071 673.619 750.202 675.198C752.268 678.035 754.343 680.866 756.394 683.718C757.296 684.966 757.369 684.602 756.263 685.937C751.81 691.242 746.114 694.681 739.58 696.813C734.265 698.537 728.774 698.989 723.205 698.756C718.117 698.644 713.096 697.573 708.408 695.599C698.088 691.096 691.223 683.358 687.681 672.818C683.364 659.985 683.671 647.235 689.835 635.014C695.959 622.87 706.147 616.143 719.521 614.186C727.422 612.942 735.513 613.891 742.908 616.93C749.14 619.499 754.338 623.38 757.949 629.18C758.134 629.476 758.295 629.787 758.49 630.079C758.56 630.151 758.612 630.239 758.642 630.335C758.672 630.432 758.678 630.534 758.661 630.633C758.644 630.732 758.604 630.826 758.544 630.907C758.483 630.988 758.405 631.054 758.314 631.099C758.066 631.269 757.827 631.463 757.593 631.643L745.481 640.872C744.433 641.663 744.57 641.843 743.663 640.629C737.437 632.396 723.419 630.628 715.248 637.525C711.136 640.998 708.856 645.452 708.052 650.678C707.331 655.38 707.423 660.072 708.822 664.663C711.458 673.362 718.449 678.54 727.57 678.54C734.806 678.54 741.052 676.174 746.109 670.924C746.275 670.703 746.519 670.554 746.791 670.506Z" fill="#173303"/>
<path d="M770.306 484.733C769.678 484.248 769.113 483.762 768.479 483.349C768.194 483.2 767.959 482.97 767.805 482.688C767.65 482.407 767.583 482.085 767.612 481.765C767.67 480.065 767.612 478.365 767.612 476.66C767.612 475.592 767.641 475.568 768.689 475.563C772.056 475.563 775.427 475.563 778.794 475.563H792.232C794.029 475.563 793.878 475.461 793.878 477.166V520.745C793.878 535.317 793.878 549.889 793.878 564.461C793.878 566.292 794.083 566.117 792.154 566.117H769.381H768.177C768.102 566.127 768.025 566.119 767.953 566.095C767.882 566.07 767.817 566.029 767.764 565.974C767.711 565.92 767.671 565.854 767.648 565.782C767.625 565.71 767.619 565.633 767.632 565.558C767.632 565.209 767.632 564.859 767.632 564.504C767.632 561.59 767.671 558.676 767.632 555.79C767.613 555.398 767.674 555.006 767.812 554.638C767.949 554.27 768.16 553.933 768.431 553.648C771.575 550.094 773.535 545.654 774.039 540.942C774.565 536.755 774.282 532.684 772.577 528.76C771.609 526.604 770.174 524.688 768.377 523.15C768.144 522.971 767.958 522.739 767.834 522.474C767.71 522.208 767.653 521.917 767.666 521.624C767.666 510.802 767.666 499.982 767.666 489.163C767.659 488.562 767.87 487.979 768.26 487.521C768.923 486.623 769.58 485.705 770.306 484.733Z" fill="#173303"/>
<path d="M612.333 656.157C612.411 668.524 612.486 680.89 612.557 693.257C612.557 695.02 612.913 695.001 610.789 695.108C604.215 695.432 597.645 695.78 591.081 696.152C589.858 696.22 589.853 696.239 589.824 694.957C589.653 688.05 589.497 681.143 589.307 674.236C588.966 661.779 588.612 649.32 588.245 636.859C588.094 631.404 587.967 625.95 587.831 620.495C587.831 620.194 587.831 619.893 587.831 619.596C587.777 618.965 588.05 618.712 588.693 618.678C591.748 618.513 594.808 618.309 597.863 618.125L610.643 617.347C610.891 617.347 611.13 617.323 611.393 617.304C611.909 617.26 612.134 617.508 612.119 618.008C612.119 618.304 612.119 618.606 612.119 618.907L612.353 656.157H612.333Z" fill="#173303"/>
<path d="M780.687 463.299C776.767 463.299 772.846 463.299 768.926 463.299C767.649 463.299 767.625 463.299 767.625 462.119C767.625 455.16 767.625 448.198 767.625 441.232C767.625 440.115 767.625 440.096 768.814 440.096C776.756 440.096 784.697 440.096 792.639 440.096C793.857 440.096 793.872 440.096 793.872 441.344C793.872 448.254 793.872 455.166 793.872 462.08C793.872 463.28 793.872 463.294 792.6 463.294C788.631 463.304 784.66 463.305 780.687 463.299Z" fill="#173303"/>
<path d="M600.526 583.045C604.142 582.885 607.752 582.744 611.362 582.535C612.152 582.492 612.283 582.798 612.283 583.473C612.283 586.873 612.283 590.273 612.283 593.673C612.283 595.975 612.283 598.283 612.283 600.585C612.283 601.814 612.283 601.838 611.065 601.892C606.651 602.1 602.236 602.29 597.817 602.484L589.841 602.829C588.833 602.868 588.813 602.858 588.789 601.901C588.649 596.199 588.513 590.495 588.38 584.789C588.355 583.696 588.38 583.662 589.559 583.599C592.921 583.424 596.283 583.279 599.644 583.113C599.942 583.113 600.244 583.07 600.546 583.05L600.526 583.045Z" fill="#173303"/>
<path d="M970.287 429.482H966.76V427H976.855V429.482H973.269V440.09H970.287V429.482Z" fill="#173303"/>
<path d="M989.465 435.078C989.406 433.504 989.348 431.6 989.348 429.696H989.289C988.88 431.367 988.315 433.232 987.827 434.767L986.229 439.877H983.91L982.507 434.806C982.078 433.271 981.63 431.406 981.318 429.696H981.274C981.196 431.464 981.138 433.484 981.04 435.117L980.807 440.09H978.059L978.897 427H982.853L984.139 431.372C984.548 432.887 984.958 434.519 985.25 436.054H985.308C985.679 434.538 986.127 432.809 986.556 431.352L987.959 427.005H991.857L992.573 440.095H989.674L989.465 435.078Z" fill="#173303"/>
</g>
</g>
<defs>
<clipPath id="clip0_809_2304">
<rect width="1403.81" height="1064.45" fill="white"/>
</clipPath>
<clipPath id="clip1_809_2304">
<rect width="512" height="275" fill="white" transform="translate(482 427)"/>
</clipPath>
</defs>
</svg>
