<svg width="2015" height="1059" viewBox="0 0 2015 1059" fill="none" xmlns="http://www.w3.org/2000/svg">
<g clip-path="url(#clip0_808_2099)">
<path d="M24.6768 333.435L15.1094 349.759H0.3799L17.4634 322.653L0 296.458H15.1094L25.8155 312.555L35.2305 296.458H49.9605L33.0284 323.336L50.6436 349.759H35.5342L24.6768 333.435Z" fill="#3A3A3C"/>
<path d="M24.6768 715.85L15.1094 732.174H0.3799L17.4634 705.067L0 678.872H15.1094L25.8155 694.969L35.2305 678.872H49.9605L33.0284 705.751L50.6436 732.174H35.5342L24.6768 715.85Z" fill="#3A3A3C"/>
<path d="M885.385 698.853C895.59 698.853 903.291 704.597 905.735 713.886H894.246C892.474 710.219 889.235 708.386 885.263 708.386C878.846 708.386 874.446 713.152 874.446 720.73C874.446 728.307 878.846 733.074 885.263 733.074C889.235 733.074 892.474 731.241 894.246 727.574H905.735C903.291 736.863 895.59 742.547 885.385 742.547C872.735 742.547 863.812 733.564 863.812 720.73C863.812 707.896 872.735 698.853 885.385 698.853Z" fill="#3A3A3C"/>
<path d="M912.154 697.019H922.604V742.241H912.154V697.019Z" fill="#3A3A3C"/>
<path d="M945.339 742.731C935.317 742.731 928.105 736.008 928.105 725.191C928.105 714.375 935.195 707.652 945.339 707.652C955.3 707.652 962.328 714.252 962.328 724.642C962.328 725.619 962.267 726.658 962.145 727.696H938.495C938.861 732.158 941.611 734.235 944.972 734.235C947.906 734.235 949.556 732.769 950.411 730.936H961.534C959.884 737.597 953.834 742.731 945.339 742.731ZM938.556 721.891H951.634C951.634 718.163 948.7 716.025 945.217 716.025C941.794 716.025 939.167 718.103 938.556 721.891Z" fill="#3A3A3C"/>
<path d="M980.786 707.652C985.858 707.652 989.463 709.975 991.297 712.969V708.141H1001.75V742.241H991.297V737.413C989.402 740.408 985.797 742.731 980.725 742.731C972.413 742.731 965.752 735.886 965.752 725.13C965.752 714.374 972.413 707.652 980.786 707.652ZM983.841 716.758C979.93 716.758 976.386 719.691 976.386 725.13C976.386 730.568 979.93 733.624 983.841 733.624C987.814 733.624 991.297 730.63 991.297 725.191C991.297 719.753 987.814 716.758 983.841 716.758Z" fill="#3A3A3C"/>
<path d="M1019.78 742.241H1009.33V708.141H1019.78V713.824C1022.16 710.219 1025.89 707.774 1030.47 707.774V718.836H1027.6C1022.65 718.836 1019.78 720.547 1019.78 726.413L1019.78 742.241Z" fill="#3A3A3C"/>
<path d="M1079.36 742.731C1070.25 742.731 1064.14 737.658 1063.65 731.058H1073.98C1074.22 733.441 1076.36 735.03 1079.23 735.03C1081.92 735.03 1083.33 733.808 1083.33 732.28C1083.33 726.78 1064.75 730.752 1064.75 718.225C1064.75 712.419 1069.7 707.652 1078.62 707.652C1087.42 707.652 1092.31 712.541 1092.98 719.264H1083.33C1083.02 716.941 1081.25 715.413 1078.32 715.413C1075.87 715.413 1074.53 716.391 1074.53 718.041C1074.53 723.48 1092.98 719.63 1093.17 732.341C1093.17 738.268 1087.91 742.731 1079.36 742.731Z" fill="#3A3A3C"/>
<path d="M1120.55 707.652C1128.92 707.652 1135.58 714.374 1135.58 725.13C1135.58 735.886 1128.92 742.73 1120.55 742.73C1115.54 742.73 1111.93 740.347 1110.04 737.475V758.497H1099.59V708.141H1110.04V712.969C1111.93 709.975 1115.54 707.652 1120.55 707.652ZM1117.43 716.758C1113.52 716.758 1109.97 719.752 1109.97 725.191C1109.97 730.631 1113.52 733.624 1117.43 733.624C1121.4 733.624 1124.95 730.569 1124.95 725.13C1124.95 719.691 1121.4 716.758 1117.43 716.758Z" fill="#3A3A3C"/>
<path d="M1154.04 707.652C1159.11 707.652 1162.71 709.975 1164.55 712.969V708.141H1175V742.241H1164.55V737.413C1162.65 740.408 1159.05 742.731 1153.98 742.731C1145.67 742.731 1139 735.886 1139 725.13C1139 714.374 1145.67 707.652 1154.04 707.652ZM1157.09 716.758C1153.18 716.758 1149.64 719.691 1149.64 725.13C1149.64 730.568 1153.18 733.624 1157.09 733.624C1161.07 733.624 1164.55 730.63 1164.55 725.191C1164.55 719.753 1161.07 716.758 1157.09 716.758Z" fill="#3A3A3C"/>
<path d="M1197.61 707.652C1206.17 707.652 1212.22 712.357 1213.99 720.485H1202.87C1202.01 718.103 1200.3 716.574 1197.43 716.574C1193.7 716.574 1191.13 719.508 1191.13 725.191C1191.13 730.875 1193.7 733.808 1197.43 733.808C1200.3 733.808 1201.95 732.402 1202.87 729.897H1213.99C1212.22 737.78 1206.17 742.731 1197.61 742.731C1187.59 742.731 1180.5 736.008 1180.5 725.191C1180.5 714.436 1187.59 707.652 1197.61 707.652Z" fill="#3A3A3C"/>
<path d="M1234.71 742.731C1224.69 742.731 1217.47 736.008 1217.47 725.191C1217.47 714.375 1224.56 707.652 1234.71 707.652C1244.67 707.652 1251.7 714.252 1251.7 724.642C1251.7 725.619 1251.64 726.658 1251.51 727.696H1227.86C1228.23 732.158 1230.98 734.235 1234.34 734.235C1237.28 734.235 1238.92 732.769 1239.78 730.936H1250.9C1249.25 737.597 1243.2 742.731 1234.71 742.731ZM1227.92 721.891H1241C1241 718.163 1238.07 716.025 1234.59 716.025C1231.16 716.025 1228.54 718.103 1227.92 721.891Z" fill="#3A3A3C"/>
<path d="M2014.61 273.623H2008.61" stroke="#214457" stroke-width="3" stroke-miterlimit="10"/>
<path d="M1996.61 273.623L82.9004 273.623" stroke="#214457" stroke-width="3" stroke-miterlimit="10"/>
<path d="M76.9004 273.623H70.9004" stroke="#214457" stroke-width="3" stroke-miterlimit="10"/>
<path d="M2014.61 405.025H2008.61" stroke="#214457" stroke-width="3" stroke-miterlimit="10"/>
<path d="M1996.61 405.026L82.9004 405.025" stroke="#214457" stroke-width="3" stroke-miterlimit="10"/>
<path d="M76.9004 405.025H70.9004" stroke="#214457" stroke-width="3" stroke-miterlimit="10"/>
<path d="M2014.61 656.037H2008.61" stroke="#214457" stroke-width="3" stroke-miterlimit="10"/>
<path d="M1996.61 656.037L82.9004 656.037" stroke="#214457" stroke-width="3" stroke-miterlimit="10"/>
<path d="M76.9004 656.037H70.9004" stroke="#214457" stroke-width="3" stroke-miterlimit="10"/>
<path d="M2014.61 787.439H2008.61" stroke="#214457" stroke-width="3" stroke-miterlimit="10"/>
<path d="M1996.61 787.44L82.9004 787.439" stroke="#214457" stroke-width="3" stroke-miterlimit="10"/>
<path d="M76.9004 787.439H70.9004" stroke="#214457" stroke-width="3" stroke-miterlimit="10"/>
<path d="M232.645 149.19V155.19" stroke="#214457" stroke-width="3" stroke-miterlimit="10"/>
<path d="M232.645 167.247V956.936" stroke="#214457" stroke-width="3" stroke-miterlimit="10"/>
<path d="M232.645 962.964V968.964" stroke="#214457" stroke-width="3" stroke-miterlimit="10"/>
<path d="M360.561 149.19V155.19" stroke="#214457" stroke-width="3" stroke-miterlimit="10"/>
<path d="M360.561 167.247V956.936" stroke="#214457" stroke-width="3" stroke-miterlimit="10"/>
<path d="M360.561 962.964V968.964" stroke="#214457" stroke-width="3" stroke-miterlimit="10"/>
<path d="M295.971 116.389L286.658 132.281H272.319L288.949 105.893L271.949 80.3936H286.658L297.08 96.0631L306.245 80.3936H320.584L304.101 106.559L321.249 132.28H306.54L295.971 116.389Z" fill="#3A3A3C"/>
<path d="M295.971 1042.25L286.658 1058.14H272.319L288.949 1031.75L271.949 1006.25H286.658L297.08 1021.92L306.245 1006.25H320.584L304.101 1032.42L321.249 1058.14H306.54L295.971 1042.25Z" fill="#3A3A3C"/>
<path d="M1721.4 149.19V155.19" stroke="#214457" stroke-width="3" stroke-miterlimit="10"/>
<path d="M1721.4 167.247V956.936" stroke="#214457" stroke-width="3" stroke-miterlimit="10"/>
<path d="M1721.4 962.964V968.964" stroke="#214457" stroke-width="3" stroke-miterlimit="10"/>
<path d="M1849.31 149.19V155.19" stroke="#214457" stroke-width="3" stroke-miterlimit="10"/>
<path d="M1849.31 167.247V956.936" stroke="#214457" stroke-width="3" stroke-miterlimit="10"/>
<path d="M1849.31 962.964V968.964" stroke="#214457" stroke-width="3" stroke-miterlimit="10"/>
<path d="M1784.72 116.389L1775.41 132.281H1761.07L1777.7 105.893L1760.7 80.3936H1775.41L1785.83 96.0631L1795 80.3936H1809.34L1792.85 106.559L1810 132.28H1795.29L1784.72 116.389Z" fill="#3A3A3C"/>
<path d="M1784.72 1042.25L1775.41 1058.14H1761.07L1777.7 1031.75L1760.7 1006.25H1775.41L1785.83 1021.92L1795 1006.25H1809.34L1792.85 1032.42L1810 1058.14H1795.29L1784.72 1042.25Z" fill="#3A3A3C"/>
<g clip-path="url(#clip1_808_2099)">
<path d="M1143.05 637.549H1141.3C1129.82 637.549 1118.34 637.549 1106.85 637.549C1106.32 637.583 1105.78 637.479 1105.3 637.247C1104.81 637.015 1104.39 636.662 1104.08 636.221C1090.62 619.24 1077.14 602.28 1063.62 585.341C1063.23 584.688 1062.69 584.139 1062.04 583.738V585.83C1062.04 593.268 1062.04 600.707 1062.14 608.145C1062.16 608.692 1062.08 609.238 1061.88 609.75C1061.69 610.262 1061.4 610.73 1061.03 611.126C1051.5 622.062 1042 633.015 1032.53 643.985C1032.22 644.349 1031.98 644.799 1031.45 644.975C1030.96 644.536 1031.19 643.935 1031.18 643.434C1030.85 616.661 1030.53 589.887 1030.2 563.113C1030.01 547.685 1029.8 532.241 1029.6 516.779C1029.6 515.264 1029.6 515.251 1028.08 514.788L1017.85 511.62C1018.27 511.36 1018.77 511.25 1019.26 511.307H1060.52C1062.29 511.307 1062.08 511.307 1062.08 513.16V567.772C1062.76 567.897 1062.91 567.396 1063.17 567.108C1077.53 550.561 1091.87 534.002 1106.21 517.43C1106.58 516.953 1107.06 516.572 1107.6 516.321C1108.15 516.07 1108.75 515.957 1109.34 515.99C1119.96 516.053 1130.59 515.99 1141.21 515.99H1142.97C1143.09 516.754 1142.62 517.03 1142.32 517.38C1130.68 531.047 1119.02 544.709 1107.35 558.367L1095.93 571.742C1094.69 573.182 1094.95 572.931 1095.93 574.171C1107.49 589.524 1119.03 604.873 1130.55 620.217C1134.46 625.402 1138.36 630.582 1142.25 635.758C1142.7 636.25 1142.99 636.879 1143.05 637.549Z" fill="#173303"/>
<path d="M1525.47 590.376C1526.1 595.997 1528.46 601.275 1532.21 605.469C1535.97 609.663 1540.93 612.561 1546.4 613.756C1559.56 616.623 1571.73 614.031 1582.91 606.555L1584.55 605.441C1585.16 605.641 1585.26 606.18 1585.49 606.593C1589.09 613.138 1592.69 619.692 1596.29 626.253C1597.07 627.669 1597.45 627.506 1595.72 628.645C1586.95 634.627 1577.06 638.738 1566.66 640.73C1555.29 642.953 1543.56 642.465 1532.4 639.302C1514.8 634.08 1503.41 622.359 1497.8 604.814C1496.04 599.012 1495 593.008 1494.72 586.944C1494.1 577.909 1494.99 568.833 1497.34 560.096C1502.46 541.412 1514.75 530.154 1533.07 525.307C1540.77 523.44 1548.72 522.81 1556.61 523.442C1563.86 523.708 1571 525.215 1577.75 527.9C1591.92 533.848 1599.95 544.53 1601.71 559.958C1602.62 569.159 1601.78 578.451 1599.23 587.333C1599.21 587.511 1599.16 587.684 1599.07 587.841C1598.99 587.998 1598.87 588.135 1598.73 588.245C1598.59 588.355 1598.43 588.435 1598.26 588.481C1598.09 588.526 1597.91 588.536 1597.73 588.51C1585.09 588.802 1572.45 589.111 1559.81 589.437L1526.87 590.301C1526.44 590.301 1526 590.351 1525.47 590.376ZM1549.51 570.878V570.765H1552.26L1571.97 570.665C1572.46 570.665 1572.95 570.665 1573.45 570.665C1573.94 570.665 1574.22 570.427 1574.2 569.888C1574.2 568.636 1574.2 567.384 1574.09 566.132C1573.39 556.852 1569 550.278 1558.89 547.961C1553.71 546.837 1548.36 546.807 1543.17 547.874C1539.79 548.434 1536.61 549.839 1533.91 551.961C1531.2 554.082 1529.07 556.853 1527.7 560.021C1526.31 562.995 1525.37 566.16 1524.91 569.413C1524.7 570.828 1524.69 570.853 1526.15 570.853L1549.51 570.878Z" fill="#173303"/>
<path d="M557.896 620.067C557.722 620.109 557.558 620.189 557.417 620.301C557.275 620.414 557.16 620.556 557.079 620.718C549.819 630.285 540.217 636.246 528.819 639.502C521.652 641.523 514.214 642.389 506.779 642.069C501.174 641.938 495.653 640.66 490.55 638.312C481.989 634.18 476.786 627.205 473.986 618.276C472.268 612.515 471.433 606.523 471.508 600.506C471.458 578.015 471.458 555.52 471.508 533.021C471.508 532.708 471.508 532.395 471.508 532.082C471.508 531.468 471.756 531.18 472.375 531.193H500.56C502.356 531.193 502.369 531.193 502.369 533.021C502.369 552.907 502.369 572.802 502.369 592.705C502.271 596.496 502.658 600.284 503.521 603.975C503.744 604.814 503.979 605.653 504.277 606.48C506.916 613.993 512.268 617.988 520.023 618.351C533.874 619.002 544.417 613.054 551.9 601.37C552.909 599.827 553.428 598.01 553.387 596.161C553.387 575.273 553.387 554.397 553.387 533.547C553.387 531.043 553.077 531.293 555.691 531.28H582.03C582.451 531.28 582.885 531.28 583.269 531.28C584 531.28 584.235 531.631 584.198 532.307C584.161 532.984 584.198 533.309 584.198 533.797V607.056C584.16 608.418 584.251 609.781 584.471 611.126C584.667 612.368 585.255 613.513 586.149 614.388C587.042 615.264 588.192 615.824 589.426 615.984C589.789 616.069 590.158 616.124 590.529 616.147C591.384 616.147 591.632 616.623 591.619 617.475C591.619 624.604 591.619 631.73 591.619 638.851C591.619 639.565 591.471 640.028 590.678 640.103C584.335 641.068 578.004 641.806 571.623 640.516C568.796 640.006 566.125 638.84 563.818 637.11C562.388 636.083 561.187 634.762 560.295 633.235C559.403 631.707 558.839 630.007 558.64 628.244C558.318 625.589 558.144 622.872 557.896 620.067Z" fill="#173303"/>
<path d="M743.844 585.567C743.844 576.888 743.844 568.223 743.844 559.545C743.818 558.373 744.151 557.223 744.798 556.251C751.332 546.226 760.806 538.519 771.892 534.211C779.325 531.249 787.2 529.58 795.184 529.277C803.778 528.719 812.404 529.642 820.693 532.007C834.321 536.102 845.706 543.653 853.684 555.8C859.795 565.114 862.871 576.126 862.481 587.295C862.084 606.317 850.86 626.554 829.13 636.134C821.731 639.344 813.847 641.262 805.813 641.807C796.862 642.584 787.845 641.783 779.165 639.44C765.029 635.47 753.358 627.856 745.082 615.371C744.244 614.162 743.81 612.714 743.844 611.238C743.881 602.673 743.844 594.12 743.844 585.567ZM802.196 618.301C812.85 617.863 822.737 611.952 828.275 599.517C831.054 593.037 831.793 585.849 830.393 578.93C827.68 563.902 816.294 554.247 802.679 553.083C792.297 552.206 783.352 555.374 776.315 563.176C768.956 571.341 766.8 581.209 768.498 591.891C771.025 607.682 783.625 618.326 802.196 618.326V618.301Z" fill="#173303"/>
<path d="M1630.85 544.442L1634.17 541.824C1641.02 536.27 1648.58 531.674 1656.65 528.162C1664.74 524.766 1673.52 523.42 1682.24 524.242C1692.3 525.169 1699.42 530.266 1703.21 539.858C1705.14 544.957 1706.32 550.316 1706.7 555.762C1707.6 566.172 1707.94 576.623 1707.72 587.069C1707.52 595.835 1707.3 604.601 1706.78 613.254C1706.38 619.754 1705.81 626.215 1705.19 632.69C1705.18 633.059 1705.14 633.426 1705.08 633.792C1704.62 636.058 1705.27 635.733 1702.89 635.683C1693.56 635.47 1684.23 635.207 1674.9 634.944C1673.5 634.944 1673.45 634.944 1673.6 633.466C1674.06 628.908 1674.38 624.337 1674.74 619.779C1675.24 613.417 1675.63 607.043 1675.76 600.669C1675.92 592.178 1676.04 583.688 1675.63 575.21C1675.55 571.802 1675.11 568.413 1674.3 565.104C1673.99 563.846 1673.58 562.618 1673.06 561.435C1672.29 559.596 1671.03 558.008 1669.42 556.85C1667.81 555.691 1665.91 555.007 1663.94 554.873C1660.32 554.556 1656.67 555.047 1653.26 556.313C1649.61 557.614 1646.14 559.368 1642.93 561.535C1639.31 563.992 1635.83 566.651 1632.51 569.5C1632.08 569.831 1631.74 570.267 1631.52 570.766C1631.31 571.265 1631.22 571.812 1631.27 572.355C1631.42 588.96 1631.54 605.565 1631.64 622.17C1631.64 625.952 1631.64 629.734 1631.64 633.516C1631.64 635.482 1631.88 635.319 1629.91 635.432C1624.95 635.72 1619.99 635.971 1615.04 636.234L1602.17 636.897C1600.77 636.972 1600.75 636.897 1600.73 635.507C1600.73 634.643 1600.73 633.779 1600.73 632.915C1600.64 632.521 1600.68 632.107 1600.86 631.742C1601.03 631.378 1601.32 631.084 1601.68 630.911C1602.29 630.623 1602.25 630.173 1601.89 629.659C1600.56 627.918 1600.65 625.902 1600.58 623.824C1600.42 612.979 1600.2 602.147 1600.01 591.264C1600.01 588.76 1600.01 588.76 1602.38 588.76C1604.42 588.672 1604.21 589.035 1604.78 586.806C1607.04 578.617 1607.99 570.115 1607.59 561.623C1607.07 553.107 1604.88 545.155 1599.79 538.193C1599.34 537.604 1599.11 536.88 1599.12 536.139C1599.12 534.035 1599.03 531.919 1598.98 529.878C1598.98 528.262 1598.98 528.237 1600.52 528.15L1613.94 527.361L1628.44 526.446C1628.62 526.459 1628.81 526.459 1628.99 526.446C1629.87 526.309 1630.23 526.659 1630.23 527.561C1630.31 530.717 1630.46 533.822 1630.61 537.028C1630.57 539.345 1630.71 541.687 1630.85 544.442Z" fill="#173303"/>
<path d="M1420.73 547.51L1424.21 544.705C1429.83 540.08 1436.05 536.239 1442.68 533.284C1450.22 530.013 1458.44 528.684 1466.6 529.415C1476.14 530.266 1482.71 535.188 1486.02 544.354C1487.59 548.855 1488.58 553.545 1488.94 558.305C1489.78 569.863 1490.01 581.459 1489.65 593.043C1489.52 601.049 1489.16 609.034 1488.55 616.999C1488.24 621.006 1487.8 625.013 1487.41 629.021C1487.27 630.423 1487.24 630.448 1485.87 630.423C1477.27 630.248 1468.68 630.064 1460.09 629.872C1458.94 629.872 1458.92 629.872 1459.03 628.62C1459.67 622.146 1460.27 615.671 1460.56 609.172C1461.12 598.219 1461.22 587.253 1460.86 576.275C1460.82 572.431 1460.25 568.611 1459.16 564.929C1457.47 559.72 1454.4 557.415 1448.95 557.24C1444.76 557.196 1440.61 558.171 1436.87 560.083C1431.11 562.85 1426.22 566.883 1421.41 571.053C1421.15 571.307 1420.95 571.622 1420.83 571.972C1420.72 572.321 1420.69 572.694 1420.75 573.056C1420.75 582.407 1420.8 591.765 1420.89 601.132C1420.89 610.049 1421.03 618.977 1421.1 627.894C1421.07 628.269 1421.07 628.645 1421.1 629.021C1421.2 629.922 1420.77 630.173 1419.86 630.273C1415.2 630.486 1410.54 630.749 1405.89 630.999C1401.96 631.2 1398.03 631.375 1394.12 631.613C1393.32 631.613 1393 631.475 1393 630.636C1392.94 630.18 1392.99 629.716 1393.13 629.281C1393.28 628.846 1393.53 628.452 1393.86 628.132C1394.78 627.22 1395.64 626.25 1396.45 625.226C1397.47 623.974 1397.46 623.974 1396.58 622.722C1395.7 621.469 1394.6 619.892 1393.55 618.514C1393 617.798 1392.7 616.917 1392.69 616.01C1392.49 603.128 1392.25 590.242 1391.97 577.352C1391.82 569.162 1391.7 560.985 1391.51 552.807C1391.44 552.271 1391.52 551.725 1391.74 551.231C1391.96 550.737 1392.31 550.315 1392.75 550.014C1394.82 548.562 1396.76 546.921 1398.8 545.444C1399.64 544.83 1399.63 544.354 1399.13 543.503C1397.24 540.234 1394.92 537.242 1392.22 534.612C1391.86 534.302 1391.57 533.918 1391.37 533.486C1391.18 533.054 1391.07 532.584 1391.07 532.107C1390.9 520.837 1390.67 509.679 1390.46 498.458C1390.46 496.768 1390.33 496.83 1391.99 496.743L1418.46 495.29H1418.82C1420.34 495.29 1420.37 495.29 1420.38 496.718C1420.38 500.374 1420.38 504.031 1420.44 507.688C1420.49 520.386 1420.55 533.088 1420.6 545.794L1420.73 547.51Z" fill="#173303"/>
<path d="M890.479 552.557C890.801 552.557 890.9 552.357 891.036 552.169C896.587 544.155 904.218 538.957 913.163 535.601C923.817 531.499 935.338 530.239 946.613 531.945C959.362 533.886 967.675 541.299 971.676 553.647C973.076 558.397 973.908 563.299 974.154 568.248C974.377 571.154 974.427 574.059 974.427 577.014C974.427 597.969 974.427 618.915 974.427 639.853C974.427 642.446 974.662 642.095 972.147 642.095H944.408C943.851 642.095 943.653 641.82 943.665 641.294C943.677 640.768 943.665 640.304 943.665 639.803C943.665 620.285 943.665 600.766 943.665 581.247C943.76 577.089 943.259 572.938 942.178 568.925C940.159 562.062 935.86 557.579 928.736 556.189C924.974 555.51 921.108 555.716 917.437 556.79C909.067 559.091 901.757 564.278 896.773 571.454C896.075 572.473 895.442 573.535 894.877 574.635C893.763 576.704 893.2 579.03 893.242 581.385C893.316 600.72 893.242 620.055 893.242 639.378C893.242 639.816 893.242 640.254 893.242 640.63C893.242 642.02 893.242 642.045 891.805 642.045H864.004C862.455 642.045 862.443 642.045 862.443 640.367C862.443 632.002 862.443 623.636 862.443 615.321C862.437 614.335 862.708 613.367 863.223 612.529C867.958 604.284 870.403 594.9 870.297 585.367C870.311 576.083 867.901 566.96 863.31 558.919C862.719 557.912 862.415 556.759 862.43 555.588C862.43 548.838 862.43 542.088 862.43 535.326C862.43 534.9 862.43 534.462 862.43 534.074C862.43 533.685 862.678 533.16 863.31 533.185C863.669 533.185 864.041 533.185 864.412 533.185H888.175C888.48 533.203 888.786 533.203 889.091 533.185C889.959 533.084 890.33 533.435 890.268 534.337C890.268 537.255 890.268 540.16 890.268 543.103C890.268 546.046 890.268 548.8 890.268 551.656C890.305 551.881 890.169 552.269 890.479 552.557Z" fill="#173303"/>
<path d="M449.58 557.641C447.982 559.57 446.681 561.123 445.38 562.651C440.647 568.348 435.89 574.021 431.182 579.744C430.881 580.163 430.48 580.497 430.016 580.716C429.553 580.935 429.042 581.031 428.531 580.996C419.623 580.996 410.728 580.996 401.82 580.996C401.073 580.901 400.313 580.982 399.602 581.234C400.309 581.485 400.841 581.66 401.287 581.81C404.1 582.687 406.912 583.601 409.737 584.403C409.929 584.428 410.114 584.493 410.282 584.593C410.449 584.692 410.595 584.825 410.71 584.983C410.826 585.14 410.909 585.32 410.954 585.511C411 585.701 411.007 585.9 410.976 586.093C410.976 591.666 410.976 597.238 410.976 602.811C410.973 603.28 410.876 603.745 410.691 604.175C410.506 604.606 410.236 604.994 409.898 605.316L389.741 629.497L380.61 640.442C380.277 640.986 379.795 641.421 379.223 641.694V639.44C379.223 593.582 379.223 547.728 379.223 501.878C379.223 498.784 379.693 499.511 376.745 498.559C372.83 497.307 368.903 496.13 365 494.689H501.787C501.985 495.24 501.44 495.503 501.155 495.854C494.849 503.443 488.494 511.007 482.225 518.633C481.906 519.036 481.49 519.351 481.018 519.548C480.546 519.745 480.032 519.818 479.524 519.76H420.961H401.436H399.417C400.116 520.258 400.915 520.591 401.758 520.737C404.335 521.563 406.924 522.327 409.501 523.129C411.298 523.692 410.951 523.63 410.963 525.17C410.963 535.263 410.963 545.361 410.963 555.462C410.963 558.042 410.653 557.716 413.23 557.716H449.58V557.641Z" fill="#173303"/>
<path d="M700.569 544.104L688.291 560.747L685.987 559.294C679.461 554.961 672.231 551.824 664.628 550.027C658.649 548.539 652.429 548.334 646.367 549.426C644.204 549.867 642.117 550.626 640.172 551.68C635.626 554.185 634.3 558.893 635.217 563.426C635.467 564.458 635.927 565.426 636.567 566.269C637.207 567.112 638.012 567.811 638.933 568.323C640.766 569.451 642.725 570.355 644.769 571.015C649.859 572.638 655.028 574.001 660.255 575.098C668.158 576.868 675.948 579.118 683.583 581.835C687.694 583.307 691.606 585.293 695.229 587.746C703.133 593.193 705.946 600.92 705.215 610.287C704.422 620.305 699.578 627.906 691.339 633.391C685.351 637.323 678.586 639.887 671.517 640.905C652.048 644.032 632.098 641.206 614.23 632.79C613.115 632.277 612.062 631.625 610.959 631.099C610.619 630.965 610.332 630.72 610.146 630.402C609.959 630.084 609.884 629.713 609.931 629.346C609.931 625.59 609.931 621.92 609.931 618.201C609.931 616.548 609.931 616.548 608.407 616.022C608.32 615.484 608.754 615.158 609.002 614.77C610.24 612.741 611.678 610.762 612.954 608.721C613.437 607.945 613.833 607.92 614.552 608.396C617.812 610.491 621.187 612.397 624.661 614.106C631.665 617.729 639.191 620.21 646.961 621.457C652.707 622.436 658.579 622.381 664.306 621.294C666.848 620.81 669.261 619.795 671.393 618.314C672.96 617.252 674.182 615.744 674.903 613.981C675.624 612.218 675.812 610.279 675.444 608.408C675.248 607.24 674.801 606.129 674.136 605.153C673.47 604.178 672.602 603.361 671.591 602.76C670.282 601.947 668.885 601.288 667.428 600.794C660.833 598.455 654.117 596.482 647.308 594.884C639.364 593.02 631.543 590.653 623.893 587.796C620.388 586.453 617.088 584.615 614.093 582.336C611.678 580.507 609.712 578.14 608.348 575.419C606.983 572.698 606.257 569.695 606.226 566.645C605.731 554.31 610.823 544.855 620.821 537.968C627.289 533.621 634.669 530.856 642.378 529.89C655.308 528.025 668.49 529.165 680.92 533.222C687.529 535.385 693.728 538.662 699.255 542.914C699.602 543.177 699.937 543.453 700.259 543.728C700.37 543.741 700.408 543.866 700.569 544.104Z" fill="#173303"/>
<path d="M1245.65 498.684C1245.85 499.338 1245.92 500.03 1245.83 500.712C1245.83 509.061 1245.83 517.409 1245.83 525.758C1245.83 526.184 1245.83 526.622 1245.83 527.01C1245.83 527.398 1246.04 527.812 1246.59 527.799H1247.83C1257.95 527.686 1268.08 527.549 1278.21 527.449C1280.35 527.449 1280.32 527.048 1280.25 529.515C1280.06 536.561 1279.87 543.619 1279.68 550.691C1279.68 552.131 1279.68 552.143 1278.29 552.181L1248.1 552.92H1247.37C1246.06 552.92 1246.03 552.92 1246.03 554.26C1246.03 558.405 1246.03 562.562 1246.03 566.707C1246.03 574.822 1246.07 582.937 1246.14 591.052C1246.12 593.84 1246.46 596.619 1247.16 599.317C1247.6 601.034 1248.43 602.623 1249.59 603.96C1250.74 605.297 1252.19 606.343 1253.81 607.018C1256.87 608.338 1260.21 608.88 1263.52 608.596C1267.2 608.355 1270.83 607.648 1274.33 606.492C1275.81 606.029 1275.81 606.041 1275.99 607.582C1276.81 614.895 1277.64 622.208 1278.47 629.521C1278.47 629.96 1278.47 630.398 1278.59 630.774C1278.75 631.6 1278.39 632.026 1277.6 632.226C1267.34 635.395 1256.97 637.749 1246.13 637.035C1241.87 636.824 1237.68 635.879 1233.74 634.243C1230.22 632.734 1227.05 630.511 1224.42 627.71C1221.79 624.909 1219.75 621.592 1218.44 617.963C1216.71 613.454 1215.61 608.726 1215.16 603.912C1214.55 598.365 1214.54 592.792 1214.46 587.22C1214.31 576.625 1214.16 566.031 1214.03 555.437C1214.02 555.253 1214.02 555.069 1214.03 554.886C1214.12 554.022 1213.81 553.634 1212.89 553.634C1211.65 553.709 1210.31 553.634 1209.03 553.634L1198.36 553.934C1196.81 553.934 1196.82 553.934 1196.86 552.444C1197.05 545.189 1197.23 537.943 1197.4 530.704C1197.4 530.391 1197.4 530.091 1197.4 529.778C1197.4 527.874 1197.29 527.974 1199.24 527.962L1211.76 527.849C1213.61 527.849 1213.61 527.987 1213.57 526.033C1213.47 519.096 1213.35 512.158 1213.23 505.221C1213.23 502.541 1213.23 502.591 1215.7 502.253C1223.79 501.201 1231.88 500.099 1239.96 499.034C1241.93 499.122 1243.76 498.909 1245.65 498.684Z" fill="#173303"/>
<path d="M1371.22 561.51C1369.96 559.774 1368.52 558.175 1366.94 556.739C1362.19 552.734 1356.27 550.423 1350.09 550.165C1335.28 549.263 1324.99 559.131 1322.26 571.453C1320.27 579.5 1320.71 587.962 1323.5 595.76C1325.32 600.78 1328.62 605.108 1332.97 608.149C1337.32 611.19 1342.5 612.794 1347.78 612.741C1356.08 613.009 1364.2 610.258 1370.67 604.989C1371.91 603.926 1373.08 602.78 1374.17 601.558C1374.87 601.834 1375.06 602.385 1375.41 602.81C1379.52 608.521 1383.61 614.244 1387.72 619.954C1388.96 621.632 1388.73 621.344 1387.59 622.734C1381.61 629.981 1373.63 635.261 1364.67 637.899C1352.59 641.789 1339.63 641.88 1327.5 638.162C1311.27 633.153 1300.46 622.133 1294.46 606.229C1291.3 597.679 1289.88 588.573 1290.29 579.455C1290.46 570.813 1292.41 562.302 1296.01 554.46C1303.93 537.542 1317.17 527.498 1335.29 524.167C1347.25 521.82 1359.64 523.25 1370.76 528.262C1378.75 531.649 1385.48 537.483 1390.02 544.943C1390.24 545.306 1390.45 545.682 1390.66 546.057C1390.71 546.135 1390.75 546.222 1390.77 546.314C1390.78 546.405 1390.78 546.5 1390.76 546.591C1390.74 546.683 1390.71 546.769 1390.65 546.845C1390.6 546.921 1390.53 546.985 1390.45 547.034L1389.72 547.61L1372.45 560.897C1372.12 561.229 1371.69 561.444 1371.22 561.51Z" fill="#173303"/>
<path d="M1191.3 584.402C1191.19 598.878 1191.56 616.035 1191.56 633.241C1191.56 635.595 1191.92 635.382 1189.4 635.52C1180.32 636.004 1171.23 636.48 1162.15 636.948C1160.58 637.035 1160.6 637.023 1160.56 635.37C1160.25 624.792 1159.95 614.206 1159.64 603.612C1159.43 595.998 1159.28 588.384 1159.09 580.77C1158.88 572.589 1158.66 564.416 1158.44 556.251C1158.28 549.877 1158.14 543.503 1157.97 537.116C1157.97 535.263 1157.8 533.359 1157.76 531.556C1157.76 530.141 1157.76 530.116 1159.14 530.028L1171.26 529.289L1188.52 528.225H1189.08C1190.89 528.125 1190.89 528.125 1190.9 529.941C1191.06 547.159 1191.17 564.478 1191.3 584.402Z" fill="#173303"/>
<path d="M708.237 543.992C708.019 543.731 707.769 543.5 707.494 543.303C706.558 542.929 705.79 542.223 705.334 541.316C704.877 540.41 704.764 539.366 705.016 538.382C705.099 537.131 705.099 535.876 705.016 534.625C705.016 532.959 704.681 532.834 706.85 532.846H734.663C736.199 532.846 736.199 532.846 736.224 534.349V535.276C736.224 570.098 736.224 604.923 736.224 639.753C736.224 642.258 736.608 642.008 733.994 642.02H707.296C706.862 642.02 706.428 642.02 706.057 642.02C705.375 642.02 705.078 641.832 705.078 641.081C705.078 636.986 705.078 632.903 705.078 628.808C705.096 628.505 705.177 628.209 705.316 627.939C705.455 627.669 705.648 627.432 705.883 627.243C708.889 623.938 711.02 619.919 712.078 615.559C713.552 609.298 713.639 603.037 711.049 597.038C709.887 594.442 708.199 592.121 706.094 590.226C705.805 590.014 705.572 589.734 705.412 589.412C705.253 589.089 705.172 588.733 705.177 588.372C705.177 575.365 705.177 562.354 705.177 549.339C705.155 548.594 705.407 547.867 705.883 547.298C706.565 546.296 707.345 545.181 708.237 543.992Z" fill="#173303"/>
<path d="M720.454 518.144H706.466C705.054 518.144 705.029 518.144 705.029 516.716C705.029 508.368 705.029 500.019 705.029 491.671C705.029 490.268 705.029 490.243 706.454 490.243H734.788C736.2 490.243 736.225 490.243 736.225 491.658C736.225 500.007 736.225 508.355 736.225 516.704C736.225 518.106 736.225 518.131 734.8 518.144H720.454Z" fill="#173303"/>
<path d="M1175.29 480.789C1180.25 480.538 1185.2 480.288 1190.16 480C1190.85 480 1191.21 480.15 1191.16 480.902C1191.16 481.027 1191.16 481.152 1191.16 481.277C1191.16 489.325 1191.16 497.373 1191.16 505.421C1191.16 506.673 1191.16 506.673 1189.8 506.761C1185.51 506.999 1181.22 507.199 1176.94 507.4L1160.83 508.126C1159.23 508.126 1159.25 508.126 1159.2 506.561C1159.02 499.047 1158.83 491.559 1158.63 484.095C1158.63 483.607 1158.63 483.106 1158.63 482.617C1158.63 481.903 1158.86 481.615 1159.57 481.603C1160.55 481.603 1161.51 481.465 1162.5 481.415L1175.36 480.801L1175.29 480.789Z" fill="#173303"/>
<path d="M1688.64 485.898H1685.26V483.481H1694.94V485.898H1691.49V496.205H1688.64V485.898Z" fill="#173303"/>
<path d="M1707.03 491.333C1707.03 489.805 1706.91 487.952 1706.91 486.111C1706.52 487.726 1706 489.542 1705.51 491.032L1703.98 496.042H1701.76L1700.41 491.108C1700 489.617 1699.57 487.802 1699.27 486.099C1699.2 487.814 1699.15 489.78 1699.05 491.358L1698.82 496.192H1696.19L1696.99 483.469H1700.78L1702.02 487.714C1702.42 489.192 1702.8 490.769 1703.09 492.272C1703.45 490.794 1703.88 489.116 1704.33 487.701L1705.68 483.469H1709.39L1710.07 496.192H1707.3L1707.03 491.333Z" fill="#173303"/>
</g>
</g>
<defs>
<clipPath id="clip0_808_2099">
<rect width="2014.61" height="1058.14" fill="white"/>
</clipPath>
<clipPath id="clip1_808_2099">
<rect width="1345" height="165" fill="white" transform="translate(365 480)"/>
</clipPath>
</defs>
</svg>
