<svg width="1404" height="1065" viewBox="0 0 1404 1065" fill="none" xmlns="http://www.w3.org/2000/svg">
<g clip-path="url(#clip0_809_2304)">
<path d="M236.123 130.727V136.727" stroke="#214457" stroke-width="3" stroke-miterlimit="10"/>
<path d="M236.123 148.758V960.83" stroke="#214457" stroke-width="3" stroke-miterlimit="10"/>
<path d="M236.123 966.845V972.845" stroke="#214457" stroke-width="3" stroke-miterlimit="10"/>
<path d="M367.525 130.727V136.727" stroke="#214457" stroke-width="3" stroke-miterlimit="10"/>
<path d="M367.525 148.758V960.83" stroke="#214457" stroke-width="3" stroke-miterlimit="10"/>
<path d="M367.525 966.845V972.845" stroke="#214457" stroke-width="3" stroke-miterlimit="10"/>
<path d="M301.177 97.0317L291.609 113.356H276.88L293.963 86.2495L276.5 60.0547H291.609L302.315 76.1514L311.73 60.0547H326.46L309.528 86.9331L327.144 113.356H312.034L301.177 97.0317Z" fill="#3A3A3C"/>
<path d="M24.6768 333.436L15.1094 349.76H0.3799L17.4634 322.654L0 296.459H15.1094L25.8155 312.556L35.2305 296.459H49.9605L33.0284 323.337L50.6436 349.76H35.5342L24.6768 333.436Z" fill="#3A3A3C"/>
<path d="M24.6768 764.594L15.1094 780.918H0.3799L17.4634 753.812L0 727.616H15.1094L25.8155 743.713L35.2305 727.616H49.9605L33.0284 754.495L50.6436 780.918H35.5342L24.6768 764.594Z" fill="#3A3A3C"/>
<path d="M301.177 1048.13L291.609 1064.45H276.88L293.963 1037.35L276.5 1011.15H291.609L302.315 1027.25L311.73 1011.15H326.46L309.528 1038.03L327.144 1064.45H312.034L301.177 1048.13Z" fill="#3A3A3C"/>
<path d="M1108.34 130.727V136.727" stroke="#214457" stroke-width="3" stroke-miterlimit="10"/>
<path d="M1108.34 148.758V960.83" stroke="#214457" stroke-width="3" stroke-miterlimit="10"/>
<path d="M1108.34 966.845V972.845" stroke="#214457" stroke-width="3" stroke-miterlimit="10"/>
<path d="M1239.74 130.727V136.727" stroke="#214457" stroke-width="3" stroke-miterlimit="10"/>
<path d="M1239.74 148.758V960.83" stroke="#214457" stroke-width="3" stroke-miterlimit="10"/>
<path d="M1239.74 966.845V972.845" stroke="#214457" stroke-width="3" stroke-miterlimit="10"/>
<path d="M1152.8 114.355L1151.08 111.775L1149.57 114.355H1147.24L1149.94 110.071L1147.18 105.931H1149.57L1151.26 108.475L1152.75 105.931H1155.08L1152.4 110.179L1155.19 114.355H1152.8Z" fill="#3A3A3C"/>
<path d="M580.562 747.597C590.768 747.597 598.468 753.341 600.913 762.63H589.424C587.651 758.963 584.413 757.13 580.44 757.13C574.024 757.13 569.624 761.897 569.624 769.474C569.624 777.051 574.024 781.818 580.44 781.818C584.413 781.818 587.651 779.985 589.424 776.318H600.913C598.468 785.607 590.768 791.291 580.562 791.291C567.913 791.291 558.99 782.308 558.99 769.474C558.99 756.64 567.913 747.597 580.562 747.597Z" fill="#3A3A3C"/>
<path d="M607.332 745.763H617.782V790.985H607.332V745.763Z" fill="#3A3A3C"/>
<path d="M640.517 791.475C630.495 791.475 623.283 784.752 623.283 773.936C623.283 763.119 630.373 756.396 640.517 756.396C650.478 756.396 657.506 762.996 657.506 773.386C657.506 774.363 657.445 775.402 657.322 776.44H633.672C634.039 780.902 636.789 782.98 640.15 782.98C643.084 782.98 644.733 781.513 645.589 779.68H656.711C655.062 786.341 649.011 791.475 640.517 791.475ZM633.733 770.635H646.811C646.811 766.907 643.878 764.769 640.394 764.769C636.972 764.769 634.345 766.847 633.733 770.635Z" fill="#3A3A3C"/>
<path d="M675.964 756.396C681.036 756.396 684.641 758.719 686.475 761.713V756.885H696.924V790.985H686.475V786.157C684.58 789.152 680.975 791.475 675.902 791.475C667.591 791.475 660.93 784.63 660.93 773.874C660.93 763.118 667.591 756.396 675.964 756.396ZM679.019 765.502C675.108 765.502 671.564 768.436 671.564 773.874C671.564 779.313 675.108 782.368 679.019 782.368C682.991 782.368 686.475 779.374 686.475 773.936C686.475 768.497 682.991 765.502 679.019 765.502Z" fill="#3A3A3C"/>
<path d="M714.954 790.985H704.504V756.885H714.954V762.568C717.337 758.963 721.065 756.519 725.648 756.519V767.58H722.776C717.826 767.58 714.954 769.291 714.954 775.157L714.954 790.985Z" fill="#3A3A3C"/>
<path d="M764.534 791.475C755.428 791.475 749.317 786.402 748.828 779.802H759.156C759.4 782.186 761.54 783.775 764.412 783.775C767.101 783.775 768.506 782.552 768.506 781.025C768.506 775.525 749.928 779.496 749.928 766.969C749.928 761.163 754.878 756.396 763.8 756.396C772.601 756.396 777.489 761.285 778.162 768.008H768.506C768.201 765.686 766.428 764.157 763.495 764.157C761.05 764.157 759.706 765.135 759.706 766.785C759.706 772.225 778.162 768.374 778.345 781.085C778.345 787.013 773.089 791.475 764.534 791.475Z" fill="#3A3A3C"/>
<path d="M805.726 756.396C814.098 756.396 820.759 763.118 820.759 773.874C820.759 784.63 814.098 791.475 805.726 791.475C800.714 791.475 797.108 789.091 795.214 786.219V807.241H784.764V756.885H795.214V761.713C797.108 758.719 800.714 756.396 805.726 756.396ZM802.608 765.502C798.697 765.502 795.152 768.496 795.152 773.936C795.152 779.375 798.697 782.368 802.608 782.368C806.581 782.368 810.125 779.313 810.125 773.874C810.125 768.435 806.581 765.502 802.608 765.502Z" fill="#3A3A3C"/>
<path d="M839.215 756.396C844.287 756.396 847.893 758.719 849.727 761.713V756.885H860.177V790.985H849.727V786.157C847.832 789.152 844.227 791.475 839.154 791.475C830.843 791.475 824.182 784.63 824.182 773.874C824.182 763.118 830.843 756.396 839.215 756.396ZM842.271 765.502C838.36 765.502 834.816 768.436 834.816 773.874C834.816 779.313 838.359 782.368 842.271 782.368C846.243 782.368 849.727 779.374 849.727 773.936C849.727 768.497 846.243 765.502 842.271 765.502Z" fill="#3A3A3C"/>
<path d="M882.789 756.396C891.345 756.396 897.395 761.102 899.167 769.229H888.045C887.189 766.847 885.478 765.318 882.605 765.318C878.878 765.318 876.311 768.252 876.311 773.936C876.311 779.619 878.878 782.552 882.605 782.552C885.478 782.552 887.128 781.146 888.045 778.641H899.167C897.394 786.524 891.345 791.475 882.789 791.475C872.767 791.475 865.678 784.752 865.678 773.936C865.678 763.18 872.767 756.396 882.789 756.396Z" fill="#3A3A3C"/>
<path d="M919.886 791.475C909.863 791.475 902.652 784.752 902.652 773.936C902.652 763.119 909.741 756.396 919.886 756.396C929.847 756.396 936.875 762.996 936.875 773.386C936.875 774.363 936.814 775.402 936.691 776.44H913.041C913.408 780.902 916.158 782.98 919.52 782.98C922.453 782.98 924.103 781.513 924.958 779.68H936.08C934.431 786.341 928.381 791.475 919.886 791.475ZM913.103 770.635H926.181C926.181 766.907 923.247 764.769 919.764 764.769C916.342 764.769 913.714 766.847 913.103 770.635Z" fill="#3A3A3C"/>
<path d="M1173.4 1035.31L1163.83 1051.63H1149.1L1166.18 1024.53L1148.72 998.333H1163.83L1174.53 1014.43L1183.95 998.333H1198.68L1181.75 1025.21L1199.36 1051.63H1184.25L1173.4 1035.31Z" fill="#3A3A3C"/>
<path d="M1403.81 273.623H1397.81" stroke="#214457" stroke-width="3" stroke-miterlimit="10"/>
<path d="M1385.7 273.623L84.1113 273.623" stroke="#214457" stroke-width="3" stroke-miterlimit="10"/>
<path d="M78.0566 273.623H72.0566" stroke="#214457" stroke-width="3" stroke-miterlimit="10"/>
<path d="M1403.81 405.025H1397.81" stroke="#214457" stroke-width="3" stroke-miterlimit="10"/>
<path d="M1385.7 405.026L84.1113 405.025" stroke="#214457" stroke-width="3" stroke-miterlimit="10"/>
<path d="M78.0566 405.025H72.0566" stroke="#214457" stroke-width="3" stroke-miterlimit="10"/>
<path d="M1403.81 704.781H1397.81" stroke="#214457" stroke-width="3" stroke-miterlimit="10"/>
<path d="M1385.7 704.782L84.1113 704.781" stroke="#214457" stroke-width="3" stroke-miterlimit="10"/>
<path d="M78.0566 704.781H72.0566" stroke="#214457" stroke-width="3" stroke-miterlimit="10"/>
<path d="M1403.81 836.184L1397.81 836.184" stroke="#214457" stroke-width="3" stroke-miterlimit="10"/>
<path d="M1385.7 836.184L84.1113 836.184" stroke="#214457" stroke-width="3" stroke-miterlimit="10"/>
<path d="M78.0566 836.184H72.0566" stroke="#214457" stroke-width="3" stroke-miterlimit="10"/>
<g clip-path="url(#clip1_809_2304)">
<path d="M644.032 538.917C643.902 538.922 643.775 538.96 643.664 539.028C643.553 539.096 643.462 539.192 643.399 539.306C637.021 547.68 628.466 552.688 618.365 555.257C612.66 556.725 606.765 557.329 600.879 557.049C595.763 556.797 590.803 555.816 586.262 553.353C579.646 549.783 575.68 544.124 573.492 537.115C572.078 532.403 571.381 527.506 571.426 522.587C571.384 503.896 571.384 485.209 571.426 466.524C571.426 466.272 571.426 466.039 571.426 465.771C571.426 465.261 571.665 465.048 572.157 465.062C572.459 465.062 572.761 465.062 573.063 465.062H595.69C595.992 465.062 596.294 465.062 596.596 465.062C597.083 465.062 597.337 465.257 597.317 465.771C597.317 466.175 597.317 466.573 597.317 466.976V516.122C597.245 519.432 597.629 522.737 598.457 525.943C598.775 527.103 599.197 528.231 599.719 529.314C602.077 534.172 606.053 536.79 611.349 537.227C621.878 538.101 630.395 534.196 636.992 526.055C637.182 525.822 637.353 525.569 637.533 525.331C640.178 521.708 640.178 521.708 640.178 517.205V467.175C640.178 466.923 640.178 466.689 640.178 466.422C640.178 465.121 640.178 465.106 641.509 465.106H664.437C666.303 465.106 666.079 465.004 666.079 466.859C666.079 487.147 666.079 507.437 666.079 527.731C666.03 528.882 666.095 530.036 666.274 531.175C666.796 533.778 667.999 535.017 670.586 535.546C672.287 535.881 672.287 535.881 672.287 537.577C672.287 543.036 672.287 548.497 672.287 553.96C672.287 555.417 672.287 555.417 670.864 555.651C666.576 556.306 662.284 556.7 657.943 556.282C655.381 556.082 652.891 555.345 650.634 554.121C647.024 552.076 644.875 549.069 644.588 544.848C644.408 542.847 644.208 540.904 644.032 538.917Z" fill="#173303"/>
<path d="M800.26 510.254C800.26 503.094 800.26 495.93 800.26 488.765C800.241 487.67 800.568 486.596 801.195 485.696C806.701 477.409 814.224 471.609 823.374 467.826C829.479 465.352 835.959 463.92 842.541 463.59C849.567 463.172 856.524 463.59 863.336 465.421C874.055 468.277 883.273 473.645 890.226 482.422C897.778 491.961 901.032 502.9 899.624 514.917C897.539 532.656 887.775 544.935 871.58 552.26C865.421 555.043 858.912 556.369 852.174 556.864C844.39 557.52 836.551 556.77 829.035 554.65C819.291 551.823 810.896 546.844 804.328 539.019C803.113 537.546 801.975 536.012 800.918 534.424C800.442 533.72 800.203 532.883 800.235 532.034C800.269 524.792 800.26 517.506 800.26 510.254ZM873.49 510.317C873.441 509.516 873.397 508.714 873.353 507.918C872.691 496.498 864.763 484.938 850.161 483.286C838.151 481.931 828.465 488.216 823.953 496.556C820.777 502.429 819.89 508.7 820.899 515.199C822.847 527.925 832.767 536.784 845.679 537.333C855.248 537.736 863.078 534.244 868.661 526.336C872.038 521.557 873.431 516.122 873.49 510.317Z" fill="#173303"/>
<path d="M923.295 482.821C923.655 482.928 923.724 482.763 923.782 482.651C928.211 476.336 934.243 472.047 941.356 469.225C950.725 465.422 960.959 464.246 970.95 465.825C981.314 467.467 988.164 473.495 991.536 483.413C992.719 486.901 993.212 490.52 993.635 494.153C993.915 496.995 994.028 499.851 993.972 502.707C993.972 520.235 993.972 537.765 993.972 555.296C993.972 557.38 994.21 557.098 992.106 557.103C984.713 557.103 977.323 557.103 969.937 557.103C969.635 557.086 969.332 557.086 969.031 557.103C968.202 557.2 967.973 556.783 968.056 556.044C968.085 555.695 968.056 555.345 968.056 554.995C968.056 538.866 968.056 522.736 968.056 506.607C968.136 503.147 967.718 499.694 966.814 496.353C964.821 489.553 959.681 485.643 952.592 485.555C945.858 485.473 940.031 487.95 934.842 492.05C931.339 494.818 928.425 498.102 926.559 502.25C926.013 503.43 925.734 504.715 925.741 506.014C925.77 522.445 925.77 538.874 925.741 555.301C925.741 557.361 925.97 557.113 923.87 557.113C916.48 557.113 909.091 557.113 901.701 557.113C901.35 557.113 900.995 557.113 900.644 557.113C900.069 557.147 899.811 556.899 899.845 556.321C899.845 556.025 899.845 555.724 899.845 555.423C899.845 548.661 899.845 541.9 899.845 535.134C899.834 534.24 900.059 533.359 900.498 532.579C908.566 517.651 908.538 502.734 900.415 487.829C900.052 487.231 899.854 486.55 899.84 485.852C899.864 479.94 899.84 474.034 899.84 468.123C899.84 466.753 899.84 466.743 901.272 466.743H921.833H922.588C923.076 466.743 923.309 467.001 923.295 467.491C923.295 467.841 923.295 468.191 923.295 468.54V482.835V482.821Z" fill="#173303"/>
<path d="M482.043 434.748H596.799C597.038 435.234 596.648 435.418 596.443 435.666C591.142 441.956 585.822 448.232 580.545 454.541C580.274 454.891 579.92 455.167 579.515 455.346C579.111 455.525 578.668 455.601 578.226 455.566C559.617 455.54 541.013 455.54 522.414 455.566H511.257C511.15 456.081 511.554 456.052 511.803 456.11L519.296 458.403C520.573 458.796 520.578 458.801 520.578 460.142C520.578 468.513 520.578 476.88 520.578 485.244C520.578 487.323 520.344 487.095 522.414 487.095H552.661C552.691 487.722 552.301 487.945 552.057 488.232C547.243 493.949 542.4 499.646 537.611 505.388C537.341 505.738 536.989 506.016 536.585 506.197C536.181 506.379 535.738 506.457 535.297 506.427C527.754 506.383 520.193 506.393 512.67 506.388H511.13C511.296 506.932 511.7 506.874 511.998 506.976C514.541 507.763 517.079 508.554 519.637 509.303C519.785 509.32 519.927 509.366 520.056 509.439C520.186 509.512 520.299 509.61 520.39 509.727C520.48 509.845 520.547 509.979 520.585 510.122C520.623 510.265 520.632 510.414 520.612 510.561C520.579 515.272 520.579 519.982 520.612 524.69C520.59 525.34 520.317 525.955 519.852 526.41C514.408 532.847 508.967 539.287 503.53 545.727C500.713 549.059 497.897 552.393 495.081 555.728C494.835 556.123 494.502 556.455 494.107 556.7C493.746 556.258 493.931 555.728 493.931 555.286C493.931 517.16 493.931 479.034 493.931 440.907C493.931 438.163 494.277 438.77 491.787 437.993C488.962 437.104 486.121 436.254 483.29 435.384C482.871 435.258 482.457 435.122 482.043 434.991V434.748Z" fill="#173303"/>
<path d="M577.063 687.395C576.587 687.578 576.073 687.638 575.567 687.57C567.226 687.57 558.88 687.57 550.534 687.599C550.094 687.625 549.655 687.539 549.259 687.349C548.862 687.158 548.521 686.87 548.268 686.511C538.498 674.348 528.709 662.205 518.903 650.081L517.792 648.716C517.417 649.328 517.563 649.882 517.563 650.387C517.563 655.694 517.578 661.005 517.607 666.319C517.63 666.688 517.579 667.057 517.457 667.406C517.335 667.754 517.144 668.075 516.896 668.349C509.821 676.354 502.763 684.375 495.721 692.412C495.56 692.602 495.414 692.806 495.234 693.01C494.664 692.611 494.878 692.121 494.873 691.723C494.652 675.532 494.443 659.354 494.245 643.189L493.689 600.367C493.689 599.104 493.689 599.094 492.466 598.72C490.454 598.094 488.432 597.491 486.415 596.874C485.876 596.787 485.37 596.556 484.953 596.204H515.819C516.121 596.204 516.423 596.204 516.725 596.204C517.305 596.17 517.548 596.437 517.514 597.006C517.514 597.355 517.514 597.705 517.514 598.055C517.514 610.528 517.514 622.995 517.514 635.456C517.454 636.007 517.484 636.565 517.602 637.107C518.089 637.107 518.235 636.66 518.479 636.384C528.977 624.444 539.472 612.497 549.964 600.542C550.166 600.262 550.432 600.034 550.741 599.876C551.049 599.719 551.391 599.638 551.737 599.638C559.879 599.667 568.025 599.638 576.166 599.638C576.4 599.638 576.629 599.692 577.078 599.745C576.673 600.231 576.4 600.571 576.103 600.896L542.826 639.366C541.564 640.823 541.559 640.823 542.757 642.387L576.05 686.059C576.391 686.486 576.693 686.89 577.063 687.395Z" fill="#173303"/>
<path d="M686.269 535.396C687.662 533.298 689.007 531.306 690.318 529.29C690.693 528.708 691.034 528.805 691.545 529.101C692.776 529.872 694.027 530.615 695.297 531.33C702.391 535.313 709.802 538.476 717.89 539.816C722.825 540.632 727.785 540.885 732.74 539.967C735.081 539.595 737.314 538.727 739.289 537.422C740.432 536.678 741.366 535.656 742.002 534.451C742.637 533.246 742.953 531.899 742.918 530.539C742.943 529.303 742.635 528.083 742.028 527.005C741.421 525.927 740.535 525.031 739.464 524.409C738.121 523.618 736.692 522.981 735.206 522.51C729.715 520.542 724.053 519.158 718.401 517.735C712.749 516.312 707.195 514.821 701.763 512.921C698.716 511.887 695.798 510.508 693.066 508.812C687.428 505.252 684.651 500.181 684.602 493.507C684.534 484.225 688.403 476.992 695.784 471.503C700.882 467.786 706.8 465.343 713.042 464.378C726.372 462.143 739.386 463.367 751.937 468.526C755.876 470.186 759.583 472.349 762.963 474.962C763.937 475.69 764.069 475.627 763.275 476.681C760.264 480.693 757.262 484.71 754.271 488.732C753.559 489.679 753.54 489.704 752.502 489.014C747.196 485.614 741.608 482.787 735.449 481.198C730.046 479.8 724.574 479.256 719.025 480.144C716.884 480.48 714.821 481.195 712.935 482.257C708.973 484.497 708.179 488.703 709.076 492.263C709.461 493.803 710.537 494.877 711.79 495.751C713.176 496.66 714.675 497.388 716.248 497.917C720.603 499.506 725.135 500.428 729.632 501.482C736.157 502.93 742.595 504.741 748.916 506.908C752.44 508.106 755.801 509.737 758.919 511.765C763.119 514.573 766.334 518.192 767.26 523.263C769.048 533.079 766.568 541.545 758.646 548.035C753.774 552.037 748.049 554.315 741.924 555.612C734.925 557.037 727.756 557.455 720.638 556.851C712.465 556.265 704.417 554.525 696.734 551.683C694.11 550.669 691.542 549.516 689.041 548.229C688.603 548.069 688.231 547.766 687.987 547.369C687.743 546.973 687.64 546.505 687.696 546.043C687.774 543.09 687.726 540.132 687.721 537.174C687.701 535.872 687.696 535.872 686.269 535.396Z" fill="#173303"/>
<path d="M857.684 653.457C857.615 653.594 857.576 653.744 857.571 653.898C857.566 654.051 857.595 654.204 857.655 654.345C860.223 664.944 866.912 670.19 877.251 671.035C885.592 671.715 893.183 669.578 900.073 664.9C901.047 664.225 901.081 664.235 901.69 665.328C904.331 670.056 906.965 674.785 909.593 679.516C910.124 680.487 910.114 680.487 909.15 681.109C901.5 686.054 893.261 689.454 884.116 690.425C877.003 691.188 869.948 690.911 863.039 688.968C850.118 685.282 841.63 676.951 837.396 664.283C835.209 657.726 834.673 650.965 834.96 644.111C835.115 639.147 835.973 634.23 837.508 629.505C841.44 617.644 849.723 610.251 861.606 606.71C867.502 604.952 873.568 604.626 879.673 604.898C885.032 605.141 890.27 605.986 895.264 607.92C903.737 611.174 909.647 616.925 912.375 625.673C913.676 629.836 913.905 634.134 913.739 638.457C913.542 642.662 912.87 646.832 911.737 650.887C911.42 652.053 911.41 652.043 910.241 652.072L865.611 653.151C863.604 653.199 861.592 653.238 859.584 653.301C858.947 653.262 858.307 653.315 857.684 653.457ZM875.059 639.273V639.162C880.082 639.162 885.105 639.162 890.128 639.162C891.103 639.162 892.389 639.589 893.052 638.967C893.788 638.268 893.276 636.976 893.227 635.956C892.896 628.937 888.935 624.211 882.07 622.72C877.827 621.804 873.429 621.892 869.227 622.977C867.293 623.445 865.477 624.304 863.892 625.503C862.307 626.701 860.986 628.213 860.013 629.942C858.558 632.466 857.596 635.241 857.177 638.122C856.997 639.254 856.997 639.268 858.196 639.268C863.825 639.278 869.446 639.28 875.059 639.273Z" fill="#173303"/>
<path d="M934.895 620.112C935.87 619.359 936.567 618.805 937.278 618.256C941.572 614.857 946.219 611.925 951.14 609.513C957.711 606.274 965.043 604.882 972.348 605.486C979.925 606.142 985.236 609.858 988.037 616.964C989.694 621.161 990.337 625.557 990.688 630.016C991.438 639.468 991.394 648.93 991.121 658.397C990.873 667.14 990.356 675.883 989.382 684.626C989.382 684.728 989.382 684.825 989.382 684.927C989.206 686.292 989.206 686.321 987.847 686.287C981.065 686.116 974.283 685.938 967.501 685.753C966.175 685.719 966.166 685.7 966.302 684.374C966.779 679.743 967.151 675.104 967.418 670.457C968.084 660.559 968.165 650.629 967.661 640.721C967.553 638.568 967.184 636.437 966.56 634.373C966.262 633.408 965.852 632.482 965.337 631.614C963.876 629.112 961.62 627.917 958.77 627.728C955.359 627.475 952.187 628.301 949.108 629.637C945.767 631.151 942.628 633.073 939.763 635.359C938.491 636.33 937.283 637.404 936.006 638.375C935.703 638.594 935.463 638.889 935.312 639.23C935.16 639.572 935.102 639.947 935.144 640.318C935.198 643.47 935.193 646.632 935.212 649.785L935.431 684.048C935.431 684.398 935.402 684.752 935.431 685.102C935.505 685.821 935.163 686.074 934.457 686.074C932.547 686.146 930.642 686.268 928.732 686.37C923.766 686.632 918.799 686.894 913.833 687.157C912.775 687.215 912.751 687.21 912.722 686.127C912.722 685.423 912.722 684.723 912.722 684.019C912.68 683.797 912.71 683.567 912.807 683.363C912.904 683.159 913.064 682.99 913.263 682.882C913.808 682.61 913.813 682.207 913.477 681.785C912.527 680.59 912.576 679.196 912.556 677.782C912.449 669.918 912.308 662.054 912.186 654.19C912.157 652.408 912.186 652.408 914.008 652.315C915.29 652.252 915.309 652.257 915.626 651.038C917.36 644.456 918.262 637.787 917.575 630.968C917.034 625.479 915.402 620.384 912.132 615.91C911.704 615.353 911.478 614.669 911.489 613.967C911.489 612.461 911.489 610.961 911.372 609.46C911.324 608.668 911.621 608.391 912.381 608.352C914.89 608.231 917.394 608.07 919.904 607.925C924.289 607.672 928.63 607.439 932.995 607.167C934.238 607.089 934.243 607.06 934.301 608.318C934.457 611.767 934.611 615.217 934.764 618.669C934.803 619.048 934.842 619.432 934.895 620.112Z" fill="#173303"/>
<path d="M780.663 622.423L782.427 621C786.51 617.722 790.812 614.778 795.582 612.607C801.818 609.795 808.308 608.571 815.129 609.387C821.551 610.149 825.99 613.501 828.392 619.504C829.672 622.878 830.457 626.418 830.721 630.015C831.481 638.273 831.427 646.53 831.276 654.788C831.14 662.049 830.818 669.301 830.116 676.534C829.951 678.229 829.727 679.934 829.59 681.609C829.537 682.275 829.254 682.455 828.616 682.435C826.808 682.382 824.996 682.367 823.188 682.333L809.921 682.086C808.654 682.056 808.644 682.042 808.781 680.818C810.008 669.261 810.501 657.639 810.257 646.02C810.208 642.814 810.072 639.609 809.331 636.471C809.107 635.442 808.772 634.441 808.333 633.484C807.854 632.399 807.095 631.459 806.134 630.762C805.173 630.064 804.044 629.632 802.861 629.51C799.999 629.197 797.104 629.6 794.437 630.681C791.026 631.958 788.01 633.964 785.141 636.184C783.913 637.156 782.763 638.19 781.53 639.137C781.233 639.361 781 639.658 780.852 639.998C780.704 640.339 780.648 640.711 780.687 641.08C780.746 646.088 780.751 651.096 780.785 656.104C780.837 664.222 780.897 672.337 780.965 680.449C780.965 680.648 780.965 680.847 780.965 681.051C780.965 682.158 780.965 682.188 779.801 682.246C773.779 682.57 767.757 682.876 761.734 683.164C761.325 683.164 760.697 683.509 760.521 682.979C760.372 682.658 760.319 682.301 760.367 681.951C760.416 681.601 760.564 681.271 760.794 681.002C761.515 680.24 762.227 679.463 762.914 678.661C763.698 677.743 763.688 677.729 763.011 676.772C762.742 676.349 762.444 675.944 762.119 675.562C760.55 673.901 760.136 671.963 760.107 669.685C759.922 655.312 759.62 640.944 759.298 626.572C759.269 625.42 759.493 624.629 760.521 623.944C761.905 623.04 763.177 621.962 764.492 620.957C765.418 620.247 765.423 620.238 764.794 619.189C763.456 616.888 761.796 614.79 759.863 612.957C759.585 612.717 759.363 612.418 759.214 612.082C759.066 611.746 758.995 611.381 759.006 611.014C758.894 602.951 758.738 594.892 758.602 586.829C758.602 585.581 758.602 585.562 759.795 585.494C766.321 585.144 772.845 584.799 779.367 584.459C780.566 584.401 780.585 584.415 780.59 585.698C780.619 594.463 780.642 603.229 780.658 611.995C780.668 615.308 780.663 618.664 780.663 622.423Z" fill="#173303"/>
<path d="M674.351 665.003C674.636 666.364 674.818 667.744 674.897 669.131C675.414 673.654 675.872 678.185 676.437 682.703C676.524 683.446 676.227 683.674 675.628 683.868C669.167 685.811 662.624 687.356 655.827 687.429C652.758 687.487 649.694 687.131 646.721 686.37C639.939 684.568 635.252 680.396 632.533 673.979C630.813 669.918 630.097 665.644 629.727 661.277C629.566 659.281 629.541 657.28 629.507 655.279C629.381 646.535 629.273 637.753 629.137 628.991C629.103 626.737 629.264 627.048 627.188 627.048C624.026 627.092 620.854 627.189 617.692 627.257C616.523 627.286 616.508 627.257 616.533 626.14C616.646 620.68 616.766 615.222 616.893 609.766C616.922 608.503 616.942 608.498 618.282 608.479C621.093 608.44 623.909 608.449 626.72 608.372C629.079 608.304 628.762 608.595 628.742 606.361C628.703 601.989 628.616 597.647 628.547 593.295C628.547 592.542 628.572 591.784 628.499 591.041C628.426 590.298 628.806 590.001 629.527 589.919C631.919 589.637 634.306 589.312 636.699 589.001L650.292 587.228L650.741 587.179C652.441 587.014 652.412 586.805 652.412 588.637C652.412 594.546 652.412 600.456 652.412 606.366C652.412 606.715 652.412 607.07 652.412 607.415C652.378 607.993 652.626 608.216 653.206 608.207C654.867 608.182 656.524 608.207 658.185 608.177L675.823 607.935C676.174 607.935 676.529 607.935 676.88 607.935C677.431 607.901 677.747 608.095 677.699 608.697C677.699 608.998 677.699 609.299 677.699 609.601C677.549 614.587 677.398 619.584 677.246 624.59C677.246 625.824 677.246 625.824 675.993 625.824C668.662 625.996 661.328 626.157 653.99 626.31C653.688 626.31 653.386 626.31 653.084 626.31C653.009 626.309 652.934 626.324 652.865 626.353C652.796 626.382 652.733 626.426 652.682 626.481C652.631 626.536 652.591 626.601 652.567 626.672C652.542 626.742 652.532 626.818 652.538 626.893C652.538 627.296 652.538 627.694 652.538 628.097C652.59 637.012 652.646 645.927 652.704 654.841C652.723 655.942 652.822 657.039 653.001 658.125C653.727 662.778 656.241 665.629 661.859 666.499C665.46 667.057 668.958 666.353 672.417 665.401C673.031 665.28 673.616 664.935 674.351 665.003Z" fill="#173303"/>
<path d="M746.791 661.506C747.922 663.046 749.071 664.619 750.202 666.198C752.268 669.035 754.343 671.866 756.394 674.718C757.296 675.966 757.369 675.602 756.263 676.937C751.81 682.242 746.114 685.681 739.58 687.813C734.265 689.537 728.774 689.989 723.205 689.756C718.117 689.644 713.096 688.573 708.408 686.599C698.088 682.096 691.223 674.358 687.681 663.818C683.364 650.985 683.671 638.235 689.835 626.014C695.959 613.87 706.147 607.143 719.521 605.186C727.422 603.942 735.513 604.891 742.908 607.93C749.14 610.499 754.338 614.38 757.949 620.18C758.134 620.476 758.295 620.787 758.49 621.079C758.56 621.151 758.612 621.239 758.642 621.335C758.672 621.432 758.678 621.534 758.661 621.633C758.644 621.732 758.604 621.826 758.544 621.907C758.483 621.988 758.405 622.054 758.314 622.099C758.066 622.269 757.827 622.463 757.593 622.643L745.481 631.872C744.433 632.663 744.57 632.843 743.663 631.629C737.437 623.396 723.419 621.628 715.248 628.525C711.136 631.998 708.856 636.452 708.052 641.678C707.331 646.38 707.423 651.072 708.822 655.663C711.458 664.362 718.449 669.54 727.57 669.54C734.806 669.54 741.052 667.174 746.109 661.924C746.275 661.703 746.519 661.554 746.791 661.506Z" fill="#173303"/>
<path d="M770.306 475.733C769.678 475.248 769.113 474.762 768.479 474.349C768.194 474.2 767.959 473.97 767.805 473.688C767.65 473.407 767.583 473.085 767.612 472.765C767.67 471.065 767.612 469.365 767.612 467.66C767.612 466.592 767.641 466.568 768.689 466.563C772.056 466.563 775.427 466.563 778.794 466.563H792.232C794.029 466.563 793.878 466.461 793.878 468.166V511.745C793.878 526.317 793.878 540.889 793.878 555.461C793.878 557.292 794.083 557.117 792.154 557.117H769.381H768.177C768.102 557.127 768.025 557.119 767.953 557.095C767.882 557.07 767.817 557.029 767.764 556.974C767.711 556.92 767.671 556.854 767.648 556.782C767.625 556.71 767.619 556.633 767.632 556.558C767.632 556.209 767.632 555.859 767.632 555.504C767.632 552.59 767.671 549.676 767.632 546.79C767.613 546.398 767.674 546.006 767.812 545.638C767.949 545.27 768.16 544.933 768.431 544.648C771.575 541.094 773.535 536.654 774.039 531.942C774.565 527.755 774.282 523.684 772.577 519.76C771.609 517.604 770.174 515.688 768.377 514.15C768.144 513.971 767.958 513.739 767.834 513.474C767.71 513.208 767.653 512.917 767.666 512.624C767.666 501.802 767.666 490.982 767.666 480.163C767.659 479.562 767.87 478.979 768.26 478.521C768.923 477.623 769.58 476.705 770.306 475.733Z" fill="#173303"/>
<path d="M612.333 647.157C612.411 659.524 612.486 671.89 612.557 684.257C612.557 686.02 612.913 686.001 610.789 686.108C604.215 686.432 597.645 686.78 591.081 687.152C589.858 687.22 589.853 687.239 589.824 685.957C589.653 679.05 589.497 672.143 589.307 665.236C588.966 652.779 588.612 640.32 588.245 627.859C588.094 622.404 587.967 616.95 587.831 611.495C587.831 611.194 587.831 610.893 587.831 610.596C587.777 609.965 588.05 609.712 588.693 609.678C591.748 609.513 594.808 609.309 597.863 609.125L610.643 608.347C610.891 608.347 611.13 608.323 611.393 608.304C611.909 608.26 612.134 608.508 612.119 609.008C612.119 609.304 612.119 609.606 612.119 609.907L612.353 647.157H612.333Z" fill="#173303"/>
<path d="M780.687 454.299C776.767 454.299 772.846 454.299 768.926 454.299C767.649 454.299 767.625 454.299 767.625 453.119C767.625 446.16 767.625 439.198 767.625 432.232C767.625 431.115 767.625 431.096 768.814 431.096C776.756 431.096 784.697 431.096 792.639 431.096C793.857 431.096 793.872 431.096 793.872 432.344C793.872 439.254 793.872 446.166 793.872 453.08C793.872 454.28 793.872 454.294 792.6 454.294C788.631 454.304 784.66 454.305 780.687 454.299Z" fill="#173303"/>
<path d="M600.526 574.045C604.142 573.885 607.752 573.744 611.362 573.535C612.152 573.492 612.283 573.798 612.283 574.473C612.283 577.873 612.283 581.273 612.283 584.673C612.283 586.975 612.283 589.283 612.283 591.585C612.283 592.814 612.283 592.838 611.065 592.892C606.651 593.1 602.236 593.29 597.817 593.484L589.841 593.829C588.833 593.868 588.813 593.858 588.789 592.901C588.649 587.199 588.513 581.495 588.38 575.789C588.355 574.696 588.38 574.662 589.559 574.599C592.921 574.424 596.283 574.279 599.644 574.113C599.942 574.113 600.244 574.07 600.546 574.05L600.526 574.045Z" fill="#173303"/>
</g>
</g>
<defs>
<clipPath id="clip0_809_2304">
<rect width="1403.81" height="1064.45" fill="white"/>
</clipPath>
<clipPath id="clip1_809_2304">
<rect width="512" height="275" fill="white" transform="translate(482 418)"/>
</clipPath>
</defs>
</svg>
