<svg width="669" height="268" viewBox="0 0 669 268" fill="none" xmlns="http://www.w3.org/2000/svg">
<g clip-path="url(#clip0_800_1831)">
<path d="M561.222 42.1211H603.122V21.2891C603.122 21.1021 603.122 20.9191 603.116 20.7261C603.048 15.2123 600.813 9.94682 596.894 6.06798C592.974 2.18915 587.686 0.00868612 582.172 -0.00193295C579.412 -0.00579122 576.679 0.543743 574.136 1.61416C571.592 2.68457 569.289 4.25412 567.362 6.23006C566.615 6.98746 565.926 7.80046 565.302 8.66207C562.634 12.3294 561.205 16.7513 561.221 21.2861L561.222 42.1211Z" fill="#2F2E41"/>
<path d="M365.672 265.991C375.056 265.991 382.664 258.383 382.664 248.999C382.664 239.614 375.056 232.007 365.672 232.007C356.287 232.007 348.68 239.614 348.68 248.999C348.68 258.383 356.287 265.991 365.672 265.991Z" fill="#2F2E41"/>
<path d="M425.484 265.991C434.869 265.991 442.476 258.383 442.476 248.999C442.476 239.614 434.869 232.007 425.484 232.007C416.1 232.007 408.492 239.614 408.492 248.999C408.492 258.383 416.1 265.991 425.484 265.991Z" fill="#2F2E41"/>
<path d="M485.297 265.991C494.681 265.991 502.289 258.383 502.289 248.999C502.289 239.614 494.681 232.007 485.297 232.007C475.912 232.007 468.305 239.614 468.305 248.999C468.305 258.383 475.912 265.991 485.297 265.991Z" fill="#2F2E41"/>
<path d="M142.717 225.619H59.931L42.8029 265.347H11.877L88.477 95.9688H113.456L190.295 265.347H159.603L142.717 225.619ZM132.488 201.83L101.324 129.271L70.16 201.828L132.488 201.83Z" fill="#9FE870"/>
<path d="M321.372 145.212V265.347H292.112V246.077C288.51 252.691 283.053 258.107 276.412 261.659C269.24 265.469 261.218 267.393 253.099 267.249C243.283 267.429 233.623 264.787 225.266 259.637C217.032 254.399 210.502 246.877 206.472 237.989C202.03 228.633 199.809 217.769 199.811 205.398C199.812 193.027 202.072 182.044 206.591 172.45C210.674 163.371 217.227 155.622 225.503 150.088C233.704 144.743 243.314 141.968 253.103 142.119C261.222 141.973 269.245 143.897 276.416 147.709C283.056 151.262 288.513 156.678 292.116 163.291V145.212H321.372ZM284.024 233.712C289.414 226.895 292.11 217.301 292.112 204.928C292.112 192.241 289.416 182.487 284.024 175.667C278.632 168.847 270.94 165.437 260.948 165.438C251.112 165.438 243.46 168.967 237.991 176.024C232.521 183.081 229.786 192.874 229.784 205.403C229.784 217.774 232.519 227.289 237.991 233.95C243.462 240.611 251.193 243.941 261.185 243.942C271.019 243.939 278.632 240.527 284.024 233.708V233.712Z" fill="#9FE870"/>
<path d="M668.813 264.632H0V265.991H668.813V264.632Z" fill="#3F3D56"/>
<path d="M611.457 124.842C613.079 126.55 615.55 147.553 622.866 144.361C628.775 137.688 618.843 124.432 617.831 121.618L611.457 124.842Z" fill="#FFB8B8"/>
<path d="M602.233 97.7402L620.216 121.853L611.633 128.39L598.963 110.407L602.233 97.7402Z" fill="#9FE870"/>
<path d="M574.029 101.415C574.029 101.415 561.768 124.715 571.577 138.198C581.386 151.681 601.821 181.111 601.821 181.111C604.787 206.363 610.438 230.423 625.993 250.805L636.293 247.982L621.442 175.389C621.442 175.389 613.268 132.889 603.868 122.259L602.207 101.953L574.029 101.415Z" fill="#173303"/>
<path d="M573.62 135.745L565.446 176.206C558.474 180.584 543.981 224.15 538.312 239.249L549.37 243.361C561.561 224.108 589.65 173.561 596.099 152.093L573.62 135.745Z" fill="#173303"/>
<path d="M601.412 19.6755C601.091 38.4755 573.122 38.4755 572.803 19.6755C573.124 0.869493 601.094 0.875493 601.412 19.6755Z" fill="#FFB8B8"/>
<path d="M591.193 29.485C583.969 40.317 584.162 44.07 592.828 54.007L579.75 44.6071C579.75 44.6071 570.35 44.6071 572.394 40.1071C574.438 35.6071 578.524 26.207 578.524 26.207L591.193 29.485Z" fill="#FFB8B8"/>
<path d="M583.838 45.4243C583.838 45.4243 574.438 38.4763 569.938 42.9723C565.47 51.5293 569.965 89.0203 571.571 92.0163C573.616 95.2863 574.025 92.4253 573.616 96.1033C573.207 99.7813 571.573 102.642 571.981 103.051C572.389 103.46 603.859 106.729 603.859 106.729C603.859 106.729 601.407 95.2863 602.224 90.7903C603.041 86.2943 601.407 81.7993 601.407 80.1643C601.407 78.5293 603.859 71.5813 601.407 66.2643C598.955 60.9473 589.768 50.0233 589.768 50.0233L589.146 50.7333L583.838 45.4243Z" fill="#9FE870"/>
<path d="M560.133 133.294C561.033 135.837 553.848 158.979 562.993 159.042C572.287 154.806 568.056 136.302 568.307 132.885L560.133 133.294Z" fill="#FFB8B8"/>
<path d="M571.577 43.3809C571.577 43.3809 560.951 43.7899 560.951 56.4589C560.951 69.1279 557.273 91.6069 557.273 91.6069V135.337H571.173L569.124 94.0539L577.707 67.0799C577.707 67.0799 588.742 49.9199 571.577 43.3809Z" fill="#9FE870"/>
<path d="M654.309 260.563C654.453 259.552 654.304 258.52 653.88 257.591C653.456 256.661 652.775 255.872 651.916 255.318L636.567 247.785L624.994 249.246L622.261 259.046C622.146 259.744 622.174 260.459 622.343 261.146C622.512 261.833 622.82 262.478 623.247 263.043C623.673 263.607 624.211 264.079 624.826 264.429C625.44 264.779 626.12 265 626.823 265.079L648.417 265.126C649.8 265.282 651.189 264.892 652.289 264.04C653.389 263.188 654.114 261.941 654.309 260.563Z" fill="#173303"/>
<path d="M553.942 263.885C554.759 263.272 555.383 262.437 555.741 261.48C556.098 260.523 556.174 259.484 555.959 258.485L550.432 242.305L541.216 235.155L532.355 240.155C531.78 240.567 531.294 241.092 530.928 241.697C530.562 242.303 530.323 242.977 530.225 243.678C530.128 244.379 530.174 245.092 530.362 245.774C530.549 246.457 530.873 247.094 531.314 247.647L546.55 262.947C547.418 264.035 548.675 264.741 550.055 264.917C551.436 265.093 552.83 264.724 553.942 263.888V263.885Z" fill="#173303"/>
<path d="M570.792 8.30509L574.609 20.4501L607.609 19.8631C607.497 15.6136 606.06 11.5052 603.499 8.11207C600.939 4.71894 597.382 2.21055 593.326 0.937388C589.27 -0.335771 584.918 -0.310089 580.877 1.01084C576.837 2.33178 573.31 4.88198 570.789 8.30509H570.792Z" fill="#2F2E41"/>
</g>
<defs>
<clipPath id="clip0_800_1831">
<rect width="668.813" height="267.25" fill="white"/>
</clipPath>
</defs>
</svg>
