<svg xmlns="http://www.w3.org/2000/svg" width="165.565" height="157.732" viewBox="0 0 165.565 157.732"><defs><style>.a{fill:#90e36a;}.b{fill:#6e76e5;}.c{fill:#9bfbff;}.d{fill:#8cbcff;}.e{fill:#ff7c48;}.f{fill:#ff2828;}.g{fill:#ffda44;}.h{fill:#ff7cec;}.i{fill:#fff5f5;}.j{fill:#ece9e8;}</style></defs><g transform="translate(-0.001)"><path class="a" d="M29.34,186.766a53.506,53.506,0,1,0,53.443,92.521V209.154Z" transform="translate(0.001 -130.288)"/><path class="b" d="M256,279.271a53.5,53.5,0,1,0,53.427-92.529L256,209.138Z" transform="translate(-173.217 -130.272)"/><path class="c" d="M229.422,325.234l-48.34.008c-.053.978-.083,1.962-.083,2.952a53.513,53.513,0,0,0,24.253,44.784,53.513,53.513,0,0,0,24.253-44.784C229.505,327.2,229.476,326.214,229.422,325.234Z" transform="translate(-122.469 -223.98)"/><path class="d" d="M280.17,325.234H256v47.745a53.513,53.513,0,0,0,24.253-44.784C280.253,327.2,280.223,326.214,280.17,325.234Z" transform="translate(-173.217 -223.98)"/><path class="e" d="M144,90.979l53.427-22.4c.053-.978.083-1.962.083-2.952a53.518,53.518,0,0,0-107.035,0c0,.993.029,1.98.083,2.96Z" transform="translate(-61.217 -12.113)"/><path class="f" d="M255.975,12.112l.008,78.866,53.427-22.4c.053-.978.083-1.962.083-2.952A53.579,53.579,0,0,0,255.975,12.112Z" transform="translate(-173.2 -12.112)"/><path class="g" d="M114.91,168.888a53.191,53.191,0,0,0-24.178,5.781A53.6,53.6,0,0,0,120,219.453l24.17-41.832A53.2,53.2,0,0,0,114.91,168.888Z" transform="translate(-61.391 -118.191)"/><path class="h" d="M285.265,168.888A53.2,53.2,0,0,0,256,177.621l24.17,41.825a53.6,53.6,0,0,0,29.257-44.784,53.19,53.19,0,0,0-24.162-5.773Z" transform="translate(-173.217 -118.191)"/><path class="i" d="M205.426,195.894a53.537,53.537,0,0,0-24.17,41.832,53.447,53.447,0,0,0,48.34-.008A53.539,53.539,0,0,0,205.426,195.894Z" transform="translate(-122.643 -136.464)"/><path class="j" d="M280.17,237.719A53.538,53.538,0,0,0,256,195.894V243.5A53.189,53.189,0,0,0,280.17,237.719Z" transform="translate(-173.217 -136.464)"/></g></svg>