<svg xmlns="http://www.w3.org/2000/svg" width="154.965" height="154.825" viewBox="0 0 154.965 154.825"><defs><style>.a{fill:#020288;}.b{fill:#e2c4ff;fill-rule:evenodd;}</style></defs><g transform="translate(-0.001 0)"><g transform="translate(0.001 0)"><path class="a" d="M86.33,129.811H30.9a3.027,3.027,0,0,1-3.027-3.027V114.432a3.027,3.027,0,0,1,3.027-3.027,7.791,7.791,0,0,0,7.782-7.782V20.181H26.188a7.791,7.791,0,0,0-7.782,7.782,3.027,3.027,0,0,1-3.027,3.027H3.027A3.027,3.027,0,0,1,0,27.963V3.258A3.027,3.027,0,0,1,3.027.231H114.2a3.027,3.027,0,0,1,3.027,3.027V27.963A3.027,3.027,0,0,1,114.2,30.99H101.848a3.027,3.027,0,0,1-3.027-3.027,7.791,7.791,0,0,0-7.782-7.782H78.548v83.442a7.791,7.791,0,0,0,7.782,7.782,3.027,3.027,0,0,1,3.027,3.027v12.353a3.027,3.027,0,0,1-3.027,3.027Zm-52.406-6.053H83.3v-6.633a13.86,13.86,0,0,1-10.809-13.5V17.155a3.027,3.027,0,0,1,3.027-3.027H91.039a13.86,13.86,0,0,1,13.5,10.809h6.633V6.284H6.053V24.936h6.633a13.859,13.859,0,0,1,13.5-10.809H41.706a3.027,3.027,0,0,1,3.027,3.027v86.469a13.86,13.86,0,0,1-10.809,13.5v6.633Z" transform="translate(0 -0.231)"/></g><path class="b" d="M300.792,156.771h9.265a13.9,13.9,0,0,0,13.9-13.9h12.353v13.9h16.059v13.9H336.306v57.44c.424,10.654,15.639,10.645,16.059,0h12.353c-1.4,35.238-51.727,35.211-53.117,0v-57.44H300.792Z" transform="translate(-209.751 -99.701)"/></g></svg>