<svg xmlns="http://www.w3.org/2000/svg" width="114.305" height="150.626" viewBox="0 0 114.305 150.626"><defs><style>.a{fill:#f4efed;}.b{fill:#d6d1cf;}.c{fill:#fff;}.d{fill:#690589;}.e{fill:#fcc24c;}</style></defs><g transform="translate(0)"><g transform="translate(1.195 1.195)"><path class="a" d="M140.32,152.235H40.36a5.977,5.977,0,0,1-5.977-5.977V9.977A5.977,5.977,0,0,1,40.36,4h99.96A5.977,5.977,0,0,1,146.3,9.977V146.258A5.977,5.977,0,0,1,140.32,152.235Z" transform="translate(-34.383 -4)"/></g><g transform="translate(101.155 1.195)"><path class="b" d="M207.594,4h-5.977a5.977,5.977,0,0,1,5.977,5.977V146.258a5.977,5.977,0,0,1-5.977,5.977h5.977a5.977,5.977,0,0,0,5.977-5.977V9.977A5.977,5.977,0,0,0,207.594,4Z" transform="translate(-201.617 -4)"/></g><g transform="translate(1.195 1.195)"><path class="c" d="M40.36,152.235h5.977a5.977,5.977,0,0,1-5.977-5.977V9.977A5.977,5.977,0,0,1,46.337,4H40.36a5.977,5.977,0,0,0-5.977,5.977V146.258A5.977,5.977,0,0,0,40.36,152.235Z" transform="translate(-34.383 -4)"/></g><g transform="translate(0 0)"><path class="d" d="M139.515,152.626H39.556a7.181,7.181,0,0,1-7.173-7.173V9.173A7.181,7.181,0,0,1,39.556,2h99.96a7.181,7.181,0,0,1,7.173,7.173V145.454A7.181,7.181,0,0,1,139.515,152.626ZM39.556,4.391a4.787,4.787,0,0,0-4.782,4.782V145.454a4.787,4.787,0,0,0,4.782,4.782h99.96a4.787,4.787,0,0,0,4.782-4.782V9.173a4.787,4.787,0,0,0-4.782-4.782Z" transform="translate(-32.383 -2)"/></g><g transform="translate(5.977 36.844)"><path class="d" d="M43.578,73.2a1.2,1.2,0,0,1-1.2-1.2V64.835a1.2,1.2,0,1,1,2.391,0v7.173A1.2,1.2,0,0,1,43.578,73.2Z" transform="translate(-42.383 -63.64)"/></g><g transform="translate(14.658 74.979)"><path class="e" d="M56.906,127.441H70.37v13.464H56.906Z" transform="translate(-56.906 -127.441)"/></g><g transform="translate(13.462 73.783)"><path class="d" d="M69.566,141.3H56.1a1.2,1.2,0,0,1-1.2-1.2V126.635a1.2,1.2,0,0,1,1.2-1.2H69.565a1.2,1.2,0,0,1,1.2,1.2V140.1A1.2,1.2,0,0,1,69.566,141.3ZM57.3,138.9H68.37V127.831H57.3Z" transform="translate(-54.906 -125.44)"/></g><g transform="translate(17.413 73.783)"><path class="d" d="M65.492,137.053a1.2,1.2,0,0,1-.934-.448l-2.781-3.473a1.2,1.2,0,0,1,1.867-1.494l1.8,2.253,5.81-7.96a1.2,1.2,0,0,1,1.931,1.411l-6.732,9.222a1.193,1.193,0,0,1-.938.49Z" transform="translate(-61.515 -125.44)"/></g><g transform="translate(14.658 97.306)"><path class="e" d="M56.906,164.794H70.37v13.464H56.906Z" transform="translate(-56.906 -164.794)"/></g><g transform="translate(13.462 96.11)"><path class="d" d="M69.566,178.649H56.1a1.2,1.2,0,0,1-1.2-1.2V163.989a1.2,1.2,0,0,1,1.2-1.2H69.565a1.2,1.2,0,0,1,1.2,1.2v13.464A1.2,1.2,0,0,1,69.566,178.649ZM57.3,176.258H68.37V165.185H57.3Z" transform="translate(-54.906 -162.794)"/></g><g transform="translate(17.413 96.11)"><path class="d" d="M65.492,174.407a1.2,1.2,0,0,1-.934-.448l-2.781-3.473a1.2,1.2,0,0,1,1.867-1.494l1.8,2.253,5.81-7.96a1.2,1.2,0,0,1,1.931,1.41l-6.732,9.222a1.193,1.193,0,0,1-.938.49Z" transform="translate(-61.515 -162.794)"/></g><g transform="translate(14.658 119.633)"><path class="e" d="M56.906,202.148H70.37v13.464H56.906Z" transform="translate(-56.906 -202.148)"/></g><g transform="translate(13.462 118.438)"><path class="d" d="M69.566,216H56.1a1.2,1.2,0,0,1-1.2-1.2V201.343a1.2,1.2,0,0,1,1.2-1.2H69.565a1.2,1.2,0,0,1,1.2,1.2v13.464A1.2,1.2,0,0,1,69.566,216ZM57.3,213.612H68.37V202.539H57.3Z" transform="translate(-54.906 -200.148)"/></g><g transform="translate(17.413 118.437)"><path class="d" d="M65.492,211.76a1.2,1.2,0,0,1-.934-.448l-2.781-3.473a1.2,1.2,0,0,1,1.867-1.494l1.8,2.253,5.81-7.96a1.2,1.2,0,0,1,1.931,1.41l-6.732,9.222a1.193,1.193,0,0,1-.938.49Z" transform="translate(-61.515 -200.147)"/></g><g transform="translate(35.795 80.515)"><path class="d" d="M156.121,139.094H93.464a1.2,1.2,0,1,1,0-2.391h62.656a1.2,1.2,0,0,1,0,2.391Z" transform="translate(-92.269 -136.703)"/></g><g transform="translate(35.795 87.248)"><path class="d" d="M156.121,150.358H93.464a1.2,1.2,0,1,1,0-2.391h62.656a1.2,1.2,0,0,1,0,2.391Z" transform="translate(-92.269 -147.967)"/></g><g transform="translate(35.795 102.842)"><path class="d" d="M156.121,176.448H93.464a1.2,1.2,0,1,1,0-2.391h62.656a1.2,1.2,0,0,1,0,2.391Z" transform="translate(-92.269 -174.057)"/></g><g transform="translate(35.795 109.575)"><path class="d" d="M156.121,187.711H93.464a1.2,1.2,0,1,1,0-2.391h62.656a1.2,1.2,0,0,1,0,2.391Z" transform="translate(-92.269 -185.32)"/></g><g transform="translate(35.795 125.169)"><path class="d" d="M156.121,213.8H93.464a1.2,1.2,0,0,1,0-2.391h62.656a1.2,1.2,0,0,1,0,2.391Z" transform="translate(-92.269 -211.41)"/></g><g transform="translate(35.795 131.902)"><path class="d" d="M156.121,225.065H93.464a1.2,1.2,0,0,1,0-2.391h62.656a1.2,1.2,0,0,1,0,2.391Z" transform="translate(-92.269 -222.674)"/></g><g transform="translate(33.738 17.529)"><path class="e" d="M110.211,71.727,102.5,75.78a4.364,4.364,0,0,1-6.332-4.6l1.473-8.585a4.364,4.364,0,0,0-1.255-3.862L90.15,52.653a4.363,4.363,0,0,1,2.418-7.443l8.62-1.253a4.363,4.363,0,0,0,3.286-2.387l3.855-7.811a4.364,4.364,0,0,1,7.826,0l3.855,7.811a4.364,4.364,0,0,0,3.286,2.387l8.62,1.253a4.364,4.364,0,0,1,2.418,7.443l-6.237,6.08a4.364,4.364,0,0,0-1.255,3.862l1.473,8.585a4.364,4.364,0,0,1-6.332,4.6l-7.71-4.053A4.361,4.361,0,0,0,110.211,71.727Z" transform="translate(-88.827 -31.327)"/></g><g transform="translate(32.543 16.334)"><path class="d" d="M99.661,76.679a5.569,5.569,0,0,1-5.473-6.5l1.473-8.585a3.165,3.165,0,0,0-.911-2.8L88.511,52.7a5.559,5.559,0,0,1,3.081-9.482l8.619-1.253a3.167,3.167,0,0,0,2.386-1.733l3.855-7.81a5.56,5.56,0,0,1,9.971,0l3.855,7.81a3.167,3.167,0,0,0,2.386,1.733l8.62,1.253a5.559,5.559,0,0,1,3.081,9.482l-6.237,6.08a3.165,3.165,0,0,0-.911,2.8l1.473,8.585a5.559,5.559,0,0,1-8.066,5.86l-7.709-4.053a3.167,3.167,0,0,0-2.949,0l-7.709,4.053A5.569,5.569,0,0,1,99.661,76.679Zm11.777-44.961a3.108,3.108,0,0,0-2.841,1.766l-3.855,7.81a5.558,5.558,0,0,1-4.186,3.042l-8.62,1.253a3.167,3.167,0,0,0-1.756,5.4l6.238,6.08a5.561,5.561,0,0,1,1.6,4.92l-1.473,8.585a3.167,3.167,0,0,0,4.6,3.339l7.709-4.053a5.561,5.561,0,0,1,5.174,0l7.709,4.053a3.167,3.167,0,0,0,4.6-3.339l-1.473-8.585a5.555,5.555,0,0,1,1.6-4.92l6.238-6.081a3.168,3.168,0,0,0-1.755-5.4l-8.62-1.253a5.559,5.559,0,0,1-4.186-3.042l-3.855-7.81A3.108,3.108,0,0,0,111.438,31.717Z" transform="translate(-86.828 -29.327)"/></g><g transform="translate(85.813 1.195)"><path class="e" d="M189.436,25.746,185.358,22.8a1.933,1.933,0,0,0-2.264,0l-4.078,2.946a1.934,1.934,0,0,1-3.066-1.567V4H192.5V24.179A1.933,1.933,0,0,1,189.436,25.746Z" transform="translate(-175.95 -4)"/></g><g transform="translate(84.619 0)"><path class="d" d="M189.763,26.505a3.12,3.12,0,0,1-1.83-.595l-4.078-2.946a.739.739,0,0,0-.864,0l-4.078,2.946a3.129,3.129,0,0,1-4.961-2.536V3.2a1.2,1.2,0,0,1,1.2-1.2H191.7a1.2,1.2,0,0,1,1.2,1.2V23.375a3.134,3.134,0,0,1-3.131,3.131ZM176.342,4.391V23.375a.738.738,0,0,0,1.17.6l4.078-2.946a3.124,3.124,0,0,1,3.664,0l4.078,2.946a.738.738,0,0,0,1.17-.6V4.391Z" transform="translate(-173.952 -2)"/></g></g></svg>