<?xml version="1.0" encoding="UTF-8"?>
<svg id="Layer_1" data-name="Layer 1" xmlns="http://www.w3.org/2000/svg" viewBox="0 0 108.79 108.79">
  <defs>
    <style>
      .cls-1 {
        fill: #d7f4df;
      }

      .cls-1, .cls-2, .cls-3, .cls-4 {
        stroke-width: 0px;
      }

      .cls-2 {
        fill: #173303;
      }

      .cls-5 {
        isolation: isolate;
      }

      .cls-3 {
        fill: #f4f5f5;
      }

      .cls-4 {
        fill: #9fe870;
      }
    </style>
  </defs>
  <circle class="cls-3" cx="54.39" cy="54.39" r="54.39"/>
  <path class="cls-1" d="m35.62,51.99v-12.8c0-4.71,3.82-8.54,8.53-8.54h0-6.4c-4.71,0-8.54,3.82-8.54,8.53h0v12.8c0,4.71,3.82,8.53,8.53,8.53h6.4c-4.71,0-8.53-3.82-8.54-8.53Z"/>
  <g class="cls-5">
    <path class="cls-2" d="m62.5,41.32h-24.75c-1.18,0-2.13-.95-2.14-2.13,0-1.18.95-2.13,2.13-2.14h24.76c1.18,0,2.13.95,2.14,2.13,0,1.18-.95,2.13-2.13,2.14h0Z"/>
  </g>
  <g class="cls-5">
    <circle class="cls-2" cx="37.57" cy="51.92" r="2.19"/>
  </g>
  <g class="cls-5">
    <circle class="cls-2" cx="71.22" cy="68.75" r="2.19"/>
  </g>
  <path class="cls-4" d="m62.5,62.65h-24.75c-5.89,0-10.66-4.78-10.67-10.67v-12.8c0-5.89,4.78-10.67,10.67-10.67h24.75c5.89,0,10.66,4.78,10.67,10.67v12.8c0,5.89-4.78,10.67-10.67,10.67Zm-24.75-29.87c-3.53,0-6.4,2.87-6.4,6.4v12.8c0,3.53,2.87,6.4,6.4,6.4h24.75c3.53,0,6.4-2.87,6.4-6.4v-12.8c0-3.53-2.87-6.4-6.4-6.4h-24.75Z"/>
  <g class="cls-5">
    <path class="cls-4" d="m71.04,79.72h-24.75c-5.89,0-10.66-4.78-10.67-10.67,0-1.18.96-2.13,2.14-2.13,1.18,0,2.13.95,2.13,2.13,0,3.53,2.87,6.4,6.4,6.4h24.75c3.53,0,6.4-2.87,6.4-6.4v-12.8c0-.45-.05-.89-.14-1.33-.22-1.16.54-2.28,1.69-2.5,1.13-.22,2.22.5,2.48,1.62.15.72.23,1.46.23,2.2v12.8c0,5.89-4.78,10.66-10.67,10.67h0Z"/>
  </g>
</svg>