<svg xmlns="http://www.w3.org/2000/svg" xmlns:xlink="http://www.w3.org/1999/xlink" width="408.101" height="376.633" viewBox="0 0 408.101 376.633"><defs><style>.a,.b{fill:#edf3ff;}.b,.d,.f,.g,.l,.p{opacity:0.5;}.c{fill:#276cf6;}.e,.h{fill:#fff;}.e{opacity:0.05;}.f{fill:#6ed9ff;}.g{fill:#1939d1;}.i{fill:#ffcf4e;}.j{fill:#ffae1f;}.k{fill:#4dafae;}.l,.m{fill:#3f9e9a;}.n{fill:none;}.o{fill:#ffbd39;}.q{fill:#d5e1fa;}.r{clip-path:url(#a);}.s{fill:#ffd964;}.t{clip-path:url(#b);}.u{clip-path:url(#c);}.v{clip-path:url(#d);}.w{fill:#ffc5c5;}.x{fill:#fcafaf;}.y{fill:#383838;}.z{fill:#2b2b2b;}.aa{fill:#1f2123;}.ab{fill:#fe6b4d;}.ac{fill:#f4573d;}.ad{fill:#fbc6b8;}.ae{fill:#faad9b;}.af{fill:#591d1d;}.ag{fill:#e1ebff;}.ah{fill:#fcb3b3;}.ai{clip-path:url(#e);}.aj{fill:#f5f5ff;}.ak{fill:#3fc4bd;}.al{fill:#f6f9ff;}.al,.ar{font-size:15px;font-family:Metropolis-Bold, Metropolis;font-weight:700;}.am,.ar{fill:#c7d6f2;}.an{fill:#32b5b3;}.ao{fill:#efefef;}.ap{fill:#4052f2;}.aq{fill:#ff8261;}</style><clipPath id="a"><path d="M350.028,364.44v8.2c0,2.843-13.166,5.148-29.407,5.148s-29.407-2.3-29.407-5.148v-8.2Z" transform="translate(-291.215 -364.44)"/></clipPath><clipPath id="b"><path d="M353.681,356.5v8.2c0,2.843-13.166,5.148-29.406,5.148s-29.407-2.3-29.407-5.148v-8.2Z" transform="translate(-294.868 -356.495)"/></clipPath><clipPath id="c"><path d="M356.178,347.32v8.2c0,2.843-13.166,5.148-29.407,5.148s-29.407-2.3-29.407-5.148v-8.2Z" transform="translate(-297.365 -347.32)"/></clipPath><clipPath id="d"><path d="M307.674,337.875l4.706,6.717c1.631,2.328-7.829,11.771-21.13,21.09s-25.406,14.986-27.038,12.657l-4.706-6.717Z" transform="translate(-259.506 -337.875)"/></clipPath><clipPath id="e"><path d="M124.876,140.088a1.532,1.532,0,0,1-1.562-1.5l-.3-14.86a1.532,1.532,0,0,1,2.437-1.267l9.877,7.234a1.532,1.532,0,0,1,.049,2.434l-9.574,7.626A1.531,1.531,0,0,1,124.876,140.088Zm1.261-13.325.176,8.665,5.583-4.447Z" transform="translate(-123.011 -122.164)"/></clipPath></defs><g transform="translate(-50 -63.494)"><ellipse class="a" cx="204.051" cy="18.546" rx="204.051" ry="18.546" transform="translate(50 403.034)"/><path class="b" d="M423.815,236.956c-16.141,41.725-48.6,75.64-85.9,100.342-40.943,27.112-92.476,44.385-139.336,29.68-45.807-14.373-77.364-55.588-103.26-96.01-13.309-20.775-26.306-43.029-27.936-67.641-.036-.578-.067-1.148-.088-1.729-.85-22.588,18.265-40.7,40.85-39.716,42.1,1.834,84.93-14.746,118.167-41.4,22.143-17.755,41.5-40.178,67.8-50.833,41.467-16.79,92.392,2.3,118.073,38.937S439.958,195.225,423.815,236.956Z" transform="translate(2.866 0)"/><path class="c" d="M376.861,237.524V369.347a14.522,14.522,0,0,1-14.519,14.52H136.758a14.518,14.518,0,0,1-14.52-14.52V237.524A14.518,14.518,0,0,1,136.758,223H362.341A14.522,14.522,0,0,1,376.861,237.524Z" transform="translate(11.992 26.479)"/><path class="d" d="M376.9,237.524V369.347a14.522,14.522,0,0,1-14.519,14.52H136.793a14.518,14.518,0,0,1-14.52-14.52V339.921a69.034,69.034,0,0,1,49.974-6.855c8.135,2.064,15.992,5.649,24.374,6s17.863-3.838,19.921-11.967c1.285-5.069-.561-10.506.549-15.618,2.046-9.384,13.258-13.952,22.829-13.186s18.466,5.178,27.892,7.006,20.808.157,25.822-8.038c6.143-10.036-.8-22.986-8.889-31.537s-18.152-17.048-19.106-28.78A20.915,20.915,0,0,1,269.828,223h92.548A14.522,14.522,0,0,1,376.9,237.524Z" transform="translate(11.998 26.479)"/><path class="e" d="M220.8,223a30.715,30.715,0,0,1-1.877,10.808c-2.529,6.94-7.212,12.92-12.516,18.056a82.437,82.437,0,0,1-84.136,18.762V237.524A14.518,14.518,0,0,1,136.793,223Z" transform="translate(11.998 26.479)"/><circle class="f" cx="13.68" cy="13.68" r="13.68" transform="translate(165.598 259.563)"/><circle class="g" cx="13.68" cy="13.68" r="13.68" transform="translate(146.353 259.563)"/><path class="h" d="M282.415,246.368a4.541,4.541,0,0,1-1.811-1.81,6.112,6.112,0,0,1,0-5.518,4.541,4.541,0,0,1,1.811-1.81,5.323,5.323,0,0,1,2.6-.63,6.153,6.153,0,0,1,1.76.232,7.533,7.533,0,0,1,1.542.666.583.583,0,0,1,.319.551.534.534,0,0,1-.159.384.554.554,0,0,1-.42.167.569.569,0,0,1-.26-.058,6.644,6.644,0,0,0-1.246-.507,5.128,5.128,0,0,0-1.405-.174,4.125,4.125,0,0,0-2.122.515,3.3,3.3,0,0,0-1.317,1.4,4.841,4.841,0,0,0,0,4.041,3.3,3.3,0,0,0,1.317,1.4,4.125,4.125,0,0,0,2.122.514,5.15,5.15,0,0,0,1.405-.174,6.681,6.681,0,0,0,1.246-.507.624.624,0,0,1,.68.1.528.528,0,0,1,.159.391.581.581,0,0,1-.319.55,7.471,7.471,0,0,1-1.542.666,6.153,6.153,0,0,1-1.76.232A5.323,5.323,0,0,1,282.415,246.368Zm8.031.369a.629.629,0,0,1-.188-.463v-6.213a.656.656,0,0,1,.188-.471.618.618,0,0,1,.463-.2.666.666,0,0,1,.666.666v.623a2.856,2.856,0,0,1,2.274-1.361h.073a.61.61,0,0,1,.457.188.65.65,0,0,1,.181.464.584.584,0,0,1-.189.449.675.675,0,0,1-.478.174h-.072a2.472,2.472,0,0,0-1.274.34,2.934,2.934,0,0,0-.971.934v4.4a.618.618,0,0,1-.195.463.656.656,0,0,1-.471.188A.629.629,0,0,1,290.446,246.737Zm5.685-.746a3.859,3.859,0,0,1-.992-2.831,4.727,4.727,0,0,1,.376-1.9,3.23,3.23,0,0,1,1.159-1.405,3.33,3.33,0,0,1,1.926-.536,3.372,3.372,0,0,1,1.855.5,3.248,3.248,0,0,1,1.188,1.333,4.1,4.1,0,0,1,.405,1.817.633.633,0,0,1-.666.652h-4.91a2.377,2.377,0,0,0,.753,1.579,2.6,2.6,0,0,0,1.782.565,4.337,4.337,0,0,0,1.064-.116,4.414,4.414,0,0,0,.892-.334.6.6,0,0,1,.666.1.524.524,0,0,1,.173.405.626.626,0,0,1-.376.536,4.518,4.518,0,0,1-2.535.637A3.7,3.7,0,0,1,296.131,245.992Zm4.613-3.439a2.323,2.323,0,0,0-.369-1.188,1.994,1.994,0,0,0-.8-.7,2.213,2.213,0,0,0-1.941,0,1.938,1.938,0,0,0-.8.7,2.353,2.353,0,0,0-.362,1.188Zm4.4,3.99a3.461,3.461,0,0,1-1.3-1.332,4.461,4.461,0,0,1,0-4.1,3.465,3.465,0,0,1,1.3-1.332,3.4,3.4,0,0,1,1.7-.456,3.33,3.33,0,0,1,2.477,1.1v-3.548a.638.638,0,0,1,.195-.478.658.658,0,0,1,.471-.188.62.62,0,0,1,.463.2.656.656,0,0,1,.188.471v9.4a.643.643,0,0,1-.651.652.656.656,0,0,1-.471-.188.618.618,0,0,1-.195-.463V245.9a3.328,3.328,0,0,1-2.477,1.1A3.4,3.4,0,0,1,305.139,246.542Zm3.143-1.071a3.575,3.575,0,0,0,1.036-.79V241.64a3.572,3.572,0,0,0-1.036-.789,2.731,2.731,0,0,0-1.253-.3,2.277,2.277,0,0,0-1.724.681,3.174,3.174,0,0,0,0,3.852,2.275,2.275,0,0,0,1.724.681A2.738,2.738,0,0,0,308.282,245.471Zm4.744-7.727a.712.712,0,0,1-.217-.521v-.058a.743.743,0,0,1,.739-.738h.087a.743.743,0,0,1,.739.738v.058a.743.743,0,0,1-.739.739h-.087A.712.712,0,0,1,313.026,237.744Zm.087,8.994a.629.629,0,0,1-.188-.463v-6.213a.656.656,0,0,1,.188-.471.618.618,0,0,1,.463-.2.644.644,0,0,1,.666.666v6.213a.618.618,0,0,1-.195.463.656.656,0,0,1-.471.188A.629.629,0,0,1,313.112,246.737Zm3.852-1.651V240.6h-1.028a.272.272,0,0,1-.274-.275.3.3,0,0,1,.13-.246l1.97-1.927a.366.366,0,0,1,.246-.13.256.256,0,0,1,.2.087.3.3,0,0,1,.08.2v1.159h1.636a.569.569,0,0,1,.405.963.536.536,0,0,1-.405.166h-1.636v4.374q0,.564.268.717a1.352,1.352,0,0,0,.674.152,2.016,2.016,0,0,0,.578-.087l.124-.029a.774.774,0,0,1,.166-.015.513.513,0,0,1,.362.152.494.494,0,0,1,.159.369.548.548,0,0,1-.334.507,2.831,2.831,0,0,1-1.2.261Q316.964,247,316.964,245.086Zm10.985,1.282a4.541,4.541,0,0,1-1.811-1.81,6.112,6.112,0,0,1,0-5.518,4.541,4.541,0,0,1,1.811-1.81,5.323,5.323,0,0,1,2.6-.63,6.153,6.153,0,0,1,1.76.232,7.533,7.533,0,0,1,1.542.666.583.583,0,0,1,.319.551.534.534,0,0,1-.159.384.554.554,0,0,1-.42.167.569.569,0,0,1-.26-.058,6.644,6.644,0,0,0-1.246-.507,5.128,5.128,0,0,0-1.405-.174,4.125,4.125,0,0,0-2.122.515,3.3,3.3,0,0,0-1.317,1.4,4.841,4.841,0,0,0,0,4.041,3.3,3.3,0,0,0,1.317,1.4,4.125,4.125,0,0,0,2.122.514,5.15,5.15,0,0,0,1.405-.174,6.681,6.681,0,0,0,1.246-.507.624.624,0,0,1,.68.1.528.528,0,0,1,.159.391.581.581,0,0,1-.319.55,7.471,7.471,0,0,1-1.542.666,6.153,6.153,0,0,1-1.76.232A5.323,5.323,0,0,1,327.949,246.368Zm8.647.369a2.052,2.052,0,0,1-.862-.76,2.09,2.09,0,0,1-.319-1.151,2.03,2.03,0,0,1,.847-1.709,4.091,4.091,0,0,1,2.485-.638H340.5v-.116a1.762,1.762,0,0,0-.471-1.376,2.166,2.166,0,0,0-1.47-.42,4.922,4.922,0,0,0-.977.087,8.222,8.222,0,0,0-.949.261.813.813,0,0,1-.189.029.516.516,0,0,1-.377-.159.531.531,0,0,1-.158-.391.558.558,0,0,1,.376-.55,6.366,6.366,0,0,1,2.506-.522,3.272,3.272,0,0,1,1.688.405,2.558,2.558,0,0,1,1.013,1.05,3.053,3.053,0,0,1,.326,1.4v4.1a.615.615,0,0,1-.2.463.651.651,0,0,1-.47.188.643.643,0,0,1-.651-.652V245.9a3.64,3.64,0,0,1-2.724,1.1A2.683,2.683,0,0,1,336.6,246.737Zm2.9-1.209a3.419,3.419,0,0,0,1-.775v-1.217H338.92q-2.186,0-2.186,1.144a1.073,1.073,0,0,0,.354.84,1.754,1.754,0,0,0,1.181.318A2.617,2.617,0,0,0,339.5,245.528Zm4.722,1.209a.629.629,0,0,1-.188-.463v-6.213a.656.656,0,0,1,.188-.471.618.618,0,0,1,.463-.2.666.666,0,0,1,.666.666v.623a2.856,2.856,0,0,1,2.274-1.361h.073a.61.61,0,0,1,.457.188.65.65,0,0,1,.181.464.584.584,0,0,1-.189.449.675.675,0,0,1-.478.174H347.6a2.472,2.472,0,0,0-1.274.34,2.934,2.934,0,0,0-.971.934v4.4a.618.618,0,0,1-.195.463.656.656,0,0,1-.471.188A.629.629,0,0,1,344.222,246.737Zm6.5-.2a3.461,3.461,0,0,1-1.3-1.332,4.461,4.461,0,0,1,0-4.1,3.465,3.465,0,0,1,1.3-1.332,3.4,3.4,0,0,1,1.7-.456,3.33,3.33,0,0,1,2.477,1.1v-3.548a.638.638,0,0,1,.195-.478.658.658,0,0,1,.471-.188.62.62,0,0,1,.463.2.656.656,0,0,1,.188.471v9.4a.643.643,0,0,1-.651.652.656.656,0,0,1-.471-.188.618.618,0,0,1-.195-.463V245.9a3.328,3.328,0,0,1-2.477,1.1A3.4,3.4,0,0,1,350.717,246.542Zm3.143-1.071a3.575,3.575,0,0,0,1.036-.79V241.64a3.572,3.572,0,0,0-1.036-.789,2.731,2.731,0,0,0-1.253-.3,2.277,2.277,0,0,0-1.724.681,3.174,3.174,0,0,0,0,3.852,2.275,2.275,0,0,0,1.724.681A2.738,2.738,0,0,0,353.86,245.471ZM140.713,331.861a7.656,7.656,0,0,1,0-7.589,3.726,3.726,0,0,1,5.83,0,7.611,7.611,0,0,1,0,7.589,3.727,3.727,0,0,1-5.83,0Zm4.852-.869a6.663,6.663,0,0,0,0-5.836,2.3,2.3,0,0,0-3.867,0,6.653,6.653,0,0,0,0,5.836,2.3,2.3,0,0,0,3.867,0Zm4.744,1.956a.589.589,0,0,1-.174-.434.613.613,0,0,1,.174-.442.577.577,0,0,1,.434-.181h1.724v-7.343l-1.477.724a.9.9,0,0,1-.334.087.6.6,0,0,1-.623-.623.623.623,0,0,1,.377-.594l1.97-1.028a.893.893,0,0,1,.405-.1h.3a.692.692,0,0,1,.695.7v8.183h1.435a.618.618,0,0,1,.623.623.578.578,0,0,1-.181.434.618.618,0,0,1-.442.174h-4.476A.591.591,0,0,1,150.309,332.948Zm8.124-.036a.718.718,0,0,1-.217-.543,2.389,2.389,0,0,1,.442-1.39,5,5,0,0,1,1.071-1.122q.63-.485,1.658-1.152.883-.564,1.405-.956a4.288,4.288,0,0,0,.869-.855,1.61,1.61,0,0,0,.348-.985,1.67,1.67,0,0,0-.543-1.311,2.583,2.583,0,0,0-1.746-.485,6.027,6.027,0,0,0-2.477.522.618.618,0,0,1-.276.072.529.529,0,0,1-.391-.159.546.546,0,0,1-.159-.405.57.57,0,0,1,.319-.536,7.087,7.087,0,0,1,3.214-.739,3.814,3.814,0,0,1,1.688.37,2.965,2.965,0,0,1,1.2,1.036,2.719,2.719,0,0,1,.442,1.535,2.752,2.752,0,0,1-.5,1.586,5.793,5.793,0,0,1-1.194,1.282q-.7.551-1.81,1.275-1.015.681-1.528,1.094a2.464,2.464,0,0,0-.717.847h5.041a.618.618,0,0,1,.623.623.582.582,0,0,1-.181.434.618.618,0,0,1-.442.174h-5.591A.758.758,0,0,1,158.433,332.911Zm9.167-.224a.642.642,0,0,1-.276-.21.56.56,0,0,1-.1-.34.608.608,0,0,1,.167-.427.536.536,0,0,1,.412-.181.75.75,0,0,1,.276.057,6.1,6.1,0,0,0,2.3.42,4.412,4.412,0,0,0,1.905-.369,1.274,1.274,0,0,0,.774-1.239q0-1.824-3.2-1.825h-.231a.608.608,0,0,1,0-1.217h.087a4.5,4.5,0,0,0,2.216-.442,1.421,1.421,0,0,0,.767-1.311,1.275,1.275,0,0,0-.578-1.1,2.981,2.981,0,0,0-1.709-.405,5.257,5.257,0,0,0-2.245.478.71.71,0,0,1-.261.058.525.525,0,0,1-.376-.152.505.505,0,0,1-.159-.384.524.524,0,0,1,.289-.492,6.041,6.041,0,0,1,2.867-.739,4.247,4.247,0,0,1,2.579.681,2.262,2.262,0,0,1,.912,1.926,2.3,2.3,0,0,1-.5,1.571,2.992,2.992,0,0,1-1.253.848,3.156,3.156,0,0,1,1.47.789,2.331,2.331,0,0,1,.644,1.789,2.371,2.371,0,0,1-1.05,2.064,4.627,4.627,0,0,1-2.7.731A7.936,7.936,0,0,1,167.6,332.687Zm-27.547,28.419a.63.63,0,0,1-.188-.463V352a.93.93,0,0,1,.274-.673.9.9,0,0,1,.667-.283H141a.98.98,0,0,1,.8.435l5.576,8.053v-7.821a.657.657,0,0,1,.189-.471.618.618,0,0,1,.463-.2.669.669,0,0,1,.666.667v8.647a.9.9,0,0,1-.282.666.933.933,0,0,1-.674.275h-.173a.9.9,0,0,1-.435-.109.986.986,0,0,1-.332-.282l-5.606-8.1v7.835a.618.618,0,0,1-.195.463.656.656,0,0,1-.471.188A.629.629,0,0,1,140.054,361.106Zm11.884,0a2.052,2.052,0,0,1-.862-.76,2.09,2.09,0,0,1-.319-1.151,2.03,2.03,0,0,1,.847-1.709,4.091,4.091,0,0,1,2.485-.638h1.752v-.116a1.762,1.762,0,0,0-.471-1.376,2.166,2.166,0,0,0-1.47-.42,4.922,4.922,0,0,0-.977.087,8.216,8.216,0,0,0-.949.261.814.814,0,0,1-.189.029.516.516,0,0,1-.377-.159.531.531,0,0,1-.158-.391.558.558,0,0,1,.376-.55,6.366,6.366,0,0,1,2.506-.522,3.272,3.272,0,0,1,1.688.405,2.558,2.558,0,0,1,1.013,1.05,3.052,3.052,0,0,1,.326,1.4v4.1a.615.615,0,0,1-.2.463.652.652,0,0,1-.47.188.643.643,0,0,1-.651-.652v-.376a3.64,3.64,0,0,1-2.724,1.1A2.684,2.684,0,0,1,151.938,361.106Zm2.9-1.209a3.419,3.419,0,0,0,1-.775v-1.217h-1.579q-2.186,0-2.186,1.144a1.073,1.073,0,0,0,.354.84,1.754,1.754,0,0,0,1.181.318A2.617,2.617,0,0,0,154.842,359.9Zm4.721,1.209a.629.629,0,0,1-.188-.463v-6.213a.656.656,0,0,1,.188-.471.618.618,0,0,1,.463-.2.666.666,0,0,1,.666.666v.594a3.621,3.621,0,0,1,.978-.956,2.654,2.654,0,0,1,1.485-.376,2.254,2.254,0,0,1,1.39.434,2.434,2.434,0,0,1,.826,1.057,2.915,2.915,0,0,1,2.665-1.492,2.2,2.2,0,0,1,1.354.405,2.416,2.416,0,0,1,.8,1.043,3.476,3.476,0,0,1,.261,1.332v4.171a.615.615,0,0,1-.2.463.652.652,0,0,1-.47.188.643.643,0,0,1-.651-.652v-3.91a2.305,2.305,0,0,0-.334-1.383,1.344,1.344,0,0,0-1.144-.442,1.911,1.911,0,0,0-1.223.384,3.685,3.685,0,0,0-.862,1.007v4.345a.615.615,0,0,1-.2.463.652.652,0,0,1-.47.188.645.645,0,0,1-.652-.652v-3.91a2.306,2.306,0,0,0-.333-1.383,1.344,1.344,0,0,0-1.144-.442,1.912,1.912,0,0,0-1.224.384,3.725,3.725,0,0,0-.862,1.007v4.345a.618.618,0,0,1-.195.463.656.656,0,0,1-.471.188A.629.629,0,0,1,159.563,361.106Zm13.65-.746a3.859,3.859,0,0,1-.992-2.831,4.727,4.727,0,0,1,.376-1.9,3.231,3.231,0,0,1,1.159-1.405,3.33,3.33,0,0,1,1.925-.536,3.372,3.372,0,0,1,1.855.5,3.248,3.248,0,0,1,1.188,1.333,4.1,4.1,0,0,1,.405,1.817.633.633,0,0,1-.666.652h-4.91a2.377,2.377,0,0,0,.753,1.579,2.6,2.6,0,0,0,1.782.565,4.336,4.336,0,0,0,1.064-.116,4.414,4.414,0,0,0,.892-.334.6.6,0,0,1,.666.1.524.524,0,0,1,.173.405.626.626,0,0,1-.376.536,4.518,4.518,0,0,1-2.535.637A3.7,3.7,0,0,1,173.213,360.36Zm4.613-3.439a2.323,2.323,0,0,0-.369-1.188,1.994,1.994,0,0,0-.8-.7,2.212,2.212,0,0,0-1.941,0,1.937,1.937,0,0,0-.8.7,2.353,2.353,0,0,0-.362,1.188Zm7.256,4.185a.629.629,0,0,1-.188-.463v-8.936a.656.656,0,0,1,.188-.471.618.618,0,0,1,.463-.2.667.667,0,0,1,.666.667v3.852h5.49v-3.852a.656.656,0,0,1,.188-.471.618.618,0,0,1,.463-.2.667.667,0,0,1,.666.667v8.936a.618.618,0,0,1-.195.463.656.656,0,0,1-.471.188.643.643,0,0,1-.651-.652V356.79h-5.49v3.852a.618.618,0,0,1-.195.463.656.656,0,0,1-.471.188A.629.629,0,0,1,185.082,361.106Zm10.827-.746a3.859,3.859,0,0,1-.992-2.831,4.727,4.727,0,0,1,.376-1.9,3.231,3.231,0,0,1,1.159-1.405,3.33,3.33,0,0,1,1.925-.536,3.372,3.372,0,0,1,1.855.5,3.248,3.248,0,0,1,1.188,1.333,4.1,4.1,0,0,1,.405,1.817.633.633,0,0,1-.666.652h-4.91a2.377,2.377,0,0,0,.753,1.579,2.6,2.6,0,0,0,1.782.565,4.336,4.336,0,0,0,1.064-.116,4.413,4.413,0,0,0,.892-.334.6.6,0,0,1,.666.1.524.524,0,0,1,.173.405.626.626,0,0,1-.376.536,4.518,4.518,0,0,1-2.535.637A3.7,3.7,0,0,1,195.908,360.36Zm4.613-3.439a2.323,2.323,0,0,0-.369-1.188,1.994,1.994,0,0,0-.8-.7,2.212,2.212,0,0,0-1.941,0,1.937,1.937,0,0,0-.8.7,2.353,2.353,0,0,0-.362,1.188Zm3.23,4.185a.629.629,0,0,1-.188-.463v-6.213a.656.656,0,0,1,.188-.471.618.618,0,0,1,.463-.2.666.666,0,0,1,.666.666v.623a2.856,2.856,0,0,1,2.274-1.361h.073a.61.61,0,0,1,.457.188.65.65,0,0,1,.181.464.584.584,0,0,1-.189.449.675.675,0,0,1-.478.174h-.072a2.472,2.472,0,0,0-1.274.34,2.935,2.935,0,0,0-.971.934v4.4a.618.618,0,0,1-.195.463.656.656,0,0,1-.471.188A.629.629,0,0,1,203.752,361.106Zm5.684-.746a3.859,3.859,0,0,1-.992-2.831,4.727,4.727,0,0,1,.376-1.9,3.23,3.23,0,0,1,1.159-1.405,3.33,3.33,0,0,1,1.926-.536,3.372,3.372,0,0,1,1.855.5,3.248,3.248,0,0,1,1.188,1.333,4.1,4.1,0,0,1,.405,1.817.633.633,0,0,1-.666.652h-4.91a2.377,2.377,0,0,0,.753,1.579,2.6,2.6,0,0,0,1.782.565,4.336,4.336,0,0,0,1.064-.116,4.413,4.413,0,0,0,.892-.334.6.6,0,0,1,.666.1.524.524,0,0,1,.173.405.626.626,0,0,1-.376.536,4.518,4.518,0,0,1-2.535.637A3.7,3.7,0,0,1,209.436,360.36Zm4.613-3.439a2.323,2.323,0,0,0-.369-1.188,1.994,1.994,0,0,0-.8-.7,2.212,2.212,0,0,0-1.941,0,1.937,1.937,0,0,0-.8.7,2.353,2.353,0,0,0-.362,1.188Z" transform="translate(14.892 28.671)"/><g transform="translate(326.919 370.668)"><path class="h" d="M288.142,333.248a4.93,4.93,0,0,1,0-4.886,2.4,2.4,0,0,1,3.753,0,4.9,4.9,0,0,1,0,4.886,2.4,2.4,0,0,1-3.753,0Zm3.123-.559a4.286,4.286,0,0,0,0-3.758,1.479,1.479,0,0,0-2.489,0,4.287,4.287,0,0,0,0,3.758,1.479,1.479,0,0,0,2.489,0Zm3.529,1.3a.405.405,0,0,1-.121-.3.493.493,0,0,1,.056-.224l2.564-5.1h-3.385a.4.4,0,0,1-.4-.4.4.4,0,0,1,.117-.289.379.379,0,0,1,.284-.121h3.8a.524.524,0,0,1,.373.139.467.467,0,0,1,.149.355.976.976,0,0,1-.093.41l-2.647,5.417a.431.431,0,0,1-.169.168.453.453,0,0,1-.233.065A.407.407,0,0,1,294.794,333.985Zm4.285.848a.375.375,0,0,1-.107-.27.441.441,0,0,1,.028-.139l2.471-7.227a.389.389,0,0,1,.13-.186.361.361,0,0,1,.233-.075.366.366,0,0,1,.276.112.381.381,0,0,1,.107.27.441.441,0,0,1-.028.14l-2.471,7.226a.4.4,0,0,1-.13.187.4.4,0,0,1-.509-.038Zm4.322-.909a.465.465,0,0,1-.14-.35,1.536,1.536,0,0,1,.285-.895,3.24,3.24,0,0,1,.69-.723q.4-.313,1.068-.741.569-.364.9-.615a2.789,2.789,0,0,0,.559-.55,1.041,1.041,0,0,0,.224-.634,1.078,1.078,0,0,0-.35-.844,1.663,1.663,0,0,0-1.124-.313,3.882,3.882,0,0,0-1.594.336.4.4,0,0,1-.178.047.343.343,0,0,1-.252-.1.354.354,0,0,1-.1-.261.368.368,0,0,1,.2-.345,4.563,4.563,0,0,1,2.07-.475,2.459,2.459,0,0,1,1.086.237,1.912,1.912,0,0,1,.774.667,1.752,1.752,0,0,1,.284.988,1.776,1.776,0,0,1-.321,1.021,3.757,3.757,0,0,1-.77.825q-.447.354-1.165.82c-.435.293-.764.527-.984.7a1.589,1.589,0,0,0-.462.545h3.245a.4.4,0,0,1,.4.4.372.372,0,0,1-.116.28.4.4,0,0,1-.285.112h-3.6A.49.49,0,0,1,303.4,333.924Zm6.158-.676a4.93,4.93,0,0,1,0-4.886,2.4,2.4,0,0,1,3.753,0,4.9,4.9,0,0,1,0,4.886,2.4,2.4,0,0,1-3.753,0Zm3.123-.559a4.286,4.286,0,0,0,0-3.758,1.479,1.479,0,0,0-2.489,0,4.286,4.286,0,0,0,0,3.758,1.479,1.479,0,0,0,2.489,0Z" transform="translate(-287.494 -326.936)"/></g><g transform="translate(208.953 351.538)"><path class="h" d="M191.768,320.668a.629.629,0,0,1-.188-.463v-1.969h-4.417a.822.822,0,0,1-.594-.239.786.786,0,0,1-.246-.586v-.13a.808.808,0,0,1,.174-.522l4.548-5.808a.808.808,0,0,1,.311-.253.938.938,0,0,1,.412-.095h.29a.81.81,0,0,1,.608.239.828.828,0,0,1,.232.6v5.619H194a.594.594,0,0,1,.594.594.547.547,0,0,1-.174.413.586.586,0,0,1-.42.167h-1.1V320.2a.619.619,0,0,1-.2.463.655.655,0,0,1-.47.188A.631.631,0,0,1,191.768,320.668Zm-4.04-3.606h3.852v-4.967Zm8.545,3.027a.831.831,0,0,1-.216-.21.554.554,0,0,1-.073-.311.648.648,0,0,1,.159-.442.532.532,0,0,1,.42-.181.678.678,0,0,1,.3.072,4.884,4.884,0,0,0,2.317.609,3.911,3.911,0,0,0,2.1-.463,1.729,1.729,0,0,0,.724-1.579,1.782,1.782,0,0,0-.6-1.419,2.42,2.42,0,0,0-1.643-.522,4.229,4.229,0,0,0-2.231.623c-.019.01-.075.041-.166.094a.669.669,0,0,1-.34.08,1.018,1.018,0,0,1-.681-.232.757.757,0,0,1-.276-.608,2.111,2.111,0,0,1,.03-.348l.651-3.852a.849.849,0,0,1,.254-.529.725.725,0,0,1,.514-.2h4.649a.618.618,0,0,1,.623.623.578.578,0,0,1-.181.434.615.615,0,0,1-.442.174h-4.2l-.463,3.07a5.072,5.072,0,0,1,2.447-.594,3.734,3.734,0,0,1,1.832.42,2.8,2.8,0,0,1,1.151,1.159,3.567,3.567,0,0,1,.392,1.694,3.044,3.044,0,0,1-1,2.368,4.288,4.288,0,0,1-2.969.905A5.616,5.616,0,0,1,196.273,320.089Zm8.733-4.345a7.4,7.4,0,0,1,.413-2.448,4.429,4.429,0,0,1,1.354-1.977,3.661,3.661,0,0,1,2.433-.79,5.186,5.186,0,0,1,1.42.174,6.225,6.225,0,0,1,1.143.449.625.625,0,0,1,.305.522.592.592,0,0,1-.167.413.553.553,0,0,1-.427.181.7.7,0,0,1-.246-.043,4.491,4.491,0,0,0-1.927-.42,2.442,2.442,0,0,0-2.3,1.144,5.574,5.574,0,0,0-.739,2.563,3.35,3.35,0,0,1,1.159-.912,4.03,4.03,0,0,1,1.811-.362,3.468,3.468,0,0,1,1.73.42,2.971,2.971,0,0,1,1.166,1.188,3.684,3.684,0,0,1,.42,1.8,3.275,3.275,0,0,1-.434,1.665,3.084,3.084,0,0,1-1.246,1.188,3.957,3.957,0,0,1-1.9.434Q205.005,320.928,205.005,315.743Zm5.164,3.672a2,2,0,0,0,.789-.761,2.054,2.054,0,0,0,.276-1.042,2.228,2.228,0,0,0-.551-1.579,2.084,2.084,0,0,0-1.607-.594,2.884,2.884,0,0,0-2.737,1.593q.391,2.665,2.65,2.665A2.412,2.412,0,0,0,210.169,319.415Zm5.945,1.253a.629.629,0,0,1-.188-.463.783.783,0,0,1,.087-.347L220,311.935h-5.257a.618.618,0,0,1-.623-.623.627.627,0,0,1,.181-.449.59.59,0,0,1,.442-.188h5.91a.812.812,0,0,1,.578.217.722.722,0,0,1,.232.551,1.542,1.542,0,0,1-.145.637l-4.114,8.415a.663.663,0,0,1-.261.261.7.7,0,0,1-.362.1A.63.63,0,0,1,216.114,320.668Z" transform="translate(-186.323 -310.529)"/></g><g transform="translate(263.887 351.538)"><path class="h" d="M235.079,320.509a2.912,2.912,0,0,1-1.253-1.057,2.533,2.533,0,0,1-.391-1.347,2.744,2.744,0,0,1,2.158-2.737,2.634,2.634,0,0,1-1.209-.8,2.089,2.089,0,0,1-.47-1.4,2.5,2.5,0,0,1,.339-1.231,2.591,2.591,0,0,1,1.1-1.007,4.961,4.961,0,0,1,3.9,0,2.581,2.581,0,0,1,1.1,1.007,2.5,2.5,0,0,1,.34,1.231,2.1,2.1,0,0,1-.47,1.4,2.64,2.64,0,0,1-1.209.8,2.745,2.745,0,0,1,2.158,2.737,2.534,2.534,0,0,1-.391,1.347,2.909,2.909,0,0,1-1.254,1.057,6.1,6.1,0,0,1-4.447,0Zm3.694-1.036a2.012,2.012,0,0,0,.826-.717,1.557,1.557,0,0,0,.254-.8,1.658,1.658,0,0,0-.739-1.441,3.445,3.445,0,0,0-3.621,0,1.658,1.658,0,0,0-.739,1.441,1.546,1.546,0,0,0,.254.8,2,2,0,0,0,.826.717,3.791,3.791,0,0,0,2.94,0Zm.1-5.134a1.467,1.467,0,0,0,.5-1.086,1.4,1.4,0,0,0-.528-1.123,2.915,2.915,0,0,0-3.086,0,1.4,1.4,0,0,0-.528,1.123,1.467,1.467,0,0,0,.5,1.086,2.823,2.823,0,0,0,3.143,0Zm5.6,6.416a6.266,6.266,0,0,1-1.144-.449.627.627,0,0,1-.3-.522.591.591,0,0,1,.167-.413.552.552,0,0,1,.427-.181.7.7,0,0,1,.246.043,4.488,4.488,0,0,0,1.927.42,2.442,2.442,0,0,0,2.3-1.144,5.588,5.588,0,0,0,.739-2.564,3.366,3.366,0,0,1-1.159.913,4.031,4.031,0,0,1-1.81.362,3.469,3.469,0,0,1-1.731-.42,2.964,2.964,0,0,1-1.166-1.188,3.68,3.68,0,0,1-.419-1.8,3.277,3.277,0,0,1,.434-1.666,3.088,3.088,0,0,1,1.246-1.188,3.964,3.964,0,0,1,1.9-.434q3.969,0,3.968,5.185a7.4,7.4,0,0,1-.412,2.448,4.429,4.429,0,0,1-1.354,1.977,3.659,3.659,0,0,1-2.433.789A5.182,5.182,0,0,1,244.472,320.755Zm4.287-6.329q-.391-2.665-2.65-2.665a2.409,2.409,0,0,0-1.181.282,1.994,1.994,0,0,0-.789.76,2.044,2.044,0,0,0-.276,1.043,2.232,2.232,0,0,0,.55,1.579,2.085,2.085,0,0,0,1.608.594A2.884,2.884,0,0,0,248.759,314.425Zm5.053,6.242a.629.629,0,0,1-.188-.463.783.783,0,0,1,.087-.347l3.983-7.922h-5.257a.618.618,0,0,1-.623-.623.627.627,0,0,1,.181-.449.59.59,0,0,1,.442-.188h5.91a.812.812,0,0,1,.578.217.722.722,0,0,1,.232.551,1.542,1.542,0,0,1-.145.637l-4.114,8.415a.663.663,0,0,1-.261.261.7.7,0,0,1-.362.1A.63.63,0,0,1,253.813,320.668Zm7.858-1.144a7.656,7.656,0,0,1,0-7.589,3.726,3.726,0,0,1,5.83,0,7.611,7.611,0,0,1,0,7.589,3.727,3.727,0,0,1-5.83,0Zm4.852-.869a6.663,6.663,0,0,0,0-5.836,2.3,2.3,0,0,0-3.867,0,6.653,6.653,0,0,0,0,5.836,2.3,2.3,0,0,0,3.867,0Z" transform="translate(-233.436 -310.529)"/></g><g transform="translate(318.449 351.538)"><path class="h" d="M281.237,319.524a7.656,7.656,0,0,1,0-7.589,3.726,3.726,0,0,1,5.83,0,7.611,7.611,0,0,1,0,7.589,3.727,3.727,0,0,1-5.83,0Zm4.852-.869a6.663,6.663,0,0,0,0-5.836,2.3,2.3,0,0,0-3.867,0,6.653,6.653,0,0,0,0,5.836,2.3,2.3,0,0,0,3.867,0Zm3.845,1.695a.643.643,0,0,1-.276-.21.56.56,0,0,1-.1-.34.608.608,0,0,1,.167-.427.536.536,0,0,1,.412-.181.749.749,0,0,1,.276.057,6.1,6.1,0,0,0,2.3.42,4.412,4.412,0,0,0,1.9-.369,1.274,1.274,0,0,0,.774-1.239q0-1.824-3.2-1.825h-.231a.608.608,0,0,1,0-1.217h.087a4.5,4.5,0,0,0,2.216-.442,1.421,1.421,0,0,0,.767-1.311,1.275,1.275,0,0,0-.578-1.1,2.98,2.98,0,0,0-1.709-.405,5.257,5.257,0,0,0-2.245.478.71.71,0,0,1-.261.058.525.525,0,0,1-.376-.152.505.505,0,0,1-.159-.384.524.524,0,0,1,.289-.492,6.041,6.041,0,0,1,2.867-.739,4.247,4.247,0,0,1,2.579.681,2.262,2.262,0,0,1,.912,1.926,2.3,2.3,0,0,1-.5,1.571,2.992,2.992,0,0,1-1.253.848,3.156,3.156,0,0,1,1.47.789,2.331,2.331,0,0,1,.644,1.789,2.371,2.371,0,0,1-1.05,2.064,4.627,4.627,0,0,1-2.7.731A7.936,7.936,0,0,1,289.934,320.349Zm9.023.224a.718.718,0,0,1-.217-.543,2.389,2.389,0,0,1,.442-1.39,5,5,0,0,1,1.072-1.122q.63-.485,1.658-1.152.883-.564,1.405-.956a4.289,4.289,0,0,0,.869-.855,1.61,1.61,0,0,0,.348-.985,1.67,1.67,0,0,0-.543-1.311,2.583,2.583,0,0,0-1.746-.485,6.027,6.027,0,0,0-2.477.522.618.618,0,0,1-.276.072.529.529,0,0,1-.391-.159.546.546,0,0,1-.159-.405.57.57,0,0,1,.319-.536,7.087,7.087,0,0,1,3.214-.739,3.814,3.814,0,0,1,1.688.37,2.965,2.965,0,0,1,1.2,1.036,2.719,2.719,0,0,1,.442,1.535,2.752,2.752,0,0,1-.5,1.586,5.793,5.793,0,0,1-1.194,1.282q-.7.551-1.81,1.275-1.015.681-1.528,1.094a2.464,2.464,0,0,0-.717.847H305.1a.618.618,0,0,1,.623.623.582.582,0,0,1-.181.434.618.618,0,0,1-.442.174h-5.591A.758.758,0,0,1,298.957,320.574Zm13.744.094a.629.629,0,0,1-.188-.463v-1.969H308.1A.822.822,0,0,1,307.5,318a.786.786,0,0,1-.246-.586v-.13a.808.808,0,0,1,.174-.522l4.548-5.808a.808.808,0,0,1,.311-.253.938.938,0,0,1,.412-.095h.29a.81.81,0,0,1,.608.239.828.828,0,0,1,.232.6v5.619h1.1a.594.594,0,0,1,.594.594.547.547,0,0,1-.174.413.586.586,0,0,1-.42.167h-1.1V320.2a.619.619,0,0,1-.2.463.655.655,0,0,1-.47.188A.631.631,0,0,1,312.7,320.668Zm-4.04-3.606h3.852v-4.967Z" transform="translate(-280.23 -310.529)"/></g><g transform="translate(155.428 306.975)"><path class="i" d="M176.983,281.2l-.012,11.858a8.787,8.787,0,0,1-.459,2.8,8.674,8.674,0,0,1-.869,1.853,8.838,8.838,0,0,1-7.537,4.194l-18.834-.018a8.852,8.852,0,0,1-7.537-4.212,8.372,8.372,0,0,1-.863-1.853,8.783,8.783,0,0,1-.453-2.8l.012-11.858a8.785,8.785,0,0,1,.459-2.8,9.1,9.1,0,0,1,.863-1.853,8.878,8.878,0,0,1,7.549-4.2l18.834.024a8.836,8.836,0,0,1,7.531,4.212,8.369,8.369,0,0,1,.863,1.853A8.781,8.781,0,0,1,176.983,281.2Z" transform="translate(-140.419 -272.311)"/><path class="j" d="M162.161,290.01,155.2,290l.007-6.957,6.957.007Zm14.822-2.534v-1.853l-12.081-.012.006-4.019,3.8-3.8,7.821.006a8.369,8.369,0,0,0-.863-1.853l-7.718-.006-4.387,4.375-9.7-.006-4.381-4.387-7.724-.012a9.1,9.1,0,0,0-.863,1.853l7.821.006,3.76,3.772V285.6l-12.051-.012v1.853l12.045.012v4.019l-3.772,3.76-7.821-.006a8.372,8.372,0,0,0,.863,1.853l7.724.006,4.351-4.339,9.776.012,4.339,4.345,7.718.012a8.675,8.675,0,0,0,.869-1.853l-7.821-.006-3.8-3.808.006-3.983Z" transform="translate(-140.419 -271.713)"/></g><g transform="translate(54.303 281.007)"><path class="k" d="M91.837,289.211c-.494,2.817-1.341,5.708-3.5,7.663a6.506,6.506,0,0,1-2.951,1.513c-3.318.727-5-1.333-6.442-3.333a74.06,74.06,0,0,1-6.981-11.933,75.406,75.406,0,0,1-6.277-20.5c-.464-2.966-.719-6.127.547-8.846a6.461,6.461,0,0,1,2.674-2.832,7.345,7.345,0,0,1,5.191-.719,17.722,17.722,0,0,1,6.255,2.427,19.511,19.511,0,0,1,4.742,5.139c.1.142.195.285.292.435A43.191,43.191,0,0,1,91.837,289.211Zm19.926,42.683a30.944,30.944,0,0,1-11.4,15.7,8.4,8.4,0,0,1-3.993,1.79c-4.659.442-4.577-5.813-4.472-9a26,26,0,0,1,3.326-11.768,23.94,23.94,0,0,1,4.232-5.454,13.036,13.036,0,0,1,4.345-2.936,6.711,6.711,0,0,1,5.139.045,6.4,6.4,0,0,1,3.169,3.678,7.511,7.511,0,0,1,.4,1.5A14.131,14.131,0,0,1,111.762,331.894Z" transform="translate(-51.763 -250.04)"/><path class="l" d="M107.981,321.371a30.944,30.944,0,0,1-11.4,15.7,8.4,8.4,0,0,1-3.993,1.79c-4.659.442-4.577-5.813-4.472-9a25.368,25.368,0,0,1,.846-5.663,12.83,12.83,0,0,0,1.086,4.352,5.589,5.589,0,0,0,4.772,3.371c1.9-.03,3.521-1.356,4.847-2.719a34.076,34.076,0,0,0,8.659-15.776,7.511,7.511,0,0,1,.4,1.5A14.131,14.131,0,0,1,107.981,321.371Z" transform="translate(-47.981 -239.516)"/><path class="k" d="M80.154,341.774a.9.9,0,0,1,0,.142,6.063,6.063,0,0,1-1.191,3.933c-1.588,1.978-4.584,2.375-6.974,1.521a14.626,14.626,0,0,1-5.933-4.629A47.106,47.106,0,0,1,58.618,330.9a13,13,0,0,1-1.416-6.158,6.757,6.757,0,0,1,1.618-3.768,3.494,3.494,0,0,1,2.42-1.251c2.532-.1,5.184,1.648,7.071,3.124a34.046,34.046,0,0,1,10.854,14.727A13.39,13.39,0,0,1,80.154,341.774Zm46.615-45.964a37.535,37.535,0,0,1-25.394,11.206,8.066,8.066,0,0,1-3.753-.7c-1.633-.8-2.547-2.322-1.7-4.682a37.451,37.451,0,0,1,7.738-12.45,25.654,25.654,0,0,1,15.087-8.263,13.2,13.2,0,0,1,7.438.922c.24.12.479.247.712.382a7.494,7.494,0,0,1,3.708,5.4C130.942,290.724,128.942,293.578,126.769,295.81ZM73.952,310.238a28.27,28.27,0,0,1-17.993-10.607c-1.431-1.858-2.674-4.165-2.142-6.449a4.5,4.5,0,0,1,.419-1.124,5.242,5.242,0,0,1,.644-.959.333.333,0,0,1,.045-.052,6.3,6.3,0,0,1,2.7-1.805,9.968,9.968,0,0,1,5.641-.03,19.274,19.274,0,0,1,10.547,7.5,28.4,28.4,0,0,1,4.465,9.1c.09.292.165.592.232.884C79.2,309.713,76.551,310.627,73.952,310.238Z" transform="translate(-53.691 -244.938)"/><path class="l" d="M73.952,308.777A28.27,28.27,0,0,1,55.959,298.17c-1.431-1.858-2.674-4.165-2.142-6.449a4.5,4.5,0,0,1,.419-1.124l.644-.959.045-.067v.015A15.759,15.759,0,0,0,62.4,300.769a24.7,24.7,0,0,0,13.319,3.393,10.005,10.005,0,0,1,2.554.187c.09.292.165.592.232.884C79.2,308.253,76.551,309.167,73.952,308.777Z" transform="translate(-53.691 -243.477)"/><path class="m" d="M88.4,365.755a.753.753,0,0,1-.753-.727A82.852,82.852,0,0,1,104.058,312.6a.754.754,0,0,1,1.207.9,81.34,81.34,0,0,0-16.108,51.475.754.754,0,0,1-.725.78Z" transform="translate(-48.062 -239.705)"/><path class="m" d="M88.083,372.107a.755.755,0,0,1-.693-1.05c2.534-5.933,3.64-13.036,3.484-22.353-.052-3.2-.237-6.458-.414-9.609-.249-4.422-.508-8.994-.412-13.51.2-9.259,1.941-16.658,5.334-22.62,4.218-7.418,11.4-12.483,18.738-13.219a.754.754,0,0,1,.15,1.5c-6.862.688-13.6,5.464-17.579,12.464-3.265,5.739-4.944,12.9-5.135,21.907-.1,4.458.162,9,.409,13.393.179,3.165.364,6.439.418,9.668.159,9.536-.986,16.835-3.605,22.97A.755.755,0,0,1,88.083,372.107Zm-5.055-3.212a.765.765,0,0,1-.231-.036.754.754,0,0,1-.486-.948c1.664-5.175.129-10.665-1.89-16.789-1.153-3.5-2.347-7.128-4.6-10.071a33.629,33.629,0,0,0-2.876-3.156,23.121,23.121,0,0,1-5.635-7.8c-.487-.971-.991-1.974-1.558-2.9-1.077-1.762-2.893-3.954-5.422-4.39a.753.753,0,1,1,.255-1.485c3.086.531,5.213,3.061,6.454,5.089.6.981,1.117,2.013,1.618,3.012a29.128,29.128,0,0,0,2.146,3.8,29.083,29.083,0,0,0,3.211,3.611,34.808,34.808,0,0,1,3,3.3c2.406,3.146,3.695,7.061,4.834,10.515,1.621,4.92,3.842,11.658,1.892,17.722A.754.754,0,0,1,83.028,368.894Z" transform="translate(-52.693 -243.449)"/><path class="m" d="M87.082,377.418h0a.754.754,0,0,1-.754-.754,372.171,372.171,0,0,0-2.84-46c-.875-7.032-2-14.451-5.217-21.067a36.371,36.371,0,0,0-20.377-18.222.753.753,0,1,1,.5-1.42,37.89,37.89,0,0,1,21.228,18.983c3.32,6.824,4.468,14.383,5.359,21.541a373.836,373.836,0,0,1,2.851,46.186A.754.754,0,0,1,87.082,377.418Z" transform="translate(-53.076 -243.421)"/><path class="n" d="M79.17,262.649l-.225-.225" transform="translate(-49.498 -247.984)"/><path class="k" d="M104.9,267.649a.075.075,0,0,0,0-.151.075.075,0,0,0,0,.151Z" transform="translate(-45.202 -247.141)"/><path class="m" d="M89.358,391.774a.752.752,0,0,1-.75-.7l-5.788-88.816c-.57-8.75-1.159-17.8-3.09-26.494-1.994-8.973-5.241-15.241-9.928-19.162a.754.754,0,1,1,.968-1.156c4.951,4.142,8.364,10.681,10.431,19.991,1.956,8.809,2.549,17.916,3.122,26.723l5.788,88.816a.753.753,0,0,1-.7.8Z" transform="translate(-51.061 -249.172)"/><path class="i" d="M99.276,375.333c-13.573,3.311-27.147,0-27.147,0-.554-.637-1.056-1.274-1.521-1.9-7.363-9.933-3.483-17.925-1.041-21.342a13.4,13.4,0,0,1,1.5-1.79h28.21C110.8,361.954,99.276,375.333,99.276,375.333Z" transform="translate(-51.591 -233.395)"/><path class="o" d="M98.816,375.333c-13.573,3.311-27.147,0-27.147,0-.554-.637-1.056-1.274-1.521-1.9a112.4,112.4,0,0,0,15.806-3.978c3.663-1.206,7.79-3.2,8.495-6.989a7.413,7.413,0,0,0-2.832-6.794,16.381,16.381,0,0,0-7.011-3.034,42.3,42.3,0,0,0-15.5-.547,13.4,13.4,0,0,1,1.5-1.79h28.21C110.337,361.954,98.816,375.333,98.816,375.333Z" transform="translate(-51.131 -233.395)"/><path class="j" d="M99.211,350.763H70.631a1.605,1.605,0,0,1-1.605-1.605h0a1.605,1.605,0,0,1,1.605-1.605H99.211a1.605,1.605,0,0,1,1.605,1.605h0A1.605,1.605,0,0,1,99.211,350.763Z" transform="translate(-51.145 -233.852)"/><g class="p" transform="translate(43.932 37.292)"><path class="m" d="M120.515,295.6a37.535,37.535,0,0,1-25.394,11.206,8.066,8.066,0,0,1-3.753-.7,42.352,42.352,0,0,0,23.544-12.952c2.862-3.131,5.333-6.974,5.73-11.139a7.494,7.494,0,0,1,3.708,5.4C124.687,290.516,122.687,293.37,120.515,295.6Z" transform="translate(-91.368 -282.022)"/></g><g class="p" transform="translate(3.486 76.042)"><path class="m" d="M79.658,336.192a6.063,6.063,0,0,1-1.191,3.933c-1.588,1.978-4.584,2.375-6.974,1.521a14.626,14.626,0,0,1-5.933-4.629,47.106,47.106,0,0,1-7.438-11.835,13,13,0,0,1-1.416-6.158,6.757,6.757,0,0,1,1.618-3.768,21.317,21.317,0,0,0,15.671,21.7,8.226,8.226,0,0,0,3.348.345A4.031,4.031,0,0,0,79.658,336.192Z" transform="translate(-56.68 -315.255)"/></g><g class="p" transform="translate(13.924 25.448)"><path class="m" d="M65.632,271.865c.337.966.637,1.948.914,2.929A9.14,9.14,0,0,1,65.632,271.865Z" transform="translate(-65.632 -271.865)"/></g><g class="p" transform="translate(20.201 8.182)"><path class="m" d="M90.889,288.046c-.494,2.817-1.341,5.708-3.5,7.663a6.506,6.506,0,0,1-2.951,1.513c-3.318.727-5-1.333-6.442-3.333a74.061,74.061,0,0,1-6.981-11.933,11.2,11.2,0,0,0,10.232-1.925,15.072,15.072,0,0,0,5.371-10.772,24.492,24.492,0,0,0-2.539-11.993l.36-.21A43.191,43.191,0,0,1,90.889,288.046Z" transform="translate(-71.016 -257.057)"/></g></g><g transform="translate(293.982 382.775)"><path class="q" d="M259.247,373.653c0,3.531,23.228,6.394,51.883,6.394s51.883-2.862,51.883-6.394-23.228-6.393-51.883-6.393S259.247,370.122,259.247,373.653Z" transform="translate(-259.247 -332.349)"/><path class="i" d="M350.028,364.44v8.2c0,2.843-13.166,5.148-29.407,5.148s-29.407-2.3-29.407-5.148v-8.2Z" transform="translate(-253.94 -332.817)"/><g class="r" transform="translate(37.275 31.623)"><rect class="o" width="1.392" height="18.799" transform="translate(56.777 -3.406)"/><rect class="o" width="1.392" height="18.799" transform="translate(53.167 -3.406)"/><rect class="o" width="1.392" height="18.799" transform="translate(49.047 -3.406)"/><rect class="o" width="1.392" height="18.799" transform="translate(43.904 -3.406)"/><rect class="o" width="1.392" height="18.799" transform="translate(38.251 -3.406)"/><rect class="o" width="1.392" height="18.799" transform="translate(32.087 -3.406)"/><rect class="o" width="1.392" height="18.799" transform="translate(0.643 -3.406)"/><rect class="o" width="1.392" height="18.799" transform="translate(4.253 -3.406)"/><rect class="o" width="1.392" height="18.799" transform="translate(8.374 -3.406)"/><rect class="o" width="1.392" height="18.799" transform="translate(13.516 -3.406)"/><rect class="o" width="1.392" height="18.799" transform="translate(19.17 -3.406)"/><rect class="o" width="1.392" height="18.799" transform="translate(25.334 -3.406)"/></g><path class="s" d="M291.215,365.041c0,2.843,13.166,5.148,29.407,5.148s29.407-2.3,29.407-5.148-13.166-5.148-29.407-5.148S291.215,362.2,291.215,365.041Z" transform="translate(-253.94 -333.572)"/><g transform="translate(43.305 28.539)"><path class="i" d="M296.386,364.184c0,1.32,10.467,2.39,23.378,2.39s23.377-1.07,23.377-2.39-10.466-2.389-23.377-2.389S296.386,362.865,296.386,364.184Z" transform="translate(-296.386 -361.795)"/></g><g transform="translate(43.305 28.539)"><path class="o" d="M342.134,364.879c-2.912-.981-11.824-1.695-22.37-1.695s-19.458.714-22.37,1.695c-.653-.22-1.007-.453-1.007-.695,0-1.319,10.467-2.389,23.378-2.389s23.377,1.07,23.377,2.389C343.141,364.426,342.787,364.659,342.134,364.879Z" transform="translate(-296.386 -361.795)"/></g><g transform="translate(41.534 17.059)"><path class="i" d="M353.681,356.5v8.2c0,2.843-13.166,5.148-29.406,5.148s-29.407-2.3-29.407-5.148v-8.2Z" transform="translate(-294.868 -351.194)"/><g class="t" transform="translate(0 5.301)"><rect class="o" width="1.392" height="18.799" transform="translate(56.778 -3.406)"/><rect class="o" width="1.392" height="18.799" transform="translate(53.167 -3.406)"/><rect class="o" width="1.392" height="18.799" transform="translate(49.046 -3.406)"/><rect class="o" width="1.392" height="18.799" transform="translate(43.904 -3.406)"/><rect class="o" width="1.392" height="18.799" transform="translate(38.251 -3.406)"/><rect class="o" width="1.392" height="18.799" transform="translate(32.088 -3.406)"/><rect class="o" width="1.392" height="18.799" transform="translate(0.644 -3.406)"/><rect class="o" width="1.392" height="18.799" transform="translate(4.254 -3.406)"/><rect class="o" width="1.392" height="18.799" transform="translate(8.375 -3.406)"/><rect class="o" width="1.392" height="18.799" transform="translate(13.517 -3.406)"/><rect class="o" width="1.392" height="18.799" transform="translate(19.17 -3.406)"/><rect class="o" width="1.392" height="18.799" transform="translate(25.333 -3.406)"/></g><path class="s" d="M294.868,357.1c0,2.843,13.166,5.148,29.407,5.148s29.406-2.305,29.406-5.148-13.166-5.148-29.406-5.148S294.868,354.254,294.868,357.1Z" transform="translate(-294.868 -351.949)"/><g transform="translate(6.029 2.217)"><path class="i" d="M300.038,356.24c0,1.319,10.466,2.389,23.378,2.389s23.377-1.07,23.377-2.389-10.466-2.39-23.377-2.39S300.038,354.92,300.038,356.24Z" transform="translate(-300.038 -353.85)"/></g><g transform="translate(6.029 2.217)"><path class="o" d="M345.786,356.934c-2.912-.981-11.824-1.694-22.37-1.694s-19.458.714-22.37,1.694c-.653-.22-1.007-.453-1.007-.695,0-1.319,10.466-2.389,23.378-2.389s23.377,1.07,23.377,2.389C346.793,356.481,346.439,356.715,345.786,356.934Z" transform="translate(-300.038 -353.85)"/></g></g><g transform="translate(44.446 6.36)"><path class="i" d="M356.178,347.32v8.2c0,2.843-13.166,5.148-29.407,5.148s-29.407-2.3-29.407-5.148v-8.2Z" transform="translate(-297.365 -342.019)"/><g class="u" transform="translate(0 5.301)"><rect class="o" width="1.392" height="18.799" transform="translate(56.777 -3.406)"/><rect class="o" width="1.392" height="18.799" transform="translate(53.167 -3.406)"/><rect class="o" width="1.392" height="18.799" transform="translate(49.047 -3.406)"/><rect class="o" width="1.392" height="18.799" transform="translate(43.903 -3.406)"/><rect class="o" width="1.392" height="18.799" transform="translate(38.251 -3.406)"/><rect class="o" width="1.392" height="18.799" transform="translate(32.087 -3.406)"/><rect class="o" width="1.392" height="18.799" transform="translate(0.643 -3.406)"/><rect class="o" width="1.392" height="18.799" transform="translate(4.253 -3.406)"/><rect class="o" width="1.392" height="18.799" transform="translate(8.374 -3.406)"/><rect class="o" width="1.392" height="18.799" transform="translate(13.516 -3.406)"/><rect class="o" width="1.392" height="18.799" transform="translate(19.17 -3.406)"/><rect class="o" width="1.392" height="18.799" transform="translate(25.334 -3.406)"/></g><path class="s" d="M297.365,347.922c0,2.843,13.166,5.147,29.407,5.147s29.407-2.3,29.407-5.147-13.166-5.148-29.407-5.148S297.365,345.078,297.365,347.922Z" transform="translate(-297.365 -342.774)"/><g transform="translate(6.029 2.217)"><path class="i" d="M302.536,347.064c0,1.32,10.467,2.39,23.377,2.39s23.378-1.07,23.378-2.39-10.466-2.389-23.378-2.389S302.536,345.745,302.536,347.064Z" transform="translate(-302.536 -344.675)"/></g><g transform="translate(4.669 2.217)"><path class="o" d="M347.117,347.759c-2.912-.981-11.824-1.695-22.37-1.695s-19.458.714-22.37,1.695c-.653-.22-1.007-.453-1.007-.695,0-1.32,10.467-2.389,23.377-2.389s23.378,1.07,23.378,2.389C348.124,347.306,347.77,347.539,347.117,347.759Z" transform="translate(-301.369 -344.675)"/></g></g><g transform="translate(0.031)"><path class="i" d="M307.674,337.875l4.706,6.717c1.631,2.328-7.829,11.771-21.13,21.09s-25.406,14.986-27.038,12.657l-4.706-6.717Z" transform="translate(-259.235 -337.227)"/><g class="v" transform="translate(0.271 0.648)"><rect class="o" width="1.392" height="18.799" transform="translate(44.545 -1.622) rotate(-35.015)"/><rect class="o" width="1.392" height="18.799" transform="translate(41.589 0.449) rotate(-35.015)"/><rect class="o" width="1.392" height="18.799" transform="translate(38.213 2.814) rotate(-35.015)"/><rect class="o" width="1.392" height="18.799" transform="translate(34.002 5.765) rotate(-35.015)"/><rect class="o" width="1.392" height="18.799" transform="translate(29.373 9.009) rotate(-35.015)"/><rect class="o" width="1.392" height="18.799" transform="translate(24.324 12.545) rotate(-35.015)"/><rect class="o" width="1.392" height="18.799" transform="translate(-1.428 30.588) rotate(-35.015)"/><rect class="o" width="1.392" height="18.799" transform="translate(1.528 28.516) rotate(-35.015)"/><rect class="o" width="1.392" height="18.799" transform="translate(4.903 26.152) rotate(-35.015)"/><rect class="o" width="1.392" height="18.799" transform="translate(9.115 23.201) rotate(-35.015)"/><rect class="o" width="1.392" height="18.799" transform="translate(13.745 19.958) rotate(-35.015)"/><rect class="o" width="1.392" height="18.799" transform="translate(18.793 16.421) rotate(-35.015)"/></g><path class="s" d="M259.456,371.589c1.631,2.328,13.736-3.339,27.037-12.658s22.762-18.761,21.13-21.089-13.737,3.338-27.038,12.657S257.825,369.26,259.456,371.589Z" transform="translate(-259.273 -337.319)"/><g transform="translate(4.76 3.395)"><path class="i" d="M263.406,367.2c.757,1.081,9.943-4.049,20.517-11.457s18.532-14.29,17.775-15.371-9.943,4.049-20.517,11.457S262.649,366.122,263.406,367.2Z" transform="translate(-263.356 -340.231)"/></g><g transform="translate(3.646 4.176)"><path class="o" d="M300.316,342.191c-2.948.868-10.656,5.4-19.294,11.448s-15.526,11.75-17.349,14.224c-.661.194-1.085.207-1.224.009-.757-1.081,7.2-7.962,17.775-15.371s19.76-12.538,20.517-11.457C300.881,341.242,300.724,341.636,300.316,342.191Z" transform="translate(-262.4 -340.9)"/></g></g></g><g transform="translate(150.114 85.997)"><path class="w" d="M203.258,275.914s.023,2.8.07,5.913a83.07,83.07,0,0,0,.337,8.411c.3.138,8.587-.091,10.146-1.419.548-.468.757-2.247.792-4.361.056-2.92-.215-6.476-.351-8.085-.05-.546-.083-.868-.083-.868l-2.335.086Z" transform="translate(-124.673 -50.802)"/><path class="x" d="M203.258,275.9s.023,2.8.07,5.913c3.81-1.727,8.5-.315,11.275,2.632.056-2.92-.215-6.476-.351-8.085-.719-.233-1.553-.506-2.418-.782Z" transform="translate(-124.673 -50.79)"/><path class="q" d="M187.963,296.287c.652.089,27.8-.813,28.907-1.233s.892-2.373.892-2.373l-30.038,1.3S187.315,296.2,187.963,296.287Z" transform="translate(-127.273 -47.951)"/><path class="y" d="M187.725,295.41c.46.426,30.036-1.3,30.036-1.3,2.208-3.157.307-8.211-.336-9.411-.105-.2-.176-.29-.192-.257-1.317,2.923-9.75,4.507-9.948,3.594s-1.051-4.327-2.106-3.961-10.8,6.642-14.029,7.921a7.661,7.661,0,0,0-3,1.909C187.552,294.6,187.482,295.185,187.725,295.41Z" transform="translate(-127.273 -49.384)"/><path class="z" d="M187.725,295.317c.46.426,30.036-1.3,30.036-1.3,2.208-3.157.307-8.211-.336-9.411A6.863,6.863,0,0,1,215,290.1a12.934,12.934,0,0,1-6.174,2.838,40.41,40.41,0,0,1-6.951.562q-6.86.16-13.722.313C187.552,294.508,187.482,295.093,187.725,295.317Z" transform="translate(-127.273 -49.291)"/><g transform="translate(0 207.572)"><path class="w" d="M158.682,260.813s-1.08,2.58-2.262,5.464a83.068,83.068,0,0,0-3,7.865c.217.243,7.93,3.3,9.886,2.688.687-.215,1.58-1.768,2.444-3.7,1.2-2.662,2.35-6.038,2.859-7.571.169-.522.265-.83.265-.83l-2.181-.84Z" transform="translate(-132.947 -260.813)"/><path class="x" d="M158.254,260.813s-1.08,2.58-2.262,5.464c4.182-.089,7.934,3.054,9.33,6.856,1.2-2.662,2.35-6.038,2.859-7.571-.569-.5-1.229-1.076-1.915-1.67Z" transform="translate(-132.519 -260.813)"/><path class="q" d="M136.006,273.4c.564.339,25.882,10.194,27.06,10.242s1.754-1.831,1.754-1.831l-28.125-10.63S135.445,273.063,136.006,273.4Z" transform="translate(-135.861 -259.091)"/><path class="y" d="M136.581,271.688c.256.572,28.124,10.627,28.124,10.627,3.272-2.033,3.513-7.428,3.395-8.784-.019-.224-.048-.335-.075-.312-2.361,2.169-10.737.307-10.56-.611s.736-4.392-.377-4.47-12.544,1.855-16.014,1.762a7.66,7.66,0,0,0-3.507.576C136.741,270.876,136.446,271.386,136.581,271.688Z" transform="translate(-135.747 -259.597)"/><path class="z" d="M136.581,271.355c.256.572,28.124,10.627,28.124,10.627,3.272-2.033,3.513-7.428,3.395-8.784a6.863,6.863,0,0,1-4.392,4.1,12.933,12.933,0,0,1-6.793.179,40.408,40.408,0,0,1-6.611-2.219q-6.369-2.552-12.739-5.112C136.741,270.543,136.446,271.053,136.581,271.355Z" transform="translate(-135.747 -259.264)"/></g><g transform="translate(24.479)"><path class="aa" d="M205.294,194.934c4.019-3.137,33.419-7.8,51.72-.335a24.712,24.712,0,0,1-4.679,24.3c-25.328,1.2-40.165,7.958-40.165,7.958s-11.163,19.353-17.263,26.225-23.378,27.783-23.378,27.783l-14.675-8.375S194.35,203.475,205.294,194.934Z" transform="translate(-156.855 -64.898)"/><path class="z" d="M286.364,184.218s23.492,43.412-29.54,44.876c-24.469.676-36.189.07-36.189.07s.865,21.605.343,30.779-3.023,32.113-3.023,32.113a23.413,23.413,0,0,1-16.583,1.121s-10.943-77.077.356-85.142,28.234-9.422,57.149-14.175C258.877,193.861,279.684,180.081,286.364,184.218Z" transform="translate(-150.255 -66.085)"/><path class="w" d="M168.841,143.968c1.507.563,3.031,1.125,4.538,1.689,1.017.389,2.035.808,3.042,1.287-.3.02-.605.026-.907.047a1.492,1.492,0,0,0-1.4.759,1.232,1.232,0,0,0,.285,1.384.617.617,0,0,1,.133.552c-.516,1.113-.346,1.737.831,2.382.382.211.552.362.457.855a1.713,1.713,0,0,0,.463,1.18,6.069,6.069,0,0,0,3.483,2.144c1.021.212,1.981.723,3,.935a13.876,13.876,0,0,0,3.277.518,7.163,7.163,0,0,1,2.3.407c.114.037.212.06.31.1,2.483.822,4.924,1.722,7.4,2.6.441.148.869.34,1.346.545l3.712-7.725c-.343-.11-.688-.249-1.045-.343-2.05-.556-4.085-1.128-6.134-1.67-.293-.084-.64-.016-.934-.115a10.157,10.157,0,0,1-4.3-2.443,7.318,7.318,0,0,1-.671-.709c-.522-.63-.816-1.437-1.322-2.082-.8-1-1.711-1.924-2.574-2.885-.517-.556-1-1.144-1.536-1.7a6.042,6.042,0,0,1-1.3-2.72c-.107-.406-.255-.943-.816-.964s-.831.47-1.027.882a3.252,3.252,0,0,0,.217,2.984c.428.9.933,1.754,1.408,2.638.073.143.117.317.233.62a21.713,21.713,0,0,1-2.746-.451c-2.641-.8-5.226-1.7-7.853-2.529a6.085,6.085,0,0,0-1.405-.231,1.3,1.3,0,0,0-1.425.658C167.726,143.068,168.185,143.717,168.841,143.968Z" transform="translate(-155.031 -73.629)"/><path class="x" d="M185.42,156.533c.114.037.212.06.31.1,2.483.822,4.924,1.722,7.4,2.6.441.148.869.34,1.346.545,1.247-2.6,2.466-5.13,3.712-7.726-.343-.11-.688-.249-1.045-.343-2.05-.556-4.085-1.128-6.134-1.67-.293-.084-.64-.016-.934-.115a10.158,10.158,0,0,1-4.3-2.443A18.655,18.655,0,0,1,185.42,156.533Z" transform="translate(-152.113 -72.054)"/><path class="ab" d="M187.546,163.27s39.52,22.2,43.194,19c1.47-1.279,3.284-5.179,4.915-9.393.889-2.283,1.729-4.664,2.433-6.772,1.183-3.5,2-6.239,2.082-6.526-.007.146-.082.946-.208,2.237-.81,8.783-3.595,40.293-2.063,42.72,1.78,2.821,53.485,5.134,54.016,2.482.279-1.446-.729-7.021-1.527-13.156-.429-3.194-.8-6.537-.915-9.521,10.976-4.073,24.2-10.563,26.455-18.709,2.5-9.059-7.614-23.176-15.367-32.3a30.612,30.612,0,0,0-20.535-10.67,106.808,106.808,0,0,0-16.587-.293c-7.446.5-15.055,2.023-21.157,5.477,0,0-13.709,11.721-19.684,35.846,0,0-33.3-13.042-34.44-11.5C187.032,153.738,187.546,163.27,187.546,163.27Zm104.187,2.343c.761-4.565,1.542-9.089,2.085-12.2l5.489,8.641Z" transform="translate(-151.779 -76.257)"/><path class="ac" d="M230.781,199.257c1.78,2.825,53.482,5.133,54.009,2.486.284-1.447-.725-7.024-1.527-13.159-.609.236-1.236.44-1.864.62a30.659,30.659,0,0,1-13.441.467,41.207,41.207,0,0,1-33.99-35.711l-1.124,2.574C232.031,165.317,229.246,196.83,230.781,199.257Z" transform="translate(-144.658 -70.979)"/><path class="ac" d="M231.793,201.137a.414.414,0,0,1-.351-.194c-1.536-2.434.841-30.333,1.842-41.274-1.966,6.136-5.669,16.777-8.381,19.11a.415.415,0,0,1-.542-.629c2.553-2.2,6.6-13.465,9.287-22.447a.449.449,0,0,1,.488-.327.386.386,0,0,1,.345.408c-1.626,16.887-3.59,42.732-2.339,44.716a.416.416,0,0,1-.351.637Zm51.725-25.078a.382.382,0,0,1-.05,0,.415.415,0,0,1-.362-.462c1.016-8.328,4.875-29.91,4.913-30.127a.408.408,0,0,1,.482-.335.415.415,0,0,1,.336.481c-.039.217-3.894,21.777-4.907,30.082A.416.416,0,0,1,283.518,176.059Z" transform="translate(-145.672 -72.446)"/><path class="ad" d="M250.745,123.015s-.053,1.6-.058,3.816a46.227,46.227,0,0,0,.759,8.691c.584,4.531,15.285,6.3,15.145-7.8-1.76-10.651-1.361-8.826-1.361-8.826s7.953-10.844,5.048-18.238-24.751-15.356-28.48-9.578l.08.393C241.772,91.819,234.759,124.092,250.745,123.015Z" transform="translate(-143.01 -81.746)"/><path class="y" d="M242.235,99.9a.439.439,0,0,1-.3-.125.377.377,0,0,1,.025-.562,2.379,2.379,0,0,1,.485-.324,2.49,2.49,0,0,1,2.387.082,2.277,2.277,0,0,1,.429.334.378.378,0,0,1-.025.562.454.454,0,0,1-.607-.017,1.42,1.42,0,0,0-.271-.211,1.574,1.574,0,0,0-1.508-.051,1.519,1.519,0,0,0-.307.205A.453.453,0,0,1,242.235,99.9Zm14.473,1.11a.417.417,0,0,1-.251-.193,1.37,1.37,0,0,0-.2-.272,1.533,1.533,0,0,0-1.435-.42,1.6,1.6,0,0,0-.355.123.444.444,0,0,1-.579-.166.386.386,0,0,1,.185-.537,2.485,2.485,0,0,1,.559-.194,2.428,2.428,0,0,1,2.271.664,2.157,2.157,0,0,1,.317.428.386.386,0,0,1-.184.538A.46.46,0,0,1,256.708,101.014Zm-7.722,9.233a4.133,4.133,0,0,1-1.431-.055.855.855,0,0,1-.548-.423c-.835-1.423.57-6.861.587-6.911a.449.449,0,0,1,.538-.275.382.382,0,0,1,.279.491c-.344,1.095-1.239,5.925-.607,6.35a4.644,4.644,0,0,0,2.431-.31.43.43,0,0,1,.562.193.4.4,0,0,1-.225.53A6.36,6.36,0,0,1,248.985,110.247Z" transform="translate(-142.75 -80.164)"/><g transform="translate(103.917 33.896)"><path class="ae" d="M245.977,111.863a3.364,3.364,0,0,0,3.267,3.13,3.483,3.483,0,0,0,3.455-3.019Z" transform="translate(-245.977 -111.863)"/></g><g transform="translate(111.18 22.394)"><path class="y" d="M253.638,103.053c-.078.54-.457.955-.847.918s-.648-.512-.57-1.052.457-.955.856-.917S253.718,102.5,253.638,103.053Z" transform="translate(-252.206 -101.999)"/></g><g transform="translate(99.945 21.771)"><path class="y" d="M244,102.387c.039.54-.245,1.012-.638,1.047s-.751-.38-.79-.92.245-1.012.647-1.048S243.963,101.84,244,102.387Z" transform="translate(-242.57 -101.465)"/></g><g transform="translate(107.678 38.098)"><path class="ae" d="M249.2,122.453c5.467-2.538,6.328-6.986,6.328-6.986a20.6,20.6,0,0,1-6.27,3.17S249.207,120.239,249.2,122.453Z" transform="translate(-249.202 -115.467)"/></g><g transform="translate(94.874)"><path class="af" d="M264.556,120.791c-.216.174,12.96-10.333,10.579-22.039,0,0-.938-4.256-3.516-4.789,0,0,3.293-5.234-4.156-8.294s-22.93-4.905-27.115.953c-4.655,6.515-1.906,9.909,10.643,10.189,3.144.324,8.861-1.426,8.861-1.426s-1,3.991.39,5.488,3.376,1.6,3.587,3.711.374,4.695.374,4.695,1.617-6.335,4.383-5.232,4.681,5.514-1.218,7.939C267.368,111.985,267.364,118.531,264.556,120.791Z" transform="translate(-238.221 -82.793)"/></g><g transform="translate(33.744 75.175)"><path class="ag" d="M191.7,147.274a1.274,1.274,0,0,1,1.25,1.345c-.228,3.674-.6,11.264-1.951,11.714a2.294,2.294,0,0,1-.882.064c-1.113-.072-2.751-.484-3.707-.49-.442,0-.664-.6-.607-1.043.289-2.53,1.243-7.737,1.764-10.478a2.867,2.867,0,0,1,.223-.867C188.069,147.26,190.242,147.249,191.7,147.274Z" transform="translate(-185.795 -147.265)"/><path class="q" d="M191.448,147.274a1.274,1.274,0,0,1,1.25,1.345c-.228,3.674-.6,11.264-1.951,11.714a2.294,2.294,0,0,1-.882.064c.565-3.948.25-4.85-.925-8.671a9.365,9.365,0,0,0-1.625-3.34,2.867,2.867,0,0,1,.223-.867C187.816,147.26,189.99,147.249,191.448,147.274Z" transform="translate(-185.542 -147.265)"/></g><g transform="translate(91.883 94.407)"><path class="z" d="M235.7,166.438l5.343,22.7a2.071,2.071,0,0,0,2.077,1.553l13.284-.895a1.4,1.4,0,0,0,1.293-1.78l-5.343-22.7a2.079,2.079,0,0,0-2.077-1.553l-13.284.895A1.393,1.393,0,0,0,235.7,166.438Z" transform="translate(-235.656 -163.759)"/></g><g transform="translate(98.295 103.346)"><path class="z" d="M255.819,182.106c-.163.035-.327.058-.49.082-.968.163-1.936.3-2.9.432s-1.947.292-2.927.338a2.249,2.249,0,0,1-2.192-1.283c-.152-.338-.676-.525-1.038-.746-.28-.152-.595-.257-.886-.385a.841.841,0,0,1-.583-.793.721.721,0,0,0-.63-.758,3.418,3.418,0,0,1-2.134-1.656,1.184,1.184,0,0,0-.431-.315c-.548-.292-.606-.769-.117-1.154a2.5,2.5,0,0,1,2.122-.373,1.291,1.291,0,0,0,.4.07c.956-.186,1.912-.362,2.845-.63a6.315,6.315,0,0,0,1.143-.665c.851-.466,1.714-.921,2.577-1.388.886-.478,1.784-.956,2.728-1.458Z" transform="translate(-241.156 -171.426)"/></g><g transform="translate(98.295 100.046)"><path class="ah" d="M264.191,180.151a10.751,10.751,0,0,0-2.857.688c-1.026.4-2.017.933-3.067,1.259a15.655,15.655,0,0,1-2.448.478c-.163.035-.327.058-.49.082-.968.163-1.936.3-2.9.432s-1.947.292-2.927.338a2.249,2.249,0,0,1-2.192-1.283c-.152-.338-.676-.525-1.038-.746-.28-.152-.595-.257-.886-.385a.841.841,0,0,1-.583-.793.721.721,0,0,0-.63-.758,3.418,3.418,0,0,1-2.134-1.656,1.184,1.184,0,0,0-.431-.315c-.548-.292-.606-.769-.117-1.154a2.5,2.5,0,0,1,2.122-.373,1.291,1.291,0,0,0,.4.07c.956-.186,1.912-.362,2.845-.63a6.315,6.315,0,0,0,1.143-.665c.851-.466,1.714-.921,2.577-1.388.886-.478,1.784-.956,2.728-1.458.082-.047.163-.082.245-.128-.117-.07-.222-.14-.326-.21l-.7-2.962a19.165,19.165,0,0,0,2.134.571,11.882,11.882,0,0,1,3.649,1.446,22.838,22.838,0,0,1,2.029,1.119,4.3,4.3,0,0,0,1.994.618c.455.023.9.058,1.341.093Z" transform="translate(-241.156 -168.596)"/></g><g transform="translate(118.152 88.76)"><path class="ab" d="M258.186,169.768l4.245,13.264s8.263-2.3,16.561-5.386a32.032,32.032,0,0,1,.149-4.891c.4-3.276,1.242-8.59,2.111-13.837Z" transform="translate(-258.186 -158.917)"/></g><g transform="translate(121.985 88.961)"><path class="ac" d="M261.888,183.418a.415.415,0,0,1-.1-.818c.376-.092,37.6-9.3,41.443-23.206a.415.415,0,1,1,.8.221c-3.971,14.376-40.494,23.414-42.047,23.791A.418.418,0,0,1,261.888,183.418Z" transform="translate(-261.473 -159.089)"/></g><g transform="translate(117.734 85.379)"><path class="ac" d="M262.493,183.928a.416.416,0,0,1-.4-.289l-4.251-13.26a.414.414,0,0,1,.219-.5l29.373-13.822a.415.415,0,1,1,.353.75l-29.043,13.667,4.139,12.913a.415.415,0,0,1-.269.522A.407.407,0,0,1,262.493,183.928Z" transform="translate(-257.827 -156.016)"/></g></g></g><g transform="translate(135.131 131.904)"><g class="ai"><path class="aj" d="M131.452,133.694l-1.037,1.08h-4.723v-8.666h5.76Z" transform="translate(-122.566 -121.51)"/></g><g class="ai"><path class="aj" d="M135.962,134.99l-4.912,5.116H123V122.082h12.961Z" transform="translate(-123.012 -122.178)"/></g></g><g transform="translate(345.214 88.001)"><path class="ag" d="M390.447,89.31v43.226a4.8,4.8,0,0,1-4.8,4.8H307.988a4.8,4.8,0,0,1-4.8-4.8V89.31a4.8,4.8,0,0,1,4.8-4.8h77.656A4.8,4.8,0,0,1,390.447,89.31Z" transform="translate(-303.184 -84.512)"/><path class="h" d="M378.007,101.015a1.854,1.854,0,0,1-1.311,3.164h-20.47a1.855,1.855,0,1,1,0-3.711H376.7A1.834,1.834,0,0,1,378.007,101.015Zm-26.213,0a1.854,1.854,0,0,1-1.316,3.164H332.762a1.855,1.855,0,0,1,0-3.711h17.717A1.854,1.854,0,0,1,351.795,101.015Zm-6.106,8.854a1.858,1.858,0,0,1-1.316,3.169h-30.4a1.855,1.855,0,1,1,0-3.711h30.4A1.87,1.87,0,0,1,345.689,109.869Zm-33.034-6.231a1.858,1.858,0,0,1,1.316-3.169h12.448a1.867,1.867,0,0,1,1.858,1.858,1.854,1.854,0,0,1-1.858,1.853H313.971A1.87,1.87,0,0,1,312.655,103.638Zm36.808-10.17a1.858,1.858,0,0,1,1.858-1.858H376.7a1.85,1.85,0,0,1,1.311.542,1.87,1.87,0,0,1,.542,1.316,1.85,1.85,0,0,1-1.853,1.853H351.32A1.854,1.854,0,0,1,349.463,93.468Zm-36.808,1.311a1.858,1.858,0,0,1,1.316-3.169h30.044a1.855,1.855,0,1,1,0,3.711H313.971A1.87,1.87,0,0,1,312.655,94.779Z" transform="translate(-301.702 -83.333)"/><g transform="translate(55.496 40.985)"><path class="h" d="M357.154,122.849a3.187,3.187,0,1,1-3.187-3.187A3.188,3.188,0,0,1,357.154,122.849Zm9.926,0a3.187,3.187,0,1,1-3.187-3.187A3.188,3.188,0,0,1,367.08,122.849Zm9.926,0a3.187,3.187,0,1,1-3.187-3.187A3.188,3.188,0,0,1,377.006,122.849Z" transform="translate(-350.779 -119.661)"/></g><g transform="translate(6.373 39.038)"><path class="ak" d="M334.045,121.711v16.3a3.7,3.7,0,0,1-3.707,3.713H312.362a3.714,3.714,0,0,1-3.712-3.713v-16.3a3.715,3.715,0,0,1,3.712-3.719h17.977A3.706,3.706,0,0,1,334.045,121.711Z" transform="translate(-308.65 -117.992)"/></g><text class="al" transform="translate(13.888 55.115)"><tspan x="0" y="0"></tspan></text></g><g transform="translate(166.927 135.637)"><path class="ag" d="M184.472,125.685l-.509,53.9-3.329-3.706-3.4,3.643L173.9,175.81l-3.4,3.643-3.332-3.706-3.4,3.643-3.331-3.706-3.405,3.643-3.337-3.706-3.406,3.643.509-53.9,3.329,3.706,3.4-3.643,3.332,3.706,3.4-3.643,3.332,3.706,3.4-3.643,3.331,3.706,3.405-3.643,3.337,3.706Z" transform="translate(-150.28 -125.366)"/></g><g transform="translate(198.726 150.367)"><path class="w" d="M179.452,144.5a4.7,4.7,0,0,1,.186.487h4.32c-.482-.537-.968-1.071-1.451-1.609-.517-.556-1-1.144-1.536-1.7a6.043,6.043,0,0,1-1.3-2.72c-.107-.406-.255-.943-.816-.964s-.831.47-1.027.882a3.252,3.252,0,0,0,.217,2.984C178.473,142.768,178.977,143.62,179.452,144.5Z" transform="translate(-177.552 -137.999)"/></g><g transform="translate(170.95 161.745)"><rect class="am" width="26.257" height="0.999"/></g><g transform="translate(170.95 167.075)"><rect class="am" width="26.257" height="0.999" transform="translate(0 0)"/></g><g transform="translate(170.95 172.405)"><rect class="am" width="26.257" height="0.999"/></g><g transform="translate(170.95 177.734)"><rect class="am" width="14.454" height="0.999" transform="translate(0 0)"/></g><g transform="translate(184.275 397.499)"><rect class="ak" width="87.651" height="12.834" transform="translate(13.221 12.859)"/><path class="an" d="M176.42,363.438v1.447l58.3-.723Z" transform="translate(-163.288 -347.707)"/><path class="an" d="M261.738,360.975H190.472l71.266,1.748Z" transform="translate(-160.956 -348.116)"/><path class="an" d="M254.546,364.286v.744s-20.562.325-20.719.325C233.827,365.341,254.546,364.286,254.546,364.286Z" transform="translate(-153.759 -347.567)"/><g transform="translate(49.13 12.834)"><rect class="h" width="15.661" height="12.859"/></g><g transform="translate(59.73 12.834)"><rect class="ao" width="5.06" height="12.859"/></g><rect class="ak" width="87.651" height="12.834" transform="translate(0.09 0.024)"/><path class="an" d="M165.158,352.432v1.447l58.3-.724Z" transform="translate(-165.158 -349.534)"/><path class="an" d="M250.476,349.968H179.211l71.265,4.6Z" transform="translate(-162.825 -349.944)"/><path class="an" d="M243.285,357.671v.744s-20.562.325-20.719.325C222.565,358.725,243.285,357.671,243.285,357.671Z" transform="translate(-155.628 -348.665)"/><g transform="translate(35.998)"><rect class="h" width="15.661" height="12.859"/></g><g transform="translate(46.598)"><rect class="ao" width="5.06" height="12.859"/></g></g><g transform="translate(397.072 200.873)"><circle class="a" cx="17.616" cy="17.616" r="17.616" transform="translate(0 0)"/><path class="q" d="M369.313,220.98a17.993,17.993,0,1,1,17.993-17.993A18.013,18.013,0,0,1,369.313,220.98Zm0-35.232a17.239,17.239,0,1,0,17.24,17.239A17.258,17.258,0,0,0,369.313,185.749Z" transform="translate(-347.051 -180.703)"/></g><g transform="translate(439.321 165.986)"><path class="a" d="M385.492,153.57a6.421,6.421,0,1,1,.577,9.062A6.428,6.428,0,0,1,385.492,153.57Zm7.494,6.6a3.562,3.562,0,1,0-5.028.32A3.566,3.566,0,0,0,392.986,160.166Z" transform="translate(-383.894 -151.395)"/></g><g class="p" transform="translate(420.431 311.381)"><path class="ap" d="M374.62,276.108a1.424,1.424,0,0,1,1.065.25l7.959,5.727a1.429,1.429,0,0,1,.325,2l-5.727,7.959a1.429,1.429,0,0,1-1.995.325l-7.959-5.727a1.429,1.429,0,0,1-.325-2l5.727-7.959A1.425,1.425,0,0,1,374.62,276.108Zm6.194,7.464-5.639-4.058-4.058,5.639,5.639,4.058Z" transform="translate(-367.693 -276.089)"/></g><g class="p" transform="translate(119.725 190.023)"><path class="aq" d="M116.721,172.051a1.229,1.229,0,0,1,1.5.872l3.062,11.521a1.229,1.229,0,0,1-1.658,1.451l-9.072-3.758a1.229,1.229,0,0,1-.5-1.887l6.01-7.764A1.228,1.228,0,0,1,116.721,172.051Zm1.552,10.623-1.786-6.718-3.5,4.527Z" transform="translate(-109.798 -172.01)"/></g><g transform="translate(338.96 197.691)"><path class="ag" d="M350.688,193.149a2.577,2.577,0,0,1-3.734,0,31.554,31.554,0,0,0-44.6,0,2.58,2.58,0,0,1-3.734,0,2.641,2.641,0,0,1,0-3.787,36.834,36.834,0,0,1,52.067,0A2.641,2.641,0,0,1,350.688,193.149Zm-15.044,11.31a2.693,2.693,0,0,1-1.92,4.587,2.6,2.6,0,0,1-1.867-.8,10.237,10.237,0,0,0-14.4,0,2.678,2.678,0,1,1-3.788-3.787A15.613,15.613,0,0,1,335.644,204.46Zm-5.281,11.735a5.388,5.388,0,1,1-5.388-5.387A5.408,5.408,0,0,1,330.363,216.195Z" transform="translate(-297.821 -178.586)"/><path class="ag" d="M342.09,195.418a2.58,2.58,0,0,1,0,3.735,2.644,2.644,0,0,1-3.788,0c-7.842-7.843-21.606-7.843-29.448,0a2.715,2.715,0,0,1-1.92.8,2.668,2.668,0,0,1-1.867-4.535,26.146,26.146,0,0,1,37.023,0Z" transform="translate(-296.744 -177.067)"/></g><g transform="translate(179.102 142.116)"><text class="ar" transform="translate(0 12)"><tspan x="0" y="0"></tspan></text></g></g></svg>