<svg xmlns="http://www.w3.org/2000/svg" width="16.357" height="21.788" viewBox="0 0 16.357 21.788"><defs><style>.a{fill:#d60c0c;}</style></defs><path class="a" d="M80.175,7H70.1l4.513-4.513a.638.638,0,0,0,0-.9L73.467.437a1.49,1.49,0,0,0-2.106,0L70.185,1.612l-.6-.6a1.7,1.7,0,0,0-2.407,0L64.828,3.358a1.7,1.7,0,0,0,0,2.407l.6.6L64.254,7.543a1.49,1.49,0,0,0,0,2.106L65.4,10.793a.638.638,0,0,0,.9,0l1.618-1.618v9.848a2.766,2.766,0,0,0,2.766,2.766h6.724a2.766,2.766,0,0,0,2.766-2.766ZM66.333,5.464l-.6-.6a.426.426,0,0,1,0-.6l2.347-2.347a.426.426,0,0,1,.6,0l.6.6Zm5.512,12.75a.638.638,0,1,1-1.277,0V10.57a.638.638,0,1,1,1.277,0Zm2.84,0a.638.638,0,1,1-1.277,0V10.57a.638.638,0,0,1,1.277,0Zm2.84,0a.638.638,0,1,1-1.277,0V10.57a.638.638,0,0,1,1.277,0Z" transform="translate(-63.818 0)"/><path class="a" d="M304.975,85.676a1.066,1.066,0,0,0-.708.887h6.125V85.5a1.064,1.064,0,0,0-1.405-1.008l-4,1.178Z" transform="translate(-294.035 -80.844)"/></svg>