<svg xmlns="http://www.w3.org/2000/svg" width="108.788" height="108.788" viewBox="0 0 108.788 108.788"><defs><style>.a{fill:#f4f5f5;}.b{fill:#cee1f2;}.c{fill:#204356;}.d{fill:#00c070;}</style></defs><g transform="translate(-572 -761.275)"><ellipse class="a" cx="54.394" cy="54.394" rx="54.394" ry="54.394" transform="translate(572 761.275)"/><g transform="translate(599.082 773.788)"><g transform="translate(2.134 18.134)"><path class="b" d="M26.4,57.338v-12.8A8.535,8.535,0,0,1,34.937,36h-6.4A8.535,8.535,0,0,0,20,44.535v12.8a8.535,8.535,0,0,0,8.535,8.535h6.4A8.535,8.535,0,0,1,26.4,57.338Z" transform="translate(-20 -36)"/></g><g transform="translate(8.535 24.535)"><path class="c" d="M106.886,100.268H82.134a2.134,2.134,0,1,1,0-4.268h24.752a2.134,2.134,0,1,1,0,4.268Z" transform="translate(-80 -96)"/></g><g transform="translate(8.292 37.216)"><circle class="c" cx="2.195" cy="2.195" r="2.195" transform="translate(0 0)"/></g><g transform="translate(41.946 54.043)"><circle class="c" cx="2.195" cy="2.195" r="2.195" transform="translate(0 0)"/></g><g transform="translate(0 16)"><path class="d" d="M35.422,50.141H10.669A10.681,10.681,0,0,1,0,39.472v-12.8A10.681,10.681,0,0,1,10.669,16H35.422A10.681,10.681,0,0,1,46.091,26.669v12.8A10.681,10.681,0,0,1,35.422,50.141ZM10.669,20.268a6.409,6.409,0,0,0-6.4,6.4v12.8a6.409,6.409,0,0,0,6.4,6.4H35.422a6.409,6.409,0,0,0,6.4-6.4v-12.8a6.409,6.409,0,0,0-6.4-6.4Z" transform="translate(0 -16)"/></g><g transform="translate(8.535 39.84)"><path class="d" d="M115.422,266.817H90.669A10.681,10.681,0,0,1,80,256.148a2.134,2.134,0,0,1,4.268,0,6.409,6.409,0,0,0,6.4,6.4h24.752a6.409,6.409,0,0,0,6.4-6.4v-12.8a6.461,6.461,0,0,0-.137-1.327,2.134,2.134,0,0,1,4.176-.878,10.738,10.738,0,0,1,.229,2.2v12.8a10.681,10.681,0,0,1-10.669,10.669Z" transform="translate(-80 -239.445)"/></g></g></g></svg>