<svg xmlns="http://www.w3.org/2000/svg" width="267.367" height="219.879" viewBox="0 0 267.367 219.879"><defs><style>.a,.i{opacity:0.15;}.b,.f,.i,.o{fill:none;}.b,.f,.h,.i,.n{stroke:#474747;}.b,.f,.h,.i,.n,.o{stroke-linecap:round;stroke-linejoin:round;stroke-miterlimit:10;}.c{fill:#1dc070;}.d{fill:#f6f9ea;}.e{fill:#77ba85;}.f,.h,.i{stroke-width:6px;}.g{fill:#15985e;}.h,.n{fill:#474747;}.h{opacity:0.32;}.j{fill:#f58870;}.k{fill:#f4f5f5;}.l{fill:#828585;}.m{fill:#bbc6cc;}.n{opacity:0.3;}.o{stroke:#204356;}.p{opacity:0.46;}.q{fill:#00c070;}.r{fill:#0d985e;}.s{fill:#204356;opacity:0.215;}.t{opacity:0.6;}.u{fill:#fffcee;}.v{fill:#fdb740;}.w{fill:#fff3c0;opacity:0.88;}.x{fill:#f29e25;}</style></defs><g transform="translate(-999.566 -247.309)"><g class="a" transform="translate(1000.066 247.812)"><path class="b" d="M157.546,387.924h31.09v15.155h-31.09" transform="translate(-157.546 -312.913)"/><line class="b" x1="31.09" transform="translate(31.09 90.167)"/><line class="b" x2="11.904" transform="translate(31.09 75.011)"/><rect class="b" width="31.09" height="15.156" transform="translate(15.545 90.167)"/><path class="b" d="M169.887,465.471h26.255v15.156h-10.06" transform="translate(-165.052 -360.076)"/><rect class="b" width="31.09" height="15.156" transform="translate(31.09 105.395)"/><path class="b" d="M580.534,527.965h31.09v15.156h-31.09" transform="translate(-414.803 -398.084)"/><line class="b" x1="31.09" transform="translate(196.821 145.037)"/><line class="b" x2="11.905" transform="translate(196.821 129.881)"/><rect class="b" width="31.09" height="15.156" transform="translate(181.276 145.037)"/><path class="b" d="M592.875,605.512h26.254v15.156H609.07" transform="translate(-422.309 -445.247)"/><path class="b" d="M679.918,620.668H659.883V605.512h25.886" transform="translate(-463.062 -445.247)"/><rect class="b" width="48.248" height="39.111" transform="translate(64.356 18.214)"/><path class="b" d="M338.784,299.8l8.84-12.8,9.143,11.33" transform="translate(-267.773 -251.533)"/><path class="b" d="M376.117,286.723l12.334-11.972,8.753,17.6" transform="translate(-290.479 -244.082)"/><path class="b" d="M367.893,290.184a4.638,4.638,0,0,1,8.384-.924" transform="translate(-285.477 -251.533)"/><path class="b" d="M651.382,395.954H582.76a4.587,4.587,0,0,1-4.587-4.587h0a4.587,4.587,0,0,1,4.587-4.587h68.622a4.587,4.587,0,0,1,4.587,4.587h0A4.587,4.587,0,0,1,651.382,395.954Z" transform="translate(-413.367 -312.216)"/><path class="b" d="M667.143,346.981H647.049l-4.179-25.64h28.452Z" transform="translate(-452.715 -272.418)"/><rect class="b" width="36.167" height="7.445" transform="translate(186.358 41.478)"/><g transform="translate(198.022 13.235)"><path class="b" d="M673.961,258.5h-7.421c-2.019-7.107-3.793-14.553-3.575-21.815.26-3.48,4.02-6.429,7.285-6.428h0c3.265,0,7.025,2.947,7.285,6.428C677.754,243.946,675.98,251.392,673.961,258.5Z" transform="translate(-662.948 -230.256)"/></g><path class="b" d="M700.689,228.893l5.14-8.5a3.084,3.084,0,0,1,4.659-.735h0a3.083,3.083,0,0,1-.067,4.715l-9.629,7.88" transform="translate(-487.88 -210.115)"/><path class="b" d="M710.048,206.66l-2.448-7.6a1.978,1.978,0,0,1,1.6-2.566h0a1.978,1.978,0,0,1,2.256,2.017l-.182,6.141" transform="translate(-492.024 -196.476)"/></g><rect class="c" width="117.978" height="56.947" transform="translate(1201.643 318.391) rotate(115.989)"/><rect class="b" width="117.978" height="56.947" transform="translate(1201.643 318.391) rotate(115.989)"/><path class="d" d="M505.594,357.518l-16.363-7.978a12.836,12.836,0,0,1-17.164,5.912l-40.349,82.76,39.439,19.229,40.35-82.759A12.837,12.837,0,0,1,505.594,357.518Z" transform="translate(675.773 -41.756)"/><path class="b" d="M505.594,357.518l-16.363-7.978a12.836,12.836,0,0,1-17.164,5.912l-40.349,82.76,39.439,19.229,40.35-82.759A12.837,12.837,0,0,1,505.594,357.518Z" transform="translate(675.773 -41.756)"/><rect class="b" width="43.877" height="104.908" transform="translate(1153.48 302.156) rotate(25.989)"/><circle class="e" cx="13.444" cy="13.444" r="13.444" transform="translate(1140.666 337.21)"/><circle class="f" cx="13.444" cy="13.444" r="13.444" transform="translate(1140.666 337.21)"/><rect class="g" width="117.978" height="56.947" transform="translate(1240.115 354.746) rotate(140.653)"/><rect class="b" width="117.978" height="56.947" transform="translate(1240.115 354.746) rotate(140.653)"/><path class="d" d="M569.472,417.12,557.93,403.042a12.837,12.837,0,0,1-18.065-1.788l-71.2,58.376,27.819,33.931,71.2-58.376A12.836,12.836,0,0,1,569.472,417.12Z" transform="translate(653.301 -73.208)"/><path class="b" d="M569.472,417.12,557.93,403.042a12.837,12.837,0,0,1-18.065-1.788l-71.2,58.376,27.819,33.931,71.2-58.376A12.836,12.836,0,0,1,569.472,417.12Z" transform="translate(653.301 -73.208)"/><rect class="b" width="43.877" height="104.908" transform="translate(1203.09 319.901) rotate(50.653)"/><circle class="g" cx="13.444" cy="13.444" r="13.444" transform="translate(1170 350.804)"/><circle class="f" cx="13.444" cy="13.444" r="13.444" transform="translate(1170 350.804)"/><path class="h" d="M517.373,429.513a27.309,27.309,0,0,0-6.91-18.174l-65.271,53.514L481.3,508.891l36.075-29.577Z" transform="translate(667.578 -79.342)"/><line class="i" x2="259.379" transform="translate(1004.555 464.188)"/><g transform="translate(1051.734 315.878)"><path class="j" d="M395.2,532.208h-82.28A23.509,23.509,0,0,1,289.416,508.7V416.232a23.509,23.509,0,0,1,23.509-23.509H395.2a23.509,23.509,0,0,1,23.509,23.509V508.7A23.509,23.509,0,0,1,395.2,532.208Z" transform="translate(-289.416 -383.898)"/><path class="k" d="M395.2,532.208h-82.28A23.509,23.509,0,0,1,289.416,508.7V416.232a23.509,23.509,0,0,1,23.509-23.509H395.2a23.509,23.509,0,0,1,23.509,23.509V508.7A23.509,23.509,0,0,1,395.2,532.208Z" transform="translate(-289.416 -383.898)"/><path class="l" d="M395.2,700.113h-82.28A23.509,23.509,0,0,1,289.416,676.6v4.749a23.509,23.509,0,0,0,23.509,23.509H395.2a23.509,23.509,0,0,0,23.509-23.509V676.6A23.509,23.509,0,0,1,395.2,700.113Z" transform="translate(-289.416 -556.551)"/><path class="m" d="M395.2,392.723h-82.28c-12.983,0-23.509,9.671-23.509,21.6v5.04c0-11.929,10.525-21.6,23.509-21.6H395.2c12.983,0,23.509,9.671,23.509,21.6v-5.04C418.713,402.394,408.188,392.723,395.2,392.723Z" transform="translate(-289.416 -383.898)"/><path class="n" d="M445.626,450.114H424.469a7.053,7.053,0,0,1-7.053-7.053V399.776a7.053,7.053,0,0,1,7.053-7.053h28.21v50.338A7.053,7.053,0,0,1,445.626,450.114Z" transform="translate(-367.264 -383.898)"/><path class="o" d="M395.2,532.208h-82.28A23.509,23.509,0,0,1,289.416,508.7V416.232a23.509,23.509,0,0,1,23.509-23.509H395.2a23.509,23.509,0,0,1,23.509,23.509V508.7A23.509,23.509,0,0,1,395.2,532.208Z" transform="translate(-289.416 -383.898)"/><g class="p" transform="translate(8.62 18.043)"><path class="b" d="M311.416,522.41V431.139A14.889,14.889,0,0,1,326.3,416.25h82.28a14.889,14.889,0,0,1,14.889,14.889V522.41A14.889,14.889,0,0,1,408.585,537.3H326.3A14.889,14.889,0,0,1,311.416,522.41Z" transform="translate(-311.416 -416.25)"/></g><path class="q" d="M437.626,432.105H416.469a7.053,7.053,0,0,1-7.053-7.053v-47.8a7.053,7.053,0,0,1,7.053-7.053h21.158a7.053,7.053,0,0,1,7.053,7.053v47.8A7.053,7.053,0,0,1,437.626,432.105Z" transform="translate(-362.399 -370.199)"/><path class="r" d="M437.626,508.919H416.469a7.053,7.053,0,0,1-7.053-7.053v3.265a7.053,7.053,0,0,0,7.053,7.053h21.158a7.053,7.053,0,0,0,7.053-7.053v-3.265A7.053,7.053,0,0,1,437.626,508.919Z" transform="translate(-362.399 -450.277)"/><path class="r" d="M437.626,370.2H416.469a7.053,7.053,0,0,0-7.053,7.053v2.665a7.053,7.053,0,0,1,7.053-7.053h21.158a7.053,7.053,0,0,1,7.053,7.053v-2.665A7.053,7.053,0,0,0,437.626,370.2Z" transform="translate(-362.399 -370.199)"/><path class="o" d="M437.626,432.105H416.469a7.053,7.053,0,0,1-7.053-7.053v-47.8a7.053,7.053,0,0,1,7.053-7.053h21.158a7.053,7.053,0,0,1,7.053,7.053v47.8A7.053,7.053,0,0,1,437.626,432.105Z" transform="translate(-362.399 -370.199)"/><circle class="n" cx="9.11" cy="9.11" r="9.11" transform="translate(56.715 33.618)"/><g class="p" transform="translate(51.719 4.702)"><path class="b" d="M423.767,434.7a2.353,2.353,0,0,1-2.351-2.351v-47.8a2.353,2.353,0,0,1,2.351-2.351h21.158a2.353,2.353,0,0,1,2.351,2.351v47.8a2.353,2.353,0,0,1-2.351,2.351Z" transform="translate(-421.416 -382.199)"/></g><circle class="s" cx="9.11" cy="9.11" r="9.11" transform="translate(55.539 31.267)"/><circle class="b" cx="9.11" cy="9.11" r="9.11" transform="translate(55.539 31.267)"/><g class="t" transform="translate(59.122 33.53)"><path class="u" d="M449.679,457.952c.331,1.481-1.439,2.432-4.047,2.97-2.613.516-4.96.6-5.281-.652-.331-1.233,1.438-3.521,4.047-4.263C447.01,455.243,449.357,456.493,449.679,457.952Z" transform="translate(-440.311 -455.775)"/></g></g><g transform="translate(1216.924 456.591)"><path class="v" d="M741.3,736.93H713.865a2.847,2.847,0,0,1-2.847-2.847v-1.9a2.847,2.847,0,0,1,2.847-2.847H741.3a2.847,2.847,0,0,1,2.847,2.847v1.9A2.847,2.847,0,0,1,741.3,736.93Z" transform="translate(-711.018 -729.333)"/><path class="w" d="M741.3,731.333H713.865a2.847,2.847,0,0,0-2.847,2.847v1.11a2.847,2.847,0,0,1,2.847-2.847H741.3a2.847,2.847,0,0,1,2.847,2.847v-1.11A2.847,2.847,0,0,0,741.3,731.333Z" transform="translate(-711.018 -730.549)"/><path class="x" d="M741.3,740.391H713.865a2.847,2.847,0,0,1-2.847-2.847v-1.11a2.847,2.847,0,0,0,2.847,2.847H741.3a2.847,2.847,0,0,0,2.847-2.847v1.11A2.847,2.847,0,0,1,741.3,740.391Z" transform="translate(-711.018 -733.652)"/><path class="b" d="M741.3,736.93H713.865a2.847,2.847,0,0,1-2.847-2.847v-1.9a2.847,2.847,0,0,1,2.847-2.847H741.3a2.847,2.847,0,0,1,2.847,2.847v1.9A2.847,2.847,0,0,1,741.3,736.93Z" transform="translate(-711.018 -729.333)"/></g><g transform="translate(1221.49 448.993)"><path class="v" d="M752.956,717.54H725.519a2.847,2.847,0,0,1-2.847-2.847v-1.9a2.847,2.847,0,0,1,2.847-2.847h27.437a2.847,2.847,0,0,1,2.847,2.847v1.9A2.847,2.847,0,0,1,752.956,717.54Z" transform="translate(-722.672 -709.943)"/><path class="w" d="M752.956,711.943H725.519a2.847,2.847,0,0,0-2.847,2.847v1.11a2.847,2.847,0,0,1,2.847-2.847h27.437A2.847,2.847,0,0,1,755.8,715.9v-1.11A2.848,2.848,0,0,0,752.956,711.943Z" transform="translate(-722.672 -711.159)"/><path class="x" d="M752.956,721H725.519a2.847,2.847,0,0,1-2.847-2.847v-1.11a2.847,2.847,0,0,0,2.847,2.847h27.437a2.847,2.847,0,0,0,2.847-2.847v1.11A2.847,2.847,0,0,1,752.956,721Z" transform="translate(-722.672 -714.262)"/><path class="b" d="M752.956,717.54H725.519a2.847,2.847,0,0,1-2.847-2.847v-1.9a2.847,2.847,0,0,1,2.847-2.847h27.437a2.847,2.847,0,0,1,2.847,2.847v1.9A2.847,2.847,0,0,1,752.956,717.54Z" transform="translate(-722.672 -709.943)"/></g><g transform="translate(1216.924 441.396)"><path class="v" d="M741.3,698.15H713.865a2.847,2.847,0,0,1-2.847-2.847v-1.9a2.847,2.847,0,0,1,2.847-2.847H741.3a2.847,2.847,0,0,1,2.847,2.847v1.9A2.847,2.847,0,0,1,741.3,698.15Z" transform="translate(-711.018 -690.553)"/><path class="w" d="M741.3,692.553H713.865a2.847,2.847,0,0,0-2.847,2.847v1.11a2.847,2.847,0,0,1,2.847-2.847H741.3a2.847,2.847,0,0,1,2.847,2.847V695.4A2.847,2.847,0,0,0,741.3,692.553Z" transform="translate(-711.018 -691.769)"/><path class="x" d="M741.3,701.611H713.865a2.847,2.847,0,0,1-2.847-2.847v-1.11a2.847,2.847,0,0,0,2.847,2.847H741.3a2.847,2.847,0,0,0,2.847-2.847v1.11A2.847,2.847,0,0,1,741.3,701.611Z" transform="translate(-711.018 -694.872)"/><path class="b" d="M741.3,698.15H713.865a2.847,2.847,0,0,1-2.847-2.847v-1.9a2.847,2.847,0,0,1,2.847-2.847H741.3a2.847,2.847,0,0,1,2.847,2.847v1.9A2.847,2.847,0,0,1,741.3,698.15Z" transform="translate(-711.018 -690.553)"/></g><g transform="translate(1191.098 437.156)"><path class="v" d="M670.162,685.823,651.419,705.86a2.847,2.847,0,0,1-4.025.134l-1.389-1.3a2.847,2.847,0,0,1-.134-4.025l18.742-20.037a2.847,2.847,0,0,1,4.025-.134l1.389,1.3A2.848,2.848,0,0,1,670.162,685.823Z" transform="translate(-645.103 -679.731)"/><path class="w" d="M666.073,682l-18.742,20.037a2.847,2.847,0,0,0,.134,4.025l.811.758a2.847,2.847,0,0,1-.134-4.025l18.742-20.037a2.847,2.847,0,0,1,4.025-.134l-.811-.758A2.847,2.847,0,0,0,666.073,682Z" transform="translate(-645.991 -680.562)"/><path class="x" d="M670.862,686.361,652.119,706.4a2.847,2.847,0,0,1-4.025.134l-.811-.758a2.847,2.847,0,0,0,4.025-.134L670.051,685.6a2.847,2.847,0,0,0-.134-4.025l.811.758A2.847,2.847,0,0,1,670.862,686.361Z" transform="translate(-646.43 -680.854)"/><path class="b" d="M670.162,685.823,651.419,705.86a2.847,2.847,0,0,1-4.025.134l-1.389-1.3a2.847,2.847,0,0,1-.134-4.025l18.742-20.037a2.847,2.847,0,0,1,4.025-.134l1.389,1.3A2.848,2.848,0,0,1,670.162,685.823Z" transform="translate(-645.103 -679.731)"/></g></g></svg>