<?xml version="1.0" encoding="UTF-8"?>
<svg id="Layer_1" data-name="Layer 1" xmlns="http://www.w3.org/2000/svg" viewBox="0 0 108.79 108.79">
  <defs>
    <style>
      .cls-1 {
        fill: #d7f4df;
      }

      .cls-1, .cls-2, .cls-3, .cls-4 {
        stroke-width: 0px;
      }

      .cls-2 {
        fill: #173303;
      }

      .cls-3 {
        fill: #f4f5f5;
      }

      .cls-4 {
        fill: #9fe870;
      }
    </style>
  </defs>
  <circle class="cls-3" cx="54.39" cy="54.39" r="54.39"/>
  <path class="cls-1" d="m39.92,65.79v-17.97c-2.81-.73-4.84-3.19-5.01-6.09h-.01v24.06c0,4.63,3.75,8.38,8.39,8.38h5.03c-4.63,0-8.38-3.75-8.39-8.38Z"/>
  <path class="cls-4" d="m74.44,44.76c.93,0,1.68-.75,1.68-1.68v-1.76c0-4.63-3.76-8.38-8.39-8.39,0,0-26.27,0-26.33.01-2.22.08-4.33,1.02-5.87,2.63-1.56,1.61-2.39,3.79-2.31,6.03v24.17c0,5.55,4.5,10.05,10.06,10.06h24.45c4.63,0,8.38-3.76,8.38-8.39v-12.72c0-4.63-3.76-8.38-8.39-8.39h-26.14c-2.69,0-4.9-2.11-5.02-4.79-.07-1.36.43-2.69,1.38-3.67.98-1.02,2.32-1.6,3.73-1.6h26.04c2.78,0,5.03,2.25,5.03,5.03v1.76c0,.93.75,1.68,1.68,1.68Zm-32.85,4.94h26.14c2.78,0,5.03,2.26,5.03,5.04v12.72c0,2.78-2.25,5.03-5.03,5.03h-24.45c-3.7,0-6.7-3.01-6.71-6.71v-17.75c1.45,1.09,3.21,1.67,5.03,1.67h0Z"/>
  <path class="cls-2" d="m69.41,61.1c0,1.16-.94,2.1-2.1,2.1s-2.1-.94-2.1-2.1.94-2.1,2.1-2.1,2.1.94,2.1,2.1h0Zm0-19.77c0-.93-.75-1.68-1.68-1.68h-26.14c-.93,0-1.68.75-1.67,1.68,0,.92.75,1.67,1.67,1.67h26.14c.93,0,1.68-.75,1.68-1.68Z"/>
</svg>