<?xml version="1.0" encoding="utf-8"?>
<!-- Generator: Adobe Illustrator 24.0.1, SVG Export Plug-In . SVG Version: 6.00 Build 0)  -->
<svg version="1.1" id="Layer_1" xmlns="http://www.w3.org/2000/svg" xmlns:xlink="http://www.w3.org/1999/xlink" x="0px" y="0px"
	 viewBox="0 0 512 512" style="enable-background:new 0 0 512 512;" xml:space="preserve">
<style type="text/css">
	.st0{fill:#B9FCDD;}
	.st1{fill:#204356;}
	.st2{fill:#00C070;}
	.st3{fill:#FF2860;}
	.st4{fill:#0BAA61;}
	.st5{fill:#FFFFFF;}
</style>
<path class="st0" d="M409.9,108.7c-1.9,23.1-26,26.8-26,26.8c20.7,1,25.9,28.1,25.9,28.1c0.4-19.4,26.6-28.4,26.6-28.4
	C416.7,134,409.9,108.7,409.9,108.7z"/>
<path class="st1" d="M436.5,132.2c-17.2-1-23.7-24-23.7-24.3c-0.4-1.4-1.7-2.3-3.2-2.2c-1.5,0.1-2.6,1.3-2.7,2.7
	c-1.7,20.4-22.6,23.9-23.5,24.1c-1.5,0.2-2.6,1.6-2.5,3.1s1.3,2.8,2.9,2.8c18.1,0.9,23,25.4,23,25.7c0.3,1.4,1.5,2.4,2.9,2.4
	c0.1,0,0.2,0,0.3,0c1.5-0.1,2.7-1.4,2.8-2.9c0.4-17,24.4-25.6,24.6-25.6c1.4-0.5,2.2-1.8,2-3.2C439.1,133.3,437.9,132.2,436.5,132.2
	L436.5,132.2z M409.4,152.8c-2.7-6.3-7.4-13.8-15.2-17.8c5.9-2.8,12.8-7.8,16.4-16.5c3.1,6.1,8.4,13.8,16.7,17.4
	C421.3,139.3,413.4,144.8,409.4,152.8z"/>
<path class="st0" d="M366.5,142.6c-1.4,16.4-18.4,18.9-18.4,18.9c14.6,0.7,18.3,19.9,18.3,19.9c0.3-13.7,18.8-20.1,18.8-20.1
	C371.3,160.5,366.5,142.6,366.5,142.6L366.5,142.6z"/>
<path class="st1" d="M385.4,158.4c-11.5-0.7-15.9-16.4-16-16.5c-0.4-1.4-1.7-2.3-3.2-2.2s-2.6,1.3-2.7,2.7
	c-1.2,13.7-15.3,16.1-15.9,16.2c-1.5,0.2-2.6,1.6-2.5,3.1s1.3,2.8,2.9,2.8c12.1,0.6,15.4,17.3,15.5,17.5c0.3,1.4,1.5,2.4,2.9,2.4
	c0.1,0,0.2,0,0.2,0c1.5-0.1,2.7-1.4,2.8-2.9c0.3-11.4,16.7-17.3,16.8-17.3c1.4-0.5,2.2-1.8,2-3.2C388,159.5,386.8,158.4,385.4,158.4
	L385.4,158.4z M366.2,172c-1.8-3.8-4.7-7.9-8.9-10.6c3.7-2.1,7.4-5.3,9.7-9.8c2.1,3.7,5.3,7.9,9.9,10.4
	C373.2,164.2,369,167.5,366.2,172L366.2,172z"/>
<path class="st0" d="M366.4,89.3c-1.3,16.4-18.4,19-18.4,19c14.6,0.6,18.4,19.8,18.4,19.8c0.3-13.7,18.8-20.2,18.8-20.2
	C371.3,107.2,366.4,89.3,366.4,89.3L366.4,89.3z"/>
<path class="st1" d="M385.4,105c-11.5-0.6-16-16.2-16-16.5c-0.4-1.4-1.8-2.3-3.2-2.2c-1.5,0.1-2.6,1.3-2.7,2.7
	c-1.1,13.7-15.2,16.2-15.8,16.3c-1.5,0.2-2.6,1.6-2.5,3.1s1.3,2.8,2.9,2.8c12.1,0.5,15.5,17.2,15.5,17.4c0.3,1.4,1.5,2.4,2.9,2.4
	c0.1,0,0.2,0,0.3,0c1.5-0.1,2.7-1.4,2.7-2.9c0.2-11.4,16.6-17.3,16.8-17.4c1.4-0.5,2.2-1.8,2-3.3C388,106.1,386.8,105.1,385.4,105
	L385.4,105z M366.2,118.6c-1.9-3.8-4.7-7.9-8.9-10.5c3.7-2.1,7.4-5.3,9.7-9.9c2.1,3.7,5.3,7.9,9.9,10.4
	C373.2,110.9,369,114.2,366.2,118.6z"/>
<path class="st2" d="M256,162c-38.6,0-72.9,18.3-94.7,46.7L146.9,233c-6.6,14.8-10.2,31.1-10.2,48.3c0,65.9,53.4,119.3,119.3,119.3
	s119.3-53.4,119.3-119.3S321.9,162,256,162L256,162z"/>
<path class="st1" d="M256,159c-38.3,0-73.7,17.5-97,47.9c-1,1.3-0.8,3.2,0.6,4.2c1.3,1,3.2,0.8,4.2-0.6c22.2-29,55.9-45.6,92.3-45.6
	c64.1,0,116.3,52.2,116.3,116.3S320.1,397.6,256,397.6s-116.3-52.2-116.3-116.3c0-16.3,3.4-32.2,10-47.1c0.7-1.5,0-3.3-1.5-4
	s-3.3,0-4,1.5c-7,15.7-10.5,32.3-10.5,49.5c0,67.4,54.9,122.3,122.3,122.3s122.3-54.9,122.3-122.3S323.4,159,256,159L256,159z"/>
<path class="st3" d="M435.8,260.8c-10.8,0-19.5,8.8-19.5,19.5c0,88.4-71.9,160.2-160.2,160.2c-21.5,0-42-4.3-60.7-12l-24.8-12.8
	c-44.9-28.4-74.8-78.5-74.8-135.4c0-74.8,51.6-137.8,121-155.4l-25.1,39.5c-5.8,9.1-3.1,21.2,6,27c3.3,2.1,6.9,3.1,10.5,3.1
	c6.5,0,12.8-3.2,16.5-9.1l45.4-71.2c3.4-3.5,5.5-8.3,5.5-13.6c0-0.2,0-0.3,0-0.4c0.1-6.6-3.1-13-9-16.8l-75.1-47.8
	c-9.1-5.8-21.2-3.1-27,6s-3.1,21.2,6,27L202,88.7C118.2,112.1,56.7,189.2,56.7,280.3c0,109.9,89.4,199.3,199.3,199.3
	s199.3-89.4,199.3-199.3C455.3,269.5,446.6,260.8,435.8,260.8L435.8,260.8z"/>
<path class="st1" d="M435.8,257.8c-12.4,0-22.5,10.1-22.5,22.5c0,86.7-70.5,157.2-157.2,157.2c-20.6,0-40.6-4-59.6-11.8
	c-1.5-0.6-3.3,0.1-3.9,1.6s0.1,3.3,1.6,3.9c19.7,8.1,40.5,12.2,61.9,12.2c90,0,163.2-73.2,163.2-163.2c0-9.1,7.4-16.5,16.5-16.5
	s16.5,7.4,16.5,16.5c0,108.3-88.1,196.3-196.3,196.3c-108.3,0-196.3-88.1-196.3-196.3c0-87.5,58.8-165.2,143-189
	c1.1-0.3,2-1.3,2.2-2.5s-0.4-2.3-1.4-3L172,65.9c-7.7-4.9-10-15.1-5.1-22.8c2.4-3.7,6.1-6.3,10.4-7.3c4.3-1,8.7-0.2,12.5,2.2
	l75.1,47.8c4.9,3.1,7.7,8.4,7.6,14.4c0,0,0,0.3,0,0.4c0,4.3-1.7,8.4-4.7,11.5c-0.1,0.1-0.3,0.3-0.4,0.5L222,183.8
	c-3.1,4.8-8.3,7.7-14,7.7c-3.1,0-6.2-0.9-8.9-2.6c-7.7-4.9-10-15.1-5.1-22.8l25.1-39.5c0.7-1,0.6-2.4-0.1-3.4c-0.7-1-2-1.5-3.2-1.2
	c-72.6,18.3-123.3,83.4-123.3,158.3c0,56.2,28.5,107.8,76.2,138c1.4,0.9,3.3,0.5,4.1-0.9c0.9-1.4,0.5-3.3-0.9-4.1
	c-45.9-29.1-73.4-78.8-73.4-132.9c0-69.5,45.4-130.3,111.3-150.4l-20.9,32.9c-6.7,10.5-3.6,24.4,6.9,31.1c3.6,2.3,7.8,3.5,12.1,3.5
	c7.8,0,14.9-3.9,19-10.4l45.2-71c4-4.2,6.2-9.7,6.2-15.5c0-0.2,0-0.3,0-0.4c0.1-7.9-3.8-15.2-10.4-19.4L193,32.9
	c-5.1-3.2-11.1-4.3-17-3s-10.9,4.8-14.1,9.9c-6.7,10.5-3.6,24.4,6.9,31.1l26,16.5C111.3,114,53.7,192.4,53.7,280.3
	c0,111.6,90.8,202.3,202.3,202.3s202.3-90.8,202.3-202.3C458.3,267.9,448.2,257.8,435.8,257.8L435.8,257.8z"/>
<path class="st4" d="M256,165c-5.3,0-10.4,0.4-15.5,1.1l-0.6,1c53.7,10.3,94.5,57.6,94.5,114.3c0,57.7-42.2,105.7-97.3,114.7
	c6.2,1,12.5,1.6,19,1.6c64.1,0,116.3-52.2,116.3-116.3C372.3,217.2,320.1,165,256,165z"/>
<g>
	<path class="st5" d="M309.1,325.8c-4.6-3.2-10.9-2.1-14.1,2.5c-1.4,2-4.7,5.5-10.3,5.5c-5.4,0-9.6-1.3-14.6-2.9
		c-5.5-1.7-11.8-3.7-19.8-3.7c-3.4,0-7.1,0.4-10.8,1.1c0.6-1.4,1.1-2.8,1.6-4.2c3.9-10.7,5.6-21.5,5.1-32.3h23.6
		c5.6,0,10.1-4.5,10.1-10.1s-4.5-10.1-10.1-10.1h-27.1c-1.5-4.9-3.5-9.8-5.9-14.6c-5.4-10.6-0.4-21.9,7.7-26.7
		c11.4-6.8,26.1,0.1,38.3,18c3.1,4.6,9.5,5.8,14.1,2.7s5.8-9.5,2.7-14.1c-22.5-33-49.3-33.6-65.4-24.1
		c-18.3,10.9-25.1,34.3-15.4,53.4c0.9,1.8,1.7,3.6,2.5,5.4h-12.4c-5.6,0-10.1,4.5-10.1,10.1s4.5,10.1,10.1,10.1h17.2
		c0.5,8.2-0.7,16.4-3.6,24.7c-4.7,13.3-12.1,21.7-12.1,21.8c-3.2,3.5-3.5,8.7-0.8,12.6c1.9,2.8,5.1,4.4,8.3,4.4
		c1.2,0,2.5-0.2,3.7-0.7c5-1.9,19.8-7,28.9-7c4.9,0,9,1.3,13.8,2.7c5.7,1.8,12.2,3.8,20.6,3.8c15.3,0,23.9-9.8,26.9-14.1
		C314.7,335.3,313.6,329,309.1,325.8z"/>
</g>
</svg>
