<svg xmlns="http://www.w3.org/2000/svg" width="23.42" height="31.94" viewBox="0 0 23.42 31.94"><defs><style>.a{fill:#808695;fill-rule:evenodd;}</style></defs><path class="a" d="M13.033.265A11.617,11.617,0,0,0,7.174,1.857,1.065,1.065,0,1,0,8.246,3.7a9.461,9.461,0,0,1,4.786-1.3,9.6,9.6,0,0,1,9.581,9.581c0,2.5-1.205,4.8-2.875,7.025a64.114,64.114,0,0,1-5.953,6.5,1.049,1.049,0,0,1-1.505,0A64.114,64.114,0,0,1,6.327,19c-1.67-2.227-2.875-4.525-2.875-7.025a9.461,9.461,0,0,1,1.3-4.786A1.065,1.065,0,1,0,2.916,6.115a11.617,11.617,0,0,0-1.593,5.859c0,3.177,1.5,5.908,3.3,8.3a65.205,65.205,0,0,0,6.152,6.73,3.21,3.21,0,0,0,4.516,0,65.205,65.205,0,0,0,6.152-6.73c1.8-2.394,3.3-5.125,3.3-8.3A11.751,11.751,0,0,0,13.033.265Zm0,6.385a5.324,5.324,0,1,0,5.329,5.327A5.341,5.341,0,0,0,13.029,6.65Zm0,2.129a3.195,3.195,0,1,1-3.189,3.2A3.186,3.186,0,0,1,13.029,8.779ZM8.671,30.073l0,0a1.066,1.066,0,0,0,.11,2.129h8.51a1.065,1.065,0,1,0,0-2.129H8.779A1.064,1.064,0,0,0,8.671,30.073Z" transform="translate(-1.323 -0.265)"/></svg>