<svg xmlns="http://www.w3.org/2000/svg" width="102" height="102" viewBox="0 0 102 102"><defs><style>.a{fill:#00c070;}.b{fill:#fff;fill-rule:evenodd;}</style></defs><g transform="translate(-1328.809 -452.367)"><circle class="a" cx="51" cy="51" r="51" transform="translate(1328.809 452.367)"/><g transform="translate(1359.511 482.157)"><path class="b" d="M37.021,31.492A18.685,18.685,0,0,0,34.782,6.828a16.8,16.8,0,0,0-23.7.756,18.7,18.7,0,0,0-.751,24.788,16.811,16.811,0,0,0,23.636,2.315l.094.1,9.189,9.6a2.1,2.1,0,0,0,3.066,0,2.337,2.337,0,0,0,0-3.2l-9.192-9.6q-.048-.049-.1-.1Zm-4.5-20.707a14.01,14.01,0,0,1,0,19.2,12.608,12.608,0,0,1-18.381,0,14.01,14.01,0,0,1,0-19.2,12.608,12.608,0,0,1,18.381,0Z" transform="translate(-5.993 -2.299)"/></g></g></svg>