<?xml version="1.0" encoding="UTF-8"?>
<svg id="Layer_1" data-name="Layer 1" xmlns="http://www.w3.org/2000/svg" viewBox="0 0 396.13 258.04">
  <defs>
    <style>
      .cls-1 {
        fill: #e6e6e6;
      }

      .cls-1, .cls-2, .cls-3, .cls-4, .cls-5, .cls-6, .cls-7 {
        stroke-width: 0px;
      }

      .cls-2 {
        fill: #ccc;
      }

      .cls-3 {
        fill: #fff;
      }

      .cls-4 {
        fill: #3f3d56;
      }

      .cls-5 {
        fill: #9fe870;
        isolation: isolate;
      }

      .cls-6 {
        fill: #f2f2f2;
      }

      .cls-7 {
        fill: #2f2e41;
      }
    </style>
  </defs>
  <circle class="cls-7" cx="324.06" cy="211.91" r="32.62"/>
  <circle class="cls-3" cx="321.47" cy="204.02" r="11.14"/>
  <circle class="cls-4" cx="316.95" cy="201.14" r="3.71"/>
  <path class="cls-5" d="m322.77,189.85c-13.34-.03-22.71-2.41-22.68-14.49s10.85-21.86,24.2-21.84,24.14,9.84,24.11,21.93c-.02,12.09-12.29,14.43-25.63,14.4Z"/>
  <path class="cls-1" d="m375.19,217.36c-3.83,13.28-15,22.57-26.66,30.46-1.63,1.1-3.26,2.18-4.88,3.23-.01,0-.02.02-.03.02-.08.05-.16.1-.23.15l-1.01.65.18.08s.18.1-.02.02c-.06-.03-.12-.05-.18-.07-6.77-2.73-13.66-5.66-18.85-10.78-5.38-5.31-8.53-13.64-5.61-20.62.38-.91.87-1.78,1.44-2.59.24-.34.49-.66.76-.98,5-6.1,14-6.99,20.1-1.99,2.03,1.66,3.56,3.86,4.43,6.33.86-7.97-5.72-14.65-12.04-19.58s-13.52-10.29-14.74-18.22c-.57-4.37.76-8.78,3.65-12.12.09-.1.17-.21.26-.31,3.4-4,8.19-6.56,13.4-7.19,9.7-1.01,19.13,4.13,26.18,10.88,11.35,10.86,18.21,27.53,13.86,42.63Z"/>
  <path class="cls-3" d="m356.95,200c1.86,2.9,3.29,6.05,4.24,9.36.81,2.96,1.16,6.02,1.06,9.09-.26,6.31-2.03,12.46-5.16,17.94-2.36,4.16-5.23,8-8.56,11.44-1.63,1.1-3.26,2.18-4.88,3.23-.01,0-.02.02-.03.02-.08.05-.16.1-.23.15l-1.01.65s.36.18.17.1c-.06-.02-.12-.05-.18-.07,1.96-15.51-7.89-30.06-23.02-33.99.24-.34.49-.66.76-.98,1.86.52,3.67,1.21,5.41,2.05,6.22,2.99,11.32,7.9,14.53,14.01,2.88,5.55,4.12,11.8,3.58,18.03.28-.25.56-.51.83-.77,5.25-4.72,9.6-10.37,12.81-16.66,2.68-5.38,4-11.34,3.84-17.35-.25-6.55-2.86-12.62-6.65-17.91-4.14-5.64-9.04-10.69-14.55-15-5.55-4.45-11.63-8.2-18.1-11.17-.3-.14-.44-.49-.32-.8.04-.13.14-.25.26-.31.13-.05.28-.05.4.02.8.37,1.59.74,2.38,1.13,6.55,3.24,12.67,7.28,18.22,12.02,5.5,4.52,10.28,9.84,14.2,15.78Z"/>
  <ellipse class="cls-7" cx="55.83" cy="251.05" rx="8.26" ry="3.1"/>
  <ellipse class="cls-7" cx="75.65" cy="250.64" rx="8.26" ry="3.1"/>
  <ellipse class="cls-7" cx="99.4" cy="197.25" rx="16.31" ry="5.12" transform="translate(-85.23 76.01) rotate(-29.96)"/>
  <circle class="cls-7" cx="62.44" cy="207.49" r="32.62"/>
  <rect class="cls-7" x="47.57" y="233.09" width="9.91" height="17.75"/>
  <rect class="cls-7" x="67.39" y="233.09" width="9.91" height="17.75"/>
  <circle class="cls-3" cx="63.27" cy="199.23" r="11.15"/>
  <circle class="cls-4" cx="63.26" cy="199.23" r="3.72"/>
  <path class="cls-1" d="m30.8,177.16c-2.63-11.8,5.79-23.71,18.81-26.62s25.71,4.3,28.34,16.09-5.99,16.15-19.01,19.05-25.5,3.27-28.14-8.53Z"/>
  <ellipse class="cls-7" cx="25.7" cy="192.36" rx="5.12" ry="16.31" transform="translate(-159.11 133.15) rotate(-64.63)"/>
  <path class="cls-3" d="m46.42,219.26c0,3.19,8.22,9.5,17.34,9.5s17.67-8.99,17.67-12.18-8.55.62-17.67.62-17.34-1.13-17.34,2.06Z"/>
  <ellipse class="cls-7" cx="176.18" cy="251.05" rx="8.26" ry="3.1"/>
  <ellipse class="cls-7" cx="156.36" cy="250.64" rx="8.26" ry="3.1"/>
  <ellipse class="cls-7" cx="132.61" cy="197.25" rx="5.12" ry="16.31" transform="translate(-104.51 213.62) rotate(-60.04)"/>
  <circle class="cls-7" cx="169.58" cy="207.49" r="32.62"/>
  <rect class="cls-7" x="174.53" y="233.09" width="9.91" height="17.75"/>
  <rect class="cls-7" x="154.71" y="233.09" width="9.91" height="17.75"/>
  <circle class="cls-3" cx="161.93" cy="199.23" r="11.15"/>
  <ellipse class="cls-4" cx="156.63" cy="197.72" rx="3.73" ry="3.7" transform="translate(-93.92 168.55) rotate(-44.97)"/>
  <path class="cls-5" d="m173.08,185.68c-13.02-2.91-21.65-7.26-19.02-19.05s15.32-19,28.34-16.09,21.44,14.83,18.81,26.62-15.11,11.43-28.14,8.53Z"/>
  <ellipse class="cls-7" cx="199.5" cy="216.59" rx="5.12" ry="16.3" transform="translate(-48.98 58.57) rotate(-14.9)"/>
  <path class="cls-3" d="m162.19,217.2c-5.99,0-11.6-3.81-11.6-.62s5.61,12.18,11.6,12.18,11.39-6.3,11.39-9.5-5.4-2.06-11.39-2.06Z"/>
  <path class="cls-5" d="m120.03,153.41h-2.9c-5.4,0-9.78-4.38-9.79-9.79v-2.43c0-6.02,1.14-11.07,3.39-14.99,2.73-4.56,5.91-8.84,9.5-12.76,2.38-2.4,4.54-5,6.46-7.79,1.37-2.16,2.08-4.68,2.04-7.24,0-6.04-3.94-8.98-12.04-8.98-4.49.05-8.96.72-13.27,1.99-5.93,1.69-12.11-1.74-13.8-7.68-.28-1-.43-2.03-.43-3.06v-4.92c-.02-4.33,2.51-8.27,6.46-10.04,15.15-6.17,32.09-6.32,47.35-.41,6.3,2.51,11.8,6.68,15.92,12.06,3.77,5.09,5.78,11.27,5.71,17.61.15,6.32-1.79,12.51-5.52,17.61-4.55,5.79-9.73,11.06-15.43,15.72-3.49,2.9-6.79,6.01-9.89,9.32-2,2.16-3.42,4.8-4.11,7.66-.8,4.7-4.88,8.14-9.65,8.13h0Z"/>
  <path class="cls-5" d="m118.42,199.44h-.38c-10.02,0-18.14-8.12-18.14-18.14s8.12-18.14,18.14-18.14h.38c10.02,0,18.14,8.12,18.14,18.14s-8.12,18.14-18.14,18.14Z"/>
  <path class="cls-2" d="m236.32,254.49H.76c-.42,0-.76-.34-.76-.76s.34-.76.76-.76h235.56c.42,0,.76.34.76.76s-.34.76-.76.76Z"/>
  <path class="cls-2" d="m395.37,254.49h-125.73c-.42,0-.76-.34-.76-.76s.34-.76.76-.76h125.73c.42,0,.76.34.76.76s-.34.76-.76.76Z"/>
  <ellipse class="cls-7" cx="317.24" cy="227.25" rx="16.31" ry="5.12" transform="translate(-4.48 6.39) rotate(-1.15)"/>
  <path class="cls-6" d="m309.15,112.86h-19.69c-2.09,0-3.78-1.7-3.79-3.79v-19.69c0-2.09,1.7-3.78,3.79-3.79h19.69c2.09,0,3.78,1.7,3.79,3.79v19.69c0,2.09-1.7,3.78-3.79,3.79Zm-19.69-25.75c-1.25,0-2.27,1.02-2.27,2.27v19.69c0,1.25,1.02,2.27,2.27,2.27h19.69c1.25,0,2.27-1.02,2.27-2.27v-19.69c0-1.25-1.02-2.27-2.27-2.27h-19.69Z"/>
  <path class="cls-6" d="m318.24,99.98h-19.69c-2.09,0-3.78-1.7-3.79-3.79v-19.69c0-2.09,1.7-3.78,3.79-3.79h19.69c2.09,0,3.78,1.7,3.79,3.79v19.69c0,2.09-1.7,3.78-3.79,3.79Zm-19.69-25.75c-1.25,0-2.27,1.02-2.27,2.27v19.69c0,1.25,1.02,2.27,2.27,2.27h19.69c1.25,0,2.27-1.02,2.27-2.27v-19.69c0-1.25-1.02-2.27-2.27-2.27h-19.69Z"/>
  <path class="cls-6" d="m162.97,37.11h-19.69c-2.09,0-3.78-1.7-3.79-3.79V13.63c0-2.09,1.7-3.78,3.79-3.79h19.69c2.09,0,3.78,1.7,3.79,3.79v19.69c0,2.09-1.7,3.78-3.79,3.79h0Zm-19.69-25.75c-1.25,0-2.27,1.02-2.27,2.27v19.69c0,1.25,1.02,2.27,2.27,2.27h19.69c1.25,0,2.27-1.02,2.27-2.27V13.63c0-1.25-1.02-2.27-2.27-2.27h-19.69Z"/>
  <path class="cls-6" d="m150.85,27.27h-19.69c-2.09,0-3.78-1.7-3.79-3.79V3.79c0-2.09,1.7-3.78,3.79-3.79h19.69c2.09,0,3.78,1.7,3.79,3.79v19.69c0,2.09-1.7,3.78-3.79,3.79h0ZM131.15,1.51c-1.25,0-2.27,1.02-2.27,2.27v19.69c0,1.25,1.02,2.27,2.27,2.27h19.69c1.25,0,2.27-1.02,2.27-2.27V3.79c0-1.25-1.02-2.27-2.27-2.27h-19.69Z"/>
  <circle class="cls-6" cx="243.3" cy="138.74" r="4.9"/>
  <circle class="cls-6" cx="46.37" cy="121.32" r="4.9"/>
  <circle class="cls-6" cx="376.6" cy="163.73" r="4.9"/>
</svg>