<svg xmlns="http://www.w3.org/2000/svg" width="28" height="26" viewBox="0 0 28 26">
  <g id="Group_18157" data-name="Group 18157" transform="translate(-199 -610)">
    <path id="telephone" d="M98.007,93.844c-.786-.807-3.019-2.319-4.483-2.319a1.592,1.592,0,0,0-.877.231,4.817,4.817,0,0,1-1.561.813c-.151,0-.312-.135-.667-.441l-.059-.054A18.673,18.673,0,0,1,88.783,90.6l-.1-.1c-.07-.07-.129-.135-.188-.194-.334-.344-.576-.592-1.431-1.561l-.038-.043c-.409-.463-.678-.764-.694-.985s.172-.565.651-1.216a2.661,2.661,0,0,0,.07-2.879,13.1,13.1,0,0,0-1.733-2.486l-.054-.065a2.323,2.323,0,0,0-1.824-.969,3.231,3.231,0,0,0-1.722.624c-.027.016-.054.038-.081.054a3.454,3.454,0,0,0-1.5,1.787c-.307,1-.511,2.287.958,4.972A24.028,24.028,0,0,0,85.355,93.3a25.685,25.685,0,0,0,4.2,3.573,9.757,9.757,0,0,0,5.015,2.169,3.659,3.659,0,0,0,3.46-1.609C99.428,95.743,98.846,94.71,98.007,93.844Zm-.619,3.008a2.862,2.862,0,0,1-2.814,1.3,9.191,9.191,0,0,1-4.531-2.007,24.872,24.872,0,0,1-4.084-3.476,23.183,23.183,0,0,1-4.111-5.57c-1.3-2.373-1.152-3.412-.888-4.267a2.582,2.582,0,0,1,1.13-1.3c.027-.016.054-.038.086-.054a2.483,2.483,0,0,1,1.275-.49,1.515,1.515,0,0,1,1.179.662l.054.065c1.372,1.679,2.443,3.164,1.636,4.262a2.866,2.866,0,0,0-.823,1.83c.043.522.393.915.92,1.507l.038.043c.866.979,1.114,1.238,1.458,1.587.059.059.118.124.188.194l.1.1a21,21,0,0,0,1.631,1.528l.059.054a1.869,1.869,0,0,0,1.211.651,4.363,4.363,0,0,0,2.007-.942.807.807,0,0,1,.43-.1c1.168,0,3.18,1.335,3.885,2.061.646.657.969,1.152-.032,2.362Z" transform="translate(124.414 534.24)" fill="#b8b8b8"/>
    <rect id="Rectangle_8936" data-name="Rectangle 8936" width="28" height="26" transform="translate(199 610)" fill="none"/>
  </g>
</svg>
