<svg xmlns="http://www.w3.org/2000/svg" width="28" height="26" viewBox="0 0 28 26">
  <g id="Group_18155" data-name="Group 18155" transform="translate(-199 -437)">
    <path id="Path_16485" data-name="Path 16485" d="M27.844,15.414a6.026,6.026,0,0,1,5.689,6.632,6.013,6.013,0,0,1-5.764,5.007A6.029,6.029,0,0,1,22.04,20.2a5.962,5.962,0,0,1,5.654-4.79Zm-.127,1.809a4.157,4.157,0,0,0-3.563,5.748,4.177,4.177,0,0,0,6.381,1.166c2.193-2.091,1.033-6.842-2.714-6.913Zm.142,11.037A9.834,9.834,0,0,1,36.452,33.7.939.939,0,0,1,35.337,35c-.573-.228-.729-.982-1.1-1.518A8.078,8.078,0,0,0,23.76,31.172a7.98,7.98,0,0,0-3.078,3.383,1.132,1.132,0,0,1-.772.512c-.709.034-1.159-.748-.671-1.67A9.832,9.832,0,0,1,27.859,28.26Z" transform="translate(185.307 424.611)" fill="#b8b8b8"/>
    <rect id="Rectangle_8934" data-name="Rectangle 8934" width="28" height="26" transform="translate(199 437)" fill="none"/>
  </g>
</svg>
