<?xml version="1.0" encoding="UTF-8"?>
<svg id="Layer_1" data-name="Layer 1" xmlns="http://www.w3.org/2000/svg" viewBox="0 0 353.72 362">
  <defs>
    <style>
      .cls-1 {
        fill: #173303;
      }

      .cls-1, .cls-2, .cls-3, .cls-4 {
        stroke-width: 0px;
      }

      .cls-5 {
        isolation: isolate;
      }

      .cls-2 {
        fill: #fff;
      }

      .cls-3 {
        fill: #9fe870;
      }

      .cls-4 {
        fill: #f3ffeb;
      }
    </style>
  </defs>
  <g class="cls-5">
    <path class="cls-1" d="m336.87,87.72l-5.45-1.19-1.24-5.44c-.04-.19-.21-.33-.41-.33s-.37.14-.41.33l-1.24,5.46-5.45,1.29c-.19.05-.33.22-.33.42s.14.36.33.4l5.45,1.19,1.23,5.44c.05.19.22.33.41.33.2,0,.37-.14.41-.33l1.25-5.46,5.45-1.29c.23-.04.38-.26.33-.49-.02-.17-.15-.3-.33-.33h0Z"/>
    <path class="cls-1" d="m19.04,166.67l-5.45-1.19-1.24-5.44c-.04-.19-.21-.33-.41-.33s-.37.14-.42.33l-1.24,5.47-5.45,1.29c-.19.05-.33.22-.33.42s.14.37.33.41l5.45,1.19,1.23,5.44c.05.19.22.33.42.33s.37-.14.41-.33l1.25-5.47,5.45-1.29c.23-.04.38-.26.33-.49-.03-.18-.16-.31-.33-.34h0Z"/>
    <path class="cls-1" d="m309.35,65.9l-2.82-.61-.64-2.81c-.02-.12-.14-.2-.26-.17-.09.02-.15.09-.17.17l-.64,2.83-2.82.67c-.1.02-.17.11-.17.21s.07.19.17.21l2.82.61.64,2.81c.02.12.14.2.26.17.09-.02.15-.09.17-.17l.64-2.83,2.82-.67c.1-.03.17-.11.17-.21s-.07-.19-.17-.21Z"/>
  </g>
  <g class="cls-5">
    <path class="cls-1" d="m15.27,14.96l.35-8.87C15.76,2.58,18.72-.14,22.23,0c.69.03,1.36.17,2.01.41h0c3.28,1.25,4.92,4.92,3.67,8.2-.25.65-.6,1.25-1.04,1.79l-5.64,6.84-5.96-2.28Z"/>
    <path class="cls-1" d="m12.86,21.32l-5.64,6.84c-2.24,2.7-1.86,6.71.85,8.94.53.44,1.13.79,1.78,1.04h0c3.28,1.25,6.95-.38,8.2-3.66.25-.65.39-1.33.41-2.02l.35-8.87-5.95-2.27Z"/>
    <path class="cls-1" d="m9.29,16.41l2.77,5.87c1.12,2.37,3.95,3.38,6.32,2.27l5.67-2.67-2.76-5.87c-1.12-2.37-3.94-3.38-6.32-2.27l-5.68,2.67Z"/>
    <circle class="cls-1" cx="7.5" cy="15.63" r="4.31"/>
    <rect class="cls-1" x="1.96" y="9.88" width="3.08" height="3.88" transform="translate(-7.67 6.61) rotate(-48.5)"/>
    <rect class="cls-1" x=".4" y="13.88" width="3.08" height="3.88" transform="translate(-13.88 17.65) rotate(-89.62)"/>
    <path class="cls-1" d="m100.42,208.4l-3.01-.62c.29-1.39.56-2.79.82-4.18l3.02.56c-.25,1.41-.53,2.84-.83,4.24Zm2.12-11.88l-3.04-.43c.38-2.56.7-5.1.97-7.56l3.08.32c-.3,2.5-.62,5.09-1.01,7.67h0Zm1.63-15.42l-3.08-.18c.15-2.56.24-5.13.26-7.6h3.08c-.02,2.55-.11,5.16-.26,7.78h0Zm-3-15.37c-.14-2.56-.37-5.13-.68-7.55l3.08-.38c.31,2.5.55,5.13.69,7.76l-3.09.17Zm-1.91-15c-.51-2.51-1.15-4.96-1.87-7.3l2.94-.9c.75,2.42,1.4,4.97,1.95,7.58l-3.02.62Zm-28.2-13.33h0c-.91,0-1.83-.04-2.75-.1l.23-3.08c.84.07,1.72.09,2.52.1,1.6,0,3.2-.12,4.78-.37l.51,3.04c-1.74.27-3.51.41-5.27.4h-.02Zm23.72-1.03c-.99-2.29-2.11-4.51-3.37-6.66l2.65-1.54c1.32,2.27,2.51,4.62,3.54,7.03l-2.82,1.17Zm-34.4-.91c-2.57-1.11-4.86-2.76-6.73-4.83l2.3-2.05c1.58,1.75,3.51,3.13,5.67,4.07l-1.24,2.81Zm23.73-.84l-1.29-2.79c2.19-1.01,4.22-2.34,6.01-3.96l2.08,2.27c-2.03,1.83-4.33,3.34-6.82,4.48h.02Zm3.14-11.11c-1.53-1.96-3.22-3.8-5.03-5.5l2.1-2.24c1.92,1.81,3.7,3.76,5.32,5.84l-2.39,1.9Zm8.37,0l-2.71-1.46c1.19-2.19,2.22-4.46,3.08-6.8l2.89,1.07c-.92,2.47-2.02,4.86-3.28,7.17l.02.02Zm-45.94-.16c-.27-.92-.47-1.85-.61-2.8-.11-.68-.16-1.36-.16-2.05,0-1.21.17-2.42.51-3.59l2.95.86c-.25.88-.38,1.8-.38,2.72,0,.53.04,1.06.12,1.58.12.82.29,1.63.51,2.42l-2.94.86Zm26.72-9.91c-1.86-1.26-3.85-2.3-5.95-3.1l-.48-.13.81-2.97.55.15c2.39.87,4.66,2.04,6.76,3.48l-1.69,2.57Zm-20.17-2.76l-1.6-2.62c2.45-1.42,5.25-2.13,8.08-2.05h.1l-.03,3.08h-.08c-2.27-.09-4.52.46-6.5,1.57l.03.02Zm44.79-2.01l-3.02-.57c.46-2.43.7-4.89.72-7.37h3.08c-.03,2.66-.29,5.31-.8,7.92l.02.02Zm-2.92-15.3c-.43-2.44-1.06-4.84-1.87-7.18l2.91-1.02c.87,2.5,1.54,5.06,1.99,7.66l-3.03.54Zm-4.81-14.03c-1.14-2.23-2.42-4.39-3.81-6.48l2.56-1.7c1.46,2.18,2.79,4.44,3.98,6.78l-2.73,1.4Zm-8.3-12.57c-1.54-1.9-3.22-3.81-5-5.69l2.23-2.12c1.84,1.94,3.59,3.91,5.16,5.87l-2.39,1.94Zm-10.41-11.01c-1.81-1.67-3.74-3.36-5.74-5.01l1.96-2.37c2.05,1.69,4.01,3.41,5.86,5.13l-2.08,2.25Zm-11.74-9.74c-1.99-1.49-4.1-2.98-6.21-4.43l1.73-2.56c2.17,1.48,4.3,3,6.32,4.52l-1.84,2.47Zm-12.61-8.62c-2.14-1.34-4.35-2.67-6.56-3.94l1.54-2.67c2.24,1.3,4.48,2.64,6.66,4l-1.64,2.61Zm-13.26-7.64c-4.17-2.2-6.82-3.39-6.84-3.4l1.26-2.8c.11.05,2.75,1.24,7.02,3.49l-1.44,2.71Z"/>
  </g>
  <path class="cls-2" d="m253.08,108.13l-12.41-4.17-1.23-35.27c15.16-11.51,6.66-19.76,6.66-19.76l-.65-16.14h-60.52c-11.28,65.77,17.4,59.47,17.4,59.47l-.73,13.7-15.23,6.8.6,26.44h68.18l-2.07-31.07Z"/>
  <path class="cls-1" d="m256.83,140.74h-71.33l-.66-28.95,15.3-6.84.58-10.98c-4.2.07-8.24-1.55-11.24-4.49-9.01-8.61-11.05-27.77-6.05-56.96l.22-1.28h63.33l.68,17.07c1.69,2.1,2.54,4.76,2.37,7.45-.28,4.58-3.31,9.17-9,13.65l1.16,33.42,12.36,4.16,2.28,33.75Zm-68.32-3.08h65.03l-1.94-28.41-12.44-4.18-1.27-37.13.64-.48c5.28-4.01,8.2-8.11,8.42-11.87.13-2.03-.55-4.03-1.89-5.56l-.44-.43-.62-15.27h-57.75c-5.64,34.08-.23,47.59,5.36,52.93,2.73,2.74,6.58,4.04,10.41,3.51l1.97-.43-.88,16.66-15.15,6.77.55,23.89Z"/>
  <path class="cls-1" d="m219.41,36.32s-12.95,8.38-35.04,0l-1.07,7.72c-5.95-4.7-8.71-12.36-7.13-19.77,0,0,1.31-8.12,14.94-9.7,0,0,5.76-11.79,18.34-6.81,0,0,9.43-5.76,18.6,2.89,0,0,8.12-.26,9.43,6.29,0,0,13.36-1.57,17.03,10.77,0,0,2.1,15.73-9.17,22.56,0,0-8.12-5.26-11.79,5.75l-4.72,1.31-1.05-7.34s-7.07-2.14-8.37-13.67Z"/>
  <path class="cls-1" d="m188.1,64.07c-5.27,0-9.54-4.27-9.54-9.54s4.27-9.54,9.54-9.54,9.54,4.27,9.54,9.54h0c0,5.27-4.28,9.54-9.54,9.54Zm0-17.03c-4.14,0-7.49,3.35-7.49,7.49s3.35,7.49,7.49,7.49,7.49-3.35,7.49-7.49h0c-.01-4.13-3.36-7.49-7.49-7.49Z"/>
  <path class="cls-1" d="m208.53,64.07c-5.27,0-9.54-4.27-9.54-9.54s4.27-9.54,9.54-9.54,9.54,4.27,9.54,9.54h0c0,5.27-4.27,9.54-9.54,9.54Zm0-17.03c-4.14,0-7.49,3.35-7.49,7.49s3.35,7.49,7.49,7.49,7.49-3.35,7.49-7.49h0c0-4.13-3.35-7.49-7.49-7.49Z"/>
  <circle class="cls-3" cx="188.22" cy="55.71" r="2.36"/>
  <circle class="cls-3" cx="208.53" cy="55.84" r="2.36"/>
  <rect class="cls-1" x="216.99" y="51.61" width="11.71" height="2.05" transform="translate(-5.28 32.89) rotate(-8.34)"/>
  <path class="cls-1" d="m201.22,70.36l-8.87-.92,5.51-16.47,1.95.65-4.7,14.04,6.33.66-.22,2.04Z"/>
  <path class="cls-1" d="m195.84,46.04s-4.15-3.24-12.22-2.23l-.26-2.05c9-1.12,13.58,2.52,13.76,2.68l-1.3,1.59.65-.8-.63.81Z"/>
  <path class="cls-1" d="m202.11,45.78l-1.54-1.33c.06-.07,6.05-6.88,15.86-.72l-1.09,1.74c-8.29-5.21-13.04.08-13.23.31Z"/>
  <path class="cls-1" d="m194.44,79.22c-.81-.79-.82-2.09-.02-2.9.1-.1.21-.19.32-.27.77-.53,1.68-.82,2.62-.85,2.44-.07,5.67,1.5,7.18,2.31.34.18.47.6.29.95-.04.07-.09.14-.15.2-1.7,1.48-6.85,4.08-10.24.56Z"/>
  <path class="cls-3" d="m192.13,109.98s2.05,24.61,29.73,23.58c0,0,22.81-2.31,29.48-25.89,0,0,30.48,7.62,55.28,20.86,9.27,4.96,16.05,13.55,18.72,23.71l21.6,73.08-54.85.51-6.41-11.53,9.74,130.72h-140.97l-3.59-107.14-45.11-5.64,25.73-80.48c3.84-12.05,12.69-21.85,24.28-26.91l36.37-14.87Z"/>
  <path class="cls-1" d="m297.08,346.56h-144.11l-3.58-107.31-45.66-5.72,26.29-82.28c3.98-12.46,13.13-22.6,25.12-27.84l38.35-15.66.17,2.09c.09.98,2.33,23.1,28.09,22.18,1.38-.15,21.9-2.8,28.11-24.78l.4-1.43,1.45.36c.31.08,30.95,7.82,55.63,21.02,9.63,5.17,16.68,14.11,19.48,24.67l22.18,75-57.81.51-3.45-6.22,9.34,125.41Zm-141.15-3.07h137.84l-10.14-136.05,9.37,16.86,51.9-.51-21.02-71.1c-2.57-9.76-9.08-18.01-17.97-22.79-21.34-11.4-47.24-18.68-53.52-20.36-2.82,9.13-9.13,16.78-17.55,21.28-3.98,2.19-8.32,3.64-12.82,4.27h-.1c-.58,0-1.14.03-1.7.03-13.9,0-21.19-6.53-24.88-12.13-2.15-3.31-3.66-6.99-4.42-10.86l-34.57,14.12c-11.17,4.89-19.69,14.34-23.4,25.95l-25.17,78.76,44.57,5.57,3.58,106.96Z"/>
  <rect class="cls-1" x="64.99" y="193.03" width="193.78" height="151.74"/>
  <path class="cls-1" d="m260.31,346.31H63.46v-154.82h196.85v154.82Zm-193.78-3.08h190.7v-148.66H66.53v148.66Z"/>
  <path class="cls-2" d="m21.16,233.78h116.88l47.16-40.5h-120.46l-43.58,40.5Z"/>
  <path class="cls-1" d="m138.62,235.32H17.25l46.88-43.58h125.23l-50.74,43.58Zm-113.54-3.07h112.41l43.58-37.42h-115.73l-40.26,37.42Z"/>
  <rect class="cls-4" x="184.44" y="193.03" width="74.33" height="151.74"/>
  <path class="cls-2" d="m290.3,233.78h-81l-24.6-40.5h74.33l31.27,40.5Z"/>
  <path class="cls-1" d="m293.43,235.32h-85l-26.47-43.58h77.83l33.64,43.58Zm-83.26-3.07h77l-28.91-37.42h-70.83l22.74,37.42Z"/>
  <path class="cls-2" d="m64.99,286.33s-14.1,8.55-13.44,24.09c.14,3.17,1.18,6.23,2.99,8.82,3.52,5.02,11.5,12.87,27.36,14.25,0,0,7.18,1.03,5.13-4.1,0,0,5.13-2.56,3.08-7.18,0,0,4.61-4.1,2.05-7.69,0,0,3.59-5.13.51-7.18s-16.91-4.62-16.91-4.62c0,0,10.25-2.05,8.71-6.66s-19.48-3.93-19.48-3.93v-5.8Z"/>
  <path class="cls-1" d="m83.31,335.13c-.53,0-1.05-.03-1.57-.1-16.65-1.46-24.97-9.96-28.44-14.9-1.99-2.83-3.13-6.18-3.27-9.64-.7-16.26,13.57-25.12,14.17-25.47l2.33-1.41v6.96c5.64-.1,17.81.25,19.4,5.02.41,1.19.27,2.51-.37,3.59-.97,1.41-2.32,2.52-3.9,3.19,4.35.96,9.88,2.38,11.86,3.7.97.63,1.64,1.64,1.85,2.78.4,2.12-.7,4.47-1.42,5.71,1.42,3.02-.39,6.22-2.05,8.06.99,3.47-1.12,6.09-3.05,7.47.28,1.13.03,2.32-.67,3.24-1.17,1.5-3.34,1.8-4.87,1.8Zm-19.85-45.76c-3.79,3.12-10.82,10.37-10.36,20.98.12,2.87,1.06,5.65,2.71,8,3.17,4.51,10.8,12.27,26.24,13.61h.08c1.37.19,3.2,0,3.64-.54.18-.23.12-.77-.16-1.47l-.51-1.31,1.27-.63c.38-.2,3.75-2.05,2.36-5.18l-.46-1.03.84-.74s3.54-3.23,1.82-5.64l-.64-.9.62-.89c.68-.98,1.68-3,1.45-4.23-.05-.32-.24-.61-.51-.78-2.05-1.37-11.11-3.41-16.35-4.38l-7.85-1.46,7.83-1.56c2.35-.47,6.45-1.87,7.45-3.59.21-.32.25-.72.11-1.08-.69-2.08-10.02-3.18-17.94-2.88l-1.59.06-.05-4.36Z"/>
  <path class="cls-2" d="m345.11,224.96l-51.47.51,6.04,17.06-78.17,80.68s-17.94-11.97-28.59-12.82c-2.14-.16-4.01,1.44-4.17,3.59,0,.08,0,.15,0,.23-.04,2.85,1.29,7.02,7.55,11.2,0,0-9.74,7.46-16.66,11.28-2.52,1.35-3.86,4.2-3.28,7,.65,2.83,3.24,5.64,11.03,5.58,0,0,0,8.03,10.38,5.81,0,0,2.97,7.42,11.87,3.71,0,0,2.49,4.94,14.09-2.22l118.2-81.97c8.25-5.72,12.03-15.98,9.48-25.68l-6.29-23.96Z"/>
  <path class="cls-1" d="m213.44,362c-.72.01-1.44-.09-2.13-.28-.78-.21-1.5-.59-2.11-1.11-2.51,1.02-5.31,1.04-7.84.05-1.83-.8-3.37-2.14-4.41-3.85-3.5.55-6.28,0-8.26-1.58-1.36-1.13-2.29-2.69-2.65-4.42-7.99-.29-10.5-3.78-11.19-6.75-.73-3.47.91-7,4.03-8.68,5.12-3.02,10.06-6.33,14.8-9.91-5.38-4.18-6.53-8.37-6.49-11.25.05-3,2.51-5.39,5.51-5.34.11,0,.22.01.33.02,9.52.74,24.15,9.74,28.24,12.34l76.63-79.09-6.44-18.19,54.82-.54,6.61,25.12c2.7,10.33-1.33,21.24-10.09,27.34l-118.24,82.03h-.04c-4.42,2.72-8.14,4.09-11.08,4.09Zm-2.44-3.9c.64.91,3.92,2.11,11.88-2.8l118.17-81.97c7.7-5.36,11.24-14.96,8.87-24.03l-6-22.79-48.12.48,5.64,15.92-79.73,82.29-1.07-.71c-.17-.11-17.73-11.74-27.85-12.53-.65-.05-1.29.17-1.76.61-.48.43-.76,1.04-.76,1.69-.05,3.46,2.33,6.88,6.87,9.9l1.79,1.2-1.71,1.31c-.4.31-9.93,7.58-16.84,11.41-1.92,1.01-2.95,3.17-2.52,5.31.68,2.95,3.89,4.43,9.52,4.38h1.54v1.54c.07,1.38.69,2.67,1.72,3.59,1.44,1.15,3.73,1.39,6.8.74l1.27-.27.48,1.2c.69,1.48,1.89,2.66,3.38,3.32,1.78.74,3.96.58,6.46-.46l1.45-.6.52,1.27Z"/>
  <g class="cls-5">
    <rect class="cls-1" x="194.36" y="166.87" width="29.36" height="3.08" transform="translate(-31.46 287.66) rotate(-65.23)"/>
    <rect class="cls-1" x="174.7" y="141.77" width="3.08" height="39.99"/>
    <rect class="cls-1" x="141.91" y="154.21" width="3.08" height="25.8" transform="translate(-50.29 62.37) rotate(-20.96)"/>
  </g>
</svg>