<svg xmlns="http://www.w3.org/2000/svg" width="32.047" height="27.293" viewBox="0 0 32.047 27.293"><defs><style>.a{fill:#ff3f5c;}.b{fill:#cd2f44;}.c{fill:#ae0551;}.d{fill:#e3dff6;}.e{fill:#00485b;}.f{fill:#ff7d43;}.g{fill:#f6efea;}.h{fill:#b7b3e2;}.i{fill:#00303d;}</style></defs><g transform="translate(0.001 0)"><path class="a" d="M56.643,381.5H34.151V378.58a6.321,6.321,0,0,1,6.321-6.321h5.2l1.36,4.6a.989.989,0,0,0,.948.708h3.793a.989.989,0,0,0,.989-.989v-5.343A4.329,4.329,0,0,1,57.09,366.9l1.461,6.927h1.678c2.212,0,3.081,1.634,3.081,3.846l-.427.033H60.975Z" transform="translate(-33.193 -358.978)"/><path class="b" d="M580.893,373.826h-1.678l-1.461-6.926a4.329,4.329,0,0,0-4.329,4.329v5.343a.988.988,0,0,1-.988.988h-2.58V381.5h7.451l4.333-3.8h2.423a.745.745,0,0,0,.729-.911A3.931,3.931,0,0,0,580.893,373.826Z" transform="translate(-553.857 -358.975)"/><g transform="translate(25.358 14.851)"><path class="c" d="M908.28,617.477a.549.549,0,0,0,.544-.634,3.919,3.919,0,0,0-3.954-3.246h-1.677v6l2.425-2.124Z" transform="translate(-903.192 -613.598)"/></g><g transform="translate(1.677 21.587)"><path class="d" d="M100.858,886.943a3.829,3.829,0,1,1-7.658,0" transform="translate(-92.262 -886.004)"/><path class="e" d="M64.529,859.207a4.773,4.773,0,0,1-4.768-4.768.939.939,0,1,1,1.878,0,2.89,2.89,0,0,0,5.78,0,.939.939,0,1,1,1.878,0A4.773,4.773,0,0,1,64.529,859.207Z" transform="translate(-59.761 -853.501)"/></g><path class="e" d="M44.355,422.833H33.983a1.948,1.948,0,0,1,0-3.9h8.459a2.9,2.9,0,0,1,2.9,2.9A.992.992,0,0,1,44.355,422.833Z" transform="translate(-31.136 -409.551)"/><path class="f" d="M10.494,683.58a.634.634,0,0,1-.63-.7,6.029,6.029,0,0,1,6.052-5.684,6.256,6.256,0,0,1,6.276,5.678.634.634,0,0,1-.629.7Z" transform="translate(-9.585 -660.563)"/><g transform="translate(-0.001 3.847)"><path class="g" d="M9.36,223.567H.939a.939.939,0,1,1,0-1.878H9.36a.939.939,0,1,1,0,1.878Z" transform="translate(0 -221.689)"/></g><g transform="translate(3.119 0)"><path class="d" d="M120.525,86.538h-8.493a.939.939,0,1,1,0-1.878h8.493a.939.939,0,1,1,0,1.878Z" transform="translate(-111.093 -84.66)"/></g><g transform="translate(15.959 5.256)"><path class="b" d="M572.6,273.753h-3.247a.939.939,0,0,1,0-1.878H572.6a.939.939,0,1,1,0,1.878Z" transform="translate(-568.414 -271.876)"/></g><path class="a" d="M676.78,210.592h-4.719a.819.819,0,0,0-.819.82v3.68a.819.819,0,0,0,.819.819h4.719a2.66,2.66,0,0,0,0-5.319Z" transform="translate(-652.395 -207.056)"/><ellipse class="h" cx="3.829" cy="3.829" rx="3.829" ry="3.829" transform="translate(23.45 18.697)"/><g transform="translate(22.511 17.758)"><path class="i" d="M806.562,726.671a4.768,4.768,0,1,1,4.768-4.768A4.773,4.773,0,0,1,806.562,726.671Zm0-7.657a2.89,2.89,0,1,0,2.89,2.89A2.893,2.893,0,0,0,806.562,719.014Z" transform="translate(-801.794 -717.136)"/><ellipse class="i" cx="0.945" cy="0.945" rx="0.945" ry="0.945" transform="translate(3.823 3.823)"/></g></g></svg>