<svg id="gluten-free" xmlns="http://www.w3.org/2000/svg" width="108" height="108" viewBox="0 0 108 108">
  <defs>
    <style>
      .cls-1 {
        fill: #0a5078;
      }

      .cls-2 {
        fill: #00325a;
      }

      .cls-3 {
        fill: #f0f0f0;
      }

      .cls-4 {
        fill: #d2d2d2;
      }

      .cls-5 {
        fill: #fab400;
      }

      .cls-6 {
        fill: #dc9600;
      }

      .cls-7 {
        fill: #c80a50;
      }

      .cls-8 {
        fill: #a00028;
      }
    </style>
  </defs>
  <circle id="Ellipse_2168" data-name="Ellipse 2168" class="cls-1" cx="54" cy="54" r="54"/>
  <path id="Path_23670" data-name="Path 23670" class="cls-2" d="M97.889,76.68a45.15,45.15,0,1,0-22.2,22.205,17.989,17.989,0,0,0,3.161,6.23,53.9,53.9,0,0,0,26.1-24.57A18.076,18.076,0,0,0,97.889,76.68Z" transform="translate(-3 -1.75)"/>
  <circle id="Ellipse_2169" data-name="Ellipse 2169" class="cls-3" cx="45" cy="45" r="45" transform="translate(9 9)"/>
  <path id="Path_23671" data-name="Path 23671" class="cls-4" d="M61.349,42.163A17.064,17.064,0,0,0,63.5,33.856a3.1,3.1,0,0,0-3.107-3.107,17.064,17.064,0,0,0-11.529,4.482A17.132,17.132,0,0,0,45.448,15.91a3.11,3.11,0,0,0-4.394,0,17.127,17.127,0,0,0-3.418,19.319,17.073,17.073,0,0,0-11.529-4.48A3.1,3.1,0,0,0,23,33.856a17.07,17.07,0,0,0,2.151,8.307A3.1,3.1,0,0,0,23,45.106a17.07,17.07,0,0,0,2.151,8.307A3.1,3.1,0,0,0,23,56.356a17.051,17.051,0,0,0,2.156,8.314A3.141,3.141,0,0,0,23,67.608a17.142,17.142,0,0,0,17.141,17.14H41v9a2.25,2.25,0,0,0,4.5,0v-9h.857A17.145,17.145,0,0,0,63.5,67.611a3.144,3.144,0,0,0-2.155-2.943A17.028,17.028,0,0,0,63.5,56.356a3.1,3.1,0,0,0-2.151-2.943A17.064,17.064,0,0,0,63.5,45.106,3.1,3.1,0,0,0,61.349,42.163Z" transform="translate(10.75 0.751)"/>
  <path id="Path_23672" data-name="Path 23672" class="cls-1" d="M35.5,24V80.25a2.25,2.25,0,1,1-4.5,0V24Z" transform="translate(20.75 12)"/>
  <path id="Path_23673" data-name="Path 23673" class="cls-2" d="M31,24V73.5h4.5V24Zm3.96,5.243a16.965,16.965,0,0,0-1.71,7.4,16.963,16.963,0,0,0-1.71-7.4,3.056,3.056,0,0,0,3.42,0ZM33.25,70.4A17.149,17.149,0,0,0,31.2,62.25H35.3a17.15,17.15,0,0,0-2.048,8.145Zm0-11.25A17.149,17.149,0,0,0,31.2,51H35.3a17.15,17.15,0,0,0-2.048,8.145Zm0-11.25A17.149,17.149,0,0,0,31.2,39.75H35.3a17.15,17.15,0,0,0-2.048,8.145Z" transform="translate(20.75 12)"/>
  <path id="Path_23674" data-name="Path 23674" class="cls-5" d="M38.207,14.91a3.109,3.109,0,0,0-4.394,0,17.145,17.145,0,0,0,0,24.244,3.11,3.11,0,0,0,4.394,0,17.145,17.145,0,0,0,0-24.244Z" transform="translate(17.991 -0.499)"/>
  <path id="Path_23675" data-name="Path 23675" class="cls-6" d="M60.393,21A17.143,17.143,0,0,0,43.25,38.143,17.143,17.143,0,0,0,26.107,21,3.105,3.105,0,0,0,23,24.107,17.143,17.143,0,0,0,40.143,41.25h6.215A17.143,17.143,0,0,0,63.5,24.107,3.105,3.105,0,0,0,60.393,21Z" transform="translate(10.75 8.25)"/>
  <path id="Path_23676" data-name="Path 23676" class="cls-5" d="M60.393,26A17.143,17.143,0,0,0,43.25,43.143,17.143,17.143,0,0,0,26.107,26,3.105,3.105,0,0,0,23,29.107,17.143,17.143,0,0,0,40.143,46.25h6.215A17.143,17.143,0,0,0,63.5,29.107,3.1,3.1,0,0,0,60.393,26Z" transform="translate(10.75 14.5)"/>
  <path id="Path_23677" data-name="Path 23677" class="cls-6" d="M60.393,31A17.143,17.143,0,0,0,43.25,48.143,17.143,17.143,0,0,0,26.107,31,3.1,3.1,0,0,0,23,34.107,17.143,17.143,0,0,0,40.143,51.25h6.215A17.143,17.143,0,0,0,63.5,34.107,3.105,3.105,0,0,0,60.393,31Z" transform="translate(10.75 20.75)"/>
  <path id="Path_23678" data-name="Path 23678" class="cls-5" d="M60.391,36A17.142,17.142,0,0,0,43.25,53.14,17.145,17.145,0,0,0,26.11,36,3.146,3.146,0,0,0,23,39.11,17.142,17.142,0,0,0,40.14,56.25h6.217A17.144,17.144,0,0,0,63.5,39.112,3.146,3.146,0,0,0,60.391,36Z" transform="translate(10.75 27)"/>
  <path id="Path_23679" data-name="Path 23679" class="cls-4" d="M61.938,41.45a45.229,45.229,0,0,1-21.69,20.43A15.4,15.4,0,0,1,40,59,18,18,0,0,1,58,41,17.458,17.458,0,0,1,61.938,41.45Z" transform="translate(32 33.25)"/>
  <circle id="Ellipse_2170" data-name="Ellipse 2170" class="cls-7" cx="18" cy="18" r="18" transform="translate(72 72)"/>
  <path id="Path_23680" data-name="Path 23680" class="cls-8" d="M63.216,46.714l-1.591-1.591a2.248,2.248,0,0,0-3.182,0L53.669,49.9,48.9,45.126a2.248,2.248,0,0,0-3.182,0l-1.591,1.591a2.248,2.248,0,0,0,0,3.181L48.9,54.67l-4.772,4.772a2.248,2.248,0,0,0,0,3.182l1.591,1.591a2.248,2.248,0,0,0,3.182,0l4.772-4.772,4.772,4.772a2.248,2.248,0,0,0,3.182,0l1.591-1.591a2.248,2.248,0,0,0,0-3.182L58.441,54.67,63.213,49.9A2.252,2.252,0,0,0,63.216,46.714Z" transform="translate(36.331 37.58)"/>
  <path id="Path_23681" data-name="Path 23681" class="cls-3" d="M63.216,45.714l-1.591-1.591a2.248,2.248,0,0,0-3.182,0L53.669,48.9,48.9,44.126a2.248,2.248,0,0,0-3.182,0l-1.591,1.591a2.248,2.248,0,0,0,0,3.182L48.9,53.67l-4.772,4.772a2.248,2.248,0,0,0,0,3.182l1.591,1.591a2.248,2.248,0,0,0,3.182,0l4.772-4.772,4.772,4.772a2.248,2.248,0,0,0,3.182,0l1.591-1.591a2.248,2.248,0,0,0,0-3.181L58.441,53.67,63.213,48.9A2.252,2.252,0,0,0,63.216,45.714Z" transform="translate(36.331 36.33)"/>
</svg>
