<svg xmlns="http://www.w3.org/2000/svg" width="19.466" height="19.481" viewBox="0 0 19.466 19.481">
  <defs>
    <style>
      .cls-1 {
        fill: #6b6b82;
        stroke: rgba(0,0,0,0);
        stroke-miterlimit: 10;
      }
    </style>
  </defs>
  <path id="sesame" class="cls-1" d="M10.288,1.058a.33.33,0,0,0-.219.08A16.97,16.97,0,0,0,8.176,3.12,7.3,7.3,0,0,0,6.25,7.351a4.306,4.306,0,0,0,4.035,4.58,4.039,4.039,0,0,0,3.362-2.022,4.359,4.359,0,0,0,.3-.6,5.118,5.118,0,0,0,.37-1.955A7.3,7.3,0,0,0,12.392,3.12,16.97,16.97,0,0,0,10.5,1.138a.33.33,0,0,0-.212-.08ZM2.2,10.621c-.5,0-.809.027-.809.027a.33.33,0,0,0-.3.3,16.975,16.975,0,0,0,.062,2.74,7.312,7.312,0,0,0,1.631,4.355,5.14,5.14,0,0,0,1.645,1.121,4.514,4.514,0,0,0,.639.212,4.044,4.044,0,0,0,3.811-.946,4.3,4.3,0,0,0-.387-6.09,7.311,7.311,0,0,0-4.356-1.63A17.536,17.536,0,0,0,2.2,10.621Zm16.168,0a17.562,17.562,0,0,0-1.931.091,7.3,7.3,0,0,0-4.355,1.63,4.3,4.3,0,0,0-.389,6.09,4.044,4.044,0,0,0,3.811.946,4.514,4.514,0,0,0,.639-.212,5.118,5.118,0,0,0,1.645-1.121,7.293,7.293,0,0,0,1.631-4.355,16.805,16.805,0,0,0,.062-2.74.33.33,0,0,0-.3-.3s-.311-.025-.809-.027Z" transform="translate(-0.55 -0.558)"/>
</svg>
