<svg width="48" height="48" viewBox="0 0 48 48" fill="none" xmlns="http://www.w3.org/2000/svg">
<g id="fi_8800631" clip-path="url(#clip0_3654_218)">
<path id="Vector" d="M12 12L21.9323 21.054C22.4936 21.5659 23.2282 21.8457 23.9878 21.8371C24.7474 21.8285 25.4755 21.532 26.025 21.0075L47.25 0.75L26.9925 21.975C26.4682 22.5245 26.1719 23.2524 26.1632 24.0118C26.1546 24.7713 26.4343 25.5057 26.946 26.067L36 36L26.0677 26.946C25.5065 26.4343 24.772 26.1546 24.0126 26.1632C23.2532 26.1719 22.5253 26.4682 21.9757 26.9925L0.75 47.25L21.0075 26.025C21.5318 25.4755 21.8281 24.7476 21.8368 23.9882C21.8454 23.2287 21.5657 22.4943 21.054 21.933L12 12Z" fill="#28BE21"/>
</g>
<defs>
<clipPath id="clip0_3654_218">
<rect width="48" height="48" fill="white"/>
</clipPath>
</defs>
</svg>
