<svg id="delivery-bike_4_" data-name="delivery-bike (4)" xmlns="http://www.w3.org/2000/svg" width="61.858" height="76.834" viewBox="0 0 61.858 76.834">
  <defs>
    <style>
      .cls-1 {
        fill: #7738c7;
      }

      .cls-2 {
        fill: #ffac17;
      }

      .cls-3 {
        fill: #ffc517;
      }

      .cls-4 {
        fill: #171d8f;
      }

      .cls-5 {
        fill: #fff;
      }

      .cls-6 {
        fill: #ff4b3d;
      }

      .cls-7 {
        fill: #feac7c;
      }

      .cls-8 {
        fill: #fecd91;
      }

      .cls-9 {
        fill: #cf1531;
      }
    </style>
  </defs>
  <path id="Path_23825" data-name="Path 23825" class="cls-1" d="M91.842,36.711a47.579,47.579,0,0,1,10.231,1.423.628.628,0,0,1-.315,1.215,47.339,47.339,0,0,0-9.916-1.382,35.566,35.566,0,0,0-6.824.486.628.628,0,1,1-.268-1.227A37.4,37.4,0,0,1,91.842,36.711Z" transform="translate(-78.288 -19.681)"/>
  <path id="Path_23826" data-name="Path 23826" class="cls-2" d="M98.793,35.63s-13.737-.764-15.664,2.3-2.283,15.63-1.059,17.906,18.438,5.862,20.015,1.4,3.882-19.85-3.292-21.6Z" transform="translate(-81.358 -17.341)"/>
  <path id="Path_23827" data-name="Path 23827" class="cls-3" d="M88.8,36.37s-12.906-2.426-14.833.636-1.274,16.877-.05,19.153,14.937,5.5,16.514,1.042S95.972,38.123,88.8,36.369Z" transform="translate(-65.171 -17.309)"/>
  <path id="Path_23828" data-name="Path 23828" class="cls-1" d="M98.1,70.664S75.654,68.4,73.482,69.5s-1.608,2.759.867,3.027,20.888.719,23.668.423,2.086-2.135.088-2.285Z" transform="translate(-71.692 -29.861)"/>
  <path id="Path_23829" data-name="Path 23829" class="cls-4" d="M79.1,100.8c.353,0,4.815.575,4.02,9.19-.534,5.79-2.8,6.832-4.28,7.686s-5.225.492-5.4.467c-.907-.131,2.311-.635,1.593-1.438-2.607-2.916-3.932-11.531.221-14.668s3.843-1.237,3.843-1.237Z" transform="translate(-55.331 -41.407)"/>
  <path id="Path_23830" data-name="Path 23830" class="cls-5" d="M86.508,100.8c.354,0,4.816.575,4.02,9.19s-5.479,9.632-8.085,6.715-3.932-11.531.221-14.668S86.508,100.8,86.508,100.8Z" transform="translate(-67.398 -41.407)"/>
  <path id="Path_23831" data-name="Path 23831" class="cls-3" d="M87.948,106.871c1.718.343,2.687,1.562,2.374,5.124s-2.093,4.936-3.78,3.343S84.917,106.4,87.948,106.871Z" transform="translate(-70.565 -43.869)"/>
  <path id="Path_23832" data-name="Path 23832" class="cls-4" d="M88.757,111c.742.148,1.16.674,1.025,2.212s-.9,2.131-1.632,1.443-.7-3.858.607-3.655Z" transform="translate(-71.398 -45.409)"/>
  <path id="Path_23833" data-name="Path 23833" class="cls-1" d="M84.793,102.708A44.8,44.8,0,0,1,84,92.016c.442-4.506.53-6.1-3-6.1s-12.548-2.032-15.729-.265-4.33,14.049-.442,16.258,14.933,2.209,16.7,2.121A6.365,6.365,0,0,0,84.793,102.708Z" transform="translate(-50.49 -35.715)"/>
  <path id="Path_23834" data-name="Path 23834" class="cls-3" d="M82.739,99.415s.53-8.747-5.567-10.515-10.781-1.414-13.166,3.8-2.916,6.8,1.591,7.865S82.651,103.039,82.739,99.415ZM85.832,83.6s-15.906-.177-17.32-2.3-.088-4.506,1.767-4.506,13.7.53,15.995,2.209S89.1,83.6,85.832,83.6Z" transform="translate(-53.737 -32.688)"/>
  <path id="Path_23835" data-name="Path 23835" class="cls-4" d="M52.87,71.063c-3.1-.107-3.936,6.9-.541,8.459a18.517,18.517,0,0,0,5.3,1.19s-.267,17.013,1.9,17.454,4.506.442,5.3-.22c.644-.537.087-13.118-.239-17.3-.077-.983,2.838-.162,2.838-.162l3.011,10.085s2.606-4.109,2.253-7.776c-.2-2.057.151-8.006-1.878-10.06-1.59-1.609-5.482.4-6.608.345-2.563-.133-11.341-2.014-11.341-2.014Z" transform="translate(-30.749 -30.555)"/>
  <path id="Path_23836" data-name="Path 23836" class="cls-6" d="M33.609,39.7s4.023,1.722,6.029,2.263,5.062-1.437,7.748.75,4.561,5.935,5.436,8.872c.364,1.223,2.205,1.343,3.818,1.8,2.261.642,4.413,1.341,4.413,1.341S53.2,60.833,48.822,60.52a7.48,7.48,0,0,1-3.136-1.083c.013.05.026.1.039.146,1.414,5.478-14.547,3.055-19.319,1.906-4.355-1.049-2.195-4.131-1.75-8.654-1.629-3.826-2.346-7.454.984-10.623,3.874-3.686,5.062-1.25,7.968-2.512Z" transform="translate(-2.213 -18.887)"/>
  <path id="Path_23837" data-name="Path 23837" class="cls-1" d="M28.114,84.675l-2.762.265.177,1.9A11.488,11.488,0,0,0,28.114,84.675Z" transform="translate(29.43 -35.619)"/>
  <path id="Path_23838" data-name="Path 23838" class="cls-3" d="M36.7,57.065s.3-3.7-2.773-4.186-4.506.044-5.7,1.9a3.658,3.658,0,0,1-3.667,1.944c-1.3,0-.95.221-2.121.486-.638.144-1.749.2-2.631.312-.736.1-1.312.234-1.323.506-.022.6,3.733,0,4.551-.067s3.667.155,4.2.994.663,1.834.884,1.9,3.071.044,3.755,0,.2-1.281,1.016-1.325,2.452.021,3.115-.4a6.427,6.427,0,0,1,3.856-.2c1.723.288,4.782.818,5.622.818s2.783-.862-.111-1.171c-1.159-.124-4.525-.6-5.587-.87-.585-.151-1.319-.074-1.767-.212-.77-.235-1.317-.431-1.317-.431Z" transform="translate(14.96 -23.727)"/>
  <path id="Path_23839" data-name="Path 23839" class="cls-1" d="M50.221,55.433s-2.374-1.405-4.436-.781-2.531,3.5-1.437,4.186,5.155.781,5.749-.219.688-2.686.126-3.186Zm2.312,8.779s-1.031-2.843-6.154-2.968-9.061.219-9.31,3.436,2.312,8.622,1.78,13.652-2.624,11.778-6.436,12.5-5.392-.276-5.267.723.522,1.339,3.33,1.339c4.906,0,13.809.562,20.9-1.874s4.311-15.276,3.5-17.776-1.344-6.779-2.343-9.029Z" transform="translate(0.325 -24.39)"/>
  <path id="Path_23840" data-name="Path 23840" class="cls-4" d="M27.032,100.8c.354,0,4.816.575,4.02,9.19-.534,5.79-2.8,6.832-4.279,7.686s-5.225.492-5.4.467c-.907-.131,2.31-.635,1.593-1.438-2.606-2.916-3.932-11.531.221-14.668s3.844-1.237,3.844-1.237Z" transform="translate(29.428 -41.407)"/>
  <path id="Path_23841" data-name="Path 23841" class="cls-5" d="M34.444,100.8c.354,0,4.817.575,4.021,9.19s-5.479,9.632-8.085,6.715-3.932-11.531.22-14.668S34.444,100.8,34.444,100.8Z" transform="translate(17.361 -41.407)"/>
  <path id="Path_23842" data-name="Path 23842" class="cls-4" d="M25.807,84.741c-1.875.843-1.655,1.124-1.593,2.686S24.808,90.052,26,89.74,27.776,83.6,25.807,84.741Z" transform="translate(31.194 -35.589)"/>
  <path id="Path_23843" data-name="Path 23843" class="cls-5" d="M26.41,88.808a1.516,1.516,0,0,1,1.28,1.656,2.007,2.007,0,0,1-.2.879c-1.059.16-1.539-.868-1.6-2.348l0-.058a1.059,1.059,0,0,1,.5-.129Z" transform="translate(29.515 -37.157)"/>
  <path id="Path_23844" data-name="Path 23844" class="cls-3" d="M37.343,97.088c-2.156-4.311-2.937-7.279-8.529-6.123s-8.06,6.935-8.5,10.309,1.625,2.624,2.968-.063S27.5,97.682,31,98.119,38.374,99.962,37.343,97.088Z" transform="translate(23.231 -37.866)"/>
  <path id="Path_23845" data-name="Path 23845" class="cls-3" d="M35.885,106.871c1.718.343,2.687,1.562,2.374,5.124s-2.092,4.936-3.78,3.343S32.854,106.4,35.885,106.871Z" transform="translate(14.192 -43.869)"/>
  <path id="Path_23846" data-name="Path 23846" class="cls-4" d="M43.37,102.146c.742.148,1.16.674,1.025,2.212s-.9,2.131-1.633,1.443S42.062,101.943,43.37,102.146Zm-6.129-14.8c-1.874.843-1.655,1.124-1.593,2.686s.594,2.625,1.781,2.312,1.781-6.135-.187-5Z" transform="translate(6.683 -36.558)"/>
  <path id="Path_23847" data-name="Path 23847" class="cls-5" d="M47.236,91.41a1.516,1.516,0,0,1,1.279,1.657,2.007,2.007,0,0,1-.2.879c-1.058.16-1.539-.868-1.6-2.347l0-.058a1.059,1.059,0,0,1,.5-.13h.018Z" transform="translate(-4.387 -38.125)"/>
  <path id="Path_23848" data-name="Path 23848" class="cls-4" d="M33.8,84.437c.268-.117,3.592-1.026,4.861-.8s-.458-1.048-2.268-.646S32.618,84.486,33.8,84.437ZM33.1,82.4c.268-.117,3.592-1.026,4.861-.8s-.458-1.047-2.268-.646S31.922,82.45,33.1,82.4Zm-.576-2.166c.268-.117,3.592-1.025,4.861-.8s-.458-1.047-2.268-.646S31.346,80.284,32.529,80.234Z" transform="translate(14.165 -33.4)"/>
  <path id="Path_23849" data-name="Path 23849" class="cls-6" d="M61.159,39.7l4.023,1.722h0s-.031.129-.075.326l-.025.115-.042.2-.042.2-.036.189c-.018.091-.035.178-.053.274l-.018.1c-.044.254-.086.514-.116.766v0q-.025.2-.039.409a6.96,6.96,0,0,1-1.4-.581,7.921,7.921,0,0,1-2.756-2.241q.319-.731.576-1.486Z" transform="translate(-29.763 -18.888)"/>
  <path id="Path_23850" data-name="Path 23850" class="cls-5" d="M54.454,43.576a20.2,20.2,0,0,1-3.749,2.062c-1.063.25-3.188-4.423-2.281-5.061s10.216.094,11.434,1.187,1.531,3.717,1.063,4.342-4.155-2.312-4.155-2.312Z" transform="translate(-17.936 -19.125)"/>
  <path id="Path_23851" data-name="Path 23851" class="cls-7" d="M46.4,24.806c.163-5.2,3.715-12.262,8.4-12.115s7.9,6.433,7.737,11.631c-.253,8.072-4.83,9.518-7.272,9.523C51.418,33.852,46.232,30.255,46.4,24.806Z" transform="translate(-18.216 -8.838)"/>
  <path id="Path_23852" data-name="Path 23852" class="cls-8" d="M46.84,36.621A1.454,1.454,0,1,0,47.971,34.9,1.454,1.454,0,0,0,46.84,36.621Zm10.873-1.5a11.789,11.789,0,0,1-.771,2.644,1.455,1.455,0,0,1,.541-2.615h0A1.453,1.453,0,0,1,57.713,35.123Z" transform="translate(-13.644 -17.091)"/>
  <path id="Path_23853" data-name="Path 23853" class="cls-6" d="M49.683,32.783s.772,1.284,1.539,1.471-.044,1.421-1.083.86-.968-2.835-.455-2.331Z" transform="translate(-9.032 -16.287)"/>
  <path id="Path_23854" data-name="Path 23854" class="cls-4" d="M59.05,18.3c-2.671,1.89-2.531,1.827-4.765,1.922s-.937-.609-.937-.609a5.936,5.936,0,0,1-2.218.234,2.312,2.312,0,0,1-1.75-1.3s3.8-3.453,9.669-.25Z" transform="translate(-16.595 -10.417)"/>
  <path id="Path_23855" data-name="Path 23855" class="cls-3" d="M46.541,25.7s-5.292-.966-3.667-8.776S46.247,6.556,56.412,6.556c7.722,0,8.779,10.83,8.842,13.7a5.187,5.187,0,0,1-2.666,4.327s1.193-6.926-.443-9.048-7.643-3-9.941-1.944-2.3,3.623-2.474,5.125-.265,5.566-1.06,6.229a4.284,4.284,0,0,1-2.13.746Z" transform="translate(-18.52 -6.556)"/>
  <path id="Path_23856" data-name="Path 23856" class="cls-1" d="M61.1,27.991s.291-6.982-1.4-9.075-8.31-2.031-9.747-.593-.188,8.716-1.812,10.184a2.64,2.64,0,0,1-3.093.593,4.473,4.473,0,0,0,2.5-4.217c-.156-3.031-.75-7.591,2.281-8.59s9.935-.844,11.184,1.437,1.187,6.9,1.187,8.216a2.645,2.645,0,0,1-1.1,2.047Z" transform="translate(-17.032 -9.96)"/>
  <path id="Path_23857" data-name="Path 23857" class="cls-7" d="M25.436,56.707s1.75,2.344,1.218,3.624-1.218-.812-1.218-.812-.125,1-.531,1.062a1.633,1.633,0,0,1-.843-.156,1.466,1.466,0,0,1-.938.375,2.448,2.448,0,0,1-.968-.531s-.438.406-.843.281-.875-.992-.875-.992.991.039,1.093-.32c.188-.656-1.022-.352-1.022-.352a1.591,1.591,0,0,1,.9-2.116c1.531-.843,3.468-.781,4.03-.063Zm13.8,2.07,1.516.315s.45.766.405.961-.285.015-.555,0-.54,1.036.646,1.111,1.2-.2,1.2-.2a1.073,1.073,0,0,0,.976.646,1.194,1.194,0,0,0,1.051-.345,1.235,1.235,0,0,0,.781.345,2.442,2.442,0,0,0,1.591-2.9c-.3-1.111-1.682-1.937-3.753-1.756A7.6,7.6,0,0,0,39.236,58.777Z" transform="translate(13.737 -25.008)"/>
  <path id="Path_23858" data-name="Path 23858" class="cls-9" d="M61.787,57.163s1.736,2.11,3.724,2.288,7.834-.975,7.745-.619-6.2,1.866-8.457,1.954S61.787,57.163,61.787,57.163Zm12.057-2.632c-3.272-.589-4.573-.338-5.706-.968s-1.551-2.686-.964-2.14,8.013,2.983,6.67,3.108Z" transform="translate(-39.343 -23.214)"/>
  <path id="Path_23859" data-name="Path 23859" class="cls-1" d="M89.3,72.929c6.5,3.356,12.725,6.208,12.814,7.1s-13.26-5.584-13.853-6.534.387-.98,1.039-.563Z" transform="translate(-83.965 -31.155)"/>
  <path id="Path_23860" data-name="Path 23860" class="cls-5" d="M82.891,35.5c1.9.071,3.8.284,5.266.485.262,1.176.586,3.025.061,3.186-.772.237-1.186-1.128-1.839-.654s-1.247.711-1.6.237-1.009.534-1.543,0c-.32-.32-.36-1.972-.343-3.253Z" transform="translate(-67.087 -17.323)"/>
  <path id="Path_23861" data-name="Path 23861" class="cls-1" d="M114.628,37.51a.627.627,0,0,1,.491,1.034c-2.327,2.73-2.7,8.02-2.365,12.624a56.048,56.048,0,0,0,1.3,8.476.628.628,0,0,1-1.219.3,57.244,57.244,0,0,1-1.333-8.689c-.344-4.727-.118-10.267,2.662-13.528A.628.628,0,0,1,114.628,37.51Z" transform="translate(-108.047 -19.978)"/>
  <path id="Path_23862" data-name="Path 23862" class="cls-5" d="M51.886,29.2a2.948,2.948,0,0,1,3.458,2.643,2.011,2.011,0,0,1,.5-.185,1.535,1.535,0,0,1,.732.013,1.438,1.438,0,0,1,.229.086,2.6,2.6,0,0,1,1.961-2.614,2.743,2.743,0,0,1,2.96,2.455,2.511,2.511,0,1,1-4.866.9.292.292,0,0,1-.064-.053.853.853,0,0,0-.377-.209,1.183,1.183,0,0,0-1.1.317A2.943,2.943,0,1,1,51.886,29.2Zm.1.575a2.355,2.355,0,1,0,1.766.38,2.354,2.354,0,0,0-1.766-.38Zm6.878-.057A2.19,2.19,0,0,0,57.339,32.4a2.013,2.013,0,1,0,1.529-2.676Z" transform="translate(-15.68 -16.854)"/>
  <path id="Path_23863" data-name="Path 23863" class="cls-5" d="M72.6,22.178s1.423,2.493.978,3.027-1.424-.327-1.218,1.572-1.186-.683-1.3-1.781,1.81-.207,1.276-1.008S72,20.9,72.6,22.178Z" transform="translate(-44.813 -12.227)"/>
  <path id="Path_23864" data-name="Path 23864" class="cls-2" d="M91.348,108.123s-7.892-.568-8.871-1.191,2.463-.266,4.688.032,5.666,1.071,4.183,1.159Zm-.1-1.952s-3.818-.085-4.216-.715,6.273.612,4.216.716Z" transform="translate(-69.93 -43.284)"/>
</svg>
