<svg xmlns="http://www.w3.org/2000/svg" width="33.068" height="24.328" viewBox="0 0 33.068 24.328">
  <defs>
    <style>
      .cls-1 {
        fill: #173303;
        stroke: rgba(0,0,0,0);
        stroke-miterlimit: 10;
      }
    </style>
  </defs>
  <path id="dine-in" class="cls-1" d="M33.534,5.906a5.281,5.281,0,0,0-4,5.123V17.76a1.829,1.829,0,0,0,1.031,1.646A1.83,1.83,0,0,1,31.6,21.052v7.073a.969.969,0,0,0,1.938,0ZM5.506,29.03a.962.962,0,0,0,.96-.97V14.97H7.6a2,2,0,0,0,2-2V6.89a.98.98,0,0,0-.98-.98h-.08a.98.98,0,0,0-.98.98v5.1H6.536V6.89a.98.98,0,0,0-1.96,0v5.1H3.516V6.89a.98.98,0,0,0-.98-.98h-.09a.98.98,0,0,0-.98.98v6.14a2,2,0,0,0,2,2h1.07V28.06a.965.965,0,0,0,.97.97ZM18.47,26.97a9,9,0,1,0-9-9,9,9,0,0,0,9,9Zm0-16a7.008,7.008,0,0,1,7,7,1,1,0,0,1-2,0,5,5,0,0,0-5-5,1,1,0,0,1,0-2Z" transform="translate(-0.966 -5.266)"/>
</svg>
