<svg xmlns="http://www.w3.org/2000/svg" width="55.973" height="76.686" viewBox="0 0 55.973 76.686">
  <defs>
    <style>
      .cls-1 {
        fill: #f0373c;
      }

      .cls-2 {
        fill: #d5202a;
      }

      .cls-3 {
        fill: #fe5c6e;
      }

      .cls-4 {
        fill: #e5e5e5;
      }

      .cls-5 {
        fill: #fbfbfb;
      }

      .cls-6 {
        fill: #ffca0f;
      }

      .cls-7 {
        fill: #ffa301;
      }

      .cls-8 {
        fill: #ffed91;
      }

      .cls-9 {
        fill: #15201f;
      }
    </style>
  </defs>
  <g id="discount" transform="translate(-11.668 -3.035)">
    <path id="Path_23797" data-name="Path 23797" class="cls-1" d="M31.183,73.026,25.883,61.1,13.7,65.7,33.765,32.076l7.184,3.008Z" transform="translate(0.405 5.794)"/>
    <path id="Path_23798" data-name="Path 23798" class="cls-2" d="M38.465,34.841,28.7,72.782l-2.555-5.758,8.685-33.707Z" transform="translate(2.889 6.042)"/>
    <path id="Path_23799" data-name="Path 23799" class="cls-3" d="M40.949,35.089l-.216.828-5.374-2.243L16.983,64.465,13.7,65.7,33.764,32.078Z" transform="translate(0.405 5.795)"/>
    <path id="Path_23800" data-name="Path 23800" class="cls-1" d="M43.35,73.026,48.65,61.1l12.187,4.6L40.768,32.076l-7.184,3.008Z" transform="translate(4.373 5.794)"/>
    <path id="Path_23801" data-name="Path 23801" class="cls-2" d="M60.258,65.7,54.3,63.457,36.5,33.625l3.695-1.547Z" transform="translate(4.954 5.795)"/>
    <path id="Path_23802" data-name="Path 23802" class="cls-3" d="M45.041,69.215,43.35,73.03,33.586,35.089l7.185-3.011.54.9-5.05,2.111Z" transform="translate(4.373 5.795)"/>
    <path id="Path_23803" data-name="Path 23803" class="cls-4" d="M65.324,33.752l-.01.01a3.762,3.762,0,0,0-.884,4.471v0a3.758,3.758,0,0,1-2.153,5.208,3.756,3.756,0,0,0-2.531,3.79v.01a3.751,3.751,0,0,1-3.974,3.982h-.008a3.747,3.747,0,0,0-3.781,2.536,3.744,3.744,0,0,1-5.2,2.159h0a3.741,3.741,0,0,0-4.461.886l-.008.01a3.741,3.741,0,0,1-5.619,0l-.01-.011a3.741,3.741,0,0,0-4.46-.886h0a3.744,3.744,0,0,1-5.2-2.159,3.747,3.747,0,0,0-3.781-2.537h-.008a3.751,3.751,0,0,1-3.974-3.982v-.008a3.756,3.756,0,0,0-2.531-3.79,3.758,3.758,0,0,1-2.153-5.21v0a3.762,3.762,0,0,0-.884-4.471l-.008-.008a3.762,3.762,0,0,1,0-5.632l.01-.01a3.762,3.762,0,0,0,.884-4.471v0a3.758,3.758,0,0,1,2.153-5.21,3.756,3.756,0,0,0,2.531-3.79v-.008a3.751,3.751,0,0,1,3.974-3.982h.008a3.747,3.747,0,0,0,3.781-2.536,3.744,3.744,0,0,1,5.2-2.159h0a3.741,3.741,0,0,0,4.461-.886l.008-.01a3.741,3.741,0,0,1,5.619,0l.008.01a3.741,3.741,0,0,0,4.461.888h0a3.744,3.744,0,0,1,5.2,2.159,3.747,3.747,0,0,0,3.782,2.536h.008a3.751,3.751,0,0,1,3.974,3.984v.008a3.756,3.756,0,0,0,2.53,3.79,3.758,3.758,0,0,1,2.154,5.21h0a3.762,3.762,0,0,0,.885,4.472l.008.008a3.762,3.762,0,0,1,0,5.632Z" transform="translate(0.15 0.149)"/>
    <path id="Path_23804" data-name="Path 23804" class="cls-5" d="M51.988,8.106a1.433,1.433,0,0,0,.132.312,3.626,3.626,0,0,0-2.615.24l-.012.012a3.744,3.744,0,0,1-4.45-.888L45.03,7.77a3.753,3.753,0,0,0-5.626,0v.012a3.762,3.762,0,0,1-4.462.888V8.658A3.666,3.666,0,0,0,33.3,8.274a3.748,3.748,0,0,0-3.551,2.543A3.762,3.762,0,0,1,26.2,13.372c-.084,0-.156-.012-.24-.012a3.752,3.752,0,0,0-3.982,3.982v.012c0,.084.012.156.012.24a3.751,3.751,0,0,1-2.543,3.551A3.757,3.757,0,0,0,17.3,26.351a3.762,3.762,0,0,1-.888,4.474l-.012.012a3.753,3.753,0,0,0,0,5.626l.012.012a3.757,3.757,0,0,1,.888,4.474,3.752,3.752,0,0,0-.384,1.655,3.365,3.365,0,0,0,.144.984,1.913,1.913,0,0,0-.324-.144,3.778,3.778,0,0,1-2.543-3.575,3.872,3.872,0,0,1,.384-1.643h.012a3.762,3.762,0,0,0-.888-4.462l-.012-.012a3.766,3.766,0,0,1,0-5.638H13.7a3.778,3.778,0,0,0,.888-4.474h-.012a3.777,3.777,0,0,1,2.159-5.218,3.755,3.755,0,0,0,2.543-3.551c0-.084-.012-.156-.012-.24s-.012-.168-.012-.24a3.753,3.753,0,0,1,3.982-3.743h.012a3.749,3.749,0,0,0,3.778-2.543,3.774,3.774,0,0,1,3.563-2.543,3.666,3.666,0,0,1,1.643.384,3.666,3.666,0,0,0,1.643.384,3.757,3.757,0,0,0,2.819-1.271A3.7,3.7,0,0,1,39.5,3.788,3.747,3.747,0,0,1,42.32,5.059a3.757,3.757,0,0,0,2.819,1.271,3.666,3.666,0,0,0,1.643-.384,3.666,3.666,0,0,1,1.643-.384,3.774,3.774,0,0,1,3.563,2.543ZM19.145,46.023a3.643,3.643,0,0,1-2.087-2.435A3.657,3.657,0,0,1,19.145,46.023ZM54.579,10.529A3.64,3.64,0,0,1,52.12,8.418,3.686,3.686,0,0,1,54.579,10.529Z" transform="translate(0.15 0.15)"/>
    <ellipse id="Ellipse_2189" data-name="Ellipse 2189" class="cls-6" cx="18.763" cy="18.807" rx="18.763" ry="18.807" transform="translate(20.892 12.277)"/>
    <path id="Path_23805" data-name="Path 23805" class="cls-7" d="M56.272,28.942A18.755,18.755,0,0,1,22.446,40.157,18.789,18.789,0,0,0,48.6,13.768a18.813,18.813,0,0,1,7.677,15.174Z" transform="translate(2.15 2.141)"/>
    <path id="Path_23806" data-name="Path 23806" class="cls-8" d="M52.4,17.347A18.789,18.789,0,0,0,25.989,43.9,18.792,18.792,0,1,1,52.4,17.347Z" transform="translate(1.534 1.537)"/>
    <path id="Path_23807" data-name="Path 23807" class="cls-9" d="M54.857,52.394c1.124-.344,2.762.348,4.582-1.471,2.565-2.563.077-5.383,3.279-6.48a4.66,4.66,0,0,0,2.669-6.459,2.9,2.9,0,0,1,.683-3.408,4.66,4.66,0,0,0,1.571-3.491c0-3.575-3.723-3.9-2.251-6.9a4.659,4.659,0,0,0-2.671-6.456c-3.224-1.1-.7-3.9-3.278-6.48-2.562-2.561-5.362-.064-6.456-3.278a4.645,4.645,0,0,0-6.447-2.675c-3.059,1.5-3.232-2.26-6.882-2.26-3.59,0-3.872,3.74-6.883,2.259A4.645,4.645,0,0,0,26.326,7.97c-1.108,3.261-3.858.678-6.455,3.278-2.565,2.562-.077,5.383-3.279,6.477a4.66,4.66,0,0,0-2.67,6.459c1.508,3.079-2.254,3.235-2.254,6.9,0,3.583,3.731,3.886,2.253,6.9a4.659,4.659,0,0,0,2.671,6.456c3.239,1.107.686,3.886,3.277,6.479,1.792,1.791,3.488,1.138,4.585,1.474L13.328,71.036a.9.9,0,0,0,1.09,1.3l11.392-4.3,4.954,11.147a.9.9,0,0,0,1.694-.142L37.7,58.7a4.573,4.573,0,0,0,3.916,0l5.24,20.35a.9.9,0,0,0,1.694.142L53.5,68.039l11.393,4.3a.9.9,0,0,0,1.09-1.3L54.858,52.394Zm-23.5,23.7-4.249-9.561a.9.9,0,0,0-1.14-.476l-9.778,3.69,9.731-16.305c.588.8.751,2.617,3.023,3.559,3.349,1.385,4.929-1.962,7.191.529L31.358,76.094Zm6.154-19.733a4.654,4.654,0,0,0-5.536-1.1,2.846,2.846,0,0,1-3.949-1.643,4.658,4.658,0,0,0-4.7-3.143,2.851,2.851,0,0,1-3.019-3.038,4.665,4.665,0,0,0-3.137-4.7,2.861,2.861,0,0,1-1.637-3.963,4.676,4.676,0,0,0-1.106-5.55,2.862,2.862,0,0,1,.011-4.293,4.676,4.676,0,0,0,1.1-5.542,2.86,2.86,0,0,1,1.637-3.963,4.67,4.67,0,0,0,3.137-4.707,2.852,2.852,0,0,1,3.029-3.029,4.679,4.679,0,0,0,4.69-3.143,2.846,2.846,0,0,1,3.948-1.643A4.651,4.651,0,0,0,37.52,5.8a2.928,2.928,0,0,1,4.277.01,4.651,4.651,0,0,0,5.535,1.1A2.845,2.845,0,0,1,51.281,8.55a4.628,4.628,0,0,0,4.7,3.143A2.852,2.852,0,0,1,59,14.732a4.665,4.665,0,0,0,3.137,4.7,2.86,2.86,0,0,1,1.636,3.964,4.677,4.677,0,0,0,1.107,5.549,2.862,2.862,0,0,1,0,4.283c-.072.128-2.615,2.467-1.106,5.553a2.861,2.861,0,0,1-1.637,3.962A4.669,4.669,0,0,0,59,47.447a2.852,2.852,0,0,1-3.029,3.028,4.672,4.672,0,0,0-4.69,3.145,2.845,2.845,0,0,1-3.949,1.641,4.655,4.655,0,0,0-5.542,1.108,2.929,2.929,0,0,1-4.277-.01Zm15.826,9.7a.9.9,0,0,0-1.14.476l-4.25,9.561L43.171,57.528c2.248-2.5,3.836.86,7.191-.528,2.279-.945,2.424-2.741,3.023-3.56l9.733,16.306-9.776-3.69Z" transform="translate(0 0)"/>
    <path id="Path_23808" data-name="Path 23808" class="cls-9" d="M57.933,29.7A19.663,19.663,0,1,0,38.271,49.4,19.707,19.707,0,0,0,57.933,29.7ZM38.271,47.6A17.906,17.906,0,1,1,56.134,29.7,17.906,17.906,0,0,1,38.271,47.6Z" transform="translate(1.385 1.388)"/>
    <path id="Path_23809" data-name="Path 23809" class="cls-9" d="M34.454,26.468a5.075,5.075,0,0,0,0-6.012,3.829,3.829,0,0,0-5.554,0,5.07,5.07,0,0,0,0,6.011,3.828,3.828,0,0,0,5.554,0Zm-4.34-1.088a3.534,3.534,0,0,1,0-3.836,1.993,1.993,0,0,1,3.125,0,3.534,3.534,0,0,1,0,3.836A1.994,1.994,0,0,1,30.114,25.38Zm11.631-5.731a.826.826,0,0,0-1.224.188l-9.5,15.226a.753.753,0,0,0,.118.948.785.785,0,0,0,1.238-.2L41.8,20.678a.769.769,0,0,0-.06-1.029Zm-3.372,9.578a5.07,5.07,0,0,0,0,6.01,3.827,3.827,0,0,0,5.554,0,5.064,5.064,0,0,0,0-6.01A3.828,3.828,0,0,0,38.373,29.227Zm4.342,4.923a2,2,0,0,1-3.128,0,3.545,3.545,0,0,1,0-3.836,2,2,0,0,1,3.127,0,3.545,3.545,0,0,1,0,3.836Z" transform="translate(3.241 3.238)"/>
  </g>
</svg>
