<svg width="38" height="38" viewBox="0 0 38 38" fill="none" xmlns="http://www.w3.org/2000/svg">
<circle cx="19" cy="19" r="18.25" stroke="url(#paint0_linear_4923_74)" stroke-width="1.5"/>
<g clip-path="url(#clip0_4923_74)">
<path d="M25.3366 21.1746H16.6731L21.4597 18.507C21.9601 18.2271 22.1408 17.5922 21.8623 17.0912L21.1489 15.812C20.8684 15.311 20.2329 15.1312 19.7329 15.4109L17.7417 16.5204C17.9759 16.0505 18.1216 15.5898 18.1755 15.1423C18.2653 14.3972 18.0963 13.7247 17.6866 13.1975C17.0207 12.3407 15.8581 12.0559 14.8591 12.5048C14.682 12.5844 14.603 12.7925 14.6826 12.9696C14.7622 13.1467 14.9703 13.2258 15.1474 13.1462C15.8494 12.8306 16.6653 13.0292 17.1314 13.629C17.8007 14.4903 17.5439 15.8374 16.4473 17.2417L16.0227 17.4783L15.7154 16.9278C15.6365 16.786 15.5341 16.6623 15.4136 16.5602C15.4883 16.1131 15.6965 15.5344 15.9266 15.1565C16.0276 14.9907 15.9751 14.7744 15.8092 14.6734C15.6434 14.5724 15.4271 14.625 15.3261 14.7908C15.0784 15.1976 14.8638 15.7612 14.7559 16.2598C14.4614 16.2128 14.1624 16.2647 13.8994 16.4113L13.7778 16.4791C13.7296 15.4647 13.8868 14.6157 14.2412 14.0034C14.3385 13.8354 14.2811 13.6203 14.1131 13.523C13.9451 13.4259 13.7299 13.4832 13.6327 13.6512C13.1624 14.4637 12.9832 15.5419 13.0983 16.8579L12.6738 17.0946C10.8799 15.7611 9.12471 15.4885 7.94707 16.372C7.09451 17.0115 6.77332 18.1432 7.16604 19.124C7.56673 20.1247 8.56863 20.7341 9.94891 20.8628L7.91046 21.9987C7.4104 22.2775 7.23007 22.912 7.5087 23.4132L8.22199 24.6934C8.41207 25.034 8.76729 25.2263 9.13296 25.2263C9.30424 25.2263 9.47782 25.1841 9.6378 25.0953C9.63795 25.0952 9.63809 25.0951 9.63823 25.095L11.9354 23.8148V29.5411C11.9354 30.2295 12.4956 30.7895 13.1842 30.7895H24.9411C25.6297 30.7895 26.19 30.2295 26.19 29.5411V22.0278C26.1899 21.5573 25.8071 21.1746 25.3366 21.1746ZM13.6204 22.0709L12.5786 20.2024L15.7511 18.4347L16.7929 20.3029L15.2065 21.187C15.1499 21.2022 15.099 21.231 15.0575 21.27L13.6204 22.0709ZM20.0757 16.0249C20.1275 15.9958 20.1838 15.9821 20.2395 15.9821C20.358 15.9821 20.4732 16.0445 20.5352 16.155L21.248 17.4332C21.3384 17.5957 21.2794 17.8022 21.117 17.8931L17.4071 19.9606L16.3654 18.0923L20.0757 16.0249ZM14.2418 17.0256C14.3361 16.973 14.4403 16.9463 14.5463 16.9463C14.6047 16.9463 14.6636 16.9544 14.7217 16.9709C14.8849 17.0172 15.0196 17.1233 15.1013 17.2702L15.4084 17.8204L12.2361 19.5881L11.9285 19.0362C11.868 18.9277 11.8418 18.806 11.8512 18.684C11.8516 18.6806 11.852 18.6773 11.8522 18.6739C11.8559 18.635 11.8628 18.5961 11.8738 18.5576C11.9201 18.3949 12.0263 18.2605 12.1731 18.1789L14.2418 17.0256ZM7.81877 18.8628C7.54404 18.1766 7.77026 17.3837 8.36899 16.9346C9.23126 16.2878 10.5633 16.4936 11.9945 17.4734L11.8312 17.5644C11.5726 17.7082 11.3738 17.9292 11.2578 18.1971C10.7936 18.0509 10.3766 17.9706 9.77941 17.9052C9.58624 17.8842 9.4128 18.0235 9.39166 18.2164C9.37052 18.4095 9.50988 18.5831 9.70287 18.6042C10.3598 18.6761 10.7463 18.7656 11.1571 18.9033C11.1785 19.0683 11.2311 19.2293 11.3144 19.3787L11.622 19.9305L11.2382 20.1444C9.49352 20.3352 8.21754 19.8588 7.81877 18.8628ZM9.29599 24.4809C9.13554 24.5697 8.92493 24.5103 8.83605 24.3511L8.12309 23.0715C8.03271 22.9089 8.09098 22.7032 8.25284 22.6129L11.5046 20.8009C11.5149 20.7958 11.5249 20.7903 11.5346 20.7843L11.9644 20.5447L13.0063 22.4132L12.1217 22.9062C12.1198 22.9072 12.118 22.9083 12.1161 22.9093L9.29599 24.4809ZM12.6386 29.5411V23.423L15.4114 21.8777H17.0325V24.9912C17.0325 25.1853 17.1899 25.3427 17.3841 25.3427C17.5782 25.3427 17.7356 25.1853 17.7356 24.9912V21.8777H20.3897V30.0865H17.7356V26.6568C17.7356 26.4627 17.5782 26.3052 17.3841 26.3052C17.1899 26.3052 17.0325 26.4627 17.0325 26.6568V30.0865H13.1842C12.8833 30.0865 12.6386 29.8418 12.6386 29.5411ZM25.4868 29.5411C25.4868 29.8418 25.242 30.0865 24.9411 30.0865H21.0928V21.8777H25.3366C25.418 21.8777 25.4868 21.9464 25.4868 22.0278V29.5411Z" fill="url(#paint1_linear_4923_74)"/>
<path d="M24.0479 13.2977C24.0526 13.3409 24.4987 17.6396 22.9936 19.2712C22.8619 19.414 22.8709 19.6364 23.0136 19.768C23.0812 19.8303 23.1666 19.8611 23.2519 19.8611C23.3466 19.8611 23.4411 19.8231 23.5104 19.7479C25.2298 17.884 24.7674 13.4114 24.7469 13.2219C24.726 13.0289 24.5527 12.8896 24.3595 12.9102C24.1665 12.9312 24.027 13.1047 24.0479 13.2977Z" fill="url(#paint2_linear_4923_74)"/>
<path d="M27.2632 12.7759C26.6684 13.6866 26.4795 14.4994 26.4717 14.5336C26.4288 14.7227 26.5471 14.9104 26.7361 14.9537C26.7625 14.9597 26.7888 14.9627 26.8148 14.9627C26.9748 14.9627 27.1196 14.8524 27.1572 14.6898C27.1589 14.6825 27.3329 13.9471 27.8656 13.1395C28.5665 12.0769 29.53 11.3929 30.7292 11.1067C30.918 11.0616 31.0346 10.872 30.9895 10.6831C30.9445 10.4942 30.7548 10.3777 30.5659 10.4228C29.1973 10.7494 28.0552 11.5631 27.2632 12.7759Z" fill="url(#paint3_linear_4923_74)"/>
<path d="M20.0522 10.8447C20.0535 10.8532 20.0551 10.8737 20.0519 10.9149L19.9691 11.9378C19.9574 12.0463 19.9341 12.2891 20.1323 12.4391C20.3339 12.5916 20.5706 12.496 20.6753 12.4537L21.6149 12.0621C21.6335 12.0561 21.6794 12.0559 21.6963 12.0612L22.6434 12.4551C22.7029 12.4792 22.8097 12.5224 22.9286 12.5224C23.0111 12.5224 23.0994 12.5016 23.1819 12.4392C23.3795 12.2896 23.3564 12.0468 23.3446 11.938L23.2633 10.9166C23.2602 10.8754 23.2613 10.8545 23.2624 10.8452L23.9449 10.0227C24.0238 9.93316 24.1794 9.7519 24.1061 9.51687C24.0317 9.27841 23.7895 9.21827 23.686 9.19259L22.6483 8.9352L22.1025 8.02418C22.0523 7.93948 21.919 7.71457 21.6586 7.71387C21.6581 7.71387 21.6577 7.71387 21.6573 7.71387C21.3976 7.71387 21.263 7.93802 21.2123 8.02254C21.2123 8.02263 21.2122 8.02273 21.2122 8.02282L20.6706 8.9269L20.6657 8.93524L19.6272 9.19277C19.524 9.21855 19.2822 9.27898 19.2081 9.51738C19.1349 9.75237 19.2959 9.93987 19.369 10.0229L20.0522 10.8447ZM20.8684 9.60935C21.1029 9.55141 21.1874 9.4353 21.2601 9.31127L21.6568 8.64855L22.0572 9.3169C22.1296 9.43835 22.2136 9.55212 22.4449 9.60926L23.2157 9.80041L22.7193 10.3985C22.5562 10.5914 22.5496 10.8052 22.5623 10.9712L22.619 11.6835L21.9682 11.4127C21.7833 11.3346 21.5337 11.3344 21.3471 11.4121L20.6951 11.6838L20.7529 10.97C20.7643 10.8197 20.7607 10.5971 20.5976 10.4009L20.0983 9.80037L20.8684 9.60935Z" fill="url(#paint4_linear_4923_74)"/>
<path d="M30.8191 18.1045C30.8932 18.0211 31.0544 17.8342 30.9816 17.5991C30.9076 17.3598 30.6645 17.2995 30.5606 17.2737L29.5244 17.0167L28.9775 16.1036C28.9268 16.0191 28.7922 15.7949 28.5325 15.7949C28.5321 15.7949 28.5317 15.7949 28.5313 15.7949C28.2718 15.7956 28.1385 16.019 28.0878 16.1043L27.5453 17.0079L27.5401 17.0167L26.5037 17.2737C26.4 17.2994 26.1569 17.3598 26.0829 17.599C26.0102 17.8341 26.1713 18.0211 26.2454 18.1044L26.9275 18.9263C26.9285 18.9355 26.9297 18.956 26.9267 18.9959L26.8438 20.0187C26.8328 20.1268 26.8102 20.3717 27.0089 20.521C27.2101 20.6721 27.4458 20.5769 27.55 20.5347L28.4897 20.1431C28.5088 20.137 28.5557 20.137 28.5723 20.1422L29.518 20.5361C29.5776 20.5602 29.6843 20.6033 29.8032 20.6033C29.8854 20.6033 29.9734 20.5827 30.0557 20.5209C30.2544 20.3716 30.2318 20.1268 30.2208 20.0186L30.1381 18.9976C30.1349 18.9565 30.136 18.9355 30.1371 18.9262L30.8191 18.1045ZM29.5941 18.4796C29.4309 18.6724 29.4243 18.8862 29.437 19.0527L29.4947 19.7648L28.8426 19.4931C28.657 19.4157 28.4074 19.4158 28.2218 19.4931L27.5698 19.7648L27.6276 19.051C27.6402 18.8862 27.6336 18.6724 27.4726 18.4822L26.9741 17.8814L27.7455 17.6901C27.9781 17.632 28.0622 17.5162 28.1347 17.3926L28.5328 16.7293L28.9157 17.3686L28.9299 17.3926C29.0023 17.5163 29.0865 17.632 29.3197 17.6903L30.0905 17.8814L29.5941 18.4796Z" fill="url(#paint5_linear_4923_74)"/>
<path d="M27.249 10.7261C28.2188 10.7261 29.0078 9.93798 29.0078 8.96922C29.0078 7.9997 28.2188 7.21094 27.249 7.21094C26.2792 7.21094 25.4902 7.9997 25.4902 8.96922C25.4902 9.93798 26.2792 10.7261 27.249 10.7261ZM27.249 7.91406C27.8311 7.91406 28.3047 8.38741 28.3047 8.96922C28.3047 9.55028 27.8311 10.023 27.249 10.023C26.6669 10.023 26.1934 9.55028 26.1934 8.96922C26.1934 8.38741 26.6669 7.91406 27.249 7.91406Z" fill="url(#paint6_linear_4923_74)"/>
</g>
<defs>
<linearGradient id="paint0_linear_4923_74" x1="1" y1="23.5" x2="38" y2="23" gradientUnits="userSpaceOnUse">
<stop stop-color="#FAAE2C"/>
<stop offset="1" stop-color="#F37924"/>
</linearGradient>
<linearGradient id="paint1_linear_4923_74" x1="16.595" y1="12.2939" x2="16.595" y2="30.7895" gradientUnits="userSpaceOnUse">
<stop stop-color="#FAAE2C"/>
<stop offset="1" stop-color="#F37924"/>
</linearGradient>
<linearGradient id="paint2_linear_4923_74" x1="23.8594" y1="12.9082" x2="23.8594" y2="19.8611" gradientUnits="userSpaceOnUse">
<stop stop-color="#FAAE2C"/>
<stop offset="1" stop-color="#F37924"/>
</linearGradient>
<linearGradient id="paint3_linear_4923_74" x1="28.731" y1="10.4131" x2="28.731" y2="14.9627" gradientUnits="userSpaceOnUse">
<stop stop-color="#FAAE2C"/>
<stop offset="1" stop-color="#F37924"/>
</linearGradient>
<linearGradient id="paint4_linear_4923_74" x1="21.6574" y1="7.71387" x2="21.6574" y2="12.5224" gradientUnits="userSpaceOnUse">
<stop stop-color="#FAAE2C"/>
<stop offset="1" stop-color="#F37924"/>
</linearGradient>
<linearGradient id="paint5_linear_4923_74" x1="28.5322" y1="15.7949" x2="28.5322" y2="20.6033" gradientUnits="userSpaceOnUse">
<stop stop-color="#FAAE2C"/>
<stop offset="1" stop-color="#F37924"/>
</linearGradient>
<linearGradient id="paint6_linear_4923_74" x1="27.249" y1="7.21094" x2="27.249" y2="10.7261" gradientUnits="userSpaceOnUse">
<stop stop-color="#FAAE2C"/>
<stop offset="1" stop-color="#F37924"/>
</linearGradient>
<clipPath id="clip0_4923_74">
<rect width="24" height="24" fill="white" transform="translate(7 7)"/>
</clipPath>
</defs>
</svg>
