<svg xmlns="http://www.w3.org/2000/svg" width="30.016" height="22.005" viewBox="0 0 30.016 22.005">
  <defs>
    <style>
      .cls-1 {
        fill: #6b6b82;
      }
    </style>
  </defs>
  <g id="group" transform="translate(0)">
    <path id="Path_24024" data-name="Path 24024" class="cls-1" d="M15.868,14.883a4.942,4.942,0,1,0-4.942-4.942A4.942,4.942,0,0,0,15.868,14.883Zm0-7.882a2.942,2.942,0,1,1-2.942,2.942A2.942,2.942,0,0,1,15.868,7Z" transform="translate(-0.993 -4.999)"/>
    <path id="Path_24025" data-name="Path 24025" class="cls-1" d="M6.534,17.786a3.8,3.8,0,1,0-3.8-3.8,3.8,3.8,0,0,0,3.8,3.8Zm0-5.6a1.8,1.8,0,1,1-1.8,1.8,1.8,1.8,0,0,1,1.8-1.8Z" transform="translate(-0.994 -4.998)"/>
    <path id="Path_24026" data-name="Path 24026" class="cls-1" d="M25.2,17.786a3.8,3.8,0,1,0-3.8-3.8,3.8,3.8,0,0,0,3.8,3.8Zm0-5.6a1.8,1.8,0,1,1-1.8,1.8A1.8,1.8,0,0,1,25.2,12.185Z" transform="translate(-0.991 -4.998)"/>
    <path id="Path_24027" data-name="Path 24027" class="cls-1" d="M25.337,19.792a5.27,5.27,0,0,0-2.506.653A8.238,8.238,0,0,0,16,16.607a8.238,8.238,0,0,0-6.828,3.838,5.27,5.27,0,0,0-2.506-.653A5.964,5.964,0,0,0,1,26a1,1,0,0,0,2,0,3.972,3.972,0,0,1,3.668-4.21,3.273,3.273,0,0,1,1.577.419,10.087,10.087,0,0,0-.711,3.733,1,1,0,0,0,2,0c0-4.046,2.9-7.336,6.468-7.336s6.468,3.291,6.468,7.336a1,1,0,1,0,2,0,10.087,10.087,0,0,0-.711-3.733,3.273,3.273,0,0,1,1.577-.419A3.972,3.972,0,0,1,29,26a1,1,0,0,0,2,0,5.964,5.964,0,0,0-5.668-6.21Z" transform="translate(-0.994 -4.997)"/>
  </g>
</svg>
