<?xml version="1.0" encoding="UTF-8"?>
<svg id="Layer_2" data-name="Layer 2" xmlns="http://www.w3.org/2000/svg" viewBox="0 0 16.27 18.98">
  <defs>
    <style>
      .cls-1 {
        fill: #f0f0f0;
      }

      .cls-2 {
        fill: #fa6450;
      }

      .cls-3 {
        fill: #505050;
      }

      .cls-4 {
        fill: #dc4632;
      }

      .cls-5 {
        fill: #fab400;
      }

      .cls-6 {
        fill: #d2d2d2;
      }
    </style>
  </defs>
  <g id="calories">
    <g>
      <path id="Path_23652" data-name="Path 23652" class="cls-1" d="m8.14,14.92h8.14v4.07h-8.14v-4.07Z"/>
      <path id="Path_23653" data-name="Path 23653" class="cls-2" d="m7.46,14.24h5.19c.6-1.03.91-2.2.92-3.39v-5.42l-.08.04c-1.71.85-3.09,2.24-3.94,3.94l-.04.08v-2.55c0-1.87-.55-3.71-1.59-5.27l-1.12-1.68-1.12,1.68c-1.04,1.56-1.59,3.39-1.59,5.26v2.55l-.04-.08c-.85-1.71-2.24-3.09-3.94-3.94l-.08-.04v5.42c0,3.74,3.04,6.78,6.78,6.78h0c.23,0,.45-.01.68-.03v-3.36Z"/>
      <path id="Path_23654" data-name="Path 23654" class="cls-4" d="m1.36,10.85v-4.6c-.4-.3-.83-.56-1.27-.78l-.08-.04v5.42c0,3.74,3.04,6.78,6.78,6.78.23,0,.45-.01.68-.03-3.46-.35-6.1-3.26-6.1-6.75Z"/>
      <path id="Path_23655" data-name="Path 23655" class="cls-5" d="m7.46,14.24h1.17l-1.84-4.75-2.02,5.19c-.44,1.11.11,2.36,1.22,2.8.47.19,1,.2,1.48.04v-3.28Z"/>
      <path id="Path_23656" data-name="Path 23656" class="cls-6" d="m8.14,14.92h.68v4.07h-.68v-4.07Z"/>
      <path id="Path_23657" data-name="Path 23657" class="cls-3" d="m10.17,16.05h-.46l-.45.45v-.45h-.45v1.81h.45v-.45l.45.45h.45l-.9-.9.9-.91Zm1.81.45v-.45h-1.36v1.81h1.36v-.45h-.9v-.9h.9Zm.45-.45v1.81h.45v-.45h.45v.45h.45v-1.81h-1.36Zm.9.9h-.45v-.45h.45v.45Zm1.36.49v-1.39h-.45v1.81h1.36v-.42h-.91Z"/>
    </g>
  </g>
</svg>