<svg xmlns="http://www.w3.org/2000/svg" width="19.451" height="27.088" viewBox="0 0 19.451 27.088">
  <defs>
    <style>
      .cls-1 {
        fill: #6b6b82;
        stroke: rgba(0,0,0,0);
        stroke-miterlimit: 10;
      }
    </style>
  </defs>
  <path id="restaurant-place" class="cls-1" d="M12.726,0A9.236,9.236,0,0,0,3.5,9.225c0,8.919,8.508,16.378,8.871,16.691a.544.544,0,0,0,.71,0c.363-.314,8.871-7.772,8.871-16.691A9.236,9.236,0,0,0,12.726,0Zm0,7.055c0,1.458-.6,2.405-1.628,2.647v3.865a.543.543,0,0,1-1.085,0V9.7C8.984,9.46,8.384,8.512,8.384,7.055V5.969a.543.543,0,0,1,1.085,0V7.055c0,.927.265,1.318.543,1.489V5.969a.543.543,0,0,1,1.085,0V8.544c.278-.173.543-.563.543-1.489V5.969a.543.543,0,0,1,1.085,0Zm3.8,6.512a.543.543,0,0,1-1.085,0V10.854H14.354c-.174,0-.742-.076-.742-1.052A7.623,7.623,0,0,1,14.2,7.25c.495-1.21,1.1-1.823,1.787-1.823a.543.543,0,0,1,.543.543Z" transform="translate(-3 0.5)"/>
</svg>
