<svg id="pound_3_" data-name="pound (3)" xmlns="http://www.w3.org/2000/svg" width="23.143" height="23.142" viewBox="0 0 23.143 23.142">
  <defs>
    <style>
      .cls-1 {
        fill: #6b6b82;
      }
    </style>
  </defs>
  <path id="Path_21701" data-name="Path 21701" class="cls-1" d="M34.671,23.1A11.571,11.571,0,1,0,46.243,34.671,11.617,11.617,0,0,0,34.671,23.1Zm1.612,11.192v1.518h-1.9v1.707h3.32v1.612H31.541V37.516h.948V35.809h-.948V34.292h.948V33.059a2.88,2.88,0,0,1,.759-2.181,2.672,2.672,0,0,1,1.992-.664A2.709,2.709,0,0,1,37.8,31.731l-1.328,1.043A1.21,1.21,0,0,0,36,32.11a.917.917,0,0,0-1.328,0,1.159,1.159,0,0,0-.285.854v1.328Z" transform="translate(-23.1 -23.1)"/>
</svg>
