<svg width="38" height="38" viewBox="0 0 38 38" fill="none" xmlns="http://www.w3.org/2000/svg">
<path d="M22.2609 10.1844C22.0556 9.91283 21.7904 9.69236 21.4859 9.54012C21.1814 9.38788 20.8459 9.30798 20.5055 9.30666H18.75V7.99007C18.7535 7.75958 18.8475 7.53971 19.0117 7.37795C19.176 7.21618 19.3972 7.12551 19.6277 7.12552C19.8583 7.12552 20.0795 7.2162 20.2438 7.37797C20.408 7.53974 20.502 7.75962 20.5055 7.99011V8.42892H21.3832V7.99007C21.3792 7.52713 21.1925 7.0845 20.8637 6.75856C20.5349 6.43261 20.0907 6.24974 19.6277 6.24974C19.1648 6.24975 18.7205 6.43263 18.3918 6.75858C18.063 7.08453 17.8763 7.52716 17.8723 7.99011V10.6233C17.8721 10.6957 17.8688 11.0885 17.8767 11.1499C17.8989 11.3662 18.0005 11.5666 18.1618 11.7124C18.323 11.8583 18.5326 11.9393 18.75 11.9398C18.8653 11.9416 18.9752 11.9886 19.0561 12.0707C19.137 12.1528 19.1823 12.2635 19.1823 12.3787C19.1823 12.494 19.1369 12.6047 19.0561 12.6868C18.9752 12.7689 18.8652 12.8159 18.75 12.8176C18.5194 12.8177 18.2911 12.7723 18.0781 12.6841C17.8651 12.5959 17.6716 12.4666 17.5086 12.3036C17.3455 12.1405 17.2162 11.947 17.128 11.734C17.0399 11.521 16.9945 11.2927 16.9946 11.0621V9.30668C16.654 9.30752 16.3184 9.3872 16.0138 9.53947C15.7092 9.69175 15.4441 9.91248 15.2391 10.1844L13.4836 12.5235C13.2008 12.9044 13.0471 13.3657 13.0447 13.8401V29.0557C13.045 29.6376 13.2762 30.1956 13.6877 30.6071C14.0992 31.0185 14.6572 31.2498 15.2391 31.25H22.261C22.8429 31.2498 23.4009 31.0185 23.8123 30.6071C24.2238 30.1956 24.4551 29.6376 24.4553 29.0557V13.8401C24.455 13.3654 24.3011 12.9035 24.0164 12.5235L22.2609 10.1844ZM16.2441 14.7749C16.6234 14.7804 16.9853 14.9349 17.2516 15.2051C17.518 15.4753 17.6672 15.8394 17.6672 16.2188C17.6672 16.5982 17.5179 16.9623 17.2516 17.2325C16.9853 17.5026 16.6234 17.6572 16.244 17.6626C15.8648 17.6569 15.5031 17.5023 15.237 17.2322C14.9709 16.962 14.8217 16.598 14.8217 16.2188C14.8217 15.8395 14.9709 15.4755 15.237 15.2054C15.5031 14.9352 15.8649 14.7806 16.2441 14.7749ZM22.2609 28.6168H15.2391C15.1238 28.615 15.0139 28.568 14.933 28.4859C14.8521 28.4038 14.8068 28.2932 14.8068 28.1779C14.8068 28.0626 14.8521 27.952 14.933 27.8699C15.0139 27.7878 15.1239 27.7408 15.2391 27.7391H22.2609C22.3763 27.7407 22.4863 27.7876 22.5673 27.8698C22.6483 27.9519 22.6937 28.0626 22.6937 28.1779C22.6937 28.2933 22.6483 28.404 22.5673 28.4861C22.4863 28.5682 22.3763 28.6152 22.2609 28.6168ZM22.2609 25.1058H15.2391C15.1238 25.1041 15.0139 25.0571 14.933 24.975C14.8521 24.8929 14.8068 24.7822 14.8068 24.667C14.8068 24.5517 14.8521 24.4411 14.933 24.359C15.0139 24.2769 15.1239 24.2299 15.2391 24.2281H22.2609C22.3763 24.2297 22.4863 24.2767 22.5673 24.3588C22.6483 24.441 22.6937 24.5517 22.6937 24.667C22.6937 24.7823 22.6483 24.893 22.5673 24.9751C22.4863 25.0573 22.3763 25.1042 22.2609 25.1058ZM21.256 19.7912C21.636 19.7948 21.9991 19.9483 22.2665 20.2183C22.534 20.4882 22.684 20.8529 22.684 21.2329C22.684 21.6129 22.5339 21.9775 22.2665 22.2474C21.9991 22.5174 21.6359 22.6709 21.256 22.6745C20.8761 22.6707 20.5131 22.5171 20.2458 22.2472C19.9786 21.9772 19.8286 21.6127 19.8286 21.2328C19.8286 20.853 19.9786 20.4884 20.2458 20.2185C20.5131 19.9485 20.8761 19.795 21.256 19.7912ZM22.5726 15.5254L15.5507 22.5473C15.5099 22.5883 15.4614 22.6207 15.4078 22.6426C15.3543 22.6644 15.2969 22.6753 15.2391 22.6745C15.153 22.6738 15.069 22.6478 14.9976 22.5997C14.9261 22.5517 14.8703 22.4837 14.8372 22.4043C14.804 22.3248 14.7949 22.2374 14.8109 22.1528C14.827 22.0682 14.8675 21.9902 14.9275 21.9285L21.9493 14.9066C22.0319 14.8266 22.1426 14.7823 22.2576 14.783C22.3725 14.7837 22.4826 14.8295 22.5642 14.9105C22.6458 14.9915 22.6924 15.1013 22.694 15.2163C22.6955 15.3312 22.6519 15.4422 22.5726 15.5254ZM21.256 21.7968C21.1081 21.7942 20.9673 21.7336 20.8637 21.6281C20.7601 21.5226 20.702 21.3807 20.702 21.2329C20.702 21.085 20.7601 20.9431 20.8637 20.8376C20.9673 20.7322 21.1081 20.6716 21.256 20.6689C21.4038 20.6716 21.5446 20.7322 21.6482 20.8376C21.7518 20.9431 21.8099 21.085 21.8099 21.2329C21.8099 21.3807 21.7518 21.5226 21.6482 21.6281C21.5446 21.7336 21.4038 21.7942 21.256 21.7968ZM16.2441 15.6527C16.3923 15.6556 16.5335 15.7165 16.6373 15.8224C16.7411 15.9282 16.7992 16.0705 16.7992 16.2188C16.7992 16.367 16.7411 16.5094 16.6373 16.6152C16.5335 16.7211 16.3923 16.782 16.2441 16.7849C16.0959 16.782 15.9547 16.7211 15.8509 16.6152C15.7471 16.5094 15.689 16.3671 15.6889 16.2188C15.6889 16.0706 15.7471 15.9282 15.8509 15.8224C15.9547 15.7165 16.0959 15.6556 16.2441 15.6527ZM18.75 0C15.0416 0 11.4165 1.09967 8.33307 3.15994C5.24964 5.22022 2.84641 8.14857 1.42727 11.5747C0.00812423 15.0008 -0.363188 18.7708 0.360284 22.4079C1.08376 26.0451 2.86952 29.386 5.49176 32.0083C8.11399 34.6305 11.4549 36.4163 15.0921 37.1397C18.7292 37.8632 22.4992 37.4919 25.9253 36.0727C29.3514 34.6536 32.2798 32.2504 34.3401 29.1669C36.4003 26.0835 37.5 22.4584 37.5 18.75C37.4944 13.7789 35.5172 9.01303 32.0021 5.49794C28.487 1.98285 23.7211 0.00560948 18.75 0ZM18.75 36.432C15.2528 36.432 11.8342 35.395 8.92639 33.4521C6.0186 31.5091 3.75225 28.7476 2.41394 25.5166C1.07562 22.2857 0.725461 18.7304 1.40773 15.3004C2.08999 11.8704 3.77404 8.71979 6.24692 6.24691C8.7198 3.77403 11.8704 2.08998 15.3004 1.40772C18.7304 0.725452 22.2857 1.07562 25.5166 2.41393C28.7476 3.75224 31.5092 6.01859 33.4521 8.92639C35.395 11.8342 36.432 15.2528 36.432 18.75C36.4268 23.4379 34.5621 27.9324 31.2473 31.2472C27.9324 34.5621 23.438 36.4267 18.75 36.432Z" fill="url(#paint0_linear_5804_1163)"/>
<defs>
<linearGradient id="paint0_linear_5804_1163" x1="8.43495e-06" y1="18.75" x2="37.5" y2="18.75" gradientUnits="userSpaceOnUse">
<stop stop-color="#FAAE2C"/>
<stop offset="1" stop-color="#F37924"/>
</linearGradient>
</defs>
</svg>
