<?xml version="1.0" encoding="UTF-8"?>
<svg id="Layer_2" data-name="Layer 2" xmlns="http://www.w3.org/2000/svg" viewBox="0 0 16.98 18.26">
  <defs>
    <style>
      .cls-1 {
        fill: #96c13c;
      }

      .cls-2 {
        fill: #333;
      }

      .cls-3 {
        fill: #f42a39;
      }

      .cls-4 {
        fill: #ce2136;
      }
    </style>
  </defs>
  <g id="Layer_1-2" data-name="Layer 1">
    <g id="chili">
      <path id="Path_23492" data-name="Path 23492" class="cls-3" d="m16.63,9.75v.16c-.18,4.16-3.75,7.62-8.26,7.99-2.96.28-5.88-.85-7.88-3.05-.46-.52.17-1.26.84-.99.84.35,1.75.53,2.66.53,3.15.03,5.89-2.13,6.61-5.19v-.05c.04-.18.06-.37.08-.55,0-.02,0-.03,0-.05,0-.13.01-.26.01-.39,0-.22.02-.45.08-.67.34-1.19,1.43-1.99,2.67-1.96h.24c1.18-.04,2.26.7,2.64,1.82.08.27.14.54.19.81.04.2.07.4.09.61.03.32.05.65.04.97h0Z"/>
      <path id="Path_23493" data-name="Path 23493" class="cls-4" d="m16.59,8.78c-.02-.21-.05-.41-.09-.61-.05-.27-.11-.54-.19-.81-.28-.87-1-1.52-1.89-1.72.05.19.09.38.13.57s.07.4.09.61c.03.32.05.65.04.97v.16c-.18,4.16-3.75,7.62-8.26,7.99-2.14.19-4.28-.34-6.09-1.51,0,.15.05.3.16.41,2,2.2,4.92,3.34,7.88,3.06,4.5-.37,8.07-3.83,8.26-7.99v-.16c0-.32,0-.65-.03-.97h0Z"/>
      <path id="Path_23494" data-name="Path 23494" class="cls-2" d="m15.8,13.37c-.18,0-.33-.15-.33-.33,0-.05.01-.1.03-.15.47-.93.74-1.96.79-3v-.16c0-.31,0-.62-.03-.93-.02-.19-.05-.39-.08-.58-.04-.26-.1-.52-.18-.78-.34-.98-1.29-1.62-2.33-1.59h-.24c-1.08-.03-2.05.68-2.35,1.72-.05.19-.07.38-.07.58,0,.13,0,.26,0,.4,0,.01,0,.03,0,.05-.01.2-.03.4-.07.6,0,0,0,.03,0,.04-.3,1.54-1.16,2.92-2.4,3.87-.14.11-.35.09-.46-.05s-.09-.35.05-.46c1.12-.85,1.89-2.09,2.17-3.47,0-.01,0-.02,0-.04.03-.17.05-.35.06-.52h0s0-.04,0-.06c0-.12.01-.23,0-.35,0-.25.02-.51.09-.76.38-1.32,1.6-2.23,2.98-2.2h.24c1.33-.04,2.53.79,2.95,2.05.08.28.15.56.2.84.04.21.07.42.09.63.03.34.05.67.04,1.01v.18c-.05,1.13-.34,2.24-.85,3.25-.06.11-.17.18-.29.18h0Zm-8.24,4.89c-2.78.03-5.45-1.14-7.32-3.2-.3-.32-.32-.8-.06-1.15.29-.4.82-.55,1.27-.35.81.33,1.67.51,2.54.51.92,0,1.83-.2,2.67-.57.16-.07.36,0,.43.16s0,.36-.16.43c-.93.41-1.93.63-2.94.63-.96,0-1.9-.19-2.79-.56-.17-.08-.38-.03-.49.13-.08.1-.07.25.02.34,1.93,2.12,4.75,3.21,7.61,2.95,2.41-.18,4.65-1.34,6.2-3.19.1-.15.3-.19.45-.09.15.1.19.3.09.45-.01.02-.03.04-.04.05-1.66,1.99-4.06,3.23-6.65,3.43-.27.02-.55.03-.83.03h0Z"/>
      <path id="Path_23495" data-name="Path 23495" class="cls-1" d="m16.66,8.78l-1.92-1.28-.98,1.3-.98-1.3-1.96,1.3-.08-.25c0-.13.01-.26,0-.39,0-.22.02-.45.08-.67.34-1.18,1.44-1.98,2.67-1.95h.24c1.18-.04,2.26.7,2.64,1.82.08.27.14.54.19.81.04.2.07.4.09.6Z"/>
      <path id="Path_23496" data-name="Path 23496" class="cls-2" d="m10.83,9.13c-.14,0-.26-.09-.31-.22l-.08-.25s-.02-.09-.02-.13c0-.12.01-.23,0-.35,0-.25.03-.51.09-.76.38-1.33,1.6-2.23,2.98-2.2h.24c1.33-.04,2.52.79,2.95,2.05.08.28.15.56.2.84.04.21.07.42.09.64.02.18-.12.34-.3.35-.07,0-.15-.01-.21-.05l-1.66-1.11-.79,1.06c-.12.14-.33.16-.48.05-.02-.01-.03-.03-.05-.05l-.79-1.06-1.7,1.13c-.05.04-.11.06-.18.06Zm1.96-1.96c.1,0,.2.05.26.13l.72.96.72-.96c.1-.14.3-.17.44-.08l1.3.87c-.04-.22-.1-.43-.16-.64-.34-.98-1.29-1.63-2.33-1.59h-.24c-1.08-.03-2.05.68-2.35,1.72-.05.19-.07.38-.07.58v.08l1.52-1.01c.05-.04.12-.06.18-.06h0Z"/>
      <path id="Path_23497" data-name="Path 23497" class="cls-2" d="m13.7,5.87c-.18,0-.33-.15-.33-.33h0V.33c0-.18.15-.33.33-.33s.33.15.33.33h0v5.22c0,.18-.15.33-.33.33h0Z"/>
    </g>
  </g>
</svg>