<svg xmlns="http://www.w3.org/2000/svg" width="254" height="254" viewBox="0 0 254 254"><defs><style>.a{fill:#7acaa6;}.b{fill:#57be92;}.c{fill:#c59191;}.d{fill:#fff;}.e{fill:#ffcebf;}.f{fill:#8795de;}.g{fill:#ffb09e;}.h{fill:#7a6d79;}.i{fill:#685e68;}.j{fill:#b98080;}.k{fill:#efedef;}.l{fill:#e5e1e5;}.m{fill:#c9bfc8;}</style></defs><g transform="translate(1.888 0)"><path class="a" d="M3.806,40.012A40.012,40.012,0,1,1,70.114,70.167a1.737,1.737,0,0,0,.256,2.806l7.539,4.461a1.392,1.392,0,0,1-.709,2.59l-34.14-.008a40.011,40.011,0,0,1-39.254-40Z" transform="translate(-3.806 0)"/></g><path class="b" d="M110.831,77.433l-7.54-4.461a1.734,1.734,0,0,1-.267-2.8A40.01,40.01,0,0,0,77.932.017a40.323,40.323,0,0,0-8.794.7,40,40,0,0,1,24.1,63.834A8.64,8.64,0,0,0,95.568,77.34l.158.093a1.39,1.39,0,0,1-.664,2.586l15.059,0a1.391,1.391,0,0,0,.709-2.589Z" transform="translate(-34.839 0)"/><g transform="translate(58.365 0)"><g transform="translate(0 0)"><path class="c" d="M277.353,145.234H186.584c-22.67,0-35.077-26.42-20.6-43.865l.805-.97a42.816,42.816,0,0,0,9.87-27.346V55.55a55.55,55.55,0,0,1,111.1,0V73.644a42.816,42.816,0,0,0,10.066,27.579C312.488,118.632,300.112,145.234,277.353,145.234Z" transform="translate(-138.872 0)"/><path class="d" d="M303.844,311.24v60.008H117.65V311.692a33.506,33.506,0,0,1,20.5-30.882l30.058-13.067,10.12-4.4a21.03,21.03,0,0,0,12.645-19.288V240.17h39.534v3.686a21.032,21.032,0,0,0,12.75,19.328l40.655,17.428A33.5,33.5,0,0,1,303.844,311.24Z" transform="translate(-117.65 -121.023)"/><path class="e" d="M217.571,282.051a143.982,143.982,0,0,0,85.074-.8l4.9-11.672-14.925-6.4a21.031,21.031,0,0,1-12.746-19.33v-3.683H240.342v3.883A21.031,21.031,0,0,1,227.7,263.342L215.608,268.6Z" transform="translate(-167.012 -121.024)"/><g transform="translate(0 146.46)"><path class="f" d="M421.683,308.352l-30.625-13.126h-.005V398.99h50.561V338.984a33.5,33.5,0,0,0-19.931-30.632Z" transform="translate(-255.419 -295.226)"/><path class="f" d="M168.212,295.75V399.255H117.65V339.7a33.506,33.506,0,0,1,20.5-30.882Z" transform="translate(-117.65 -295.49)"/></g></g><g transform="translate(37.791)"><path class="g" d="M297.064,261.872A33.25,33.25,0,0,0,309.9,259.31a21.028,21.028,0,0,1-6.77-15.454v-3.683H263.594v3.883a20.994,20.994,0,0,1-1.841,8.6,33.237,33.237,0,0,0,23.008,9.217h12.3Z" transform="translate(-228.055 -121.025)"/><path class="e" d="M304.687,98.248v32.7a33.361,33.361,0,0,1-33.361,33.361h-12.3a33.361,33.361,0,0,1-33.361-33.361v-32.7a21.7,21.7,0,0,1,21.7-21.7h35.62a21.7,21.7,0,0,1,21.7,21.7Z" transform="translate(-209.869 -38.571)"/><path class="h" d="M357.573,154.593c-.015.045-.033.089-.047.135a35.2,35.2,0,0,1-12.02,17.93,33.616,33.616,0,0,1-12.074,5.9,3.776,3.776,0,1,0,1.917,7.3,41.142,41.142,0,0,0,14.769-7.223,40.442,40.442,0,0,0,7.432-7.477c.007-.293.022-.584.022-.879v-15.69Z" transform="translate(-262.755 -77.9)"/><path class="i" d="M311.553,209.123H302.7a7.293,7.293,0,0,1,0-14.586h8.849a7.293,7.293,0,0,1,0,14.586Z" transform="translate(-245.016 -98.028)"/><path class="j" d="M321.143,37.309c.847-10.686,11.078-17.778,20.869-21.451A55.518,55.518,0,0,1,369.053,63.54v3.819c-.9.188-1.786.353-2.667.484a44.974,44.974,0,0,1-13.126,0C333.038,65.149,320.12,50.214,321.143,37.309Z" transform="translate(-257.954 -7.991)"/><path class="c" d="M249.377,0a55.3,55.3,0,0,1,33.417,11.175,99.085,99.085,0,0,1-35.265,35.846,98.3,98.3,0,0,1-37.42,12.831H193.828v-4.3A55.548,55.548,0,0,1,249.377,0Z" transform="translate(-193.828)"/></g></g><path class="k" d="M301.377,432.026H180.5l-6.667-62.892a7.552,7.552,0,0,1,7.51-8.348h119.19a7.552,7.552,0,0,1,7.51,8.348Z" transform="translate(-87.575 -181.802)"/><path class="l" d="M413.93,360.785h-15.1a7.552,7.552,0,0,1,7.51,8.348l-6.667,62.893h15.1l6.667-62.893A7.552,7.552,0,0,0,413.93,360.785Z" transform="translate(-200.971 -181.802)"/><g transform="translate(0 246.559)"><path class="m" d="M250.279,504.441H3.721a3.721,3.721,0,0,1,0-7.441H250.279a3.721,3.721,0,0,1,0,7.441Z" transform="translate(0 -497)"/></g><circle class="m" cx="10.573" cy="10.573" r="10.573" transform="translate(142.792 204.031)"/><g transform="translate(23.02 36.236)"><circle class="d" cx="3.776" cy="3.776" r="3.776"/><circle class="d" cx="3.776" cy="3.776" r="3.776" transform="translate(15.104)"/><circle class="d" cx="3.776" cy="3.776" r="3.776" transform="translate(30.208)"/></g></svg>