<svg xmlns="http://www.w3.org/2000/svg" width="169.915" height="198.52" viewBox="0 0 169.915 198.52"><defs><style>.a{fill:#1dc070;}.b{fill:#204356;}</style></defs><g transform="translate(-0.021)"><path class="a" d="M174.854,184.2a24.379,24.379,0,1,0-24.377-24.379A24.379,24.379,0,0,0,174.854,184.2Zm0-43.926a19.547,19.547,0,1,1-19.546,19.547A19.547,19.547,0,0,1,174.854,140.273Zm0,0" transform="translate(-89.875 -80.907)"/><path class="a" d="M188.886,186.816a2.43,2.43,0,0,0,.533-.06c.077-.017.149-.041.226-.061l.03,0a5.184,5.184,0,0,1,3.905.805,10.076,10.076,0,0,0,10.126.665l1.126-.562a2.416,2.416,0,1,0-2.158-4.324l-1.128.565a5.236,5.236,0,0,1-5.26-.346,9.934,9.934,0,0,0-1.14-.665,9.352,9.352,0,0,0,1.6-4.818c.013-.294.02-.587.028-.881h1.409a2.416,2.416,0,0,0,0-4.832h-1.567q-.125-1.439-.346-2.858l-.035-.214a2.6,2.6,0,1,1,5.165-.407v.985a2.416,2.416,0,1,0,4.832,0v-.985a7.434,7.434,0,1,0-14.769,1.158l.033.214c.11.7.2,1.4.267,2.108H189.91a2.416,2.416,0,1,0,0,4.832h2.034c-.006.222-.013.444-.022.667a4.573,4.573,0,0,1-3.562,4.245,2.416,2.416,0,0,0,.527,4.774Zm0,0" transform="translate(-111.376 -96.376)"/><path class="b" d="M92.759,116.339a5.421,5.421,0,0,0,5.422,5.4,16.694,16.694,0,0,0,11.891-4.926l.028-.03a7.467,7.467,0,0,1,5.324-2.208h40.12a7.074,7.074,0,0,1,5.041,2.092l.145.145A16.694,16.694,0,0,0,172.6,121.74h.006a5.419,5.419,0,0,0,5.436-5.373,16.813,16.813,0,0,0-1.892-7.806,47.663,47.663,0,0,0,8.674-42.157A49.529,49.529,0,0,0,160.38,35.537a4.761,4.761,0,0,0,2.147-3.784V27.693c0-.033,0-.066,0-.1s0-.041,0-.063c0-2.924-3.846-3.833-5.488-4.22-1.081-.256-2.362-.488-3.8-.7a18.912,18.912,0,0,0,2.93-4.21l5.355-10.48a2.416,2.416,0,0,0-3.308-3.221c-2.531,1.381-5.893-.16-8.268-1.7a18.323,18.323,0,0,0-16.911-1.68,15.488,15.488,0,0,0-7.3,5.843c-7.222,3.138-11.228-1.324-11.683-1.87a2.416,2.416,0,0,0-4.107,2.447l3.847,9.289a18.892,18.892,0,0,0,3.651,5.676c-5.31.815-8.415,2.148-8.415,4.819,0,.022,0,.041,0,.063s0,.064,0,.1v4.056a4.7,4.7,0,0,0,2.182,3.769A49.592,49.592,0,0,0,86.764,66.21a47.582,47.582,0,0,0,8.2,41.774A16.776,16.776,0,0,0,92.759,116.339Zm64.752-84.7a11.04,11.04,0,0,1-3.588,1.585.468.468,0,0,0-.063.017c-4.429,1.32-11.011,2.076-18.08,2.076a67.53,67.53,0,0,1-17.9-2.01,2.364,2.364,0,0,0-.483-.143A10.168,10.168,0,0,1,114,31.628a40.236,40.236,0,0,0,4.228.81,127.667,127.667,0,0,0,17.553,1.068,127.683,127.683,0,0,0,17.553-1.068A40.544,40.544,0,0,0,157.511,31.641ZM123.234,26.91a18.748,18.748,0,0,0,5.65,1.618,95.979,95.979,0,0,1-10.761-1C119.483,27.311,121.174,27.1,123.234,26.91Zm17.982,1.675a18.806,18.806,0,0,0,6.31-1.743c2.435.2,4.38.442,5.9.689A100.508,100.508,0,0,1,141.217,28.585Zm6.112-21.521a17.333,17.333,0,0,0,7.7,2.968L151.871,16.2a13.962,13.962,0,0,1-5.819,5.959,2.526,2.526,0,0,0-.282.149,13.876,13.876,0,0,1-3.4,1.208L145.1,9.209a2.419,2.419,0,0,0-.867-2.34,12.25,12.25,0,0,0-4.742-2.04A13.8,13.8,0,0,1,147.329,7.064Zm-19.105,4.289a2.414,2.414,0,0,0,.472-.217c5.653-2.686,9.511-1.867,11.328-1.12l-2.631,13.827h-6.177a13.975,13.975,0,0,1-12.949-8.652L117.2,12.622A15.805,15.805,0,0,0,128.223,11.353Zm-36.8,56.133a44.554,44.554,0,0,1,25.676-29.4c7.243,1.975,16.994,2.065,18.682,2.065a92.387,92.387,0,0,0,11.21-.656,32,32,0,0,0-3.717,9.616,2.416,2.416,0,1,0,4.728,1,27.133,27.133,0,0,1,4.188-9.778l.167.242.027.046a56.8,56.8,0,0,1,6.4,16.328,2.416,2.416,0,0,0,4.712-1.071,61.978,61.978,0,0,0-6.3-16.546,44.63,44.63,0,0,1,22.955,28.33,42.889,42.889,0,0,1-8,38.16l-.009.013a4.263,4.263,0,0,0-.412,4.722,11.973,11.973,0,0,1,1.474,5.8.584.584,0,0,1-.6.557,11.9,11.9,0,0,1-8.456-3.511l-.143-.143a11.875,11.875,0,0,0-8.462-3.512H115.424a12.291,12.291,0,0,0-8.77,3.655,11.9,11.9,0,0,1-8.473,3.511.577.577,0,0,1-.59-.576,11.963,11.963,0,0,1,1.766-6.282,4.064,4.064,0,0,0-.261-4.624A42.8,42.8,0,0,1,91.425,67.486Zm0,0" transform="translate(-50.787 0)"/><path class="b" d="M7.924,379.068a2.415,2.415,0,0,0,2.4,2.122H45.8a2.414,2.414,0,0,0,2.31-3.119L43.5,362.931l14.376-9.088a8.528,8.528,0,0,1,6.213-.8q.073.019.151.033l29.53,5.437a38.435,38.435,0,0,0,23.748-3.353,2.291,2.291,0,0,0,.294-.173l51.078-35.071a2.415,2.415,0,0,0,.7-3.237,14.233,14.233,0,0,0-18.979-5.19l-.717.387c-3.594-4.242-9.722-5.86-14.4-3.489l-.053.027-1.927,1.038a15.823,15.823,0,0,0-18-1.545L104.491,313.9H89.817a21.067,21.067,0,0,1-9.115-2.089l-2.026-.98a34.968,34.968,0,0,0-36.394,3.553c-.053.041-.105.082-.154.126l-4.892,4.355a16.746,16.746,0,0,1-6.117,3.463L28.4,313.415a2.414,2.414,0,0,0-2.31-1.711H2.436a2.412,2.412,0,0,0-2.4,2.707ZM137.7,312.684c2.513-1.257,5.656-.293,7.759,1.582l-19.1,10.307-.917.483a17.04,17.04,0,0,0-2.449-4.446Zm-19.859-.547c.02-.011.041-.022.058-.033a10.984,10.984,0,0,1,10.842-.08l-9.388,5.06a16.945,16.945,0,0,0-5.709-2.661ZM40.45,322.474l4.816-4.288a30.153,30.153,0,0,1,31.306-3.007l2.026.98a25.924,25.924,0,0,0,11.219,2.572h19.646a12.21,12.21,0,0,1,11.924,9.651l-13.967-.634a85.347,85.347,0,0,0-15.533.717,2.416,2.416,0,1,0,.662,4.786,80.654,80.654,0,0,1,14.654-.676l16.757.758c.036,0,.072,0,.109,0a2.415,2.415,0,0,0,2.416-2.416c0-.315-.009-.628-.027-.937l2.174-1.148,24.274-13.1a9.409,9.409,0,0,1,11.147,1.636L115.219,350.9a33.576,33.576,0,0,1-20.584,2.856l-29.451-5.423a13.34,13.34,0,0,0-9.723,1.32c-.038.02-.074.042-.112.066l-13.312,8.415-9.508-31.185A21.617,21.617,0,0,0,40.45,322.474ZM24.3,316.535l18.24,59.824H12.463l-7.3-59.826Zm0,0" transform="translate(0 -182.67)"/><path class="b" d="M54.444,455.489a7.147,7.147,0,1,0-7.147-7.147A7.147,7.147,0,0,0,54.444,455.489Zm0-9.462a2.315,2.315,0,1,1-2.315,2.315A2.315,2.315,0,0,1,54.444,446.027Zm0,0" transform="translate(-28.24 -263.55)"/></g></svg>