<svg xmlns="http://www.w3.org/2000/svg" width="185.797" height="63.583" viewBox="0 0 185.797 63.583"><defs><style>.a,.c{fill-rule:evenodd;}.b,.c{fill:#fff;}</style></defs><g transform="translate(0)"><g transform="translate(0)"><path class="a" d="M6.44,0H179.356a6.455,6.455,0,0,1,6.44,6.44v50.7a6.455,6.455,0,0,1-6.44,6.44H6.44A6.455,6.455,0,0,1,0,57.143V6.44A6.455,6.455,0,0,1,6.44,0Z"/><path class="b" d="M359.649,194.89h-6.6l-1.687,4.412h-3.391l6.9-17.386h2.911l6.92,17.386h-3.375ZM356.32,186.1c-.619,1.811-1.161,3.329-1.641,4.552l-.588,1.564h4.536l-.588-1.564c-.48-1.223-1.037-2.756-1.656-4.552Zm16.364,2.771a3.359,3.359,0,0,0-1.533.387,4.569,4.569,0,0,0-1.285,1.037v5.6a2.573,2.573,0,0,0,.464.449,4.18,4.18,0,0,0,.6.418,4.837,4.837,0,0,0,.759.294,3.056,3.056,0,0,0,.851.108,2.605,2.605,0,0,0,1.27-.294,2.793,2.793,0,0,0,.944-.867,4.533,4.533,0,0,0,.557-1.331,7.505,7.505,0,0,0,.2-1.734,7.616,7.616,0,0,0-.2-1.78,4.192,4.192,0,0,0-.573-1.27,2.457,2.457,0,0,0-.9-.759,2.378,2.378,0,0,0-1.161-.263Zm.418,10.76a4.524,4.524,0,0,1-1.858-.372,4.662,4.662,0,0,1-1.362-.913h-.062c.015.17.015.418.031.728.015.325.015.666.015,1.037v5.248h-3.1V186.7h2.709l.139,1.409h.047a4.615,4.615,0,0,1,1.471-1.239,4.338,4.338,0,0,1,2.09-.48,5.8,5.8,0,0,1,2.028.372,4.977,4.977,0,0,1,1.765,1.177,6.039,6.039,0,0,1,1.223,2.013,7.992,7.992,0,0,1,.464,2.864,8.565,8.565,0,0,1-.5,3.05,6.077,6.077,0,0,1-1.3,2.105,5.184,5.184,0,0,1-3.809,1.657Zm14.228-10.76a3.408,3.408,0,0,0-1.533.387,4.569,4.569,0,0,0-1.285,1.037v5.6a2.575,2.575,0,0,0,.464.449,3.612,3.612,0,0,0,.619.418,4.132,4.132,0,0,0,.743.294,3.056,3.056,0,0,0,.852.108,2.605,2.605,0,0,0,1.269-.294,2.658,2.658,0,0,0,.944-.867,4.533,4.533,0,0,0,.557-1.331,7.505,7.505,0,0,0,.2-1.734,7.616,7.616,0,0,0-.2-1.78,4.194,4.194,0,0,0-.573-1.27,2.458,2.458,0,0,0-.9-.759,2.378,2.378,0,0,0-1.161-.263Zm.418,10.76a4.524,4.524,0,0,1-1.858-.372,4.662,4.662,0,0,1-1.362-.913h-.062c.015.17.015.418.031.728.016.325.016.666.016,1.037v5.248h-3.1V186.7h2.709l.139,1.409h.046a4.615,4.615,0,0,1,1.471-1.239,4.338,4.338,0,0,1,2.09-.48,5.8,5.8,0,0,1,2.028.372,4.977,4.977,0,0,1,1.765,1.177,6.039,6.039,0,0,1,1.223,2.013,7.992,7.992,0,0,1,.464,2.864,8.566,8.566,0,0,1-.5,3.05,6.077,6.077,0,0,1-1.3,2.105,5.18,5.18,0,0,1-1.8,1.254,5.365,5.365,0,0,1-2.013.4Zm22.108-5.326a1.659,1.659,0,0,0-.325-1.068,2.3,2.3,0,0,0-.883-.666,5.682,5.682,0,0,0-1.254-.434c-.464-.108-.944-.217-1.455-.31-.681-.155-1.316-.325-1.935-.526a5.782,5.782,0,0,1-1.626-.852,3.914,3.914,0,0,1-1.115-1.378,4.583,4.583,0,0,1-.418-2.075,5.485,5.485,0,0,1,.5-2.4,4.761,4.761,0,0,1,1.3-1.7,5.8,5.8,0,0,1,1.951-.991,8.4,8.4,0,0,1,2.508-.341,14.179,14.179,0,0,1,2.787.279,12.04,12.04,0,0,1,2.431.7v2.725a16.2,16.2,0,0,0-2.6-.774,12.841,12.841,0,0,0-2.338-.232,4.308,4.308,0,0,0-2.431.573,1.968,1.968,0,0,0-.852,1.718,2,2,0,0,0,.279,1.1,2.351,2.351,0,0,0,.759.7,5.24,5.24,0,0,0,1.115.464c.4.108.851.2,1.316.31.728.155,1.44.341,2.106.542a6.5,6.5,0,0,1,1.78.836,3.951,3.951,0,0,1,1.223,1.44,4.74,4.74,0,0,1,.464,2.245,5.409,5.409,0,0,1-.526,2.431,4.577,4.577,0,0,1-1.471,1.7,6.921,6.921,0,0,1-2.322.991,12.9,12.9,0,0,1-2.988.325,14.1,14.1,0,0,1-2.8-.279,7.811,7.811,0,0,1-2.276-.79v-2.694a12.8,12.8,0,0,0,2.508.821,12.348,12.348,0,0,0,2.523.248,9.467,9.467,0,0,0,1.486-.124,4.275,4.275,0,0,0,1.3-.418,2.513,2.513,0,0,0,.929-.821,2.085,2.085,0,0,0,.356-1.27Zm14.135,4.985a7.27,7.27,0,0,1-1.239.248,10.556,10.556,0,0,1-1.347.093,5.806,5.806,0,0,1-2.6-.511,3.014,3.014,0,0,1-1.424-1.486,4.793,4.793,0,0,1-.294-1.873V189.24h-2.353V186.7h2.353v-3.514h3.081V186.7h3.638v2.539h-3.638v6.115a2.147,2.147,0,0,0,.217,1.084,1.733,1.733,0,0,0,1.548.6,6.222,6.222,0,0,0,1.068-.093,9.335,9.335,0,0,0,.991-.2ZM435.231,193a6.1,6.1,0,0,0-.232-1.765,3.858,3.858,0,0,0-.65-1.285,2.709,2.709,0,0,0-1.006-.774,3.158,3.158,0,0,0-1.27-.263,3.084,3.084,0,0,0-1.254.263,2.661,2.661,0,0,0-.991.774,3.859,3.859,0,0,0-.65,1.285,6.821,6.821,0,0,0,0,3.53,3.715,3.715,0,0,0,.65,1.285,2.71,2.71,0,0,0,1.006.774,3.156,3.156,0,0,0,2.523,0,2.66,2.66,0,0,0,.991-.774,3.715,3.715,0,0,0,.65-1.285,6.1,6.1,0,0,0,.232-1.765h0Zm3.189,0a7.958,7.958,0,0,1-.433,2.709,5.917,5.917,0,0,1-1.27,2.09,5.558,5.558,0,0,1-2,1.347,7.09,7.09,0,0,1-2.616.48,7.162,7.162,0,0,1-2.663-.48,5.3,5.3,0,0,1-2-1.347,5.7,5.7,0,0,1-1.27-2.09,8.355,8.355,0,0,1-.433-2.709,7.8,7.8,0,0,1,.449-2.694,5.9,5.9,0,0,1,1.27-2.105,5.982,5.982,0,0,1,2-1.347,7.089,7.089,0,0,1,2.616-.464,7.223,7.223,0,0,1,2.663.464,5.686,5.686,0,0,1,2,1.347,6.1,6.1,0,0,1,1.254,2.105A7.806,7.806,0,0,1,438.42,193Zm10.218-3.839h-.263a6.836,6.836,0,0,0-2.493.418,3.382,3.382,0,0,0-1.657,1.285V199.3h-3.1V186.7h2.555l.294,1.749h.046a4.151,4.151,0,0,1,1.5-1.517,4.662,4.662,0,0,1,2.307-.542,6.1,6.1,0,0,1,.805.046Zm8.329,7.989a10.1,10.1,0,0,0,1.873-.186,13.632,13.632,0,0,0,1.966-.511V198.9a9.075,9.075,0,0,1-1.827.5,13.92,13.92,0,0,1-2.57.232,9.147,9.147,0,0,1-2.539-.356,5.379,5.379,0,0,1-2.105-1.1,5.324,5.324,0,0,1-1.424-2,7.374,7.374,0,0,1-.526-2.957,8.091,8.091,0,0,1,.5-3,6.1,6.1,0,0,1,1.316-2.136,5.267,5.267,0,0,1,1.92-1.27,6.044,6.044,0,0,1,2.214-.418,6.388,6.388,0,0,1,2.214.356,4.527,4.527,0,0,1,1.749,1.146,5.422,5.422,0,0,1,1.146,2,9.506,9.506,0,0,1,.4,2.911c0,.433-.016.79-.031,1.1h-8.267a3.892,3.892,0,0,0,.387,1.5,2.985,2.985,0,0,0,.852,1.006,3.274,3.274,0,0,0,1.223.557,6.027,6.027,0,0,0,1.533.186Zm-1.239-8.36a2.555,2.555,0,0,0-1.053.2,2.662,2.662,0,0,0-1.3,1.455,3.89,3.89,0,0,0-.263,1.053h4.954a3.331,3.331,0,0,0-.155-1.053,2.68,2.68,0,0,0-.433-.867,2.437,2.437,0,0,0-.728-.588,2.362,2.362,0,0,0-1.022-.2Z" transform="translate(-289.284 -150.938)"/><path class="b" d="M352.657,88.239V78.548h3.081a5.35,5.35,0,0,1,2.431.542,4.086,4.086,0,0,1,1.688,1.548,4.461,4.461,0,0,1,.6,2.307v.9a4.366,4.366,0,0,1-.6,2.291,3.892,3.892,0,0,1-1.687,1.548,5.33,5.33,0,0,1-2.493.557Zm.944-8.995v8.3h2.09a3.814,3.814,0,0,0,2.787-1.022,3.638,3.638,0,0,0,1.053-2.74v-.851a3.557,3.557,0,0,0-1.037-2.678,3.806,3.806,0,0,0-2.74-1.006Zm8.515,5.279a3.75,3.75,0,0,1,.449-1.858,3.285,3.285,0,0,1,1.3-1.3,3.837,3.837,0,0,1,1.889-.464,3.46,3.46,0,0,1,3.669,3.685v.17a3.777,3.777,0,0,1-.464,1.873,3.027,3.027,0,0,1-1.285,1.285,3.847,3.847,0,0,1-1.9.449,3.458,3.458,0,0,1-3.654-3.669Zm.9.232a3.021,3.021,0,0,0,.759,2.121,2.841,2.841,0,0,0,3.994,0,3.1,3.1,0,0,0,.759-2.183v-.155a3.319,3.319,0,0,0-.356-1.517,2.565,2.565,0,0,0-.975-1.053,2.64,2.64,0,0,0-1.44-.387,2.518,2.518,0,0,0-1.966.836,3.109,3.109,0,0,0-.774,2.183v.155Zm10.249,1.827.139.619.17-.65,1.966-5.511h.774l1.951,5.465.217.759.17-.712,1.688-5.511h.929l-2.384,7.2h-.774L376,82.527l-.093-.387-.093.4-2.075,5.7h-.774l-2.384-7.2h.944l1.734,5.542Zm10.59-5.542.031,1.223a3.232,3.232,0,0,1,1.146-1.006,3.384,3.384,0,0,1,1.533-.356,2.625,2.625,0,0,1,1.951.65,2.689,2.689,0,0,1,.65,1.966v4.722h-.9V83.5a1.681,1.681,0,0,0-1.935-1.9,2.493,2.493,0,0,0-1.486.464,2.832,2.832,0,0,0-.96,1.239v4.939h-.9v-7.2Zm8.67,7.2h-.9V78.022h.9Zm1.966-3.716a3.76,3.76,0,0,1,.464-1.858,3.151,3.151,0,0,1,1.285-1.3,3.9,3.9,0,0,1,1.9-.464,3.482,3.482,0,0,1,3.669,3.685v.17a3.777,3.777,0,0,1-.464,1.873,3.115,3.115,0,0,1-1.285,1.285,3.847,3.847,0,0,1-1.9.449,3.481,3.481,0,0,1-3.669-3.669Zm.913.232a3.021,3.021,0,0,0,.759,2.121,2.625,2.625,0,0,0,2,.821,2.568,2.568,0,0,0,1.982-.821,3.109,3.109,0,0,0,.774-2.183v-.155a3.319,3.319,0,0,0-.356-1.517,2.565,2.565,0,0,0-.975-1.053,2.64,2.64,0,0,0-1.44-.387,2.573,2.573,0,0,0-1.982.836A3.1,3.1,0,0,0,395.4,84.6Zm13.454,3.483a3.122,3.122,0,0,1-.17-1.006,3.307,3.307,0,0,1-1.223.836,4.071,4.071,0,0,1-1.564.294,2.94,2.94,0,0,1-1.9-.573,1.777,1.777,0,0,1-.743-1.471,1.869,1.869,0,0,1,1.006-1.657,5.335,5.335,0,0,1,2.771-.6h1.641v-.821a1.455,1.455,0,0,0-.542-1.223,2.431,2.431,0,0,0-1.579-.449,2.74,2.74,0,0,0-1.564.433,1.2,1.2,0,0,0-.619,1.022l-.913-.015a1.782,1.782,0,0,1,.913-1.471A3.825,3.825,0,0,1,406.6,80.9a3.5,3.5,0,0,1,2.167.6,2.009,2.009,0,0,1,.805,1.688v3.391a3.65,3.65,0,0,0,.263,1.564v.093Zm-2.849-.557a3.329,3.329,0,0,0,1.626-.4,2.287,2.287,0,0,0,1.037-1.022V84.663h-1.61a4.735,4.735,0,0,0-2.136.433,1.339,1.339,0,0,0-.759,1.177,1.247,1.247,0,0,0,.511,1.006,2.13,2.13,0,0,0,1.331.4h0Zm5.62-3.112a3.9,3.9,0,0,1,.852-2.663A2.912,2.912,0,0,1,414.8,80.9a2.955,2.955,0,0,1,2.524,1.161V78.022h.9V88.239h-.851l-.031-.96a3.068,3.068,0,0,1-2.555,1.084,2.879,2.879,0,0,1-2.291-.991,4.036,4.036,0,0,1-.867-2.709Zm.913.139a3.408,3.408,0,0,0,.635,2.167,2.137,2.137,0,0,0,1.765.805,2.49,2.49,0,0,0,2.384-1.3V83.007a2.427,2.427,0,0,0-2.369-1.409,2.176,2.176,0,0,0-1.78.79,3.674,3.674,0,0,0-.635,2.322Zm11.348-.186a3.923,3.923,0,0,1,.449-1.858,3.284,3.284,0,0,1,1.3-1.3,3.837,3.837,0,0,1,1.889-.464,3.46,3.46,0,0,1,3.669,3.685v.17a3.941,3.941,0,0,1-.449,1.873,3.151,3.151,0,0,1-1.3,1.285,3.828,3.828,0,0,1-1.889.449,3.583,3.583,0,0,1-2.663-1.006,3.62,3.62,0,0,1-1.006-2.663v-.17Zm.9.232a3.032,3.032,0,0,0,.774,2.121,2.579,2.579,0,0,0,2,.821,2.615,2.615,0,0,0,1.982-.821,3.1,3.1,0,0,0,.759-2.183v-.155a3.134,3.134,0,0,0-.356-1.517,2.565,2.565,0,0,0-.975-1.053,2.639,2.639,0,0,0-1.44-.387,2.54,2.54,0,0,0-1.966.836,3.109,3.109,0,0,0-.774,2.183Zm9.15-3.716.031,1.223a3.107,3.107,0,0,1,1.146-1.006,3.319,3.319,0,0,1,1.517-.356,2.3,2.3,0,0,1,2.616,2.616v4.722h-.9V83.5a1.681,1.681,0,0,0-1.935-1.9,2.492,2.492,0,0,0-1.486.464,2.833,2.833,0,0,0-.96,1.239v4.939h-.9v-7.2ZM446.771,79.2V81.04h1.7v.65h-1.7v4.8a1.351,1.351,0,0,0,.248.9,1.054,1.054,0,0,0,.82.294,6.656,6.656,0,0,0,.743-.077l.031.65a3.253,3.253,0,0,1-.975.108,1.731,1.731,0,0,1-1.347-.464,2.1,2.1,0,0,1-.433-1.409v-4.8h-1.5v-.65h1.5V79.2Zm4.49,3.065a2.882,2.882,0,0,1,1.146-1.006,3.272,3.272,0,0,1,1.517-.356,2.6,2.6,0,0,1,1.951.65,2.761,2.761,0,0,1,.666,1.966v4.722h-.914V83.5a1.947,1.947,0,0,0-.464-1.424,1.9,1.9,0,0,0-1.455-.48,2.506,2.506,0,0,0-1.5.464,2.8,2.8,0,0,0-.944,1.239v4.939h-.913V78.022h.913Zm10.775,6.1a3.869,3.869,0,0,1-1.889-.449,3.172,3.172,0,0,1-1.3-1.254,3.446,3.446,0,0,1-.48-1.811v-.294a3.819,3.819,0,0,1,.464-1.873,3.411,3.411,0,0,1,1.27-1.3,3.568,3.568,0,0,1,1.78-.48,3.211,3.211,0,0,1,2.369.9,3.4,3.4,0,0,1,.867,2.446v.449h-5.852v.155a2.852,2.852,0,0,0,.805,2.044,2.7,2.7,0,0,0,2.013.805,3.337,3.337,0,0,0,1.285-.232,2.7,2.7,0,0,0,1.006-.743l.573.372a3.473,3.473,0,0,1-2.911,1.27Zm-.155-6.781a2.5,2.5,0,0,0-1.734.666,2.891,2.891,0,0,0-.852,1.765h4.923V83.92a2.454,2.454,0,0,0-.681-1.688,2.2,2.2,0,0,0-1.657-.65Z" transform="translate(-293.176 -64.862)"/><path class="c" d="M99.156,73.819c5.481.186,8.84-3.9,8.948-9.382-5.837,0-9.428,2.988-8.948,9.382Zm17.6,20.885c-2.431-2.245-5.217-2.9-5.372-8.19a7.528,7.528,0,0,1,1.626-5.465c.944-1.13,2.028-1.9,2.539-3.282-6.5-8.081-13.159-1.517-17.169-2.446A23.845,23.845,0,0,1,95.534,74.3a8.048,8.048,0,0,0-3.483-.433c-12.262.821-12.834,18.795-3.437,29.725,4.505,5.217,6.208,1.3,11.116,1.006,4.768-.294,7.168,4.072,11.72-.341,1.641-1.579,4.8-6.363,5.31-9.552Z" transform="translate(-68.286 -53.568)"/></g></g></svg>