<svg xmlns="http://www.w3.org/2000/svg" width="185.797" height="63.568" viewBox="0 0 185.797 63.568"><defs><style>.a,.b{fill-rule:evenodd;}.b,.c{fill:#fff;}</style></defs><g transform="translate(0)"><path class="a" d="M6.44,0H179.356a6.455,6.455,0,0,1,6.44,6.44v50.7a6.452,6.452,0,0,1-6.44,6.425H6.44A6.452,6.452,0,0,1,0,57.143V6.44A6.455,6.455,0,0,1,6.44,0Z"/><path class="b" d="M116.854,61.866c11.255,6.812,11.751,5.4,0,12.525l-1.842,1.115-7.756-7.989,6.208-7.787c1.595,1.006,2.787,1.765,3.39,2.136Zm-10.791,4.412L84.652,44.217c3.189-.573,18.981,9.274,27.372,14.6ZM113.526,76.4l-1.842,1.115-5.155,3.127-5.171,3.143-5.171,3.127-5.171,3.127L87.64,92.1l18.547-23.254ZM84.854,92.876a1.657,1.657,0,0,1-.248-.217,1.78,1.78,0,0,1-.217-.263,1.823,1.823,0,0,1-.17-.294,1.23,1.23,0,0,1-.093-.341,1.32,1.32,0,0,1-.046-.356V46.059l20.931,21.566Z" transform="translate(-69.898 -36.739)"/><path class="c" d="M375.173,183.368H371.8v-2.307h6.131v7.6c-.232.077-.511.17-.852.263-.356.077-.743.17-1.177.232-.434.077-.882.139-1.331.186a13.575,13.575,0,0,1-1.362.062,10.571,10.571,0,0,1-3.53-.542,6.937,6.937,0,0,1-2.523-1.533,6.352,6.352,0,0,1-1.517-2.369,8.949,8.949,0,0,1-.5-3.019,9.555,9.555,0,0,1,.263-2.229,7.917,7.917,0,0,1,.79-1.966,7.619,7.619,0,0,1,1.239-1.641,7.385,7.385,0,0,1,1.672-1.254,8.877,8.877,0,0,1,2.059-.79,9.9,9.9,0,0,1,2.4-.279,16.046,16.046,0,0,1,2.167.155,9.486,9.486,0,0,1,1.672.4v2.322a10.356,10.356,0,0,0-1.765-.4,10.224,10.224,0,0,0-1.811-.155,6.9,6.9,0,0,0-2.291.372,5.3,5.3,0,0,0-1.858,1.084,5.152,5.152,0,0,0-1.223,1.765,5.9,5.9,0,0,0-.449,2.415,5.38,5.38,0,0,0,1.378,4.01,5.456,5.456,0,0,0,3.917,1.331q.488,0,.975-.046c.341-.046.635-.077.9-.139Zm13.438.31a4.98,4.98,0,0,0-.217-1.517,2.9,2.9,0,0,0-.557-1.115,2.183,2.183,0,0,0-.867-.681,2.784,2.784,0,0,0-1.1-.217,2.821,2.821,0,0,0-1.084.217,2.248,2.248,0,0,0-.852.681,2.9,2.9,0,0,0-.557,1.115,4.98,4.98,0,0,0-.217,1.517,5.159,5.159,0,0,0,.217,1.533,2.946,2.946,0,0,0,.557,1.1,2.458,2.458,0,0,0,.867.681,2.681,2.681,0,0,0,2.183,0,2.278,2.278,0,0,0,.852-.681,2.947,2.947,0,0,0,.557-1.1,5.159,5.159,0,0,0,.217-1.533Zm2.756,0a6.555,6.555,0,0,1-.387,2.338,4.868,4.868,0,0,1-1.1,1.811,4.57,4.57,0,0,1-1.719,1.161,5.879,5.879,0,0,1-2.26.418,6.007,6.007,0,0,1-2.307-.418,4.627,4.627,0,0,1-1.734-1.161,5.049,5.049,0,0,1-1.084-1.811,6.923,6.923,0,0,1-.372-2.338,6.675,6.675,0,0,1,.387-2.338,5.129,5.129,0,0,1,1.1-1.811,4.959,4.959,0,0,1,1.718-1.161,5.879,5.879,0,0,1,2.26-.418,6.008,6.008,0,0,1,2.307.418,5.023,5.023,0,0,1,1.734,1.161,5.328,5.328,0,0,1,1.084,1.811,7.051,7.051,0,0,1,.372,2.338Zm10,0a4.98,4.98,0,0,0-.217-1.517,2.9,2.9,0,0,0-.557-1.115,2.183,2.183,0,0,0-.867-.681,2.784,2.784,0,0,0-1.1-.217,2.82,2.82,0,0,0-1.084.217,2.249,2.249,0,0,0-.852.681,3.156,3.156,0,0,0-.573,1.115,5.539,5.539,0,0,0-.2,1.517,5.742,5.742,0,0,0,.2,1.533,3.215,3.215,0,0,0,.573,1.1,2.458,2.458,0,0,0,.867.681,2.681,2.681,0,0,0,2.183,0,2.406,2.406,0,0,0,.852-.681,2.947,2.947,0,0,0,.557-1.1,5.161,5.161,0,0,0,.217-1.533Zm2.756,0a6.555,6.555,0,0,1-.387,2.338,4.867,4.867,0,0,1-1.1,1.811,4.57,4.57,0,0,1-1.719,1.161,5.879,5.879,0,0,1-2.26.418,6.008,6.008,0,0,1-2.307-.418,4.627,4.627,0,0,1-1.734-1.161,5.048,5.048,0,0,1-1.084-1.811,6.923,6.923,0,0,1-.372-2.338,6.675,6.675,0,0,1,.387-2.338,4.913,4.913,0,0,1,1.1-1.811,4.818,4.818,0,0,1,1.719-1.161,5.879,5.879,0,0,1,2.26-.418,6.009,6.009,0,0,1,2.307.418,5.023,5.023,0,0,1,1.734,1.161,5.586,5.586,0,0,1,1.084,1.811,7.052,7.052,0,0,1,.372,2.338Zm9.444,5.728v-.557a5.458,5.458,0,0,1,.031-.557h-.016a5.029,5.029,0,0,1-1.285.759,4.078,4.078,0,0,1-.836.263,4.879,4.879,0,0,1-.944.093,4.945,4.945,0,0,1-1.7-.31,3.827,3.827,0,0,1-1.471-.975,4.945,4.945,0,0,1-1.037-1.718,7.149,7.149,0,0,1-.387-2.524,7.764,7.764,0,0,1,.387-2.585,6.072,6.072,0,0,1,1.068-1.842,4.514,4.514,0,0,1,3.313-1.5,3.634,3.634,0,0,1,1.765.434,3.958,3.958,0,0,1,1.285,1.068h.046l.108-1.223h2.338v11.1a7.3,7.3,0,0,1-.155,1.641,4.779,4.779,0,0,1-.465,1.223,3.989,3.989,0,0,1-.913,1.068,4.974,4.974,0,0,1-1.269.774,7.846,7.846,0,0,1-1.579.449,9.63,9.63,0,0,1-1.811.155c-.356,0-.712-.015-1.053-.046a9.386,9.386,0,0,1-.975-.108c-.294-.046-.573-.108-.836-.17-.248-.062-.449-.124-.635-.186V191.96a9.785,9.785,0,0,0,3.282.48,4.765,4.765,0,0,0,2.771-.681,2.4,2.4,0,0,0,.975-2.09v-.263Zm-2.384-2.121a3.085,3.085,0,0,0,.759-.093,3.724,3.724,0,0,0,.666-.263,3.654,3.654,0,0,0,.542-.356,2.031,2.031,0,0,0,.418-.387v-4.877a4.048,4.048,0,0,0-1.053-.836,2.964,2.964,0,0,0-1.347-.356,3.237,3.237,0,0,0-.526.062,2.762,2.762,0,0,0-.557.217,1.966,1.966,0,0,0-.526.434,2.18,2.18,0,0,0-.449.666,4.264,4.264,0,0,0-.31.975,6.391,6.391,0,0,0-.124,1.3,7.03,7.03,0,0,0,.155,1.471,3.113,3.113,0,0,0,.48,1.1,2,2,0,0,0,.79.7,2.2,2.2,0,0,0,1.084.248Zm8.066,1.842V172.841h2.678v16.287Zm11.333-1.858a9.944,9.944,0,0,0,1.626-.155,14.606,14.606,0,0,0,1.7-.449v2.121a9.118,9.118,0,0,1-1.579.418,11.544,11.544,0,0,1-2.214.2,7.855,7.855,0,0,1-2.2-.294,5.037,5.037,0,0,1-1.827-.96,4.909,4.909,0,0,1-1.239-1.718,6.7,6.7,0,0,1-.449-2.57,7.391,7.391,0,0,1,.418-2.6,5.359,5.359,0,0,1,1.161-1.842,4.643,4.643,0,0,1,1.641-1.1,5.163,5.163,0,0,1,1.92-.372,5.492,5.492,0,0,1,1.92.325,3.6,3.6,0,0,1,1.5.991,4.449,4.449,0,0,1,.991,1.718,7.7,7.7,0,0,1,.356,2.524c0,.372-.015.681-.031.944H427.13a3.479,3.479,0,0,0,.341,1.3,2.386,2.386,0,0,0,.743.867,2.879,2.879,0,0,0,1.053.5,5.9,5.9,0,0,0,1.316.155Zm-1.068-7.245a2.069,2.069,0,0,0-.9.186,2.189,2.189,0,0,0-.681.511,2.573,2.573,0,0,0-.449.743,3.6,3.6,0,0,0-.232.913h4.288a3.517,3.517,0,0,0-.124-.913,2.423,2.423,0,0,0-.387-.743,1.853,1.853,0,0,0-.635-.511,1.952,1.952,0,0,0-.882-.186Zm16.519,3.282c-.248,0-.5-.015-.743-.015-.232-.016-.464-.031-.666-.046v5.883h-2.771V174.079h4.35a13.755,13.755,0,0,1,1.9.108,8.688,8.688,0,0,1,1.455.279,4.735,4.735,0,0,1,2.384,1.5,4.06,4.06,0,0,1,.836,2.632,4.322,4.322,0,0,1-.449,1.966,4.116,4.116,0,0,1-1.316,1.471,6.352,6.352,0,0,1-2.121.944,11.479,11.479,0,0,1-2.864.325Zm-1.409-2.384a4.91,4.91,0,0,0,.588.062c.248.015.511.015.774.015a7.905,7.905,0,0,0,1.858-.186,3.339,3.339,0,0,0,1.208-.5,1.966,1.966,0,0,0,.666-.774,2.364,2.364,0,0,0,.2-.991,2.036,2.036,0,0,0-.31-1.161,2.009,2.009,0,0,0-1.053-.743,4.5,4.5,0,0,0-.96-.2,12.5,12.5,0,0,0-1.424-.062h-1.548Zm10.837,8.205V172.841h2.678v16.287Zm12.138-1.161h-.047a5.577,5.577,0,0,1-.526.5c-.217.155-.464.31-.728.464a4.386,4.386,0,0,1-1.966.48,4.047,4.047,0,0,1-1.455-.248,3.145,3.145,0,0,1-1.161-.7,3.1,3.1,0,0,1-.759-1.1,3.618,3.618,0,0,1-.279-1.44,3.69,3.69,0,0,1,.325-1.579,3.36,3.36,0,0,1,.9-1.177,3.858,3.858,0,0,1,1.362-.743,5.893,5.893,0,0,1,1.78-.248,11.294,11.294,0,0,1,1.3.077c.387.062.743.139,1.037.217v-.434a1.947,1.947,0,0,0-.124-.728,1.569,1.569,0,0,0-.418-.635,1.926,1.926,0,0,0-.743-.434,3.407,3.407,0,0,0-1.13-.17,7.275,7.275,0,0,0-1.626.186,12.71,12.71,0,0,0-1.749.526v-2.075a9.206,9.206,0,0,1,1.749-.542,9.747,9.747,0,0,1,1.935-.217,7.092,7.092,0,0,1,2.09.294,4.391,4.391,0,0,1,1.486.805,3.293,3.293,0,0,1,.913,1.208,3.789,3.789,0,0,1,.294,1.517v4.118c0,.712,0,1.331.015,1.858.016.511.031.975.046,1.378h-2.4Zm-.217-3.483c-.248-.062-.542-.108-.867-.17a7.312,7.312,0,0,0-1.006-.062,2.613,2.613,0,0,0-1.533.387,1.327,1.327,0,0,0-.573,1.192,1.656,1.656,0,0,0,.124.635,1.331,1.331,0,0,0,.356.464,1.592,1.592,0,0,0,.511.263,2,2,0,0,0,.619.093,2.43,2.43,0,0,0,.759-.108,3.136,3.136,0,0,0,.666-.263,3.351,3.351,0,0,0,.542-.372,4.91,4.91,0,0,0,.4-.387v-1.672Zm4.3-6.255h2.849l1.641,3.948c.6,1.5,1.053,2.616,1.3,3.329h.046c.186-.557.588-1.595,1.192-3.127l1.688-4.149h2.9l-7.013,16.132h-2.647l2.508-5.837Z" transform="translate(-303.554 -143.688)"/><path class="c" d="M389.61,82.394h-5.016l-1.13,2.709h-.975l4.165-9.676h.882l4.18,9.676h-.96l-1.146-2.709Zm-4.722-.7h4.428L387.1,76.418Zm10.419,2.322,2.477-6.1h.944L395.664,85.1h-.743l-3.065-7.184h.929l2.523,6.1Zm9.97,1.084a3.305,3.305,0,0,1-.186-.991,3.126,3.126,0,0,1-1.208.836,4.128,4.128,0,0,1-1.564.294,3.014,3.014,0,0,1-1.92-.573,1.825,1.825,0,0,1-.728-1.471,1.853,1.853,0,0,1,.991-1.657,5.387,5.387,0,0,1,2.787-.619h1.641V80.1a1.488,1.488,0,0,0-.542-1.208,2.46,2.46,0,0,0-1.579-.449,2.594,2.594,0,0,0-1.564.433,1.221,1.221,0,0,0-.635,1.022l-.9-.015a1.744,1.744,0,0,1,.9-1.471,3.875,3.875,0,0,1,2.245-.635,3.451,3.451,0,0,1,2.152.6,2.021,2.021,0,0,1,.821,1.688v3.391a3.687,3.687,0,0,0,.248,1.564V85.1Zm-2.849-.557a3.321,3.321,0,0,0,1.626-.387,2.447,2.447,0,0,0,1.037-1.022V81.542h-1.625a4.663,4.663,0,0,0-2.121.433,1.29,1.29,0,0,0-.759,1.161,1.254,1.254,0,0,0,.511,1.022,2.094,2.094,0,0,0,1.331.387Zm6.982.557h-.9V77.92h.9Zm-1.068-9.258a.528.528,0,0,1,.17-.387.625.625,0,0,1,.464-.155.611.611,0,0,1,.449.155.476.476,0,0,1,.17.387.466.466,0,0,1-.17.372.683.683,0,0,1-.449.155.7.7,0,0,1-.464-.155.52.52,0,0,1-.17-.372Zm4.552,9.258h-.913V74.9h.913Zm7.648,0a3.3,3.3,0,0,1-.186-.991,3.127,3.127,0,0,1-1.208.836,4.128,4.128,0,0,1-1.564.294,3.014,3.014,0,0,1-1.92-.573,1.825,1.825,0,0,1-.728-1.471,1.853,1.853,0,0,1,.991-1.657,5.387,5.387,0,0,1,2.787-.619h1.641V80.1a1.489,1.489,0,0,0-.542-1.208,2.431,2.431,0,0,0-1.579-.449,2.594,2.594,0,0,0-1.564.433,1.221,1.221,0,0,0-.635,1.022l-.9-.015a1.744,1.744,0,0,1,.9-1.471,3.91,3.91,0,0,1,2.245-.635,3.451,3.451,0,0,1,2.152.6,2.021,2.021,0,0,1,.82,1.688v3.391a3.951,3.951,0,0,0,.248,1.564V85.1Zm-2.849-.557a3.32,3.32,0,0,0,1.626-.387,2.448,2.448,0,0,0,1.037-1.022V81.542h-1.626a4.663,4.663,0,0,0-2.121.433,1.29,1.29,0,0,0-.759,1.161,1.254,1.254,0,0,0,.511,1.022,2.094,2.094,0,0,0,1.331.387Zm12.571-2.957a3.9,3.9,0,0,1-.852,2.663,2.806,2.806,0,0,1-2.276.991,3.087,3.087,0,0,1-2.585-1.115l-.047.975h-.836V74.9h.9v4.056a2.986,2.986,0,0,1,2.555-1.177,2.905,2.905,0,0,1,2.307.975,4.051,4.051,0,0,1,.836,2.709Zm-.913-.139a3.411,3.411,0,0,0-.619-2.2,2.168,2.168,0,0,0-1.78-.774,2.767,2.767,0,0,0-1.471.372,2.375,2.375,0,0,0-.913,1.1V83.2a2.452,2.452,0,0,0,2.4,1.347,2.134,2.134,0,0,0,1.765-.774,3.618,3.618,0,0,0,.619-2.322Zm3.932,3.654h-.913V74.9h.913Zm5.635.139a3.869,3.869,0,0,1-1.889-.449,3.416,3.416,0,0,1-1.316-1.254,3.586,3.586,0,0,1-.464-1.811v-.294a3.941,3.941,0,0,1,.449-1.873,3.454,3.454,0,0,1,1.285-1.3,3.362,3.362,0,0,1,1.765-.48,3.1,3.1,0,0,1,2.369.9A3.339,3.339,0,0,1,442,81.124v.449h-5.852v.155a2.814,2.814,0,0,0,.805,2.044,2.671,2.671,0,0,0,2.013.805,3.337,3.337,0,0,0,1.285-.232,2.832,2.832,0,0,0,1.006-.743l.573.372a3.473,3.473,0,0,1-2.911,1.269h0Zm-.17-6.781a2.371,2.371,0,0,0-1.719.666,2.891,2.891,0,0,0-.851,1.765H441.1V80.8a2.526,2.526,0,0,0-.681-1.688,2.215,2.215,0,0,0-1.672-.65Zm8.283,2.942a3.719,3.719,0,0,1,.464-1.858,3.151,3.151,0,0,1,1.285-1.3,3.854,3.854,0,0,1,1.9-.464,3.482,3.482,0,0,1,3.669,3.685v.17a3.777,3.777,0,0,1-.464,1.873,3.115,3.115,0,0,1-1.285,1.285,3.847,3.847,0,0,1-1.9.449,3.481,3.481,0,0,1-3.669-3.669Zm.913.232a3.021,3.021,0,0,0,.759,2.121,2.625,2.625,0,0,0,2,.821,2.568,2.568,0,0,0,1.982-.821,3.122,3.122,0,0,0,.774-2.2v-.139A3.272,3.272,0,0,0,453.1,79.9a2.565,2.565,0,0,0-.975-1.053,2.64,2.64,0,0,0-1.44-.387,2.573,2.573,0,0,0-1.982.836,3.1,3.1,0,0,0-.759,2.183Zm9.134-3.716.031,1.223a3.152,3.152,0,0,1,1.161-1.006,3.272,3.272,0,0,1,1.517-.356,2.665,2.665,0,0,1,1.966.65,2.8,2.8,0,0,1,.65,1.966V85.1h-.913V80.381a1.947,1.947,0,0,0-.464-1.424,1.9,1.9,0,0,0-1.455-.48,2.507,2.507,0,0,0-1.5.464,2.8,2.8,0,0,0-.944,1.239V85.1h-.913V77.92Zm12.85-1.842V77.92h1.688v.65H469.93v4.8a1.368,1.368,0,0,0,.232.882,1.037,1.037,0,0,0,.836.294,5.823,5.823,0,0,0,.728-.062l.031.65a3.208,3.208,0,0,1-.96.108,1.791,1.791,0,0,1-1.362-.464,2.1,2.1,0,0,1-.418-1.409v-4.8H467.5v-.65h1.517V76.077Zm4.474,3.05a3.083,3.083,0,0,1,1.146-.991,3.366,3.366,0,0,1,1.517-.356,2.3,2.3,0,0,1,2.616,2.616V85.1h-.9V80.381a2.016,2.016,0,0,0-.464-1.424,1.957,1.957,0,0,0-1.471-.48,2.493,2.493,0,0,0-1.486.464,2.725,2.725,0,0,0-.96,1.239V85.1h-.9V74.9h.9v4.227Zm10.791,6.115a3.828,3.828,0,0,1-1.889-.449,3.215,3.215,0,0,1-1.316-1.254,3.586,3.586,0,0,1-.464-1.811v-.294a3.94,3.94,0,0,1,.449-1.873,3.518,3.518,0,0,1,3.05-1.78,3.151,3.151,0,0,1,2.369.9,3.338,3.338,0,0,1,.882,2.446v.449h-5.852v.155a2.814,2.814,0,0,0,.805,2.044,2.66,2.66,0,0,0,2,.805,3.282,3.282,0,0,0,1.285-.232,2.882,2.882,0,0,0,1.022-.743l.557.372a3.443,3.443,0,0,1-2.9,1.269Zm-.17-6.781a2.371,2.371,0,0,0-1.718.666,2.811,2.811,0,0,0-.852,1.765h4.908V80.8a2.442,2.442,0,0,0-.666-1.688,2.239,2.239,0,0,0-1.672-.65Z" transform="translate(-317.976 -62.267)"/></g></svg>