<svg xmlns="http://www.w3.org/2000/svg" width="16.536" height="20.284" viewBox="0 0 16.536 20.284">
  <path id="apple" d="M9.124,1.765A4.341,4.341,0,0,1,12.309,0a4.331,4.331,0,0,1-1.048,3.242A3.425,3.425,0,0,1,8.24,4.663,3.767,3.767,0,0,1,9.124,1.765ZM8.41,5.82c.686,0,1.958-.942,3.614-.942A4.527,4.527,0,0,1,16,6.906,4.4,4.4,0,0,0,13.8,10.749a4.517,4.517,0,0,0,2.733,4.128s-1.91,5.377-4.49,5.377c-1.185,0-2.106-.8-3.355-.8-1.272,0-2.535.828-3.358.828-2.356,0-5.333-5.1-5.333-9.2,0-4.034,2.519-6.15,4.883-6.15,1.536,0,2.728.886,3.527.886Z" fill="#fff"/>
</svg>
