<svg id="Facebook-f_Logo-Blue-Logo.wine" xmlns="http://www.w3.org/2000/svg" width="19.543" height="19.542" viewBox="0 0 19.543 19.542">
  <path id="Path_39" data-name="Path 39" d="M19.543,9.771a9.771,9.771,0,1,0-11.3,9.653V12.6H5.764V9.771H8.245V7.619a3.448,3.448,0,0,1,3.691-3.8,15.027,15.027,0,0,1,2.187.191v2.4H12.89A1.412,1.412,0,0,0,11.3,7.938V9.771h2.71L13.575,12.6H11.3v6.828a9.774,9.774,0,0,0,8.245-9.653" fill="#fff"/>
  <path id="Path_40" data-name="Path 40" d="M410.478,275.446l.433-2.824H408.2v-1.833a1.412,1.412,0,0,1,1.592-1.526h1.232v-2.4a15.031,15.031,0,0,0-2.187-.191,3.448,3.448,0,0,0-3.691,3.8v2.153h-2.481v2.824h2.481v6.828a9.88,9.88,0,0,0,3.054,0v-6.828h2.277" transform="translate(-396.903 -262.85)" fill="#3b5998"/>
</svg>
