<svg id="Google__G__Logo" xmlns="http://www.w3.org/2000/svg" width="19.542" height="19.966" viewBox="0 0 19.542 19.966">
  <path id="Path_35" data-name="Path 35" d="M-5.2,51.127a11.566,11.566,0,0,0-.158-1.888h-9.4v3.752h5.383a4.635,4.635,0,0,1-2,2.978v2.5h3.211A9.761,9.761,0,0,0-5.2,51.127Z" transform="translate(24.737 -40.92)" fill="#4285f4"/>
  <path id="Path_36" data-name="Path 36" d="M-16.554,61.607a9.51,9.51,0,0,0,6.6-2.421l-3.211-2.5a6.022,6.022,0,0,1-3.386.965,5.962,5.962,0,0,1-5.6-4.126h-3.311V56.1A9.968,9.968,0,0,0-16.554,61.607Z" transform="translate(26.537 -41.641)" fill="#34a853"/>
  <path id="Path_37" data-name="Path 37" d="M-22.37,52.24a5.793,5.793,0,0,1-.316-1.905,6.019,6.019,0,0,1,.316-1.905V45.859h-3.311a9.867,9.867,0,0,0-1.073,4.476,9.867,9.867,0,0,0,1.073,4.476Z" transform="translate(26.754 -40.352)" fill="#fbbc05"/>
  <path id="Path_38" data-name="Path 38" d="M-16.554,43.191a5.416,5.416,0,0,1,3.827,1.5l2.845-2.845a9.545,9.545,0,0,0-6.672-2.6,9.968,9.968,0,0,0-8.91,5.507l3.311,2.571A5.962,5.962,0,0,1-16.554,43.191Z" transform="translate(26.537 -39.239)" fill="#ea4335"/>
</svg>
