<svg width="507" height="507" viewBox="0 0 507 507" fill="none" xmlns="http://www.w3.org/2000/svg">
<circle cx="253.5" cy="253.5" r="253.5" fill="white"/>
<g clip-path="url(#clip0_1726_27944)">
<path d="M192.625 242.824C192.541 242.827 192.46 242.852 192.388 242.896C192.317 242.939 192.258 243.001 192.218 243.075C188.12 248.466 182.624 251.69 176.135 253.344C172.469 254.289 168.682 254.678 164.9 254.498C161.613 254.335 158.427 253.704 155.509 252.118C151.258 249.82 148.71 246.177 147.305 241.664C146.396 238.63 145.949 235.477 145.977 232.311C145.95 220.278 145.95 208.246 145.977 196.217C145.977 196.055 145.977 195.904 145.977 195.732C145.977 195.404 146.131 195.266 146.447 195.276C146.641 195.276 146.835 195.276 147.029 195.276H161.566C161.76 195.276 161.954 195.276 162.148 195.276C162.461 195.276 162.624 195.401 162.612 195.732C162.612 195.992 162.612 196.248 162.612 196.508V228.149C162.565 230.28 162.812 232.407 163.344 234.472C163.548 235.218 163.819 235.945 164.155 236.642C165.67 239.769 168.224 241.455 171.627 241.736C178.391 242.299 183.863 239.785 188.102 234.544C188.224 234.394 188.333 234.231 188.449 234.078C190.149 231.745 190.149 231.745 190.149 228.846V196.636C190.149 196.474 190.149 196.323 190.149 196.151C190.149 195.313 190.149 195.304 191.003 195.304H205.735C206.933 195.304 206.789 195.238 206.789 196.433C206.789 209.494 206.789 222.557 206.789 235.623C206.758 236.364 206.8 237.107 206.915 237.84C207.25 239.516 208.023 240.313 209.685 240.654C210.777 240.87 210.777 240.87 210.777 241.961C210.777 245.476 210.777 248.992 210.777 252.509C210.777 253.447 210.777 253.447 209.863 253.597C207.109 254.02 204.351 254.273 201.562 254.004C199.916 253.875 198.316 253.401 196.866 252.612C194.547 251.296 193.166 249.36 192.982 246.643C192.866 245.354 192.738 244.103 192.625 242.824Z" fill="#173303"/>
<path d="M292.998 224.371C292.998 219.761 292.998 215.149 292.998 210.536C292.986 209.831 293.196 209.139 293.599 208.56C297.136 203.225 301.969 199.491 307.848 197.055C311.771 195.463 315.934 194.541 320.163 194.328C324.677 194.059 329.147 194.328 333.523 195.507C340.409 197.346 346.332 200.801 350.799 206.452C355.651 212.594 357.742 219.636 356.837 227.373C355.497 238.793 349.224 246.699 338.819 251.415C334.863 253.206 330.68 254.06 326.351 254.379C321.35 254.801 316.315 254.318 311.486 252.953C305.225 251.133 299.831 247.928 295.612 242.89C294.831 241.942 294.1 240.954 293.421 239.932C293.115 239.478 292.961 238.939 292.982 238.393C293.004 233.73 292.998 229.04 292.998 224.371ZM340.046 224.411C340.015 223.895 339.987 223.379 339.959 222.867C339.533 215.515 334.44 208.072 325.058 207.009C317.342 206.136 311.119 210.183 308.221 215.552C306.18 219.333 305.61 223.37 306.258 227.554C307.51 235.747 313.883 241.451 322.179 241.805C328.326 242.064 333.357 239.816 336.944 234.725C339.113 231.648 340.009 228.148 340.046 224.411Z" fill="#173303"/>
<path d="M372.044 206.709C372.275 206.778 372.319 206.671 372.357 206.599C375.202 202.534 379.078 199.773 383.648 197.956C389.667 195.508 396.242 194.751 402.661 195.767C409.319 196.824 413.72 200.705 415.887 207.09C416.647 209.336 416.963 211.665 417.236 214.005C417.416 215.834 417.488 217.673 417.452 219.512C417.452 230.796 417.452 242.082 417.452 253.369C417.452 254.711 417.605 254.53 416.253 254.533C411.503 254.533 406.756 254.533 402.01 254.533C401.816 254.522 401.622 254.522 401.428 254.533C400.896 254.595 400.749 254.326 400.802 253.851C400.821 253.626 400.802 253.401 400.802 253.175C400.802 242.791 400.802 232.407 400.802 222.023C400.853 219.795 400.584 217.572 400.004 215.421C398.723 211.043 395.421 208.526 390.866 208.47C386.54 208.416 382.796 210.011 379.463 212.651C377.212 214.433 375.34 216.547 374.141 219.218C373.79 219.977 373.611 220.805 373.615 221.641C373.634 232.219 373.634 242.796 373.615 253.372C373.615 254.698 373.762 254.539 372.413 254.539C367.666 254.539 362.918 254.539 358.17 254.539C357.945 254.539 357.716 254.539 357.491 254.539C357.122 254.561 356.956 254.401 356.978 254.029C356.978 253.838 356.978 253.645 356.978 253.451C356.978 249.098 356.978 244.745 356.978 240.388C356.971 239.813 357.115 239.246 357.397 238.744C362.581 229.133 362.563 219.529 357.344 209.933C357.111 209.548 356.984 209.11 356.975 208.66C356.99 204.855 356.975 201.052 356.975 197.246C356.975 196.364 356.975 196.358 357.895 196.358H371.105H371.59C371.903 196.358 372.053 196.524 372.044 196.84C372.044 197.065 372.044 197.29 372.044 197.515V206.718V206.709Z" fill="#173303"/>
<path d="M88.5508 175.76H162.278C162.432 176.072 162.181 176.191 162.05 176.351C158.644 180.4 155.226 184.441 151.836 188.503C151.662 188.728 151.434 188.906 151.174 189.021C150.914 189.136 150.629 189.185 150.346 189.163C138.39 189.146 126.438 189.146 114.488 189.163H107.32C107.251 189.494 107.511 189.476 107.671 189.513L112.485 190.989C113.305 191.242 113.308 191.245 113.308 192.109C113.308 197.498 113.308 202.885 113.308 208.27C113.308 209.608 113.158 209.461 114.488 209.461H133.921C133.94 209.865 133.69 210.008 133.533 210.193C130.44 213.874 127.329 217.542 124.252 221.238C124.078 221.464 123.852 221.643 123.592 221.759C123.333 221.876 123.049 221.927 122.765 221.907C117.919 221.879 113.061 221.885 108.228 221.882H107.239C107.345 222.233 107.605 222.195 107.796 222.261C109.43 222.767 111.061 223.277 112.704 223.759C112.799 223.77 112.89 223.8 112.973 223.847C113.056 223.894 113.129 223.957 113.188 224.032C113.246 224.108 113.288 224.194 113.313 224.286C113.337 224.378 113.343 224.474 113.33 224.569C113.309 227.602 113.309 230.634 113.33 233.665C113.316 234.083 113.141 234.48 112.842 234.773C109.344 238.917 105.849 243.063 102.355 247.209C100.546 249.354 98.7367 251.501 96.9274 253.648C96.7696 253.902 96.5554 254.116 96.3014 254.274C96.0697 253.989 96.1887 253.648 96.1887 253.364C96.1887 228.817 96.1887 204.271 96.1887 179.725C96.1887 177.958 96.4109 178.349 94.8114 177.849C92.9958 177.276 91.1709 176.729 89.3522 176.169C89.0829 176.088 88.8169 176.001 88.5508 175.916V175.76Z" fill="#173303"/>
<path d="M149.598 338.416C149.292 338.534 148.962 338.573 148.637 338.529C143.278 338.529 137.916 338.529 132.554 338.548C132.271 338.565 131.989 338.509 131.735 338.387C131.48 338.264 131.261 338.078 131.098 337.847C124.821 330.017 118.532 322.199 112.232 314.393L111.518 313.515C111.277 313.909 111.371 314.265 111.371 314.59C111.371 318.007 111.38 321.426 111.399 324.848C111.414 325.085 111.381 325.323 111.303 325.547C111.224 325.772 111.102 325.978 110.942 326.155C106.397 331.308 101.862 336.472 97.3379 341.647C97.2346 341.769 97.1407 341.9 97.0249 342.031C96.6586 341.775 96.7963 341.459 96.7932 341.203C96.6513 330.779 96.5167 320.363 96.3894 309.956L96.0325 282.387C96.0325 281.574 96.0325 281.568 95.2468 281.327C93.954 280.923 92.6549 280.536 91.359 280.138C91.0126 280.082 90.688 279.933 90.4199 279.707H110.25C110.444 279.707 110.638 279.707 110.833 279.707C111.205 279.685 111.362 279.857 111.34 280.223C111.34 280.448 111.34 280.673 111.34 280.898C111.34 288.929 111.34 296.955 111.34 304.978C111.301 305.333 111.32 305.692 111.396 306.041C111.709 306.041 111.803 305.753 111.959 305.575C118.704 297.888 125.447 290.196 132.187 282.499C132.318 282.319 132.489 282.172 132.687 282.071C132.885 281.97 133.104 281.918 133.327 281.918C138.558 281.937 143.791 281.918 149.022 281.918C149.172 281.918 149.319 281.952 149.607 281.987C149.348 282.299 149.172 282.518 148.981 282.728L127.602 307.495C126.791 308.433 126.788 308.433 127.558 309.44L148.947 337.556C149.166 337.832 149.36 338.091 149.598 338.416Z" fill="#173303"/>
<path d="M219.761 240.558C220.656 239.207 221.52 237.925 222.362 236.627C222.603 236.252 222.822 236.314 223.151 236.505C223.942 237.001 224.745 237.48 225.561 237.94C230.119 240.505 234.88 242.54 240.076 243.403C243.247 243.929 246.434 244.091 249.617 243.5C251.121 243.261 252.556 242.702 253.824 241.862C254.559 241.383 255.159 240.725 255.568 239.949C255.976 239.174 256.179 238.307 256.156 237.431C256.172 236.635 255.975 235.849 255.584 235.156C255.194 234.462 254.625 233.885 253.937 233.484C253.074 232.975 252.156 232.565 251.201 232.261C247.673 230.995 244.036 230.104 240.405 229.187C236.774 228.271 233.205 227.311 229.715 226.088C227.757 225.422 225.883 224.535 224.127 223.443C220.506 221.151 218.721 217.886 218.69 213.589C218.646 207.613 221.132 202.957 225.874 199.423C229.149 197.03 232.952 195.457 236.962 194.835C245.526 193.397 253.887 194.185 261.951 197.506C264.482 198.575 266.863 199.968 269.034 201.65C269.661 202.119 269.745 202.078 269.235 202.757C267.3 205.34 265.372 207.926 263.45 210.515C262.993 211.125 262.98 211.141 262.314 210.696C258.905 208.507 255.314 206.687 251.358 205.665C247.886 204.764 244.371 204.414 240.806 204.986C239.43 205.202 238.105 205.663 236.893 206.347C234.348 207.788 233.838 210.496 234.413 212.789C234.661 213.78 235.353 214.471 236.157 215.034C237.048 215.619 238.011 216.088 239.021 216.429C241.82 217.451 244.731 218.045 247.62 218.724C251.812 219.656 255.949 220.822 260.01 222.217C262.274 222.988 264.433 224.038 266.436 225.344C269.135 227.152 271.201 229.481 271.795 232.746C272.944 239.066 271.351 244.517 266.261 248.695C263.131 251.271 259.453 252.738 255.518 253.573C251.021 254.491 246.415 254.759 241.842 254.37C236.591 253.993 231.42 252.873 226.484 251.043C224.798 250.391 223.148 249.648 221.542 248.82C221.26 248.717 221.021 248.522 220.865 248.266C220.708 248.011 220.642 247.71 220.678 247.413C220.728 245.511 220.697 243.607 220.693 241.702C220.681 240.864 220.678 240.864 219.761 240.558Z" fill="#173303"/>
<path d="M329.892 316.567C329.847 316.655 329.822 316.752 329.819 316.851C329.816 316.95 329.834 317.048 329.873 317.139C331.522 323.963 335.82 327.34 342.463 327.884C347.822 328.322 352.699 326.946 357.125 323.934C357.751 323.5 357.773 323.506 358.164 324.21C359.861 327.253 361.553 330.298 363.242 333.344C363.583 333.97 363.577 333.97 362.957 334.37C358.042 337.553 352.749 339.742 346.873 340.368C342.303 340.859 337.771 340.68 333.332 339.43C325.03 337.056 319.577 331.693 316.857 323.537C315.452 319.316 315.107 314.963 315.292 310.55C315.392 307.354 315.943 304.189 316.929 301.147C319.455 293.51 324.777 288.751 332.411 286.471C336.199 285.339 340.096 285.129 344.019 285.305C347.462 285.461 350.827 286.005 354.036 287.25C359.479 289.345 363.276 293.047 365.029 298.68C365.865 301.359 366.012 304.127 365.906 306.91C365.779 309.617 365.347 312.302 364.619 314.913C364.416 315.663 364.409 315.657 363.658 315.676L334.985 316.37C333.695 316.401 332.402 316.426 331.112 316.467C330.703 316.442 330.292 316.475 329.892 316.567ZM341.054 307.436V307.364C344.282 307.364 347.509 307.364 350.736 307.364C351.362 307.364 352.189 307.639 352.614 307.239C353.087 306.788 352.758 305.956 352.727 305.3C352.514 300.781 349.969 297.738 345.559 296.778C342.833 296.188 340.007 296.245 337.307 296.944C336.065 297.245 334.898 297.798 333.88 298.57C332.861 299.342 332.013 300.315 331.388 301.428C330.453 303.053 329.835 304.84 329.566 306.694C329.45 307.423 329.45 307.432 330.22 307.432C333.837 307.439 337.448 307.44 341.054 307.436Z" fill="#173303"/>
<path d="M379.497 295.098C380.123 294.614 380.571 294.257 381.028 293.904C383.787 291.715 386.772 289.828 389.934 288.275C394.155 286.19 398.866 285.293 403.56 285.682C408.427 286.105 411.839 288.497 413.639 293.072C414.704 295.774 415.117 298.604 415.342 301.475C415.824 307.56 415.796 313.652 415.621 319.747C415.461 325.376 415.129 331.004 414.503 336.633C414.503 336.699 414.503 336.762 414.503 336.827C414.391 337.706 414.391 337.725 413.517 337.703C409.16 337.592 404.802 337.478 400.445 337.359C399.594 337.337 399.587 337.324 399.675 336.471C399.982 333.49 400.221 330.503 400.392 327.511C400.82 321.138 400.872 314.746 400.548 308.367C400.479 306.981 400.241 305.608 399.841 304.28C399.65 303.659 399.386 303.063 399.055 302.503C398.116 300.893 396.667 300.124 394.836 300.002C392.644 299.839 390.607 300.371 388.628 301.231C386.482 302.206 384.465 303.443 382.624 304.915C381.807 305.54 381.031 306.231 380.211 306.856C380.016 306.997 379.862 307.187 379.765 307.407C379.667 307.627 379.63 307.869 379.657 308.107C379.691 310.137 379.688 312.173 379.701 314.202L379.842 336.261C379.842 336.486 379.823 336.715 379.842 336.94C379.888 337.403 379.669 337.565 379.215 337.565C377.988 337.612 376.764 337.69 375.537 337.756C372.347 337.925 369.156 338.094 365.965 338.263C365.286 338.3 365.27 338.297 365.251 337.6C365.251 337.146 365.251 336.696 365.251 336.242C365.224 336.099 365.243 335.952 365.306 335.82C365.368 335.689 365.471 335.58 365.599 335.511C365.949 335.336 365.952 335.076 365.736 334.804C365.126 334.035 365.157 333.137 365.145 332.227C365.076 327.164 364.985 322.101 364.907 317.039C364.888 315.891 364.907 315.891 366.078 315.831C366.901 315.791 366.913 315.794 367.117 315.009C368.231 310.772 368.81 306.478 368.369 302.088C368.022 298.554 366.973 295.273 364.872 292.393C364.597 292.035 364.452 291.594 364.459 291.142C364.459 290.173 364.459 289.207 364.384 288.24C364.353 287.731 364.544 287.552 365.032 287.527C366.644 287.449 368.253 287.346 369.865 287.252C372.683 287.09 375.472 286.94 378.276 286.764C379.075 286.714 379.078 286.696 379.115 287.506C379.215 289.726 379.315 291.947 379.413 294.17C379.438 294.413 379.463 294.661 379.497 295.098Z" fill="#173303"/>
<path d="M280.406 296.586L281.54 295.67C284.163 293.559 286.927 291.664 289.991 290.266C293.998 288.455 298.168 287.667 302.55 288.193C306.676 288.684 309.527 290.841 311.071 294.707C311.893 296.878 312.397 299.158 312.567 301.474C313.055 306.79 313.021 312.106 312.924 317.422C312.836 322.097 312.63 326.766 312.179 331.423C312.072 332.514 311.928 333.612 311.841 334.691C311.806 335.119 311.625 335.235 311.215 335.222C310.053 335.188 308.889 335.178 307.728 335.157L299.204 334.997C298.39 334.978 298.384 334.969 298.471 334.181C299.26 326.741 299.577 319.258 299.42 311.778C299.388 309.714 299.301 307.65 298.825 305.63C298.681 304.968 298.466 304.323 298.183 303.707C297.876 303.008 297.388 302.404 296.771 301.954C296.153 301.505 295.428 301.227 294.668 301.149C292.829 300.947 290.969 301.206 289.256 301.902C287.065 302.725 285.127 304.016 283.283 305.445C282.494 306.071 281.756 306.737 280.964 307.347C280.773 307.491 280.623 307.682 280.528 307.901C280.433 308.12 280.396 308.36 280.422 308.597C280.46 311.822 280.463 315.046 280.485 318.27C280.518 323.496 280.557 328.721 280.6 333.943C280.6 334.071 280.6 334.2 280.6 334.331C280.6 335.044 280.6 335.063 279.852 335.1C275.983 335.309 272.114 335.506 268.245 335.691C267.982 335.691 267.578 335.913 267.466 335.572C267.37 335.366 267.336 335.136 267.367 334.91C267.398 334.685 267.493 334.473 267.641 334.3C268.104 333.809 268.561 333.308 269.003 332.792C269.507 332.201 269.5 332.192 269.065 331.576C268.893 331.304 268.701 331.043 268.493 330.797C267.485 329.728 267.218 328.48 267.2 327.013C267.081 317.76 266.887 308.51 266.68 299.257C266.661 298.515 266.805 298.006 267.466 297.565C268.355 296.983 269.172 296.289 270.017 295.642C270.612 295.185 270.615 295.179 270.211 294.503C269.351 293.022 268.285 291.671 267.043 290.491C266.864 290.337 266.722 290.144 266.626 289.928C266.531 289.712 266.485 289.477 266.492 289.24C266.42 284.049 266.32 278.861 266.232 273.67C266.232 272.866 266.232 272.854 266.999 272.81C271.192 272.585 275.383 272.363 279.574 272.144C280.344 272.107 280.356 272.116 280.359 272.942C280.378 278.585 280.393 284.229 280.403 289.872C280.41 292.005 280.406 294.166 280.406 296.586Z" fill="#173303"/>
<path d="M212.104 323.999C212.286 324.875 212.403 325.763 212.454 326.657C212.786 329.568 213.08 332.486 213.443 335.394C213.5 335.873 213.309 336.019 212.924 336.145C208.773 337.395 204.569 338.39 200.202 338.437C198.23 338.475 196.262 338.245 194.352 337.755C189.994 336.595 186.983 333.909 185.236 329.778C184.131 327.163 183.671 324.411 183.433 321.6C183.33 320.315 183.314 319.026 183.292 317.738C183.211 312.109 183.142 306.455 183.054 300.814C183.033 299.363 183.136 299.563 181.802 299.563C179.771 299.591 177.733 299.654 175.701 299.697C174.95 299.716 174.941 299.697 174.956 298.978C175.029 295.463 175.107 291.949 175.188 288.437C175.207 287.623 175.219 287.62 176.08 287.608C177.886 287.583 179.696 287.589 181.502 287.539C183.017 287.495 182.813 287.683 182.801 286.244C182.776 283.43 182.72 280.634 182.676 277.832C182.676 277.348 182.691 276.86 182.644 276.381C182.597 275.903 182.842 275.712 183.305 275.659C184.842 275.478 186.376 275.268 187.913 275.068L196.646 273.926L196.934 273.895C198.027 273.789 198.008 273.654 198.008 274.833C198.008 278.638 198.008 282.443 198.008 286.248C198.008 286.473 198.008 286.701 198.008 286.923C197.986 287.295 198.146 287.439 198.518 287.433C199.586 287.417 200.65 287.433 201.717 287.414L213.049 287.258C213.274 287.258 213.503 287.258 213.728 287.258C214.082 287.236 214.285 287.361 214.254 287.749C214.254 287.942 214.254 288.136 214.254 288.33C214.158 291.541 214.061 294.758 213.963 297.981C213.963 298.775 213.963 298.775 213.158 298.775C208.448 298.885 203.736 298.99 199.022 299.088C198.828 299.088 198.634 299.088 198.44 299.088C198.391 299.087 198.344 299.097 198.299 299.116C198.255 299.135 198.215 299.163 198.182 299.198C198.149 299.233 198.123 299.275 198.107 299.321C198.092 299.366 198.085 299.415 198.089 299.463C198.089 299.722 198.089 299.979 198.089 300.238C198.123 305.978 198.158 311.717 198.196 317.457C198.208 318.165 198.272 318.872 198.387 319.571C198.853 322.566 200.468 324.402 204.078 324.962C206.391 325.321 208.638 324.868 210.861 324.255C211.255 324.177 211.631 323.955 212.104 323.999Z" fill="#173303"/>
<path d="M258.646 321.748C259.372 322.739 260.111 323.753 260.837 324.769C262.164 326.595 263.498 328.418 264.815 330.254C265.394 331.058 265.441 330.823 264.731 331.683C261.87 335.098 258.21 337.312 254.013 338.685C250.598 339.795 247.07 340.086 243.492 339.936C240.223 339.864 236.997 339.174 233.985 337.903C227.355 335.004 222.945 330.023 220.669 323.237C217.895 314.975 218.093 306.766 222.053 298.898C225.987 291.08 232.533 286.749 241.125 285.489C246.201 284.688 251.4 285.299 256.151 287.255C260.154 288.91 263.494 291.408 265.814 295.142C265.933 295.333 266.036 295.533 266.161 295.721C266.207 295.767 266.24 295.824 266.259 295.886C266.279 295.948 266.283 296.014 266.272 296.078C266.261 296.142 266.235 296.202 266.196 296.254C266.157 296.306 266.107 296.348 266.049 296.377C265.889 296.487 265.736 296.612 265.585 296.728L257.804 302.669C257.131 303.179 257.218 303.295 256.636 302.513C252.635 297.212 243.63 296.074 238.38 300.515C235.738 302.751 234.273 305.618 233.757 308.983C233.293 312.01 233.353 315.031 234.251 317.986C235.945 323.587 240.437 326.92 246.297 326.92C250.945 326.92 254.958 325.397 258.207 322.017C258.314 321.875 258.471 321.779 258.646 321.748Z" fill="#173303"/>
<path d="M273.753 202.147C273.349 201.834 272.986 201.522 272.579 201.256C272.396 201.16 272.245 201.012 272.145 200.831C272.046 200.649 272.003 200.442 272.022 200.236C272.059 199.142 272.022 198.047 272.022 196.95C272.022 196.262 272.041 196.246 272.714 196.243C274.877 196.243 277.043 196.243 279.206 196.243H287.839C288.994 196.243 288.897 196.177 288.897 197.275V225.332C288.897 234.713 288.897 244.095 288.897 253.476C288.897 254.655 289.029 254.543 287.789 254.543H273.158H272.385C272.337 254.549 272.287 254.544 272.241 254.528C272.195 254.512 272.153 254.486 272.119 254.451C272.085 254.416 272.06 254.374 272.045 254.327C272.03 254.281 272.027 254.231 272.034 254.183C272.034 253.958 272.034 253.733 272.034 253.504C272.034 251.628 272.059 249.752 272.034 247.894C272.022 247.642 272.062 247.389 272.15 247.152C272.238 246.915 272.374 246.699 272.548 246.515C274.568 244.227 275.827 241.369 276.151 238.335C276.489 235.639 276.307 233.018 275.212 230.492C274.589 229.104 273.668 227.87 272.513 226.88C272.364 226.765 272.244 226.616 272.164 226.445C272.085 226.274 272.048 226.086 272.056 225.898C272.056 218.931 272.056 211.964 272.056 204.999C272.052 204.612 272.187 204.237 272.438 203.942C272.864 203.363 273.286 202.772 273.753 202.147Z" fill="#173303"/>
<path d="M172.258 312.51C172.308 320.471 172.356 328.433 172.402 336.395C172.402 337.53 172.631 337.518 171.266 337.586C167.042 337.795 162.821 338.019 158.604 338.259C157.818 338.302 157.815 338.315 157.796 337.489C157.687 333.043 157.587 328.596 157.464 324.149C157.245 316.129 157.018 308.108 156.782 300.085C156.685 296.574 156.604 293.062 156.516 289.55C156.516 289.356 156.516 289.162 156.516 288.971C156.482 288.565 156.657 288.402 157.07 288.38C159.033 288.274 160.999 288.143 162.961 288.024L171.172 287.524C171.332 287.524 171.485 287.508 171.654 287.495C171.986 287.467 172.13 287.627 172.12 287.949C172.12 288.14 172.12 288.333 172.12 288.527L172.271 312.51H172.258Z" fill="#173303"/>
<path d="M280.424 188.347C277.905 188.347 275.386 188.347 272.867 188.347C272.047 188.347 272.031 188.347 272.031 187.587C272.031 183.107 272.031 178.624 272.031 174.14C272.031 173.421 272.031 173.408 272.795 173.408C277.897 173.408 283 173.408 288.102 173.408C288.885 173.408 288.894 173.408 288.894 174.212C288.894 178.661 288.894 183.111 288.894 187.562C288.894 188.334 288.894 188.344 288.077 188.344C285.527 188.35 282.976 188.351 280.424 188.347Z" fill="#173303"/>
<path d="M164.674 265.44C166.997 265.337 169.316 265.246 171.636 265.112C172.143 265.084 172.227 265.281 172.227 265.716C172.227 267.905 172.227 270.094 172.227 272.283C172.227 273.765 172.227 275.25 172.227 276.733C172.227 277.524 172.227 277.539 171.445 277.574C168.609 277.708 165.773 277.83 162.934 277.955L157.809 278.177C157.161 278.202 157.149 278.196 157.133 277.58C157.043 273.909 156.956 270.236 156.87 266.563C156.855 265.859 156.87 265.838 157.628 265.797C159.788 265.684 161.948 265.59 164.107 265.484C164.298 265.484 164.493 265.456 164.687 265.443L164.674 265.44Z" fill="#173303"/>
</g>
<defs>
<clipPath id="clip0_1726_27944">
<rect width="328.946" height="177.048" fill="white" transform="translate(88.5234 164.977)"/>
</clipPath>
</defs>
</svg>
