<svg width="87" height="87" viewBox="0 0 87 87" fill="none" xmlns="http://www.w3.org/2000/svg">
<circle cx="43.5" cy="43.5" r="43.5" fill="#173303"/>
<g clip-path="url(#clip0_1731_2496)">
<path d="M30.836 39.5912C30.8184 39.5918 30.8013 39.597 30.7863 39.6064C30.7713 39.6157 30.759 39.6289 30.7506 39.6445C29.8911 40.7936 28.7381 41.4807 27.3769 41.8333C26.608 42.0348 25.8136 42.1177 25.0204 42.0792C24.3309 42.0446 23.6625 41.9099 23.0505 41.572C22.1588 41.0822 21.6244 40.3057 21.3295 39.3439C21.1389 38.6973 21.0451 38.0253 21.0511 37.3504C21.0455 34.7858 21.0455 32.2215 21.0511 29.6577C21.0511 29.6231 21.0511 29.5911 21.0511 29.5544C21.0511 29.4845 21.0833 29.4551 21.1496 29.4571C21.1903 29.4571 21.2311 29.4571 21.2718 29.4571H24.3211C24.3618 29.4571 24.4025 29.4571 24.4432 29.4571C24.5089 29.4571 24.543 29.4838 24.5404 29.5544C24.5404 29.6098 24.5404 29.6644 24.5404 29.7197V36.4633C24.5306 36.9176 24.5823 37.371 24.694 37.811C24.7368 37.9701 24.7937 38.1249 24.8641 38.2735C25.1819 38.94 25.7177 39.2993 26.4314 39.3593C27.8503 39.4792 28.9981 38.9434 29.8872 37.8263C29.9128 37.7943 29.9357 37.7597 29.96 37.727C30.3166 37.2298 30.3166 37.2298 30.3166 36.612V29.7471C30.3166 29.7124 30.3166 29.6804 30.3166 29.6437C30.3166 29.4651 30.3166 29.4631 30.4958 29.4631H33.5858C33.8373 29.4631 33.8071 29.4491 33.8071 29.7037C33.8071 32.4875 33.8071 35.2716 33.8071 38.0563C33.8005 38.2143 33.8093 38.3726 33.8334 38.5288C33.9036 38.8861 34.0658 39.056 34.4145 39.1287C34.6437 39.1746 34.6436 39.1746 34.6436 39.4073C34.6436 40.1564 34.6436 40.9058 34.6436 41.6553C34.6436 41.8553 34.6437 41.8553 34.4519 41.8873C33.8741 41.9773 33.2956 42.0313 32.7106 41.9739C32.3654 41.9464 32.0298 41.8454 31.7257 41.6773C31.2391 41.3967 30.9496 40.9842 30.9108 40.405C30.8865 40.1304 30.8596 39.8638 30.836 39.5912Z" fill="white"/>
<path d="M51.8904 35.6578C51.8904 34.6754 51.8904 33.6923 51.8904 32.7092C51.8879 32.5589 51.932 32.4115 52.0165 32.288C52.7584 31.151 53.7722 30.3552 55.0054 29.836C55.8282 29.4966 56.7014 29.3001 57.5885 29.2548C58.5353 29.1974 59.4729 29.2548 60.3909 29.506C61.8354 29.8979 63.0777 30.6344 64.0147 31.8388C65.0325 33.1478 65.4711 34.6487 65.2813 36.2976C65.0003 38.7317 63.6845 40.4166 61.5019 41.4217C60.6719 41.8036 59.7947 41.9855 58.8866 42.0535C57.8376 42.1435 56.7813 42.0405 55.7683 41.7496C54.4551 41.3617 53.3238 40.6785 52.4387 39.6048C52.275 39.4027 52.1216 39.1923 51.979 38.9743C51.9149 38.8777 51.8827 38.7628 51.8871 38.6464C51.8917 37.6526 51.8904 36.6529 51.8904 35.6578ZM61.7593 35.6665C61.7527 35.5565 61.7468 35.4465 61.7409 35.3372C61.6516 33.7703 60.5833 32.184 58.6154 31.9574C56.9969 31.7715 55.6915 32.6339 55.0835 33.7783C54.6554 34.5841 54.5359 35.4445 54.6718 36.3363C54.9345 38.0825 56.2713 39.2982 58.0113 39.3735C59.3009 39.4288 60.3561 38.9496 61.1086 37.8646C61.5636 37.2087 61.7514 36.4629 61.7593 35.6665Z" fill="white"/>
<path d="M68.4715 31.8944C68.5201 31.909 68.5293 31.8864 68.5371 31.871C69.134 31.0046 69.9469 30.4161 70.9055 30.0288C72.1681 29.507 73.5473 29.3457 74.8938 29.5623C76.2904 29.7876 77.2136 30.6147 77.668 31.9757C77.8275 32.4542 77.8938 32.9508 77.951 33.4493C77.9887 33.8393 78.0038 34.2312 77.9963 34.623C77.9963 37.0282 77.9963 39.4335 77.9963 41.8391C77.9963 42.1251 78.0285 42.0864 77.7448 42.0871C76.7485 42.0871 75.7526 42.0871 74.7572 42.0871C74.7165 42.0848 74.6758 42.0848 74.6351 42.0871C74.5235 42.1004 74.4926 42.0431 74.5038 41.9418C74.5077 41.8938 74.5038 41.8458 74.5038 41.7978C74.5038 39.5846 74.5038 37.3714 74.5038 35.1582C74.5145 34.6835 74.4582 34.2097 74.3363 33.7512C74.0678 32.8181 73.375 32.2816 72.4197 32.2696C71.5122 32.2583 70.7269 32.5982 70.0276 33.1607C69.5555 33.5406 69.1629 33.9912 68.9114 34.5603C68.8378 34.7222 68.8001 34.8986 68.8011 35.0769C68.805 37.3314 68.805 39.5857 68.8011 41.8398C68.8011 42.1224 68.832 42.0884 68.549 42.0884C67.5531 42.0884 66.5572 42.0884 65.5614 42.0884C65.5141 42.0884 65.4662 42.0884 65.4189 42.0884C65.3414 42.0931 65.3066 42.0591 65.3112 41.9798C65.3112 41.9391 65.3112 41.8978 65.3112 41.8565C65.3112 40.9287 65.3112 40.001 65.3112 39.0725C65.3097 38.9498 65.34 38.8289 65.3992 38.7219C66.4865 36.6736 66.4828 34.6268 65.388 32.5815C65.3392 32.4996 65.3125 32.406 65.3105 32.3102C65.3138 31.4991 65.3105 30.6887 65.3105 29.8775C65.3105 29.6896 65.3105 29.6882 65.5036 29.6882H68.2745H68.3763C68.4419 29.6882 68.4734 29.7236 68.4715 29.7909C68.4715 29.8389 68.4715 29.8869 68.4715 29.9349V31.8964V31.8944Z" fill="white"/>
<path d="M9.00586 25.2988H24.471C24.5032 25.3655 24.4507 25.3908 24.4231 25.4248C23.7087 26.2879 22.9917 27.149 22.2806 28.0148C22.2441 28.0627 22.1964 28.1007 22.1418 28.1252C22.0872 28.1498 22.0275 28.1601 21.968 28.1554C19.4602 28.1519 16.953 28.1519 14.4465 28.1554H12.9429C12.9285 28.2261 12.983 28.2221 13.0164 28.2301L14.0263 28.5447C14.1983 28.5987 14.199 28.5993 14.199 28.7833C14.199 29.9319 14.199 31.08 14.199 32.2277C14.199 32.513 14.1675 32.4817 14.4465 32.4817H18.5228C18.5267 32.5676 18.4742 32.5983 18.4414 32.6376C17.7926 33.4221 17.14 34.2039 16.4945 34.9917C16.4582 35.0397 16.4106 35.0779 16.3562 35.1028C16.3018 35.1277 16.2422 35.1385 16.1826 35.1343C15.1662 35.1283 14.1471 35.1297 13.1333 35.129H12.9258C12.9482 35.2036 13.0027 35.1956 13.0427 35.2096C13.3855 35.3176 13.7276 35.4262 14.0723 35.5289C14.0921 35.5313 14.1114 35.5376 14.1288 35.5477C14.1462 35.5577 14.1614 35.5711 14.1737 35.5872C14.1859 35.6033 14.1949 35.6216 14.2 35.6413C14.2051 35.6609 14.2064 35.6814 14.2036 35.7015C14.1992 36.348 14.1992 36.9943 14.2036 37.6403C14.2006 37.7294 14.1639 37.8139 14.1012 37.8763C13.3675 38.7596 12.6343 39.6432 11.9015 40.5269C11.522 40.9842 11.1425 41.4416 10.763 41.8993C10.7298 41.9533 10.6849 41.999 10.6316 42.0326C10.583 41.9719 10.608 41.8993 10.608 41.8386C10.608 36.6071 10.608 31.3755 10.608 26.1439C10.608 25.7674 10.6546 25.8507 10.3191 25.744C9.93825 25.6221 9.55545 25.5054 9.17396 25.3861C9.11749 25.3688 9.06167 25.3501 9.00586 25.3322V25.2988Z" fill="white"/>
<path d="M21.8117 59.9644C21.7476 59.9895 21.6782 59.9978 21.6101 59.9884C20.486 59.9884 19.3612 59.9884 18.2364 59.9924C18.1772 59.996 18.1181 59.9842 18.0646 59.9581C18.0112 59.9319 17.9652 59.8924 17.9311 59.8431C16.6144 58.1742 15.2952 56.5079 13.9737 54.8443L13.824 54.6571C13.7734 54.741 13.7931 54.817 13.7931 54.8863C13.7931 55.6146 13.7951 56.3433 13.799 57.0724C13.8021 57.123 13.7953 57.1737 13.7788 57.2216C13.7623 57.2694 13.7366 57.3134 13.7032 57.351C12.7498 58.4494 11.7986 59.55 10.8496 60.6529C10.8279 60.6789 10.8082 60.7069 10.7839 60.7348C10.7071 60.6802 10.736 60.6129 10.7353 60.5582C10.7055 58.3366 10.6773 56.1167 10.6506 53.8986L10.5757 48.0228C10.5757 47.8495 10.5757 47.8481 10.4109 47.7968C10.1398 47.7108 9.86726 47.6282 9.59542 47.5435C9.52276 47.5316 9.45466 47.4998 9.39844 47.4516H13.5581C13.5988 47.4516 13.6395 47.4516 13.6802 47.4516C13.7583 47.4469 13.7912 47.4836 13.7866 47.5615C13.7866 47.6095 13.7866 47.6575 13.7866 47.7055C13.7866 49.4171 13.7866 51.1277 13.7866 52.8375C13.7785 52.9132 13.7824 52.9897 13.7984 53.0641C13.8641 53.0641 13.8838 53.0028 13.9166 52.9648C15.3314 51.3266 16.7457 49.6872 18.1596 48.0467C18.1869 48.0083 18.2228 47.977 18.2644 47.9555C18.3059 47.9339 18.3519 47.9227 18.3986 47.9228C19.4958 47.9268 20.5937 47.9228 21.6909 47.9228C21.7224 47.9228 21.7532 47.9301 21.8136 47.9374C21.7592 48.0041 21.7224 48.0507 21.6823 48.0954L17.1977 53.3741C17.0276 53.574 17.0269 53.574 17.1885 53.7886L21.6751 59.7811C21.7211 59.8397 21.7618 59.8951 21.8117 59.9644Z" fill="white"/>
<path d="M36.5294 39.1081C36.7172 38.8201 36.8984 38.5469 37.075 38.2703C37.1256 38.1903 37.1715 38.2036 37.2405 38.2443C37.4064 38.35 37.5749 38.452 37.7461 38.5502C38.7021 39.0967 39.7008 39.5306 40.7908 39.7146C41.4559 39.8266 42.1244 39.8612 42.7921 39.7352C43.1075 39.6842 43.4084 39.5651 43.6746 39.386C43.8288 39.284 43.9546 39.1437 44.0403 38.9784C44.1259 38.8131 44.1684 38.6283 44.1638 38.4416C44.1671 38.272 44.1256 38.1046 44.0438 37.9567C43.9619 37.8088 43.8427 37.6858 43.6983 37.6005C43.5172 37.4919 43.3247 37.4045 43.1244 37.3399C42.3844 37.0699 41.6214 36.88 40.8597 36.6847C40.0981 36.4894 39.3495 36.2848 38.6174 36.0242C38.2068 35.8823 37.8135 35.6931 37.4453 35.4603C36.6856 34.9718 36.3114 34.276 36.3048 33.3602C36.2956 32.0865 36.817 31.0941 37.8117 30.341C38.4988 29.831 39.2963 29.4957 40.1374 29.3632C41.9339 29.0566 43.6877 29.2246 45.3792 29.9324C45.9101 30.1602 46.4095 30.4571 46.8651 30.8155C46.9964 30.9155 47.0141 30.9068 46.9071 31.0515C46.5013 31.602 46.0969 32.1532 45.6937 32.705C45.5978 32.835 45.5952 32.8383 45.4553 32.7437C44.7403 32.2771 43.9872 31.8892 43.1572 31.6713C42.429 31.4794 41.6916 31.4047 40.9438 31.5267C40.6553 31.5727 40.3773 31.6709 40.123 31.8166C39.5892 32.1239 39.4822 32.701 39.603 33.1896C39.6548 33.4009 39.8 33.5482 39.9687 33.6681C40.1556 33.7929 40.3575 33.8928 40.5695 33.9654C41.1565 34.1833 41.7672 34.31 42.3732 34.4546C43.2525 34.6532 44.1202 34.9018 44.9721 35.1991C45.447 35.3634 45.8999 35.5873 46.3201 35.8656C46.8861 36.2508 47.3195 36.7473 47.4442 37.4432C47.6852 38.7902 47.351 39.9519 46.2833 40.8423C45.6267 41.3915 44.8552 41.7041 44.0298 41.882C43.0865 42.0776 42.1204 42.1349 41.1611 42.052C40.0597 41.9716 38.9751 41.7328 37.9398 41.3428C37.5861 41.2038 37.24 41.0456 36.903 40.869C36.8439 40.847 36.7938 40.8055 36.7609 40.751C36.728 40.6966 36.7142 40.6324 36.7218 40.569C36.7323 40.1638 36.7257 39.7579 36.725 39.352C36.7224 39.1734 36.7218 39.1734 36.5294 39.1081Z" fill="white"/>
<path d="M59.6287 55.3094C59.6194 55.3282 59.6142 55.3489 59.6135 55.3699C59.6128 55.391 59.6167 55.4119 59.6248 55.4313C59.9708 56.8856 60.8723 57.6055 62.2656 57.7214C63.3898 57.8147 64.4128 57.5215 65.3412 56.8796C65.4725 56.787 65.4771 56.7883 65.5592 56.9383C65.9151 57.587 66.2701 58.236 66.6242 58.8851C66.6958 59.0184 66.6945 59.0184 66.5645 59.1037C65.5336 59.7822 64.4233 60.2488 63.1908 60.3821C62.2322 60.4867 61.2814 60.4487 60.3503 60.1821C58.609 59.6763 57.4652 58.5332 56.8946 56.795C56.5997 55.8952 56.5275 54.9675 56.5663 54.027C56.5871 53.3459 56.7028 52.6712 56.9097 52.0229C57.4395 50.3953 58.5558 49.3809 60.1573 48.895C60.9518 48.6537 61.7692 48.6091 62.592 48.6464C63.3143 48.6797 64.0201 48.7957 64.6931 49.061C65.835 49.5075 66.6315 50.2967 66.9992 51.497C67.1745 52.0682 67.2053 52.658 67.183 53.2512C67.1564 53.8282 67.0659 54.4004 66.9131 54.9568C66.8705 55.1168 66.8691 55.1154 66.7116 55.1194L60.697 55.2674C60.4265 55.274 60.1553 55.2794 59.8848 55.288C59.7988 55.2827 59.7126 55.2899 59.6287 55.3094ZM61.9702 53.3632V53.3479C62.6471 53.3479 63.3241 53.3479 64.0011 53.3479C64.1324 53.3479 64.3057 53.4065 64.395 53.3212C64.4942 53.2252 64.4252 53.0479 64.4187 52.908C64.374 51.9449 63.8402 51.2964 62.915 51.0918C62.3433 50.9661 61.7505 50.9782 61.1842 51.1271C60.9236 51.1913 60.6789 51.3092 60.4653 51.4737C60.2516 51.6381 60.0737 51.8455 59.9426 52.0829C59.7464 52.4291 59.6168 52.81 59.5604 53.2052C59.5361 53.3605 59.5361 53.3625 59.6976 53.3625C60.4562 53.3639 61.2138 53.3641 61.9702 53.3632Z" fill="white"/>
<path d="M70.0341 50.7328C70.1654 50.6294 70.2593 50.5535 70.3552 50.4782C70.9339 50.0117 71.5601 49.6095 72.2232 49.2785C73.1088 48.834 74.097 48.643 75.0815 48.7259C76.1025 48.8159 76.8182 49.3258 77.1957 50.3009C77.419 50.8767 77.5057 51.4799 77.5529 52.0917C77.6541 53.3887 77.6482 54.6871 77.6114 55.9861C77.5779 57.1858 77.5083 58.3855 77.377 59.5852C77.377 59.5992 77.377 59.6125 77.377 59.6265C77.3533 59.8138 77.3533 59.8178 77.1701 59.8131C76.2561 59.7896 75.3421 59.7651 74.4281 59.7398C74.2495 59.7351 74.2482 59.7325 74.2666 59.5505C74.331 58.9151 74.3811 58.2786 74.417 57.641C74.5067 56.2827 74.5177 54.9203 74.4498 53.5607C74.4352 53.2653 74.3854 52.9728 74.3014 52.6896C74.2613 52.5573 74.206 52.4302 74.1366 52.311C73.9396 51.9678 73.6356 51.8038 73.2515 51.7778C72.7919 51.7432 72.3644 51.8565 71.9494 52.0398C71.4992 52.2475 71.0762 52.5112 70.69 52.8249C70.5187 52.9582 70.3558 53.1055 70.1838 53.2388C70.1429 53.2688 70.1106 53.3093 70.0902 53.3561C70.0698 53.403 70.062 53.4545 70.0676 53.5054C70.0748 53.9379 70.0741 54.3718 70.0768 54.8044L70.1063 59.5059C70.1063 59.5538 70.1024 59.6025 70.1063 59.6505C70.1162 59.7491 70.0702 59.7838 69.975 59.7838C69.7176 59.7938 69.4609 59.8104 69.2035 59.8244C68.5342 59.8604 67.8649 59.8964 67.1956 59.9324C67.0531 59.9404 67.0498 59.9397 67.0459 59.7911C67.0459 59.6945 67.0459 59.5985 67.0459 59.5019C67.0402 59.4714 67.0442 59.4399 67.0573 59.4118C67.0704 59.3838 67.0919 59.3607 67.1187 59.3459C67.1923 59.3086 67.1929 59.2532 67.1476 59.1953C67.0196 59.0313 67.0262 58.84 67.0235 58.6461C67.0091 57.567 66.99 56.488 66.9736 55.4089C66.9697 55.1643 66.9736 55.1643 67.2192 55.1516C67.3919 55.143 67.3945 55.1436 67.4372 54.9763C67.6709 54.0732 67.7924 53.1581 67.6998 52.2224C67.627 51.4692 67.407 50.7701 66.9664 50.1562C66.9087 50.0798 66.8782 49.9859 66.8797 49.8896C66.8797 49.683 66.8797 49.4771 66.864 49.2711C66.8574 49.1625 66.8975 49.1245 66.9999 49.1192C67.338 49.1025 67.6755 49.0805 68.0137 49.0605C68.6046 49.0259 69.1897 48.9939 69.778 48.9565C69.9454 48.9459 69.9461 48.9419 69.954 49.1145C69.975 49.5877 69.9958 50.0611 70.0164 50.5348C70.0216 50.5868 70.0269 50.6394 70.0341 50.7328Z" fill="white"/>
<path d="M49.2505 51.0496L49.4882 50.8544C50.0384 50.4045 50.6182 50.0006 51.261 49.7026C52.1015 49.3167 52.9761 49.1488 53.8953 49.2608C54.7608 49.3654 55.3589 49.8253 55.6826 50.6491C55.8552 51.112 55.9609 51.5978 55.9965 52.0914C56.0989 53.2244 56.0917 54.3575 56.0714 55.4905C56.053 56.4869 56.0096 57.482 55.9151 58.4744C55.8928 58.707 55.8626 58.941 55.8442 59.1709C55.8369 59.2622 55.7989 59.2869 55.7128 59.2842C55.4692 59.2769 55.225 59.2749 54.9814 59.2702L53.1934 59.2362C53.0227 59.2322 53.0214 59.2302 53.0398 59.0623C53.2052 57.4765 53.2716 55.8817 53.2387 54.2875C53.2322 53.8476 53.2138 53.4077 53.114 52.9771C53.0837 52.836 53.0386 52.6986 52.9794 52.5672C52.9148 52.4184 52.8126 52.2895 52.6831 52.1938C52.5536 52.098 52.4014 52.0388 52.242 52.0221C51.8563 51.9791 51.4661 52.0343 51.1067 52.1827C50.6471 52.358 50.2407 52.6332 49.8539 52.9378C49.6884 53.0711 49.5335 53.2131 49.3674 53.3431C49.3273 53.3737 49.2959 53.4144 49.2759 53.4612C49.256 53.5079 49.2484 53.559 49.2538 53.6097C49.2616 54.2968 49.2623 54.984 49.2669 55.6711C49.2739 56.7851 49.282 57.8986 49.2912 59.0116C49.2912 59.0389 49.2912 59.0663 49.2912 59.0943C49.2912 59.2462 49.2912 59.2502 49.1343 59.2582C48.3227 59.3026 47.5111 59.3446 46.6995 59.3842C46.6444 59.3842 46.5597 59.4315 46.536 59.3589C46.516 59.3148 46.5088 59.2658 46.5153 59.2178C46.5218 59.1697 46.5418 59.1245 46.5728 59.0876C46.67 58.9829 46.7659 58.8763 46.8584 58.7663C46.9642 58.6404 46.9628 58.6384 46.8716 58.5071C46.8353 58.449 46.7952 58.3936 46.7514 58.3411C46.54 58.1132 46.4842 57.8472 46.4802 57.5347C46.4553 55.5625 46.4146 53.591 46.3712 51.6188C46.3673 51.4609 46.3975 51.3522 46.536 51.2583C46.7225 51.1343 46.8939 50.9863 47.0712 50.8484C47.1959 50.751 47.1966 50.7497 47.1119 50.6057C46.9315 50.2901 46.7078 50.0022 46.4474 49.7506C46.4098 49.7177 46.3799 49.6767 46.3599 49.6306C46.3399 49.5845 46.3303 49.5344 46.3318 49.484C46.3167 48.3777 46.2957 47.2719 46.2773 46.1655C46.2773 45.9943 46.2773 45.9916 46.4382 45.9823C47.3176 45.9343 48.1968 45.887 49.0758 45.8403C49.2373 45.8323 49.24 45.8343 49.2406 46.0103C49.2446 47.2131 49.2476 48.4159 49.2498 49.6187C49.2511 50.0732 49.2505 50.5338 49.2505 51.0496Z" fill="white"/>
<path d="M34.9216 56.8921C34.9599 57.0789 34.9845 57.2682 34.9951 57.4586C35.0647 58.0792 35.1265 58.701 35.2026 59.3208C35.2145 59.4228 35.1744 59.4541 35.0936 59.4808C34.223 59.7474 33.3411 59.9593 32.4252 59.9693C32.0115 59.9774 31.5987 59.9285 31.198 59.824C30.284 59.5768 29.6523 59.0043 29.2859 58.1238C29.0541 57.5666 28.9576 56.9801 28.9077 56.3809C28.886 56.107 28.8828 55.8324 28.8782 55.5578C28.8611 54.3581 28.8466 53.1531 28.8283 51.9507C28.8237 51.6415 28.8453 51.6841 28.5656 51.6841C28.1395 51.6901 27.712 51.7034 27.2859 51.7128C27.1283 51.7168 27.1263 51.7128 27.1296 51.5595C27.1449 50.8103 27.1611 50.0614 27.1782 49.3127C27.1821 49.1394 27.1848 49.1388 27.3653 49.1361C27.7442 49.1308 28.1237 49.1321 28.5026 49.1214C28.8204 49.1121 28.7777 49.1521 28.7751 48.8455C28.7698 48.2457 28.758 47.6498 28.7488 47.0526C28.7488 46.9493 28.7521 46.8454 28.7422 46.7434C28.7324 46.6414 28.7836 46.6008 28.8808 46.5894C29.2032 46.5508 29.5249 46.5061 29.8473 46.4635L31.6793 46.2202L31.7397 46.2135C31.9688 46.1909 31.9649 46.1622 31.9649 46.4135C31.9649 47.2244 31.9649 48.0353 31.9649 48.8462C31.9649 48.8942 31.9649 48.9428 31.9649 48.9901C31.9603 49.0695 31.9938 49.1001 32.0719 49.0988C32.2958 49.0954 32.5191 49.0988 32.743 49.0948L35.1199 49.0615C35.1672 49.0615 35.2151 49.0615 35.2624 49.0615C35.3366 49.0568 35.3793 49.0835 35.3727 49.1661C35.3727 49.2074 35.3727 49.2487 35.3727 49.2901C35.3526 49.9743 35.3322 50.6599 35.3116 51.3469C35.3116 51.5162 35.3116 51.5162 35.1429 51.5162C34.1549 51.5397 33.1665 51.5619 32.1776 51.5828C32.1369 51.5828 32.0962 51.5828 32.0555 51.5828C32.0454 51.5827 32.0353 51.5847 32.026 51.5888C32.0166 51.5928 32.0082 51.5988 32.0013 51.6063C31.9944 51.6138 31.9891 51.6227 31.9858 51.6325C31.9824 51.6422 31.9811 51.6525 31.982 51.6628C31.982 51.7181 31.982 51.7728 31.982 51.8281C31.989 53.0513 31.9964 54.2746 32.0043 55.4978C32.0068 55.6488 32.0202 55.7994 32.0443 55.9484C32.1422 56.5869 32.481 56.9781 33.2381 57.0974C33.7233 57.1741 34.1947 57.0774 34.6609 56.9468C34.7437 56.9301 34.8225 56.8828 34.9216 56.8921Z" fill="white"/>
<path d="M44.684 56.4123C44.8364 56.6235 44.9913 56.8395 45.1437 57.0561C45.4221 57.4453 45.7018 57.8339 45.9782 58.2251C46.0997 58.3964 46.1095 58.3464 45.9605 58.5297C45.3604 59.2575 44.5928 59.7294 43.7123 60.022C42.9959 60.2586 42.2559 60.3206 41.5054 60.2886C40.8197 60.2733 40.1431 60.1263 39.5113 59.8554C38.1206 59.2375 37.1954 58.1758 36.718 56.7295C36.1363 54.9686 36.1776 53.2191 37.0083 51.5422C37.8336 49.8759 39.2066 48.9528 41.009 48.6842C42.0737 48.5136 43.1642 48.6439 44.1607 49.0608C45.0005 49.4134 45.7011 49.9459 46.1877 50.7417C46.2126 50.7824 46.2343 50.825 46.2606 50.865C46.27 50.8749 46.2771 50.887 46.2811 50.9002C46.2851 50.9135 46.286 50.9274 46.2837 50.9411C46.2814 50.9547 46.276 50.9676 46.2679 50.9787C46.2597 50.9898 46.2491 50.9988 46.2369 51.005C46.2034 51.0283 46.1713 51.055 46.1397 51.0796L44.5074 52.346C44.3662 52.4546 44.3846 52.4793 44.2625 52.3126C43.4233 51.1829 41.5343 50.9403 40.4331 51.8868C39.879 52.3633 39.5717 52.9745 39.4633 53.6916C39.3661 54.3368 39.3786 54.9806 39.5671 55.6105C39.9223 56.8042 40.8645 57.5146 42.0937 57.5146C43.0688 57.5146 43.9106 57.1901 44.5921 56.4696C44.6145 56.4393 44.6474 56.4189 44.684 56.4123Z" fill="white"/>
<path d="M47.8542 30.9226C47.7695 30.8559 47.6934 30.7893 47.608 30.7326C47.5695 30.7122 47.5379 30.6807 47.5171 30.642C47.4963 30.6033 47.4872 30.5592 47.4911 30.5153C47.499 30.2821 47.4911 30.0488 47.4911 29.8149C47.4911 29.6682 47.4951 29.6649 47.6362 29.6642C48.0899 29.6642 48.5443 29.6642 48.998 29.6642H50.809C51.0513 29.6642 51.0309 29.6502 51.0309 29.8842V35.864C51.0309 37.8635 51.0309 39.863 51.0309 41.8624C51.0309 42.1137 51.0585 42.0897 50.7985 42.0897H47.7295H47.5673C47.5571 42.0911 47.5468 42.09 47.5371 42.0867C47.5274 42.0833 47.5187 42.0776 47.5115 42.0702C47.5044 42.0627 47.4991 42.0537 47.496 42.0438C47.4929 42.0338 47.4921 42.0233 47.4937 42.0131C47.4937 41.9651 47.4937 41.9171 47.4937 41.8684C47.4937 41.4685 47.499 41.0686 47.4937 40.6727C47.4913 40.6189 47.4995 40.5651 47.518 40.5146C47.5365 40.4641 47.5649 40.4179 47.6014 40.3788C48.0253 39.8912 48.2893 39.2819 48.3572 38.6353C48.4281 38.0607 48.39 37.5022 48.1602 36.9637C48.0297 36.6679 47.8364 36.405 47.5942 36.1939C47.5628 36.1694 47.5377 36.1376 47.5211 36.1012C47.5044 36.0647 47.4966 36.0247 47.4983 35.9846C47.4983 34.4997 47.4983 33.0149 47.4983 31.5304C47.4974 31.448 47.5259 31.368 47.5784 31.3051C47.6677 31.1818 47.7564 31.0559 47.8542 30.9226Z" fill="white"/>
<path d="M26.5647 54.4433C26.5752 56.1402 26.5853 57.8371 26.5949 59.534C26.5949 59.776 26.6428 59.7733 26.3566 59.7879C25.4706 59.8324 24.5852 59.8801 23.7006 59.9312C23.5358 59.9406 23.5351 59.9432 23.5312 59.7673C23.5082 58.8195 23.4872 57.8718 23.4616 56.924C23.4156 55.2147 23.3679 53.5051 23.3184 51.7953C23.2981 51.0468 23.281 50.2984 23.2626 49.5499C23.2626 49.5086 23.2626 49.4672 23.2626 49.4266C23.2554 49.3399 23.2922 49.3053 23.3788 49.3006C23.7905 49.278 24.2029 49.25 24.6146 49.2246L26.3369 49.118C26.3703 49.118 26.4025 49.1147 26.438 49.112C26.5076 49.106 26.5378 49.14 26.5358 49.2086C26.5358 49.2493 26.5358 49.2906 26.5358 49.3319L26.5673 54.4433H26.5647Z" fill="white"/>
<path d="M49.2526 27.9807C48.7242 27.9807 48.1959 27.9807 47.6675 27.9807C47.4955 27.9807 47.4922 27.9807 47.4922 27.8188C47.4922 26.8639 47.4922 25.9086 47.4922 24.9528C47.4922 24.7995 47.4922 24.7969 47.6524 24.7969C48.7227 24.7969 49.793 24.7969 50.8632 24.7969C51.0274 24.7969 51.0294 24.7969 51.0294 24.9682C51.0294 25.9164 51.0294 26.8648 51.0294 27.8134C51.0294 27.9781 51.0294 27.9801 50.858 27.9801C50.3231 27.9814 49.7879 27.9816 49.2526 27.9807Z" fill="white"/>
<path d="M24.9735 44.4123C25.4607 44.3903 25.9473 44.371 26.4338 44.3424C26.5402 44.3364 26.5579 44.3783 26.5579 44.471C26.5579 44.9375 26.5579 45.4041 26.5579 45.8706C26.5579 46.1866 26.5579 46.5031 26.5579 46.8191C26.5579 46.9877 26.5579 46.991 26.3938 46.9983C25.7989 47.027 25.204 47.053 24.6084 47.0797L23.5336 47.127C23.3976 47.1323 23.395 47.131 23.3917 46.9997C23.3729 46.2172 23.3545 45.4345 23.3366 44.6516C23.3333 44.5017 23.3366 44.497 23.4955 44.4883C23.9485 44.4643 24.4016 44.4443 24.8547 44.4217C24.8947 44.4217 24.9354 44.4157 24.9761 44.413L24.9735 44.4123Z" fill="white"/>
</g>
<defs>
<clipPath id="clip0_1731_2496">
<rect width="69" height="37.7344" fill="white" transform="translate(9 23)"/>
</clipPath>
</defs>
</svg>
