<svg width="192" height="34" viewBox="0 0 192 34" fill="none" xmlns="http://www.w3.org/2000/svg">
<g id="Layer_1" clip-path="url(#clip0_1731_2605)">
<path id="Vector" d="M174.531 0H17.4694C7.82131 0 0 7.61116 0 17C0 26.3888 7.82131 34 17.4694 34H174.531C184.179 34 192 26.3888 192 17C192 7.61116 184.179 0 174.531 0Z" fill="#173303"/>
<path id="Vector_2" d="M109.45 24.1527H104.891C104.823 24.1578 104.754 24.1455 104.692 24.1171C104.63 24.0886 104.576 24.045 104.537 23.9904C102.841 21.9187 101.14 19.8596 99.4349 17.8133C99.3847 17.7349 99.3168 17.6687 99.2362 17.6199V17.872C99.2362 18.7766 99.2362 19.6778 99.2362 20.5824C99.2396 20.6488 99.2291 20.7152 99.2053 20.7776C99.1815 20.8399 99.145 20.8968 99.0979 20.945C97.894 22.2732 96.6948 23.6025 95.5004 24.933C95.4614 24.9779 95.4294 25.0331 95.362 25.0539C95.3017 25.0021 95.3301 24.9295 95.3301 24.8674C95.2875 21.6148 95.2461 18.3646 95.2059 15.1166C95.1799 13.2406 95.1539 11.3668 95.1279 9.4954C95.1279 9.3124 95.1279 9.30895 94.9363 9.25371L93.6484 8.87044C93.701 8.83764 93.7639 8.82418 93.8258 8.83246H99.0304C99.254 8.83246 99.2256 8.83246 99.2256 9.06035V15.6898C99.3107 15.707 99.332 15.6449 99.3604 15.6104C101.172 13.6008 102.982 11.5901 104.789 9.57827C104.835 9.51972 104.896 9.47308 104.965 9.4424C105.034 9.41172 105.11 9.39792 105.186 9.40218C106.523 9.40218 107.864 9.40218 109.202 9.40218H109.426C109.443 9.49541 109.383 9.52993 109.344 9.57137L104.934 14.5503L103.494 16.1732C103.337 16.3493 103.369 16.3182 103.494 16.4701C104.951 18.33 106.406 20.1934 107.861 22.0602L109.337 23.9455C109.396 24.0011 109.436 24.0737 109.45 24.1527Z" fill="white"/>
<path id="Vector_3" d="M157.675 18.4241C157.754 19.1066 158.051 19.7477 158.525 20.2569C158.999 20.7661 159.624 21.1178 160.314 21.2624C161.103 21.4364 161.921 21.4486 162.715 21.2982C163.509 21.1478 164.262 20.8381 164.927 20.3888L165.132 20.2542C165.21 20.2783 165.225 20.3439 165.253 20.3957L166.615 22.7816C166.711 22.9543 166.761 22.9335 166.541 23.0716C165.436 23.7984 164.19 24.2978 162.879 24.5391C161.445 24.8088 159.965 24.7497 158.558 24.3665C157.523 24.0938 156.577 23.5647 155.814 22.8307C155.052 22.0967 154.497 21.1828 154.205 20.1782C153.981 19.4744 153.85 18.7458 153.815 18.0098C153.737 16.9119 153.849 15.8091 154.145 14.7469C154.79 12.4818 156.341 11.1111 158.65 10.5241C159.623 10.2967 160.626 10.2198 161.624 10.2962C162.538 10.3296 163.44 10.514 164.291 10.8417C165.126 11.1382 165.856 11.6633 166.391 12.3536C166.927 13.044 167.246 13.8703 167.311 14.7331C167.425 15.8497 167.317 16.9773 166.995 18.0547C166.992 18.0765 166.985 18.0976 166.974 18.1168C166.963 18.1359 166.948 18.1528 166.93 18.1662C166.912 18.1797 166.892 18.1896 166.87 18.1954C166.848 18.2011 166.826 18.2026 166.803 18.1997L162.024 18.3102L157.866 18.4138L157.675 18.4241ZM160.708 16.059H161.063H163.546H163.734C163.802 16.059 163.83 16.0313 163.83 15.9623C163.83 15.8138 163.83 15.6619 163.83 15.5134C163.738 14.3843 163.188 13.5867 161.911 13.3036C161.258 13.1706 160.584 13.1706 159.931 13.3036C159.505 13.3703 159.102 13.5403 158.76 13.7979C158.419 14.0555 158.149 14.3925 157.976 14.778C157.802 15.1389 157.682 15.5228 157.622 15.9174C157.597 16.09 157.593 16.0935 157.778 16.0935L160.708 16.059Z" fill="white"/>
<path id="Vector_4" d="M35.6585 22.0292C35.6364 22.0343 35.6158 22.0441 35.598 22.0579C35.5803 22.0716 35.5658 22.0889 35.5556 22.1086C34.6615 23.2333 33.4063 24.0343 31.99 24.384C31.0869 24.6303 30.1492 24.7352 29.2121 24.6948C28.5052 24.6816 27.8085 24.5277 27.165 24.2424C26.6581 24.0048 26.2094 23.6643 25.8489 23.2438C25.4885 22.8234 25.2247 22.3327 25.0754 21.8047C24.8581 21.1039 24.7504 20.3753 24.7561 19.6433C24.7561 16.9132 24.7561 14.1821 24.7561 11.4497V11.3358C24.7561 11.2633 24.788 11.2253 24.8661 11.2287H28.4139C28.6409 11.2287 28.6445 11.2287 28.6445 11.4497C28.6445 13.8644 28.6445 16.2814 28.6445 18.7007C28.6311 19.1652 28.68 19.6295 28.7899 20.0818C28.8183 20.1819 28.8502 20.2855 28.8857 20.3822C29.0127 20.7991 29.2748 21.1648 29.6328 21.4249C29.9908 21.685 30.4257 21.8255 30.8725 21.8255C31.6747 21.8816 32.4769 21.7172 33.1877 21.3509C33.8985 20.9845 34.4891 20.4311 34.8921 19.7538C35.0191 19.5665 35.0846 19.3462 35.0802 19.1219C35.0802 16.5898 35.0802 14.0577 35.0802 11.5257C35.0802 11.2287 35.0376 11.2529 35.3675 11.2529H38.8515C38.9437 11.2529 38.9757 11.2943 38.9686 11.3772C38.9615 11.4601 38.9686 11.4981 38.9686 11.5567V20.4547C38.9645 20.62 38.9764 20.7853 39.004 20.9484C39.0258 21.0999 39.0985 21.24 39.2109 21.3468C39.3232 21.4537 39.4689 21.5212 39.6249 21.5389C39.6692 21.5494 39.7143 21.5563 39.7597 21.5596C39.8697 21.5596 39.9016 21.6148 39.8981 21.7184C39.8981 22.5851 39.8981 23.4448 39.8981 24.3149C39.8981 24.4013 39.8981 24.4565 39.781 24.4703C38.9896 24.6238 38.1768 24.6413 37.3792 24.5221C37.0276 24.4578 36.6954 24.3173 36.407 24.1112C36.2269 23.9861 36.0757 23.8256 35.9632 23.64C35.8508 23.4544 35.7796 23.248 35.7543 23.034C35.7081 22.7025 35.7081 22.371 35.6585 22.0292Z" fill="white"/>
<path id="Vector_5" d="M59.1239 17.8403C59.1239 16.7884 59.1239 15.7353 59.1239 14.681C59.1207 14.5386 59.1628 14.3987 59.2445 14.2805C60.0683 13.0631 61.263 12.1273 62.661 11.6045C63.5987 11.2457 64.5918 11.0438 65.5986 11.0072C66.6836 10.9434 67.7718 11.0601 68.8165 11.3525C70.5108 11.7957 71.9829 12.8211 72.9603 14.239C73.732 15.3701 74.1204 16.7079 74.0708 18.0648C74.026 19.3408 73.6056 20.5775 72.8597 21.6278C72.1138 22.6781 71.0737 23.498 69.8631 23.9898C68.9313 24.3808 67.9379 24.6144 66.9255 24.6804C65.797 24.7758 64.66 24.6788 63.5657 24.3938C61.8105 23.9713 60.2785 22.9305 59.2658 21.4727C59.1593 21.3254 59.1046 21.1486 59.1097 20.9686C59.1239 19.9189 59.1239 18.8796 59.1239 17.8403ZM66.482 21.8145C67.8231 21.7627 69.0719 21.0445 69.7673 19.5253C70.1202 18.7403 70.2144 17.8682 70.0369 17.0289C69.9031 16.3237 69.57 15.6688 69.0751 15.1375C68.5802 14.6063 67.9431 14.2196 67.2351 14.021C66.5271 13.8224 65.7762 13.8197 65.0667 14.0131C64.3572 14.2065 63.717 14.5884 63.218 15.116C62.7829 15.5799 62.4668 16.1373 62.2953 16.7428C62.1239 17.3483 62.1021 17.9847 62.2318 18.5999C62.5333 20.5266 64.1263 21.8145 66.4678 21.8145H66.482Z" fill="white"/>
<path id="Vector_6" d="M170.965 12.8584L171.384 12.5407C172.249 11.8664 173.204 11.3089 174.222 10.8833C175.241 10.4717 176.348 10.3082 177.447 10.4069C178.032 10.4309 178.597 10.6244 179.069 10.9628C179.54 11.3011 179.897 11.7688 180.094 12.3059C180.337 12.9246 180.486 13.5751 180.534 14.236C180.647 15.4989 180.689 16.7668 180.661 18.0341C180.637 19.0942 180.612 20.1542 180.544 21.2142C180.495 22.0015 180.424 22.7887 180.346 23.5725C180.346 23.6174 180.346 23.6623 180.346 23.7072C180.289 23.9834 180.37 23.9419 180.072 23.935C178.895 23.9109 177.717 23.8798 176.525 23.8487C176.347 23.8487 176.34 23.8487 176.361 23.6692C176.418 23.1133 176.457 22.5608 176.503 22.0049C176.567 21.2315 176.617 20.458 176.631 19.6846C176.652 18.6488 176.667 17.6129 176.631 16.5943C176.62 16.1798 176.563 15.7676 176.461 15.3651C176.421 15.2131 176.366 15.0652 176.298 14.9232C176.201 14.6996 176.042 14.5066 175.839 14.3657C175.636 14.2249 175.397 14.1417 175.148 14.1256C174.691 14.0874 174.231 14.1463 173.8 14.2982C173.341 14.4574 172.904 14.6708 172.498 14.9335C172.042 15.2321 171.604 15.5549 171.185 15.9003C171.131 15.9399 171.087 15.9924 171.059 16.0528C171.031 16.1132 171.02 16.1796 171.025 16.2456C171.042 18.262 171.057 20.2785 171.072 22.2949C171.072 22.7542 171.072 23.2134 171.072 23.6761C171.072 23.9143 171.1 23.8971 170.852 23.9109L168.975 24.0075L167.35 24.087C167.173 24.087 167.173 24.087 167.169 23.9178C167.169 23.8142 167.169 23.7071 167.169 23.6036C167.157 23.5559 167.163 23.5057 167.185 23.4616C167.207 23.4174 167.244 23.3822 167.29 23.3619C167.368 23.3273 167.361 23.2721 167.318 23.2134C167.184 23.008 167.125 22.7647 167.151 22.5228C167.134 21.2073 167.105 19.8918 167.08 18.5728C167.08 18.2758 167.08 18.2793 167.378 18.2655C167.676 18.2517 167.609 18.3 167.68 18.0307C167.966 17.036 168.086 16.0031 168.035 14.9715C168.003 13.9495 167.661 12.9595 167.052 12.1264C166.996 12.0549 166.966 11.9675 166.967 11.8778C166.967 11.6223 166.967 11.3633 166.967 11.1078C166.967 10.911 166.967 10.911 167.162 10.8972L168.854 10.8039L170.685 10.6934H170.752C170.862 10.6934 170.901 10.7176 170.905 10.8281C170.905 11.2114 170.937 11.5946 170.955 11.9744C170.93 12.2299 170.947 12.5131 170.965 12.8584Z" fill="white"/>
<path id="Vector_7" d="M144.467 13.2205L144.907 12.8752C145.617 12.3172 146.4 11.8528 147.235 11.4941C148.186 11.0969 149.223 10.9356 150.254 11.0245C150.804 11.0443 151.335 11.2291 151.773 11.5536C152.211 11.8781 152.535 12.3264 152.702 12.8373C152.896 13.3849 153.015 13.9548 153.057 14.5326C153.162 15.9366 153.192 17.345 153.145 18.752C153.145 19.7222 153.085 20.6924 153.007 21.6592C152.968 22.1461 152.915 22.6329 152.865 23.1198C152.865 23.289 152.844 23.2924 152.67 23.289L149.416 23.2234C149.271 23.2234 149.271 23.2234 149.285 23.0645C149.363 22.2773 149.438 21.4901 149.477 20.7028C149.548 19.37 149.56 18.0384 149.512 16.7079C149.511 16.2398 149.439 15.7745 149.299 15.3268C149.234 15.0472 149.069 14.7994 148.833 14.6279C148.597 14.4564 148.305 14.3724 148.012 14.391C147.483 14.3871 146.962 14.5054 146.49 14.7363C145.781 15.0944 145.125 15.5425 144.538 16.0691C144.505 16.0999 144.481 16.138 144.467 16.1801C144.452 16.2223 144.449 16.2671 144.457 16.3108C144.457 17.4468 144.457 18.5862 144.474 19.7222C144.474 20.8029 144.474 21.8871 144.499 22.9713C144.499 23.0162 144.499 23.0611 144.499 23.106C144.499 23.2165 144.457 23.2475 144.35 23.251L142.576 23.3408C142.083 23.3649 141.586 23.3857 141.093 23.4133C140.994 23.4133 140.951 23.4133 140.951 23.2959C140.943 23.2404 140.949 23.1837 140.968 23.1307C140.987 23.0778 141.019 23.0302 141.061 22.992C141.178 22.8843 141.287 22.7689 141.388 22.6468C141.516 22.5017 141.516 22.4983 141.388 22.3464C141.26 22.1944 141.136 22.0011 141.005 21.8353C140.933 21.7472 140.895 21.6372 140.898 21.5246C140.87 19.9616 140.839 18.3975 140.806 16.8322C140.788 15.8378 140.77 14.8434 140.746 13.8524C140.735 13.7853 140.746 13.7167 140.776 13.6553C140.805 13.5939 140.853 13.5424 140.912 13.5071C141.171 13.331 141.413 13.1308 141.672 12.9512C141.778 12.8752 141.778 12.8165 141.714 12.7164C141.476 12.3193 141.184 11.9557 140.845 11.6357C140.798 11.598 140.761 11.5505 140.735 11.4966C140.71 11.4428 140.698 11.3841 140.7 11.3249C140.676 9.96451 140.65 8.60295 140.621 7.24023C140.621 7.03306 140.604 7.04342 140.813 7.02961C141.927 6.97436 143.038 6.91567 144.152 6.85352H144.198C144.389 6.85352 144.393 6.85352 144.396 7.02616C144.396 7.46812 144.396 7.91354 144.396 8.3555C144.396 9.90006 144.396 11.4435 144.396 12.9857C144.471 13.0479 144.467 13.1066 144.467 13.2205Z" fill="white"/>
<path id="Vector_8" d="M77.6009 13.8324C77.64 13.8324 77.6541 13.8083 77.6683 13.7876C78.362 12.851 79.3378 12.1475 80.4605 11.7746C81.8053 11.2765 83.2591 11.1231 84.6823 11.3291C85.4201 11.4103 86.1158 11.7051 86.6794 12.1754C87.243 12.6457 87.6485 13.2699 87.8434 13.9671C88.0225 14.5429 88.1296 15.1376 88.1627 15.7384C88.1911 16.0837 88.1982 16.4462 88.1982 16.7984C88.1982 19.342 88.1982 21.8856 88.1982 24.4292C88.1982 24.7434 88.2301 24.7019 87.9108 24.7019H84.4056C84.3347 24.7019 84.3098 24.6674 84.3098 24.6018V17.3129C84.3219 16.8083 84.2586 16.3047 84.1218 15.8178C84.0278 15.4258 83.8166 15.0696 83.5147 14.7943C83.2129 14.519 82.834 14.3369 82.4259 14.271C81.9534 14.189 81.4679 14.2138 81.0068 14.3435C79.9522 14.6243 79.0312 15.2544 78.4027 16.1251C78.3127 16.2474 78.2332 16.3768 78.165 16.5118C78.0222 16.7618 77.95 17.0442 77.9557 17.3302C77.9557 19.6781 77.9557 22.0226 77.9557 24.3705V24.5293C77.9557 24.6985 77.9557 24.7019 77.7748 24.7019H74.266C74.0744 24.7019 74.0709 24.7019 74.0709 24.4982C74.0709 23.4831 74.0709 22.4645 74.0709 21.4494C74.0702 21.3275 74.1046 21.2079 74.1702 21.1041C74.752 20.113 75.058 18.9913 75.058 17.8498C75.058 16.7083 74.752 15.5866 74.1702 14.5955C74.0945 14.4737 74.0553 14.3338 74.0567 14.1915C74.0567 13.3698 74.0567 12.5514 74.0567 11.7297V11.5708C74.0567 11.4983 74.0886 11.4604 74.1702 11.4638C74.2518 11.4673 74.2624 11.4638 74.3086 11.4638H77.3029C77.3419 11.4638 77.381 11.4638 77.42 11.4638C77.53 11.4638 77.569 11.4949 77.569 11.6054C77.569 11.9507 77.569 12.3132 77.569 12.6654C77.569 13.0176 77.569 13.356 77.569 13.7012C77.5725 13.753 77.5725 13.7979 77.6009 13.8324Z" fill="white"/>
<path id="Vector_9" d="M21.999 14.4498L21.4704 15.061C20.8708 15.7516 20.2713 16.4421 19.6788 17.1327C19.6408 17.1832 19.5903 17.2236 19.532 17.2502C19.4737 17.2767 19.4095 17.2886 19.3453 17.2846C18.2206 17.2846 17.0995 17.2846 15.9784 17.2846C15.8826 17.2724 15.7852 17.2831 15.6946 17.3157L15.911 17.3847C16.2658 17.4918 16.6206 17.5988 16.9754 17.6989C16.9996 17.7019 17.0229 17.7095 17.044 17.7215C17.0651 17.7334 17.0834 17.7494 17.098 17.7684C17.1126 17.7874 17.1231 17.8092 17.1288 17.8322C17.1346 17.8553 17.1355 17.8793 17.1315 17.9027C17.1315 18.5932 17.1315 19.2562 17.1315 19.9329C17.1305 19.9887 17.118 20.0437 17.0949 20.0947C17.0717 20.1457 17.0383 20.1916 16.9966 20.2299L14.4529 23.1648L13.3034 24.4941C13.2613 24.5597 13.201 24.6123 13.1295 24.646V24.3698C13.1295 18.8039 13.1295 13.2367 13.1295 7.66849C13.1295 7.29558 13.1898 7.3819 12.8173 7.26796C12.3242 7.11603 11.8275 6.97102 11.3379 6.79492H28.5838C28.6121 6.86398 28.5412 6.89506 28.5057 6.93649C27.711 7.85839 26.9092 8.77685 26.118 9.69875C26.0759 9.74908 26.021 9.78793 25.9589 9.81153C25.8967 9.83512 25.8293 9.84266 25.7632 9.83341H15.6733C15.7611 9.89434 15.8617 9.93561 15.9678 9.95426L16.9434 10.2443C17.1705 10.3134 17.1279 10.3064 17.1279 10.4929V14.1702C17.1279 14.4844 17.0889 14.4429 17.4153 14.4429H21.999V14.4498Z" fill="white"/>
<path id="Vector_10" d="M53.6506 12.8063L52.1038 14.8296L51.8128 14.6536C50.9907 14.1264 50.079 13.7453 49.12 13.5279C48.3665 13.3458 47.582 13.3199 46.8175 13.452C46.5435 13.5055 46.2792 13.5986 46.0334 13.7282C45.7797 13.8628 45.58 14.0769 45.4667 14.3356C45.3534 14.5944 45.3331 14.8828 45.4091 15.1542C45.4409 15.2788 45.4985 15.3957 45.5784 15.4978C45.6584 15.6 45.7589 15.6851 45.8738 15.7481C46.1063 15.8833 46.3538 15.9922 46.6117 16.0727C47.253 16.2707 47.9043 16.4366 48.563 16.5699C49.5604 16.7856 50.5437 17.0589 51.5077 17.3882C52.0252 17.5666 52.5175 17.8079 52.973 18.1064C53.4285 18.3985 53.7891 18.8108 54.0128 19.2951C54.2365 19.7793 54.3139 20.3155 54.236 20.841C54.197 21.4111 54.0173 21.9635 53.7122 22.4516C53.4071 22.9397 52.9856 23.3489 52.4834 23.6447C51.7327 24.1185 50.8854 24.4283 49.9999 24.5528C47.5375 24.9327 45.0147 24.5876 42.7553 23.5619C42.6169 23.4962 42.4821 23.4203 42.3437 23.3547C42.3008 23.3393 42.2646 23.3099 42.2413 23.2715C42.2181 23.2331 42.2091 23.1881 42.216 23.1441C42.216 22.6917 42.216 22.2394 42.216 21.7906C42.216 21.5868 42.216 21.5868 42.0244 21.5247C42.0244 21.4591 42.0706 21.4176 42.0989 21.3728C42.2657 21.1276 42.4537 20.8859 42.5992 20.6373C42.6595 20.5441 42.7092 20.5406 42.8014 20.5993C43.2125 20.8523 43.6377 21.0828 44.0751 21.2899C44.959 21.7288 45.9084 22.0294 46.8885 22.1807C47.6147 22.3017 48.3573 22.2946 49.081 22.16C49.402 22.102 49.7067 21.9785 49.9751 21.7975C50.1724 21.6685 50.3262 21.4856 50.4171 21.2718C50.508 21.058 50.5319 20.8229 50.486 20.5959C50.4623 20.453 50.4065 20.317 50.3224 20.1976C50.2384 20.0782 50.1283 19.9784 49.9999 19.9053C49.8346 19.8061 49.6585 19.7251 49.4748 19.6636C48.6427 19.3813 47.796 19.1416 46.9382 18.9454C45.935 18.7214 44.9478 18.4342 43.9828 18.0857C43.5405 17.924 43.1246 17.7007 42.7482 17.4227C42.444 17.2008 42.1963 16.9138 42.0241 16.584C41.8518 16.2541 41.7597 15.8902 41.7548 15.5202C41.7075 14.8315 41.8539 14.1432 42.1783 13.5294C42.5027 12.9155 42.9929 12.3994 43.5961 12.0363C44.4122 11.5099 45.3423 11.1743 46.3137 11.0557C47.9445 10.8312 49.6062 10.9694 51.1742 11.4597C52.0075 11.7235 52.7894 12.1215 53.4874 12.6371L53.6151 12.7372C53.6297 12.7588 53.6417 12.782 53.6506 12.8063Z" fill="white"/>
<path id="Vector_11" d="M122.389 7.29297C122.415 7.37197 122.424 7.45561 122.414 7.53812V10.587C122.414 10.6388 122.414 10.6905 122.414 10.7423C122.414 10.7941 122.442 10.8425 122.509 10.839H122.673L126.504 10.7941C126.774 10.7941 126.77 10.7492 126.76 11.0462C126.738 11.9025 126.715 12.7599 126.689 13.6186C126.689 13.7912 126.689 13.7946 126.511 13.7981L122.705 13.8879H122.63C122.467 13.8879 122.463 13.8879 122.463 14.0502C122.463 14.5543 122.463 15.0584 122.463 15.5625C122.463 16.5465 122.463 17.5306 122.463 18.5181C122.461 18.8561 122.505 19.1929 122.595 19.5194C122.649 19.7282 122.754 19.9215 122.899 20.0839C123.045 20.2464 123.227 20.3735 123.432 20.4551C123.818 20.6152 124.238 20.6816 124.656 20.6485C125.119 20.6175 125.576 20.5317 126.018 20.393C126.206 20.3343 126.206 20.3378 126.228 20.5242C126.329 21.4104 126.431 22.299 126.533 23.1898C126.533 23.2416 126.533 23.2934 126.533 23.3452C126.533 23.397 126.508 23.4936 126.408 23.5213C125.133 23.9521 123.787 24.15 122.438 24.1048C121.904 24.0783 121.378 23.9615 120.885 23.7595C120.441 23.5771 120.041 23.308 119.709 22.9688C119.377 22.6297 119.12 22.2277 118.955 21.7879C118.737 21.2417 118.597 20.6689 118.539 20.0857C118.465 19.3951 118.465 18.7322 118.454 18.0554C118.433 16.771 118.415 15.4831 118.398 14.1986C118.396 14.1756 118.396 14.1526 118.398 14.1296C118.398 14.026 118.373 13.9811 118.256 13.9846C118.139 13.988 117.929 13.9846 117.77 13.9846L116.421 14.0191C116.226 14.0191 116.23 14.0191 116.233 13.8395C116.259 12.9602 116.282 12.0797 116.301 11.1981C116.301 11.1636 116.301 11.1256 116.301 11.0876C116.301 10.8563 116.301 10.8666 116.531 10.8666H118.11C118.344 10.8666 118.344 10.8839 118.341 10.6457C118.322 9.80317 118.306 8.96068 118.295 8.11819C118.295 7.79363 118.295 7.80053 118.614 7.77291L121.672 7.38274C121.921 7.3344 122.151 7.3344 122.389 7.29297Z" fill="white"/>
<path id="Vector_12" d="M138.241 14.9296C138.079 14.7201 137.898 14.5258 137.698 14.3495C137.098 13.8628 136.35 13.5825 135.57 13.5519C134.762 13.4884 133.958 13.7161 133.311 14.1916C132.664 14.6671 132.219 15.3574 132.061 16.1311C131.81 17.1045 131.862 18.1283 132.21 19.073C132.438 19.6838 132.855 20.2109 133.403 20.5819C133.951 20.9528 134.604 21.1494 135.272 21.1446C136.318 21.1749 137.341 20.8406 138.156 20.202C138.314 20.0667 138.461 19.9201 138.596 19.7635C138.681 19.798 138.709 19.8671 138.748 19.9189C139.266 20.6095 139.781 21.3 140.302 21.9906C140.451 22.1943 140.43 22.1598 140.285 22.3359C139.53 23.2161 138.524 23.8579 137.393 24.1797C135.87 24.6507 134.236 24.6615 132.707 24.2108C131.744 23.9361 130.863 23.4406 130.137 22.7658C129.412 22.0911 128.863 21.2569 128.538 20.3332C128.139 19.2946 127.96 18.1882 128.013 17.0807C128.032 16.0333 128.274 15.0012 128.722 14.0491C129.166 13.0793 129.854 12.2339 130.722 11.5912C131.59 10.9484 132.611 10.5291 133.689 10.3718C135.196 10.0868 136.757 10.2604 138.16 10.869C139.167 11.2797 140.016 11.9888 140.586 12.8958C140.615 12.9407 140.643 12.9856 140.668 13.0305C140.675 13.0395 140.68 13.0499 140.683 13.061C140.685 13.0721 140.685 13.0836 140.683 13.0947C140.681 13.1058 140.676 13.1163 140.669 13.1255C140.662 13.1347 140.653 13.1423 140.643 13.1479L140.551 13.217L138.372 14.8329C138.34 14.8778 138.294 14.9116 138.241 14.9296Z" fill="white"/>
<path id="Vector_13" d="M115.534 17.6915C115.534 19.449 115.57 21.5345 115.57 23.6165C115.57 23.9031 115.612 23.8789 115.297 23.8928C114.154 23.9549 113.008 24.0102 111.866 24.0689C111.671 24.0689 111.671 24.0689 111.667 23.8755C111.628 22.591 111.586 21.3066 111.55 20.0221C111.527 19.1014 111.504 18.1806 111.483 17.2599L111.398 14.2835C111.38 13.5101 111.362 12.7332 111.341 11.9598C111.341 11.7353 111.32 11.5109 111.312 11.2692C111.312 11.1 111.313 11.0966 111.486 11.0862L113.015 10.9964L115.194 10.8652H115.261C115.492 10.8652 115.492 10.8652 115.492 11.0759C115.506 13.1752 115.534 15.2745 115.534 17.6915Z" fill="white"/>
<path id="Vector_14" d="M54.6188 12.7919C54.5797 12.7574 54.5585 12.7229 54.523 12.709C54.4053 12.6634 54.3086 12.5776 54.2512 12.4677C54.1937 12.3577 54.1794 12.2312 54.2108 12.1117C54.2214 11.9623 54.2214 11.8123 54.2108 11.6628C54.2108 11.4591 54.1682 11.4453 54.4414 11.4453H57.9502C58.1417 11.4453 58.1417 11.4453 58.1453 11.6283V24.4245C58.1453 24.7387 58.1914 24.7007 57.8615 24.7007H54.3137C54.2285 24.7007 54.1895 24.6765 54.1895 24.5868C54.1895 24.0896 54.1895 23.5924 54.1895 23.0986C54.1917 23.0616 54.202 23.0256 54.2198 22.9928C54.2375 22.96 54.2623 22.9313 54.2924 22.9087C54.6675 22.5043 54.9332 22.0154 55.0658 21.4861C55.2786 20.7445 55.2324 19.9551 54.9345 19.2418C54.7875 18.9256 54.5735 18.6432 54.3066 18.4131C54.2697 18.3878 54.2398 18.3541 54.2194 18.315C54.199 18.2759 54.1888 18.2325 54.1895 18.1887C54.1895 16.6073 54.1895 15.027 54.1895 13.4479C54.188 13.3575 54.2194 13.2694 54.2782 13.1993C54.4095 13.0716 54.5123 12.9369 54.6188 12.7919Z" fill="white"/>
<path id="Vector_15" d="M56.158 9.64653C55.569 9.64653 54.9836 9.64653 54.3841 9.64653C54.2067 9.64653 54.2031 9.64653 54.2031 9.47389V6.4285C54.2031 6.26277 54.2031 6.25931 54.3841 6.25586H57.9567C58.1341 6.25586 58.1376 6.25586 58.1376 6.4285V9.47389C58.1376 9.64308 58.1376 9.64653 57.9567 9.64653C57.35 9.64999 56.7611 9.64653 56.158 9.64653Z" fill="#173303"/>
<path id="Vector_16" d="M113.516 5.12012L115.392 5.02344C115.481 5.02344 115.527 5.0407 115.52 5.13393V8.11027C115.52 8.25874 115.52 8.26564 115.35 8.27255L113.725 8.34851L111.685 8.43828C111.486 8.43828 111.486 8.43828 111.483 8.24838L111.408 5.52065C111.412 5.46085 111.412 5.4009 111.408 5.3411C111.408 5.25478 111.44 5.22025 111.529 5.2168L111.884 5.19608L113.505 5.12012H113.516Z" fill="#173303"/>
</g>
<defs>
<clipPath id="clip0_1731_2605">
<rect width="192" height="34" fill="white"/>
</clipPath>
</defs>
</svg>
