<svg width="86" height="86" viewBox="0 0 86 86" fill="none" xmlns="http://www.w3.org/2000/svg">
<g id="Layer_1" clip-path="url(#clip0_1732_2715)">
<path id="Vector" d="M76.6432 0H9.3568C4.18918 0 0 4.18918 0 9.3568V76.6432C0 81.8108 4.18918 86 9.3568 86H76.6432C81.8108 86 86 81.8108 86 76.6432V9.3568C86 4.18918 81.8108 0 76.6432 0Z" fill="white"/>
<path id="Vector_2" d="M29.4413 38.1968C29.4199 38.2009 29.3997 38.2101 29.3825 38.2235C29.3654 38.237 29.3516 38.2543 29.3424 38.2742C28.479 39.3859 27.2678 40.1762 25.9024 40.5188C25.0344 40.7631 24.133 40.8676 23.2321 40.8284C22.5548 40.8195 21.8862 40.6732 21.267 40.3984C20.7784 40.1639 20.3459 39.8271 19.9987 39.4109C19.6515 38.9947 19.3978 38.5088 19.2546 37.9861C19.0481 37.2956 18.9452 36.5783 18.9493 35.8576C18.9493 33.1572 18.9493 30.4582 18.9493 27.7607V27.6489C18.9493 27.5758 18.9794 27.5414 19.0525 27.5414H22.4667C22.686 27.5414 22.686 27.5414 22.686 27.7607C22.686 30.1486 22.686 32.5337 22.686 34.9159C22.675 35.3702 22.7227 35.824 22.8279 36.2661C22.8537 36.365 22.8838 36.4682 22.9182 36.5628C23.0393 36.9748 23.291 37.3364 23.6353 37.5931C23.9796 37.8497 24.398 37.9877 24.8274 37.9861C25.5983 38.0439 26.3699 37.8838 27.0542 37.5242C27.7384 37.1646 28.3079 36.6198 28.6974 35.9522C28.8177 35.7668 28.8791 35.5495 28.8737 35.3287C28.8737 32.8232 28.8737 30.3177 28.8737 27.8123C28.8737 27.5199 28.8393 27.5414 29.1532 27.5414H32.5029C32.5932 27.5414 32.619 27.5844 32.6147 27.6661C32.6104 27.7478 32.6147 27.7865 32.6147 27.8424V36.6531C32.6092 36.8158 32.6207 36.9787 32.6491 37.139C32.6718 37.2874 32.7419 37.4245 32.8488 37.5299C32.9557 37.6352 33.0938 37.7033 33.2425 37.7238C33.2869 37.7277 33.3315 37.7277 33.3758 37.7238C33.479 37.7238 33.5091 37.7797 33.5091 37.8829C33.5091 38.7429 33.5091 39.6029 33.5091 40.4629C33.5091 40.5489 33.5091 40.6048 33.393 40.6177C32.6338 40.7701 31.8536 40.7876 31.0882 40.6693C30.7501 40.6063 30.4308 40.4665 30.1551 40.2608C29.9808 40.1384 29.8343 39.9804 29.7254 39.7974C29.6164 39.6143 29.5475 39.4103 29.523 39.1987C29.4929 38.8547 29.4714 38.5322 29.4413 38.1968Z" fill="#173303"/>
<path id="Vector_3" d="M51.9828 34.0564C51.9828 33.0158 51.9828 31.9795 51.9828 30.9389C51.9787 30.7981 52.0194 30.6596 52.0989 30.5433C52.8901 29.3397 54.0392 28.4147 55.3841 27.8988C56.2843 27.5446 57.2381 27.3454 58.2049 27.3097C59.2466 27.2391 60.2927 27.3497 61.2966 27.6365C62.9313 28.0727 64.3522 29.0873 65.2956 30.4917C66.039 31.6069 66.4121 32.9279 66.362 34.2671C66.3199 35.5274 65.9166 36.749 65.2 37.7866C64.4834 38.8241 63.4837 39.6339 62.32 40.1194C61.424 40.5055 60.4685 40.7353 59.4949 40.7988C58.4101 40.8922 57.3174 40.7962 56.2656 40.515C54.5786 40.0978 53.1062 39.0697 52.1333 37.6297C52.0304 37.4858 51.9775 37.3121 51.9828 37.1352C51.9871 36.1075 51.9828 35.0841 51.9828 34.0564ZM59.052 37.9823C59.7412 37.9541 60.4073 37.7255 60.9686 37.3245C61.53 36.9236 61.9622 36.3677 62.2125 35.7248C62.5502 34.9482 62.6402 34.0863 62.4705 33.2566C62.3415 32.5605 62.0214 31.9141 61.5459 31.3896C61.0704 30.8651 60.4583 30.4833 59.7782 30.2869C59.098 30.0906 58.3766 30.0874 57.6947 30.2777C57.0129 30.468 56.3974 30.8444 55.9173 31.3646C55.5004 31.8235 55.1973 32.3739 55.0322 32.9714C54.8671 33.5689 54.8448 34.1969 54.967 34.8046C55.2766 36.7095 56.8031 37.9823 59.052 37.9823Z" fill="#173303"/>
<path id="Vector_4" d="M69.7551 30.1009C69.7938 30.1009 69.8067 30.0751 69.8239 30.0536C70.4893 29.1297 71.4254 28.4355 72.5028 28.067C73.7961 27.5762 75.1945 27.428 76.562 27.637C77.2708 27.7167 77.9395 28.0072 78.4815 28.471C79.0234 28.9348 79.4138 29.5505 79.6021 30.2385C79.7724 30.8078 79.8749 31.3953 79.9074 31.9886C79.9332 32.3369 79.9418 32.6852 79.9418 33.0378C79.9418 35.549 79.9418 38.0602 79.9418 40.5714C79.9418 40.8853 79.9719 40.8423 79.6666 40.8423H76.476C76.4158 40.8423 76.3556 40.8423 76.2954 40.8423C76.2352 40.8423 76.2051 40.8079 76.2051 40.7434V33.5366C76.2161 33.0374 76.1553 32.5393 76.0245 32.0574C75.9334 31.6707 75.7301 31.3196 75.4402 31.048C75.1502 30.7765 74.7866 30.5966 74.3948 30.5309C73.9396 30.4474 73.4711 30.4724 73.0274 30.604C72.0106 30.8766 71.1228 31.4995 70.5205 32.3627C70.4354 32.4846 70.3592 32.6125 70.2926 32.7454C70.1555 32.9923 70.0872 33.2715 70.0948 33.5538C70.0948 35.8715 70.0948 38.1892 70.0948 40.5069V40.6617C70.0948 40.8294 70.0948 40.8337 69.9185 40.8337H66.5559C66.371 40.8337 66.3667 40.8337 66.3667 40.6316C66.3667 39.6297 66.3667 38.6235 66.3667 37.6216C66.3675 37.5033 66.4002 37.3875 66.4613 37.2862C67.018 36.3064 67.3107 35.1989 67.3107 34.072C67.3107 32.9451 67.018 31.8375 66.4613 30.8577C66.3874 30.7377 66.3501 30.5987 66.3538 30.4578C66.3538 29.6494 66.3538 28.841 66.3538 28.0283C66.3538 27.9767 66.3538 27.9251 66.3538 27.8735C66.3538 27.8219 66.3839 27.7617 66.457 27.766H69.5831C69.6906 27.766 69.7293 27.7961 69.725 27.9036C69.725 28.2562 69.725 28.6045 69.725 28.9528V29.9762C69.7336 30.0192 69.7164 30.0665 69.7551 30.1009Z" fill="#173303"/>
<path id="Vector_5" d="M16.3141 30.7106C16.1163 30.9385 15.9615 31.1406 15.8024 31.3126C15.2305 31.9963 14.6543 32.6757 14.0824 33.3637C14.0457 33.4137 13.9968 33.4534 13.9403 33.479C13.8838 33.5046 13.8217 33.5152 13.7599 33.5099H10.522C10.432 33.5 10.3409 33.5103 10.2554 33.54L10.4575 33.6088C10.8015 33.7163 11.1412 33.8238 11.4852 33.9227C11.5083 33.9253 11.5306 33.9326 11.5508 33.944C11.571 33.9555 11.5886 33.9709 11.6027 33.9894C11.6168 34.0079 11.6269 34.0291 11.6326 34.0516C11.6383 34.0741 11.6393 34.0975 11.6357 34.1205C11.6357 34.7913 11.6357 35.4621 11.6357 36.1286C11.6307 36.2396 11.5829 36.3444 11.5024 36.421L9.05999 39.3192L7.9549 40.6307C7.91279 40.6933 7.85495 40.7437 7.7872 40.7769V24.0069C7.7872 23.6371 7.84309 23.7231 7.48189 23.6113C7.00889 23.4608 6.53159 23.3189 6.05859 23.1426H22.6394C22.6652 23.2114 22.6007 23.2415 22.5663 23.2845C21.8009 24.1961 21.0312 25.1034 20.2701 26.015C20.2318 26.0638 20.1817 26.102 20.1245 26.1261C20.0673 26.1501 20.005 26.1593 19.9433 26.1526H10.2253C10.3089 26.214 10.4064 26.2539 10.5091 26.2687L11.4465 26.5568C11.6615 26.6256 11.6228 26.617 11.6228 26.8019V30.4354C11.6228 30.745 11.5841 30.702 11.898 30.7063H16.3055L16.3141 30.7106Z" fill="#173303"/>
<path id="Vector_6" d="M46.7362 29.0842L45.2441 31.0794L44.9689 30.9074C44.1809 30.3878 43.3076 30.0108 42.3889 29.7937C41.664 29.6148 40.9096 29.5899 40.1744 29.7206C39.9121 29.7752 39.6588 29.8664 39.4219 29.9915C39.1783 30.1254 38.9866 30.3371 38.8774 30.5928C38.7683 30.8485 38.7481 31.1334 38.8199 31.4019C38.8489 31.5232 38.9019 31.6374 38.9757 31.7379C39.0496 31.8383 39.1428 31.9229 39.2499 31.9867C39.4719 32.1236 39.7103 32.232 39.9594 32.3092C40.5751 32.5063 41.2009 32.6699 41.8342 32.7994C42.7926 33.0124 43.7374 33.2824 44.6636 33.6078C45.1613 33.785 45.6351 34.0233 46.074 34.3173C46.5117 34.6059 46.8581 35.0131 47.0729 35.4913C47.2876 35.9695 47.3618 36.4989 47.2866 37.0177C47.2499 37.5811 47.0779 38.1273 46.7852 38.6101C46.4925 39.0929 46.0878 39.498 45.6053 39.7912C44.8764 40.2591 44.055 40.5642 43.1973 40.6856C40.8374 41.0608 38.4191 40.7224 36.2528 39.7138C36.1195 39.6493 35.9905 39.5719 35.8572 39.5074C35.8161 39.4922 35.7814 39.4635 35.7588 39.426C35.7361 39.3885 35.7269 39.3445 35.7325 39.301C35.7325 38.871 35.7325 38.4066 35.7325 37.9637C35.7325 37.7659 35.7325 37.7659 35.5476 37.7014C35.5476 37.6369 35.5863 37.5982 35.6164 37.5509C35.7755 37.3101 35.9432 37.0693 36.098 36.8242C36.1539 36.7339 36.2012 36.7296 36.2915 36.7855C36.6865 37.0382 37.0957 37.2679 37.517 37.4735C38.3662 37.9052 39.2771 38.2026 40.2174 38.355C40.9171 38.4705 41.6316 38.4633 42.3287 38.3335C42.6371 38.2756 42.93 38.1541 43.1887 37.9766C43.3777 37.8486 43.5249 37.6678 43.612 37.4568C43.6992 37.2459 43.7224 37.0139 43.6789 36.7898C43.6552 36.6492 43.6009 36.5155 43.5199 36.3982C43.4389 36.2808 43.3332 36.1826 43.2102 36.1104C43.0521 36.0127 42.8833 35.9334 42.7071 35.8739C41.9075 35.5945 41.0937 35.3577 40.269 35.1644C39.3044 34.9381 38.355 34.6509 37.4267 34.3044C37.0027 34.1408 36.6034 33.9194 36.2399 33.6465C35.948 33.4269 35.7103 33.1433 35.5448 32.8176C35.3794 32.4919 35.2906 32.1327 35.2853 31.7674C35.2409 31.0873 35.3823 30.4079 35.6944 29.8019C36.0065 29.196 36.4774 28.6863 37.0569 28.3274C37.8402 27.807 38.7338 27.4758 39.667 27.3599C41.2352 27.1368 42.8336 27.2735 44.3411 27.7598C45.1419 28.0197 45.8934 28.4121 46.5642 28.9208C46.6062 28.9514 46.6464 28.9845 46.6846 29.0197C46.6846 29.0197 46.7147 29.0541 46.7362 29.0842Z" fill="#173303"/>
<path id="Vector_7" d="M47.6654 29.0717C47.6267 29.0373 47.6051 29.0029 47.575 28.99C47.4619 28.9448 47.3688 28.8604 47.3128 28.7522C47.2567 28.6441 47.2414 28.5193 47.2697 28.4009C47.2797 28.2577 47.2797 28.114 47.2697 27.9709C47.2697 27.7731 47.2311 27.7559 47.4934 27.7559H50.8646C51.0495 27.7559 51.0495 27.7559 51.0538 27.9322V40.5742C51.0538 40.8838 51.0968 40.8451 50.7829 40.8451H47.5492C47.4976 40.8451 47.4461 40.8451 47.3945 40.8451C47.3429 40.8451 47.2741 40.8236 47.2741 40.7333C47.2741 40.2431 47.2741 39.7529 47.2741 39.2627C47.2747 39.2261 47.2835 39.1901 47.2999 39.1573C47.3163 39.1246 47.3398 39.0959 47.3687 39.0735C47.7323 38.6774 47.9884 38.1948 48.1125 37.6717C48.3176 36.9386 48.2738 36.1583 47.9879 35.4529C47.8475 35.1397 47.6406 34.8609 47.3816 34.6359C47.3481 34.609 47.3211 34.5749 47.3025 34.5362C47.2839 34.4975 47.2742 34.4552 47.2741 34.4123V29.7167C47.2716 29.6285 47.3023 29.5425 47.36 29.4759C47.4632 29.3469 47.5579 29.2136 47.6654 29.0717Z" fill="#173303"/>
<path id="Vector_8" d="M49.1439 25.9673H47.4497C47.2777 25.9673 47.2734 25.9673 47.2734 25.7953V22.7853C47.2734 22.6176 47.2734 22.6133 47.4497 22.6133H50.8897C51.0617 22.6133 51.066 22.6133 51.066 22.781V25.791C51.066 25.9587 51.066 25.9587 50.894 25.963L49.1439 25.9673Z" fill="#173303"/>
<path id="Vector_9" d="M20.7604 62.9906H16.9506C16.8942 62.9938 16.838 62.9828 16.787 62.9588C16.7359 62.9348 16.6916 62.8984 16.6582 62.853C15.2248 61.0814 13.8044 59.3141 12.3969 57.5511C12.3547 57.483 12.2973 57.4255 12.2292 57.3834V57.6027C12.2292 58.3767 12.2292 59.1507 12.2292 59.9247C12.2318 59.9822 12.2228 60.0395 12.2029 60.0934C12.183 60.1474 12.1524 60.1967 12.1131 60.2386L9.10306 63.6786C9.07296 63.7173 9.04717 63.7646 8.99127 63.7818C8.93967 63.7345 8.96116 63.6743 8.96116 63.6184L8.87087 55.2506C8.87087 53.6424 8.82786 52.0385 8.80636 50.4303C8.80636 50.2712 8.80637 50.2712 8.64727 50.2196L7.57227 49.8928C7.61597 49.8658 7.66729 49.8537 7.71846 49.8584H12.0658C12.2507 49.8584 12.2292 49.8584 12.2292 50.0519V55.7236C12.3023 55.7236 12.3152 55.6849 12.3453 55.6548L16.8775 50.4948C16.915 50.4433 16.9652 50.4024 17.0232 50.3761C17.0812 50.3497 17.1451 50.3388 17.2086 50.3443H20.7475C20.7475 50.426 20.7131 50.4561 20.6787 50.4905L16.9979 54.7604C16.598 55.2248 16.1938 55.6892 15.7939 56.1579C15.6649 56.3041 15.6907 56.2783 15.7939 56.4073L19.4403 61.2061L20.6744 62.8272C20.7176 62.8727 20.7473 62.9293 20.7604 62.9906Z" fill="#173303"/>
<path id="Vector_10" d="M61.0382 58.0713C61.104 58.657 61.3518 59.2072 61.7468 59.6446C62.1417 60.082 62.6639 60.3845 63.2398 60.5094C63.8985 60.6567 64.5805 60.6658 65.2429 60.5363C65.9053 60.4068 66.5336 60.1414 67.0883 59.7569L67.2603 59.6408C67.3248 59.6623 67.3334 59.7182 67.3592 59.7612C67.7376 60.4449 68.1203 61.1286 68.4944 61.8123C68.5804 61.9585 68.6191 61.9413 68.4342 62.0617C67.5095 62.6816 66.4699 63.11 65.3769 63.3216C64.1789 63.5516 62.9439 63.5001 61.7692 63.1711C60.9023 62.9387 60.1105 62.4853 59.4714 61.8552C58.8322 61.2251 58.3676 60.4398 58.1228 59.5763C57.9391 58.9712 57.8294 58.346 57.796 57.7144C57.7336 56.7723 57.828 55.8263 58.0755 54.9151C58.2977 54.0205 58.7672 53.2066 59.4303 52.5663C60.0934 51.926 60.9233 51.4853 61.8251 51.2945C62.6365 51.0978 63.4739 51.0311 64.3062 51.0967C65.0695 51.1253 65.8225 51.2823 66.5336 51.5611C67.2305 51.8172 67.839 52.2684 68.2866 52.8608C68.7341 53.4532 69.0018 54.1619 69.0577 54.9022C69.1525 55.8623 69.062 56.8315 68.7911 57.7574C68.789 57.776 68.7832 57.7939 68.774 57.8101C68.7647 57.8263 68.7523 57.8405 68.7374 57.8518C68.7225 57.863 68.7055 57.8712 68.6874 57.8756C68.6693 57.8801 68.6504 57.8809 68.632 57.8778L64.6416 57.9767L61.1715 58.0627L61.0382 58.0713ZM63.5709 56.0417H63.859H65.9359H66.0907C66.1466 56.0417 66.1724 56.0417 66.1724 55.96C66.1724 55.831 66.1724 55.702 66.1724 55.573C66.175 55.1181 66.0148 54.6772 65.7206 54.3302C65.4264 53.9832 65.0177 53.7529 64.5685 53.681C64.0226 53.5671 63.459 53.5671 62.913 53.681C62.5572 53.7383 62.2214 53.884 61.9367 54.1049C61.6519 54.3258 61.4272 54.6148 61.2833 54.9452C61.1394 55.2563 61.0409 55.5865 60.9909 55.9256C60.9909 56.0718 60.9909 56.0761 61.1199 56.0761L63.5709 56.0417Z" fill="#173303"/>
<path id="Vector_11" d="M72.1447 53.2805L72.493 53.0053C73.2156 52.4283 74.0125 51.9511 74.8623 51.5863C75.7103 51.2231 76.635 51.0754 77.554 51.1563C78.0425 51.1759 78.514 51.3412 78.9079 51.6308C79.3017 51.9205 79.6 52.3213 79.7643 52.7817C79.9683 53.3139 80.0929 53.8731 80.134 54.4415C80.228 55.5282 80.2639 56.6191 80.2415 57.7095C80.22 58.6168 80.1986 59.5284 80.1427 60.4357C80.0997 61.1151 80.0395 61.7859 79.975 62.461C79.9771 62.4997 79.9771 62.5385 79.975 62.5771C79.9277 62.8136 79.975 62.7792 79.7428 62.7749L76.7973 62.6975C76.6511 62.6975 76.6468 62.6975 76.6597 62.5427C76.707 62.0697 76.7414 61.5925 76.7801 61.1152C76.8317 60.453 76.8747 59.7907 76.8876 59.1242C76.8876 58.2427 76.9177 57.3569 76.8876 56.4711C76.8787 56.1159 76.8311 55.7626 76.7457 55.4176C76.7127 55.2872 76.6666 55.1604 76.6081 55.0392C76.5281 54.8471 76.3959 54.6811 76.2264 54.5603C76.0569 54.4394 75.8569 54.3685 75.6492 54.3555C75.2674 54.32 74.8826 54.3699 74.5226 54.5017C74.1389 54.6384 73.7735 54.8218 73.4347 55.0478C73.0529 55.3023 72.6867 55.5794 72.3382 55.8777C72.2935 55.9126 72.258 55.9579 72.2347 56.0096C72.2115 56.0613 72.2013 56.1179 72.2049 56.1744C72.2049 57.8944 72.2307 59.6359 72.2436 61.3645C72.2436 61.7601 72.2436 62.1557 72.2436 62.547C72.2436 62.7534 72.2435 62.7362 72.0586 62.7491L70.4892 62.8308L69.1347 62.8996C68.9885 62.8996 68.9885 62.8996 68.9842 62.7577C68.9799 62.6158 68.9842 62.5728 68.9842 62.4868C68.9751 62.4452 68.9804 62.4018 68.9992 62.3636C69.0179 62.3253 69.049 62.2945 69.0874 62.2761C69.1519 62.246 69.1476 62.1987 69.1089 62.1514C68.995 61.971 68.9465 61.757 68.9713 61.5452C68.9713 60.4143 68.9283 59.2833 68.9111 58.1524C68.9111 57.8987 68.9111 57.8987 69.1605 57.8902C69.4099 57.8815 69.354 57.9202 69.4142 57.688C69.6502 56.8333 69.7504 55.9467 69.7109 55.0607C69.6821 54.1851 69.3965 53.3372 68.8896 52.6226C68.8409 52.5617 68.8151 52.4856 68.8165 52.4076C68.8165 52.1883 68.8165 51.9776 68.8165 51.7497C68.8165 51.5218 68.8165 51.5777 68.9756 51.5691L70.3903 51.4831L71.9168 51.3928H71.9769C72.0672 51.3928 72.1017 51.4143 72.1017 51.5089C72.1017 51.8357 72.1275 52.1625 72.1447 52.4936C72.106 52.7559 72.1189 52.9967 72.1447 53.2805Z" fill="#173303"/>
<path id="Vector_12" d="M50.0043 53.6032L50.3741 53.3151C50.965 52.8319 51.6189 52.4312 52.3177 52.124C53.1113 51.783 53.9771 51.6442 54.8375 51.7198C55.2974 51.7371 55.7407 51.8958 56.107 52.1744C56.4734 52.453 56.7448 52.8378 56.8843 53.2764C57.05 53.7467 57.1526 54.2368 57.1896 54.7341C57.2784 55.9373 57.3028 57.1445 57.2627 58.3504C57.2627 59.1846 57.2154 60.0145 57.1466 60.8487C57.1165 61.2787 57.0692 61.6829 57.0305 62.1C57.0305 62.2462 57.0305 62.2505 56.8671 62.2462L54.1495 62.1903C54.0291 62.1903 54.0291 62.1903 54.042 62.0527C54.1065 61.3776 54.1667 60.7025 54.2011 60.0274C54.2613 58.8807 54.2713 57.734 54.2312 56.5874C54.2283 56.1869 54.169 55.7888 54.0549 55.4049C53.9994 55.1659 53.8609 54.9543 53.664 54.8079C53.4672 54.6614 53.2248 54.5896 52.9799 54.6051C52.5322 54.5982 52.0896 54.7001 51.6899 54.9018C51.0984 55.2091 50.5503 55.5938 50.0602 56.0456C50.0321 56.0713 50.011 56.1037 49.999 56.1398C49.987 56.176 49.9844 56.2146 49.9914 56.252V59.1803C49.9914 60.1091 49.9986 61.0379 50.0129 61.9667C50.0129 62.0054 50.0129 62.0441 50.0129 62.0828C50.0129 62.1215 49.9785 62.2032 49.8882 62.2075L48.4176 62.2849C47.9876 62.3064 47.5877 62.3236 47.1749 62.3494C47.0932 62.3494 47.0588 62.3494 47.0588 62.2462C47.0528 62.1991 47.0578 62.1513 47.0735 62.1065C47.0891 62.0617 47.115 62.0212 47.1491 61.9882C47.2461 61.8926 47.3366 61.7906 47.42 61.6829C47.5318 61.5582 47.5275 61.5539 47.42 61.4249L47.1018 60.9949C47.04 60.9201 47.0079 60.8252 47.0115 60.7283L46.9341 56.6992C46.9341 55.8392 46.904 54.9792 46.8868 54.145C46.8791 54.0886 46.8876 54.0313 46.9112 53.9795C46.9348 53.9278 46.9725 53.8837 47.0201 53.8526C47.2394 53.7021 47.4501 53.5301 47.6565 53.3753C47.7468 53.3151 47.7468 53.2635 47.6909 53.1732C47.4921 52.8332 47.2476 52.5221 46.9642 52.2487C46.9255 52.216 46.8947 52.1751 46.8738 52.129C46.853 52.0829 46.8427 52.0327 46.8438 51.9821C46.8438 50.8125 46.8008 49.6472 46.7793 48.4776C46.7793 48.3013 46.7793 48.3056 46.9384 48.297L49.7291 48.1465H49.7678C49.9269 48.1465 49.9312 48.1465 49.9312 48.297C49.9312 48.6754 49.9312 49.0581 49.9312 49.4408C49.9312 50.7652 49.9312 52.0853 49.9312 53.4097C50.0086 53.457 50.0043 53.5301 50.0043 53.6032Z" fill="#173303"/>
<path id="Vector_13" d="M31.5666 48.5176C31.5898 48.5867 31.5971 48.6602 31.5881 48.7326V51.4803C31.5881 51.5362 31.5881 51.5663 31.6655 51.562H31.8031L35.0023 51.5233C35.2302 51.5233 35.2259 51.4846 35.2173 51.7383C35.2173 52.4779 35.1786 53.2132 35.1571 53.9485C35.1571 54.099 35.1571 54.099 35.0109 54.1033L31.8332 54.1807H31.7558C31.6182 54.1807 31.6139 54.1807 31.6139 54.3183V55.6083V58.1453C31.6106 58.4355 31.6468 58.7248 31.7214 59.0053C31.7674 59.1847 31.8547 59.3509 31.9764 59.4905C32.0981 59.6301 32.2508 59.7393 32.4223 59.8094C32.7443 59.9494 33.0956 60.0085 33.4457 59.9814C33.8317 59.9558 34.2131 59.8821 34.5809 59.7621C34.74 59.7148 34.74 59.7148 34.7572 59.8782C34.8432 60.6393 34.9292 61.4004 35.0109 62.1615C35.0109 62.2088 35.0109 62.2518 35.0109 62.2991C35.0109 62.3464 34.9894 62.4238 34.9034 62.4496C33.8397 62.8179 32.7175 62.9884 31.5924 62.9527C31.149 62.9282 30.713 62.8294 30.3024 62.6603C29.9319 62.5034 29.5976 62.2721 29.3202 61.9806C29.0428 61.6892 28.8283 61.3439 28.6899 60.9661C28.5074 60.497 28.3902 60.0051 28.3416 59.5041C28.2771 58.9279 28.2771 58.3474 28.2685 57.7841C28.2513 56.6776 28.2369 55.5739 28.2255 54.4731C28.2233 54.4531 28.2233 54.4329 28.2255 54.4129C28.2255 54.3226 28.1997 54.2839 28.1051 54.2882C28.0105 54.2925 27.8342 54.2882 27.6966 54.2882L26.5743 54.3183C26.4109 54.3183 26.4109 54.3183 26.4152 54.1635C26.4367 53.4067 26.4539 52.6542 26.4711 51.8974C26.4732 51.8659 26.4732 51.8343 26.4711 51.8028C26.4711 51.605 26.4711 51.6136 26.6646 51.6136H27.9847C28.1782 51.6136 28.1782 51.6136 28.1739 51.4244L28.1352 49.2744C28.1352 48.9949 28.1352 48.9992 28.4018 48.9648L30.956 48.6294L31.5666 48.5176Z" fill="#173303"/>
<path id="Vector_14" d="M44.7932 55.0654C44.6668 54.8853 44.5228 54.7182 44.3632 54.5666C43.8627 54.1493 43.2384 53.909 42.5873 53.8829C41.907 53.8228 41.2287 54.0173 40.6837 54.4289C40.1387 54.8404 39.7659 55.4396 39.6375 56.1103C39.4249 56.9483 39.4699 57.8309 39.7665 58.643C39.9593 59.1697 40.3114 59.6232 40.7737 59.9407C41.236 60.2581 41.7857 60.4238 42.3465 60.4146C43.2211 60.4401 44.0762 60.1535 44.7588 59.6062C44.8879 59.495 45.01 59.3758 45.1243 59.2493C45.1974 59.2751 45.2189 59.3353 45.2533 59.3783C45.6833 59.976 46.1133 60.5737 46.5433 61.1671C46.668 61.3391 46.6465 61.3133 46.5433 61.4552C45.914 62.2103 45.0743 62.7612 44.131 63.0376C42.8578 63.4416 41.4921 63.4506 40.2137 63.0634C39.4095 62.8283 38.6736 62.4031 38.0681 61.8239C37.4627 61.2446 37.0055 60.5283 36.735 59.7352C36.4057 58.8433 36.2594 57.8942 36.305 56.9445C36.3262 56.0527 36.5296 55.1747 36.9027 54.3645C37.2723 53.5338 37.8449 52.8094 38.5677 52.2578C39.2905 51.7063 40.1405 51.3454 41.0393 51.2083C42.2994 50.9633 43.6045 51.1135 44.776 51.6383C45.6158 51.9852 46.3257 52.5868 46.8056 53.3583L46.8701 53.4744C46.8767 53.4808 46.882 53.4885 46.8856 53.497C46.8892 53.5055 46.8911 53.5146 46.8911 53.5238C46.8911 53.5331 46.8892 53.5422 46.8856 53.5507C46.882 53.5592 46.8767 53.5669 46.8701 53.5733L46.7927 53.6335C46.1864 54.0979 45.5844 54.558 44.9738 55.0181C44.9499 55.0402 44.9209 55.0561 44.8894 55.0644C44.8579 55.0726 44.8249 55.073 44.7932 55.0654Z" fill="#173303"/>
<path id="Vector_15" d="M25.8424 57.4484C25.8424 58.9577 25.8682 60.7465 25.8682 62.5353C25.8682 62.7804 25.9069 62.7589 25.6446 62.7718L22.7765 62.9223C22.6131 62.9223 22.6174 62.9223 22.6088 62.7589C22.5787 61.6538 22.5443 60.553 22.5142 59.4479C22.4927 58.6567 22.4755 57.8612 22.454 57.07L22.3895 54.49L22.3379 52.4991C22.3379 52.3056 22.3379 52.1121 22.3379 51.9186C22.3379 51.7251 22.3379 51.7681 22.4841 51.7595L23.7741 51.6821L25.5887 51.5703H25.6489C25.8381 51.5703 25.8381 51.5703 25.8424 51.7509C25.8166 53.5698 25.8295 55.3715 25.8424 57.4484Z" fill="#173303"/>
<path id="Vector_16" d="M24.1583 46.6501L25.7235 46.5684C25.7966 46.5684 25.8353 46.5684 25.831 46.663V49.2301C25.831 49.3548 25.831 49.3591 25.6891 49.3677L24.3346 49.4365L22.6146 49.5096C22.4469 49.5096 22.4512 49.5096 22.4469 49.3462C22.4469 48.5679 22.4039 47.7853 22.3867 47.007C22.3867 46.9554 22.3867 46.9038 22.3867 46.8522C22.3867 46.8006 22.4125 46.749 22.4856 46.7447C22.5587 46.7404 22.692 46.7447 22.7952 46.7447L24.1497 46.6802L24.1583 46.6501Z" fill="#173303"/>
</g>
<defs>
<clipPath id="clip0_1732_2715">
<rect width="86" height="86" fill="white"/>
</clipPath>
</defs>
</svg>
