<svg xmlns="http://www.w3.org/2000/svg" width="29.654" height="29.654" viewBox="0 0 29.654 29.654">
  <path id="facebook" d="M152.094,128a5.57,5.57,0,0,1,5.56,5.56v18.534a5.57,5.57,0,0,1-5.56,5.56h-3.63V146.167h3.842l.579-4.479h-4.421v-2.857a2.475,2.475,0,0,1,.454-1.622,2.252,2.252,0,0,1,1.767-.541l2.355-.019v-4a25.878,25.878,0,0,0-3.436-.174,5.735,5.735,0,0,0-4.2,1.544,5.837,5.837,0,0,0-1.573,4.363v3.3H139.97v4.479h3.861v11.487H133.56a5.57,5.57,0,0,1-5.56-5.56V133.56a5.57,5.57,0,0,1,5.56-5.56Z" transform="translate(-128 -128)" fill="#fff"/>
</svg>
