<svg xmlns="http://www.w3.org/2000/svg" width="29.653" height="29.654" viewBox="0 0 29.653 29.654">
  <path id="Subtraction_30" data-name="Subtraction 30" d="M10825.826-16223.346c-4.879,0-5.443-.019-7.3-.106a9.922,9.922,0,0,1-3.361-.62,5.646,5.646,0,0,1-2.08-1.354,5.647,5.647,0,0,1-1.354-2.081,10.009,10.009,0,0,1-.62-3.356c-.089-1.884-.105-2.394-.105-7.31,0-4.8.019-5.373.105-7.31a10.068,10.068,0,0,1,.62-3.357,5.613,5.613,0,0,1,1.354-2.08,5.516,5.516,0,0,1,2.08-1.354,9.908,9.908,0,0,1,3.356-.62c1.866-.088,2.432-.106,7.31-.106,4.78,0,5.359.019,7.31.106a10.011,10.011,0,0,1,3.357.62,5.516,5.516,0,0,1,2.08,1.354,5.647,5.647,0,0,1,1.354,2.08,10,10,0,0,1,.624,3.357c.084,1.858.1,2.423.1,7.31s-.018,5.451-.1,7.31a10.1,10.1,0,0,1-.624,3.356,6,6,0,0,1-3.435,3.435,9.878,9.878,0,0,1-3.357.62C10831.271-16223.364,10830.706-16223.346,10825.826-16223.346Zm.033-25.779c-2.963,0-3.355.013-4.544.065a8.058,8.058,0,0,0-2.672.51,5.659,5.659,0,0,0-3.223,3.223,8.081,8.081,0,0,0-.514,2.676c-.053,1.183-.065,1.575-.065,4.544s.013,3.357.065,4.54a8.091,8.091,0,0,0,.514,2.676,5.652,5.652,0,0,0,3.223,3.222,8.037,8.037,0,0,0,2.672.51c1.188.054,1.543.065,4.544.065,3.017,0,3.381-.008,4.54-.065a8.083,8.083,0,0,0,2.676-.51,5.645,5.645,0,0,0,3.222-3.222,8,8,0,0,0,.511-2.676c.057-1.163.064-1.528.064-4.54s-.008-3.381-.064-4.544a7.988,7.988,0,0,0-.511-2.676,5.652,5.652,0,0,0-3.222-3.223,8.1,8.1,0,0,0-2.672-.51C10829.22-16249.112,10828.827-16249.125,10825.859-16249.125Zm0,20.048c-2.921,0-3.272-.012-4.45-.064a6.064,6.064,0,0,1-2.048-.38,3.657,3.657,0,0,1-2.093-2.088,6.137,6.137,0,0,1-.375-2.048c-.054-1.2-.065-1.553-.065-4.45s.012-3.257.065-4.454a6.083,6.083,0,0,1,.375-2.044,3.657,3.657,0,0,1,2.093-2.093,6.155,6.155,0,0,1,2.048-.379c1.193-.054,1.547-.065,4.45-.065s3.252.012,4.45.065a6.155,6.155,0,0,1,2.048.379,3.64,3.64,0,0,1,2.088,2.093,6.006,6.006,0,0,1,.38,2.044c.053,1.182.064,1.534.064,4.454s-.012,3.268-.064,4.45a6.064,6.064,0,0,1-.38,2.048,3.657,3.657,0,0,1-2.088,2.088,6.064,6.064,0,0,1-2.048.38C10829.132-16229.089,10828.78-16229.077,10825.859-16229.077Zm0-14.692a5.664,5.664,0,0,0-5.657,5.658,5.664,5.664,0,0,0,5.657,5.657,5.662,5.662,0,0,0,5.653-5.657A5.662,5.662,0,0,0,10825.859-16243.77Zm5.882-1.546a1.339,1.339,0,0,0-1.326,1.326,1.323,1.323,0,0,0,1.322,1.321,1.323,1.323,0,0,0,1.321-1.321,1.328,1.328,0,0,0-1.317-1.326Zm-5.882,10.879a3.653,3.653,0,0,1-2.6-1.079,3.643,3.643,0,0,1-1.069-2.6,3.676,3.676,0,0,1,3.671-3.672,3.676,3.676,0,0,1,3.671,3.672A3.677,3.677,0,0,1,10825.859-16234.437Z" transform="translate(-10811 16253)" fill="#fff"/>
</svg>
