<svg xmlns="http://www.w3.org/2000/svg" width="131.402" height="75.075" viewBox="0 0 131.402 75.075"><defs><style>.a{fill:#fff;}</style></defs><g transform="translate(0 0.003)"><g transform="translate(0 -0.003)"><path class="a" d="M202.084,150.143a.192.192,0,0,0-.163.1,11.258,11.258,0,0,1-6.425,4.107,15.055,15.055,0,0,1-4.488.461,8.663,8.663,0,0,1-3.757-.952,6.789,6.789,0,0,1-3.277-4.18,12.638,12.638,0,0,1-.53-3.74c-.012-4.811-.005-9.621-.005-14.432,0-.065,0-.129,0-.193,0-.131.063-.186.189-.183.077,0,.155,0,.232,0h5.807c.077,0,.155,0,.232,0,.129-.005.191.05.185.183,0,.1,0,.206,0,.309v12.652a9.322,9.322,0,0,0,.292,2.528,5.139,5.139,0,0,0,.324.868,3.453,3.453,0,0,0,2.985,2.037,7.26,7.26,0,0,0,6.58-2.882c.049-.06.093-.124.139-.186a2.386,2.386,0,0,0,.679-2.092V131.664c0-.065,0-.129,0-.193,0-.335,0-.339.341-.339q2.942,0,5.884,0c.479,0,.422-.027.422.451q0,7.835,0,15.67a4.483,4.483,0,0,0,.05.886,1.238,1.238,0,0,0,1.107,1.122c.435.088.435.088.436.523V154c0,.379,0,.38-.366.436a13.33,13.33,0,0,1-3.315.163,4.666,4.666,0,0,1-1.878-.557,2.835,2.835,0,0,1-1.552-2.386C202.18,151.155,202.128,150.655,202.084,150.143Z" transform="translate(-160.5 -114.733)"/><path class="a" d="M653.174,139.868c0-1.844.005-3.689-.005-5.533a1.344,1.344,0,0,1,.24-.789,12.276,12.276,0,0,1,5.691-4.6,15.057,15.057,0,0,1,4.925-1.089,16.686,16.686,0,0,1,5.336.471,12.649,12.649,0,0,1,6.9,4.379,11.031,11.031,0,0,1,2.411,8.365,11.514,11.514,0,0,1-7.2,9.613,14.511,14.511,0,0,1-4.98,1.185,16.644,16.644,0,0,1-5.938-.57,12.654,12.654,0,0,1-6.341-4.024,14.424,14.424,0,0,1-.872-1.183,1.031,1.031,0,0,1-.175-.615C653.177,143.609,653.174,141.738,653.174,139.868Zm18.794.015-.035-.618a6.776,6.776,0,0,0-12.677-2.924,7.458,7.458,0,0,0-.784,4.8,6.562,6.562,0,0,0,6.359,5.7,6.46,6.46,0,0,0,5.9-2.831,7.108,7.108,0,0,0,1.239-4.125Z" transform="translate(-571.496 -111.836)"/><path class="a" d="M863.683,135.834c.093.026.11-.016.129-.044a9.686,9.686,0,0,1,4.51-3.456,14.22,14.22,0,0,1,7.6-.879,6.315,6.315,0,0,1,5.283,4.528,13.363,13.363,0,0,1,.539,2.765,18.95,18.95,0,0,1,.086,2.2q0,6.77,0,13.539c0,.536.061.464-.479.465q-2.845,0-5.689,0a1.989,1.989,0,0,0-.232,0c-.213.025-.272-.082-.255-.272.008-.09,0-.18,0-.271q0-6.228,0-12.456a9.287,9.287,0,0,0-.318-2.639,3.647,3.647,0,0,0-3.65-2.779,7.738,7.738,0,0,0-6.677,4.292,2.307,2.307,0,0,0-.209.969q.011,6.344,0,12.688c0,.53.058.466-.481.466q-2.845,0-5.689,0c-.09,0-.181,0-.271,0-.147.008-.214-.055-.206-.2,0-.077,0-.155,0-.232,0-1.741,0-3.482,0-5.222a1.321,1.321,0,0,1,.168-.658,11.423,11.423,0,0,0-.021-11.52,1.02,1.02,0,0,1-.146-.508c.006-1.522,0-3.043,0-4.565,0-.352,0-.355.368-.355q2.632,0,5.264,0l.193,0c.13,0,.185.067.182.193,0,.09,0,.181,0,.271v3.68Z" transform="translate(-750.428 -114.864)"/><path class="a" d="M.013,68.724h29.45c.061.122-.038.174-.091.236-1.361,1.62-2.727,3.235-4.081,4.86a.688.688,0,0,1-.6.263q-7.161-.009-14.323,0H7.509c-.028.134.075.12.14.14.641.2,1.282.393,1.923.59.328.1.329.1.329.448q0,3.231,0,6.461c0,.535-.06.476.471.477q3.716,0,7.433,0h.33c.007.162-.092.219-.155.293-1.236,1.472-2.478,2.938-3.708,4.416a.686.686,0,0,1-.594.268c-1.936-.01-3.871-.008-5.807-.009h-.4c.043.139.146.128.223.151.653.2,1.305.407,1.961.6a.286.286,0,0,1,.246.324q-.013,1.818,0,3.637a.646.646,0,0,1-.2.443q-2.1,2.485-4.188,4.972L3.353,99.865a.764.764,0,0,1-.253.252c-.093-.113-.045-.245-.045-.363q0-14.722,0-29.444c0-.707.089-.55-.55-.752-.725-.229-1.454-.448-2.181-.671-.107-.033-.213-.068-.319-.1Z" transform="translate(0 -60.13)"/><path class="a" d="M29.768,424.582a.78.78,0,0,1-.384.044c-2.142,0-4.283,0-6.425.007a.661.661,0,0,1-.582-.28q-3.76-4.7-7.535-9.38c-.088-.109-.176-.217-.285-.351a.7.7,0,0,0-.059.43q0,2.051.012,4.1a.719.719,0,0,1-.183.523q-2.724,3.092-5.434,6.2c-.042.048-.079.1-.12.153-.146-.1-.091-.228-.092-.331Q8.6,419.447,8.518,413.2q-.071-5.512-.142-11.024c0-.325,0-.328-.314-.424-.517-.161-1.036-.316-1.553-.474a.785.785,0,0,1-.37-.173H14.06c.077,0,.155,0,.232,0,.149-.009.211.06.2.206-.005.09,0,.181,0,.271q0,4.816,0,9.632a1.309,1.309,0,0,0,.023.425c.126,0,.163-.115.225-.186q4.042-4.61,8.08-9.227a.556.556,0,0,1,.455-.233c2.09.008,4.18,0,6.27.006.059,0,.118.014.234.028-.1.125-.175.212-.247.3l-8.54,9.9c-.323.374-.325.373-.017.778l8.544,11.242C29.6,424.347,29.672,424.452,29.768,424.582Z" transform="translate(-5.371 -350.949)"/><path class="a" d="M416.257,146.067c.358-.54.7-1.053,1.038-1.572.1-.15.184-.132.315-.049q.475.3.964.574a17.739,17.739,0,0,0,5.8,2.184,10.909,10.909,0,0,0,3.811.039,4.235,4.235,0,0,0,1.68-.658,2.05,2.05,0,0,0,.931-1.772,1.782,1.782,0,0,0-.887-1.577,5.3,5.3,0,0,0-1.092-.489c-1.41-.506-2.862-.863-4.313-1.23s-2.87-.747-4.27-1.239A10.858,10.858,0,0,1,418,139.221a4.417,4.417,0,0,1-2.172-3.941,6.658,6.658,0,0,1,2.87-5.664,10.139,10.139,0,0,1,4.429-1.835,17.924,17.924,0,0,1,9.982,1.068,12.7,12.7,0,0,1,2.831,1.658c.248.188.284.171.08.443q-1.159,1.549-2.312,3.1c-.182.244-.188.245-.453.073a15.024,15.024,0,0,0-4.374-2.012,10.2,10.2,0,0,0-4.216-.271,4.648,4.648,0,0,0-1.563.544,2.213,2.213,0,0,0-.99,2.576,1.578,1.578,0,0,0,.7.9,4.944,4.944,0,0,0,1.145.557,29.485,29.485,0,0,0,3.435.918,46.046,46.046,0,0,1,4.948,1.4,11.474,11.474,0,0,1,2.568,1.249,4.539,4.539,0,0,1,2.141,2.96,6.257,6.257,0,0,1-2.211,6.378,9.811,9.811,0,0,1-4.291,1.951,19.162,19.162,0,0,1-5.465.324,22.2,22.2,0,0,1-6.14-1.332,20.165,20.165,0,0,1-1.974-.889.534.534,0,0,1-.346-.563c.021-.76.008-1.521.007-2.282C416.624,146.188,416.622,146.188,416.257,146.067Z" transform="translate(-363.833 -111.563)"/><path class="a" d="M730.124,431.383a.271.271,0,0,0-.007.229,5.149,5.149,0,0,0,5.029,4.3A8.825,8.825,0,0,0,741,434.329c.253-.173.259-.17.415.111q1.016,1.826,2.028,3.652c.136.245.134.25-.114.411a14.552,14.552,0,0,1-6.425,2.4,14.021,14.021,0,0,1-5.409-.378,9.284,9.284,0,0,1-6.581-6.355,14.446,14.446,0,0,1-.628-5.193,13.6,13.6,0,0,1,.655-3.759,8.751,8.751,0,0,1,6.186-5.87,13.884,13.884,0,0,1,4.637-.466,12.614,12.614,0,0,1,4.008.777,6.94,6.94,0,0,1,4.392,4.57,9.721,9.721,0,0,1,.35,3.292,14.406,14.406,0,0,1-.514,3.2c-.081.3-.084.3-.384.3l-11.453.277c-.516.013-1.032.022-1.547.039a1.693,1.693,0,0,0-.494.04Zm4.463-3.651V427.7c1.289,0,2.578,0,3.867,0,.255,0,.58.11.748-.05.189-.18.057-.513.045-.776a3.413,3.413,0,0,0-2.863-3.406,7.113,7.113,0,0,0-3.295.066,3.715,3.715,0,0,0-2.366,1.8,5.94,5.94,0,0,0-.728,2.105c-.046.291-.046.3.263.3Z" transform="translate(-633.709 -366.486)"/><path class="a" d="M887.339,423.756c.248-.193.43-.336.613-.477a19.712,19.712,0,0,1,3.556-2.252,10.345,10.345,0,0,1,5.443-1.035,4.413,4.413,0,0,1,4.027,2.954,11.574,11.574,0,0,1,.68,3.359,67.857,67.857,0,0,1,.111,7.306c-.065,2.255-.2,4.506-.447,6.749,0,.025,0,.052-.006.077-.045.352-.046.359-.394.35q-2.611-.065-5.223-.138c-.339-.009-.342-.013-.307-.355q.183-1.788.287-3.583a65.22,65.22,0,0,0,.061-7.654,6.787,6.787,0,0,0-.282-1.634,3.364,3.364,0,0,0-.308-.707,2,2,0,0,0-1.686-1,5.18,5.18,0,0,0-2.479.492,11.367,11.367,0,0,0-2.4,1.477c-.326.253-.636.527-.964.777a.545.545,0,0,0-.222.5c.015.813.012,1.625.018,2.437q.028,4.41.056,8.821c0,.09-.007.181,0,.271.018.186-.069.247-.246.254-.49.019-.979.051-1.468.077l-3.825.2c-.271.015-.277.014-.285-.266,0-.18,0-.361,0-.542a.275.275,0,0,1,.139-.293c.141-.071.141-.174.055-.283a1.565,1.565,0,0,1-.235-1.031c-.027-2.024-.064-4.049-.1-6.073-.007-.459,0-.459.468-.483.329-.017.333-.015.415-.328a14.614,14.614,0,0,0,.5-5.168,7.758,7.758,0,0,0-1.4-3.882.794.794,0,0,1-.166-.5c0-.387-.006-.774-.03-1.16-.013-.2.063-.275.258-.285.644-.031,1.288-.073,1.931-.11,1.12-.065,2.24-.127,3.359-.2.32-.02.32-.027.335.3q.06,1.333.119,2.665C887.315,423.482,887.326,423.581,887.339,423.756Z" transform="translate(-771.108 -367.444)"/><path class="a" d="M573.363,386.62l.454-.367a15.886,15.886,0,0,1,3.381-2.161,9.247,9.247,0,0,1,5.01-.834,3.926,3.926,0,0,1,3.4,2.6,9.615,9.615,0,0,1,.606,2.707,57.764,57.764,0,0,1,.142,6.376c-.035,1.869-.117,3.736-.3,5.6-.042.436-.1.871-.135,1.307-.014.171-.086.217-.243.213-.464-.014-.929-.018-1.393-.027l-3.4-.064c-.324-.007-.328-.01-.293-.326a70.926,70.926,0,0,0,.368-8.958,11.451,11.451,0,0,0-.238-2.458,3.722,3.722,0,0,0-.257-.769,1.726,1.726,0,0,0-1.4-1.022,4.434,4.434,0,0,0-2.162.295,9.131,9.131,0,0,0-2.385,1.417c-.316.245-.611.517-.927.761a.551.551,0,0,0-.216.5c.014,1.289.015,2.579.024,3.868q.021,3.133.047,6.266c0,.051,0,.1,0,.155-.005.286-.005.293-.3.308q-2.318.123-4.637.236c-.1.005-.267.089-.312-.047a.477.477,0,0,1,.07-.508c.186-.2.368-.4.544-.6.2-.236.2-.24.026-.486a2.75,2.75,0,0,0-.229-.311,2.083,2.083,0,0,1-.517-1.513c-.047-3.7-.127-7.4-.208-11.1a.681.681,0,0,1,.314-.677c.355-.232.681-.509,1.019-.768.239-.183.239-.185.078-.455a7.212,7.212,0,0,0-1.266-1.6.637.637,0,0,1-.22-.5c-.029-2.076-.068-4.151-.1-6.227-.005-.32,0-.326.306-.343q2.511-.136,5.023-.266c.307-.016.313-.012.314.318q.011,3.385.018,6.769C573.364,384.785,573.363,385.648,573.363,386.62Z" transform="translate(-496.714 -329.709)"/><path class="a" d="M354.019,5.023a5.808,5.808,0,0,1-1.391,4.019,7.686,7.686,0,0,1-5.189,2.679,7.33,7.33,0,0,1-1.384-.024c-.115-.009-.231-.016-.347-.015a1.031,1.031,0,0,0-.811.364,3.734,3.734,0,0,1-2.927,1.335,4.378,4.378,0,0,1-1.4-.237A.475.475,0,0,0,340,13.3a9.886,9.886,0,0,1-2.383,1.763,5.789,5.789,0,0,1-5.248.155A4.523,4.523,0,0,1,329.6,11.79a4.731,4.731,0,0,1,.834-3.665,6.409,6.409,0,0,1,3.317-2.473,3.512,3.512,0,0,0,1.71-1.2,6,6,0,0,1,2.157-1.837A5.019,5.019,0,0,1,340.7,2.2c.241.04.483.079.719.14a1.926,1.926,0,0,0,1.8-.456A8.654,8.654,0,0,1,346.095.265a6.837,6.837,0,0,1,2.1-.267,5.377,5.377,0,0,1,1.893.32,6.4,6.4,0,0,1,2.835,1.942A4.549,4.549,0,0,1,354.019,5.023Z" transform="translate(-288.309 0.003)"/><path class="a" d="M290.963,402.4a7.453,7.453,0,0,1,.14,1.063c.132,1.165.255,2.33.395,3.494.023.19-.054.252-.208.3a18.041,18.041,0,0,1-5.082.917,8.681,8.681,0,0,1-2.336-.273,5.237,5.237,0,0,1-3.642-3.189,10.481,10.481,0,0,1-.72-3.27c-.042-.515-.048-1.03-.056-1.545-.034-2.256-.06-4.512-.1-6.768-.009-.58.032-.5-.5-.5-.813.011-1.625.035-2.437.054-.3.007-.3.006-.3-.288q.044-2.107.093-4.214c.008-.325.013-.327.356-.332.722-.009,1.445-.008,2.167-.028.6-.017.523.058.518-.517-.01-1.121-.032-2.243-.05-3.364,0-.193.006-.388-.013-.58-.021-.208.08-.267.264-.289.614-.073,1.227-.157,1.84-.237l3.489-.456.115-.014c.438-.042.429-.1.429.37q0,2.282,0,4.564c0,.09,0,.181,0,.271-.008.148.056.206.2.2.425-.007.851,0,1.277-.008q2.263-.03,4.526-.062c.09,0,.181,0,.271,0,.142-.009.222.041.211.2-.006.077,0,.155,0,.232q-.054,1.933-.108,3.865c-.009.313-.008.314-.324.321l-5.648.128c-.077,0-.155,0-.232.005a.139.139,0,0,0-.14.151c0,.1,0,.206,0,.309q.021,3.442.043,6.884a5.76,5.76,0,0,0,.076.846,2.372,2.372,0,0,0,2.273,2.156,6.41,6.41,0,0,0,2.709-.283A1.312,1.312,0,0,1,290.963,402.4Z" transform="translate(-241.597 -334.537)"/><path class="a" d="M432.135,433.2c.289.4.585.8.879,1.208.53.73,1.063,1.46,1.589,2.193.231.322.255.229-.033.572a9.108,9.108,0,0,1-4.282,2.8,11.981,11.981,0,0,1-4.2.506,10.346,10.346,0,0,1-3.8-.813,9.393,9.393,0,0,1-5.32-5.864,12.26,12.26,0,0,1,.553-9.732,9.606,9.606,0,0,1,7.619-5.362,11.18,11.18,0,0,1,6,.706,7.949,7.949,0,0,1,3.86,3.154c.048.077.09.157.14.232a.165.165,0,0,1-.046.263c-.064.043-.124.093-.185.14l-3.108,2.369c-.268.2-.233.247-.467-.063a5.136,5.136,0,0,0-9.141,2.587,8.058,8.058,0,0,0,.2,3.6,4.828,4.828,0,0,0,4.814,3.576,6.292,6.292,0,0,0,4.758-1.96A.284.284,0,0,1,432.135,433.2Z" transform="translate(-364.178 -366.233)"/><path class="a" d="M586.861,136.557c-.162-.124-.307-.253-.469-.356a.417.417,0,0,1-.222-.408c.014-.438,0-.877.005-1.315,0-.274.007-.281.277-.282.864,0,1.729,0,2.593,0h3.445c.461,0,.422-.026.422.413v22.477c0,.472.052.427-.443.427q-2.922,0-5.845,0l-.31,0a.127.127,0,0,1-.139-.144c0-.09,0-.181,0-.271,0-.748.01-1.5-.006-2.244a.749.749,0,0,1,.206-.552,5.889,5.889,0,0,0,1.438-3.271,5.812,5.812,0,0,0-.38-3.135,4.144,4.144,0,0,0-1.077-1.445.469.469,0,0,1-.183-.393q0-4.178,0-8.356a.639.639,0,0,1,.153-.422C586.508,137.047,586.677,136.806,586.861,136.557Z" transform="translate(-512.872 -117.415)"/><path class="a" d="M223.479,436.03q.03,4.775.059,9.551c0,.454.09.448-.455.476q-2.529.129-5.058.269c-.313.017-.315.022-.323-.308-.044-1.778-.083-3.556-.132-5.334q-.132-4.811-.273-9.622c-.039-1.4-.071-2.808-.106-4.213,0-.077,0-.155,0-.232-.013-.163.057-.227.222-.236.785-.043,1.569-.095,2.354-.143l3.279-.2c.064,0,.129-.006.193-.011.132-.011.189.053.186.181,0,.077,0,.155,0,.232l.06,9.589Z" transform="translate(-190.03 -372.755)"/><path class="a" d="M402.465,99.634c-.535-.107-1.07-.231-1.618-.3a9.122,9.122,0,0,0-7.316,2.212,18.039,18.039,0,0,0-2.945,3.31c-.112.155-.222.312-.33.465-.141-.066-.172-.187-.227-.283q-1.145-1.994-2.281-3.994c-.165-.29-.164-.292.106-.476,1.011-.691,2.028-1.375,3.031-2.077a1.52,1.52,0,0,1,.975-.29c.477.019.955.018,1.432,0a3.878,3.878,0,0,0,2.206-.721,1.3,1.3,0,0,0,.236-.2,2.435,2.435,0,0,1,1.763-.834c1.395-.118,2.788-.255,4.181-.39.182-.018.223.085.247.221.066.367.129.735.195,1.1l.365,2.051A.218.218,0,0,1,402.465,99.634Z" transform="translate(-339.165 -84.047)"/><path class="a" d="M589.571,67.168h-3.018c-.328,0-.334,0-.334-.3q0-2.688,0-5.377c0-.288.006-.292.305-.292q3.057,0,6.115,0c.313,0,.317,0,.317.322q0,2.669,0,5.338c0,.309-.005.313-.327.313Q591.1,67.17,589.571,67.168Z" transform="translate(-512.916 -53.541)"/><path class="a" d="M221.432,354.585c.927-.042,1.854-.078,2.78-.131.2-.012.237.067.236.24-.005.876,0,1.753,0,2.629,0,.593,0,1.186,0,1.778,0,.316,0,.323-.313.338q-1.7.08-3.4.152l-2.047.089c-.259.011-.264.008-.27-.238q-.055-2.2-.1-4.406c-.006-.281,0-.29.3-.306.863-.045,1.726-.082,2.588-.123.077,0,.154-.011.231-.017Z" transform="translate(-191.013 -310.132)"/><path class="a" d="M995.848,34.883h-.905v-.64h2.59v.64h-.92v2.731h-.765Z" transform="translate(-870.535 -29.961)"/><path class="a" d="M1021.068,36.323c-.015-.405-.03-.9-.03-1.385h-.015c-.105.43-.245.91-.375,1.305l-.41,1.315h-.6l-.36-1.305c-.11-.4-.225-.875-.3-1.315h-.01c-.02.455-.035.975-.06,1.4l-.06,1.28h-.705l.215-3.37h1.015l.33,1.125c.105.39.21.81.285,1.205H1020c.1-.39.21-.835.32-1.21l.36-1.12h1l.185,3.37h-.745Z" transform="translate(-890.834 -29.961)"/></g></g></svg>