<svg xmlns="http://www.w3.org/2000/svg" width="30.002" height="30.002" viewBox="0 0 30.002 30.002">
  <g id="Group_18378" data-name="Group 18378" transform="translate(0.001)">
    <path id="Subtraction_31" data-name="Subtraction 31" d="M10604-20692h-20a5.01,5.01,0,0,1-5-5v-20a5.006,5.006,0,0,1,5-5h20a5.006,5.006,0,0,1,5,5v20A5.01,5.01,0,0,1,10604-20692Zm-19.241-9.5h0a10.634,10.634,0,0,0,5.788,1.705h.026a10.332,10.332,0,0,0,8.008-3.514,11.165,11.165,0,0,0,2.777-7.271c0-.178,0-.346-.01-.494a7.435,7.435,0,0,0,1.9-1.967,7.868,7.868,0,0,1-2.185.6,3.745,3.745,0,0,0,1.669-2.1,7.51,7.51,0,0,1-2.4.92,3.811,3.811,0,0,0-2.768-1.2,3.775,3.775,0,0,0-1.393.266,3.769,3.769,0,0,0-2.4,3.525,3.818,3.818,0,0,0,.088.863,10.716,10.716,0,0,1-7.811-3.963,3.8,3.8,0,0,0,1.164,5.064,3.725,3.725,0,0,1-1.716-.467v.041a3.828,3.828,0,0,0,.857,2.4,3.82,3.82,0,0,0,2.18,1.324,3.878,3.878,0,0,1-.993.127,3.59,3.59,0,0,1-.718-.068,3.837,3.837,0,0,0,3.542,2.643,7.663,7.663,0,0,1-4.7,1.617A6.567,6.567,0,0,1,10584.757-20701.494Z" transform="translate(-10579 20722)" fill="#fff"/>
  </g>
</svg>
