<svg width="471" height="208" viewBox="0 0 471 208" fill="none" xmlns="http://www.w3.org/2000/svg">
<rect width="470.89" height="207.82" fill="#9FE870"/>
<g clip-path="url(#clip0_809_4576)">
<path d="M266.498 125.833H265.982C262.612 125.833 259.24 125.833 255.867 125.833C255.709 125.843 255.552 125.813 255.41 125.745C255.267 125.677 255.144 125.575 255.052 125.447C251.101 120.507 247.14 115.573 243.169 110.645C243.054 110.455 242.896 110.295 242.707 110.179V110.787C242.707 112.951 242.707 115.115 242.736 117.279C242.742 117.438 242.716 117.597 242.66 117.746C242.604 117.895 242.518 118.031 242.408 118.146C239.609 121.328 236.82 124.514 234.04 127.705C233.949 127.811 233.876 127.942 233.724 127.993C233.578 127.866 233.647 127.691 233.643 127.545C233.546 119.756 233.451 111.968 233.356 104.179C233.298 99.6907 233.238 95.1977 233.178 90.6998C233.178 90.259 233.178 90.2553 232.734 90.1205L229.729 89.1989C229.853 89.1232 229.999 89.0912 230.143 89.1078H242.259C242.779 89.1078 242.718 89.1078 242.718 89.6469V105.534C242.918 105.57 242.961 105.425 243.038 105.341C247.254 100.527 251.467 95.7101 255.678 90.8892C255.786 90.7502 255.926 90.6395 256.087 90.5665C256.247 90.4936 256.422 90.4606 256.598 90.4703C259.716 90.4885 262.838 90.4703 265.956 90.4703H266.473C266.509 90.6925 266.371 90.7726 266.284 90.8746C262.863 94.8503 259.44 98.8248 256.012 102.798L252.658 106.689C252.294 107.108 252.37 107.035 252.658 107.396C256.054 111.862 259.443 116.327 262.827 120.791C263.974 122.299 265.119 123.806 266.262 125.312C266.395 125.455 266.478 125.638 266.498 125.833Z" fill="#173303"/>
<path d="M378.805 112.109C378.991 113.744 379.684 115.28 380.787 116.5C381.89 117.72 383.348 118.563 384.954 118.911C388.818 119.745 392.391 118.991 395.677 116.816L396.157 116.492C396.335 116.55 396.364 116.707 396.433 116.827C397.491 118.731 398.549 120.637 399.606 122.546C399.835 122.958 399.944 122.911 399.439 123.242C396.861 124.982 393.957 126.178 390.903 126.758C387.563 127.405 384.118 127.262 380.843 126.342C375.673 124.823 372.329 121.413 370.681 116.31C370.163 114.621 369.859 112.875 369.775 111.111C369.593 108.483 369.854 105.842 370.546 103.3C372.049 97.8651 375.658 94.5901 381.039 93.1802C383.301 92.6369 385.634 92.4538 387.952 92.6374C390.08 92.7148 392.179 93.1534 394.159 93.9344C398.322 95.6648 400.679 98.7722 401.196 103.26C401.463 105.937 401.216 108.64 400.468 111.224C400.463 111.276 400.447 111.326 400.422 111.372C400.397 111.417 400.363 111.457 400.321 111.489C400.28 111.521 400.233 111.545 400.183 111.558C400.132 111.571 400.08 111.574 400.028 111.566C396.317 111.651 392.605 111.741 388.891 111.836L379.216 112.087C379.093 112.087 378.962 112.102 378.805 112.109ZM385.867 106.437V106.404H386.675L392.464 106.375C392.606 106.375 392.751 106.375 392.897 106.375C393.042 106.375 393.122 106.306 393.119 106.149C393.119 105.785 393.119 105.421 393.086 105.056C392.879 102.357 391.591 100.444 388.622 99.7704C387.101 99.4432 385.529 99.4345 384.005 99.7449C383.013 99.9081 382.078 100.317 381.284 100.934C380.491 101.551 379.864 102.357 379.46 103.279C379.054 104.144 378.778 105.065 378.642 106.011C378.58 106.422 378.576 106.43 379.005 106.43L385.867 106.437Z" fill="#173303"/>
<path d="M94.6491 120.747C94.5977 120.759 94.5497 120.782 94.5082 120.815C94.4667 120.848 94.4329 120.889 94.409 120.936C92.2769 123.72 89.4571 125.454 86.1098 126.401C84.0048 126.989 81.8204 127.241 79.637 127.148C77.9908 127.11 76.3694 126.738 74.8707 126.055C72.3566 124.853 70.8285 122.823 70.0062 120.226C69.5018 118.55 69.2564 116.807 69.2785 115.057C69.2639 108.514 69.2639 101.97 69.2785 95.4246C69.2785 95.3335 69.2785 95.2424 69.2785 95.1513C69.2785 94.9728 69.3512 94.889 69.5332 94.8927H77.8105C78.3381 94.8927 78.3418 94.8927 78.3418 95.4246C78.3418 101.21 78.3418 106.997 78.3418 112.787C78.3131 113.89 78.4268 114.992 78.6801 116.066C78.7456 116.31 78.8147 116.554 78.9021 116.794C79.677 118.98 81.2489 120.142 83.5265 120.248C87.5942 120.437 90.6905 118.707 92.8881 115.308C93.1844 114.859 93.3367 114.33 93.3247 113.793C93.3247 107.716 93.3247 101.643 93.3247 95.5776C93.3247 94.849 93.2337 94.9218 94.0014 94.9182H101.737C101.86 94.9182 101.988 94.9182 102.101 94.9182C102.315 94.9182 102.384 95.0202 102.373 95.2169C102.363 95.4136 102.373 95.5083 102.373 95.6504V116.962C102.362 117.358 102.389 117.755 102.454 118.146C102.511 118.507 102.684 118.84 102.946 119.095C103.209 119.35 103.546 119.513 103.909 119.559C104.015 119.584 104.124 119.6 104.233 119.607C104.484 119.607 104.556 119.745 104.553 119.993C104.553 122.067 104.553 124.14 104.553 126.211C104.553 126.419 104.509 126.554 104.276 126.576C102.413 126.856 100.554 127.071 98.6805 126.696C97.8502 126.547 97.0656 126.208 96.3883 125.705C95.9681 125.406 95.6156 125.022 95.3535 124.578C95.0915 124.133 94.9259 123.639 94.8674 123.126C94.7728 122.354 94.7219 121.563 94.6491 120.747Z" fill="#173303"/>
<path d="M149.258 110.71C149.258 108.186 149.258 105.665 149.258 103.14C149.251 102.799 149.349 102.465 149.539 102.182C151.458 99.2656 154.24 97.0236 157.496 95.7703C159.678 94.9085 161.991 94.4232 164.336 94.335C166.86 94.1727 169.393 94.4413 171.827 95.1291C175.83 96.3204 179.173 98.5171 181.516 102.051C183.311 104.76 184.214 107.964 184.1 111.213C183.983 116.747 180.687 122.634 174.305 125.421C172.132 126.355 169.817 126.913 167.458 127.071C164.829 127.297 162.181 127.064 159.631 126.382C155.48 125.227 152.053 123.013 149.622 119.38C149.376 119.029 149.249 118.608 149.258 118.178C149.269 115.686 149.258 113.198 149.258 110.71ZM166.395 120.233C169.524 120.105 172.428 118.386 174.054 114.768C174.87 112.883 175.087 110.792 174.676 108.779C173.879 104.408 170.536 101.599 166.537 101.26C163.488 101.005 160.861 101.927 158.795 104.197C156.633 106.572 156 109.442 156.499 112.55C157.241 117.144 160.941 120.24 166.395 120.24V120.233Z" fill="#173303"/>
<path d="M409.754 98.7471L410.73 97.9858C412.742 96.3699 414.964 95.033 417.333 94.0112C419.707 93.0233 422.287 92.6318 424.847 92.871C427.801 93.1406 429.893 94.6233 431.006 97.4138C431.574 98.8971 431.919 100.456 432.032 102.04C432.295 105.069 432.394 108.109 432.331 111.148C432.273 113.698 432.207 116.248 432.054 118.765C431.938 120.656 431.77 122.536 431.589 124.419C431.583 124.527 431.572 124.634 431.556 124.74C431.421 125.399 431.61 125.304 430.912 125.29C428.172 125.228 425.432 125.152 422.693 125.075C422.282 125.075 422.267 125.075 422.311 124.645C422.445 123.319 422.54 121.989 422.645 120.663C422.791 118.813 422.907 116.958 422.944 115.104C422.991 112.634 423.027 110.164 422.907 107.698C422.884 106.707 422.752 105.721 422.514 104.758C422.426 104.392 422.304 104.035 422.151 103.691C421.924 103.156 421.554 102.694 421.081 102.357C420.609 102.02 420.052 101.821 419.473 101.782C418.409 101.689 417.338 101.832 416.336 102.201C415.266 102.579 414.247 103.089 413.302 103.72C412.24 104.435 411.218 105.208 410.242 106.037C410.116 106.133 410.017 106.26 409.953 106.405C409.89 106.55 409.864 106.709 409.878 106.867C409.922 111.698 409.958 116.529 409.987 121.359C409.987 122.459 409.987 123.56 409.987 124.66C409.987 125.232 410.056 125.184 409.478 125.217C408.023 125.301 406.567 125.374 405.112 125.45L401.332 125.643C400.92 125.665 400.917 125.643 400.91 125.239C400.91 124.988 400.91 124.736 400.91 124.485C400.882 124.37 400.895 124.25 400.946 124.144C400.997 124.038 401.083 123.952 401.19 123.902C401.368 123.818 401.357 123.687 401.252 123.538C400.859 123.031 400.888 122.445 400.866 121.84C400.819 118.685 400.753 115.534 400.698 112.368C400.698 111.64 400.698 111.64 401.393 111.64C401.994 111.614 401.932 111.72 402.099 111.071C402.762 108.689 403.041 106.216 402.925 103.745C402.772 101.268 402.128 98.9548 400.633 96.9293C400.502 96.7579 400.433 96.5474 400.437 96.3318C400.437 95.7198 400.411 95.1041 400.396 94.5103C400.396 94.0404 400.396 94.0331 400.848 94.0076L404.788 93.7781L409.049 93.5122C409.102 93.5159 409.155 93.5159 409.209 93.5122C409.467 93.4721 409.573 93.5741 409.573 93.8364C409.598 94.7544 409.642 95.6579 409.685 96.5905C409.674 97.2644 409.714 97.9457 409.754 98.7471Z" fill="#173303"/>
<path d="M348.048 99.6395L349.07 98.8235C350.722 97.4782 352.546 96.3607 354.495 95.5011C356.708 94.5496 359.122 94.1628 361.521 94.3754C364.322 94.6231 366.251 96.0548 367.222 98.7215C367.685 100.031 367.973 101.395 368.081 102.78C368.326 106.142 368.395 109.516 368.288 112.885C368.252 115.215 368.144 117.537 367.964 119.854C367.873 121.02 367.746 122.186 367.63 123.352C367.59 123.76 367.582 123.767 367.178 123.76C364.653 123.709 362.129 123.655 359.607 123.599C359.268 123.599 359.265 123.599 359.298 123.235C359.483 121.352 359.661 119.468 359.745 117.578C359.91 114.391 359.939 111.201 359.832 108.007C359.823 106.889 359.655 105.778 359.334 104.707C358.839 103.191 357.937 102.521 356.336 102.47C355.104 102.457 353.888 102.741 352.788 103.297C351.097 104.102 349.659 105.275 348.248 106.488C348.17 106.562 348.112 106.654 348.079 106.756C348.045 106.857 348.037 106.966 348.055 107.071C348.055 109.791 348.068 112.514 348.095 115.239C348.095 117.833 348.135 120.43 348.157 123.024C348.15 123.133 348.15 123.243 348.157 123.352C348.186 123.614 348.059 123.687 347.793 123.716C346.425 123.778 345.057 123.854 343.689 123.927C342.535 123.986 341.382 124.037 340.232 124.106C339.999 124.106 339.905 124.066 339.905 123.822C339.887 123.689 339.9 123.554 339.944 123.427C339.987 123.301 340.06 123.186 340.156 123.093C340.427 122.828 340.681 122.546 340.916 122.248C341.218 121.884 341.215 121.884 340.956 121.519C340.698 121.155 340.374 120.696 340.065 120.295C339.903 120.087 339.815 119.831 339.814 119.567C339.753 115.819 339.683 112.071 339.603 108.321C339.559 105.938 339.523 103.559 339.468 101.181C339.447 101.025 339.469 100.866 339.533 100.722C339.598 100.578 339.701 100.456 339.832 100.368C340.44 99.9455 341.007 99.4683 341.608 99.0384C341.855 98.8599 341.851 98.7215 341.706 98.4737C341.15 97.5228 340.467 96.6526 339.676 95.8872C339.57 95.7972 339.486 95.6856 339.427 95.5598C339.369 95.4341 339.338 95.2973 339.337 95.1586C339.286 91.8799 339.221 88.634 339.159 85.3699C339.159 84.8781 339.119 84.8963 339.607 84.8708L347.382 84.4482H347.487C347.935 84.4482 347.942 84.4482 347.946 84.8635C347.946 85.9273 347.946 86.9911 347.964 88.0548C347.979 91.7488 347.994 95.444 348.011 99.1404L348.048 99.6395Z" fill="#173303"/>
<path d="M192.323 101.108C192.418 101.108 192.447 101.049 192.487 100.995C194.117 98.6633 196.358 97.1514 198.985 96.1751C202.114 94.9816 205.498 94.6152 208.809 95.1114C212.553 95.6761 214.994 97.8327 216.17 101.425C216.581 102.806 216.825 104.233 216.897 105.672C216.963 106.518 216.977 107.363 216.977 108.223C216.977 114.318 216.977 120.412 216.977 126.503C216.977 127.257 217.046 127.155 216.308 127.155H208.161C207.998 127.155 207.939 127.075 207.943 126.922C207.947 126.769 207.943 126.634 207.943 126.488C207.943 120.81 207.943 115.132 207.943 109.454C207.971 108.244 207.824 107.037 207.507 105.869C206.913 103.873 205.651 102.569 203.559 102.164C202.454 101.967 201.319 102.027 200.241 102.339C197.782 103.008 195.636 104.518 194.172 106.605C193.967 106.901 193.781 107.21 193.615 107.53C193.288 108.132 193.123 108.809 193.135 109.494C193.157 115.119 193.135 120.743 193.135 126.365C193.135 126.492 193.135 126.62 193.135 126.729C193.135 127.133 193.135 127.141 192.713 127.141H184.548C184.093 127.141 184.09 127.141 184.09 126.652C184.09 124.219 184.09 121.785 184.09 119.366C184.088 119.079 184.168 118.798 184.319 118.554C185.71 116.156 186.427 113.426 186.396 110.652C186.4 107.952 185.693 105.298 184.344 102.958C184.171 102.665 184.081 102.33 184.086 101.989C184.086 100.026 184.086 98.0622 184.086 96.095C184.086 95.9711 184.086 95.8436 184.086 95.7307C184.086 95.6178 184.159 95.4648 184.344 95.4721C184.45 95.4721 184.559 95.4721 184.668 95.4721H191.647C191.736 95.4775 191.826 95.4775 191.916 95.4721C192.171 95.4429 192.28 95.5449 192.262 95.8072C192.262 96.656 192.262 97.5012 192.262 98.3573C192.262 99.2134 192.262 100.015 192.262 100.845C192.273 100.911 192.232 101.024 192.323 101.108Z" fill="#173303"/>
<path d="M62.8394 102.587C62.3701 103.148 61.988 103.599 61.606 104.044C60.2161 105.701 58.8189 107.352 57.4363 109.017C57.348 109.138 57.2302 109.236 57.094 109.299C56.9578 109.363 56.8077 109.391 56.6578 109.381C54.0417 109.381 51.4293 109.381 48.8133 109.381C48.5938 109.353 48.3708 109.377 48.162 109.45C48.3694 109.523 48.5259 109.574 48.6569 109.618C49.4828 109.873 50.3087 110.139 51.1383 110.372C51.1948 110.379 51.2492 110.398 51.2983 110.427C51.3474 110.456 51.3902 110.495 51.4242 110.541C51.4581 110.586 51.4825 110.639 51.4959 110.694C51.5093 110.75 51.5114 110.807 51.5021 110.864C51.5021 112.485 51.5021 114.106 51.5021 115.727C51.5013 115.864 51.4729 115.999 51.4185 116.124C51.3641 116.249 51.2848 116.362 51.1856 116.456L45.2659 123.49L42.5844 126.674C42.4866 126.833 42.3451 126.959 42.1769 127.038V126.383C42.1769 113.042 42.1769 99.7027 42.1769 86.3645C42.1769 85.4647 42.3151 85.676 41.4492 85.3991C40.2995 85.0348 39.1461 84.6924 38 84.2734H78.1717C78.2299 84.4337 78.0698 84.5102 77.9861 84.6122C76.1341 86.8199 74.2676 89.0202 72.4266 91.2388C72.3328 91.3561 72.2109 91.4477 72.0722 91.5051C71.9335 91.5624 71.7825 91.5836 71.6334 91.5667H54.4347H48.7006H48.1075C48.3128 91.7114 48.5477 91.8085 48.7951 91.8508C49.5519 92.0913 50.3123 92.3135 51.0691 92.5466C51.5967 92.7106 51.4948 92.6924 51.4985 93.1405C51.4985 96.0767 51.4985 99.0142 51.4985 101.953C51.4985 102.703 51.4075 102.609 52.1643 102.609H62.8394V102.587Z" fill="#173303"/>
<path d="M136.55 98.6489L132.944 103.49L132.268 103.068C130.351 101.807 128.228 100.895 125.995 100.372C124.239 99.9391 122.412 99.8796 120.632 100.197C119.997 100.325 119.384 100.546 118.813 100.853C117.478 101.582 117.088 102.951 117.358 104.27C117.431 104.57 117.566 104.852 117.754 105.097C117.942 105.342 118.179 105.546 118.449 105.694C118.987 106.023 119.562 106.286 120.163 106.478C121.658 106.95 123.176 107.346 124.711 107.665C127.032 108.18 129.32 108.835 131.562 109.625C132.769 110.053 133.918 110.631 134.982 111.345C137.303 112.929 138.129 115.177 137.915 117.902C137.682 120.816 136.259 123.028 133.84 124.623C132.081 125.767 130.094 126.513 128.018 126.809C122.3 127.719 116.442 126.897 111.194 124.449C110.867 124.299 110.557 124.11 110.234 123.957C110.134 123.918 110.049 123.846 109.995 123.754C109.94 123.661 109.918 123.553 109.932 123.447C109.932 122.354 109.932 121.286 109.932 120.204C109.932 119.724 109.932 119.724 109.484 119.571C109.459 119.414 109.586 119.319 109.659 119.206C110.023 118.616 110.445 118.041 110.819 117.447C110.961 117.221 111.078 117.214 111.289 117.352C112.246 117.961 113.237 118.516 114.258 119.013C116.314 120.067 118.525 120.789 120.807 121.152C122.494 121.437 124.219 121.421 125.901 121.104C126.647 120.963 127.356 120.668 127.982 120.237C128.442 119.928 128.801 119.49 129.013 118.977C129.224 118.464 129.28 117.9 129.171 117.356C129.114 117.016 128.983 116.693 128.787 116.409C128.592 116.125 128.337 115.887 128.04 115.713C127.655 115.476 127.245 115.284 126.817 115.141C124.881 114.46 122.908 113.886 120.909 113.421C118.575 112.879 116.279 112.19 114.032 111.359C113.003 110.969 112.034 110.434 111.154 109.771C110.445 109.239 109.867 108.55 109.467 107.759C109.066 106.967 108.853 106.094 108.844 105.206C108.698 101.618 110.194 98.8675 113.13 96.8638C115.029 95.5995 117.197 94.795 119.461 94.5141C123.258 93.9716 127.129 94.303 130.78 95.4832C132.721 96.1124 134.541 97.0657 136.164 98.3028C136.266 98.3793 136.365 98.4595 136.459 98.5396C136.492 98.5433 136.503 98.5797 136.55 98.6489Z" fill="#173303"/>
<path d="M296.63 85.4355C296.691 85.6259 296.709 85.8274 296.684 86.0257C296.684 88.4544 296.684 90.883 296.684 93.3117C296.684 93.4355 296.684 93.563 296.684 93.676C296.684 93.7889 296.746 93.9091 296.906 93.9055H297.27C300.243 93.8727 303.219 93.8327 306.192 93.8035C306.821 93.8035 306.814 93.6869 306.792 94.4046C306.736 96.4544 306.68 98.5078 306.625 100.565C306.625 100.984 306.625 100.987 306.217 100.998L297.35 101.213H297.136C296.75 101.213 296.743 101.213 296.743 101.603C296.743 102.809 296.743 104.018 296.743 105.224C296.743 107.585 296.754 109.946 296.775 112.306C296.769 113.117 296.869 113.926 297.074 114.711C297.204 115.21 297.448 115.673 297.787 116.061C298.126 116.45 298.551 116.755 299.028 116.951C299.927 117.335 300.906 117.493 301.88 117.41C302.959 117.34 304.025 117.134 305.053 116.798C305.489 116.663 305.489 116.667 305.54 117.115C305.783 119.242 306.025 121.37 306.268 123.497C306.268 123.625 306.268 123.752 306.304 123.862C306.352 124.102 306.246 124.226 306.013 124.284C303.001 125.206 299.955 125.891 296.772 125.683C295.522 125.622 294.291 125.347 293.133 124.871C292.1 124.432 291.168 123.785 290.395 122.971C289.622 122.156 289.025 121.191 288.64 120.135C288.133 118.823 287.808 117.448 287.676 116.048C287.497 114.434 287.494 112.813 287.472 111.191C287.426 108.11 287.383 105.028 287.345 101.946C287.341 101.892 287.341 101.839 287.345 101.785C287.37 101.534 287.279 101.421 287.01 101.421C286.646 101.443 286.253 101.421 285.875 101.421L282.742 101.508C282.287 101.508 282.291 101.508 282.302 101.075C282.358 98.9644 282.411 96.8563 282.462 94.7507C282.462 94.6596 282.462 94.5722 282.462 94.4811C282.462 93.9274 282.429 93.9565 283 93.9529L286.679 93.9201C287.221 93.9201 287.221 93.9602 287.21 93.3919C287.178 91.3736 287.144 89.3554 287.108 87.3372C287.108 86.5576 287.108 86.5722 287.836 86.4738C290.212 86.1678 292.588 85.8472 294.96 85.5376C295.538 85.5631 296.077 85.5011 296.63 85.4355Z" fill="#173303"/>
<path d="M333.508 103.713C333.137 103.208 332.716 102.743 332.249 102.325C330.855 101.16 329.116 100.487 327.301 100.412C322.953 100.15 319.929 103.02 319.129 106.605C318.546 108.946 318.672 111.408 319.493 113.676C320.026 115.137 320.998 116.396 322.275 117.28C323.552 118.165 325.071 118.632 326.624 118.616C329.062 118.694 331.446 117.894 333.344 116.361C333.709 116.052 334.053 115.718 334.374 115.363C334.578 115.443 334.636 115.603 334.738 115.727C335.946 117.388 337.146 119.053 338.354 120.715C338.718 121.203 338.649 121.119 338.314 121.523C336.559 123.632 334.215 125.168 331.583 125.935C328.037 127.066 324.23 127.093 320.668 126.011C315.902 124.554 312.725 121.348 310.964 116.722C310.037 114.234 309.62 111.585 309.738 108.933C309.79 106.419 310.362 103.943 311.419 101.662C313.744 96.74 317.634 93.8183 322.957 92.8493C326.469 92.1664 330.106 92.5823 333.373 94.0405C335.719 95.0257 337.696 96.7229 339.027 98.893C339.093 98.9987 339.155 99.108 339.217 99.2172C339.232 99.2397 339.243 99.2651 339.248 99.2918C339.253 99.3185 339.253 99.346 339.247 99.3726C339.241 99.3992 339.23 99.4244 339.214 99.4465C339.198 99.4686 339.178 99.4873 339.155 99.5014L338.94 99.669L333.868 103.534C333.77 103.631 333.644 103.693 333.508 103.713Z" fill="#173303"/>
<path d="M280.668 110.372C280.635 114.583 280.744 119.574 280.744 124.58C280.744 125.265 280.849 125.203 280.111 125.243C277.443 125.384 274.775 125.522 272.106 125.658C271.648 125.683 271.652 125.68 271.641 125.199C271.551 122.122 271.461 119.042 271.371 115.96C271.31 113.745 271.266 111.53 271.208 109.316C271.147 106.935 271.084 104.558 271.018 102.183C270.971 100.328 270.931 98.474 270.88 96.6161C270.88 96.0769 270.829 95.5232 270.818 94.9986C270.818 94.5869 270.818 94.5796 271.222 94.5541L274.784 94.3392L279.853 94.0296H280.016C280.547 94.0004 280.547 94.0004 280.551 94.5287C280.598 99.5378 280.631 104.576 280.668 110.372Z" fill="#173303"/>
<path d="M138.803 98.6155C138.739 98.5398 138.666 98.4724 138.585 98.4152C138.31 98.3064 138.084 98.1008 137.95 97.8372C137.816 97.5735 137.783 97.2699 137.857 96.9835C137.881 96.6196 137.881 96.2545 137.857 95.8906C137.857 95.4061 137.759 95.3696 138.395 95.3733H146.564C147.015 95.3733 147.015 95.3732 147.022 95.8104V96.08C147.022 106.21 147.022 116.341 147.022 126.473C147.022 127.202 147.135 127.129 146.367 127.133H138.526C138.399 127.133 138.272 127.133 138.163 127.133C137.962 127.133 137.875 127.078 137.875 126.86C137.875 125.668 137.875 124.481 137.875 123.289C137.88 123.201 137.904 123.115 137.945 123.037C137.986 122.958 138.042 122.889 138.112 122.834C138.994 121.873 139.62 120.704 139.931 119.435C140.364 117.614 140.389 115.792 139.629 114.047C139.288 113.292 138.792 112.617 138.173 112.065C138.089 112.004 138.02 111.922 137.973 111.829C137.926 111.735 137.903 111.631 137.904 111.526C137.904 107.742 137.904 103.957 137.904 100.171C137.898 99.9543 137.972 99.7428 138.112 99.5773C138.312 99.2858 138.541 98.9616 138.803 98.6155Z" fill="#173303"/>
<path d="M142.389 91.0961H138.281C137.867 91.0961 137.859 91.0961 137.859 90.6808C137.859 88.2521 137.859 85.8235 137.859 83.3948C137.859 82.9868 137.859 82.9795 138.278 82.9795H146.599C147.014 82.9795 147.021 82.9795 147.021 83.3912C147.021 85.8198 147.021 88.2485 147.021 90.6771C147.021 91.0851 147.021 91.0924 146.602 91.0961H142.389Z" fill="#173303"/>
<path d="M275.966 80.2295C277.421 80.1567 278.877 80.0838 280.332 80C280.536 80 280.641 80.0437 280.627 80.2623C280.627 80.2987 280.627 80.3352 280.627 80.3716C280.627 82.7128 280.627 85.054 280.627 87.3952C280.627 87.7595 280.627 87.7596 280.227 87.7851C278.968 87.8543 277.709 87.9126 276.45 87.9709L271.72 88.1821C271.251 88.1821 271.254 88.1821 271.24 87.7268C271.186 85.541 271.13 83.3625 271.072 81.1913C271.072 81.0492 271.072 80.9034 271.072 80.7614C271.072 80.5537 271.141 80.4699 271.349 80.4663C271.636 80.4663 271.92 80.4262 272.211 80.4117L275.988 80.2332L275.966 80.2295Z" fill="#173303"/>
<path d="M426.728 81.7158H425.734V81.0127H428.576V81.7158H427.564V84.714H426.728V81.7158Z" fill="#173303"/>
<path d="M432.127 83.2966C432.127 82.8521 432.094 82.313 432.094 81.7775C431.978 82.2474 431.825 82.7756 431.683 83.2091L431.232 84.6663H430.581L430.184 83.231C430.064 82.7975 429.937 82.2693 429.849 81.7738C429.827 82.2729 429.813 82.8448 429.784 83.3038L429.718 84.71H428.943L429.18 81.0088H430.293L430.657 82.2437C430.773 82.6736 430.886 83.1326 430.97 83.5698C431.075 83.1399 431.203 82.6517 431.334 82.2401L431.73 81.0088H432.822L433.022 84.71H432.207L432.127 83.2966Z" fill="#173303"/>
</g>
<defs>
<clipPath id="clip0_809_4576">
<rect width="395" height="48" fill="white" transform="translate(38 80)"/>
</clipPath>
</defs>
</svg>
