<svg width="471" height="273" viewBox="0 0 471 273" fill="none" xmlns="http://www.w3.org/2000/svg">
<rect width="470.89" height="272.25" fill="#173303"/>
<g clip-path="url(#clip0_809_4658)">
<path d="M175.486 125.387C175.402 125.39 175.321 125.414 175.25 125.458C175.179 125.501 175.121 125.562 175.081 125.635C171.008 130.995 165.543 134.2 159.093 135.844C155.449 136.784 151.684 137.171 147.925 136.991C144.657 136.83 141.489 136.202 138.589 134.626C134.364 132.341 131.831 128.719 130.433 124.233C129.53 121.218 129.085 118.083 129.114 114.935C129.087 102.973 129.087 91.0133 129.114 79.0553C129.114 78.8936 129.114 78.7444 129.114 78.5734C129.114 78.247 129.266 78.1103 129.581 78.1196C129.774 78.1196 129.967 78.1196 130.16 78.1196H144.611C144.803 78.1196 144.996 78.1196 145.189 78.1196C145.501 78.1196 145.662 78.2439 145.65 78.5734C145.65 78.8315 145.65 79.0864 145.65 79.3444V110.798C145.604 112.916 145.849 115.031 146.378 117.084C146.581 117.826 146.85 118.548 147.184 119.241C148.69 122.35 151.229 124.025 154.612 124.305C161.336 124.865 166.776 122.365 170.989 117.155C171.11 117.006 171.219 116.844 171.334 116.692C173.024 114.373 173.024 114.373 173.024 111.491V79.4719C173.024 79.3102 173.024 79.161 173.024 78.99C173.024 78.1569 173.024 78.1476 173.874 78.1476H188.518C189.709 78.1476 189.566 78.0823 189.566 79.2698C189.566 92.2536 189.566 105.24 189.566 118.228C189.535 118.965 189.576 119.703 189.691 120.432C190.024 122.098 190.792 122.891 192.445 123.229C193.531 123.444 193.531 123.444 193.531 124.529C193.531 128.023 193.531 131.518 193.531 135.014C193.531 135.947 193.531 135.947 192.622 136.096C189.884 136.516 187.142 136.768 184.37 136.5C182.734 136.372 181.143 135.901 179.702 135.117C177.396 133.808 176.024 131.884 175.84 129.182C175.725 127.902 175.598 126.658 175.486 125.387Z" fill="white"/>
<path d="M275.264 107.043C275.264 102.461 275.264 97.8756 275.264 93.2903C275.252 92.589 275.461 91.9018 275.861 91.3256C279.377 86.0223 284.182 82.3105 290.026 79.8889C293.925 78.3059 298.064 77.3895 302.267 77.1781C306.755 76.9108 311.198 77.1781 315.548 78.3501C322.394 80.178 328.282 83.6131 332.722 89.2304C337.546 95.3358 339.624 102.337 338.725 110.027C337.393 121.38 331.157 129.239 320.814 133.927C316.88 135.708 312.723 136.557 308.419 136.874C303.448 137.293 298.442 136.813 293.642 135.456C287.418 133.647 282.057 130.461 277.862 125.453C277.086 124.51 276.359 123.528 275.684 122.512C275.38 122.061 275.227 121.525 275.248 120.982C275.27 116.347 275.264 111.684 275.264 107.043ZM322.033 107.083C322.002 106.571 321.974 106.058 321.946 105.548C321.523 98.2393 316.46 90.8407 307.134 89.7837C299.464 88.9164 293.278 92.939 290.396 98.2766C288.367 102.035 287.801 106.048 288.445 110.208C289.69 118.352 296.025 124.023 304.271 124.374C310.383 124.632 315.384 122.397 318.95 117.336C321.106 114.277 321.996 110.798 322.033 107.083Z" fill="white"/>
<path d="M353.841 89.4853C354.072 89.5537 354.115 89.448 354.153 89.3765C356.981 85.3353 360.834 82.5903 365.377 80.7842C371.36 78.3503 377.897 77.5977 384.278 78.6081C390.896 79.6589 395.271 83.5167 397.425 89.8646C398.181 92.0966 398.495 94.4126 398.766 96.7378C398.945 98.5568 399.016 100.385 398.981 102.212C398.981 113.43 398.981 124.649 398.981 135.87C398.981 137.203 399.133 137.023 397.789 137.026C393.067 137.026 388.348 137.026 383.63 137.026C383.438 137.015 383.244 137.015 383.052 137.026C382.523 137.088 382.376 136.821 382.429 136.348C382.448 136.125 382.429 135.901 382.429 135.677C382.429 125.354 382.429 115.031 382.429 104.708C382.48 102.494 382.213 100.284 381.636 98.1461C380.363 93.7939 377.08 91.2915 372.552 91.2355C368.252 91.1827 364.53 92.7681 361.216 95.3918C358.979 97.1637 357.118 99.2652 355.926 101.92C355.577 102.675 355.399 103.498 355.403 104.329C355.422 114.845 355.422 125.359 355.403 135.873C355.403 137.191 355.55 137.032 354.209 137.032C349.489 137.032 344.77 137.032 340.05 137.032C339.826 137.032 339.599 137.032 339.375 137.032C339.008 137.054 338.843 136.896 338.864 136.526C338.864 136.336 338.864 136.143 338.864 135.95C338.864 131.623 338.864 127.296 338.864 122.966C338.857 122.393 339.001 121.829 339.281 121.33C344.435 111.777 344.417 102.23 339.229 92.6904C338.997 92.3081 338.87 91.8717 338.861 91.4251C338.877 87.6419 338.861 83.8618 338.861 80.0785C338.861 79.2019 338.861 79.1957 339.776 79.1957H352.908H353.39C353.701 79.1957 353.851 79.3604 353.841 79.6744C353.841 79.8982 353.841 80.122 353.841 80.3459V89.4947V89.4853Z" fill="white"/>
<path d="M72.0273 58.7188H145.319C145.471 59.0296 145.222 59.1477 145.092 59.3063C141.706 63.332 138.308 67.3484 134.938 71.3865C134.765 71.61 134.539 71.787 134.28 71.9015C134.022 72.016 133.739 72.0644 133.457 72.0425C121.572 72.0259 109.69 72.0259 97.8114 72.0425H90.6855C90.617 72.372 90.8753 72.3533 91.034 72.3906L95.8199 73.8579C96.6352 74.1097 96.6383 74.1128 96.6383 74.9708C96.6383 80.3281 96.6383 85.6833 96.6383 91.0364C96.6383 92.3669 96.4889 92.2208 97.8114 92.2208H117.129C117.148 92.6218 116.899 92.7648 116.743 92.9482C113.669 96.6071 110.576 100.254 107.517 103.928C107.345 104.152 107.12 104.33 106.862 104.446C106.604 104.562 106.321 104.613 106.039 104.593C101.222 104.565 96.3925 104.572 91.5879 104.568H90.6046C90.7104 104.917 90.9687 104.879 91.1585 104.945C92.7828 105.448 94.4041 105.955 96.0377 106.434C96.1319 106.445 96.2229 106.474 96.3055 106.521C96.388 106.568 96.4603 106.631 96.5183 106.705C96.5763 106.78 96.6187 106.866 96.643 106.958C96.6674 107.049 96.6732 107.145 96.6601 107.239C96.6394 110.254 96.6394 113.269 96.6601 116.282C96.646 116.697 96.4721 117.092 96.1746 117.382C92.6978 121.502 89.223 125.623 85.7502 129.745C83.9516 131.878 82.153 134.012 80.3544 136.146C80.1975 136.398 79.9846 136.611 79.7321 136.768C79.5018 136.485 79.6201 136.146 79.6201 135.863C79.6201 111.462 79.6201 87.0615 79.6201 62.6605C79.6201 60.9041 79.841 61.2927 78.2509 60.7953C76.4461 60.2264 74.6319 59.6824 72.824 59.126C72.5564 59.0452 72.2918 58.9581 72.0273 58.8742V58.7188Z" fill="white"/>
<path d="M132.713 220.413C132.409 220.53 132.08 220.568 131.757 220.525C126.43 220.525 121.1 220.525 115.769 220.543C115.489 220.56 115.208 220.505 114.955 220.383C114.702 220.261 114.484 220.077 114.322 219.847C108.082 212.063 101.831 204.291 95.5676 196.532L94.8581 195.658C94.6185 196.05 94.7118 196.404 94.7118 196.728C94.7118 200.125 94.7212 203.523 94.7398 206.924C94.7545 207.16 94.7219 207.397 94.6439 207.62C94.5659 207.843 94.444 208.048 94.2855 208.224C89.7672 213.347 85.2593 218.48 80.7618 223.624C80.6591 223.745 80.5658 223.876 80.4506 224.006C80.0865 223.751 80.2234 223.437 80.2203 223.183C80.0793 212.82 79.9455 202.466 79.8189 192.121L79.4642 164.715C79.4642 163.907 79.4642 163.9 78.6831 163.661C77.398 163.26 76.1066 162.874 74.8183 162.48C74.4739 162.424 74.1512 162.276 73.8848 162.051H93.5978C93.7908 162.051 93.9837 162.051 94.1766 162.051C94.5469 162.029 94.7025 162.2 94.6807 162.564C94.6807 162.787 94.6807 163.011 94.6807 163.235C94.6807 171.218 94.6807 179.197 94.6807 187.172C94.6423 187.525 94.6612 187.882 94.7367 188.229C95.0479 188.229 95.1413 187.943 95.2969 187.766C102.002 180.124 108.704 172.478 115.405 164.827C115.534 164.647 115.705 164.502 115.902 164.401C116.099 164.3 116.317 164.248 116.538 164.248C121.738 164.267 126.94 164.248 132.14 164.248C132.29 164.248 132.436 164.283 132.722 164.317C132.464 164.628 132.29 164.845 132.1 165.054L110.846 189.674C110.04 190.607 110.037 190.607 110.803 191.608L132.065 219.558C132.283 219.831 132.476 220.089 132.713 220.413Z" fill="white"/>
<path d="M202.461 123.134C203.351 121.791 204.21 120.516 205.047 119.226C205.287 118.853 205.505 118.915 205.831 119.105C206.618 119.598 207.416 120.074 208.227 120.532C212.758 123.081 217.491 125.105 222.657 125.963C225.809 126.485 228.977 126.647 232.141 126.059C233.636 125.821 235.062 125.266 236.324 124.43C237.054 123.954 237.651 123.3 238.056 122.529C238.462 121.758 238.664 120.896 238.642 120.025C238.657 119.234 238.461 118.453 238.073 117.764C237.685 117.074 237.12 116.5 236.436 116.102C235.578 115.596 234.665 115.188 233.716 114.886C230.209 113.627 226.593 112.741 222.983 111.831C219.374 110.92 215.826 109.965 212.357 108.75C210.411 108.088 208.547 107.206 206.802 106.12C203.202 103.841 201.428 100.596 201.397 96.3246C201.353 90.384 203.824 85.7552 208.539 82.2424C211.795 79.8636 215.574 78.2997 219.56 77.682C228.074 76.252 236.386 77.0354 244.402 80.3368C246.918 81.3994 249.285 82.7839 251.444 84.4558C252.066 84.9221 252.15 84.8816 251.643 85.5562C249.72 88.124 247.803 90.6948 245.892 93.2688C245.438 93.875 245.425 93.8905 244.763 93.4491C241.374 91.2731 237.805 89.4638 233.871 88.4473C230.421 87.552 226.926 87.2038 223.382 87.7727C222.015 87.9872 220.697 88.4453 219.492 89.125C216.962 90.5581 216.455 93.2502 217.027 95.5288C217.273 96.5143 217.961 97.2013 218.761 97.7608C219.646 98.3429 220.603 98.8089 221.608 99.1473C224.39 100.164 227.284 100.754 230.156 101.429C234.323 102.355 238.435 103.515 242.472 104.901C244.723 105.668 246.869 106.712 248.861 108.01C251.543 109.807 253.597 112.123 254.188 115.368C255.33 121.651 253.746 127.069 248.687 131.222C245.575 133.784 241.918 135.242 238.007 136.072C233.536 136.984 228.958 137.251 224.412 136.865C219.192 136.49 214.052 135.376 209.145 133.557C207.469 132.908 205.829 132.171 204.232 131.347C203.952 131.245 203.715 131.051 203.559 130.797C203.403 130.543 203.337 130.244 203.373 129.948C203.423 128.058 203.392 126.165 203.389 124.272C203.376 123.438 203.373 123.438 202.461 123.134Z" fill="white"/>
<path d="M311.94 198.692C311.895 198.78 311.871 198.876 311.868 198.975C311.864 199.073 311.883 199.171 311.921 199.261C313.561 206.044 317.833 209.401 324.437 209.942C329.764 210.378 334.612 209.01 339.012 206.016C339.634 205.584 339.656 205.59 340.045 206.29C341.732 209.315 343.414 212.342 345.092 215.37C345.432 215.992 345.425 215.992 344.809 216.39C339.924 219.554 334.662 221.73 328.821 222.352C324.278 222.84 319.772 222.663 315.36 221.42C307.107 219.06 301.686 213.729 298.982 205.621C297.585 201.425 297.243 197.097 297.426 192.711C297.525 189.534 298.073 186.387 299.054 183.363C301.565 175.772 306.855 171.041 314.445 168.774C318.21 167.649 322.084 167.441 325.983 167.615C329.406 167.77 332.751 168.311 335.941 169.548C341.352 171.631 345.127 175.312 346.869 180.911C347.7 183.575 347.846 186.326 347.741 189.093C347.614 191.784 347.185 194.452 346.462 197.048C346.259 197.794 346.253 197.788 345.506 197.806L317.003 198.496C315.721 198.527 314.435 198.552 313.153 198.593C312.746 198.568 312.337 198.601 311.94 198.692ZM323.036 189.615V189.543C326.245 189.543 329.453 189.543 332.661 189.543C333.283 189.543 334.105 189.817 334.528 189.419C334.998 188.971 334.671 188.144 334.64 187.492C334.428 183 331.899 179.975 327.514 179.021C324.805 178.434 321.995 178.491 319.311 179.185C318.077 179.484 316.917 180.035 315.904 180.802C314.892 181.569 314.049 182.536 313.427 183.643C312.498 185.258 311.883 187.034 311.616 188.878C311.501 189.602 311.501 189.612 312.266 189.612C315.862 189.618 319.452 189.619 323.036 189.615Z" fill="white"/>
<path d="M361.251 177.352C361.874 176.87 362.319 176.515 362.773 176.164C365.516 173.988 368.484 172.112 371.626 170.569C375.823 168.496 380.506 167.605 385.172 167.991C390.01 168.411 393.402 170.789 395.192 175.337C396.25 178.023 396.66 180.836 396.884 183.69C397.364 189.74 397.336 195.795 397.161 201.854C397.003 207.45 396.673 213.045 396.05 218.641C396.05 218.706 396.05 218.768 396.05 218.834C395.938 219.707 395.938 219.726 395.07 219.704C390.739 219.594 386.407 219.48 382.075 219.362C381.229 219.34 381.223 219.328 381.31 218.479C381.615 215.516 381.852 212.547 382.023 209.573C382.448 203.238 382.5 196.883 382.178 190.542C382.109 189.164 381.873 187.8 381.475 186.479C381.285 185.862 381.023 185.269 380.694 184.713C379.76 183.112 378.32 182.347 376.499 182.226C374.321 182.064 372.295 182.593 370.329 183.448C368.195 184.417 366.19 185.647 364.36 187.11C363.548 187.731 362.776 188.418 361.961 189.04C361.767 189.18 361.614 189.369 361.517 189.588C361.421 189.806 361.384 190.046 361.41 190.284C361.444 192.301 361.441 194.325 361.454 196.342L361.594 218.271C361.594 218.495 361.575 218.722 361.594 218.946C361.64 219.406 361.423 219.567 360.971 219.567C359.752 219.614 358.535 219.692 357.315 219.757C354.143 219.925 350.971 220.093 347.799 220.261C347.124 220.298 347.108 220.295 347.09 219.601C347.09 219.151 347.09 218.703 347.09 218.252C347.063 218.11 347.082 217.963 347.144 217.832C347.206 217.702 347.308 217.594 347.435 217.525C347.784 217.351 347.787 217.093 347.572 216.822C346.965 216.058 346.996 215.165 346.984 214.261C346.916 209.228 346.825 204.195 346.748 199.162C346.729 198.021 346.748 198.021 347.911 197.962C348.73 197.922 348.742 197.925 348.944 197.145C350.052 192.932 350.628 188.664 350.189 184.3C349.844 180.787 348.801 177.526 346.713 174.663C346.44 174.306 346.295 173.868 346.303 173.419C346.303 172.456 346.303 171.495 346.228 170.534C346.197 170.028 346.387 169.85 346.872 169.826C348.475 169.748 350.074 169.645 351.677 169.552C354.477 169.39 357.25 169.241 360.038 169.067C360.831 169.017 360.835 168.999 360.872 169.804C360.971 172.011 361.07 174.219 361.167 176.428C361.192 176.671 361.217 176.916 361.251 177.352Z" fill="white"/>
<path d="M262.748 178.831L263.875 177.92C266.482 175.822 269.23 173.938 272.277 172.548C276.26 170.748 280.404 169.965 284.761 170.487C288.862 170.975 291.697 173.12 293.231 176.963C294.049 179.122 294.55 181.388 294.719 183.69C295.204 188.975 295.17 194.259 295.073 199.544C294.986 204.191 294.781 208.833 294.333 213.461C294.227 214.546 294.084 215.638 293.997 216.71C293.962 217.136 293.782 217.251 293.374 217.239C292.22 217.204 291.062 217.195 289.908 217.173L281.434 217.015C280.625 216.996 280.619 216.987 280.706 216.203C281.49 208.807 281.805 201.369 281.649 193.933C281.618 191.881 281.531 189.829 281.058 187.821C280.915 187.163 280.701 186.522 280.42 185.909C280.114 185.215 279.63 184.614 279.016 184.167C278.402 183.721 277.681 183.444 276.926 183.367C275.098 183.166 273.249 183.424 271.545 184.116C269.367 184.933 267.441 186.217 265.608 187.638C264.824 188.26 264.089 188.922 263.302 189.528C263.113 189.671 262.963 189.861 262.869 190.079C262.775 190.297 262.738 190.535 262.764 190.771C262.801 193.976 262.804 197.181 262.826 200.386C262.859 205.582 262.898 210.776 262.941 215.967C262.941 216.095 262.941 216.222 262.941 216.353C262.941 217.061 262.941 217.08 262.198 217.117C258.351 217.325 254.505 217.52 250.659 217.705C250.398 217.705 249.996 217.926 249.884 217.587C249.789 217.381 249.755 217.153 249.786 216.929C249.817 216.704 249.911 216.494 250.058 216.321C250.519 215.833 250.973 215.336 251.412 214.823C251.913 214.236 251.907 214.226 251.474 213.614C251.303 213.343 251.112 213.084 250.905 212.84C249.903 211.777 249.638 210.536 249.62 209.078C249.502 199.88 249.309 190.684 249.103 181.486C249.085 180.749 249.228 180.242 249.884 179.804C250.768 179.226 251.58 178.536 252.42 177.892C253.012 177.438 253.015 177.432 252.613 176.761C251.759 175.288 250.698 173.946 249.464 172.772C249.286 172.619 249.144 172.427 249.05 172.212C248.955 171.997 248.909 171.764 248.916 171.529C248.845 166.368 248.745 161.211 248.658 156.051C248.658 155.252 248.658 155.239 249.421 155.196C253.588 154.972 257.755 154.751 261.921 154.534C262.686 154.496 262.698 154.506 262.702 155.326C262.72 160.936 262.735 166.547 262.745 172.157C262.751 174.277 262.748 176.425 262.748 178.831Z" fill="white"/>
<path d="M194.849 206.082C195.03 206.953 195.147 207.836 195.197 208.724C195.527 211.618 195.819 214.519 196.18 217.41C196.236 217.885 196.047 218.031 195.664 218.156C191.538 219.399 187.359 220.388 183.018 220.434C181.057 220.472 179.101 220.244 177.202 219.757C172.87 218.603 169.877 215.933 168.14 211.826C167.042 209.228 166.584 206.492 166.348 203.697C166.245 202.42 166.23 201.139 166.208 199.858C166.127 194.263 166.059 188.642 165.971 183.034C165.95 181.592 166.052 181.791 164.727 181.791C162.707 181.819 160.681 181.881 158.662 181.924C157.915 181.943 157.906 181.924 157.921 181.209C157.994 177.715 158.071 174.222 158.152 170.73C158.17 169.922 158.183 169.919 159.038 169.906C160.834 169.881 162.632 169.888 164.428 169.838C165.934 169.794 165.732 169.981 165.719 168.551C165.694 165.753 165.638 162.974 165.595 160.188C165.595 159.707 165.61 159.222 165.564 158.746C165.517 158.27 165.76 158.081 166.22 158.028C167.748 157.848 169.273 157.639 170.801 157.44L179.483 156.306L179.769 156.275C180.855 156.169 180.836 156.035 180.836 157.207C180.836 160.989 180.836 164.772 180.836 168.554C180.836 168.778 180.836 169.005 180.836 169.225C180.815 169.595 180.973 169.738 181.344 169.732C182.405 169.717 183.463 169.732 184.524 169.713L195.788 169.558C196.012 169.558 196.24 169.558 196.464 169.558C196.815 169.536 197.017 169.661 196.986 170.046C196.986 170.239 196.986 170.432 196.986 170.624C196.891 173.816 196.794 177.014 196.697 180.218C196.697 181.007 196.697 181.007 195.897 181.007C191.215 181.117 186.531 181.221 181.845 181.318C181.652 181.318 181.459 181.318 181.266 181.318C181.218 181.317 181.17 181.327 181.126 181.346C181.082 181.365 181.042 181.393 181.009 181.428C180.976 181.463 180.951 181.504 180.935 181.55C180.919 181.595 180.913 181.643 180.917 181.691C180.917 181.949 180.917 182.204 180.917 182.462C180.95 188.167 180.986 193.873 181.023 199.578C181.035 200.283 181.098 200.985 181.213 201.68C181.676 204.658 183.282 206.483 186.87 207.039C189.17 207.397 191.404 206.946 193.613 206.337C194.005 206.259 194.379 206.038 194.849 206.082Z" fill="white"/>
<path d="M241.115 203.843C241.837 204.828 242.571 205.836 243.293 206.846C244.613 208.661 245.938 210.474 247.248 212.299C247.824 213.097 247.871 212.864 247.164 213.719C244.32 217.114 240.682 219.315 236.509 220.68C233.115 221.783 229.608 222.072 226.051 221.923C222.801 221.851 219.595 221.166 216.6 219.902C210.01 217.021 205.625 212.069 203.363 205.323C200.606 197.11 200.802 188.949 204.738 181.128C208.65 173.356 215.157 169.051 223.698 167.798C228.744 167.002 233.912 167.61 238.635 169.554C242.615 171.199 245.935 173.683 248.241 177.394C248.359 177.584 248.462 177.783 248.586 177.97C248.631 178.016 248.665 178.072 248.684 178.134C248.703 178.196 248.707 178.261 248.696 178.324C248.685 178.388 248.659 178.448 248.621 178.5C248.582 178.552 248.532 178.594 248.474 178.622C248.316 178.731 248.163 178.856 248.014 178.971L240.278 184.877C239.609 185.384 239.696 185.499 239.117 184.722C235.14 179.452 226.188 178.321 220.969 182.735C218.343 184.958 216.887 187.809 216.373 191.153C215.913 194.163 215.972 197.166 216.865 200.103C218.548 205.671 223.014 208.985 228.839 208.985C233.46 208.985 237.449 207.471 240.679 204.11C240.785 203.969 240.941 203.874 241.115 203.843Z" fill="white"/>
<path d="M256.133 84.95C255.732 84.6391 255.371 84.3282 254.966 84.064C254.784 83.9688 254.634 83.8217 254.535 83.6413C254.437 83.4609 254.394 83.2553 254.412 83.0506C254.45 81.9626 254.412 80.8745 254.412 79.7834C254.412 79.0995 254.431 79.0839 255.1 79.0808C257.25 79.0808 259.404 79.0808 261.554 79.0808H270.136C271.284 79.0808 271.188 79.0155 271.188 80.1067V107.998C271.188 117.324 271.188 126.65 271.188 135.976C271.188 137.148 271.319 137.036 270.086 137.036H255.542H254.773C254.725 137.042 254.676 137.037 254.63 137.021C254.585 137.005 254.543 136.979 254.509 136.944C254.475 136.91 254.45 136.867 254.435 136.821C254.421 136.775 254.417 136.726 254.425 136.678C254.425 136.454 254.425 136.23 254.425 136.004C254.425 134.138 254.45 132.273 254.425 130.427C254.413 130.176 254.452 129.925 254.54 129.689C254.628 129.453 254.762 129.238 254.935 129.056C256.944 126.781 258.195 123.939 258.517 120.923C258.853 118.244 258.672 115.639 257.583 113.127C256.965 111.747 256.049 110.521 254.901 109.536C254.752 109.422 254.633 109.274 254.554 109.104C254.475 108.934 254.438 108.747 254.447 108.56C254.447 101.634 254.447 94.7091 254.447 87.7851C254.442 87.4006 254.577 87.0274 254.826 86.7343C255.249 86.1592 255.67 85.5717 256.133 84.95Z" fill="white"/>
<path d="M155.239 194.66C155.289 202.575 155.337 210.49 155.382 218.404C155.382 219.533 155.61 219.52 154.253 219.589C150.054 219.796 145.858 220.019 141.666 220.257C140.885 220.301 140.882 220.313 140.863 219.492C140.754 215.072 140.654 210.651 140.533 206.231C140.315 198.258 140.089 190.284 139.855 182.31C139.758 178.819 139.677 175.328 139.59 171.837C139.59 171.644 139.59 171.451 139.59 171.261C139.556 170.857 139.73 170.696 140.141 170.674C142.092 170.568 144.046 170.438 145.997 170.32L154.159 169.822C154.318 169.822 154.471 169.807 154.639 169.794C154.969 169.766 155.112 169.925 155.102 170.245C155.102 170.435 155.102 170.627 155.102 170.82L155.252 194.66H155.239Z" fill="white"/>
<path d="M262.765 71.2309C260.261 71.2309 257.757 71.2309 255.253 71.2309C254.437 71.2309 254.422 71.2309 254.422 70.4755C254.422 66.0219 254.422 61.5661 254.422 57.1083C254.422 56.3933 254.422 56.3809 255.181 56.3809C260.253 56.3809 265.326 56.3809 270.398 56.3809C271.176 56.3809 271.185 56.3809 271.185 57.1798C271.185 61.6024 271.185 66.026 271.185 70.4507C271.185 71.2185 271.185 71.2278 270.373 71.2278C267.838 71.234 265.302 71.2351 262.765 71.2309Z" fill="white"/>
<path d="M147.7 147.869C150.009 147.766 152.315 147.676 154.621 147.543C155.125 147.515 155.209 147.711 155.209 148.143C155.209 150.319 155.209 152.495 155.209 154.671C155.209 156.144 155.209 157.621 155.209 159.094C155.209 159.881 155.209 159.896 154.431 159.931C151.612 160.064 148.792 160.186 145.97 160.31L140.876 160.531C140.232 160.556 140.219 160.549 140.204 159.937C140.115 156.287 140.028 152.637 139.943 148.985C139.927 148.286 139.943 148.264 140.696 148.223C142.843 148.112 144.99 148.018 147.137 147.913C147.327 147.913 147.52 147.885 147.713 147.872L147.7 147.869Z" fill="white"/>
<path d="M383.854 49.5885H381.602V48H388.049V49.5885H385.759V56.3778H383.854V49.5885Z" fill="#173303"/>
<path d="M396.103 53.1697C396.066 52.1625 396.028 50.9439 396.028 49.7253H395.991C395.73 50.7947 395.369 51.9884 395.057 52.9707L394.037 56.2411H392.556L391.659 52.9956C391.386 52.0133 391.099 50.8196 390.9 49.7253H390.872C390.822 50.8569 390.785 52.1501 390.723 53.1946L390.573 56.3778H388.818L389.354 48H391.88L392.702 50.7978C392.963 51.7677 393.225 52.8122 393.411 53.7945H393.449C393.685 52.8246 393.971 51.718 394.245 50.7854L395.141 48.0031H397.631L398.088 56.381H396.237L396.103 53.1697Z" fill="#173303"/>
</g>
<defs>
<clipPath id="clip0_809_4658">
<rect width="327" height="176" fill="white" transform="translate(72 48)"/>
</clipPath>
</defs>
</svg>
