<svg width="471" height="208" viewBox="0 0 471 208" fill="none" xmlns="http://www.w3.org/2000/svg">
<rect width="470.89" height="207.82" fill="white"/>
<g clip-path="url(#clip0_809_4577)">
<path d="M266.078 125.833H265.56C262.182 125.833 258.801 125.833 255.419 125.833C255.262 125.843 255.104 125.813 254.961 125.745C254.818 125.677 254.695 125.575 254.602 125.447C250.641 120.507 246.67 115.573 242.689 110.645C242.574 110.455 242.415 110.295 242.226 110.179V110.787C242.226 112.951 242.226 115.115 242.255 117.279C242.261 117.438 242.236 117.597 242.179 117.746C242.123 117.895 242.037 118.031 241.927 118.146C239.121 121.328 236.324 124.514 233.537 127.705C233.446 127.811 233.373 127.942 233.22 127.993C233.074 127.866 233.143 127.691 233.14 127.545C233.042 119.756 232.946 111.968 232.852 104.179C232.793 99.6907 232.734 95.1977 232.673 90.6998C232.673 90.259 232.673 90.2553 232.228 90.1205L229.215 89.1989C229.339 89.1232 229.486 89.0912 229.631 89.1078H241.777C242.299 89.1078 242.237 89.1078 242.237 89.6469V105.534C242.437 105.57 242.481 105.425 242.558 105.341C246.784 100.527 251.008 95.7101 255.23 90.8892C255.338 90.7502 255.479 90.6395 255.64 90.5665C255.8 90.4936 255.976 90.4606 256.153 90.4703C259.279 90.4885 262.408 90.4703 265.534 90.4703H266.052C266.089 90.6925 265.95 90.7726 265.862 90.8746C262.434 94.8503 259.001 98.8248 255.565 102.798L252.202 106.689C251.837 107.108 251.914 107.035 252.202 107.396C255.607 111.862 259.005 116.327 262.397 120.791C263.547 122.299 264.695 123.806 265.841 125.312C265.974 125.455 266.058 125.638 266.078 125.833Z" fill="#173303"/>
<path d="M378.668 112.109C378.855 113.744 379.549 115.28 380.655 116.5C381.761 117.72 383.222 118.563 384.833 118.911C388.706 119.745 392.288 118.991 395.582 116.816L396.064 116.492C396.242 116.55 396.272 116.707 396.341 116.827C397.401 118.731 398.461 120.637 399.522 122.546C399.751 122.958 399.861 122.911 399.354 123.242C396.77 124.982 393.858 126.178 390.797 126.758C387.448 127.405 383.995 127.262 380.711 126.342C375.528 124.823 372.175 121.413 370.523 116.31C370.004 114.621 369.699 112.875 369.615 111.111C369.433 108.483 369.694 105.842 370.388 103.3C371.895 97.8651 375.513 94.5901 380.908 93.1802C383.175 92.6369 385.514 92.4538 387.838 92.6374C389.971 92.7148 392.075 93.1534 394.061 93.9344C398.234 95.6648 400.598 98.7722 401.116 103.26C401.383 105.937 401.136 108.64 400.386 111.224C400.381 111.276 400.365 111.326 400.34 111.372C400.314 111.417 400.28 111.457 400.239 111.489C400.197 111.521 400.15 111.545 400.1 111.558C400.049 111.571 399.996 111.574 399.945 111.566C396.224 111.651 392.502 111.741 388.779 111.836L379.08 112.087C378.956 112.087 378.825 112.102 378.668 112.109ZM385.748 106.437V106.404H386.558L392.361 106.375C392.504 106.375 392.649 106.375 392.795 106.375C392.941 106.375 393.022 106.306 393.018 106.149C393.018 105.785 393.018 105.421 392.985 105.056C392.777 102.357 391.486 100.444 388.509 99.7704C386.985 99.4432 385.409 99.4345 383.881 99.7449C382.887 99.9081 381.949 100.317 381.153 100.934C380.358 101.551 379.729 102.357 379.325 103.279C378.917 104.144 378.641 105.065 378.504 106.011C378.442 106.422 378.438 106.43 378.869 106.43L385.748 106.437Z" fill="#173303"/>
<path d="M93.7934 120.747C93.7419 120.759 93.6938 120.782 93.6522 120.815C93.6106 120.848 93.5767 120.889 93.5527 120.936C91.4152 123.72 88.5883 125.454 85.2325 126.401C83.1222 126.989 80.9322 127.241 78.7434 127.148C77.093 127.11 75.4675 126.738 73.965 126.055C71.4445 124.853 69.9125 122.823 69.0881 120.226C68.5825 118.55 68.3365 116.807 68.3586 115.057C68.344 108.514 68.344 101.97 68.3586 95.4246C68.3586 95.3335 68.3586 95.2424 68.3586 95.1513C68.3586 94.9728 68.4315 94.889 68.6139 94.8927H76.9122C77.4411 94.8927 77.4448 94.8927 77.4448 95.4246C77.4448 101.21 77.4448 106.997 77.4448 112.787C77.416 113.89 77.53 114.992 77.784 116.066C77.8497 116.31 77.919 116.554 78.0065 116.794C78.7835 118.98 80.3593 120.142 82.6427 120.248C86.7207 120.437 89.8248 118.707 92.028 115.308C92.325 114.859 92.4777 114.33 92.4657 113.793C92.4657 107.716 92.4657 101.643 92.4657 95.5776C92.4657 94.849 92.3745 94.9218 93.1441 94.9182H100.899C101.023 94.9182 101.151 94.9182 101.264 94.9182C101.479 94.9182 101.548 95.0202 101.537 95.2169C101.526 95.4136 101.537 95.5083 101.537 95.6504V116.962C101.526 117.358 101.553 117.755 101.618 118.146C101.675 118.507 101.849 118.84 102.112 119.095C102.375 119.35 102.713 119.513 103.077 119.559C103.183 119.584 103.292 119.6 103.401 119.607C103.653 119.607 103.726 119.745 103.722 119.993C103.722 122.067 103.722 124.14 103.722 126.211C103.722 126.419 103.679 126.554 103.445 126.576C101.577 126.856 99.7135 127.071 97.835 126.696C97.0026 126.547 96.216 126.208 95.537 125.705C95.1158 125.406 94.7624 125.022 94.4997 124.578C94.237 124.133 94.0709 123.639 94.0123 123.126C93.9174 122.354 93.8664 121.563 93.7934 120.747Z" fill="#173303"/>
<path d="M148.54 110.71C148.54 108.186 148.54 105.665 148.54 103.14C148.532 102.799 148.63 102.465 148.82 102.182C150.744 99.2656 153.534 97.0236 156.798 95.7703C158.986 94.9085 161.305 94.4232 163.655 94.335C166.186 94.1727 168.725 94.4413 171.166 95.1291C175.178 96.3204 178.53 98.5171 180.879 102.051C182.679 104.76 183.584 107.964 183.469 111.213C183.352 116.747 180.048 122.634 173.65 125.421C171.471 126.355 169.15 126.913 166.785 127.071C164.149 127.297 161.495 127.064 158.939 126.382C154.777 125.227 151.341 123.013 148.904 119.38C148.658 119.029 148.53 118.608 148.54 118.178C148.551 115.686 148.54 113.198 148.54 110.71ZM165.72 120.233C168.857 120.105 171.768 118.386 173.398 114.768C174.216 112.883 174.434 110.792 174.022 108.779C173.223 104.408 169.871 101.599 165.862 101.26C162.805 101.005 160.172 101.927 158.1 104.197C155.933 106.572 155.299 109.442 155.798 112.55C156.542 117.144 160.252 120.24 165.72 120.24V120.233Z" fill="#173303"/>
<path d="M409.696 98.7471L410.674 97.9858C412.692 96.3699 414.919 95.033 417.294 94.0112C419.674 93.0233 422.26 92.6318 424.826 92.871C427.788 93.1406 429.886 94.6233 431.002 97.4138C431.571 98.8971 431.917 100.456 432.03 102.04C432.294 105.069 432.393 108.109 432.33 111.148C432.271 113.698 432.206 116.248 432.052 118.765C431.936 120.656 431.768 122.536 431.585 124.419C431.58 124.527 431.569 124.634 431.553 124.74C431.418 125.399 431.607 125.304 430.907 125.29C428.16 125.228 425.414 125.152 422.667 125.075C422.255 125.075 422.24 125.075 422.284 124.645C422.419 123.319 422.514 121.989 422.62 120.663C422.766 118.813 422.882 116.958 422.919 115.104C422.966 112.634 423.003 110.164 422.882 107.698C422.859 106.707 422.727 105.721 422.488 104.758C422.399 104.392 422.277 104.035 422.124 103.691C421.897 103.156 421.526 102.694 421.052 102.357C420.578 102.02 420.019 101.821 419.439 101.782C418.373 101.689 417.299 101.832 416.295 102.201C415.221 102.579 414.2 103.089 413.253 103.72C412.188 104.435 411.164 105.208 410.185 106.037C410.059 106.133 409.959 106.26 409.896 106.405C409.832 106.55 409.806 106.709 409.82 106.867C409.864 111.698 409.9 116.529 409.93 121.359C409.93 122.459 409.93 123.56 409.93 124.66C409.93 125.232 409.999 125.184 409.419 125.217C407.96 125.301 406.501 125.374 405.042 125.45L401.252 125.643C400.84 125.665 400.836 125.643 400.829 125.239C400.829 124.988 400.829 124.736 400.829 124.485C400.802 124.37 400.815 124.25 400.866 124.144C400.917 124.038 401.003 123.952 401.11 123.902C401.288 123.818 401.277 123.687 401.172 123.538C400.778 123.031 400.807 122.445 400.785 121.84C400.738 118.685 400.672 115.534 400.617 112.368C400.617 111.64 400.617 111.64 401.314 111.64C401.916 111.614 401.854 111.72 402.022 111.071C402.686 108.689 402.966 106.216 402.85 103.745C402.696 101.268 402.051 98.9548 400.552 96.9293C400.42 96.7579 400.351 96.5474 400.355 96.3318C400.355 95.7198 400.329 95.1041 400.314 94.5103C400.314 94.0404 400.314 94.0331 400.767 94.0076L404.717 93.7781L408.988 93.5122C409.042 93.5159 409.096 93.5159 409.149 93.5122C409.408 93.4721 409.514 93.5741 409.514 93.8364C409.539 94.7544 409.583 95.6579 409.627 96.5905C409.616 97.2644 409.656 97.9457 409.696 98.7471Z" fill="#173303"/>
<path d="M347.832 99.6395L348.857 98.8235C350.513 97.4782 352.342 96.3607 354.295 95.5011C356.514 94.5496 358.934 94.1628 361.339 94.3754C364.148 94.6231 366.081 96.0548 367.055 98.7215C367.519 100.031 367.808 101.395 367.916 102.78C368.162 106.142 368.231 109.516 368.124 112.885C368.087 115.215 367.979 117.537 367.799 119.854C367.708 121.02 367.58 122.186 367.463 123.352C367.423 123.76 367.416 123.767 367.011 123.76C364.48 123.709 361.949 123.655 359.42 123.599C359.081 123.599 359.077 123.599 359.11 123.235C359.296 121.352 359.475 119.468 359.559 117.578C359.724 114.391 359.753 111.201 359.646 108.007C359.637 106.889 359.469 105.778 359.147 104.707C358.651 103.191 357.746 102.521 356.141 102.47C354.906 102.457 353.687 102.741 352.585 103.297C350.889 104.102 349.448 105.275 348.032 106.488C347.955 106.562 347.897 106.654 347.863 106.756C347.829 106.857 347.821 106.966 347.839 107.071C347.839 109.791 347.853 112.514 347.879 115.239C347.879 117.833 347.919 120.43 347.941 123.024C347.934 123.133 347.934 123.243 347.941 123.352C347.97 123.614 347.843 123.687 347.577 123.716C346.205 123.778 344.834 123.854 343.462 123.927C342.306 123.986 341.149 124.037 339.997 124.106C339.763 124.106 339.668 124.066 339.668 123.822C339.65 123.689 339.664 123.554 339.708 123.427C339.751 123.301 339.824 123.186 339.92 123.093C340.192 122.828 340.447 122.546 340.683 122.248C340.985 121.884 340.982 121.884 340.723 121.519C340.464 121.155 340.139 120.696 339.829 120.295C339.667 120.087 339.578 119.831 339.577 119.567C339.517 115.819 339.446 112.071 339.366 108.321C339.322 105.938 339.285 103.559 339.231 101.181C339.209 101.025 339.232 100.866 339.296 100.722C339.361 100.578 339.464 100.456 339.596 100.368C340.205 99.9455 340.774 99.4683 341.376 99.0384C341.624 98.8599 341.62 98.7215 341.474 98.4737C340.917 97.5228 340.232 96.6526 339.439 95.8872C339.333 95.7972 339.248 95.6856 339.19 95.5598C339.131 95.4341 339.1 95.2973 339.099 95.1586C339.048 91.8799 338.983 88.634 338.921 85.3699C338.921 84.8781 338.881 84.8963 339.369 84.8708L347.164 84.4482H347.27C347.719 84.4482 347.726 84.4482 347.73 84.8635C347.73 85.9273 347.73 86.9911 347.748 88.0548C347.763 91.7488 347.778 95.444 347.795 99.1404L347.832 99.6395Z" fill="#173303"/>
<path d="M191.713 101.108C191.808 101.108 191.837 101.049 191.878 100.995C193.512 98.6633 195.759 97.1514 198.392 96.1751C201.529 94.9816 204.921 94.6152 208.241 95.1114C211.994 95.6761 214.442 97.8327 215.62 101.425C216.032 102.806 216.277 104.233 216.349 105.672C216.415 106.518 216.43 107.363 216.43 108.223C216.43 114.318 216.43 120.412 216.43 126.503C216.43 127.257 216.499 127.155 215.759 127.155H207.592C207.427 127.155 207.369 127.075 207.373 126.922C207.376 126.769 207.373 126.634 207.373 126.488C207.373 120.81 207.373 115.132 207.373 109.454C207.401 108.244 207.253 107.037 206.935 105.869C206.34 103.873 205.075 102.569 202.977 102.164C201.87 101.967 200.731 102.027 199.651 102.339C197.186 103.008 195.034 104.518 193.566 106.605C193.361 106.901 193.175 107.21 193.008 107.53C192.68 108.132 192.515 108.809 192.527 109.494C192.549 115.119 192.527 120.743 192.527 126.365C192.527 126.492 192.527 126.62 192.527 126.729C192.527 127.133 192.527 127.141 192.104 127.141H183.918C183.463 127.141 183.459 127.141 183.459 126.652C183.459 124.219 183.459 121.785 183.459 119.366C183.457 119.079 183.537 118.798 183.689 118.554C185.083 116.156 185.803 113.426 185.771 110.652C185.775 107.952 185.066 105.298 183.714 102.958C183.54 102.665 183.451 102.33 183.455 101.989C183.455 100.026 183.455 98.0622 183.455 96.095C183.455 95.9711 183.455 95.8436 183.455 95.7307C183.455 95.6178 183.528 95.4648 183.714 95.4721C183.82 95.4721 183.929 95.4721 184.039 95.4721H191.035C191.125 95.4775 191.215 95.4775 191.305 95.4721C191.56 95.4429 191.67 95.5449 191.651 95.8072C191.651 96.656 191.651 97.5012 191.651 98.3573C191.651 99.2134 191.651 100.015 191.651 100.845C191.662 100.911 191.622 101.024 191.713 101.108Z" fill="#173303"/>
<path d="M61.9023 102.587C61.4318 103.148 61.0487 103.599 60.6657 104.044C59.2724 105.701 57.8716 107.352 56.4855 109.017C56.397 109.138 56.2789 109.236 56.1423 109.299C56.0058 109.363 55.8553 109.391 55.705 109.381C53.0824 109.381 50.4633 109.381 47.8407 109.381C47.6206 109.353 47.3971 109.377 47.1878 109.45C47.3957 109.523 47.5526 109.574 47.6839 109.618C48.5119 109.873 49.3399 110.139 50.1715 110.372C50.2282 110.379 50.2827 110.398 50.332 110.427C50.3812 110.456 50.4241 110.495 50.4582 110.541C50.4922 110.586 50.5166 110.639 50.53 110.694C50.5435 110.75 50.5456 110.807 50.5363 110.864C50.5363 112.485 50.5363 114.106 50.5363 115.727C50.5355 115.864 50.507 115.999 50.4525 116.124C50.3979 116.249 50.3185 116.362 50.219 116.456L44.2843 123.49L41.596 126.674C41.498 126.833 41.3561 126.959 41.1875 127.038V126.383C41.1875 113.042 41.1875 99.7027 41.1875 86.3645C41.1875 85.4647 41.3261 85.676 40.4579 85.3991C39.3053 85.0348 38.149 84.6924 37 84.2734H77.2734C77.3317 84.4337 77.1712 84.5102 77.0873 84.6122C75.2307 86.8199 73.3595 89.0202 71.5138 91.2388C71.4198 91.3561 71.2975 91.4477 71.1585 91.5051C71.0194 91.5624 70.868 91.5836 70.7186 91.5667H53.4763H47.7277H47.1331C47.3389 91.7114 47.5744 91.8085 47.8225 91.8508C48.5812 92.0913 49.3435 92.3135 50.1022 92.5466C50.6311 92.7106 50.529 92.6924 50.5327 93.1405C50.5327 96.0767 50.5327 99.0142 50.5327 101.953C50.5327 102.703 50.4414 102.609 51.2002 102.609H61.9023V102.587Z" fill="#173303"/>
<path d="M135.8 98.6489L132.185 103.49L131.507 103.068C129.585 101.807 127.457 100.895 125.218 100.372C123.458 99.9391 121.626 99.8796 119.842 100.197C119.205 100.325 118.59 100.546 118.018 100.853C116.679 101.582 116.289 102.951 116.559 104.27C116.633 104.57 116.768 104.852 116.956 105.097C117.145 105.342 117.382 105.546 117.653 105.694C118.193 106.023 118.769 106.286 119.371 106.478C120.87 106.95 122.392 107.346 123.931 107.665C126.257 108.18 128.551 108.835 130.799 109.625C132.009 110.053 133.161 110.631 134.228 111.345C136.555 112.929 137.383 115.177 137.168 117.902C136.934 120.816 135.508 123.028 133.083 124.623C131.319 125.767 129.328 126.513 127.246 126.809C121.514 127.719 115.641 126.897 110.38 124.449C110.051 124.299 109.741 124.11 109.417 123.957C109.317 123.918 109.232 123.846 109.177 123.754C109.122 123.661 109.1 123.553 109.114 123.447C109.114 122.354 109.114 121.286 109.114 120.204C109.114 119.724 109.114 119.724 108.665 119.571C108.64 119.414 108.768 119.319 108.84 119.206C109.205 118.616 109.628 118.041 110.004 117.447C110.146 117.221 110.263 117.214 110.475 117.352C111.434 117.961 112.428 118.516 113.451 119.013C115.513 120.067 117.729 120.789 120.017 121.152C121.708 121.437 123.437 121.421 125.123 121.104C125.872 120.963 126.582 120.668 127.21 120.237C127.671 119.928 128.031 119.49 128.243 118.977C128.456 118.464 128.511 117.9 128.403 117.356C128.345 117.016 128.213 116.693 128.018 116.409C127.822 116.125 127.566 115.887 127.268 115.713C126.883 115.476 126.472 115.284 126.043 115.141C124.101 114.46 122.123 113.886 120.119 113.421C117.78 112.879 115.477 112.19 113.225 111.359C112.193 110.969 111.221 110.434 110.34 109.771C109.628 109.239 109.05 108.55 108.648 107.759C108.246 106.967 108.033 106.094 108.023 105.206C107.877 101.618 109.377 98.8675 112.32 96.8638C114.225 95.5995 116.398 94.795 118.667 94.5141C122.474 93.9716 126.355 94.303 130.015 95.4832C131.961 96.1124 133.786 97.0657 135.413 98.3028C135.515 98.3793 135.614 98.4595 135.709 98.5396C135.742 98.5433 135.753 98.5797 135.8 98.6489Z" fill="#173303"/>
<path d="M296.283 85.4355C296.344 85.6259 296.363 85.8274 296.338 86.0257C296.338 88.4544 296.338 90.883 296.338 93.3117C296.338 93.4355 296.338 93.563 296.338 93.676C296.338 93.7889 296.4 93.9091 296.56 93.9055H296.925C299.905 93.8727 302.889 93.8327 305.869 93.8035C306.5 93.8035 306.493 93.6869 306.471 94.4046C306.415 96.4544 306.359 98.5078 306.303 100.565C306.303 100.984 306.303 100.987 305.895 100.998L297.006 101.213H296.79C296.404 101.213 296.396 101.213 296.396 101.603C296.396 102.809 296.396 104.018 296.396 105.224C296.396 107.585 296.407 109.946 296.429 112.306C296.422 113.117 296.523 113.926 296.728 114.711C296.859 115.21 297.103 115.673 297.443 116.061C297.783 116.45 298.209 116.755 298.687 116.951C299.588 117.335 300.57 117.493 301.547 117.41C302.629 117.34 303.697 117.134 304.728 116.798C305.165 116.663 305.165 116.667 305.216 117.115C305.459 119.242 305.703 121.37 305.946 123.497C305.946 123.625 305.946 123.752 305.982 123.862C306.03 124.102 305.924 124.226 305.69 124.284C302.67 125.206 299.617 125.891 296.426 125.683C295.172 125.622 293.939 125.347 292.778 124.871C291.742 124.432 290.808 123.785 290.033 122.971C289.258 122.156 288.659 121.191 288.273 120.135C287.765 118.823 287.439 117.448 287.306 116.048C287.128 114.434 287.124 112.813 287.102 111.191C287.056 108.11 287.013 105.028 286.975 101.946C286.971 101.892 286.971 101.839 286.975 101.785C287 101.534 286.909 101.421 286.639 101.421C286.274 101.443 285.88 101.421 285.501 101.421L282.36 101.508C281.904 101.508 281.908 101.508 281.919 101.075C281.975 98.9644 282.028 96.8563 282.079 94.7507C282.079 94.6596 282.079 94.5722 282.079 94.4811C282.079 93.9274 282.047 93.9565 282.619 93.9529L286.307 93.9201C286.851 93.9201 286.851 93.9602 286.84 93.3919C286.808 91.3736 286.774 89.3554 286.737 87.3372C286.737 86.5576 286.737 86.5722 287.467 86.4738C289.849 86.1678 292.231 85.8472 294.609 85.5376C295.189 85.5631 295.729 85.5011 296.283 85.4355Z" fill="#173303"/>
<path d="M333.256 103.713C332.884 103.208 332.461 102.743 331.994 102.325C330.596 101.16 328.852 100.487 327.033 100.412C322.674 100.15 319.643 103.02 318.84 106.605C318.255 108.946 318.382 111.408 319.205 113.676C319.74 115.137 320.714 116.396 321.994 117.28C323.274 118.165 324.798 118.632 326.354 118.616C328.798 118.694 331.189 117.894 333.092 116.361C333.458 116.052 333.803 115.718 334.124 115.363C334.328 115.443 334.387 115.603 334.489 115.727C335.7 117.388 336.903 119.053 338.114 120.715C338.479 121.203 338.41 121.119 338.074 121.523C336.314 123.632 333.965 125.168 331.326 125.935C327.77 127.066 323.955 127.093 320.383 126.011C315.605 124.554 312.421 121.348 310.655 116.722C309.726 114.234 309.308 111.585 309.426 108.933C309.478 106.419 310.052 103.943 311.111 101.662C313.442 96.74 317.341 93.8183 322.678 92.8493C326.199 92.1664 329.845 92.5823 333.121 94.0405C335.472 95.0257 337.455 96.7229 338.789 98.893C338.855 98.9987 338.917 99.108 338.979 99.2172C338.994 99.2397 339.005 99.2651 339.01 99.2918C339.015 99.3185 339.015 99.346 339.009 99.3726C339.003 99.3992 338.992 99.4244 338.976 99.4465C338.96 99.4686 338.94 99.4873 338.917 99.5014L338.702 99.669L333.617 103.534C333.519 103.631 333.392 103.693 333.256 103.713Z" fill="#173303"/>
<path d="M280.282 110.372C280.249 114.583 280.359 119.574 280.359 124.58C280.359 125.265 280.465 125.203 279.724 125.243C277.049 125.384 274.374 125.522 271.699 125.658C271.24 125.683 271.244 125.68 271.233 125.199C271.143 122.122 271.053 119.042 270.963 115.96C270.901 113.745 270.857 111.53 270.799 109.316C270.738 106.935 270.674 104.558 270.609 102.183C270.561 100.328 270.521 98.474 270.47 96.6161C270.47 96.0769 270.419 95.5232 270.408 94.9986C270.408 94.5869 270.408 94.5796 270.813 94.5541L274.384 94.3392L279.465 94.0296H279.629C280.162 94.0004 280.162 94.0004 280.166 94.5287C280.213 99.5378 280.246 104.576 280.282 110.372Z" fill="#173303"/>
<path d="M138.057 98.6155C137.993 98.5398 137.92 98.4724 137.838 98.4152C137.563 98.3064 137.337 98.1008 137.202 97.8372C137.068 97.5735 137.035 97.2699 137.109 96.9835C137.133 96.6196 137.133 96.2545 137.109 95.8906C137.109 95.4061 137.01 95.3696 137.649 95.3733H145.838C146.29 95.3733 146.29 95.3732 146.297 95.8104V96.08C146.297 106.21 146.297 116.341 146.297 126.473C146.297 127.202 146.41 127.129 145.641 127.133H137.78C137.652 127.133 137.525 127.133 137.415 127.133C137.215 127.133 137.127 127.078 137.127 126.86C137.127 125.668 137.127 124.481 137.127 123.289C137.133 123.201 137.156 123.115 137.197 123.037C137.238 122.958 137.295 122.889 137.364 122.834C138.249 121.873 138.877 120.704 139.188 119.435C139.622 117.614 139.648 115.792 138.885 114.047C138.543 113.292 138.046 112.617 137.426 112.065C137.341 112.004 137.273 111.922 137.226 111.829C137.179 111.735 137.155 111.631 137.156 111.526C137.156 107.742 137.156 103.957 137.156 100.171C137.15 99.9543 137.224 99.7428 137.364 99.5773C137.565 99.2858 137.795 98.9616 138.057 98.6155Z" fill="#173303"/>
<path d="M141.655 91.0961H137.536C137.121 91.0961 137.113 91.0961 137.113 90.6808C137.113 88.2521 137.113 85.8235 137.113 83.3948C137.113 82.9868 137.113 82.9795 137.533 82.9795H145.875C146.291 82.9795 146.298 82.9795 146.298 83.3912C146.298 85.8198 146.298 88.2485 146.298 90.6771C146.298 91.0851 146.298 91.0924 145.879 91.0961H141.655Z" fill="#173303"/>
<path d="M275.568 80.2295C277.027 80.1567 278.486 80.0838 279.945 80C280.15 80 280.255 80.0437 280.241 80.2623C280.241 80.2987 280.241 80.3352 280.241 80.3716C280.241 82.7128 280.241 85.054 280.241 87.3952C280.241 87.7595 280.241 87.7596 279.84 87.7851C278.577 87.8543 277.315 87.9126 276.053 87.9709L271.311 88.1821C270.841 88.1821 270.844 88.1821 270.83 87.7268C270.776 85.541 270.72 83.3625 270.662 81.1913C270.662 81.0492 270.662 80.9034 270.662 80.7614C270.662 80.5537 270.731 80.4699 270.939 80.4663C271.227 80.4663 271.512 80.4262 271.804 80.4117L275.59 80.2332L275.568 80.2295Z" fill="#173303"/>
<path d="M426.711 81.7158H425.715V81.0127H428.564V81.7158H427.55V84.714H426.711V81.7158Z" fill="#173303"/>
<path d="M432.125 83.2966C432.125 82.8521 432.092 82.313 432.092 81.7775C431.976 82.2474 431.823 82.7756 431.68 83.2091L431.228 84.6663H430.575L430.177 83.231C430.057 82.7975 429.929 82.2693 429.842 81.7738C429.82 82.2729 429.805 82.8448 429.776 83.3038L429.711 84.71H428.934L429.171 81.0088H430.287L430.652 82.2437C430.768 82.6736 430.881 83.1326 430.965 83.5698C431.071 83.1399 431.199 82.6517 431.33 82.2401L431.728 81.0088H432.822L433.023 84.71H432.206L432.125 83.2966Z" fill="#173303"/>
</g>
<defs>
<clipPath id="clip0_809_4577">
<rect width="396" height="48" fill="white" transform="translate(37 80)"/>
</clipPath>
</defs>
</svg>
