<svg width="48" height="48" viewBox="0 0 48 48" fill="none" xmlns="http://www.w3.org/2000/svg">
<circle cx="24" cy="24" r="24" fill="#F6F6F6"/>
<path d="M22.88 25.575H20.045V28.485H18.065V25.575H15.23V23.745H18.065V20.835H20.045V23.745H22.88V25.575ZM24.9324 21.945C24.9824 20.945 25.3324 20.175 25.9824 19.635C26.6424 19.085 27.5074 18.81 28.5774 18.81C29.3074 18.81 29.9324 18.94 30.4524 19.2C30.9724 19.45 31.3624 19.795 31.6224 20.235C31.8924 20.665 32.0274 21.155 32.0274 21.705C32.0274 22.335 31.8624 22.87 31.5324 23.31C31.2124 23.74 30.8274 24.03 30.3774 24.18V24.24C30.9574 24.42 31.4074 24.74 31.7274 25.2C32.0574 25.66 32.2224 26.25 32.2224 26.97C32.2224 27.57 32.0824 28.105 31.8024 28.575C31.5324 29.045 31.1274 29.415 30.5874 29.685C30.0574 29.945 29.4174 30.075 28.6674 30.075C27.5374 30.075 26.6174 29.79 25.9074 29.22C25.1974 28.65 24.8224 27.81 24.7824 26.7H26.8224C26.8424 27.19 27.0074 27.585 27.3174 27.885C27.6374 28.175 28.0724 28.32 28.6224 28.32C29.1324 28.32 29.5224 28.18 29.7924 27.9C30.0724 27.61 30.2124 27.24 30.2124 26.79C30.2124 26.19 30.0224 25.76 29.6424 25.5C29.2624 25.24 28.6724 25.11 27.8724 25.11H27.4374V23.385H27.8724C29.2924 23.385 30.0024 22.91 30.0024 21.96C30.0024 21.53 29.8724 21.195 29.6124 20.955C29.3624 20.715 28.9974 20.595 28.5174 20.595C28.0474 20.595 27.6824 20.725 27.4224 20.985C27.1724 21.235 27.0274 21.555 26.9874 21.945H24.9324Z" fill="black"/>
</svg>
