<svg width="55" height="23" viewBox="0 0 55 23" fill="none" xmlns="http://www.w3.org/2000/svg">
<g id="Group">
<g id="Group_2">
<g id="Group_3">
<path id="Vector" d="M12.4613 3.60735C13.2377 2.63622 13.7645 1.33241 13.6256 0C12.4892 0.0565419 11.1023 0.749855 10.2994 1.72163C9.5784 2.55392 8.94035 3.91234 9.10675 5.18885C10.3823 5.29948 11.657 4.55117 12.4613 3.60735Z" fill="#333333"/>
<path id="Vector_2" d="M13.6127 5.43708C11.76 5.3267 10.1847 6.48858 9.29991 6.48858C8.4147 6.48858 7.05979 5.49272 5.59436 5.51951C3.68705 5.54759 1.91728 6.62601 0.949394 8.3412C-1.04138 11.7725 0.424042 16.8623 2.35995 19.6568C3.30002 21.0393 4.43315 22.5617 5.92601 22.5069C7.33657 22.4516 7.88948 21.5935 9.60399 21.5935C11.3173 21.5935 11.8154 22.5069 13.3085 22.4793C14.857 22.4516 15.825 21.096 16.7651 19.7121C17.8436 18.136 18.2851 16.6142 18.3128 16.5306C18.285 16.5029 15.327 15.3681 15.2995 11.9654C15.2716 9.1163 17.622 7.76097 17.7326 7.67699C16.4055 5.71412 14.3316 5.49272 13.6127 5.43708Z" fill="#333333"/>
</g>
<g id="Group_4">
<path id="Vector_3" d="M29.9026 5.12891C32.5866 5.12891 34.4554 6.979 34.4554 9.67258C34.4554 12.3758 32.548 14.2355 29.8353 14.2355H26.8638V18.9612H24.7168V5.12891H29.9026ZM26.8637 12.4333H29.3272C31.1964 12.4333 32.2603 11.4269 32.2603 9.6822C32.2603 7.93769 31.1964 6.94071 29.3368 6.94071H26.8637V12.4333Z" fill="#333333"/>
<path id="Vector_4" d="M35.0156 16.0936C35.0156 14.3297 36.3672 13.2466 38.7638 13.1124L41.5243 12.9495V12.1731C41.5243 11.0516 40.767 10.3805 39.5019 10.3805C38.3034 10.3805 37.5558 10.9556 37.3739 11.8568H35.4184C35.5334 10.0353 37.0861 8.69336 39.5785 8.69336C42.0228 8.69336 43.5852 9.98744 43.5852 12.01V18.9597H41.6009V17.3014H41.5531C40.9685 18.423 39.6935 19.1322 38.3707 19.1322C36.396 19.1322 35.0156 17.9052 35.0156 16.0936ZM41.5242 15.183V14.3874L39.0415 14.5407C37.805 14.6271 37.1053 15.1735 37.1053 16.0362C37.1053 16.918 37.8337 17.4932 38.9457 17.4932C40.3931 17.493 41.5242 16.4962 41.5242 15.183Z" fill="#333333"/>
<path id="Vector_5" d="M45.4598 22.672V20.9944C45.613 21.0327 45.958 21.0327 46.1306 21.0327C47.0891 21.0327 47.6068 20.6302 47.923 19.5949C47.923 19.5757 48.1053 18.9814 48.1053 18.9718L44.4629 8.87793H46.7057L49.2558 17.0834H49.2939L51.844 8.87793H54.0292L50.2522 19.4893C49.3898 21.9339 48.3929 22.7199 46.3032 22.7199C46.1306 22.7199 45.6129 22.7006 45.4598 22.672Z" fill="#333333"/>
</g>
</g>
</g>
</svg>
