<svg width="40" height="40" viewBox="0 0 40 40" fill="none" xmlns="http://www.w3.org/2000/svg">
<g id="fi_731985">
<g id="Group">
<g id="Group_2">
<path id="Vector" d="M27.4967 0C25.3642 0.147499 22.8717 1.51249 21.4192 3.28998C20.0942 4.90247 19.0042 7.29746 19.4292 9.62494C21.7592 9.69744 24.1667 8.29995 25.5617 6.49246C26.8667 4.80997 27.8542 2.42999 27.4967 0Z" fill="black"/>
</g>
</g>
<g id="Group_3">
<g id="Group_4">
<path id="Vector_2" d="M35.9229 13.4198C33.8754 10.8523 30.998 9.3623 28.2805 9.3623C24.693 9.3623 23.1755 11.0798 20.683 11.0798C18.113 11.0798 16.1605 9.3673 13.0581 9.3673C10.0106 9.3673 6.7656 11.2298 4.70811 14.4148C1.81563 18.8997 2.31063 27.3322 6.9981 34.5147C8.67559 37.0846 10.9156 39.9746 13.8456 39.9996C16.453 40.0246 17.188 38.3271 20.7205 38.3096C24.253 38.2896 24.923 40.0221 27.5255 39.9946C30.458 39.9721 32.8205 36.7696 34.4979 34.1997C35.7004 32.3572 36.1479 31.4297 37.0804 29.3497C30.298 26.7672 29.2105 17.1223 35.9229 13.4198Z" fill="black"/>
</g>
</g>
</g>
</svg>
