<svg width="50" height="21" viewBox="0 0 50 21" fill="none" xmlns="http://www.w3.org/2000/svg">
<g id="Group">
<g id="Group_2">
<g id="Group_3">
<path id="Vector" d="M11.4158 3.30453C12.127 2.41492 12.6095 1.22056 12.4823 0C11.4413 0.0517955 10.1708 0.686909 9.43532 1.57711C8.77485 2.33953 8.19036 3.58392 8.3428 4.75327C9.5113 4.85462 10.679 4.16913 11.4158 3.30453Z" fill="white"/>
<path id="Vector_2" d="M12.47 4.98138C10.7728 4.88027 9.32977 5.94461 8.51923 5.94461C7.70833 5.94461 6.46715 5.03235 5.12475 5.05689C3.37754 5.08261 1.75634 6.0705 0.869697 7.64171C-0.953962 10.785 0.388446 15.4475 2.16184 18.0074C3.023 19.2739 4.06101 20.6685 5.42855 20.6183C6.7207 20.5676 7.2272 19.7816 8.79778 19.7816C10.3673 19.7816 10.8235 20.6183 12.1913 20.593C13.6098 20.5676 14.4966 19.3258 15.3577 18.058C16.3457 16.6143 16.7502 15.2203 16.7755 15.1437C16.7501 15.1183 14.0403 14.0788 14.0152 10.9617C13.9896 8.35175 16.1427 7.11019 16.244 7.03326C15.0283 5.23517 13.1286 5.03235 12.47 4.98138Z" fill="white"/>
</g>
<g id="Group_4">
<path id="Vector_3" d="M27.3931 4.69629C29.8517 4.69629 31.5637 6.39107 31.5637 8.85855C31.5637 11.3348 29.8164 13.0384 27.3314 13.0384H24.6093V17.3675H22.6426V4.69629H27.3931ZM24.6092 11.3875H26.8659C28.5783 11.3875 29.5528 10.4656 29.5528 8.86735C29.5528 7.26929 28.5783 6.356 26.8747 6.356H24.6092V11.3875Z" fill="white"/>
<path id="Vector_4" d="M32.0781 14.742C32.0781 13.1261 33.3162 12.1339 35.5117 12.011L38.0404 11.8617V11.1505C38.0404 10.1231 37.3467 9.50842 36.1878 9.50842C35.0899 9.50842 34.405 10.0352 34.2384 10.8607H32.4471C32.5525 9.19222 33.9748 7.96289 36.258 7.96289C38.497 7.96289 39.9283 9.14834 39.9283 11.0011V17.3674H38.1106V15.8483H38.0668C37.5313 16.8758 36.3633 17.5255 35.1516 17.5255C33.3427 17.5255 32.0781 16.4014 32.0781 14.742ZM38.0403 13.9078V13.179L35.766 13.3194C34.6333 13.3985 33.9923 13.899 33.9923 14.6893C33.9923 15.4971 34.6596 16.024 35.6783 16.024C37.0042 16.0239 38.0403 15.1107 38.0403 13.9078Z" fill="white"/>
<path id="Vector_5" d="M41.6437 20.766V19.2293C41.784 19.2643 42.1001 19.2643 42.2582 19.2643C43.1362 19.2643 43.6105 18.8956 43.9001 17.9472C43.9001 17.9296 44.0671 17.3852 44.0671 17.3764L40.7305 8.12988H42.785L45.121 15.6466H45.1559L47.4919 8.12988H49.4937L46.0338 17.8505C45.2438 20.0899 44.3306 20.8099 42.4163 20.8099C42.2582 20.8099 41.7839 20.7923 41.6437 20.766Z" fill="white"/>
</g>
</g>
</g>
</svg>
