<svg width="35" height="25" viewBox="0 0 35 25" fill="none" xmlns="http://www.w3.org/2000/svg">
<path d="M34.75 3.02175V21.1522C34.75 22.821 33.3971 24.1739 31.7282 24.1739H3.02176C1.35287 24.1739 0 22.821 0 21.1522V3.02175C0 1.35294 1.35287 0 3.02176 0H31.7283C33.397 0 34.75 1.35294 34.75 3.02175Z" fill="#384656"/>
<path d="M34.75 6.79785V21.1511C34.75 22.8199 33.3971 24.1728 31.7282 24.1728H3.02176C1.35287 24.1728 0 22.8199 0 21.1511V6.79785H34.75Z" fill="url(#paint0_linear_2899_451)"/>
<path d="M10.5241 9.82079H4.58487C4.13889 9.82079 3.77734 9.45924 3.77734 9.01326V4.58487C3.77734 4.13889 4.13889 3.77734 4.58487 3.77734H10.524C10.97 3.77734 11.3315 4.13889 11.3315 4.58487V9.01312C11.3317 9.45924 10.97 9.82079 10.5241 9.82079Z" fill="#FED76E"/>
<path d="M11.3317 6.79785V9.01201C11.3317 9.45799 10.9701 9.81954 10.5241 9.81954H4.58487C4.13889 9.81954 3.77734 9.45799 3.77734 9.01201V6.79785H11.3317Z" fill="#FEAF50"/>
<path d="M8.87675 18.1301C8.87675 18.4429 8.62304 18.6967 8.31016 18.6967H3.77753C3.46464 18.6967 3.21094 18.4429 3.21094 18.1301C3.21094 17.8172 3.46464 17.5635 3.77753 17.5635H8.31016C8.62304 17.5635 8.87675 17.8172 8.87675 18.1301ZM15.8645 17.5635H11.3318C11.019 17.5635 10.7653 17.8172 10.7653 18.1301C10.7653 18.443 11.019 18.6967 11.3318 18.6967H15.8645C16.1774 18.6967 16.4311 18.443 16.4311 18.1301C16.4311 17.8172 16.1774 17.5635 15.8645 17.5635ZM23.4188 17.5635H18.8862C18.5733 17.5635 18.3196 17.8172 18.3196 18.1301C18.3196 18.443 18.5733 18.6967 18.8862 18.6967H23.4188C23.7317 18.6967 23.9854 18.443 23.9854 18.1301C23.9854 17.8172 23.7318 17.5635 23.4188 17.5635ZM30.9732 17.5635H26.4406C26.1277 17.5635 25.874 17.8172 25.874 18.1301C25.874 18.443 26.1277 18.6967 26.4406 18.6967H30.9732C31.2861 18.6967 31.5398 18.443 31.5398 18.1301C31.5398 17.8172 31.2861 17.5635 30.9732 17.5635Z" fill="#A62C18"/>
<path d="M7.93155 7.93237H7.17614C6.55037 7.93237 6.04297 7.42503 6.04297 6.79919C6.04297 6.17342 6.5503 5.66602 7.17614 5.66602H7.93155C8.55732 5.66602 9.06472 6.17335 9.06472 6.79919C9.06466 7.42496 8.55732 7.93237 7.93155 7.93237Z" fill="#FEE66B"/>
<path d="M27.0818 6.79924C27.0818 7.11212 26.8281 7.36583 26.5152 7.36583H26.4396C26.1267 7.36583 25.873 7.11212 25.873 6.79924C25.873 6.48635 26.1267 6.23265 26.4396 6.23265H26.5152C26.8281 6.23265 27.0818 6.48635 27.0818 6.79924ZM28.3101 5.00188C28.0395 4.84509 27.6927 4.93733 27.5358 5.20814C27.3789 5.47887 27.4712 5.82556 27.742 5.98248C28.0337 6.15148 28.2149 6.46443 28.2149 6.79931C28.2149 7.13418 28.0338 7.44714 27.742 7.61613C27.4713 7.77305 27.379 8.11974 27.5358 8.39048C27.6408 8.57176 27.8311 8.67316 28.0265 8.67316C28.1229 8.67316 28.2206 8.64852 28.31 8.59674C28.9503 8.22582 29.348 7.53706 29.348 6.79937C29.348 6.06168 28.9503 5.37279 28.3101 5.00188ZM29.8207 3.69244C29.55 3.53586 29.2033 3.62817 29.0466 3.89904C28.8898 4.16985 28.9823 4.51646 29.2532 4.67318C30.0107 5.11149 30.4813 5.92614 30.4813 6.79917C30.4813 7.6722 30.0107 8.48692 29.2532 8.9253C28.9824 9.08208 28.8898 9.42863 29.0466 9.69944C29.1516 9.88099 29.3419 9.98232 29.5375 9.98232C29.6339 9.98232 29.7314 9.95769 29.8208 9.90604C30.9272 9.26574 31.6145 8.07535 31.6145 6.79917C31.6145 5.52299 30.9271 4.33267 29.8207 3.69244Z" fill="#D4E8FF"/>
<defs>
<linearGradient id="paint0_linear_2899_451" x1="17.375" y1="6.79785" x2="17.375" y2="24.1728" gradientUnits="userSpaceOnUse">
<stop stop-color="#01C072"/>
<stop offset="1" stop-color="#01C072" stop-opacity="0"/>
</linearGradient>
</defs>
</svg>
