<svg width="48" height="48" viewBox="0 0 48 48" fill="none" xmlns="http://www.w3.org/2000/svg">
<g id="fi_11089635">
<g id="Group">
<path id="Vector" d="M48 39C48 40.656 46.656 42 45 42H3C1.344 42 0 40.656 0 39V9C0 7.344 1.344 6 3 6H45C46.656 6 48 7.344 48 9V39Z" fill="#EAEAEA"/>
<path id="Vector_2" opacity="0.1" d="M45 40.5H3C1.344 40.5 0 39.156 0 37.5V39C0 40.656 1.344 42 3 42H45C46.656 42 48 40.656 48 39V37.5C48 39.156 46.656 40.5 45 40.5Z" fill="black"/>
<g id="Group_2" opacity="0.1">
<path id="Vector_3" d="M6 30H25.5V34.5H6V30Z" fill="black"/>
<path id="Vector_4" d="M28.5 30H36V34.5H28.5V30Z" fill="black"/>
</g>
<path id="Vector_5" d="M36 22.5C39.3137 22.5 42 19.8137 42 16.5C42 13.1863 39.3137 10.5 36 10.5C32.6863 10.5 30 13.1863 30 16.5C30 19.8137 32.6863 22.5 36 22.5Z" fill="#EACA44"/>
<path id="Vector_6" d="M28.5 16.5C28.5 14.598 29.2305 12.882 30.3975 11.559C29.43 10.8945 28.263 10.5 27 10.5C23.6865 10.5 21 13.1865 21 16.5C21 19.8135 23.6865 22.5 27 22.5C28.263 22.5 29.43 22.1055 30.3975 21.441C29.2305 20.118 28.5 18.402 28.5 16.5Z" fill="#EF4D4D"/>
</g>
</g>
</svg>
