<svg width="22" height="22" viewBox="0 0 22 22" fill="none" xmlns="http://www.w3.org/2000/svg">
<g id="fi_657076">
<g id="Group">
<g id="Group_2">
<path id="Vector" d="M20.68 3.51953H1.32C0.592238 3.51953 0 4.11177 0 4.83953V17.1595C0 17.8873 0.592238 18.4795 1.32 18.4795H20.68C21.4078 18.4795 22 17.8873 22 17.1595V4.83953C22 4.11177 21.4078 3.51953 20.68 3.51953ZM21.12 17.1595C21.12 17.4015 20.922 17.5995 20.68 17.5995H1.32C1.07714 17.5995 0.88 17.4015 0.88 17.1595V4.83953C0.88 4.59663 1.07714 4.39953 1.32 4.39953H20.68C20.922 4.39953 21.12 4.59663 21.12 4.83953V17.1595Z" fill="black"/>
</g>
</g>
<g id="Group_3">
<g id="Group_4">
<path id="Vector_2" d="M21.5575 7.48047H0.4375V9.24047H21.5575V7.48047Z" fill="black"/>
</g>
</g>
<g id="Group_5">
<g id="Group_6">
<path id="Vector_3" d="M21.56 7.04004H0.44C0.197141 7.04004 0 7.23714 0 7.48004V9.24004C0 9.48294 0.197141 9.68004 0.44 9.68004H21.56C21.8029 9.68004 22 9.48294 22 9.24004V7.48004C22 7.23714 21.8029 7.04004 21.56 7.04004ZM21.12 8.80004H0.88V7.92004H21.12V8.80004Z" fill="black"/>
</g>
</g>
<g id="Group_7">
<g id="Group_8">
<path id="Vector_4" d="M11.8834 12.3203H3.96344C3.72058 12.3203 3.52344 12.5175 3.52344 12.7603C3.52344 13.0032 3.72058 13.2003 3.96344 13.2003H11.8834C12.1263 13.2003 12.3234 13.0032 12.3234 12.7603C12.3234 12.5174 12.1263 12.3203 11.8834 12.3203Z" fill="black"/>
</g>
</g>
<g id="Group_9">
<g id="Group_10">
<path id="Vector_5" d="M8.36344 14.0801H3.96344C3.72058 14.0801 3.52344 14.2772 3.52344 14.5201C3.52344 14.7629 3.72058 14.9601 3.96344 14.9601H8.36344C8.6063 14.9601 8.80344 14.7629 8.80344 14.5201C8.80344 14.2772 8.6063 14.0801 8.36344 14.0801Z" fill="black"/>
</g>
</g>
</g>
</svg>
