<svg width="48" height="48" viewBox="0 0 48 48" fill="none" xmlns="http://www.w3.org/2000/svg">
<g id="fi_2726344" clip-path="url(#clip0_3110_858)">
<g id="Group">
<path id="Vector" d="M35.953 0H14.8594C14.4711 0 14.1562 0.314811 14.1562 0.703122V47.2967C14.1562 47.685 14.4711 47.9998 14.8594 47.9998H35.953C36.3414 47.9998 36.6562 47.685 36.6562 47.2967V0.703122C36.6562 0.314811 36.3414 0 35.953 0ZM35.2499 46.5936H15.5625V1.40624H35.2499V46.5936Z" fill="white"/>
<path id="Vector_2" d="M17.6719 24.7031H33.1406C33.5289 24.7031 33.8438 24.3883 33.8438 24V3.51562C33.8438 3.12731 33.5289 2.8125 33.1406 2.8125H17.6719C17.2836 2.8125 16.9688 3.12731 16.9688 3.51562V24C16.9688 24.3883 17.2836 24.7031 17.6719 24.7031ZM18.375 4.21875H32.4375V23.2969H18.375V4.21875Z" fill="white"/>
<path id="Vector_3" d="M17.6719 45.1875H33.1406C33.5289 45.1875 33.8438 44.8727 33.8438 44.4844V32.4375C33.8438 32.0492 33.5289 31.7344 33.1406 31.7344H17.6719C17.2836 31.7344 16.9688 32.0492 16.9688 32.4375V44.4844C16.9688 44.8727 17.2836 45.1875 17.6719 45.1875ZM18.375 33.1406H32.4375V43.7812H18.375V33.1406Z" fill="white"/>
<path id="Vector_4" d="M23.2969 28.2188C23.2969 29.3819 24.2431 30.3281 25.4063 30.3281C26.5694 30.3281 27.5156 29.3819 27.5156 28.2188C27.5156 27.0556 26.5694 26.1094 25.4063 26.1094C24.2431 26.1094 23.2969 27.0556 23.2969 28.2188ZM26.1094 28.2188C26.1094 28.6065 25.794 28.9219 25.4063 28.9219C25.0185 28.9219 24.7031 28.6065 24.7031 28.2188C24.7031 27.831 25.0185 27.5156 25.4063 27.5156C25.794 27.5156 26.1094 27.831 26.1094 28.2188Z" fill="white"/>
<path id="Vector_5" d="M42.9844 33.9375C44.9229 33.9375 46.5 32.3604 46.5 30.4219C46.5 29.1037 45.4276 28.0312 44.1094 28.0312C43.9669 28.0312 43.8259 28.0444 43.6875 28.0691V27.6094C43.6875 27.2211 43.3727 26.9062 42.9844 26.9062C42.5961 26.9062 42.2812 27.2211 42.2812 27.6094V28.0691C42.1429 28.0444 42.0019 28.0312 41.8594 28.0312C40.5412 28.0312 39.4688 29.1037 39.4688 30.4219C39.4688 32.3604 41.0458 33.9375 42.9844 33.9375ZM41.8594 29.4375C42.1017 29.4375 42.3348 29.5266 42.5154 29.6883C42.7825 29.9272 43.1864 29.9272 43.4534 29.6883C43.6341 29.5266 43.867 29.4375 44.1095 29.4375C44.6523 29.4375 45.0938 29.8791 45.0938 30.4219C45.0938 31.585 44.1476 32.5312 42.9845 32.5312C41.8213 32.5312 40.8751 31.585 40.8751 30.4219C40.875 29.8791 41.3166 29.4375 41.8594 29.4375Z" fill="white"/>
<path id="Vector_6" d="M47.5349 35.427C47.3062 35.3046 47.0289 35.3179 46.8131 35.4619L45.7969 36.1395L44.7806 35.4619C44.5444 35.3044 44.2368 35.3044 44.0006 35.4619L42.9844 36.1395L41.9681 35.4619C41.7319 35.3044 41.4243 35.3044 41.1881 35.4619L40.1719 36.1395L39.1556 35.4619C38.9398 35.318 38.6624 35.3046 38.4338 35.427C38.2053 35.5493 38.0625 35.7876 38.0625 36.0469V47.2969C38.0625 47.6852 38.3773 48.0001 38.7656 48.0001H47.2031C47.5914 48.0001 47.9062 47.6852 47.9062 47.2969V36.0469C47.9062 35.7876 47.7636 35.5493 47.5349 35.427ZM46.5 46.5938H39.4688V37.3607L39.7819 37.5695C40.0181 37.727 40.3257 37.727 40.5619 37.5695L41.5781 36.892L42.5944 37.5695C42.8306 37.727 43.1382 37.727 43.3744 37.5695L44.3906 36.892L45.4069 37.5695C45.6431 37.727 45.9507 37.727 46.1869 37.5695L46.5 37.3607V46.5938Z" fill="white"/>
<path id="Vector_7" d="M12.2694 46.6297L9.9377 45.8524V30.8616C10.8068 29.9736 11.3439 28.7595 11.3439 27.4218V23.5864C12.2205 22.947 12.7502 21.936 12.7502 20.8593V18.0468C12.7502 16.6252 11.5937 15.4687 10.1721 15.4687H9.86195C10.7755 14.5746 11.3439 13.3292 11.3439 11.9531V9.14061C11.3439 6.42665 9.13605 4.21875 6.42209 4.21875C3.70813 4.21875 1.50023 6.42665 1.50023 9.14061V11.9531C1.50023 13.3292 2.06864 14.5746 2.98223 15.4687H2.6721C1.25049 15.4687 0.09399 16.6252 0.09399 18.0468V20.8593C0.09399 21.936 0.623676 22.9471 1.50023 23.5864V27.4218C1.50023 28.7595 2.03742 29.9736 2.90648 30.8616V45.8524L0.574738 46.6297C0.206302 46.7525 0.00727163 47.1506 0.12999 47.5191C0.228239 47.8137 0.502551 48 0.796925 48C0.870612 48 0.945612 47.9883 1.01939 47.9637L3.83188 47.0262C4.11904 46.9305 4.31263 46.6618 4.31263 46.3592V31.8678C4.95238 32.1725 5.6675 32.3436 6.422 32.3436C7.17649 32.3436 7.89161 32.1725 8.53136 31.8678V46.3592C8.53136 46.6618 8.72505 46.9305 9.01211 47.0262L11.8246 47.9637C11.8984 47.9883 11.9733 48 12.0471 48C12.3414 48 12.6158 47.8136 12.714 47.5191C12.8369 47.1506 12.6378 46.7525 12.2694 46.6297ZM6.42209 5.62499C8.36064 5.62499 9.9377 7.20205 9.9377 9.14061V9.37498H8.23811C7.82665 8.79373 7.15568 8.43748 6.42209 8.43748C5.6885 8.43748 5.01753 8.79373 4.60607 9.37498H2.90648V9.14061C2.90648 7.20205 4.48353 5.62499 6.42209 5.62499ZM2.90648 11.9531V10.7812H5.01585C5.29963 10.7812 5.55556 10.6107 5.66478 10.3488C5.79275 10.042 6.09003 9.84373 6.42218 9.84373C6.75434 9.84373 7.05152 10.042 7.17959 10.3488C7.28881 10.6106 7.54474 10.7812 7.82852 10.7812H9.93789V11.9531C9.93789 13.8916 8.36083 15.4687 6.42228 15.4687C4.48372 15.4687 2.90648 13.8916 2.90648 11.9531ZM1.50023 20.8593V18.0468C1.50023 17.4006 2.02589 16.8749 2.6721 16.8749H10.1721C10.8183 16.8749 11.3439 17.4006 11.3439 18.0468V20.8593C11.3439 21.567 10.9434 22.2297 10.2987 22.5888C10.0759 22.7129 9.9377 22.9481 9.9377 23.203V26.7187H2.90648V23.203C2.90648 22.948 2.76829 22.7128 2.54545 22.5888C1.90073 22.2297 1.50023 21.567 1.50023 20.8593ZM2.97726 28.1249H9.86701C9.54039 29.7276 8.11999 30.9374 6.42218 30.9374C4.72438 30.9374 3.30388 29.7276 2.97726 28.1249Z" fill="white"/>
</g>
</g>
<defs>
<clipPath id="clip0_3110_858">
<rect width="48" height="48" fill="white"/>
</clipPath>
</defs>
</svg>
