<svg width="40" height="40" viewBox="0 0 40 40" fill="none" xmlns="http://www.w3.org/2000/svg">
<g id="fi_512142">
<g id="Group">
<g id="Group_2">
<path id="Vector" d="M4.00003 24.0001C6.20918 24.0001 8.00006 22.2092 8.00006 20C8.00006 17.7909 6.20918 16 4.00003 16C1.79087 16 0 17.7909 0 20C0 22.2092 1.79087 24.0001 4.00003 24.0001Z" fill="black"/>
</g>
</g>
<g id="Group_3">
<g id="Group_4">
<path id="Vector_2" d="M20 24.0001C22.2092 24.0001 24.0001 22.2092 24.0001 20C24.0001 17.7909 22.2092 16 20 16C17.7909 16 16 17.7909 16 20C16 22.2092 17.7909 24.0001 20 24.0001Z" fill="black"/>
</g>
</g>
<g id="Group_5">
<g id="Group_6">
<path id="Vector_3" d="M36 24.0001C38.2092 24.0001 40.0001 22.2092 40.0001 20C40.0001 17.7909 38.2092 16 36 16C33.7909 16 32 17.7909 32 20C32 22.2092 33.7909 24.0001 36 24.0001Z" fill="black"/>
</g>
</g>
</g>
</svg>
