<svg width="40" height="40" viewBox="0 0 40 40" fill="none" xmlns="http://www.w3.org/2000/svg">
<g id="fi_11520614">
<g id="Group">
<path id="Vector" d="M35.656 15.0302H31.8581V11.5596C31.8581 8.86523 29.9642 6.57797 27.3361 6.06805L27.3596 5.83461C27.4384 5.05117 27.2516 4.29836 26.8337 3.71469C26.128 2.72945 24.9085 2.23992 23.7261 2.46719L22.0767 2.78453C21.3926 2.91617 20.6959 2.93352 20.0063 2.83641L9.31273 1.3293V1.21219C9.31273 0.54375 8.76898 0 8.10055 0H4.34305C3.67461 0 3.13086 0.54375 3.13086 1.21219V10.6061C3.13086 11.2745 3.67461 11.8183 4.34305 11.8183H8.10063C8.76906 11.8183 9.31281 11.2745 9.31281 10.6061V10.5658H17.7852C18.3088 10.5658 18.8126 10.7242 19.242 11.0238L20.6662 12.0178V15.0302H16.8683C16.1998 15.0302 15.6561 15.574 15.6561 16.2424V38.7878C15.6561 39.4562 16.1998 40 16.8683 40H35.6561C36.3245 40 36.8683 39.4562 36.8683 38.7878V16.2424C36.8682 15.5741 36.3245 15.0302 35.656 15.0302ZM17.7852 9.39391H9.31273V5.59602C9.31273 5.27242 9.05039 5.01008 8.7268 5.01008C8.4032 5.01008 8.14086 5.27242 8.14086 5.59602V10.6061C8.14086 10.6284 8.12281 10.6464 8.10055 10.6464H4.34305C4.32078 10.6464 4.30273 10.6284 4.30273 10.6061V1.21219C4.30273 1.18992 4.32078 1.17188 4.34305 1.17188H8.10063C8.12289 1.17188 8.14094 1.18992 8.14094 1.21219V3.09094C8.14094 3.41453 8.40328 3.67687 8.72687 3.67687C9.05047 3.67687 9.31281 3.41453 9.31281 3.09094V2.51273L19.8427 3.99688C20.6607 4.11219 21.4869 4.09148 22.2981 3.93539L23.9475 3.61805C24.6929 3.47461 25.4341 3.77305 25.8809 4.39711C26.0641 4.65281 26.1717 4.97086 26.198 5.31719L25.4612 4.81813C25.1934 4.63664 24.829 4.70672 24.6474 4.97469C24.4659 5.24266 24.5361 5.60695 24.804 5.78844L28.0812 8.00797C28.0813 8.00797 28.0812 8.00805 28.0813 8.00805C28.3631 8.19922 28.4987 8.64734 28.3551 8.91313C28.2631 9.08336 28.1105 9.20203 27.9253 9.24734C27.7398 9.29281 27.5507 9.25883 27.3927 9.15187L26.8757 8.80172C26.8752 8.80141 26.8747 8.80102 26.8741 8.8007C26.6062 8.61922 26.2418 8.68937 26.0604 8.95727C25.8789 9.22523 25.9491 9.58953 26.217 9.77102L26.218 9.77172C26.3796 9.88156 26.4845 10.056 26.5059 10.2506C26.5276 10.4482 26.4623 10.6389 26.322 10.7876C26.1075 11.015 25.7086 11.0368 25.4139 10.8373L24.9525 10.5248C24.952 10.5244 24.9514 10.5241 24.9509 10.5237C24.6829 10.3422 24.3187 10.4123 24.1371 10.6802C23.9556 10.9482 24.0258 11.3125 24.2937 11.494C24.4559 11.6038 24.5611 11.7787 24.5826 11.9737C24.6043 12.1713 24.539 12.3619 24.3988 12.5105C24.1848 12.7372 23.7878 12.7597 23.4934 12.5621L19.9125 10.063C19.2855 9.62523 18.5498 9.39391 17.7852 9.39391ZM21.838 12.8357L22.8267 13.5258L22.8335 13.5305C23.1678 13.7569 23.5528 13.8675 23.9313 13.8675C24.4247 13.8675 24.9069 13.6795 25.2511 13.3149C25.5565 12.9914 25.7331 12.5756 25.756 12.1421C26.2835 12.169 26.8075 11.9809 27.1745 11.5918C27.4758 11.2725 27.6518 10.8634 27.6783 10.4361C27.8536 10.4445 28.0305 10.4281 28.204 10.3857C28.7075 10.2625 29.1384 9.92883 29.3861 9.47031C29.5251 9.21305 29.5863 8.92172 29.5805 8.62742C30.273 9.41187 30.6863 10.4412 30.6863 11.5597V15.0303H21.838V12.8357ZM35.6963 38.7878C35.6963 38.8101 35.6783 38.8281 35.656 38.8281H16.8682C16.8459 38.8281 16.8279 38.8101 16.8279 38.7878V16.2424C16.8279 16.2202 16.8459 16.2021 16.8682 16.2021H20.6661V18.1212C20.6661 18.4448 20.9284 18.7071 21.252 18.7071C21.5756 18.7071 21.838 18.4448 21.838 18.1212V16.2021H30.6863V18.1212C30.6863 18.4448 30.9486 18.7071 31.2722 18.7071C31.5958 18.7071 31.8581 18.4448 31.8581 18.1212V16.2021H35.656C35.6783 16.2021 35.6963 16.2202 35.6963 16.2424V38.7878Z" fill="white"/>
<path id="Vector_2" d="M32.4837 26.8886C32.4837 25.8749 31.6589 25.0502 30.6452 25.0502H29.853C29.9338 24.8434 29.9786 24.6187 29.9786 24.3836C29.9786 23.3699 29.1538 22.5452 28.1402 22.5452C27.756 22.5452 27.3992 22.6638 27.104 22.8661C26.7167 22.295 26.0625 21.9189 25.322 21.9189C24.1356 21.9189 23.1704 22.8841 23.1704 24.0705C23.1704 24.4232 23.2563 24.7561 23.4073 25.0503H23.1301C22.1163 25.0503 21.2916 25.875 21.2916 26.8887C21.2916 27.1441 21.3441 27.3875 21.4386 27.6086C20.6362 27.806 20.0391 28.5313 20.0391 29.3937C20.0391 30.2561 20.6362 30.9814 21.4386 31.1788C21.3441 31.4 21.2916 31.6434 21.2916 31.8987C21.2916 32.9125 22.1164 33.7371 23.1301 33.7371H30.6452C31.659 33.7371 32.4837 32.9124 32.4837 31.8987C32.4837 31.0363 31.8866 30.311 31.0841 30.1136C31.1787 29.8924 31.2311 29.649 31.2311 29.3937C31.2311 29.1384 31.1787 28.895 31.0841 28.6738C31.8866 28.4764 32.4837 27.7511 32.4837 26.8886ZM28.1401 23.7171C28.5077 23.7171 28.8066 24.0161 28.8066 24.3836C28.8066 24.7512 28.5076 25.0502 28.1401 25.0502C27.7726 25.0502 27.4735 24.7511 27.4735 24.3836C27.4735 24.0161 27.7726 23.7171 28.1401 23.7171ZM24.3423 24.0705C24.3423 23.5303 24.7817 23.0908 25.322 23.0908C25.8623 23.0908 26.3017 23.5303 26.3017 24.0705C26.3017 24.6107 25.8623 25.0503 25.322 25.0503C24.7817 25.0502 24.3423 24.6107 24.3423 24.0705ZM31.3118 31.8987C31.3118 32.2663 31.0127 32.5653 30.6452 32.5653H23.1301C22.7625 32.5653 22.4635 32.2662 22.4635 31.8987C22.4635 31.5311 22.7626 31.2321 23.1301 31.2321H30.6452C31.0127 31.2321 31.3118 31.5312 31.3118 31.8987ZM30.6452 27.5553H29.3927C29.0691 27.5553 28.8067 27.8176 28.8067 28.1412C28.8067 28.4648 29.0691 28.7271 29.3927 28.7271C29.7602 28.7271 30.0592 29.0262 30.0592 29.3937C30.0592 29.7612 29.7602 30.0603 29.3927 30.0603H21.8775C21.5099 30.0603 21.2109 29.7612 21.2109 29.3937C21.2109 29.0262 21.51 28.7271 21.8775 28.7271H26.8876C27.2112 28.7271 27.4735 28.4648 27.4735 28.1412C27.4735 27.8176 27.2112 27.5553 26.8876 27.5553H23.13C22.7624 27.5553 22.4634 27.2562 22.4634 26.8887C22.4634 26.5212 22.7625 26.2221 23.13 26.2221H30.6452C31.0127 26.2221 31.3117 26.5212 31.3117 26.8887C31.3117 27.2562 31.0127 27.5553 30.6452 27.5553Z" fill="white"/>
</g>
</g>
</svg>
