<svg xmlns="http://www.w3.org/2000/svg" xmlns:xlink="http://www.w3.org/1999/xlink" width="24.424" height="24" viewBox="0 0 24.424 24">
  <defs>
    <style>
      .cls-1 {
        fill: url(#linear-gradient);
      }
    </style>
    <linearGradient id="linear-gradient" x1="0.5" x2="0.5" y2="1" gradientUnits="objectBoundingBox">
      <stop offset="0" stop-color="#f76b75"/>
      <stop offset="1" stop-color="#de484a"/>
    </linearGradient>
  </defs>
  <path id="Union_108" data-name="Union 108" class="cls-1" d="M10.6,23.847q-.051-4.039-.1-8.079-.03-2.329-.061-4.657c0-.152,0-.153-.154-.2l-1.038-.319a.219.219,0,0,1,.142-.031h4.188c.179,0,.157,0,.157.187v5.494c.069.014.085-.037.11-.067q2.187-2.5,4.369-5a.376.376,0,0,1,.318-.145c1.078.005,2.156,0,3.234,0h.179c.013.077-.036.105-.066.14Q20.1,13.238,18.324,15.3l-1.159,1.346c-.125.145-.1.12,0,.244l3.515,4.632,1.186,1.564a.308.308,0,0,1,.09.167h-.178c-1.166,0-2.33,0-3.5,0A.321.321,0,0,1,18,23.123Q15.947,20.561,13.891,18a.513.513,0,0,0-.16-.162v.212c0,.748,0,1.5.01,2.245a.413.413,0,0,1-.113.3q-1.451,1.65-2.9,3.3c-.032.037-.057.083-.11.1C10.573,23.959,10.6,23.9,10.6,23.847ZM1.446,20.039q0-6.919,0-13.838c0-.311.049-.239-.253-.334C.8,5.742.4,5.622,0,5.477H13.882c.02.056-.034.083-.063.117-.641.764-1.285,1.526-1.922,2.292A.311.311,0,0,1,11.623,8Q8.651,8,5.68,8H3.494a.57.57,0,0,0,.238.1c.261.083.524.159.786.24.182.056.148.05.148.2q0,1.524,0,3.048c0,.231-.026.229.157.227H8.584l-.427.507c-.481.572-.963,1.143-1.441,1.719a.306.306,0,0,1-.269.125c-.9-.005-1.806,0-2.71,0a.5.5,0,0,0-.226.024l.172.059c.285.087.57.179.858.26a.148.148,0,0,1,.126.169c0,.561-.005,1.122,0,1.683a.357.357,0,0,1-.11.246Q3.535,17.825,2.513,19.04l-.927,1.1a.333.333,0,0,1-.14.125Zm18.2-11.908V4.786H16.313V3.347h3.338V0h1.436V3.347h3.338V4.786H21.087V8.132Z" transform="translate(-0.001 -0.003)"/>
</svg>
