<svg width="40" height="40" viewBox="0 0 40 40" fill="none" xmlns="http://www.w3.org/2000/svg">
<g id="fi_6583141">
<path id="Vector" d="M31.0846 8.9165C25.0013 2.83317 15.0013 2.83317 8.91797 8.9165C2.83464 14.9998 2.83464 24.9998 8.91797 31.0832C12.0013 34.1665 16.0013 35.6665 20.0013 35.6665C24.0013 35.6665 28.0013 34.1665 31.0846 31.0832C37.168 24.9998 37.168 14.9998 31.0846 8.9165ZM29.918 29.9165C24.5013 35.3332 15.5846 35.3332 10.168 29.9165C4.7513 24.4998 4.7513 15.5832 10.168 10.1665C12.918 7.4165 16.5013 6.08317 20.0846 6.08317C23.668 6.08317 27.2513 7.4165 30.0013 10.1665C35.3346 15.5832 35.3346 24.4165 29.918 29.9165ZM20.5013 17.8332C20.668 17.9998 20.8346 18.2498 20.8346 18.5832V26.5832C20.8346 26.9165 20.7513 27.1665 20.5013 27.3332C20.2513 27.4998 20.0846 27.5832 19.7513 27.5832C19.5013 27.5832 19.2513 27.4998 19.0013 27.3332C18.8346 27.1665 18.668 26.9165 18.668 26.5832V18.5832C18.668 18.2498 18.7513 17.9998 19.0013 17.8332C19.2513 17.6665 19.418 17.5832 19.7513 17.5832C20.0846 17.5832 20.3346 17.6665 20.5013 17.8332ZM20.7513 13.3332C21.0013 13.5832 21.0846 13.8332 21.0846 14.1665C21.0846 14.4998 21.0013 14.8332 20.7513 14.9998C20.5013 15.2498 20.2513 15.3332 19.8346 15.3332C19.418 15.3332 19.168 15.2498 18.918 14.9998C18.668 14.7498 18.5846 14.4998 18.5846 14.1665C18.5846 13.8332 18.668 13.4998 18.918 13.3332C19.168 13.0832 19.5013 12.9998 19.8346 12.9998C20.168 12.9998 20.5013 13.0832 20.7513 13.3332Z" fill="black"/>
</g>
</svg>
