<svg width="48" height="48" viewBox="0 0 48 48" fill="none" xmlns="http://www.w3.org/2000/svg">
<g id="fi_3075867">
<g id="Group">
<path id="Vector" d="M42.6387 3.10631H41.7886V2.25628C41.7886 1.01213 40.7765 0 39.5324 0C38.2882 0 37.2761 1.01213 37.2761 2.25628V3.10631H34.023V2.25628C34.023 1.01213 33.0108 0 31.7668 0C30.5227 0 29.5105 1.01213 29.5105 2.25628V3.10631H26.2574V2.25628C26.2574 1.01213 25.2452 0 24.0011 0C22.7569 0 21.7448 1.01213 21.7448 2.25628V3.10631H18.4917V2.25628C18.4918 1.01213 17.4795 0 16.2355 0C14.9913 0 13.9792 1.01213 13.9792 2.25628V3.10631H13.1291C11.0286 3.10631 9.31983 4.81519 9.31983 6.91556V24.1222L7.59989 22.4022C6.72014 21.5225 5.28877 21.5226 4.40902 22.4022L2.21255 24.5987C1.3328 25.4783 1.3328 26.9098 2.21255 27.7895L9.31973 34.8967V44.1907C9.31973 46.2911 11.0286 48 13.129 48H37.048C37.4363 48 37.7511 47.6852 37.7511 47.2969C37.7511 46.9086 37.4363 46.5938 37.048 46.5938H13.1291C11.804 46.5938 10.7261 45.5157 10.7261 44.1907V36.3029L16.4621 42.0389C16.4788 42.0556 16.4962 42.0713 16.5143 42.0861C16.5266 42.0961 16.5393 42.105 16.5521 42.1141C16.5581 42.1183 16.5637 42.1231 16.5698 42.1271C16.5859 42.1379 16.6025 42.1475 16.6193 42.1567C16.6225 42.1585 16.6255 42.1606 16.6287 42.1623C16.6464 42.1717 16.6645 42.18 16.6827 42.1878C16.6854 42.1889 16.6879 42.1904 16.6907 42.1915C16.7085 42.1988 16.7265 42.205 16.7445 42.2108C16.7483 42.2121 16.7519 42.2136 16.7556 42.2147C16.7727 42.2198 16.7899 42.2239 16.8072 42.2276C16.8123 42.2288 16.8173 42.2303 16.8225 42.2314C16.8392 42.2347 16.8561 42.2368 16.8731 42.2389C16.879 42.2396 16.8847 42.2408 16.8906 42.2414C16.9134 42.2437 16.9364 42.2448 16.9592 42.2448H21.0609L21.9532 43.1371C22.0905 43.2743 22.2705 43.3431 22.4504 43.3431C22.6303 43.3431 22.8103 43.2743 22.9475 43.1371C23.2221 42.8625 23.2221 42.4173 22.9475 42.1427L22.0552 41.2505V37.149C22.0552 37.1259 22.0541 37.103 22.0518 37.08C22.0514 37.0749 22.0502 37.0701 22.0497 37.065C22.0475 37.0472 22.0452 37.0295 22.0417 37.0118C22.0408 37.0073 22.0395 37.0029 22.0384 36.9984C22.0345 36.9805 22.0303 36.9626 22.025 36.945C22.0241 36.9418 22.0228 36.9388 22.0217 36.9356C22.0158 36.917 22.0094 36.8984 22.0019 36.8801C22.001 36.8782 22 36.8763 21.9991 36.8743C21.9911 36.8553 21.9824 36.8364 21.9726 36.8181C21.9713 36.8156 21.9698 36.8135 21.9685 36.811C21.9588 36.7934 21.9487 36.7761 21.9375 36.7592C21.934 36.7539 21.9299 36.7491 21.9262 36.7439C21.9166 36.7303 21.9071 36.7167 21.8965 36.7037C21.8817 36.6856 21.866 36.6682 21.8493 36.6515L16.1132 30.9154H40.3089C40.6972 30.9154 41.012 30.6006 41.012 30.2122C41.012 29.8239 40.6972 29.5091 40.3089 29.5091H15.4589C15.2523 29.5091 15.0671 29.5988 14.9385 29.7406L10.726 25.5281V12.2782H45.0417V17.0736C45.0417 17.4619 45.3565 17.7767 45.7448 17.7767C46.1331 17.7767 46.4479 17.4619 46.4479 17.0736V6.91556C46.448 4.81509 44.7391 3.10631 42.6387 3.10631ZM20.649 40.8386H18.6568L20.649 38.8463V40.8386ZM5.90058 29.4888L7.10273 28.2867L18.1614 39.3454L16.9593 40.5474L5.90058 29.4888ZM19.1557 38.351L8.09705 27.2923L9.2992 26.0902L20.3579 37.1489L19.1557 38.351ZM3.20695 25.5931L5.40342 23.3966C5.73483 23.0652 6.27417 23.0651 6.60558 23.3966L8.30489 25.0959L4.90627 28.4944L3.20705 26.7952C2.87555 26.4638 2.87555 25.9245 3.20695 25.5931ZM39.5324 1.40625C40.0011 1.40625 40.3824 1.78753 40.3824 2.25628V5.3625C40.3824 5.83125 40.0011 6.21253 39.5324 6.21253C39.0636 6.21253 38.6823 5.83125 38.6823 5.3625V3.81038C38.6823 3.81009 38.6823 3.80981 38.6823 3.80944C38.6823 3.80906 38.6823 3.80888 38.6823 3.8085V2.25628C38.6824 1.78753 39.0637 1.40625 39.5324 1.40625ZM31.7668 1.40625C32.2355 1.40625 32.6168 1.78753 32.6168 2.25628V5.3625C32.6168 5.83125 32.2355 6.21253 31.7668 6.21253C31.298 6.21253 30.9167 5.83125 30.9167 5.3625V3.81038C30.9167 3.81009 30.9167 3.80981 30.9167 3.80944C30.9167 3.80906 30.9167 3.80888 30.9167 3.8085V2.25628C30.9167 1.78753 31.298 1.40625 31.7668 1.40625ZM23.1511 2.25628C23.1511 1.78753 23.5324 1.40625 24.0012 1.40625C24.4699 1.40625 24.8512 1.78753 24.8512 2.25628V3.8085V3.80944C24.8512 3.80944 24.8512 3.81 24.8512 3.81038V5.3625C24.8512 5.83125 24.4699 6.21253 24.0012 6.21253C23.5325 6.21253 23.1511 5.83125 23.1511 5.3625V2.25628ZM16.2355 1.40625C16.7041 1.40625 17.0855 1.78753 17.0855 2.25628V5.3625C17.0855 5.83125 16.7042 6.21253 16.2355 6.21253C15.7667 6.21253 15.3855 5.83125 15.3855 5.3625V2.25628C15.3855 1.78753 15.7667 1.40625 16.2355 1.40625ZM10.7261 10.8719V6.91556C10.7261 5.5905 11.8041 4.51256 13.1291 4.51256H13.9792V5.3625C13.9792 6.60666 14.9913 7.61878 16.2355 7.61878C17.4795 7.61878 18.4918 6.60666 18.4918 5.3625V4.51256H21.7449V5.3625C21.7449 6.60666 22.757 7.61878 24.0012 7.61878C25.2453 7.61878 26.2575 6.60666 26.2575 5.3625V4.51256H29.5106V5.3625C29.5106 6.60666 30.5227 7.61878 31.7669 7.61878C33.011 7.61878 34.0231 6.60666 34.0231 5.3625V4.51256H37.2763V5.3625C37.2763 6.60666 38.2884 7.61878 39.5325 7.61878C40.7767 7.61878 41.7888 6.60666 41.7888 5.3625V4.51256H42.6389C43.9639 4.51256 45.042 5.59059 45.042 6.91556V10.8719H10.7261Z" fill="black"/>
<path id="Vector_2" d="M45.7438 19.1826C45.3555 19.1826 45.0407 19.4974 45.0407 19.8857V44.1902C45.0407 45.5153 43.9626 46.5933 42.6376 46.5933H39.8594C39.4711 46.5933 39.1562 46.9081 39.1562 47.2965C39.1562 47.6848 39.4711 47.9996 39.8594 47.9996H42.6376C44.738 47.9996 46.4469 46.2907 46.4469 44.1902V19.8857C46.4469 19.4974 46.1321 19.1826 45.7438 19.1826Z" fill="black"/>
<path id="Vector_3" d="M15.459 16.9375H40.309C40.6973 16.9375 41.0121 16.6227 41.0121 16.2344C41.0121 15.8461 40.6973 15.5312 40.309 15.5312H15.459C15.0707 15.5312 14.7559 15.8461 14.7559 16.2344C14.7559 16.6227 15.0707 16.9375 15.459 16.9375Z" fill="black"/>
<path id="Vector_4" d="M15.459 21.5967H40.309C40.6973 21.5967 41.0121 21.2819 41.0121 20.8936C41.0121 20.5052 40.6973 20.1904 40.309 20.1904H15.459C15.0707 20.1904 14.7559 20.5052 14.7559 20.8936C14.7559 21.2819 15.0707 21.5967 15.459 21.5967Z" fill="black"/>
<path id="Vector_5" d="M15.459 26.2559H40.309C40.6973 26.2559 41.0121 25.941 41.0121 25.5527C41.0121 25.1644 40.6973 24.8496 40.309 24.8496H15.459C15.0707 24.8496 14.7559 25.1644 14.7559 25.5527C14.7559 25.941 15.0707 26.2559 15.459 26.2559Z" fill="black"/>
<path id="Vector_6" d="M41.0129 34.8721C41.0129 34.4838 40.6981 34.1689 40.3098 34.1689H24.002C23.6136 34.1689 23.2988 34.4838 23.2988 34.8721C23.2988 35.2604 23.6136 35.5752 24.002 35.5752H40.3098C40.6981 35.5752 41.0129 35.2604 41.0129 34.8721Z" fill="black"/>
</g>
</g>
</svg>
