<svg width="48" height="48" viewBox="0 0 48 48" fill="none" xmlns="http://www.w3.org/2000/svg">
<g id="fi_8555826">
<path id="Vector" d="M14.2564 12.7811C14.224 21.3326 24.797 25.768 30.8945 19.6444C32.7195 17.8141 33.7444 15.3348 33.7444 12.7501C33.7444 10.1654 32.7195 7.68619 30.8945 5.85592C24.7721 -0.289383 14.1689 4.20367 14.2564 12.7811ZM18.1664 6.91647C19.5292 5.55171 21.329 4.71035 23.2502 4.53996C23.2931 5.20964 22.9902 6.38633 24.0002 6.42867C24.0987 6.4287 24.1962 6.40933 24.2872 6.37164C24.3782 6.33396 24.4609 6.27872 24.5306 6.20907C24.6002 6.13942 24.6555 6.05673 24.6931 5.96572C24.7308 5.87471 24.7502 5.77717 24.7502 5.67867V4.53996C26.6649 4.7281 28.4551 5.57454 29.8156 6.93497C31.176 8.2954 32.0225 10.0856 32.2107 12.0003C31.5409 12.0431 30.364 11.7403 30.3217 12.7502C30.3217 12.8487 30.3411 12.9463 30.3787 13.0373C30.4164 13.1283 30.4717 13.211 30.5413 13.2806C30.611 13.3503 30.6937 13.4055 30.7847 13.4432C30.8757 13.4809 30.9732 13.5003 31.0717 13.5002H32.2108C32.0389 15.421 31.1976 17.2203 29.834 18.5839C28.4703 19.9475 26.6709 20.7887 24.7502 20.9605C24.7072 20.2908 25.0101 19.1141 24.0002 19.0718C23.9017 19.0717 23.8041 19.0911 23.7131 19.1288C23.6221 19.1665 23.5394 19.2217 23.4698 19.2914C23.4001 19.361 23.3449 19.4437 23.3072 19.5347C23.2695 19.6257 23.2501 19.7233 23.2502 19.8218V20.9606C21.3354 20.7725 19.5452 19.926 18.1847 18.5656C16.8243 17.2051 15.9778 15.4149 15.7897 13.5001C16.4594 13.4573 17.6363 13.7602 17.6786 12.7502C17.6787 12.6517 17.6593 12.5542 17.6216 12.4632C17.5839 12.3722 17.5287 12.2895 17.459 12.2198C17.3894 12.1502 17.3067 12.0949 17.2157 12.0572C17.1247 12.0196 17.0271 12.0002 16.9286 12.0002H15.7896C15.9602 10.0791 16.8017 8.27929 18.1664 6.91647Z" fill="black"/>
<path id="Vector_2" d="M22.1805 15.3184C22.279 15.3185 22.3766 15.2991 22.4676 15.2614C22.5586 15.2237 22.6412 15.1684 22.7108 15.0986L24.5289 13.2809C24.6689 13.1396 24.748 12.9491 24.7491 12.7501V8.25015C24.7453 8.05377 24.6646 7.86672 24.5243 7.7292C24.3841 7.59168 24.1955 7.51464 23.9991 7.51465C23.8027 7.51465 23.6141 7.5917 23.4739 7.72923C23.3336 7.86676 23.2529 8.05381 23.2491 8.25019V12.4396L21.6502 14.0381C21.5478 14.1439 21.4785 14.2774 21.4509 14.422C21.4233 14.5667 21.4386 14.7163 21.495 14.8524C21.5513 14.9885 21.6463 15.1051 21.7681 15.1879C21.8899 15.2707 22.0332 15.316 22.1805 15.3184Z" fill="black"/>
<path id="Vector_3" d="M5.91316 30.8884L19.3018 32.4364C19.4324 32.4516 19.5648 32.4322 19.6855 32.3801C19.8062 32.3279 19.9111 32.2449 19.9896 32.1394L23.2496 27.7623V43.3298L11.0094 40.8109V34.4099C11.0063 34.213 10.9259 34.0252 10.7856 33.887C10.6453 33.7489 10.4563 33.6715 10.2593 33.6715C10.0624 33.6715 9.87338 33.7489 9.73307 33.8871C9.59275 34.0252 9.5124 34.213 9.50935 34.4099V41.4224C9.50942 41.5951 9.56905 41.7625 9.6782 41.8964C9.78735 42.0302 9.93932 42.1223 10.1085 42.1571L23.848 44.9846C23.9566 45.0034 24.068 44.9987 24.1747 44.9708C24.2813 44.9429 24.3807 44.8924 24.4662 44.8228C24.5517 44.7532 24.6212 44.666 24.6701 44.5672C24.719 44.4684 24.7461 44.3602 24.7496 44.25V27.7627L28.0111 32.1427C28.0895 32.2482 28.1944 32.3312 28.3151 32.3833C28.4359 32.4355 28.5682 32.4549 28.6988 32.4397L34.0762 31.8175C34.2735 31.7942 34.4534 31.6936 34.5766 31.5378C34.6997 31.382 34.7561 31.1837 34.7332 30.9864C34.7103 30.7891 34.6101 30.609 34.4545 30.4855C34.2989 30.362 34.1007 30.3053 33.9034 30.3278L28.9559 30.9002L25.493 26.25H36.9459L40.3487 29.5774L37.6527 29.8927C37.4737 29.9225 37.3104 30.0126 37.1898 30.1482C37.0692 30.2837 36.9986 30.4564 36.9898 30.6376V40.8109L27.5987 42.743C27.4062 42.7854 27.2382 42.9019 27.1309 43.0672C27.0236 43.2325 26.9856 43.4334 27.0253 43.6264C27.065 43.8195 27.179 43.9892 27.3428 44.0988C27.5066 44.2084 27.7069 44.2492 27.9005 44.2123L37.8907 42.1571C38.0598 42.1223 38.2118 42.0303 38.321 41.8964C38.4301 41.7626 38.4897 41.5952 38.4898 41.4225V31.3054L42.0823 30.8877C42.2223 30.8701 42.3545 30.8137 42.464 30.7248C42.5735 30.6358 42.6559 30.518 42.7019 30.3847C42.7479 30.2513 42.7556 30.1077 42.7241 29.9702C42.6927 29.8327 42.6233 29.7068 42.5239 29.6067L37.7771 24.9646C37.637 24.827 37.4484 24.7499 37.252 24.75H10.7449C10.5489 24.75 10.3606 24.8267 10.2205 24.9639L5.47517 29.6074C5.37597 29.7073 5.30667 29.833 5.2751 29.9702C5.24352 30.1074 5.25093 30.2507 5.29648 30.3839C5.34203 30.5171 5.42391 30.635 5.53287 30.7241C5.64184 30.8133 5.77356 30.8702 5.91316 30.8884ZM11.0511 26.25H22.5062L19.0447 30.8969L7.649 29.5792L11.0511 26.25Z" fill="black"/>
</g>
</svg>
