<svg width="40" height="40" viewBox="0 0 40 40" fill="none" xmlns="http://www.w3.org/2000/svg">
<g id="fi_174861" clip-path="url(#clip0_8100_2183)">
<path id="Vector" d="M33.5065 10.3344C33.5742 9.78398 33.6096 9.22359 33.6096 8.65492C33.6096 3.875 29.7347 0 24.9547 0H10.4904C9.58059 0 8.8038 0.657031 8.65286 1.55422L3.32317 33.232C3.13192 34.3687 4.00817 35.4045 5.16075 35.4045H10.4507C11.3605 35.4045 12.1519 34.748 12.3028 33.8507C12.3028 33.8507 12.3116 33.7981 12.3275 33.7034H12.3276L11.5904 38.0852C11.422 39.087 12.1943 40 13.2101 40H17.838C18.64 40 19.3247 39.4209 19.4576 38.6301L20.7724 30.816C20.999 29.469 22.1652 28.4827 23.5311 28.4827H24.7468C31.3507 28.4827 36.7042 23.1291 36.7042 16.5253C36.7042 13.9699 35.4411 11.7111 33.5065 10.3344Z" fill="#002987"/>
<path id="Vector_2" d="M33.5055 10.3345C32.6779 17.0672 26.9396 22.2806 19.9832 22.2806H15.9468C15.0358 22.2806 14.249 22.8874 14.0022 23.7453L11.5896 38.0851C11.4211 39.087 12.1933 40.0001 13.2092 40.0001H17.8371C18.639 40.0001 19.3237 39.421 19.4567 38.6302L20.7714 30.8161C20.9981 29.4691 22.1643 28.4828 23.5301 28.4828H24.7459C31.3498 28.4828 36.7032 23.1292 36.7032 16.5254C36.7032 13.97 35.4401 11.7112 33.5055 10.3345Z" fill="#0085CC"/>
<path id="Vector_3" d="M15.9447 22.2802H19.981C26.9375 22.2802 32.6758 17.0669 33.5034 10.3342C32.2621 9.45094 30.7452 8.92969 29.1057 8.92969H18.5705C17.3711 8.92969 16.347 9.79586 16.1479 10.9787L14 23.7449C14.2468 22.887 15.0337 22.2802 15.9447 22.2802Z" fill="#00186A"/>
</g>
<defs>
<clipPath id="clip0_8100_2183">
<rect width="40" height="40" fill="white"/>
</clipPath>
</defs>
</svg>
