<svg width="78" height="24" viewBox="0 0 78 24" fill="none" xmlns="http://www.w3.org/2000/svg">
<g id="fi_196566">
<path id="Vector" d="M60.2943 6.9541H56.0848C55.8372 6.9541 55.5896 7.20025 55.4658 7.44641L53.7324 18.2772C53.7324 18.5233 53.8562 18.6464 54.1038 18.6464H56.3324C56.58 18.6464 56.7038 18.5233 56.7038 18.2772L57.1991 15.2003C57.1991 14.9541 57.4467 14.7079 57.8181 14.7079H59.18C62.0277 14.7079 63.6372 13.3541 64.0086 10.6464C64.2562 9.53872 64.0086 8.5541 63.5134 7.93872C62.7705 7.32333 61.6562 6.9541 60.2943 6.9541ZM60.7896 11.0156C60.5419 12.4926 59.4277 12.4926 58.3134 12.4926H57.5705L58.0658 9.66179C58.0658 9.53872 58.1896 9.41564 58.4372 9.41564H58.6848C59.4277 9.41564 60.1705 9.41564 60.5419 9.90795C60.7896 10.031 60.7896 10.4003 60.7896 11.0156Z" fill="#139AD6"/>
<g id="Group">
<path id="Vector_2" d="M29.9623 6.9541H25.7528C25.5052 6.9541 25.2575 7.20025 25.1337 7.44641L23.4004 18.2772C23.4004 18.5233 23.5242 18.6464 23.7718 18.6464H25.7528C26.0004 18.6464 26.248 18.4003 26.3718 18.1541L26.8671 15.2003C26.8671 14.9541 27.1147 14.7079 27.4861 14.7079H28.848C31.6956 14.7079 33.3052 13.3541 33.6766 10.6464C33.9242 9.53872 33.6766 8.5541 33.1813 7.93872C32.4385 7.32333 31.448 6.9541 29.9623 6.9541ZM30.4575 11.0156C30.2099 12.4926 29.0956 12.4926 27.9813 12.4926H27.3623L27.8575 9.66179C27.8575 9.53872 27.9813 9.41564 28.229 9.41564H28.4766C29.2194 9.41564 29.9623 9.41564 30.3337 9.90795C30.4575 10.031 30.5813 10.4003 30.4575 11.0156Z" fill="#263B80"/>
<path id="Vector_3" d="M42.7144 10.8926H40.7335C40.6097 10.8926 40.362 11.0157 40.362 11.1388L40.2382 11.7542L40.1144 11.508C39.6192 10.8926 38.7525 10.6465 37.762 10.6465C35.5335 10.6465 33.5525 12.3696 33.1811 14.708C32.9335 15.9388 33.3049 17.0465 33.9239 17.7849C34.543 18.5234 35.4097 18.7696 36.5239 18.7696C38.3811 18.7696 39.3716 17.6619 39.3716 17.6619L39.2477 18.2773C39.2477 18.5234 39.3716 18.6465 39.6192 18.6465H41.4763C41.7239 18.6465 41.9716 18.4003 42.0954 18.1542L43.2097 11.2619C43.0858 11.1388 42.8382 10.8926 42.7144 10.8926ZM39.8668 14.8311C39.6192 15.9388 38.7525 16.8003 37.5144 16.8003C36.8954 16.8003 36.4001 16.5542 36.1525 16.308C35.9049 15.9388 35.7811 15.4465 35.7811 14.8311C35.9049 13.7234 36.8954 12.8619 38.0097 12.8619C38.6287 12.8619 39.0001 13.108 39.3716 13.3542C39.743 13.7234 39.8668 14.3388 39.8668 14.8311Z" fill="#263B80"/>
</g>
<path id="Vector_4" d="M72.9234 10.8926H70.9424C70.8186 10.8926 70.571 11.0157 70.571 11.1388L70.4472 11.7542L70.3234 11.508C69.8282 10.8926 68.9615 10.6465 67.971 10.6465C65.7424 10.6465 63.7615 12.3696 63.3901 14.708C63.1424 15.9388 63.5139 17.0465 64.1329 17.7849C64.752 18.5234 65.6186 18.7696 66.7329 18.7696C68.5901 18.7696 69.5805 17.6619 69.5805 17.6619L69.4567 18.2773C69.4567 18.5234 69.5805 18.6465 69.8282 18.6465H71.6853C71.9329 18.6465 72.1805 18.4003 72.3043 18.1542L73.4186 11.2619C73.2948 11.1388 73.171 10.8926 72.9234 10.8926ZM70.0758 14.8311C69.8282 15.9388 68.9615 16.8003 67.7234 16.8003C67.1043 16.8003 66.6091 16.5542 66.3615 16.308C66.1139 15.9388 65.9901 15.4465 65.9901 14.8311C66.1139 13.7234 67.1043 12.8619 68.2186 12.8619C68.8377 12.8619 69.2091 13.108 69.5805 13.3542C70.0758 13.7234 70.1996 14.3388 70.0758 14.8311Z" fill="#139AD6"/>
<path id="Vector_5" d="M53.4865 10.8926H51.3817C51.1341 10.8926 51.0103 11.0157 50.8865 11.1387L48.1627 15.3233L46.9246 11.3849C46.8007 11.1387 46.6769 11.0157 46.3055 11.0157H44.3246C44.0769 11.0157 43.9531 11.2618 43.9531 11.508L46.1817 18.031L44.0769 20.9849C43.9531 21.231 44.0769 21.6003 44.3246 21.6003H46.3055C46.5531 21.6003 46.6769 21.4772 46.8007 21.3541L53.6103 11.631C53.9817 11.2618 53.7341 10.8926 53.4865 10.8926Z" fill="#263B80"/>
<path id="Vector_6" d="M75.2763 7.32276L73.543 18.3997C73.543 18.6458 73.6668 18.7689 73.9144 18.7689H75.6477C75.8953 18.7689 76.143 18.5228 76.2668 18.2766L78.0001 7.44583C78.0001 7.19968 77.8763 7.0766 77.6287 7.0766H75.6477C75.5239 6.95353 75.4001 7.0766 75.2763 7.32276Z" fill="#139AD6"/>
<path id="Vector_7" d="M14.2381 3.2611C13.3714 2.27649 11.7619 1.78418 9.53333 1.78418H3.34286C2.97143 1.78418 2.6 2.15341 2.47619 2.52264L0 18.6457C0 19.0149 0.247619 19.2611 0.495238 19.2611H4.33333L5.32381 13.2303V13.4765C5.44762 13.1073 5.81905 12.738 6.19048 12.738H8.04762C11.6381 12.738 14.3619 11.2611 15.2286 7.19956C15.2286 7.07649 15.2286 6.95341 15.2286 6.83033C15.1048 6.83033 15.1048 6.83033 15.2286 6.83033C15.3524 5.23033 15.1048 4.24572 14.2381 3.2611Z" fill="#263B80"/>
<path id="Vector_8" d="M15.1038 6.83105C15.1038 6.95413 15.1038 7.07721 15.1038 7.20029C14.2371 11.3849 11.5133 12.7387 7.92284 12.7387H6.0657C5.69427 12.7387 5.32284 13.108 5.19903 13.4772L3.96094 20.9849C3.96094 21.2311 4.08475 21.4772 4.45618 21.4772H7.67522C8.04665 21.4772 8.41808 21.2311 8.41808 20.8618V20.7387L9.03713 16.9234V16.6772C9.03713 16.308 9.40856 16.0618 9.77998 16.0618H10.2752C13.3705 16.0618 15.8467 14.8311 16.4657 11.1387C16.7133 9.66182 16.5895 8.30798 15.8467 7.44644C15.7228 7.20029 15.4752 6.95413 15.1038 6.83105Z" fill="#139AD6"/>
<path id="Vector_9" d="M14.2385 6.46103C14.1147 6.46103 13.9909 6.33795 13.8671 6.33795C13.7433 6.33795 13.6195 6.33795 13.4956 6.21487C13.0004 6.09179 12.5052 6.0918 11.8861 6.0918H7.05755C6.93374 6.0918 6.80993 6.09179 6.68612 6.21487C6.4385 6.33795 6.31469 6.5841 6.31469 6.83026L5.32422 13.2303V13.4764C5.44803 13.1072 5.81946 12.7379 6.19089 12.7379H8.04803C11.6385 12.7379 14.3623 11.261 15.229 7.19949C15.229 7.07641 15.229 6.95333 15.3528 6.83026C15.1052 6.70718 14.9814 6.5841 14.7337 6.5841C14.3623 6.46103 14.3623 6.46103 14.2385 6.46103Z" fill="#232C65"/>
</g>
</svg>
