<svg width="40" height="40" viewBox="0 0 40 40" fill="none" xmlns="http://www.w3.org/2000/svg">
<g id="fi_3138411" clip-path="url(#clip0_3130_231)">
<path id="Vector" d="M20 27.9975C24.7989 27.9975 28.703 24.0933 28.703 19.2944V8.70305C28.703 3.90422 24.7989 0 20 0C15.2011 0 11.297 3.90422 11.297 8.70305V19.2943C11.297 24.0934 15.2011 27.9975 20 27.9975ZM13.797 8.70305C13.797 5.28266 16.5796 2.5 20 2.5C23.4204 2.5 26.203 5.28266 26.203 8.70305V19.2943C26.203 22.7147 23.4204 25.4974 20 25.4974C16.5796 25.4974 13.797 22.7147 13.797 19.2943V8.70305ZM34.3429 21.8105C33.7575 25.1366 32.004 28.1841 29.4054 30.3915C27.0953 32.3539 24.2379 33.5417 21.25 33.8021V37.5H29.375C30.0654 37.5 30.625 38.0596 30.625 38.75C30.625 39.4404 30.0654 40 29.375 40H10.625C9.93461 40 9.375 39.4404 9.375 38.75C9.375 38.0596 9.93461 37.5 10.625 37.5H18.75V33.8021C15.7621 33.5417 12.9048 32.3539 10.5946 30.3915C7.99602 28.1841 6.24258 25.1366 5.65719 21.8105C5.53758 21.1306 5.99164 20.4824 6.67156 20.3628C7.35141 20.2432 7.99969 20.6973 8.1193 21.3772C9.13703 27.1598 14.1336 31.3568 20 31.3568C25.8664 31.3568 30.863 27.1598 31.8807 21.3772C32.0003 20.6973 32.6484 20.243 33.3284 20.3628C34.0084 20.4824 34.4625 21.1306 34.3429 21.8105ZM34.3617 8.41937V15.6409C34.3617 16.3313 33.8021 16.8909 33.1117 16.8909C32.4213 16.8909 31.8617 16.3313 31.8617 15.6409V8.41937C31.8617 7.72898 32.4213 7.16937 33.1117 7.16937C33.8021 7.16937 34.3617 7.72898 34.3617 8.41937ZM40 10.1392V13.9208C40 14.6112 39.4404 15.1708 38.75 15.1708C38.0596 15.1708 37.5 14.6112 37.5 13.9208V10.1392C37.5 9.44883 38.0596 8.88922 38.75 8.88922C39.4404 8.88922 40 9.44883 40 10.1392ZM5.63828 15.6408V8.4193C5.63828 7.72891 6.19789 7.1693 6.88828 7.1693C7.57867 7.1693 8.13828 7.72891 8.13828 8.4193V15.6408C8.13828 16.3312 7.57867 16.8908 6.88828 16.8908C6.19789 16.8908 5.63828 16.3312 5.63828 15.6408ZM2.5 10.1392V13.9208C2.5 14.6112 1.94039 15.1708 1.25 15.1708C0.559609 15.1708 0 14.6112 0 13.9208V10.1392C0 9.44883 0.559609 8.88922 1.25 8.88922C1.94039 8.88922 2.5 9.44883 2.5 10.1392Z" fill="url(#paint0_linear_3130_231)"/>
</g>
<defs>
<linearGradient id="paint0_linear_3130_231" x1="20" y1="0" x2="20" y2="40" gradientUnits="userSpaceOnUse">
<stop stop-color="#DD1818"/>
<stop offset="1"/>
</linearGradient>
<clipPath id="clip0_3130_231">
<rect width="40" height="40" fill="white"/>
</clipPath>
</defs>
</svg>
