<svg width="48" height="48" viewBox="0 0 48 48" fill="none" xmlns="http://www.w3.org/2000/svg">
<g id="fi_10149458">
<path id="Vector" d="M44.25 26.0995H38.385C32.4399 26.2375 32.447 35.2709 38.3851 35.407H44.25C44.4487 35.4064 44.6392 35.3272 44.7797 35.1867C44.9202 35.0461 44.9994 34.8557 45 34.657V26.8495C45.0003 26.7509 44.9812 26.6532 44.9436 26.5621C44.906 26.4709 44.8508 26.3881 44.7811 26.3184C44.7114 26.2487 44.6286 26.1934 44.5374 26.1559C44.4463 26.1183 44.3486 26.0991 44.25 26.0995ZM39.48 31.4995C39.2811 31.4995 39.0903 31.4204 38.9497 31.2798C38.809 31.1391 38.73 30.9484 38.73 30.7495C38.73 30.5505 38.8091 30.3598 38.9497 30.2191C39.0904 30.0785 39.2811 29.9995 39.4801 29.9995C39.679 29.9995 39.8697 30.0785 40.0104 30.2192C40.151 30.3598 40.2301 30.5506 40.2301 30.7495C40.23 30.9485 40.151 31.1392 40.0104 31.2799C39.8697 31.4205 39.6789 31.4995 39.48 31.4995ZM38.385 36.907H43.545V38.7145C43.5431 40.2077 42.949 41.6392 41.8931 42.6951C40.8372 43.751 39.4057 44.345 37.9125 44.347H8.6325C7.13927 44.345 5.70775 43.751 4.65188 42.6951C3.596 41.6392 3.00195 40.2077 3 38.7145V14.002C3.00107 12.7691 3.49133 11.5869 4.36314 10.7151C5.23495 9.84333 6.41708 9.35309 7.65 9.35203H18.33L15.39 10.852H7.65C7.02852 10.8594 6.42292 11.0493 5.90857 11.3983C5.39423 11.7472 4.99384 12.2396 4.75724 12.8144C4.52064 13.3891 4.45828 14.0207 4.57791 14.6306C4.69755 15.2405 4.99389 15.8018 5.43008 16.2445C6.02576 16.8223 6.82022 17.1497 7.65 17.1595H37.9124C39.404 17.1646 40.833 17.7599 41.887 18.8153C42.941 19.8707 43.5344 21.3004 43.5375 22.792L43.5375 24.5995H38.385C37.5698 24.6026 36.7638 24.772 36.0164 25.0975C35.269 25.423 34.596 25.8977 34.0384 26.4924C33.4809 27.0871 33.0507 27.7894 32.7741 28.5563C32.4976 29.3231 32.3805 30.1383 32.43 30.952C32.4313 32.531 33.0591 34.0449 34.1756 35.1614C35.2921 36.2779 36.806 36.9057 38.385 36.907ZM9.255 15.6595C12.8708 13.8289 18.3955 10.997 21.9525 9.18703L32.655 3.73453C32.8321 3.64521 33.0373 3.62979 33.2258 3.69166C33.4142 3.75353 33.5704 3.88763 33.66 4.06453L39.69 15.892C38.4798 15.6597 37.245 15.5816 36.0151 15.6595L32.28 8.31703C32.1883 8.14019 32.0302 8.00692 31.8404 7.94647C31.6506 7.88601 31.4446 7.9033 31.2675 7.99453L16.23 15.6595H9.255ZM31.2825 9.66703L34.335 15.6595H19.5225L31.2825 9.66703Z" fill="url(#paint0_linear_2869_145)"/>
</g>
<defs>
<linearGradient id="paint0_linear_2869_145" x1="3" y1="24.0003" x2="45" y2="24.0003" gradientUnits="userSpaceOnUse">
<stop stop-color="#7F00FF"/>
<stop offset="1" stop-color="#E100FF"/>
</linearGradient>
</defs>
</svg>
