<?xml version="1.0" encoding="utf-8"?>
<!-- Generator: Adobe Illustrator 26.0.3, SVG Export Plug-In . SVG Version: 6.00 Build 0)  -->
<svg version="1.1" id="Layer_1" xmlns="http://www.w3.org/2000/svg" xmlns:xlink="http://www.w3.org/1999/xlink" x="0px" y="0px"
	 viewBox="0 0 755.7 278.4" style="enable-background:new 0 0 755.7 278.4;" xml:space="preserve">
<style type="text/css">
	.st0{fill:#F4F5F5;}
	.st1{enable-background:new    ;}
	.st2{fill:#D5364D;}
	.st3{fill:url(#Ellipse_1391_00000014623614973593933190000005213587469283216287_);}
	.st4{fill-rule:evenodd;clip-rule:evenodd;fill:url(#Path_11388_00000161606677977187470830000014088200515661161622_);}
</style>
<g id="Group_17080" transform="translate(-1032 -7598.607)">
	<path id="Rectangle_6484" class="st0" d="M1042,7598.6h735.7c5.5,0,10,4.5,10,10V7843c0,5.5-4.5,10-10,10H1042c-5.5,0-10-4.5-10-10
		v-234.4C1032,7603.1,1036.5,7598.6,1042,7598.6z"/>
	<g class="st1">
		<path class="st2" d="M1134.5,7644.6l-6.1,0.1l0.1,14l-5.2,0.2l-0.4-14.2l-3,0.1l0.1-4.4h2.7l0-1.7c0-2.3,0.6-4,1.8-5.3
			c1.2-1.2,3.2-1.9,5.8-1.9c0.8,0,1.5,0.1,2.2,0.2c0.7,0.1,1.5,0.3,2.3,0.6l-0.6,4.5c-0.5-0.2-1-0.4-1.5-0.5
			c-0.4-0.1-0.9-0.1-1.4-0.1c-1,0-1.7,0.2-2.2,0.6s-0.8,1-0.8,1.9v1.6l6.2-0.1L1134.5,7644.6z"/>
		<path class="st2" d="M1156.6,7658.6l-5.2,0.3l-0.2-3.2c-1.4,1.2-2.8,2.1-4.1,2.7c-1.3,0.6-2.7,0.9-4.1,0.9c-1.2,0-2.1-0.2-2.8-0.6
			c-0.7-0.4-1.2-1-1.6-1.9c-0.4-0.8-0.6-1.9-0.7-3.1c-0.1-1.2-0.2-2.7-0.2-4.3c0-1.4,0-2.9,0.1-4.5c0.1-1.6,0.2-3.2,0.4-4.8l5.5,0.1
			c-0.1,1.3-0.3,2.5-0.4,3.9c-0.1,1.3-0.2,2.9-0.2,4.6c0,0.9,0,1.8,0.1,2.4c0.1,0.7,0.2,1.3,0.4,1.8c0.2,0.5,0.5,0.8,0.8,1.1
			c0.4,0.2,0.8,0.4,1.4,0.4c0.7,0,1.4-0.2,2.3-0.6c0.9-0.4,1.8-1.1,3-2.2l-0.1-11.4l5.6-0.3L1156.6,7658.6z"/>
		<path class="st2" d="M1175.9,7645.5c-0.8-0.7-1.8-1.2-3-1.5c-1.2-0.3-2.4-0.5-3.6-0.5c-1,0-1.9,0.1-2.4,0.4
			c-0.6,0.3-0.9,0.8-0.9,1.4c0,0.5,0.2,0.8,0.5,1c0.3,0.2,0.7,0.4,1.3,0.6c0.5,0.1,1,0.3,1.6,0.3c0.6,0.1,1.2,0.2,1.8,0.3
			c0.6,0.1,1.2,0.2,1.8,0.3c0.6,0.1,1.2,0.2,1.7,0.4c0.6,0.2,1.1,0.4,1.6,0.6c0.5,0.3,0.9,0.6,1.3,1c0.4,0.4,0.6,0.9,0.9,1.5
			c0.2,0.6,0.3,1.2,0.3,2c0,1.1-0.2,2-0.7,2.8c-0.5,0.8-1.1,1.4-1.9,2c-0.8,0.5-1.7,0.9-2.7,1.1c-1,0.2-2.2,0.4-3.3,0.4
			c-1.8,0-3.6-0.2-5.4-0.7c-1.8-0.5-3.4-1.1-4.8-1.8l2.2-3.9c0.5,0.3,1.1,0.5,1.8,0.8c0.7,0.2,1.3,0.4,2,0.6
			c0.7,0.2,1.4,0.3,2.1,0.4c0.7,0.1,1.4,0.1,2,0.1c1.1,0,1.9-0.1,2.5-0.4c0.6-0.3,0.9-0.8,0.9-1.4c0-0.5-0.2-0.9-0.6-1.2
			c-0.4-0.3-1-0.5-1.7-0.6c-0.4-0.1-0.9-0.2-1.5-0.3c-0.5-0.1-1.1-0.2-1.7-0.3c-0.6-0.1-1.2-0.2-1.7-0.3c-0.6-0.1-1.1-0.3-1.6-0.4
			c-0.5-0.2-1.1-0.4-1.6-0.6c-0.5-0.3-0.9-0.6-1.3-1c-0.4-0.4-0.7-0.9-0.9-1.4c-0.2-0.6-0.3-1.2-0.3-2c0-1.1,0.3-2.1,0.8-2.8
			c0.6-0.8,1.3-1.4,2.1-1.8s1.8-0.8,2.9-1c1-0.2,2-0.3,3-0.3c0.8,0,1.6,0.1,2.4,0.2c0.8,0.1,1.6,0.3,2.4,0.5s1.5,0.5,2.2,0.9
			c0.7,0.3,1.3,0.7,1.8,1.2L1175.9,7645.5z"/>
		<path class="st2" d="M1188.2,7658.7l-5.4,0.3l-0.5-18.4l5.7-0.4L1188.2,7658.7z M1188.2,7636.6l-5.5,0.2l-0.1-4.5l5.6-0.3V7636.6z
			"/>
		<path class="st2" d="M1202.3,7639.4c1.3,0,2.5,0.2,3.7,0.6c1.1,0.4,2.1,1,3,1.9s1.5,1.8,2,3.1c0.5,1.2,0.7,2.6,0.7,4.2
			c0,1.7-0.3,3.1-0.8,4.4s-1.2,2.4-2.2,3.3c-0.9,0.9-2,1.6-3.2,2c-1.2,0.5-2.5,0.7-3.9,0.7c-1.3,0-2.5-0.2-3.6-0.6s-2.1-1-3-1.9
			c-0.8-0.8-1.5-1.9-2-3.1c-0.5-1.2-0.7-2.6-0.7-4.3c0-1.6,0.3-3.1,0.8-4.4s1.2-2.4,2.1-3.3c0.9-0.9,1.9-1.6,3.1-2
			C1199.6,7639.6,1200.9,7639.4,1202.3,7639.4z M1202.2,7644c-1.2,0-2.2,0.5-3.1,1.4c-0.9,0.9-1.3,2.4-1.3,4.3
			c0,0.9,0.1,1.7,0.3,2.4c0.2,0.7,0.5,1.2,0.9,1.6c0.4,0.4,0.8,0.7,1.3,0.9c0.5,0.2,1,0.3,1.6,0.3c0.6,0,1.1-0.1,1.7-0.3
			c0.5-0.2,1-0.5,1.4-1c0.4-0.4,0.7-1,0.9-1.7c0.2-0.7,0.4-1.6,0.4-2.6c0-1.8-0.4-3.2-1.2-4C1204.3,7644.4,1203.3,7644,1202.2,7644z
			"/>
		<path class="st2" d="M1221.3,7643.1c1.4-1.2,2.8-2.1,4.1-2.7s2.6-0.9,4-0.9c1.2,0,2.1,0.2,2.8,0.6c0.7,0.4,1.2,1.1,1.6,1.9
			c0.4,0.8,0.6,1.8,0.7,3c0.1,1.2,0.2,2.6,0.2,4.2c0,1.6,0,3.2-0.1,4.7c-0.1,1.6-0.2,3.1-0.4,4.7l-5.4-0.1c0.1-1.2,0.2-2.5,0.3-3.7
			c0.1-1.3,0.1-2.8,0.1-4.4c0-0.9,0-1.8-0.1-2.5s-0.2-1.3-0.3-1.8c-0.2-0.5-0.4-0.8-0.8-1c-0.3-0.2-0.8-0.4-1.3-0.4
			c-0.7,0-1.5,0.2-2.3,0.6c-0.9,0.4-1.8,1.1-3,2.1l0.1,11.1l-5.4,0.3l-0.3-18.7l5.4-0.3L1221.3,7643.1z"/>
		<path class="st2" d="M1258.7,7648.8l7.8,9.3l-4.7,2.1l-8.6-9.6l0,8.1l-5.4,0.3l-0.5-25.6l5.7-0.3l0.1,15l9.2-9.5l4.2,2.1
			L1258.7,7648.8z"/>
		<path class="st2" d="M1275.3,7658.7l-5.4,0.3l-0.5-18.4l5.7-0.4L1275.3,7658.7z M1275.3,7636.6l-5.5,0.2l-0.1-4.5l5.6-0.3V7636.6z
			"/>
		<path class="st2" d="M1293.1,7644.4l-5.8,0.1l0,6.6c0,1.2,0.3,2,0.8,2.4s1.2,0.6,2,0.6c0.7,0,1.6-0.2,2.4-0.5l0.5,4.4
			c-1,0.3-1.8,0.5-2.6,0.7c-0.8,0.2-1.6,0.2-2.3,0.2c-1,0-1.8-0.1-2.6-0.4c-0.7-0.3-1.4-0.7-1.9-1.3c-0.5-0.6-0.9-1.3-1.2-2.2
			s-0.4-2-0.5-3.3l-0.1-7.1l-3,0.1l0.1-4.4l2.8,0l-0.1-4.3l5.6-0.7v5l6-0.1L1293.1,7644.4z"/>
		<path class="st2" d="M1310.1,7646c-0.5-0.7-1.1-1.2-1.8-1.5c-0.7-0.3-1.4-0.5-2.2-0.5c-1.4,0-2.5,0.5-3.4,1.5
			c-0.9,1-1.3,2.3-1.3,4c0,1.6,0.4,2.9,1.3,3.9c0.9,1,2,1.5,3.5,1.5c0.8,0,1.6-0.2,2.4-0.5c0.8-0.3,1.5-0.8,2-1.5l2.5,3.4
			c-0.5,0.6-1,1.2-1.6,1.6c-0.6,0.4-1.2,0.8-1.9,1c-0.7,0.3-1.3,0.5-2,0.6c-0.7,0.1-1.3,0.2-2,0.2c-1.6,0-2.9-0.3-4.1-0.8
			c-1.2-0.5-2.2-1.3-3-2.2c-0.8-0.9-1.4-2-1.8-3.2c-0.4-1.2-0.6-2.5-0.6-3.9c0-1.5,0.2-2.8,0.7-4.1c0.5-1.2,1.1-2.3,2-3.2
			c0.9-0.9,1.9-1.6,3.1-2.1s2.5-0.8,4-0.8c0.7,0,1.5,0.1,2.2,0.2c0.7,0.2,1.5,0.4,2.2,0.7c0.7,0.3,1.3,0.7,1.9,1.2
			c0.6,0.5,1.1,1.1,1.5,1.8L1310.1,7646z"/>
		<path class="st2" d="M1330.2,7658.7c0.1-1.3,0.2-2.5,0.3-3.8c0.1-1.3,0.1-2.8,0.1-4.4c0-0.9,0-1.7-0.1-2.4s-0.2-1.3-0.3-1.8
			c-0.2-0.5-0.4-0.8-0.7-1.1c-0.3-0.2-0.8-0.4-1.3-0.4c-0.7,0-1.5,0.2-2.4,0.6c-0.8,0.4-1.8,1.1-2.9,2.1l0.1,11.1l-5.4,0.3
			l-0.5-25.6l5.7-0.3l0,10c1.4-1.2,2.7-2.1,4-2.6c1.3-0.6,2.6-0.9,4-0.9c1.2,0,2.1,0.2,2.8,0.6c0.7,0.4,1.2,1.1,1.6,1.9
			s0.6,1.8,0.7,3c0.1,1.2,0.2,2.6,0.2,4.1c0,1.6,0,3.2-0.1,4.7c-0.1,1.6-0.2,3.2-0.4,4.8L1330.2,7658.7z"/>
		<path class="st2" d="M1345.7,7651c0.6,2.8,2.4,4.2,5.4,4.2c0.9,0,1.8-0.1,2.6-0.4c0.8-0.3,1.6-0.7,2.3-1.2l2.1,3.8
			c-1.2,0.8-2.4,1.4-3.7,1.8c-1.2,0.4-2.6,0.6-4.1,0.6c-1.5,0-2.9-0.2-4.2-0.7c-1.2-0.5-2.3-1.1-3.1-2c-0.9-0.9-1.5-2-2-3.3
			c-0.5-1.3-0.7-2.7-0.7-4.4c0-1.4,0.2-2.7,0.5-3.9s0.9-2.3,1.7-3.2c0.8-0.9,1.8-1.6,3.1-2.1c1.2-0.5,2.7-0.8,4.5-0.8
			c1.2,0,2.4,0.1,3.5,0.4c1.1,0.3,2,0.7,2.8,1.3c0.8,0.6,1.4,1.4,1.9,2.3c0.5,0.9,0.7,2.1,0.7,3.4c0,0.6,0,1.2-0.1,1.8
			s-0.2,1.3-0.4,1.9L1345.7,7651z M1350.1,7643.5c-1.5,0-2.6,0.4-3.3,1.1c-0.7,0.7-1.1,1.7-1.3,3l8.6,0v-0.3c0-1.3-0.4-2.2-1-2.9
			C1352.4,7643.9,1351.4,7643.5,1350.1,7643.5z"/>
		<path class="st2" d="M1368.9,7643.1c1.4-1.2,2.8-2.1,4.1-2.7s2.6-0.9,4-0.9c1.2,0,2.1,0.2,2.8,0.6c0.7,0.4,1.2,1.1,1.6,1.9
			c0.4,0.8,0.6,1.8,0.7,3c0.1,1.2,0.2,2.6,0.2,4.2c0,1.6,0,3.2-0.1,4.7c-0.1,1.6-0.2,3.1-0.4,4.7l-5.4-0.1c0.1-1.2,0.2-2.5,0.3-3.7
			c0.1-1.3,0.1-2.8,0.1-4.4c0-0.9,0-1.8-0.1-2.5s-0.2-1.3-0.3-1.8c-0.2-0.5-0.4-0.8-0.8-1c-0.3-0.2-0.8-0.4-1.3-0.4
			c-0.7,0-1.5,0.2-2.3,0.6c-0.9,0.4-1.8,1.1-3,2.1l0.1,11.1l-5.4,0.3l-0.3-18.7l5.4-0.3L1368.9,7643.1z"/>
	</g>
	<g class="st1">
		<path class="st2" d="M1139.2,7718.5l-11.5,0.4l0,5.5l11.1,0l-0.1,4.6l-11,0.2v9.2l-5.7,0.2l-0.3-24.7l17.6-0.5L1139.2,7718.5z"/>
		<path class="st2" d="M1161.9,7737.7l-5.2,0.3l-0.2-3.2c-1.4,1.2-2.8,2.1-4.1,2.7c-1.3,0.6-2.7,0.9-4.1,0.9c-1.2,0-2.1-0.2-2.8-0.6
			c-0.7-0.4-1.2-1-1.6-1.9c-0.4-0.8-0.6-1.9-0.7-3.1c-0.1-1.2-0.2-2.7-0.2-4.3c0-1.4,0-2.9,0.1-4.5c0.1-1.6,0.2-3.2,0.4-4.8l5.5,0.1
			c-0.1,1.3-0.3,2.5-0.4,3.9c-0.1,1.3-0.2,2.9-0.2,4.6c0,0.9,0,1.8,0.1,2.4c0.1,0.7,0.2,1.3,0.4,1.8c0.2,0.5,0.5,0.8,0.8,1.1
			c0.4,0.2,0.8,0.4,1.4,0.4c0.7,0,1.4-0.2,2.3-0.6c0.9-0.4,1.8-1.1,3-2.2l-0.1-11.4l5.6-0.3L1161.9,7737.7z"/>
		<path class="st2" d="M1181.2,7724.6c-0.8-0.7-1.8-1.2-3-1.5c-1.2-0.3-2.4-0.5-3.6-0.5c-1,0-1.9,0.1-2.4,0.4
			c-0.6,0.3-0.9,0.8-0.9,1.4c0,0.5,0.2,0.8,0.5,1c0.3,0.2,0.7,0.4,1.3,0.6c0.5,0.1,1,0.3,1.6,0.3c0.6,0.1,1.2,0.2,1.8,0.3
			c0.6,0.1,1.2,0.2,1.8,0.3c0.6,0.1,1.2,0.2,1.7,0.4c0.6,0.2,1.1,0.4,1.6,0.6c0.5,0.3,0.9,0.6,1.3,1c0.4,0.4,0.6,0.9,0.9,1.5
			c0.2,0.6,0.3,1.2,0.3,2c0,1.1-0.2,2-0.7,2.8c-0.5,0.8-1.1,1.4-1.9,2c-0.8,0.5-1.7,0.9-2.7,1.1c-1,0.2-2.2,0.4-3.3,0.4
			c-1.8,0-3.6-0.2-5.4-0.7c-1.8-0.5-3.4-1.1-4.8-1.8l2.2-3.9c0.5,0.3,1.1,0.5,1.8,0.8c0.7,0.2,1.3,0.4,2,0.6
			c0.7,0.2,1.4,0.3,2.1,0.4c0.7,0.1,1.4,0.1,2,0.1c1.1,0,1.9-0.1,2.5-0.4c0.6-0.3,0.9-0.8,0.9-1.4c0-0.5-0.2-0.9-0.6-1.2
			c-0.4-0.3-1-0.5-1.7-0.6c-0.4-0.1-0.9-0.2-1.5-0.3c-0.5-0.1-1.1-0.2-1.7-0.3c-0.6-0.1-1.2-0.2-1.7-0.3c-0.6-0.1-1.1-0.3-1.6-0.4
			c-0.5-0.2-1.1-0.4-1.6-0.6c-0.5-0.3-0.9-0.6-1.3-1c-0.4-0.4-0.7-0.9-0.9-1.4c-0.2-0.6-0.3-1.2-0.3-2c0-1.1,0.3-2.1,0.8-2.8
			c0.6-0.8,1.3-1.4,2.1-1.8s1.8-0.8,2.9-1c1-0.2,2-0.3,3-0.3c0.8,0,1.6,0.1,2.4,0.2c0.8,0.1,1.6,0.3,2.4,0.5s1.5,0.5,2.2,0.9
			c0.7,0.3,1.3,0.7,1.8,1.2L1181.2,7724.6z"/>
		<path class="st2" d="M1193.5,7737.8l-5.4,0.3l-0.5-18.4l5.7-0.4L1193.5,7737.8z M1193.4,7715.7l-5.5,0.2l-0.1-4.5l5.6-0.3V7715.7z
			"/>
		<path class="st2" d="M1207.6,7718.5c1.3,0,2.5,0.2,3.7,0.6c1.1,0.4,2.1,1,3,1.9s1.5,1.8,2,3.1c0.5,1.2,0.7,2.6,0.7,4.2
			c0,1.7-0.3,3.1-0.8,4.4s-1.2,2.4-2.2,3.3c-0.9,0.9-2,1.6-3.2,2c-1.2,0.5-2.5,0.7-3.9,0.7c-1.3,0-2.5-0.2-3.6-0.6s-2.1-1-3-1.9
			c-0.8-0.8-1.5-1.9-2-3.1c-0.5-1.2-0.7-2.6-0.7-4.3c0-1.6,0.3-3.1,0.8-4.4s1.2-2.4,2.1-3.3c0.9-0.9,1.9-1.6,3.1-2
			C1204.9,7718.7,1206.2,7718.5,1207.6,7718.5z M1207.5,7723.1c-1.2,0-2.2,0.5-3.1,1.4c-0.9,0.9-1.3,2.4-1.3,4.3
			c0,0.9,0.1,1.7,0.3,2.4c0.2,0.7,0.5,1.2,0.9,1.6c0.4,0.4,0.8,0.7,1.3,0.9c0.5,0.2,1,0.3,1.6,0.3c0.6,0,1.1-0.1,1.7-0.3
			c0.5-0.2,1-0.5,1.4-1c0.4-0.4,0.7-1,0.9-1.7c0.2-0.7,0.4-1.6,0.4-2.6c0-1.8-0.4-3.2-1.2-4
			C1209.6,7723.5,1208.6,7723.1,1207.5,7723.1z"/>
		<path class="st2" d="M1226.6,7722.2c1.4-1.2,2.8-2.1,4.1-2.7s2.6-0.9,4-0.9c1.2,0,2.1,0.2,2.8,0.6c0.7,0.4,1.2,1.1,1.6,1.9
			c0.4,0.8,0.6,1.8,0.7,3c0.1,1.2,0.2,2.6,0.2,4.2c0,1.6,0,3.2-0.1,4.7c-0.1,1.6-0.2,3.1-0.4,4.7l-5.4-0.1c0.1-1.2,0.2-2.5,0.3-3.7
			c0.1-1.3,0.1-2.8,0.1-4.4c0-0.9,0-1.8-0.1-2.5s-0.2-1.3-0.3-1.8c-0.2-0.5-0.4-0.8-0.8-1c-0.3-0.2-0.8-0.4-1.3-0.4
			c-0.7,0-1.5,0.2-2.3,0.6c-0.9,0.4-1.8,1.1-3,2.1l0.1,11.1l-5.4,0.3l-0.3-18.7l5.4-0.3L1226.6,7722.2z"/>
		<path class="st2" d="M1255.8,7727.9l7.8,9.3l-4.7,2.1l-8.6-9.6l0,8.1l-5.4,0.3l-0.5-25.6l5.7-0.3l0.1,15l9.2-9.5l4.2,2.1
			L1255.8,7727.9z"/>
		<path class="st2" d="M1272.4,7737.8l-5.4,0.3l-0.5-18.4l5.7-0.4L1272.4,7737.8z M1272.4,7715.7l-5.5,0.2l-0.1-4.5l5.6-0.3V7715.7z
			"/>
		<path class="st2" d="M1290.2,7723.5l-5.8,0.1l0,6.6c0,1.2,0.3,2,0.8,2.4s1.2,0.6,2,0.6c0.7,0,1.6-0.2,2.4-0.5l0.5,4.4
			c-1,0.3-1.8,0.5-2.6,0.7c-0.8,0.2-1.6,0.2-2.3,0.2c-1,0-1.8-0.1-2.6-0.4c-0.7-0.3-1.4-0.7-1.9-1.3c-0.5-0.6-0.9-1.3-1.2-2.2
			s-0.4-2-0.5-3.3l-0.1-7.1l-3,0.1l0.1-4.4l2.8,0l-0.1-4.3l5.6-0.7v5l6-0.1L1290.2,7723.5z"/>
		<path class="st2" d="M1307.2,7725.1c-0.5-0.7-1.1-1.2-1.8-1.5c-0.7-0.3-1.4-0.5-2.2-0.5c-1.4,0-2.5,0.5-3.4,1.5
			c-0.9,1-1.3,2.3-1.3,4c0,1.6,0.4,2.9,1.3,3.9c0.9,1,2,1.5,3.5,1.5c0.8,0,1.6-0.2,2.4-0.5c0.8-0.3,1.5-0.8,2-1.5l2.5,3.4
			c-0.5,0.6-1,1.2-1.6,1.6c-0.6,0.4-1.2,0.8-1.9,1c-0.7,0.3-1.3,0.5-2,0.6c-0.7,0.1-1.3,0.2-2,0.2c-1.6,0-2.9-0.3-4.1-0.8
			c-1.2-0.5-2.2-1.3-3-2.2c-0.8-0.9-1.4-2-1.8-3.2c-0.4-1.2-0.6-2.5-0.6-3.9c0-1.5,0.2-2.8,0.7-4.1c0.5-1.2,1.1-2.3,2-3.2
			c0.9-0.9,1.9-1.6,3.1-2.1s2.5-0.8,4-0.8c0.7,0,1.5,0.1,2.2,0.2c0.7,0.2,1.5,0.4,2.2,0.7c0.7,0.3,1.3,0.7,1.9,1.2
			c0.6,0.5,1.1,1.1,1.5,1.8L1307.2,7725.1z"/>
		<path class="st2" d="M1327.3,7737.8c0.1-1.3,0.2-2.5,0.3-3.8c0.1-1.3,0.1-2.8,0.1-4.4c0-0.9,0-1.7-0.1-2.4s-0.2-1.3-0.3-1.8
			c-0.2-0.5-0.4-0.8-0.7-1.1c-0.3-0.2-0.8-0.4-1.3-0.4c-0.7,0-1.5,0.2-2.4,0.6c-0.8,0.4-1.8,1.1-2.9,2.1l0.1,11.1l-5.4,0.3
			l-0.5-25.6l5.7-0.3l0,10c1.4-1.2,2.7-2.1,4-2.6c1.3-0.6,2.6-0.9,4-0.9c1.2,0,2.1,0.2,2.8,0.6c0.7,0.4,1.2,1.1,1.6,1.9
			s0.6,1.8,0.7,3c0.1,1.2,0.2,2.6,0.2,4.1c0,1.6,0,3.2-0.1,4.7c-0.1,1.6-0.2,3.2-0.4,4.8L1327.3,7737.8z"/>
		<path class="st2" d="M1342.8,7730.1c0.6,2.8,2.4,4.2,5.4,4.2c0.9,0,1.8-0.1,2.6-0.4c0.8-0.3,1.6-0.7,2.3-1.2l2.1,3.8
			c-1.2,0.8-2.4,1.4-3.7,1.8c-1.2,0.4-2.6,0.6-4.1,0.6c-1.5,0-2.9-0.2-4.2-0.7c-1.2-0.5-2.3-1.1-3.1-2c-0.9-0.9-1.5-2-2-3.3
			c-0.5-1.3-0.7-2.7-0.7-4.4c0-1.4,0.2-2.7,0.5-3.9s0.9-2.3,1.7-3.2c0.8-0.9,1.8-1.6,3.1-2.1c1.2-0.5,2.7-0.8,4.5-0.8
			c1.2,0,2.4,0.1,3.5,0.4c1.1,0.3,2,0.7,2.8,1.3c0.8,0.6,1.4,1.4,1.9,2.3c0.5,0.9,0.7,2.1,0.7,3.4c0,0.6,0,1.2-0.1,1.8
			s-0.2,1.3-0.4,1.9L1342.8,7730.1z M1347.2,7722.6c-1.5,0-2.6,0.4-3.3,1.1c-0.7,0.7-1.1,1.7-1.3,3l8.6,0v-0.3c0-1.3-0.4-2.2-1-2.9
			C1349.5,7723,1348.5,7722.6,1347.2,7722.6z"/>
		<path class="st2" d="M1366,7722.2c1.4-1.2,2.8-2.1,4.1-2.7s2.6-0.9,4-0.9c1.2,0,2.1,0.2,2.8,0.6c0.7,0.4,1.2,1.1,1.6,1.9
			c0.4,0.8,0.6,1.8,0.7,3c0.1,1.2,0.2,2.6,0.2,4.2c0,1.6,0,3.2-0.1,4.7c-0.1,1.6-0.2,3.1-0.4,4.7l-5.4-0.1c0.1-1.2,0.2-2.5,0.3-3.7
			c0.1-1.3,0.1-2.8,0.1-4.4c0-0.9,0-1.8-0.1-2.5s-0.2-1.3-0.3-1.8c-0.2-0.5-0.4-0.8-0.8-1c-0.3-0.2-0.8-0.4-1.3-0.4
			c-0.7,0-1.5,0.2-2.3,0.6c-0.9,0.4-1.8,1.1-3,2.1l0.1,11.1l-5.4,0.3l-0.3-18.7l5.4-0.3L1366,7722.2z"/>
	</g>
	<g class="st1">
		<path class="st2" d="M1456.2,7639.4l-11.5,0.4l0,5.5l11.1,0l-0.1,4.6l-11,0.2v9.2l-5.7,0.2l-0.3-24.7l17.6-0.5L1456.2,7639.4z"/>
		<path class="st2" d="M1478.9,7658.6l-5.2,0.3l-0.2-3.2c-1.4,1.2-2.8,2.1-4.1,2.7c-1.3,0.6-2.7,0.9-4.1,0.9c-1.2,0-2.1-0.2-2.8-0.6
			s-1.2-1-1.6-1.9c-0.4-0.8-0.6-1.9-0.7-3.1c-0.1-1.2-0.2-2.7-0.2-4.3c0-1.4,0-2.9,0.1-4.5s0.2-3.2,0.4-4.8l5.5,0.1
			c-0.1,1.3-0.3,2.5-0.4,3.9c-0.1,1.3-0.2,2.9-0.2,4.6c0,0.9,0,1.8,0.1,2.4c0.1,0.7,0.2,1.3,0.4,1.8c0.2,0.5,0.5,0.8,0.8,1.1
			c0.3,0.2,0.8,0.4,1.4,0.4c0.7,0,1.4-0.2,2.3-0.6c0.9-0.4,1.8-1.1,3-2.2l-0.1-11.4l5.6-0.3L1478.9,7658.6z"/>
		<path class="st2" d="M1498.2,7645.5c-0.8-0.7-1.8-1.2-3-1.5c-1.2-0.3-2.4-0.5-3.6-0.5c-1.1,0-1.9,0.1-2.5,0.4s-0.9,0.8-0.9,1.4
			c0,0.5,0.2,0.8,0.5,1c0.3,0.2,0.7,0.4,1.3,0.6c0.5,0.1,1,0.3,1.6,0.3c0.6,0.1,1.2,0.2,1.8,0.3c0.6,0.1,1.2,0.2,1.8,0.3
			c0.6,0.1,1.2,0.2,1.7,0.4c0.6,0.2,1.1,0.4,1.6,0.6s0.9,0.6,1.3,1s0.6,0.9,0.9,1.5c0.2,0.6,0.3,1.2,0.3,2c0,1.1-0.2,2-0.7,2.8
			c-0.5,0.8-1.1,1.4-1.9,2c-0.8,0.5-1.7,0.9-2.7,1.1s-2.2,0.4-3.3,0.4c-1.8,0-3.6-0.2-5.4-0.7c-1.8-0.5-3.4-1.1-4.8-1.8l2.2-3.9
			c0.5,0.3,1.1,0.5,1.8,0.8c0.7,0.2,1.3,0.4,2,0.6c0.7,0.2,1.4,0.3,2.1,0.4c0.7,0.1,1.4,0.1,2,0.1c1.1,0,1.9-0.1,2.5-0.4
			c0.6-0.3,0.9-0.8,0.9-1.4c0-0.5-0.2-0.9-0.6-1.2c-0.4-0.3-1-0.5-1.7-0.6c-0.4-0.1-0.9-0.2-1.5-0.3c-0.5-0.1-1.1-0.2-1.7-0.3
			c-0.6-0.1-1.2-0.2-1.7-0.3c-0.6-0.1-1.1-0.3-1.6-0.4c-0.5-0.2-1.1-0.4-1.6-0.6c-0.5-0.3-0.9-0.6-1.3-1c-0.4-0.4-0.7-0.9-0.9-1.4
			c-0.2-0.6-0.3-1.2-0.3-2c0-1.1,0.3-2.1,0.8-2.8c0.6-0.8,1.3-1.4,2.1-1.8s1.8-0.8,2.9-1c1-0.2,2-0.3,3-0.3c0.8,0,1.6,0.1,2.4,0.2
			c0.8,0.1,1.6,0.3,2.4,0.5s1.5,0.5,2.2,0.9c0.7,0.3,1.3,0.7,1.8,1.2L1498.2,7645.5z"/>
		<path class="st2" d="M1510.5,7658.7l-5.4,0.3l-0.5-18.4l5.7-0.4L1510.5,7658.7z M1510.4,7636.6l-5.5,0.2l-0.1-4.5l5.6-0.3V7636.6z
			"/>
		<path class="st2" d="M1524.6,7639.4c1.3,0,2.5,0.2,3.7,0.6c1.1,0.4,2.1,1,3,1.9s1.5,1.8,2,3.1c0.5,1.2,0.7,2.6,0.7,4.2
			c0,1.7-0.3,3.1-0.8,4.4c-0.5,1.3-1.2,2.4-2.2,3.3c-0.9,0.9-2,1.6-3.2,2s-2.5,0.7-3.8,0.7c-1.3,0-2.5-0.2-3.6-0.6s-2.1-1-3-1.9
			c-0.8-0.8-1.5-1.9-2-3.1c-0.5-1.2-0.7-2.6-0.7-4.3c0-1.6,0.3-3.1,0.8-4.4c0.5-1.3,1.2-2.4,2.1-3.3c0.9-0.9,1.9-1.6,3.1-2
			C1521.9,7639.6,1523.2,7639.4,1524.6,7639.4z M1524.5,7644c-1.2,0-2.2,0.5-3.1,1.4c-0.9,0.9-1.3,2.4-1.3,4.3
			c0,0.9,0.1,1.7,0.3,2.4c0.2,0.7,0.5,1.2,0.9,1.6s0.8,0.7,1.3,0.9s1,0.3,1.6,0.3c0.6,0,1.1-0.1,1.7-0.3c0.5-0.2,1-0.5,1.4-1
			c0.4-0.4,0.7-1,0.9-1.7c0.2-0.7,0.4-1.6,0.4-2.6c0-1.8-0.4-3.2-1.2-4C1526.6,7644.4,1525.6,7644,1524.5,7644z"/>
		<path class="st2" d="M1543.6,7643.1c1.4-1.2,2.8-2.1,4.1-2.7s2.6-0.9,4-0.9c1.2,0,2.1,0.2,2.8,0.6c0.7,0.4,1.2,1.1,1.6,1.9
			c0.4,0.8,0.6,1.8,0.7,3c0.1,1.2,0.2,2.6,0.2,4.2c0,1.6,0,3.2-0.1,4.7c-0.1,1.6-0.2,3.1-0.4,4.7l-5.4-0.1c0.1-1.2,0.2-2.5,0.3-3.7
			c0.1-1.3,0.1-2.8,0.1-4.4c0-0.9,0-1.8-0.1-2.5s-0.2-1.3-0.3-1.8s-0.4-0.8-0.8-1c-0.3-0.2-0.8-0.4-1.3-0.4c-0.7,0-1.5,0.2-2.3,0.6
			c-0.9,0.4-1.8,1.1-3,2.1l0.1,11.1l-5.4,0.3l-0.3-18.7l5.4-0.3L1543.6,7643.1z"/>
		<path class="st2" d="M1567.9,7645.2l10-11.4l4.9,1.9l-8.9,10.3l8.9,11.8l-5.2,2.2l-9.7-12.1l0,11.3l-5.7,0.3l-0.3-24.7l6-0.3
			V7645.2z"/>
		<path class="st2" d="M1592.1,7658.7l-5.4,0.3l-0.5-18.4l5.7-0.4L1592.1,7658.7z M1592,7636.6l-5.5,0.2l-0.1-4.5l5.6-0.3V7636.6z"
			/>
		<path class="st2" d="M1609.8,7644.4l-5.8,0.1l0,6.6c0,1.2,0.3,2,0.8,2.4c0.5,0.4,1.2,0.6,2,0.6c0.7,0,1.6-0.2,2.4-0.5l0.5,4.4
			c-1,0.3-1.8,0.5-2.6,0.7c-0.8,0.2-1.6,0.2-2.3,0.2c-1,0-1.8-0.1-2.6-0.4c-0.7-0.3-1.4-0.7-1.9-1.3c-0.5-0.6-0.9-1.3-1.2-2.2
			s-0.4-2-0.5-3.3l-0.1-7.1l-3,0.1l0.1-4.4l2.8,0l-0.1-4.3l5.6-0.7v5l6-0.1L1609.8,7644.4z"/>
		<path class="st2" d="M1626.8,7646c-0.5-0.7-1.1-1.2-1.8-1.5s-1.4-0.5-2.2-0.5c-1.4,0-2.5,0.5-3.4,1.5c-0.9,1-1.3,2.3-1.3,4
			c0,1.6,0.4,2.9,1.3,3.9c0.9,1,2,1.5,3.5,1.5c0.8,0,1.6-0.2,2.4-0.5c0.8-0.3,1.5-0.8,2-1.5l2.5,3.4c-0.5,0.6-1,1.2-1.6,1.6
			c-0.6,0.4-1.2,0.8-1.9,1c-0.7,0.3-1.3,0.5-2,0.6c-0.7,0.1-1.3,0.2-2,0.2c-1.6,0-2.9-0.3-4.1-0.8c-1.2-0.5-2.2-1.3-3-2.2
			c-0.8-0.9-1.4-2-1.8-3.2c-0.4-1.2-0.6-2.5-0.6-3.9c0-1.5,0.2-2.8,0.7-4.1c0.5-1.2,1.1-2.3,2-3.2c0.9-0.9,1.9-1.6,3.1-2.1
			s2.5-0.8,4-0.8c0.7,0,1.5,0.1,2.2,0.2c0.7,0.2,1.5,0.4,2.2,0.7c0.7,0.3,1.3,0.7,1.9,1.2c0.6,0.5,1.1,1.1,1.5,1.8L1626.8,7646z"/>
		<path class="st2" d="M1647,7658.7c0.1-1.3,0.2-2.5,0.3-3.8s0.1-2.8,0.1-4.4c0-0.9,0-1.7-0.1-2.4s-0.2-1.3-0.3-1.8
			s-0.4-0.8-0.7-1.1c-0.3-0.2-0.8-0.4-1.3-0.4c-0.7,0-1.5,0.2-2.4,0.6c-0.8,0.4-1.8,1.1-2.9,2.1l0.1,11.1l-5.4,0.3l-0.5-25.6
			l5.7-0.3l0,10c1.4-1.2,2.7-2.1,4-2.6c1.3-0.6,2.6-0.9,4-0.9c1.2,0,2.1,0.2,2.8,0.6c0.7,0.4,1.2,1.1,1.6,1.9s0.6,1.8,0.7,3
			c0.1,1.2,0.2,2.6,0.2,4.1c0,1.6,0,3.2-0.1,4.7c-0.1,1.6-0.2,3.2-0.4,4.8L1647,7658.7z"/>
		<path class="st2" d="M1662.4,7651c0.6,2.8,2.4,4.2,5.4,4.2c0.9,0,1.8-0.1,2.6-0.4s1.6-0.7,2.3-1.2l2.1,3.8
			c-1.2,0.8-2.4,1.4-3.7,1.8c-1.2,0.4-2.6,0.6-4.1,0.6c-1.5,0-2.9-0.2-4.2-0.7s-2.3-1.1-3.2-2c-0.9-0.9-1.5-2-2-3.3
			c-0.5-1.3-0.7-2.7-0.7-4.4c0-1.4,0.2-2.7,0.5-3.9s0.9-2.3,1.7-3.2s1.8-1.6,3.1-2.1c1.2-0.5,2.7-0.8,4.5-0.8c1.2,0,2.4,0.1,3.5,0.4
			c1.1,0.3,2,0.7,2.8,1.3c0.8,0.6,1.4,1.4,1.9,2.3c0.5,0.9,0.7,2.1,0.7,3.4c0,0.6,0,1.2-0.1,1.8s-0.2,1.3-0.4,1.9L1662.4,7651z
			 M1666.9,7643.5c-1.5,0-2.6,0.4-3.3,1.1c-0.7,0.7-1.1,1.7-1.3,3l8.6,0v-0.3c0-1.3-0.4-2.2-1.1-2.9
			C1669.2,7643.9,1668.2,7643.5,1666.9,7643.5z"/>
		<path class="st2" d="M1685.7,7643.1c1.4-1.2,2.8-2.1,4.1-2.7s2.6-0.9,4-0.9c1.2,0,2.1,0.2,2.8,0.6c0.7,0.4,1.2,1.1,1.6,1.9
			c0.4,0.8,0.6,1.8,0.7,3c0.1,1.2,0.2,2.6,0.2,4.2c0,1.6,0,3.2-0.1,4.7c-0.1,1.6-0.2,3.1-0.4,4.7l-5.4-0.1c0.1-1.2,0.2-2.5,0.3-3.7
			c0.1-1.3,0.1-2.8,0.1-4.4c0-0.9,0-1.8-0.1-2.5s-0.2-1.3-0.3-1.8c-0.2-0.5-0.4-0.8-0.8-1s-0.8-0.4-1.3-0.4c-0.7,0-1.5,0.2-2.3,0.6
			c-0.9,0.4-1.8,1.1-3,2.1l0.1,11.1l-5.4,0.3l-0.3-18.7l5.4-0.3L1685.7,7643.1z"/>
	</g>
	<g class="st1">
		<path class="st2" d="M1451.5,7723.7l-6.1,0.1l0.1,14l-5.2,0.2l-0.4-14.2l-3,0.1l0.1-4.4h2.7l0-1.7c0-2.3,0.6-4,1.8-5.3
			c1.2-1.2,3.2-1.9,5.8-1.9c0.8,0,1.5,0.1,2.2,0.2c0.7,0.1,1.5,0.3,2.3,0.6l-0.6,4.5c-0.5-0.2-1-0.4-1.5-0.5
			c-0.4-0.1-0.9-0.1-1.4-0.1c-1,0-1.7,0.2-2.2,0.6c-0.5,0.4-0.8,1-0.8,1.9v1.6l6.2-0.1L1451.5,7723.7z"/>
		<path class="st2" d="M1473.6,7737.7l-5.2,0.3l-0.2-3.2c-1.4,1.2-2.8,2.1-4.1,2.7s-2.7,0.9-4.1,0.9c-1.2,0-2.1-0.2-2.8-0.6
			c-0.7-0.4-1.2-1-1.6-1.9c-0.4-0.8-0.6-1.9-0.7-3.1s-0.2-2.7-0.2-4.3c0-1.4,0-2.9,0.1-4.5c0.1-1.6,0.2-3.2,0.4-4.8l5.5,0.1
			c-0.1,1.3-0.3,2.5-0.4,3.9c-0.1,1.3-0.2,2.9-0.2,4.6c0,0.9,0,1.8,0.1,2.4c0.1,0.7,0.2,1.3,0.4,1.8c0.2,0.5,0.5,0.8,0.8,1.1
			c0.3,0.2,0.8,0.4,1.4,0.4c0.7,0,1.4-0.2,2.3-0.6c0.9-0.4,1.8-1.1,3-2.2l-0.1-11.4l5.6-0.3L1473.6,7737.7z"/>
		<path class="st2" d="M1492.9,7724.6c-0.8-0.7-1.8-1.2-3-1.5c-1.2-0.3-2.4-0.5-3.6-0.5c-1.1,0-1.9,0.1-2.5,0.4s-0.9,0.8-0.9,1.4
			c0,0.5,0.2,0.8,0.5,1c0.3,0.2,0.7,0.4,1.3,0.6c0.5,0.1,1,0.3,1.6,0.3c0.6,0.1,1.2,0.2,1.8,0.3c0.6,0.1,1.2,0.2,1.8,0.3
			c0.6,0.1,1.2,0.2,1.7,0.4c0.6,0.2,1.1,0.4,1.6,0.6s0.9,0.6,1.3,1s0.6,0.9,0.9,1.5c0.2,0.6,0.3,1.2,0.3,2c0,1.1-0.2,2-0.7,2.8
			c-0.5,0.8-1.1,1.4-1.9,2c-0.8,0.5-1.7,0.9-2.7,1.1s-2.2,0.4-3.3,0.4c-1.8,0-3.6-0.2-5.4-0.7c-1.8-0.5-3.4-1.1-4.8-1.8l2.2-3.9
			c0.5,0.3,1.1,0.5,1.8,0.8c0.7,0.2,1.3,0.4,2,0.6c0.7,0.2,1.4,0.3,2.1,0.4c0.7,0.1,1.4,0.1,2,0.1c1.1,0,1.9-0.1,2.5-0.4
			c0.6-0.3,0.9-0.8,0.9-1.4c0-0.5-0.2-0.9-0.6-1.2c-0.4-0.3-1-0.5-1.7-0.6c-0.4-0.1-0.9-0.2-1.5-0.3c-0.5-0.1-1.1-0.2-1.7-0.3
			c-0.6-0.1-1.2-0.2-1.7-0.3c-0.6-0.1-1.1-0.3-1.6-0.4c-0.5-0.2-1.1-0.4-1.6-0.6c-0.5-0.3-0.9-0.6-1.3-1c-0.4-0.4-0.7-0.9-0.9-1.4
			c-0.2-0.6-0.3-1.2-0.3-2c0-1.1,0.3-2.1,0.8-2.8c0.6-0.8,1.3-1.4,2.1-1.8s1.8-0.8,2.9-1c1-0.2,2-0.3,3-0.3c0.8,0,1.6,0.1,2.4,0.2
			c0.8,0.1,1.6,0.3,2.4,0.5s1.5,0.5,2.2,0.9c0.7,0.3,1.3,0.7,1.8,1.2L1492.9,7724.6z"/>
		<path class="st2" d="M1505.2,7737.8l-5.4,0.3l-0.5-18.4l5.7-0.4L1505.2,7737.8z M1505.2,7715.7l-5.5,0.2l-0.1-4.5l5.6-0.3V7715.7z
			"/>
		<path class="st2" d="M1519.3,7718.5c1.3,0,2.5,0.2,3.7,0.6c1.1,0.4,2.1,1,3,1.9s1.5,1.8,2,3.1c0.5,1.2,0.7,2.6,0.7,4.2
			c0,1.7-0.3,3.1-0.8,4.4c-0.5,1.3-1.2,2.4-2.2,3.3c-0.9,0.9-2,1.6-3.2,2s-2.5,0.7-3.8,0.7c-1.3,0-2.5-0.2-3.6-0.6s-2.1-1-3-1.9
			c-0.8-0.8-1.5-1.9-2-3.1c-0.5-1.2-0.7-2.6-0.7-4.3c0-1.6,0.3-3.1,0.8-4.4c0.5-1.3,1.2-2.4,2.1-3.3c0.9-0.9,1.9-1.6,3.1-2
			C1516.6,7718.7,1517.9,7718.5,1519.3,7718.5z M1519.2,7723.1c-1.2,0-2.2,0.5-3.1,1.4c-0.9,0.9-1.3,2.4-1.3,4.3
			c0,0.9,0.1,1.7,0.3,2.4c0.2,0.7,0.5,1.2,0.9,1.6s0.8,0.7,1.3,0.9s1,0.3,1.6,0.3c0.6,0,1.1-0.1,1.7-0.3c0.5-0.2,1-0.5,1.4-1
			c0.4-0.4,0.7-1,0.9-1.7c0.2-0.7,0.4-1.6,0.4-2.6c0-1.8-0.4-3.2-1.2-4C1521.3,7723.5,1520.3,7723.1,1519.2,7723.1z"/>
		<path class="st2" d="M1538.3,7722.2c1.4-1.2,2.8-2.1,4.1-2.7s2.6-0.9,4-0.9c1.2,0,2.1,0.2,2.8,0.6c0.7,0.4,1.2,1.1,1.6,1.9
			c0.4,0.8,0.6,1.8,0.7,3c0.1,1.2,0.2,2.6,0.2,4.2c0,1.6,0,3.2-0.1,4.7c-0.1,1.6-0.2,3.1-0.4,4.7l-5.4-0.1c0.1-1.2,0.2-2.5,0.3-3.7
			c0.1-1.3,0.1-2.8,0.1-4.4c0-0.9,0-1.8-0.1-2.5s-0.2-1.3-0.3-1.8s-0.4-0.8-0.8-1c-0.3-0.2-0.8-0.4-1.3-0.4c-0.7,0-1.5,0.2-2.3,0.6
			c-0.9,0.4-1.8,1.1-3,2.1l0.1,11.1l-5.4,0.3l-0.3-18.7l5.4-0.3L1538.3,7722.2z"/>
		<path class="st2" d="M1567.5,7727.9l7.8,9.3l-4.7,2.1l-8.6-9.6l0,8.1l-5.4,0.3l-0.5-25.6l5.7-0.3l0.1,15l9.2-9.5l4.2,2.1
			L1567.5,7727.9z"/>
		<path class="st2" d="M1584.2,7737.8l-5.4,0.3l-0.5-18.4l5.7-0.4L1584.2,7737.8z M1584.1,7715.7l-5.5,0.2l-0.1-4.5l5.6-0.3V7715.7z
			"/>
		<path class="st2" d="M1601.9,7723.5l-5.8,0.1l0,6.6c0,1.2,0.3,2,0.8,2.4c0.5,0.4,1.2,0.6,2,0.6c0.7,0,1.6-0.2,2.4-0.5l0.5,4.4
			c-1,0.3-1.8,0.5-2.6,0.7c-0.8,0.2-1.6,0.2-2.3,0.2c-1,0-1.8-0.1-2.6-0.4c-0.7-0.3-1.4-0.7-1.9-1.3c-0.5-0.6-0.9-1.3-1.2-2.2
			s-0.4-2-0.5-3.3l-0.1-7.1l-3,0.1l0.1-4.4l2.8,0l-0.1-4.3l5.6-0.7v5l6-0.1L1601.9,7723.5z"/>
		<path class="st2" d="M1618.9,7725.1c-0.5-0.7-1.1-1.2-1.8-1.5s-1.4-0.5-2.2-0.5c-1.4,0-2.5,0.5-3.4,1.5c-0.9,1-1.3,2.3-1.3,4
			c0,1.6,0.4,2.9,1.3,3.9c0.9,1,2,1.5,3.5,1.5c0.8,0,1.6-0.2,2.4-0.5c0.8-0.3,1.5-0.8,2-1.5l2.5,3.4c-0.5,0.6-1,1.2-1.6,1.6
			c-0.6,0.4-1.2,0.8-1.9,1c-0.7,0.3-1.3,0.5-2,0.6c-0.7,0.1-1.3,0.2-2,0.2c-1.6,0-2.9-0.3-4.1-0.8c-1.2-0.5-2.2-1.3-3-2.2
			c-0.8-0.9-1.4-2-1.8-3.2c-0.4-1.2-0.6-2.5-0.6-3.9c0-1.5,0.2-2.8,0.7-4.1c0.5-1.2,1.1-2.3,2-3.2c0.9-0.9,1.9-1.6,3.1-2.1
			s2.5-0.8,4-0.8c0.7,0,1.5,0.1,2.2,0.2c0.7,0.2,1.5,0.4,2.2,0.7c0.7,0.3,1.3,0.7,1.9,1.2c0.6,0.5,1.1,1.1,1.5,1.8L1618.9,7725.1z"
			/>
		<path class="st2" d="M1639,7737.8c0.1-1.3,0.2-2.5,0.3-3.8s0.1-2.8,0.1-4.4c0-0.9,0-1.7-0.1-2.4s-0.2-1.3-0.3-1.8
			c-0.2-0.5-0.4-0.8-0.7-1.1s-0.8-0.4-1.3-0.4c-0.7,0-1.5,0.2-2.4,0.6c-0.8,0.4-1.8,1.1-2.9,2.1l0.1,11.1l-5.4,0.3l-0.5-25.6
			l5.7-0.3l0,10c1.4-1.2,2.7-2.1,4-2.6c1.3-0.6,2.6-0.9,4-0.9c1.2,0,2.1,0.2,2.8,0.6c0.7,0.4,1.2,1.1,1.6,1.9c0.4,0.8,0.6,1.8,0.7,3
			c0.1,1.2,0.2,2.6,0.2,4.1c0,1.6,0,3.2-0.1,4.7c-0.1,1.6-0.2,3.2-0.4,4.8L1639,7737.8z"/>
		<path class="st2" d="M1654.5,7730.1c0.6,2.8,2.4,4.2,5.4,4.2c0.9,0,1.8-0.1,2.6-0.4s1.6-0.7,2.3-1.2l2.1,3.8
			c-1.2,0.8-2.4,1.4-3.7,1.8c-1.2,0.4-2.6,0.6-4.1,0.6c-1.5,0-2.9-0.2-4.2-0.7s-2.3-1.1-3.1-2c-0.9-0.9-1.5-2-2-3.3
			s-0.7-2.7-0.7-4.4c0-1.4,0.2-2.7,0.5-3.9c0.4-1.2,0.9-2.3,1.7-3.2c0.8-0.9,1.8-1.6,3.1-2.1c1.2-0.5,2.7-0.8,4.5-0.8
			c1.2,0,2.4,0.1,3.5,0.4s2,0.7,2.8,1.3c0.8,0.6,1.4,1.4,1.9,2.3c0.5,0.9,0.7,2.1,0.7,3.4c0,0.6,0,1.2-0.1,1.8
			c-0.1,0.6-0.2,1.3-0.4,1.9L1654.5,7730.1z M1658.9,7722.6c-1.5,0-2.6,0.4-3.3,1.1c-0.7,0.7-1.2,1.7-1.3,3l8.6,0v-0.3
			c0-1.3-0.3-2.2-1-2.9S1660.2,7722.6,1658.9,7722.6z"/>
		<path class="st2" d="M1677.7,7722.2c1.4-1.2,2.8-2.1,4.1-2.7s2.6-0.9,4-0.9c1.2,0,2.1,0.2,2.8,0.6c0.7,0.4,1.2,1.1,1.6,1.9
			c0.4,0.8,0.6,1.8,0.7,3c0.1,1.2,0.2,2.6,0.2,4.2c0,1.6,0,3.2-0.1,4.7c-0.1,1.6-0.2,3.1-0.4,4.7l-5.4-0.1c0.1-1.2,0.2-2.5,0.3-3.7
			c0.1-1.3,0.1-2.8,0.1-4.4c0-0.9,0-1.8-0.1-2.5s-0.2-1.3-0.3-1.8c-0.2-0.5-0.4-0.8-0.8-1s-0.8-0.4-1.3-0.4c-0.7,0-1.5,0.2-2.3,0.6
			c-0.9,0.4-1.8,1.1-3,2.1l0.1,11.1l-5.4,0.3l-0.3-18.7l5.4-0.3L1677.7,7722.2z"/>
	</g>
	<g id="cross" transform="translate(1343.668 7760.668)">
		
			<linearGradient id="Ellipse_1391_00000052105929656954471600000009651355023275125930_" gradientUnits="userSpaceOnUse" x1="-886.358" y1="513.939" x2="-886.358" y2="512.939" gradientTransform="matrix(100 0 0 -100 88702.125 51410.2266)">
			<stop  offset="0" style="stop-color:#DB3A4B"/>
			<stop  offset="1" style="stop-color:#AB1F5F"/>
		</linearGradient>
		
			<circle id="Ellipse_1391" style="fill:url(#Ellipse_1391_00000052105929656954471600000009651355023275125930_);" cx="66.3" cy="66.3" r="50"/>
		
			<linearGradient id="Path_11388_00000003087907653556677340000015727595233234058940_" gradientUnits="userSpaceOnUse" x1="-881.1625" y1="510.3699" x2="-881.1625" y2="509.3699" gradientTransform="matrix(52.7919 0 0 -52.8469 46584.5898 27011.3809)">
			<stop  offset="0" style="stop-color:#EEF3FA"/>
			<stop  offset="1" style="stop-color:#B5D2EE"/>
		</linearGradient>
		
			<path id="Path_11388" style="fill-rule:evenodd;clip-rule:evenodd;fill:url(#Path_11388_00000003087907653556677340000015727595233234058940_);" d="
			M41.6,91c2.2,2.2,5.9,2.2,8.1,0l16.6-16.6L82.9,91c2.2,2.3,5.9,2.3,8.1,0.1s2.3-5.9,0.1-8.1c0,0-0.1-0.1-0.1-0.1L74.5,66.3
			L91,49.8c2.3-2.2,2.3-5.9,0.1-8.1s-5.9-2.3-8.1-0.1c0,0-0.1,0.1-0.1,0.1L66.3,58.2L49.8,41.6c-2.3-2.2-5.9-2.2-8.1,0.1
			c-2.2,2.2-2.2,5.8,0,8l16.6,16.6L41.6,82.9C39.4,85.1,39.4,88.8,41.6,91z"/>
	</g>
</g>
</svg>
