<?xml version="1.0" encoding="utf-8"?>
<!-- Generator: Adobe Illustrator 26.0.3, SVG Export Plug-In . SVG Version: 6.00 Build 0)  -->
<svg version="1.1" id="Layer_1" xmlns="http://www.w3.org/2000/svg" xmlns:xlink="http://www.w3.org/1999/xlink" x="0px" y="0px"
	 viewBox="0 0 746.3 278.4" style="enable-background:new 0 0 746.3 278.4;" xml:space="preserve">
<style type="text/css">
	.st0{fill:#F4F5F5;}
	.st1{enable-background:new    ;}
	.st2{fill:#00C070;}
	.st3{fill:url(#Ellipse_1390_00000117674319671251770710000003998149182855147145_);}
	.st4{fill:url(#Path_11386_00000088100406920130424070000000238359924787813559_);}
	.st5{fill:#FFFFFF;}
</style>
<g id="Group_17079" transform="translate(-191 -7598.607)">
	<path id="Rectangle_6483" class="st0" d="M201,7598.6h726.3c5.5,0,10,4.5,10,10V7843c0,5.5-4.5,10-10,10H201c-5.5,0-10-4.5-10-10
		v-234.4C191,7603.1,195.5,7598.6,201,7598.6z"/>
	<g class="st1">
		<path class="st2" d="M448.2,7686.4l-11.5,0.4l0,5.5l11.1,0l-0.1,4.6l-11,0.2v9.2l-5.7,0.2l-0.3-24.7l17.6-0.5L448.2,7686.4z"/>
		<path class="st2" d="M470.9,7705.6l-5.2,0.3l-0.2-3.2c-1.4,1.2-2.8,2.1-4.1,2.7c-1.3,0.6-2.7,0.9-4.1,0.9c-1.2,0-2.1-0.2-2.8-0.6
			c-0.7-0.4-1.2-1-1.6-1.9c-0.4-0.8-0.6-1.9-0.7-3.1c-0.1-1.2-0.2-2.7-0.2-4.3c0-1.4,0-2.9,0.1-4.5c0.1-1.6,0.2-3.2,0.4-4.8l5.5,0.1
			c-0.1,1.3-0.3,2.5-0.4,3.9c-0.1,1.3-0.2,2.9-0.2,4.6c0,0.9,0,1.8,0.1,2.4c0.1,0.7,0.2,1.3,0.4,1.8c0.2,0.5,0.5,0.8,0.8,1.1
			c0.4,0.2,0.8,0.4,1.4,0.4c0.7,0,1.4-0.2,2.3-0.6c0.9-0.4,1.8-1.1,3-2.2l-0.1-11.4l5.6-0.3L470.9,7705.6z"/>
		<path class="st2" d="M490.2,7692.5c-0.8-0.7-1.8-1.2-3-1.5c-1.2-0.3-2.4-0.5-3.6-0.5c-1,0-1.9,0.1-2.4,0.4
			c-0.6,0.3-0.9,0.8-0.9,1.4c0,0.5,0.2,0.8,0.5,1c0.3,0.2,0.7,0.4,1.3,0.6c0.5,0.1,1,0.3,1.6,0.3c0.6,0.1,1.2,0.2,1.8,0.3
			c0.6,0.1,1.2,0.2,1.8,0.3c0.6,0.1,1.2,0.2,1.7,0.4c0.6,0.2,1.1,0.4,1.6,0.6c0.5,0.3,0.9,0.6,1.3,1c0.4,0.4,0.6,0.9,0.9,1.5
			c0.2,0.6,0.3,1.2,0.3,2c0,1.1-0.2,2-0.7,2.8c-0.5,0.8-1.1,1.4-1.9,2c-0.8,0.5-1.7,0.9-2.7,1.1c-1,0.2-2.2,0.4-3.3,0.4
			c-1.8,0-3.6-0.2-5.4-0.7c-1.8-0.5-3.4-1.1-4.8-1.8l2.2-3.9c0.5,0.3,1.1,0.5,1.8,0.8c0.7,0.2,1.3,0.4,2,0.6
			c0.7,0.2,1.4,0.3,2.1,0.4c0.7,0.1,1.4,0.1,2,0.1c1.1,0,1.9-0.1,2.5-0.4c0.6-0.3,0.9-0.8,0.9-1.4c0-0.5-0.2-0.9-0.6-1.2
			c-0.4-0.3-1-0.5-1.7-0.6c-0.4-0.1-0.9-0.2-1.5-0.3c-0.5-0.1-1.1-0.2-1.7-0.3c-0.6-0.1-1.2-0.2-1.7-0.3c-0.6-0.1-1.1-0.3-1.6-0.4
			c-0.5-0.2-1.1-0.4-1.6-0.6c-0.5-0.3-0.9-0.6-1.3-1c-0.4-0.4-0.7-0.9-0.9-1.4c-0.2-0.6-0.3-1.2-0.3-2c0-1.1,0.3-2.1,0.8-2.8
			c0.6-0.8,1.3-1.4,2.1-1.8s1.8-0.8,2.9-1c1-0.2,2-0.3,3-0.3c0.8,0,1.6,0.1,2.4,0.2c0.8,0.1,1.6,0.3,2.4,0.5s1.5,0.5,2.2,0.9
			c0.7,0.3,1.3,0.7,1.8,1.2L490.2,7692.5z"/>
		<path class="st2" d="M502.5,7705.7l-5.4,0.3l-0.5-18.4l5.7-0.4L502.5,7705.7z M502.4,7683.6l-5.5,0.2l-0.1-4.5l5.6-0.3V7683.6z"/>
		<path class="st2" d="M516.6,7686.4c1.3,0,2.5,0.2,3.7,0.6c1.1,0.4,2.1,1,3,1.9s1.5,1.8,2,3.1c0.5,1.2,0.7,2.6,0.7,4.2
			c0,1.7-0.3,3.1-0.8,4.4s-1.2,2.4-2.2,3.3c-0.9,0.9-2,1.6-3.2,2c-1.2,0.5-2.5,0.7-3.9,0.7c-1.3,0-2.5-0.2-3.6-0.6s-2.1-1-3-1.9
			c-0.8-0.8-1.5-1.9-2-3.1c-0.5-1.2-0.7-2.6-0.7-4.3c0-1.6,0.3-3.1,0.8-4.4s1.2-2.4,2.1-3.3c0.9-0.9,1.9-1.6,3.1-2
			C513.9,7686.6,515.2,7686.4,516.6,7686.4z M516.5,7691c-1.2,0-2.2,0.5-3.1,1.4c-0.9,0.9-1.3,2.4-1.3,4.3c0,0.9,0.1,1.7,0.3,2.4
			c0.2,0.7,0.5,1.2,0.9,1.6c0.4,0.4,0.8,0.7,1.3,0.9c0.5,0.2,1,0.3,1.6,0.3c0.6,0,1.1-0.1,1.7-0.3c0.5-0.2,1-0.5,1.4-1
			c0.4-0.4,0.7-1,0.9-1.7c0.2-0.7,0.4-1.6,0.4-2.6c0-1.8-0.4-3.2-1.2-4C518.6,7691.4,517.6,7691,516.5,7691z"/>
		<path class="st2" d="M535.6,7690.1c1.4-1.2,2.8-2.1,4.1-2.7s2.6-0.9,4-0.9c1.2,0,2.1,0.2,2.8,0.6c0.7,0.4,1.2,1.1,1.6,1.9
			c0.4,0.8,0.6,1.8,0.7,3c0.1,1.2,0.2,2.6,0.2,4.2c0,1.6,0,3.2-0.1,4.7c-0.1,1.6-0.2,3.1-0.4,4.7l-5.4-0.1c0.1-1.2,0.2-2.5,0.3-3.7
			c0.1-1.3,0.1-2.8,0.1-4.4c0-0.9,0-1.8-0.1-2.5s-0.2-1.3-0.3-1.8c-0.2-0.5-0.4-0.8-0.8-1c-0.3-0.2-0.8-0.4-1.3-0.4
			c-0.7,0-1.5,0.2-2.3,0.6c-0.9,0.4-1.8,1.1-3,2.1l0.1,11.1l-5.4,0.3l-0.3-18.7l5.4-0.3L535.6,7690.1z"/>
		<path class="st2" d="M568.1,7692.2l10-11.4l4.9,1.9l-8.9,10.3l8.9,11.8l-5.2,2.2l-9.7-12.1l0,11.3l-5.7,0.3l-0.3-24.7l6-0.3
			V7692.2z"/>
		<path class="st2" d="M592.3,7705.7l-5.4,0.3l-0.5-18.4l5.7-0.4L592.3,7705.7z M592.2,7683.6l-5.5,0.2l-0.1-4.5l5.6-0.3V7683.6z"/>
		<path class="st2" d="M610,7691.4l-5.8,0.1l0,6.6c0,1.2,0.3,2,0.8,2.4s1.2,0.6,2,0.6c0.7,0,1.6-0.2,2.4-0.5l0.5,4.4
			c-1,0.3-1.8,0.5-2.6,0.7c-0.8,0.2-1.6,0.2-2.3,0.2c-1,0-1.8-0.1-2.6-0.4c-0.7-0.3-1.4-0.7-1.9-1.3c-0.5-0.6-0.9-1.3-1.2-2.2
			c-0.3-0.9-0.4-2-0.5-3.3l-0.1-7.1l-3,0.1l0.1-4.4l2.8,0l-0.1-4.3l5.6-0.7v5l6-0.1L610,7691.4z"/>
		<path class="st2" d="M627,7693c-0.5-0.7-1.1-1.2-1.8-1.5s-1.4-0.5-2.2-0.5c-1.4,0-2.5,0.5-3.4,1.5c-0.9,1-1.3,2.3-1.3,4
			c0,1.6,0.4,2.9,1.3,3.9c0.9,1,2,1.5,3.5,1.5c0.8,0,1.6-0.2,2.4-0.5c0.8-0.3,1.5-0.8,2-1.5l2.5,3.4c-0.5,0.6-1,1.2-1.6,1.6
			c-0.6,0.4-1.2,0.8-1.9,1c-0.7,0.3-1.3,0.5-2,0.6c-0.7,0.1-1.3,0.2-2,0.2c-1.6,0-2.9-0.3-4.1-0.8c-1.2-0.5-2.2-1.3-3-2.2
			c-0.8-0.9-1.4-2-1.8-3.2c-0.4-1.2-0.6-2.5-0.6-3.9c0-1.5,0.2-2.8,0.7-4.1c0.5-1.2,1.1-2.3,2-3.2c0.9-0.9,1.9-1.6,3.1-2.1
			s2.5-0.8,4-0.8c0.7,0,1.5,0.1,2.2,0.2c0.7,0.2,1.5,0.4,2.2,0.7c0.7,0.3,1.3,0.7,1.9,1.2c0.6,0.5,1.1,1.1,1.5,1.8L627,7693z"/>
		<path class="st2" d="M647.2,7705.7c0.1-1.3,0.2-2.5,0.3-3.8s0.1-2.8,0.1-4.4c0-0.9,0-1.7-0.1-2.4s-0.2-1.3-0.3-1.8
			c-0.2-0.5-0.4-0.8-0.7-1.1s-0.8-0.4-1.3-0.4c-0.7,0-1.5,0.2-2.4,0.6c-0.8,0.4-1.8,1.1-2.9,2.1l0.1,11.1l-5.4,0.3l-0.5-25.6
			l5.7-0.3l0,10c1.4-1.2,2.7-2.1,4-2.6c1.3-0.6,2.6-0.9,4-0.9c1.2,0,2.1,0.2,2.8,0.6c0.7,0.4,1.2,1.1,1.6,1.9c0.4,0.8,0.6,1.8,0.7,3
			c0.1,1.2,0.2,2.6,0.2,4.1c0,1.6,0,3.2-0.1,4.7c-0.1,1.6-0.2,3.2-0.4,4.8L647.2,7705.7z"/>
		<path class="st2" d="M662.6,7698c0.6,2.8,2.4,4.2,5.4,4.2c0.9,0,1.8-0.1,2.6-0.4s1.6-0.7,2.3-1.2l2.1,3.8
			c-1.2,0.8-2.4,1.4-3.7,1.8c-1.2,0.4-2.6,0.6-4.1,0.6c-1.5,0-2.9-0.2-4.2-0.7s-2.3-1.1-3.1-2c-0.9-0.9-1.5-2-2-3.3
			s-0.7-2.7-0.7-4.4c0-1.4,0.2-2.7,0.5-3.9c0.4-1.2,0.9-2.3,1.7-3.2c0.8-0.9,1.8-1.6,3.1-2.1c1.2-0.5,2.7-0.8,4.5-0.8
			c1.2,0,2.4,0.1,3.5,0.4s2,0.7,2.8,1.3c0.8,0.6,1.4,1.4,1.9,2.3c0.5,0.9,0.7,2.1,0.7,3.4c0,0.6,0,1.2-0.1,1.8
			c-0.1,0.6-0.2,1.3-0.4,1.9L662.6,7698z M667.1,7690.5c-1.5,0-2.6,0.4-3.3,1.1c-0.7,0.7-1.2,1.7-1.3,3l8.6,0v-0.3
			c0-1.3-0.3-2.2-1-2.9S668.4,7690.5,667.1,7690.5z"/>
		<path class="st2" d="M685.9,7690.1c1.4-1.2,2.8-2.1,4.1-2.7s2.6-0.9,4-0.9c1.2,0,2.1,0.2,2.8,0.6c0.7,0.4,1.2,1.1,1.6,1.9
			c0.4,0.8,0.6,1.8,0.7,3c0.1,1.2,0.2,2.6,0.2,4.2c0,1.6,0,3.2-0.1,4.7c-0.1,1.6-0.2,3.1-0.4,4.7l-5.4-0.1c0.1-1.2,0.2-2.5,0.3-3.7
			c0.1-1.3,0.1-2.8,0.1-4.4c0-0.9,0-1.8-0.1-2.5s-0.2-1.3-0.3-1.8c-0.2-0.5-0.4-0.8-0.8-1c-0.3-0.2-0.8-0.4-1.3-0.4
			c-0.7,0-1.5,0.2-2.3,0.6c-0.9,0.4-1.8,1.1-3,2.1l0.1,11.1l-5.4,0.3l-0.3-18.7l5.4-0.3L685.9,7690.1z"/>
	</g>
	<g id="check_3_" transform="translate(514 7777)">
		<g id="Group_16430">
			
				<linearGradient id="Ellipse_1390_00000062892466311738940750000000266617829495109803_" gradientUnits="userSpaceOnUse" x1="-902.1444" y1="497.2686" x2="-902.1444" y2="496.2686" gradientTransform="matrix(92.202 0 0 -92.202 83229.5234 45853.0625)">
				<stop  offset="0" style="stop-color:#00C070"/>
				<stop  offset="1" style="stop-color:#186C60"/>
			</linearGradient>
			
				<circle id="Ellipse_1390" style="fill:url(#Ellipse_1390_00000062892466311738940750000000266617829495109803_);" cx="50" cy="50" r="46.1"/>
			
				<linearGradient id="Path_11386_00000182503051955365613120000001985739809366365864_" gradientUnits="userSpaceOnUse" x1="-902.64" y1="497.6069" x2="-902.64" y2="496.6069" gradientTransform="matrix(100 0 0 -100 90314 49760.6953)">
				<stop  offset="0" style="stop-color:#00C070"/>
				<stop  offset="1" style="stop-color:#186C60"/>
			</linearGradient>
			<path id="Path_11386" style="fill:url(#Path_11386_00000182503051955365613120000001985739809366365864_);" d="M50,100
				C22.4,100,0,77.6,0,50S22.4,0,50,0s50,22.4,50,50C100,77.6,77.6,100,50,100z M50,7.7C26.7,7.7,7.7,26.7,7.7,50S26.7,92.3,50,92.3
				S92.3,73.3,92.3,50l0,0C92.2,26.7,73.3,7.8,50,7.7z"/>
		</g>
		<path id="Path_11387" class="st5" d="M43.9,68.5c-1,0-2-0.4-2.8-1.2L26.8,52.7c-1.5-1.6-1.4-4,0.2-5.5c1.5-1.4,3.9-1.4,5.4,0
			l11.5,11.7l23.8-26.2c1.4-1.6,3.9-1.8,5.5-0.4c1.6,1.4,1.8,3.9,0.4,5.5c0,0.1-0.1,0.1-0.1,0.2L46.8,67.2
			C46.1,68,45.1,68.5,43.9,68.5C44,68.5,43.9,68.5,43.9,68.5z"/>
	</g>
</g>
</svg>
