<svg xmlns="http://www.w3.org/2000/svg" width="44" height="44" viewBox="0 0 44 44">
  <g id="Group_20129" data-name="Group 20129" transform="translate(-158 -770)">
    <circle id="Ellipse_1471" data-name="Ellipse 1471" cx="22" cy="22" r="22" transform="translate(158 770)" fill="#e5f8eb"/>
    <g id="_x34_7" transform="translate(170.602 781.43)">
      <path id="Path_11612" data-name="Path 11612" d="M17.576,7.819,15.182,5.8V2.935a.536.536,0,0,0-.536-.536h-1.7a.536.536,0,0,0-.536.536v.531L9.866,1.319a.686.686,0,0,0-.941,0l-7.7,6.5a.691.691,0,0,0,.471,1.2H2.806v8.036a.694.694,0,0,0,.692.692H15.3a.694.694,0,0,0,.692-.692V9.016h1.114a.692.692,0,0,0,.471-1.2ZM9.921,15.228a.752.752,0,0,1-1.211,0C7.755,13.913,6,11.324,6,9.995a3.322,3.322,0,0,1,6.645,0C12.641,11.324,10.883,13.913,9.921,15.228Z" fill="#173303"/>
      <circle id="Ellipse_1472" data-name="Ellipse 1472" cx="1.384" cy="1.384" r="1.384" transform="translate(7.934 8.216)" fill="#173303"/>
    </g>
  </g>
</svg>
