<svg xmlns="http://www.w3.org/2000/svg" width="44" height="44" viewBox="0 0 44 44">
  <g id="Group_20128" data-name="Group 20128" transform="translate(-158 -690)">
    <circle id="Ellipse_1470" data-name="Ellipse 1470" cx="22" cy="22" r="22" transform="translate(158 690)" fill="#e5f8eb"/>
    <path id="XMLID_1270_" d="M20.619,8.534A.7.7,0,0,0,20.1,8.3H16.6V6.2a4.2,4.2,0,0,0-8.4,0V8.3H4.7a.7.7,0,0,0-.7.782L5.2,19.1A2.8,2.8,0,0,0,7.978,21.6h8.839A2.8,2.8,0,0,0,19.6,19.11L20.791,9.081a.7.7,0,0,0-.172-.547ZM9.6,6.2a2.8,2.8,0,1,1,5.6,0V8.3H9.6Zm-.7,4.9a.7.7,0,1,1,.7-.7A.7.7,0,0,1,8.9,11.1ZM15.767,13.6l-2.6,4.059a.875.875,0,0,1-1.38.166L9.793,15.8a.7.7,0,0,1,.913-1.06l1.512,1.093,2.41-3.039a.7.7,0,0,1,1.139.814ZM15.9,11.1a.7.7,0,1,1,.7-.7A.7.7,0,0,1,15.9,11.1Z" transform="translate(167.602 700.702)" fill="#173303"/>
  </g>
</svg>
