<svg xmlns="http://www.w3.org/2000/svg" width="44" height="44" viewBox="0 0 44 44">
  <g id="Group_20133" data-name="Group 20133" transform="translate(-158 -610)">
    <circle id="Ellipse_1469" data-name="Ellipse 1469" cx="22" cy="22" r="22" transform="translate(158 610)" fill="#e5f8eb"/>
    <g id="locations_1_" data-name="locations (1)" transform="translate(168.602 620.544)">
      <path id="Path_11611" data-name="Path 11611" d="M15.416,11.124v.664a.336.336,0,0,1-.338.338h-1a2.011,2.011,0,1,0,0,4.021h5.37a3.351,3.351,0,1,1,0,6.7H8.378a.338.338,0,0,1-.335-.338v-.664a.335.335,0,0,1,.335-.338H19.441a2.011,2.011,0,1,0,0-4.021h-5.37a3.351,3.351,0,1,1,0-6.7h1a.336.336,0,0,1,.338.338ZM5.1,22.709a.67.67,0,0,1-.825,0c-.037-.029-.1-.082-.191-.156-.145-.121-.305-.261-.477-.419a16.336,16.336,0,0,1-1.442-1.494A7.749,7.749,0,0,1,0,15.813a4.692,4.692,0,0,1,9.384,0,7.749,7.749,0,0,1-2.169,4.826,16.336,16.336,0,0,1-1.442,1.494c-.172.158-.333.3-.477.419C5.207,22.627,5.142,22.679,5.1,22.709Zm-.413-4.55a2.346,2.346,0,1,0-2.346-2.346,2.346,2.346,0,0,0,2.346,2.346Zm0-1.341A1.005,1.005,0,1,1,5.7,15.813,1.005,1.005,0,0,1,4.692,16.818Zm13.818-5.169a.67.67,0,0,1-.825,0c-.037-.029-.1-.082-.191-.156-.145-.121-.305-.261-.477-.419A16.337,16.337,0,0,1,15.574,9.58,7.749,7.749,0,0,1,13.4,4.754a4.692,4.692,0,1,1,9.384,0A7.749,7.749,0,0,1,20.619,9.58a16.336,16.336,0,0,1-1.442,1.494c-.172.158-.333.3-.477.419C18.612,11.568,18.547,11.62,18.509,11.649ZM18.1,7.1a2.346,2.346,0,1,0-2.346-2.346A2.346,2.346,0,0,0,18.1,7.1Zm0-1.34A1.005,1.005,0,1,1,19.1,4.754,1.005,1.005,0,0,1,18.1,5.759Z" transform="translate(0)" fill="#173303" fill-rule="evenodd"/>
    </g>
  </g>
</svg>
