<?xml version="1.0" encoding="utf-8"?>
<!-- Generator: Adobe Illustrator 26.0.3, SVG Export Plug-In . SVG Version: 6.00 Build 0)  -->
<svg version="1.1" id="Layer_1" xmlns="http://www.w3.org/2000/svg" xmlns:xlink="http://www.w3.org/1999/xlink" x="0px" y="0px"
	 viewBox="0 0 181 181" style="enable-background:new 0 0 181 181;" xml:space="preserve">
<style type="text/css">
	.st0{filter:url(#Ellipse_1468);}
	.st1{fill:#FFFFFF;}
	.st2{fill-rule:evenodd;clip-rule:evenodd;fill:#BBC6CC;}
</style>
<filter  filterUnits="userSpaceOnUse" height="316" id="Ellipse_1468" width="316" x="0" y="0">
	<feOffset  dy="20" input="SourceAlpha"></feOffset>
	<feGaussianBlur  result="blur" stdDeviation="30"></feGaussianBlur>
	<feFlood  flood-opacity="0.063"></feFlood>
	<feComposite  in2="blur" operator="in"></feComposite>
	<feComposite  in="SourceGraphic" operator="over"></feComposite>
</filter>
<g id="Group_16794" transform="translate(-121 -150)">
	<g transform="matrix(1, 0, 0, 1, 121, 150)" class="st0">
		<circle id="Ellipse_1468-2_00000169552528170488043600000006648948283525894074_" class="st1" cx="90.5" cy="90.5" r="68"/>
	</g>
	<g id="profile" transform="translate(250.5 260.459)">
		<path id="Path_11609" class="st2" d="M-29.8-26.7c0,5.3-4.3,9.7-9.7,9.7s-9.7-4.3-9.7-9.7s4.3-9.7,9.7-9.7c0,0,0,0,0,0
			C-34.1-36.3-29.8-32-29.8-26.7z M-34.6-26.7c0,2.7-2.2,4.8-4.8,4.8c-2.7,0-4.8-2.2-4.8-4.8s2.2-4.8,4.8-4.8
			C-36.8-31.5-34.6-29.4-34.6-26.7L-34.6-26.7z"/>
		<path id="Path_11610" class="st2" d="M-39.5-46C-54.1-46-66-34.1-66-19.5S-54.1,7.1-39.5,7.1s26.5-11.9,26.5-26.5
			C-12.9-34.1-24.8-46-39.5-46C-39.5-46-39.5-46-39.5-46z M-61.2-19.5c0,4.8,1.6,9.6,4.6,13.4c7.3-9.5,20.9-11.4,30.4-4.1
			c1.5,1.1,2.8,2.4,3.9,3.9c7.3-9.5,5.4-23.2-4.1-30.4s-23.2-5.4-30.4,4.1C-59.6-28.8-61.2-24.2-61.2-19.5z M-39.5,2.3
			c-5,0-9.8-1.7-13.7-4.9c5.4-7.6,15.9-9.5,23.5-4.1c1.6,1.1,2.9,2.4,4,4C-29.5,0.5-34.4,2.3-39.5,2.3z"/>
	</g>
</g>
</svg>
