<svg xmlns="http://www.w3.org/2000/svg" width="44" height="44" viewBox="0 0 44 44">
  <g id="Group_20132" data-name="Group 20132" transform="translate(-158 -972)">
    <circle id="Ellipse_1474" data-name="Ellipse 1474" cx="22" cy="22" r="22" transform="translate(158 972)" fill="#e5f8eb"/>
    <g id="Group_20131" data-name="Group 20131">
      <path id="Path_11613" data-name="Path 11613" d="M11.625,1.48H6.074a2.326,2.326,0,0,0-1.643.67L2.062,4.483a2.352,2.352,0,0,0-.7,1.671v7.5A2.372,2.372,0,0,0,3.733,16.02h6.449c-.007-.007-.007-.014-.014-.021a8.4,8.4,0,0,1-.842-4.681,1.707,1.707,0,0,1,.9-1.367l2.8-1.512a1.727,1.727,0,0,1,.822-.207A1.117,1.117,0,0,1,14,8.239V3.848A2.373,2.373,0,0,0,11.625,1.48ZM6.84,11.76H4.8a.69.69,0,0,1,0-1.381H6.84a.69.69,0,0,1,0,1.381ZM8.891,8.591H4.8a.69.69,0,1,1,0-1.381H8.891a.69.69,0,1,1,0,1.381Z" transform="translate(170.236 984.086)" fill="#173303"/>
      <path id="Path_11614" data-name="Path 11614" d="M15.527,14.86a.326.326,0,0,0-.18.269,7.014,7.014,0,0,0,.677,3.887,4.047,4.047,0,0,0,.228.366,4.158,4.158,0,0,0,2.382,1.664c3.583-1.015,3.162-5.04,3.024-5.931a.345.345,0,0,0-.18-.255l-2.81-1.519a.366.366,0,0,0-.338,0l-.014.007Z" transform="translate(165.92 980.427)" fill="#173303"/>
    </g>
  </g>
</svg>
