<?xml version="1.0" encoding="UTF-8"?>
<svg id="Layer_1" data-name="Layer 1" xmlns="http://www.w3.org/2000/svg" viewBox="0 0 340.68 307.17">
  <defs>
    <style>
      .cls-1 {
        fill: #173303;
      }

      .cls-1, .cls-2, .cls-3, .cls-4, .cls-5 {
        stroke-width: 0px;
      }

      .cls-1, .cls-5 {
        isolation: isolate;
      }

      .cls-2 {
        fill: #a0616a;
      }

      .cls-3 {
        fill: #e6e6e6;
      }

      .cls-4 {
        fill: #fff;
      }

      .cls-5 {
        fill: #9fe870;
      }
    </style>
  </defs>
  <path class="cls-1" d="m216.55,177.79l-47.02-55.94-94.38.86-57.25,55.77,1.16.74h-.41v115.99h197.78v-115.99l.13-1.44Z"/>
  <path class="cls-5" d="m169.58,121.97l-58.74,68.86v104.38h105.58v-117.48l-46.84-55.77Z"/>
  <rect class="cls-4" x="153.22" y="237.49" width="21.56" height="19.06"/>
  <rect class="cls-4" x="153.22" y="204.5" width="21.56" height="18.76"/>
  <rect class="cls-4" x="57.4" y="232.43" width="21.56" height="19.06"/>
  <rect class="cls-4" x="57.4" y="199.44" width="21.56" height="18.76"/>
  <rect class="cls-1" y="294.85" width="340.68" height=".81"/>
  <path class="cls-2" d="m289.37,282.04l1.62,8.11-8.11,1.62,1.22-10.13,5.27.41Z"/>
  <path class="cls-2" d="m314.91,280.42l-2.03,10.13h-9.73l4.05-12.16,7.7,2.03Z"/>
  <path class="cls-1" d="m323.83,209.89l1.62,10.94-2.03,23.91-1.62,8.92-6.89,29.18s-7.7,0-8.92-3.24l2.03-16.62s1.62-13.38,1.22-15-6.48-27.56-6.48-27.56c0,0-8.92,40.94-10.13,44.59s-2.84,19.46-2.84,19.46c0,0-6.89,1.22-7.3,0s-.81-29.99-.81-34.45c.05-2.58.32-5.16.81-7.7,0-.81-3.19-39.51-3.19-39.51l44.54,7.08Z"/>
  <path class="cls-1" d="m307.21,288.53c1.07.22,2.17.22,3.24,0,1.22-.41,0-2.84,0-2.84h4.46s4.86,10.94,6.89,11.76,8.51,9.73.81,9.73c-4.75-.06-9.39-1.47-13.38-4.05-.52-2.14-2.28-3.74-4.46-4.05-3.65-.41-6.08-4.86-6.08-4.86l5.27-9.73s1.22,4.46,3.24,4.05Z"/>
  <path class="cls-1" d="m288.16,288.12s-.81,1.62-1.62.81c-.68-.86-1.22-1.82-1.62-2.84,0,0-2.43-1.22-2.84,0s-2.03,7.7-2.84,8.51-9.32,9.32-.81,10.94c8.51,1.62,10.13-2.03,10.13-2.03-.56-.85-.33-2,.52-2.56.21-.14.45-.23.69-.28,2.43-.81,2.84-3.65,2.84-3.65l-1.62-12.16s-1.62,4.05-2.84,3.24Z"/>
  <path class="cls-2" d="m333.15,181.52l1.22,21.08s5.67,13.38-2.03,12.97-2.84-13.38-2.84-13.38l-7.54-18.81,11.19-1.86Z"/>
  <path class="cls-2" d="m270.73,175.44l-1.22,21.08s-5.67,13.38,2.03,12.97,2.84-13.38,2.84-13.38l7.54-18.81-11.19-1.86Z"/>
  <circle class="cls-2" cx="303.16" cy="119.1" r="10.54"/>
  <path class="cls-2" d="m311.47,123.35s-2.84,11.35,2.84,14.19-17.84,6.89-19.46,0l.81-3.24s3.24-4.05,2.43-7.7l13.38-3.24Z"/>
  <path class="cls-3" d="m305.18,137.74s-6.99.65-9.17-3.93c0,0-16.36,1.09-20.01,16.09l6.08,38.91s-6.48,11.35-5.67,12.57c0,0-4.05,11.35,33.24,11.76l16.21-.81c.22-2.3.08-4.63-.41-6.89-.81-3.65-5.27-29.18-5.27-29.18,0,0,12.16-19.05,10.94-21.89s-3.16-14.02-18.81-18.56c0,0-.24,2.35-7.13,1.95Z"/>
  <path class="cls-3" d="m325.85,147.47l5.27,6.89s5.27,28.78,3.65,29.18-11.35,3.65-12.97,2.43-8.92-25.13-8.92-25.13l12.97-13.38Z"/>
  <path class="cls-3" d="m282.89,145.45l-6.89,4.46s-10.13,28.37-7.3,29.59,18.65.4,18.65.4l-4.45-34.45Z"/>
  <path class="cls-1" d="m314.67,109.67s-3.65-7.91-10.65-6.08-10.95,4.56-11.26,7.3c-.15,2.28-.1,4.57.15,6.84,0,0,.76-5.63,5.63-4.41,2.81.57,5.68.77,8.53.59,2.06-.08,3.79,1.51,3.88,3.57,0,.07,0,.14,0,.2l-.13,8.71s10.14-6.48,3.84-16.73Z"/>
  <path class="cls-3" d="m264.97,112.74H121.81c-1.46,0-2.65-1.19-2.65-2.65V44.35c0-1.46,1.19-2.65,2.65-2.65h143.16c1.46,0,2.65,1.19,2.65,2.65v65.73c0,1.46-1.19,2.65-2.65,2.65ZM121.81,42.76c-.88,0-1.59.71-1.59,1.59v65.73c0,.88.71,1.59,1.59,1.59h143.16c.88,0,1.59-.71,1.59-1.59V44.35c0-.88-.71-1.59-1.59-1.59H121.81Z"/>
  <circle class="cls-5" cx="142.99" cy="64.99" r="10.8"/>
  <path class="cls-3" d="m167.94,57.79c-.99,0-1.8.81-1.8,1.8s.81,1.8,1.8,1.8h84.85c.99,0,1.8-.81,1.8-1.8s-.81-1.8-1.8-1.8h-84.85Z"/>
  <path class="cls-3" d="m167.94,68.59c-.99,0-1.8.81-1.8,1.8s.81,1.8,1.8,1.8h36.51c.99,0,1.8-.81,1.8-1.8s-.81-1.8-1.8-1.8h-36.51Z"/>
  <path class="cls-3" d="m134.71,85.85c-1.37,0-2.48.81-2.48,1.8s1.11,1.8,2.48,1.8h117.07c1.37,0,2.48-.81,2.48-1.8s-1.11-1.8-2.48-1.8h-117.07Z"/>
  <path class="cls-3" d="m134.71,96.65c-1.37,0-2.48.81-2.48,1.8s1.11,1.8,2.48,1.8h117.07c1.37,0,2.48-.81,2.48-1.8s-1.11-1.8-2.48-1.8h-117.07Z"/>
  <circle class="cls-5" cx="239.19" cy="19.2" r="19.2"/>
  <path class="cls-5" d="m239.19,50.43l-6.01-10.4-6-10.4h24.02l-6.01,10.4-6.01,10.4Z"/>
  <circle class="cls-4" cx="239.34" cy="19.09" r="6.89"/>
  <ellipse class="cls-2" cx="311.65" cy="119.1" rx="1.62" ry="2.03"/>
</svg>