<svg xmlns="http://www.w3.org/2000/svg" width="65.652" height="63.46" viewBox="0 0 65.652 63.46"><defs><style>.a{fill:#00c070;}</style></defs><g transform="translate(-15.984 -16)"><path class="a" d="M78.349,70.845q0-.069,0-.138a4.381,4.381,0,0,0-4.377-4.377V46.089l3.939-2.954a1.094,1.094,0,0,0-.011-1.759l-9.4-6.868V22.565A1.094,1.094,0,0,0,69.6,21.471V17.094A1.094,1.094,0,0,0,68.5,16H57.563a1.094,1.094,0,0,0-1.094,1.094v4.377a1.094,1.094,0,0,0,1.094,1.094v3.947l-8.108-5.925a1.094,1.094,0,0,0-1.291,0L19.717,41.376a1.094,1.094,0,0,0-.011,1.759l3.939,2.954V66.33a4.381,4.381,0,0,0-4.377,4.377q0,.068,0,.138a4.377,4.377,0,0,0,1.092,8.615H77.258a4.377,4.377,0,0,0,1.092-8.615ZM58.657,18.188H67.41v2.188H58.657Zm1.094,9.847V22.565h6.565V32.908l-6.668-4.873ZM48.81,22.826,75.419,42.271l-2.548,1.911L49.454,27.151a1.094,1.094,0,0,0-1.287,0L24.749,44.181,22.2,42.271ZM18.174,75.083a2.191,2.191,0,0,1,2.155-2.188h0c.056.008.112.014.169.018a1.094,1.094,0,0,0,1.1-1.466,2.151,2.151,0,0,1-.142-.741,2.191,2.191,0,0,1,2.188-2.188v8.753H20.363A2.191,2.191,0,0,1,18.174,75.083Zm47.048,2.188H52.093V53.2h13.13Zm2.188,0V52.106a1.094,1.094,0,0,0-1.094-1.094H51A1.094,1.094,0,0,0,49.9,52.106V77.271H25.833V46.1L48.81,29.388,71.787,46.1V77.271Zm9.847,0H73.975V68.518a2.191,2.191,0,0,1,2.188,2.188,2.151,2.151,0,0,1-.142.741,1.094,1.094,0,0,0,1.1,1.466c.057,0,.113-.01.169-.018h0a2.188,2.188,0,1,1-.033,4.377Z"/><path class="a" d="M134.224,272h-13.13A1.094,1.094,0,0,0,120,273.094v15.318a1.094,1.094,0,0,0,1.094,1.094h13.13a1.094,1.094,0,0,0,1.094-1.094V273.094A1.094,1.094,0,0,0,134.224,272Zm-1.094,7.659h-4.377v-5.471h4.377Zm-6.565-5.471v5.471h-4.377v-5.471Zm-4.377,7.659h4.377v5.471h-4.377Zm6.565,5.471v-5.471h4.377v5.471Z" transform="translate(-89.79 -220.988)"/><circle class="a" cx="1.094" cy="1.094" r="1.094" transform="translate(53.945 64.734) rotate(-67.5)"/></g></svg>