<svg xmlns="http://www.w3.org/2000/svg" width="72.942" height="69.776" viewBox="0 0 72.942 69.776"><defs><style>.a{fill:#276cf6;}</style></defs><g transform="translate(0 -11.112)"><path class="a" d="M71.518,78.039h-4.4V55.052a1.425,1.425,0,0,0-2.849,0V78.039H54.037V66.193a1.425,1.425,0,0,0-1.425-1.425h-9.29A1.425,1.425,0,0,0,41.9,66.193V78.039H31.908V19.393h32.36V42.474a1.425,1.425,0,0,0,2.849,0V17.968a1.425,1.425,0,0,0-1.425-1.425H62.187V12.537a1.425,1.425,0,0,0-1.425-1.425H35.772a1.425,1.425,0,0,0-1.425,1.425v4.007H30.483a1.425,1.425,0,0,0-1.425,1.425v22.25H17.891V35.746a1.425,1.425,0,0,0-1.425-1.425H6.649a1.425,1.425,0,0,0-1.425,1.425V78.039h-3.8a1.425,1.425,0,1,0,0,2.849H71.518a1.425,1.425,0,0,0,0-2.849ZM37.2,13.961H59.338v2.582H37.2ZM8.074,37.17h6.968v3.048H8.074ZM20.21,78.038H16.743V72.951H20.21Zm8.849,0h-6V71.527A1.425,1.425,0,0,0,21.635,70.1H15.318a1.425,1.425,0,0,0-1.425,1.425v6.512H8.074V43.067H29.059Zm22.13,0H44.748V67.618h6.441Z"/><path class="a" d="M453.718,267.254a1.424,1.424,0,1,0-.245,1.863A1.436,1.436,0,0,0,453.718,267.254Z" transform="translate(-386.842 -219.122)"/><path class="a" d="M266.954,106.484a1.425,1.425,0,0,0-1.425-1.425h-6.039a1.425,1.425,0,0,0-1.425,1.425v6.039a1.425,1.425,0,0,0,1.425,1.425h6.039a1.425,1.425,0,0,0,1.425-1.425ZM264.1,111.1h-3.19v-3.19h3.19Z" transform="translate(-221.301 -80.563)"/><path class="a" d="M360.671,106.484a1.425,1.425,0,0,0-1.425-1.425h-6.039a1.425,1.425,0,0,0-1.425,1.425v6.039a1.425,1.425,0,0,0,1.425,1.425h6.039a1.425,1.425,0,0,0,1.425-1.425Zm-2.849,4.614h-3.19v-3.19h3.19Z" transform="translate(-301.666 -80.563)"/><path class="a" d="M266.954,193.924a1.425,1.425,0,0,0-1.425-1.425h-6.039a1.425,1.425,0,0,0-1.425,1.425v6.039a1.425,1.425,0,0,0,1.425,1.425h6.039a1.425,1.425,0,0,0,1.425-1.425Zm-2.849,4.614h-3.19v-3.19h3.19Z" transform="translate(-221.301 -155.546)"/><path class="a" d="M360.671,193.924a1.425,1.425,0,0,0-1.425-1.425h-6.039a1.425,1.425,0,0,0-1.425,1.425v6.039a1.425,1.425,0,0,0,1.425,1.425h6.039a1.425,1.425,0,0,0,1.425-1.425Zm-2.849,4.614h-3.19v-3.19h3.19Z" transform="translate(-301.666 -155.546)"/><path class="a" d="M265.53,279.938h-6.039a1.425,1.425,0,0,0-1.425,1.425V287.4a1.425,1.425,0,0,0,1.425,1.425h6.039a1.425,1.425,0,0,0,1.425-1.425v-6.039A1.425,1.425,0,0,0,265.53,279.938Zm-1.425,6.039h-3.19v-3.19h3.19Z" transform="translate(-221.301 -230.528)"/><path class="a" d="M359.247,279.938h-6.039a1.425,1.425,0,0,0-1.425,1.425V287.4a1.425,1.425,0,0,0,1.425,1.425h6.039a1.425,1.425,0,0,0,1.425-1.425v-6.039A1.425,1.425,0,0,0,359.247,279.938Zm-1.425,6.039h-3.19v-3.19h3.19Z" transform="translate(-301.666 -230.528)"/><path class="a" d="M80.062,258.456a1.425,1.425,0,0,0-1.425,1.425v17.849a1.425,1.425,0,0,0,2.849,0V259.881A1.425,1.425,0,0,0,80.062,258.456Z" transform="translate(-67.434 -212.106)"/><path class="a" d="M121.017,279.154a1.425,1.425,0,0,0,1.425-1.425V259.881a1.425,1.425,0,0,0-2.849,0v17.849A1.425,1.425,0,0,0,121.017,279.154Z" transform="translate(-102.554 -212.106)"/><path class="a" d="M161.973,279.154a1.425,1.425,0,0,0,1.425-1.425V259.881a1.425,1.425,0,0,0-2.849,0v17.849A1.425,1.425,0,0,0,161.973,279.154Z" transform="translate(-137.675 -212.106)"/></g></svg>