<svg xmlns="http://www.w3.org/2000/svg" width="130.223" height="130.223" viewBox="0 0 130.223 130.223"><defs><style>.a{fill:#d1edf9;}.b{fill:#f5d400;}.c{fill:#fff200;}.d{fill:#f7eb00;}.e{fill:#00a9ce;}.f{fill:#25cdec;}.g{fill:#0bc5e8;}.h{fill:#ad6bff;}.i{fill:#c89cff;}.j{fill:#c18fff;}.k{fill:#fdbc00;}.l{fill:#50d9b2;}.m{fill:#ff6381;}</style></defs><g transform="translate(1.908 1.908)"><g transform="translate(33.509 43.304)"><path class="a" d="M222.469,430.241a1.908,1.908,0,0,1-1.908-1.908V404.262a1.908,1.908,0,1,1,3.815,0v24.072A1.908,1.908,0,0,1,222.469,430.241Z" transform="translate(-199.88 -345.23)"/><path class="b" d="M218.007,400.5h-2.361a2.649,2.649,0,0,1-2.516-3.478l2.047-6.206h3.3l2.047,6.206A2.649,2.649,0,0,1,218.007,400.5Z" transform="translate(-194.238 -336.627)"/><path class="c" d="M184.425,200.426c0,15.354-10.113,32.933-22.589,32.933s-22.589-17.579-22.589-32.933,10.113-22.668,22.589-22.668S184.425,185.072,184.425,200.426Z" transform="translate(-139.247 -177.758)"/><path class="d" d="M213.148,177.758a29.17,29.17,0,0,0-5.087.434c10.026,1.776,17.5,9.034,17.5,22.235s-7.476,28.047-17.5,31.951a13.956,13.956,0,0,0,5.087.983c12.476,0,22.589-17.579,22.589-32.933s-10.114-22.668-22.589-22.668Z" transform="translate(-190.559 -177.758)"/></g><g transform="translate(0 10.119)"><path class="a" d="M83.3,337.143a1.908,1.908,0,0,1-1.908-1.908,12.38,12.38,0,0,0-1.141-4.5c-1.006-2.581-2.147-5.506-.462-9.326a19.45,19.45,0,0,1,2.132-3.513c1.1-1.541,1.981-2.768,2.035-4.647-.006-.061-.009-.123-.009-.185,0-1.984-.9-3.241-2.038-4.832a19.429,19.429,0,0,1-2.132-3.513c-1.685-3.82-.545-6.745.462-9.326a12.374,12.374,0,0,0,1.141-4.5V279.408a1.908,1.908,0,1,1,3.815,0v11.486a15.756,15.756,0,0,1-1.4,5.885c-.912,2.34-1.571,4.031-.526,6.4a15.952,15.952,0,0,0,1.744,2.833c1.257,1.758,2.679,3.744,2.747,6.819a1.9,1.9,0,0,1,.014.233c0,3.209-1.461,5.251-2.75,7.052a15.951,15.951,0,0,0-1.744,2.833c-1.046,2.37-.387,4.061.526,6.4a15.756,15.756,0,0,1,1.4,5.885A1.907,1.907,0,0,1,83.3,337.143Zm4.463-24.078h0Z" transform="translate(-60.755 -218.947)"/><path class="e" d="M86.26,270.029H83.9a2.649,2.649,0,0,1-2.516-3.478l2.047-6.206h3.3l2.047,6.206A2.649,2.649,0,0,1,86.26,270.029Z" transform="translate(-62.491 -206.155)"/><path class="f" d="M52.678,69.955c0,15.354-10.113,32.933-22.589,32.933S7.5,85.309,7.5,69.955,17.613,47.287,30.089,47.287,52.678,54.6,52.678,69.955Z" transform="translate(-7.5 -47.287)"/><path class="g" d="M81.4,47.286a29.171,29.171,0,0,0-5.087.434c10.026,1.776,17.5,9.034,17.5,22.235S86.34,98,76.314,101.9a13.956,13.956,0,0,0,5.087.983c12.476,0,22.589-17.579,22.589-32.933S93.876,47.286,81.4,47.286Z" transform="translate(-58.812 -47.286)"/></g><g transform="translate(25.501)"><path class="a" d="M402.823,304.334a1.908,1.908,0,0,1-1.908-1.908v-7.453a12.38,12.38,0,0,0-1.141-4.5c-1.006-2.581-2.147-5.507-.462-9.326a19.443,19.443,0,0,1,2.132-3.513c1.138-1.591,2.038-2.848,2.038-4.832s-.922-3.281-2.089-4.932a17.818,17.818,0,0,1-2.331-4.055c-1.25-3.324-.381-5.477.459-7.558a15.334,15.334,0,0,0,1.395-6.473V235.408a1.908,1.908,0,0,1,3.815,0v14.377a19.054,19.054,0,0,1-1.672,7.9c-.767,1.9-1.152,2.855-.426,4.787a14.377,14.377,0,0,0,1.875,3.2c1.307,1.849,2.789,3.945,2.789,7.135,0,3.208-1.461,5.25-2.75,7.052a15.937,15.937,0,0,0-1.744,2.833c-1.046,2.37-.387,4.061.526,6.4a15.755,15.755,0,0,1,1.4,5.885v7.452A1.907,1.907,0,0,1,402.823,304.334Z" transform="translate(-324.506 -176.019)"/><path class="h" d="M405.8,228.325H403.44a2.649,2.649,0,0,1-2.516-3.478l2.047-6.206h3.3l2.047,6.206A2.649,2.649,0,0,1,405.8,228.325Z" transform="translate(-326.26 -164.938)"/><path class="i" d="M372.05,30.168c0,15.354-10.113,32.933-22.589,32.933s-22.589-17.579-22.589-32.933S336.986,7.5,349.461,7.5,372.05,14.814,372.05,30.168Z" transform="translate(-271.144 -7.5)"/><path class="j" d="M400.773,7.5a29.171,29.171,0,0,0-5.087.434c10.026,1.776,17.5,9.034,17.5,22.235s-7.476,28.047-17.5,31.951a13.956,13.956,0,0,0,5.087.983c12.476,0,22.589-17.579,22.589-32.933S413.249,7.5,400.773,7.5Z" transform="translate(-322.456 -7.5)"/><g transform="translate(0 6.327)"><path class="b" d="M248.656,206.149a15.071,15.071,0,0,0-6.793-3.465,1.908,1.908,0,1,0-.887,3.711,11.314,11.314,0,0,1,5.1,2.567,10.187,10.187,0,0,1,2.826,4.744,1.908,1.908,0,1,0,3.661-1.074,13.94,13.94,0,0,0-3.909-6.482Z" transform="translate(-206.003 -159.328)"/><path class="e" d="M116.909,75.678a15.068,15.068,0,0,0-6.793-3.465,1.908,1.908,0,1,0-.887,3.711,11.314,11.314,0,0,1,5.1,2.567,10.191,10.191,0,0,1,2.826,4.744,1.907,1.907,0,0,0,3.66-1.074A13.942,13.942,0,0,0,116.909,75.678Z" transform="translate(-107.765 -62.041)"/><path class="h" d="M440.191,42.374a13.944,13.944,0,0,0-3.909-6.482,15.071,15.071,0,0,0-6.793-3.465,1.908,1.908,0,0,0-.887,3.711,11.316,11.316,0,0,1,5.1,2.566,10.19,10.19,0,0,1,2.827,4.744,1.908,1.908,0,1,0,3.661-1.074Z" transform="translate(-345.908 -32.375)"/></g></g></g><g transform="translate(32.493)"><path class="k" d="M129.6,3.815A1.909,1.909,0,0,0,129.6,0,1.909,1.909,0,0,0,129.6,3.815Z" transform="translate(-127.755)"/></g><g transform="translate(73.665 3.688)"><path class="k" d="M291.473,18.315a1.909,1.909,0,0,0,0-3.815A1.909,1.909,0,0,0,291.473,18.315Z" transform="translate(-289.63 -14.5)"/></g><g transform="translate(65.641 32.683)"><path class="k" d="M259.924,132.315a1.909,1.909,0,0,0,0-3.815A1.909,1.909,0,0,0,259.924,132.315Z" transform="translate(-258.081 -128.5)"/></g><g transform="translate(88.957 73.993)"><path class="k" d="M351.6,294.736a1.909,1.909,0,0,0,0-3.815A1.909,1.909,0,0,0,351.6,294.736Z" transform="translate(-349.755 -290.921)"/></g><g transform="translate(0 66.801)"><path class="k" d="M1.843,266.458a1.909,1.909,0,0,0,0-3.815A1.909,1.909,0,0,0,1.843,266.458Z" transform="translate(0 -262.643)"/></g><g transform="translate(0.065 126.407)"><path class="k" d="M2.1,500.815A1.909,1.909,0,0,0,2.1,497,1.909,1.909,0,0,0,2.1,500.815Z" transform="translate(-0.255 -497)"/></g><g transform="translate(8.967 85.077)"><path class="k" d="M37.1,338.315a1.909,1.909,0,0,0,0-3.815A1.909,1.909,0,0,0,37.1,338.315Z" transform="translate(-35.255 -334.5)"/></g><g transform="translate(121.488 103.752)"><path class="k" d="M479.5,411.739a1.909,1.909,0,0,0,0-3.815A1.909,1.909,0,0,0,479.5,411.739Z" transform="translate(-477.658 -407.924)"/></g><g transform="translate(116.503 85.586)"><path class="k" d="M459.9,340.315a1.909,1.909,0,0,0,0-3.815A1.909,1.909,0,0,0,459.9,340.315Z" transform="translate(-458.06 -336.5)"/></g><g transform="translate(37.58 119.335)"><path class="k" d="M149.6,473.01a1.909,1.909,0,0,0,0-3.815A1.909,1.909,0,0,0,149.6,473.01Z" transform="translate(-147.755 -469.195)"/></g><g transform="translate(0 0)"><path class="l" d="M8.241.559a1.907,1.907,0,0,0-2.7,0L.559,5.544a1.907,1.907,0,1,0,2.7,2.7L8.241,3.257a1.907,1.907,0,0,0,0-2.7Z" transform="translate(0 0)"/><path class="m" d="M220.019,44.146a1.907,1.907,0,0,0-2.7,2.7l4.985,4.985a1.907,1.907,0,1,0,2.7-2.7Z" transform="translate(-161.631 -32.501)"/><g transform="translate(4.985 97.875)"><path class="l" d="M326.288,385.376l-4.985,4.985a1.907,1.907,0,1,0,2.7,2.7l4.985-4.985a1.907,1.907,0,0,0-2.7-2.7Z" transform="translate(-244.151 -384.817)"/><path class="l" d="M22.855,408.483a1.907,1.907,0,0,0-2.7,2.7l4.985,4.985a1.907,1.907,0,1,0,2.7-2.7Z" transform="translate(-19.598 -402.047)"/><path class="l" d="M461.062,477.961a1.907,1.907,0,0,0-2.7,2.7l4.985,4.985a1.907,1.907,0,0,0,2.7-2.7Z" transform="translate(-346.351 -453.854)"/></g><path class="m" d="M485.643,246.175a1.907,1.907,0,0,0-2.7,0l-4.985,4.985a1.907,1.907,0,1,0,2.7,2.7l4.985-4.985A1.907,1.907,0,0,0,485.643,246.175Z" transform="translate(-355.979 -183.146)"/><path class="m" d="M282.833,477.961a1.907,1.907,0,0,0-2.7,2.7l4.985,4.985a1.907,1.907,0,0,0,2.7-2.7Z" transform="translate(-208.469 -355.979)"/></g></svg>