<svg width="32" height="32" viewBox="0 0 32 32" fill="none" xmlns="http://www.w3.org/2000/svg">
<g clip-path="url(#clip0_5782_856)">
<path d="M16 0C12.8355 0 9.74207 0.938384 7.11088 2.69649C4.4797 4.45459 2.42894 6.95345 1.21793 9.87706C0.0069325 12.8007 -0.309921 16.0177 0.307443 19.1214C0.924806 22.2251 2.44866 25.0761 4.6863 27.3137C6.92394 29.5513 9.77487 31.0752 12.8786 31.6926C15.9823 32.3099 19.1993 31.9931 22.1229 30.7821C25.0466 29.5711 27.5454 27.5203 29.3035 24.8891C31.0616 22.2579 32 19.1645 32 16C32 11.7565 30.3143 7.68687 27.3137 4.68629C24.3131 1.68571 20.2435 0 16 0ZM16 23.759C16 23.759 7.65101 18.576 7.65101 13.95C7.64999 12.9707 7.96533 12.0172 8.55007 11.2316C9.13481 10.446 9.95766 9.87025 10.8961 9.59015C11.8345 9.31005 12.8383 9.34055 13.758 9.67712C14.6777 10.0137 15.4641 10.6383 16 11.458C16.5363 10.6392 17.3226 10.0155 18.2419 9.67951C19.1612 9.34353 20.1644 9.31329 21.1022 9.59329C22.0401 9.87329 22.8625 10.4486 23.4471 11.2335C24.0318 12.0185 24.3474 12.9712 24.347 13.95C24.345 18.576 16 23.759 16 23.759Z" fill="#AAAAAA"/>
</g>
<defs>
<clipPath id="clip0_5782_856">
<rect width="31.996" height="31.996" fill="white"/>
</clipPath>
</defs>
</svg>
