<?xml version="1.0" encoding="UTF-8"?>
<svg id="Layer_2" data-name="Layer 2" xmlns="http://www.w3.org/2000/svg" viewBox="0 0 1893.18 344.47">
  <defs>
    <style>
      .cls-1 {
        fill: #173303;
      }

      .cls-1, .cls-2 {
        stroke-width: 0px;
      }

      .cls-2 {
        fill: #9fe870;
      }
    </style>
  </defs>
  <g id="Layer_1-2" data-name="Layer 1">
    <rect class="cls-2" x="0" y="0" width="1893.18" height="344.47" rx="172.24" ry="172.24"/>
    <path class="cls-1" d="m1064.41,244.69h-2.18c-14.28,0-28.55-.02-42.83.03-1.51,0-2.49-.43-3.45-1.63-16.74-20.89-33.53-41.74-50.32-62.59-.51-.63-.9-1.4-1.96-1.98,0,.99,0,1.78,0,2.58.03,9.15.03,18.3.12,27.44.01,1.47-.4,2.57-1.38,3.68-11.85,13.45-23.65,26.94-35.47,40.41-.39.45-.69,1.01-1.35,1.22-.61-.55-.32-1.27-.33-1.9-.42-32.93-.81-65.86-1.22-98.79-.24-18.98-.5-37.96-.75-56.94-.02-1.86-.03-1.87-1.88-2.45-4.13-1.27-8.26-2.53-12.71-3.9.76-.46,1.27-.38,1.75-.38,17.1,0,34.2,0,51.3,0,2.2,0,1.93,0,1.93,2.28,0,21.58,0,43.15,0,64.73,0,.82,0,1.63,0,2.45.85.16,1.04-.45,1.35-.81,17.86-20.36,35.72-40.71,53.52-61.11,1.11-1.28,2.2-1.78,3.89-1.78,13.21.07,26.42.04,39.62.04.74,0,1.48,0,2.2,0,.15.95-.44,1.29-.81,1.72-14.49,16.81-28.99,33.62-43.49,50.42-4.73,5.49-9.47,10.97-14.2,16.46-1.53,1.77-1.21,1.46-.05,2.99,14.35,18.88,28.71,37.76,43.06,56.64,4.85,6.37,9.7,12.74,14.53,19.13.4.53.96.98,1.1,2.06Z"/>
    <path class="cls-1" d="m1539.91,186.66c1.61,14.14,12.05,25.75,26.03,28.76,16.36,3.52,31.49.34,45.4-8.86.69-.46,1.38-.93,2.04-1.36.75.24.88.91,1.17,1.42,4.49,8.05,8.97,16.11,13.43,24.18.97,1.75,1.44,1.56-.71,2.95-11.12,7.18-23,12.57-36.13,14.87-14.32,2.5-28.59,2.35-42.6-1.76-21.89-6.43-36.05-20.85-43.02-42.43-2.3-7.14-3.38-14.49-3.85-21.98-.69-11.2.26-22.22,3.26-33.03,6.37-22.97,21.65-36.83,44.43-42.79,9.61-2.51,19.44-2.86,29.31-2.3,9.03.51,17.89,2.01,26.29,5.5,17.62,7.32,27.6,20.46,29.78,39.43,1.32,11.45-.14,22.63-3.14,33.68-.3,1.09-.76,1.42-1.86,1.45-15.72.35-31.43.74-47.15,1.14-13.66.34-27.31.7-40.97,1.05-.53.01-1.06.06-1.72.1Zm29.89-23.98s0-.1,0-.15c1.14,0,2.29,0,3.43,0,8.17-.04,16.33-.08,24.5-.12.61,0,1.22-.02,1.83,0,.67.02.97-.29.95-.96-.05-1.52-.02-3.05-.14-4.57-.88-11.42-6.33-19.51-18.91-22.37-6.48-1.47-13.02-1.31-19.54-.1-9.01,1.67-15.33,6.76-19.25,14.94-1.76,3.67-2.85,7.54-3.46,11.55-.27,1.75-.28,1.77,1.51,1.77,9.69.01,19.38,0,29.08,0Z"/>
    <path class="cls-1" d="m336.81,223.19c-.65.14-.8.51-1.02.8-9.02,11.77-20.97,19.1-35.14,23.04-8.97,2.49-18.12,3.55-27.41,3.16-6.98-.3-13.8-1.55-20.18-4.59-10.65-5.08-17.12-13.67-20.6-24.72-2.24-7.12-3.13-14.45-3.14-21.87-.06-27.67-.03-55.35-.03-83.02,0-.38.02-.76,0-1.14-.04-.77.32-1.12,1.08-1.1.46.01.92,0,1.37,0,11.15,0,22.29,0,33.44,0,.08,0,.15,0,.23,0,2.24.02,2.25.02,2.25,2.24,0,24.47.01,48.94,0,73.42,0,4.67.24,9.29,1.43,13.83.27,1.03.57,2.06.93,3.06,3.29,9.2,9.95,14.16,19.59,14.61,17.22.8,30.33-6.51,39.64-20.88,1.29-2,1.85-4.01,1.84-6.41-.07-25.69-.05-51.38-.04-77.08,0-3.02-.39-2.78,2.85-2.78,10.92,0,21.83,0,32.75,0,.53,0,1.07.03,1.6,0,.91-.04,1.2.43,1.16,1.27-.03.61,0,1.22,0,1.83,0,30.11,0,60.23,0,90.34,0,1.67.01,3.34.35,5,.69,3.42,2.8,5.29,6.1,5.99.45.09.9.18,1.36.2,1.06.05,1.37.58,1.37,1.62-.04,8.77-.03,17.53-.01,26.3,0,.88-.18,1.45-1.17,1.59-7.87,1.17-15.75,2.09-23.68.5-3.48-.7-6.72-2.01-9.57-4.17-3.63-2.75-5.91-6.35-6.45-10.91-.39-3.33-.6-6.68-.9-10.12Z"/>
    <path class="cls-1" d="m568.02,180.75c0-10.67.02-21.34-.02-32.02,0-1.52.37-2.79,1.2-4.05,8.28-12.7,19.73-21.45,33.68-27.11,9.29-3.77,18.98-5.56,28.97-6.07,10.76-.55,21.38.31,31.71,3.36,17.02,5.04,31.1,14.33,41.03,29.28,7.78,11.72,11.23,24.69,10.93,38.75-.49,23.4-14.45,48.28-41.47,60.05-9.27,4.03-18.93,6.22-28.99,6.97-11.22.84-22.29.09-33.13-2.91-17.58-4.88-32.09-14.24-42.39-29.6-1.06-1.58-1.57-3.16-1.55-5.09.08-10.52.04-21.04.04-31.56Zm72.55,40.26c13.24-.53,25.54-7.8,32.42-23.18,3.62-8.09,4.23-16.65,2.65-25.32-3.38-18.45-17.54-30.37-34.48-31.8-12.91-1.08-24.03,2.81-32.77,12.41-9.16,10.05-11.84,22.19-9.72,35.33,3.14,19.5,18.81,32.57,41.9,32.56Z"/>
    <path class="cls-1" d="m1670.94,130.09c1.62-1.27,2.87-2.26,4.13-3.23,8.67-6.67,17.77-12.62,27.95-16.8,10.22-4.18,20.84-5.82,31.81-4.82,12.52,1.15,21.37,7.41,26.09,19.22,2.51,6.29,3.75,12.86,4.34,19.56,1.12,12.84,1.55,25.71,1.26,38.6-.24,10.74-.51,21.48-1.17,32.21-.49,7.98-1.19,15.95-1.97,23.9-.04.46-.05.92-.14,1.36-.57,2.78.24,2.38-2.72,2.32-11.6-.26-23.2-.59-34.8-.9-1.75-.05-1.8-.07-1.62-1.82.57-5.61.98-11.23,1.42-16.84.61-7.83,1.11-15.66,1.26-23.5.21-10.44.36-20.89-.14-31.32-.2-4.19-.55-8.36-1.66-12.43-.42-1.55-.93-3.06-1.62-4.51-2.27-4.8-6.01-7.53-11.35-8.07-4.57-.46-8.97.29-13.28,1.77-4.57,1.57-8.81,3.8-12.85,6.43-4.55,2.96-8.76,6.35-12.96,9.79-1.18.97-1.58,2.01-1.56,3.51.19,20.43.32,40.86.46,61.29.03,4.65.03,9.3.02,13.95,0,2.42.29,2.22-2.16,2.36-6.17.35-12.34.66-18.52.98-5.33.28-10.67.56-16,.82-1.74.09-1.75.07-1.79-1.7-.02-1.07.05-2.14-.02-3.2-.07-1.08.11-1.95,1.19-2.45.76-.36.71-.92.27-1.48-1.66-2.14-1.6-4.64-1.63-7.17-.19-13.34-.48-26.67-.71-40.01-.05-3.03-.02-3,2.94-3.12,2.55-.11,2.28.34,2.99-2.4,2.65-10.16,4.15-20.45,3.5-30.98-.65-10.47-3.38-20.26-9.7-28.82-.57-.77-.84-1.56-.84-2.53-.01-2.59-.11-5.18-.17-7.77-.04-2-.04-2.02,1.91-2.13,5.56-.33,11.12-.64,16.68-.97,6.02-.36,12.03-.74,18.05-1.11.23-.01.46,0,.69-.04,1.08-.17,1.48.25,1.51,1.36.11,3.88.29,7.77.47,11.65.13,2.88.29,5.75.47,9.09Z"/>
    <path class="cls-1" d="m1409.68,133.92c1.73-1.38,3.02-2.42,4.33-3.44,7.1-5.59,14.6-10.51,22.96-14.04,9.53-4.02,19.46-5.66,29.76-4.75,11.86,1.05,20.01,7.1,24.14,18.38,2.03,5.55,3.11,11.3,3.63,17.16,1.28,14.22,1.09,28.48.87,42.73-.15,9.83-.59,19.66-1.36,29.46-.39,4.94-.92,9.86-1.41,14.79-.17,1.72-.21,1.76-1.92,1.73-10.69-.21-21.37-.44-32.06-.67-1.43-.03-1.45-.08-1.3-1.62.77-7.96,1.49-15.93,1.89-23.93.69-13.48.79-26.97.36-40.47-.15-4.72-.62-9.42-2.1-13.97-2.09-6.41-5.92-9.25-12.7-9.45-5.32-.16-10.27,1.24-15.01,3.49-7.18,3.4-13.26,8.37-19.23,13.49-.85.73-.82,1.55-.82,2.46.05,11.51.09,23.02.16,34.54.07,10.98.18,21.96.26,32.93,0,.46-.04.92.02,1.37.13,1.12-.41,1.42-1.46,1.47-5.8.26-11.59.6-17.38.89-4.88.25-9.76.46-14.63.76-.99.06-1.39-.17-1.39-1.2,0-1.17.08-2.18,1.07-3.07,1.18-1.06,2.17-2.35,3.21-3.57,1.28-1.5,1.27-1.52.17-3.05-1.24-1.73-2.47-3.48-3.77-5.18-.73-.95-1.04-1.94-1.06-3.15-.27-15.85-.59-31.71-.89-47.56-.19-10.06-.34-20.12-.58-30.18-.04-1.51.32-2.53,1.62-3.44,2.57-1.78,4.96-3.81,7.51-5.63,1.05-.75,1.04-1.35.42-2.39-2.41-4.01-5.18-7.73-8.59-10.95-.96-.9-1.42-1.8-1.44-3.14-.22-13.8-.5-27.59-.76-41.39-.04-2.09-.16-2.01,1.9-2.12,10.98-.58,21.95-1.19,32.92-1.78.15,0,.3-.02.46-.03,1.9-.08,1.92-.08,1.94,1.75.04,4.5.05,9,.07,13.49.07,15.63.14,31.26.21,46.89,0,.6,0,1.2,0,2.34Z"/>
    <path class="cls-1" d="m750.35,140.14c.39.05.53-.26.68-.48,6.9-9.85,16.4-16.25,27.52-20.38,13.48-5.01,27.42-6.65,41.65-4.5,15.85,2.4,26.18,11.51,31.16,26.7,1.91,5.83,2.67,11.88,3.15,17.97.28,3.57.34,7.15.34,10.74-.02,25.77,0,51.53-.01,77.3,0,3.2.3,2.76-2.84,2.76-10.92.02-21.83,0-32.75,0-.61,0-1.22-.02-1.83,0-.69.01-.94-.34-.93-.99.01-.61,0-1.22,0-1.83,0-24.01,0-48.02,0-72.04,0-5.12-.38-10.21-1.85-15.15-2.51-8.45-7.86-13.96-16.72-15.67-4.73-.92-9.43-.51-14.05.75-10.74,2.92-19.19,9.11-25.7,18.03-.89,1.23-1.62,2.58-2.35,3.92-1.41,2.58-2.04,5.28-2.03,8.3.1,23.78.05,47.57.05,71.35,0,.53,0,1.07,0,1.6-.03,1.7-.04,1.73-1.79,1.74-11.53,0-23.05,0-34.58,0-1.92,0-1.93-.02-1.94-2.06,0-10.29.01-20.58-.02-30.87,0-1.28.35-2.35.98-3.44,5.95-10.34,8.87-21.51,8.8-33.42-.07-11.57-2.88-22.47-8.69-32.53-.76-1.31-1.1-2.59-1.09-4.1.05-8.31.02-16.62.02-24.93,0-.53.01-1.07,0-1.6,0-.74.31-1.13,1.1-1.09.46.02.92,0,1.37,0,9.85,0,19.69,0,29.54,0,.38,0,.77.04,1.14,0,1.08-.12,1.48.31,1.46,1.42-.05,3.58-.02,7.17-.02,10.75,0,3.51,0,7.01,0,10.52,0,.42-.17.9.22,1.25Z"/>
    <path class="cls-1" d="m202.12,146.4c-2,2.37-3.61,4.28-5.22,6.19-5.89,7-11.81,13.99-17.65,21.02-.92,1.1-1.85,1.54-3.3,1.53-11.07-.07-22.14-.05-33.2-.04-.81,0-1.64-.16-2.77.3.88.3,1.49.52,2.11.71,3.5,1.07,6.99,2.19,10.51,3.18,1.16.33,1.55.88,1.54,2.07-.05,6.86-.07,13.72.01,20.58.02,1.31-.61,2.13-1.35,3-8.36,9.91-16.71,19.83-25.07,29.74-3.78,4.49-7.56,8.99-11.35,13.47-.42.5-.75,1.11-1.71,1.53,0-1.03,0-1.91,0-2.78,0-56.41,0-112.81-.01-169.22,0-3.8.6-2.91-3.09-4.07-4.87-1.54-9.76-3-14.61-4.77h170.08c.25.68-.42,1.01-.77,1.43-7.85,9.34-15.74,18.65-23.54,28.03-.97,1.17-1.99,1.39-3.36,1.39-24.27-.02-48.55-.02-72.82-.02-8.09,0-16.18.01-24.27.02-.75,0-1.49,0-2.51,0,1,.84,2.01.93,2.91,1.21,3.2,1.02,6.42,1.96,9.62,2.94,2.23.69,1.81.62,1.81,2.5.01,12.42,0,24.85.01,37.27,0,3.17-.39,2.76,2.81,2.77,14.05.01,28.09,0,42.14,0h3.06Z"/>
    <path class="cls-1" d="m514.2,129.74c-5.05,6.77-10.13,13.59-15.27,20.48-1.06-.66-1.96-1.22-2.86-1.79-8.25-5.2-16.96-9.33-26.56-11.4-7.52-1.62-15.08-2.3-22.71-.74-2.71.55-5.29,1.46-7.72,2.77-5.65,3.05-7.3,8.87-6.15,14.45.56,2.72,2.34,4.57,4.59,6.02,2.26,1.46,4.74,2.44,7.27,3.32,6.28,2.18,12.79,3.49,19.24,5.02,9.8,2.32,19.55,4.81,29.01,8.29,5.1,1.87,9.97,4.2,14.48,7.27,9.83,6.71,13.33,16.22,12.42,27.72-.98,12.37-7.01,21.67-17.25,28.42-7.52,4.96-15.87,7.83-24.69,9.18-24.72,3.79-48.49.44-71.24-9.98-1.38-.63-2.69-1.44-4.07-2.08-.96-.45-1.28-1.09-1.27-2.15.05-4.57.03-9.15.02-13.72q0-2.03-1.89-2.68c-.12-.67.43-1.07.73-1.54,1.62-2.49,3.33-4.93,4.91-7.44.6-.95,1.09-.98,1.99-.4,4.05,2.59,8.25,4.92,12.57,7.03,8.82,4.31,17.96,7.65,27.72,9.04,7.21,1.03,14.44,1.31,21.63-.2,3.16-.67,6.15-1.78,8.81-3.67,4.22-3.01,5.76-7.17,5.03-12.19-.44-3.05-2.26-5.27-4.79-6.94-1.6-1.06-3.37-1.76-5.16-2.43-8.16-3.04-16.6-5.13-25.02-7.27-9.83-2.5-19.67-4.98-29.12-8.71-4.34-1.71-8.46-3.85-12.18-6.72-6.34-4.89-9.47-11.38-9.79-19.3-.62-15.17,5.73-26.81,18.15-35.27,8.1-5.52,17.18-8.58,26.8-9.94,16.27-2.3,32.28-.9,47.93,4.09,8.28,2.64,15.85,6.72,22.8,11.93.43.32.84.66,1.25,1,.11.09.17.25.36.54Z"/>
    <path class="cls-1" d="m1191.98,73.86c.37.99.23,1.75.23,2.5.01,10.29,0,20.58,0,30.87,0,.53.02,1.07,0,1.6-.02.66.27.98.94.97.53-.01,1.07,0,1.6,0,12.59-.15,25.18-.31,37.77-.44,2.67-.03,2.63-.49,2.55,2.54-.24,8.68-.48,17.37-.71,26.05-.05,1.77-.04,1.8-1.73,1.84-12.51.31-25.02.61-37.54.91-.31,0-.61,0-.92,0-1.62.06-1.66.06-1.66,1.65-.01,5.11,0,10.21.02,15.32.04,9.98.1,19.97.14,29.95.01,3.44.35,6.83,1.26,10.16,1.24,4.5,4.06,7.58,8.27,9.47,3.85,1.73,7.9,2.17,12.07,1.94,4.6-.25,9.06-1.22,13.44-2.59,1.85-.58,1.85-.56,2.06,1.33,1,9,2.01,18,3.02,27,.06.53.06,1.07.16,1.59.2,1.03-.25,1.5-1.22,1.79-12.76,3.89-25.66,6.79-39.13,5.92-5.28-.34-10.43-1.36-15.33-3.44-9.23-3.91-15.33-10.8-19.02-19.97-2.24-5.55-3.44-11.35-4.09-17.27-.75-6.83-.76-13.69-.86-20.54-.2-13.03-.36-26.06-.53-39.09,0-.23-.03-.46,0-.69.12-1.05-.27-1.53-1.41-1.46-1.6.09-3.2.03-4.81.08-4.42.12-8.85.27-13.27.37-1.92.05-1.9,0-1.85-1.84.23-8.91.45-17.82.67-26.74,0-.38.02-.76.03-1.14.07-2.34-.14-2.22,2.28-2.24,5.19-.04,10.38-.08,15.57-.13,2.29-.02,2.29.17,2.25-2.24-.14-8.53-.29-17.07-.43-25.6-.05-3.29-.04-3.24,3.15-3.65,10.06-1.3,20.1-2.64,30.16-3.96,2.27-.3,4.54-.55,6.89-.84Z"/>
    <path class="cls-1" d="m1348.12,151.15c-1.62-2.06-3.27-4.15-5.33-5.88-6.06-5.09-13.12-7.6-20.96-8.08-18.4-1.12-31.21,11.03-34.59,26.1-2.26,10.07-2.15,20.13,1.55,29.91,4.88,12.89,16.41,20.74,30.2,20.89,10.62.11,20.14-2.88,28.45-9.53,1.6-1.28,2.98-2.79,4.36-4.23.86.33,1.11,1.02,1.5,1.56,5.12,7.02,10.2,14.07,15.32,21.09,1.5,2.06,1.26,1.71-.16,3.41-7.59,9.12-17.27,15.23-28.5,18.66-15.32,4.67-30.89,5-46.23.32-20.18-6.16-33.62-19.72-41.09-39.28-4.05-10.6-5.56-21.61-5.19-32.94.35-10.72,2.48-21.01,7.07-30.71,9.84-20.81,26.31-33.16,48.86-37.27,15.14-2.76,29.95-1.27,44.1,5.05,9.98,4.45,18.23,11.02,23.93,20.5.27.46.54.92.8,1.38.27.47.15.87-.27,1.19-.3.23-.6.48-.9.71-7.16,5.45-14.31,10.91-21.48,16.36-.42.32-.8.72-1.45.79Z"/>
    <path class="cls-1" d="m1124.4,179.31c-.14,17.82.33,38.92.32,60.03,0,2.91.45,2.64-2.68,2.81-11.27.6-22.55,1.18-33.82,1.76-1.94.1-1.92.1-1.97-1.94-.37-13.02-.78-26.04-1.13-39.07-.26-9.37-.45-18.74-.69-28.11-.26-10.05-.55-20.11-.81-30.16-.2-7.85-.37-15.69-.58-23.54-.06-2.28-.22-4.57-.27-6.85-.04-1.74,0-1.76,1.72-1.87,5.02-.32,10.05-.62,15.07-.92,7.16-.43,14.31-.87,21.47-1.3.23-.01.46-.04.69-.05q2.25-.12,2.27,2.12c.14,21.26.27,42.52.43,67.08Z"/>
    <path class="cls-1" d="m523.74,129.59c-.37-.34-.6-.68-.93-.84-2.61-1.22-3.52-3.22-3.1-6.05.22-1.49.03-3.04.04-4.57.01-2.05-.41-2.2,2.28-2.19,1.98.01,3.97,0,5.95,0,9.08,0,18.17,0,27.25,0,.46,0,.92,0,1.37,0q1.91.03,1.94,1.84c0,.38,0,.76,0,1.14,0,42.84,0,85.68,0,128.52,0,3.17.47,2.78-2.78,2.79-11.07.02-22.14,0-33.21,0-.53,0-1.07-.03-1.6,0-.85.06-1.23-.24-1.23-1.16.03-5.03.05-10.06-.02-15.09-.01-.92.52-1.39,1.01-1.93,3.73-4.17,6.33-8.96,7.62-14.38,1.84-7.69,1.95-15.34-1.28-22.77-1.42-3.27-3.6-6-6.2-8.38-.74-.67-1.13-1.26-1.13-2.28.03-16.01.03-32.02,0-48.02,0-.98.27-1.75.88-2.5,1.05-1.3,2.03-2.67,3.13-4.14Z"/>
    <path class="cls-1" d="m538.93,97.74c-5.8,0-11.59,0-17.39,0-1.75,0-1.78-.03-1.79-1.75-.01-10.28-.01-20.56,0-30.84,0-1.71.03-1.75,1.78-1.75,11.74-.01,23.49-.01,35.23,0,1.76,0,1.79.04,1.79,1.74.01,10.28.01,20.56,0,30.84,0,1.73-.03,1.76-1.78,1.77-5.95.01-11.9,0-17.84,0Z"/>
    <path class="cls-1" d="m1104.48,51.86c6.17-.32,12.33-.63,18.5-.97.86-.05,1.32.19,1.26,1.11-.01.15,0,.3,0,.46,0,9.9,0,19.8,0,29.71,0,1.5-.04,1.56-1.69,1.65-5.33.28-10.66.53-15.99.78-6.7.31-13.41.59-20.11.89-1.98.09-1.97.09-2.02-1.92-.23-9.21-.47-18.42-.71-27.63-.02-.61,0-1.22-.04-1.83-.08-.88.3-1.22,1.17-1.24,1.22-.03,2.43-.17,3.65-.23,5.33-.26,10.66-.5,15.99-.75,0,0,0,0,0-.01Z"/>
    <g>
      <path class="cls-1" d="m1742.8,58.13h-4.2v-2.97h12.03v2.97h-4.27v12.68h-3.55v-12.68Z"/>
      <path class="cls-1" d="m1765.66,64.82c-.07-1.88-.14-4.16-.14-6.44h-.07c-.49,2-1.14,4.23-1.74,6.06l-1.9,6.11h-2.76l-1.67-6.06c-.51-1.84-1.05-4.07-1.42-6.11h-.05c-.09,2.11-.16,4.53-.28,6.48l-.28,5.95h-3.28l1-15.66h4.72l1.53,5.23c.49,1.81.98,3.76,1.32,5.6h.07c.44-1.81.98-3.88,1.49-5.62l1.67-5.2h4.62l.86,15.66h-3.46l-.23-5.99Z"/>
    </g>
  </g>
</svg>