<svg xmlns="http://www.w3.org/2000/svg" width="297.396" height="41.32" viewBox="0 0 297.396 41.32">
  <g id="Layer_2" data-name="Layer 2" transform="translate(0 0.004)">
    <g id="Layer_1" data-name="Layer 1">
      <path id="Path_18190" data-name="Path 18190" d="M170.3,39.7h-.384q-3.771,0-7.54.006a.688.688,0,0,1-.607-.288Q157.348,33.9,152.912,28.4a1.069,1.069,0,0,0-.345-.348v.454c.006,1.611.006,3.221.021,4.831a.888.888,0,0,1-.243.648Q149.217,37.54,146.1,41.1c-.069.079-.122.178-.238.216-.106-.1-.056-.224-.057-.335q-.111-8.7-.216-17.391-.063-5.011-.132-10.023c0-.328,0-.33-.332-.431-.726-.224-1.453-.446-2.238-.686a.488.488,0,0,1,.308-.068h9.031c.388,0,.34,0,.34.4V24.607c.15.028.183-.08.238-.143q4.716-5.376,9.422-10.757a.809.809,0,0,1,.685-.313c2.325.012,4.65.007,6.975.007h.386c.027.167-.077.227-.141.3q-3.827,4.438-7.656,8.875l-2.5,2.9c-.27.312-.213.258-.009.527l7.58,9.969q1.28,1.683,2.558,3.367A.669.669,0,0,1,170.3,39.7Z" fill="#fff"/>
      <path id="Path_18191" data-name="Path 18191" d="M254,29.49a5.857,5.857,0,0,0,4.581,5.062,10.128,10.128,0,0,0,7.993-1.559c.122-.081.243-.164.358-.241.133.043.155.16.2.25q1.186,2.125,2.365,4.255c.17.308.253.275-.125.52a17.141,17.141,0,0,1-6.36,2.617,16.324,16.324,0,0,1-7.5-.311,10.771,10.771,0,0,1-7.572-7.468,15.716,15.716,0,0,1-.677-3.869,17.559,17.559,0,0,1,.575-5.815,10.224,10.224,0,0,1,7.821-7.532,16.549,16.549,0,0,1,5.16-.4,14,14,0,0,1,4.628.968A8.043,8.043,0,0,1,270.7,22.9a15.649,15.649,0,0,1-.552,5.929.288.288,0,0,1-.328.255q-4.149.093-8.3.2-3.606.091-7.212.186C254.211,29.474,254.118,29.483,254,29.49Zm5.262-4.222v-.026h.6l4.312-.022h.323a.145.145,0,0,0,.166-.169c-.009-.268,0-.537-.024-.8a3.956,3.956,0,0,0-3.328-3.937,8.445,8.445,0,0,0-3.44-.018,4.49,4.49,0,0,0-3.388,2.63,7.192,7.192,0,0,0-.609,2.034c-.048.307-.05.312.266.312l5.123,0Z" fill="#fff"/>
      <path id="Path_18192" data-name="Path 18192" d="M42.222,35.919a.269.269,0,0,0-.18.141,11.366,11.366,0,0,1-6.185,4.056,15.481,15.481,0,0,1-4.825.555,9.028,9.028,0,0,1-3.551-.807,6.82,6.82,0,0,1-3.627-4.351,12.789,12.789,0,0,1-.553-3.849q-.016-7.308,0-14.615v-.2c-.006-.135.056-.2.19-.194H29.66c.393,0,.4,0,.4.394V29.972a9.451,9.451,0,0,0,.252,2.435c.047.181.1.362.163.538a3.6,3.6,0,0,0,3.447,2.571A7.446,7.446,0,0,0,40.9,31.84a1.961,1.961,0,0,0,.325-1.128q-.018-6.785-.007-13.568c0-.531-.068-.489.5-.489h6.048c.16-.007.211.075.2.223V33.1a4.423,4.423,0,0,0,.061.881A1.261,1.261,0,0,0,49.1,35.035a1.378,1.378,0,0,0,.239.035c.187.009.241.1.24.286q-.01,2.314,0,4.63c0,.154-.031.254-.206.28a11.985,11.985,0,0,1-4.168.088,4.062,4.062,0,0,1-1.685-.734,2.742,2.742,0,0,1-1.134-1.92C42.313,37.114,42.275,36.525,42.222,35.919Z" fill="#fff"/>
      <path id="Path_18193" data-name="Path 18193" d="M82.921,28.448V22.813a1.231,1.231,0,0,1,.211-.714,12.438,12.438,0,0,1,5.928-4.772,15.522,15.522,0,0,1,5.1-1.068,16.578,16.578,0,0,1,5.582.592,12.637,12.637,0,0,1,7.222,5.154,11.594,11.594,0,0,1,1.925,6.82,11.9,11.9,0,0,1-7.3,10.57,15.551,15.551,0,0,1-5.1,1.227,16.914,16.914,0,0,1-5.831-.512A12.71,12.71,0,0,1,83.2,34.9a1.508,1.508,0,0,1-.273-.9C82.929,32.152,82.921,30.3,82.921,28.448Zm12.771,7.087a6.407,6.407,0,0,0,5.708-4.081A7.434,7.434,0,0,0,101.866,27a6.887,6.887,0,0,0-11.837-3.413A7.127,7.127,0,0,0,88.317,29.8C88.869,33.237,91.629,35.537,95.692,35.535Z" fill="#fff"/>
      <path id="Path_18194" data-name="Path 18194" d="M277.066,19.532c.285-.223.505-.4.727-.568a21.454,21.454,0,0,1,4.92-2.956,11.751,11.751,0,0,1,5.6-.848,5.1,5.1,0,0,1,4.592,3.383,12.016,12.016,0,0,1,.764,3.442,62.369,62.369,0,0,1,.222,6.794c-.042,1.891-.09,3.782-.206,5.67-.085,1.406-.209,2.807-.346,4.208a2.379,2.379,0,0,1-.025.24c-.1.49.042.419-.48.408q-3.063-.071-6.125-.158c-.308-.009-.317-.013-.285-.321.1-.987.172-1.976.249-2.965.108-1.378.2-2.756.222-4.137.037-1.838.063-3.677-.025-5.514a10.158,10.158,0,0,0-.293-2.188,4.883,4.883,0,0,0-.285-.794,2.343,2.343,0,0,0-2-1.421,5.443,5.443,0,0,0-2.337.311A10.258,10.258,0,0,0,279.7,23.25a26.14,26.14,0,0,0-2.28,1.723.7.7,0,0,0-.275.618q.05,5.4.081,10.789.007,1.228,0,2.456c0,.427.051.391-.38.415-1.087.062-2.173.116-3.26.173-.939.048-1.878.1-2.817.144-.307.015-.309.012-.315-.3,0-.187.009-.376,0-.563a.382.382,0,0,1,.209-.432c.133-.063.124-.161.046-.261a1.962,1.962,0,0,1-.287-1.263c-.034-2.348-.084-4.7-.125-7.044-.009-.532,0-.528.517-.549.449-.018.4.06.527-.423a17.284,17.284,0,0,0,.617-5.454A9.265,9.265,0,0,0,270.25,18.2a.715.715,0,0,1-.149-.445c0-.456-.019-.912-.029-1.368-.008-.351-.008-.355.336-.375.979-.059,1.957-.113,2.936-.171l3.177-.2a.6.6,0,0,0,.12-.008c.19-.031.261.044.266.24.018.683.051,1.367.082,2.05C277.007,18.439,277.035,18.945,277.066,19.532Z" fill="#fff"/>
      <path id="Path_18195" data-name="Path 18195" d="M231.077,20.206c.3-.243.532-.426.762-.606a17.659,17.659,0,0,1,4.041-2.472,10.832,10.832,0,0,1,5.239-.837,4.638,4.638,0,0,1,4.249,3.236,11.752,11.752,0,0,1,.639,3.021,71.235,71.235,0,0,1,.153,7.522q-.04,2.6-.24,5.186c-.069.869-.162,1.736-.249,2.6-.03.3-.037.31-.338.3q-2.821-.055-5.643-.119c-.251-.005-.255-.014-.228-.284.136-1.4.261-2.8.333-4.212q.181-3.559.063-7.123a8.765,8.765,0,0,0-.37-2.458,2.146,2.146,0,0,0-2.235-1.664,5.718,5.718,0,0,0-2.642.614,15.435,15.435,0,0,0-3.386,2.376.485.485,0,0,0-.144.433c.01,2.026.016,4.053.029,6.079.012,1.933.031,3.865.047,5.8a2.149,2.149,0,0,0,0,.241c.023.2-.071.25-.256.259q-1.53.069-3.059.157c-.859.044-1.718.082-2.577.133-.174.011-.244-.03-.244-.21a.637.637,0,0,1,.189-.542,6.483,6.483,0,0,0,.565-.627c.225-.264.224-.268.031-.537-.219-.3-.436-.613-.664-.911a.888.888,0,0,1-.188-.554q-.071-4.186-.156-8.372c-.034-1.771-.06-3.543-.1-5.314a.625.625,0,0,1,.285-.6c.451-.315.873-.67,1.321-.991.185-.132.183-.236.073-.419a8.968,8.968,0,0,0-1.511-1.927.711.711,0,0,1-.253-.553c-.039-2.428-.089-4.857-.135-7.285-.007-.368-.027-.354.334-.373q2.9-.152,5.795-.314h.081c.333-.014.338-.014.341.307.007.792.009,1.584.012,2.376q.02,4.127.037,8.253Z" fill="#fff"/>
      <path id="Path_18196" data-name="Path 18196" d="M115.017,21.3c.068.009.092-.045.12-.085a9.916,9.916,0,0,1,4.844-3.587,14.533,14.533,0,0,1,7.331-.793,6.439,6.439,0,0,1,5.484,4.7,13.484,13.484,0,0,1,.554,3.163c.049.628.059,1.259.059,1.89V40.195c0,.562.052.485-.5.486h-6.087a.15.15,0,0,1-.164-.174c0-.114,0-.214,0-.322V27.505a9.339,9.339,0,0,0-.325-2.667,3.635,3.635,0,0,0-2.943-2.759,5.417,5.417,0,0,0-2.473.131,8.12,8.12,0,0,0-4.524,3.175,6.223,6.223,0,0,0-.414.689,2.945,2.945,0,0,0-.358,1.461c.017,4.186.01,8.373.01,12.559v.282c-.006.3-.007.3-.315.3h-6.087c-.337,0-.341,0-.341-.363V34.879a1.161,1.161,0,0,1,.172-.6,11.713,11.713,0,0,0,.02-11.608,1.363,1.363,0,0,1-.192-.722c.008-1.462,0-2.925,0-4.387v-.282c0-.131.055-.2.193-.192h5.441a1.924,1.924,0,0,0,.2,0c.191-.021.26.055.257.25-.009.631,0,1.261,0,1.892v1.852C114.979,21.154,114.948,21.237,115.017,21.3Z" fill="#fff"/>
      <path id="Path_18197" data-name="Path 18197" d="M18.513,22.4l-.919,1.089c-1.037,1.233-2.078,2.462-3.108,3.7a.668.668,0,0,1-.581.27c-1.948-.012-3.9-.009-5.845-.008a1.054,1.054,0,0,0-.487.054c.154.052.262.091.371.125.615.189,1.229.385,1.849.56a.317.317,0,0,1,.272.365c-.009,1.207-.012,2.415,0,3.622a.763.763,0,0,1-.237.529L5.417,37.944l-2,2.371a.736.736,0,0,1-.3.268V10.306c0-.668.1-.512-.544-.717C1.714,9.319.853,9.061,0,8.75H29.939c.044.12-.074.178-.137.252-1.381,1.644-2.77,3.283-4.144,4.934a.672.672,0,0,1-.591.244q-6.408-.006-12.818,0H7.535a1.231,1.231,0,0,0,.512.213c.563.179,1.13.345,1.694.518.393.121.318.109.318.441v6.561c0,.558-.067.486.5.487h7.954Z" fill="#fff"/>
      <path id="Path_18198" data-name="Path 18198" d="M73.448,19.47l-2.688,3.6-.5-.314a14.5,14.5,0,0,0-4.674-2.008,9.637,9.637,0,0,0-4-.13,4.9,4.9,0,0,0-1.359.488,2.233,2.233,0,0,0-1.083,2.543,1.665,1.665,0,0,0,.808,1.06,5.864,5.864,0,0,0,1.279.583,34.389,34.389,0,0,0,3.387.884,44.522,44.522,0,0,1,5.107,1.459,11.508,11.508,0,0,1,2.549,1.28A4.989,4.989,0,0,1,74.46,33.8a6.345,6.345,0,0,1-3.037,5,10.738,10.738,0,0,1-4.346,1.616A21.636,21.636,0,0,1,54.538,38.66c-.244-.112-.474-.253-.718-.366a.356.356,0,0,1-.222-.378c.009-.8,0-1.611,0-2.416,0-.357,0-.357-.332-.471-.021-.118.075-.188.129-.271.285-.438.585-.867.864-1.31.106-.168.192-.173.351-.071a21.772,21.772,0,0,0,2.213,1.237,16.383,16.383,0,0,0,4.88,1.593,10.874,10.874,0,0,0,3.808-.036,4.067,4.067,0,0,0,1.55-.646,2.085,2.085,0,0,0,.886-2.145,1.752,1.752,0,0,0-.843-1.222,4.463,4.463,0,0,0-.909-.427,42.912,42.912,0,0,0-4.4-1.281,42.343,42.343,0,0,1-5.126-1.533,8.668,8.668,0,0,1-2.144-1.183,4.3,4.3,0,0,1-1.723-3.4A6.781,6.781,0,0,1,56,18.128a10.973,10.973,0,0,1,4.718-1.749,18.79,18.79,0,0,1,8.437.72,13.559,13.559,0,0,1,4.014,2.1c.075.056.148.115.22.176A.575.575,0,0,1,73.448,19.47Z" fill="#fff"/>
      <path id="Path_18199" data-name="Path 18199" d="M192.756,9.633a1.077,1.077,0,0,1,.04.441v5.715c0,.116.047.173.165.17h.282l6.649-.078c.47,0,.463-.085.449.447q-.063,2.293-.125,4.586c-.009.312-.008.316-.306.323q-3.3.083-6.607.161h-.161c-.286.01-.292.01-.293.289v2.7q.011,2.636.025,5.272a6.79,6.79,0,0,0,.222,1.789,2.477,2.477,0,0,0,1.456,1.667,4.473,4.473,0,0,0,2.125.342A9.635,9.635,0,0,0,199.049,33c.326-.1.325-.1.362.235q.264,2.376.531,4.752c.011.094.011.189.028.28.034.182-.043.264-.215.316a19.19,19.19,0,0,1-6.889,1.041,8.194,8.194,0,0,1-2.7-.6,6.091,6.091,0,0,1-3.348-3.515,11.4,11.4,0,0,1-.721-3.04c-.133-1.2-.133-2.41-.152-3.616q-.051-3.441-.093-6.881a.976.976,0,0,1,0-.121c.021-.185-.047-.269-.247-.257-.282.016-.564.006-.846.013-.779.021-1.558.047-2.337.066-.337.008-.334,0-.326-.324q.06-2.353.117-4.706v-.2c.011-.411-.025-.39.4-.393.913-.008,1.827-.014,2.74-.024.4,0,.4.03.4-.394q-.037-2.254-.076-4.507c-.009-.579-.007-.57.554-.642,1.77-.228,3.539-.465,5.309-.7C191.942,9.728,192.341,9.683,192.756,9.633Z" fill="#fff"/>
      <path id="Path_18200" data-name="Path 18200" d="M220.24,23.239a6.793,6.793,0,0,0-.94-1.039,6.154,6.154,0,0,0-3.689-1.422,5.735,5.735,0,0,0-6.089,4.6,9.014,9.014,0,0,0,.274,5.266,5.6,5.6,0,0,0,5.315,3.676,7.62,7.62,0,0,0,5.008-1.678,8.065,8.065,0,0,0,.767-.744c.151.059.2.18.265.274q1.35,1.855,2.7,3.713c.264.362.221.3-.028.6a10.287,10.287,0,0,1-5.023,3.29,13.713,13.713,0,0,1-8.138.055,10.874,10.874,0,0,1-7.234-6.914,14.725,14.725,0,0,1-.913-5.8,13.524,13.524,0,0,1,1.244-5.406,11.252,11.252,0,0,1,8.6-6.56,12.97,12.97,0,0,1,7.763.888,9.041,9.041,0,0,1,4.213,3.609c.048.081.095.162.142.244a.146.146,0,0,1-.048.209l-.158.125L220.5,23.1a.488.488,0,0,1-.26.139Z" fill="#fff"/>
      <path id="Path_18201" data-name="Path 18201" d="M66.693,5.475a5.846,5.846,0,0,1-2.058,4.412,7.966,7.966,0,0,1-3.529,1.845,6.5,6.5,0,0,1-2.512.138,1.25,1.25,0,0,0-1.217.434A3.709,3.709,0,0,1,54.7,13.589a4.64,4.64,0,0,1-1.622-.238.52.52,0,0,0-.6.15,8.7,8.7,0,0,1-3.3,2.165,5.749,5.749,0,0,1-5.886-1.175A4.083,4.083,0,0,1,41.908,11.8a5.348,5.348,0,0,1,2.45-5.123,6.531,6.531,0,0,1,1.821-.925,3.435,3.435,0,0,0,1.684-1.183,6.276,6.276,0,0,1,1.96-1.759,5.144,5.144,0,0,1,3.5-.522c.171.031.342.069.51.113a2.06,2.06,0,0,0,1.942-.477A8.24,8.24,0,0,1,58.369.41a6.409,6.409,0,0,1,6.363,1.067,4.937,4.937,0,0,1,1.9,3.075,6.2,6.2,0,0,1,.061.923Z" fill="#fff"/>
      <path id="Path_18202" data-name="Path 18202" d="M180.859,28.2c-.025,3.136.058,6.851.057,10.567,0,.512.079.464-.471.494q-2.977.159-5.954.31c-.342.018-.337.017-.348-.341-.065-2.292-.136-4.584-.2-6.877-.046-1.649-.079-3.3-.122-4.947-.045-1.77-.1-3.54-.142-5.309-.036-1.381-.066-2.762-.1-4.143-.01-.4-.039-.8-.048-1.206-.006-.307,0-.31.3-.329.885-.056,1.769-.108,2.653-.162l3.779-.229c.04,0,.08-.006.12-.009.4-.021.4-.021.4.373C180.808,20.13,180.832,23.872,180.859,28.2Z" fill="#fff"/>
      <path id="Path_18203" data-name="Path 18203" d="M75.127,19.444a.778.778,0,0,0-.163-.147.9.9,0,0,1-.546-1.066,5.982,5.982,0,0,0,.007-.8c0-.36-.073-.388.4-.385h6.09c.335.006.336.006.341.324V40.193c0,.558.082.49-.489.49H74.922c-.094,0-.188-.005-.282,0-.15.01-.217-.042-.216-.2.006-.886.008-1.771,0-2.657a.472.472,0,0,1,.177-.339,5.76,5.76,0,0,0,1.342-2.531,6.175,6.175,0,0,0-.226-4.008,4.348,4.348,0,0,0-1.092-1.476.49.49,0,0,1-.2-.4q.007-4.227,0-8.453a.655.655,0,0,1,.154-.441C74.762,19.943,74.933,19.7,75.127,19.444Z" fill="#fff"/>
      <path id="Path_18204" data-name="Path 18204" d="M64.314,15.821c-.59-.106-1.122-.233-1.668-.3A9.175,9.175,0,0,0,55.785,17.3a15.609,15.609,0,0,0-3.031,3.082c-.3.391-.586.8-.917,1.25l-2.666-4.663c.978-.669,1.932-1.339,2.9-1.982,1.042-.691.653-.584,1.969-.6a7.4,7.4,0,0,0,1.762-.108,3.61,3.61,0,0,0,1.808-.99,2.025,2.025,0,0,1,1.309-.633c1.491-.15,2.983-.293,4.477-.418.213-.018.28.026.315.231C63.9,13.572,64.107,14.673,64.314,15.821Z" fill="#fff"/>
      <path id="Path_18205" data-name="Path 18205" d="M77.8,13.837H74.74c-.309,0-.315-.006-.315-.309V8.1c0-.3.006-.308.313-.308h6.2c.309,0,.314.007.314.306v5.429c0,.3-.006.31-.313.311C79.894,13.839,78.847,13.837,77.8,13.837Z" fill="#fff"/>
      <path id="Path_18206" data-name="Path 18206" d="M177.354,5.76c1.086-.056,2.171-.111,3.257-.171.152-.009.232.033.222.2v5.309c0,.265-.007.276-.3.291-.938.05-1.876.094-2.815.137-1.18.054-2.36.1-3.54.157-.348.015-.347.015-.356-.338q-.063-2.431-.125-4.864c0-.107,0-.215-.008-.321-.013-.155.053-.216.206-.22.215,0,.429-.029.643-.039q1.407-.069,2.815-.133Z" fill="#fff"/>
      <path id="Path_18207" data-name="Path 18207" d="M295.883,12.137c.211-.606.392-1.132.578-1.658.052-.146.05-.357.206-.408a1.858,1.858,0,0,1,.6-.042c.164,0,.124.147.125.245v2.633c-.042.032-.061.059-.081.061-.532.047-.533.046-.537-.5v-.823l-.094-.015c-.127.33-.272.655-.377.993a.423.423,0,0,1-.464.339.293.293,0,0,1-.336-.2c-.125-.324-.273-.64-.412-.959a.246.246,0,0,0-.145-.148v1.059c0,.325-.01.321-.34.329-.191.005-.264-.056-.265-.25q-.01-1.246-.039-2.493c0-.167.047-.228.222-.238.557-.033.556-.041.748.464S295.66,11.548,295.883,12.137Z" fill="#fff"/>
      <path id="Path_18208" data-name="Path 18208" d="M294.144,10.611a1.021,1.021,0,0,1-.4.035c-.42.009-.383-.005-.383.409,0,.563-.008,1.127,0,1.69,0,.194-.062.27-.25.261a1.507,1.507,0,0,0-.241.02c-.143.019-.19-.05-.191-.184,0-.389-.011-.778-.017-1.167,0-.107,0-.215-.007-.322-.013-.2.068-.438-.046-.588-.128-.17-.375-.045-.569-.053-.157,0-.2-.064-.213-.215-.019-.4-.009-.414.369-.426.564-.018,1.128-.04,1.692-.055.292-.007.292,0,.29.279a1.911,1.911,0,0,1-.009.2.672.672,0,0,1-.025.116Z" fill="#fff"/>
    </g>
  </g>
</svg>
