<svg width="32" height="31" viewBox="0 0 32 31" fill="none" xmlns="http://www.w3.org/2000/svg">
<g clip-path="url(#clip0_5782_858)">
<path d="M13.0693 30.7783C13.0153 26.8243 12.9656 22.8703 12.9209 18.917C12.8929 16.6403 12.8631 14.3623 12.8311 12.083C12.8311 11.86 12.8305 11.856 12.6035 11.791C12.1105 11.635 11.6141 11.4913 11.0801 11.3223C11.1413 11.2809 11.2162 11.2649 11.2891 11.2773C13.3397 11.2733 15.3923 11.2733 17.4463 11.2773C17.7133 11.2773 17.6797 11.2768 17.6797 11.5518V19.6152C17.7797 19.6362 17.8028 19.5605 17.8398 19.5195C19.9852 17.0742 22.1276 14.6289 24.2676 12.1836C24.3211 12.1122 24.3916 12.0559 24.4727 12.0186C24.5537 11.9812 24.6434 11.964 24.7324 11.9697C26.3194 11.9777 27.9052 11.9697 29.4922 11.9697H29.7549C29.7719 12.0847 29.7013 12.1258 29.6553 12.1758C27.9173 14.1931 26.1766 16.2118 24.4346 18.2305C23.8686 18.8875 23.2965 19.544 22.7295 20.207C22.5435 20.416 22.5845 20.3805 22.7295 20.5645C24.4515 22.8311 26.1757 25.0976 27.9004 27.3643C28.4794 28.1293 29.0626 28.8971 29.6416 29.6641C29.7122 29.7291 29.7596 29.8163 29.7744 29.9111H29.5146C27.8006 29.9111 26.087 29.9111 24.373 29.9111C24.2924 29.9172 24.2115 29.9013 24.1387 29.8662C24.0658 29.8311 24.0035 29.7778 23.958 29.7109C21.948 27.2043 19.934 24.7002 17.916 22.1982C17.8584 22.1015 17.7782 22.0196 17.6826 21.96V22.2686C17.6826 23.3686 17.6833 24.4693 17.6953 25.5693C17.6992 25.6498 17.6864 25.7302 17.6582 25.8057C17.63 25.8811 17.5869 25.9496 17.5312 26.0078C16.1092 27.6231 14.6901 29.2416 13.2734 30.8623C13.2234 30.9163 13.1914 30.9848 13.1094 31.0098C13.0364 30.9418 13.0693 30.8563 13.0693 30.7783ZM2.125 27.708V7.39355C2.125 6.93755 2.19388 7.04427 1.75488 6.90527C1.17088 6.72027 0.583 6.54398 0 6.33398H20.417C20.45 6.41598 20.3681 6.45284 20.3271 6.50684C19.3818 7.62484 18.439 8.7455 17.499 9.86816C17.4517 9.92737 17.3902 9.97342 17.3203 10.0029C17.2505 10.0324 17.1741 10.0444 17.0986 10.0371C14.1846 10.0331 11.2717 10.0331 8.3584 10.0371C7.3834 10.0371 6.41434 10.0371 5.44434 10.0371H5.14355C5.24741 10.1117 5.36785 10.1606 5.49414 10.1807C5.88114 10.3037 6.26632 10.4152 6.65332 10.5352C6.92032 10.6172 6.86709 10.609 6.87109 10.835V15.3105C6.87109 15.6935 6.82601 15.6436 7.20801 15.6436H12.6328L12.0078 16.3877C11.3018 17.2267 10.5907 18.0651 9.8877 18.9111C9.84218 18.9721 9.78278 19.0205 9.71387 19.0527C9.64496 19.085 9.56915 19.0998 9.49316 19.0957C8.16116 19.0877 6.83384 19.0879 5.50684 19.0879C5.39447 19.0754 5.28071 19.0881 5.17383 19.125C5.27383 19.162 5.35083 19.1869 5.42383 19.2109C5.84783 19.3429 6.26252 19.4747 6.68652 19.5938C6.71531 19.5975 6.74353 19.6073 6.76855 19.6221C6.79357 19.6368 6.81574 19.6564 6.83301 19.6797C6.85028 19.703 6.86237 19.7296 6.86914 19.7578C6.87591 19.786 6.87689 19.8151 6.87207 19.8438C6.87207 20.6658 6.86307 21.4894 6.87207 22.3154C6.86596 22.4524 6.80715 22.5811 6.70801 22.6758C5.70801 23.8631 4.70522 25.0525 3.69922 26.2432C3.24722 26.7812 2.79229 27.321 2.33496 27.8623C2.28576 27.9414 2.21442 28.0039 2.12988 28.043L2.125 27.708ZM27.5771 7.5166V4.42188H24.4824V3.09473H27.5771V0H28.9082V3.09473H32.0029V4.42188H28.9082V7.5166H27.5771Z" fill="#AAAAAA"/>
</g>
<defs>
<clipPath id="clip0_5782_858">
<rect width="32.003" height="31.009" fill="white"/>
</clipPath>
</defs>
</svg>
