<svg width="32" height="32" viewBox="0 0 32 32" fill="none" xmlns="http://www.w3.org/2000/svg">
<g clip-path="url(#clip0_5782_860)">
<path d="M15.9982 1.1241e-06C12.833 -0.00118509 9.7385 0.936468 7.10629 2.69434C4.47408 4.4522 2.42239 6.9513 1.21079 9.87545C-0.000807405 12.7996 -0.317874 16.0174 0.299704 19.1218C0.917282 22.2262 2.44175 25.0777 4.68025 27.3155C6.91876 29.5533 9.7707 31.0769 12.8753 31.6935C15.9799 32.3101 19.1976 31.992 22.1214 30.7795C25.0451 29.567 27.5436 27.5145 29.3006 24.8817C31.0577 22.249 31.9944 19.1542 31.9922 15.989C31.9909 11.748 30.3052 7.68114 27.3059 4.68277C24.3066 1.68439 20.2392 9.16866e-07 15.9982 1.1241e-06ZM17.1382 24.891C16.7872 25.2152 16.326 25.394 15.8482 25.391C15.3621 25.3982 14.891 25.2234 14.5272 24.901C14.3366 24.7292 14.1869 24.5168 14.0892 24.2796C13.9914 24.0424 13.948 23.7862 13.9622 23.53C13.957 23.2849 14.0028 23.0414 14.0968 22.815C14.1908 22.5886 14.3309 22.3843 14.5082 22.215C14.6841 22.0408 14.8934 21.9038 15.1234 21.8122C15.3535 21.7206 15.5996 21.6763 15.8472 21.682C16.0904 21.6788 16.3317 21.7243 16.557 21.8159C16.7823 21.9074 16.987 22.0432 17.159 22.2152C17.331 22.3872 17.4667 22.5918 17.5583 22.8172C17.6499 23.0425 17.6954 23.2838 17.6922 23.527C17.7056 23.7811 17.6629 24.035 17.5671 24.2707C17.4714 24.5064 17.3249 24.7182 17.1382 24.891ZM21.7712 13.405C21.5032 13.9109 21.16 14.3732 20.7532 14.776C20.3612 15.1607 19.6562 15.8077 18.6382 16.717C18.4007 16.9299 18.175 17.1555 17.9622 17.393C17.8154 17.5553 17.6885 17.7346 17.5842 17.927C17.504 18.0814 17.4396 18.2436 17.3922 18.411C17.3469 18.5717 17.2785 18.855 17.1872 19.261C17.1758 19.4428 17.1285 19.6206 17.048 19.784C16.9675 19.9474 16.8555 20.0933 16.7184 20.2132C16.5813 20.3332 16.4218 20.4248 16.2491 20.4827C16.0764 20.5407 15.8939 20.5639 15.7122 20.551C15.5123 20.556 15.3133 20.5213 15.1269 20.4489C14.9405 20.3764 14.7703 20.2677 14.6262 20.129C14.4704 19.9618 14.3509 19.7641 14.2752 19.5485C14.1995 19.3329 14.1692 19.1039 14.1862 18.876C14.1728 18.2605 14.2826 17.6485 14.5092 17.076C14.7136 16.5827 15.003 16.1292 15.3642 15.736C15.8204 15.255 16.3007 14.7974 16.8032 14.365C17.3325 13.9017 17.7149 13.5523 17.9502 13.317C18.1861 13.0837 18.388 12.8184 18.5502 12.529C18.7112 12.2413 18.7946 11.9167 18.7922 11.587C18.7973 11.2712 18.7339 10.9581 18.6065 10.6692C18.4792 10.3802 18.2907 10.1222 18.0542 9.913C17.5329 9.44855 16.8519 9.20412 16.1542 9.231C15.7898 9.19983 15.4228 9.24491 15.0768 9.36337C14.7307 9.48182 14.4131 9.67105 14.1442 9.919C13.6413 10.5103 13.2695 11.2015 13.0532 11.947C12.7712 12.8803 12.2379 13.347 11.4532 13.347C11.2344 13.3513 11.017 13.31 10.8151 13.2256C10.6131 13.1412 10.4309 13.0157 10.2802 12.857C10.1318 12.7215 10.0121 12.5576 9.92831 12.375C9.84448 12.1924 9.79819 11.9948 9.79219 11.794C9.81245 10.9424 10.0747 10.1141 10.5482 9.406C11.0983 8.55915 11.8592 7.86993 12.7562 7.406C13.7992 6.8584 14.9644 6.58517 16.1422 6.612C17.2372 6.5898 18.3229 6.81685 19.3172 7.276C20.1786 7.66883 20.9149 8.29167 21.4452 9.076C21.937 9.80971 22.1982 10.6737 22.1952 11.557C22.2114 12.1988 22.0656 12.8344 21.7712 13.405Z" fill="#AAAAAA"/>
</g>
<defs>
<clipPath id="clip0_5782_860">
<rect width="31.994" height="31.996" fill="white"/>
</clipPath>
</defs>
</svg>
