<svg width="30" height="28" viewBox="0 0 30 28" fill="none" xmlns="http://www.w3.org/2000/svg">
<g clip-path="url(#clip0_5782_863)">
<path d="M29.4985 12.623L24.9525 8.07597V2.82497C24.9525 2.36893 24.7713 1.93157 24.4489 1.6091C24.1264 1.28663 23.689 1.10547 23.233 1.10547C22.7769 1.10547 22.3396 1.28663 22.0171 1.6091C21.6946 1.93157 21.5135 2.36893 21.5135 2.82497V4.63797L18.1235 1.25297C17.2816 0.447719 16.1615 -0.00170898 14.9965 -0.00170898C13.8315 -0.00170898 12.7114 0.447719 11.8695 1.25297L0.498486 12.623C0.176248 12.946 -0.00446756 13.3838 -0.00390494 13.8401C-0.00334232 14.2964 0.178452 14.7337 0.501486 15.056C0.82452 15.3782 1.26233 15.5589 1.71861 15.5584C2.17488 15.5578 2.61225 15.376 2.93449 15.053L14.2985 3.68697C14.4868 3.50985 14.7355 3.41123 14.994 3.41123C15.2525 3.41123 15.5012 3.50985 15.6895 3.68697L27.0615 15.053C27.3837 15.3761 27.8211 15.5581 28.2775 15.5587C28.7339 15.5594 29.1718 15.3787 29.495 15.0565C29.8182 14.7342 30.0001 14.2968 30.0007 13.8404C30.0014 13.3841 29.8207 12.9461 29.4985 12.623Z" fill="#AAAAAA"/>
<path d="M15.5973 6.95602C15.5189 6.87759 15.4258 6.81537 15.3234 6.77292C15.2209 6.73047 15.1111 6.70862 15.0003 6.70862C14.8894 6.70862 14.7796 6.73047 14.6771 6.77292C14.5747 6.81537 14.4816 6.87759 14.4033 6.95602L4.40326 16.956C4.32463 17.0349 4.26233 17.1284 4.21994 17.2314C4.17756 17.3344 4.15592 17.4447 4.15625 17.556V24.847C4.15625 25.6692 4.48286 26.4577 5.06422 27.0391C5.64558 27.6204 6.43408 27.947 7.25625 27.947H12.2073V20.28H17.7963V27.947H22.7473C23.5694 27.947 24.3579 27.6204 24.9393 27.0391C25.5207 26.4577 25.8473 25.6692 25.8473 24.847V17.546C25.8478 17.4347 25.8262 17.3243 25.7838 17.2213C25.7414 17.1183 25.679 17.0248 25.6003 16.946L15.5973 6.95602Z" fill="#AAAAAA"/>
</g>
<defs>
<clipPath id="clip0_5782_863">
<rect width="29.999" height="27.935" fill="white"/>
</clipPath>
</defs>
</svg>
