<?xml version="1.0" encoding="UTF-8"?>
<svg xmlns="http://www.w3.org/2000/svg" xmlns:xlink="http://www.w3.org/1999/xlink" width="280px" height="47px" viewBox="0 0 282 47" version="1.1">
<g id="surface1">
<path style=" stroke:none;fill-rule:nonzero;fill:rgb(12.941176%,26.666667%,34.117647%);fill-opacity:1;" d="M 161.304688 41.359375 L 153.878906 41.359375 C 153.691406 41.359375 153.40625 41.265625 153.3125 41.078125 C 150.589844 37.601562 147.769531 34.214844 144.949219 30.738281 C 144.855469 30.644531 144.761719 30.457031 144.664062 30.457031 L 144.664062 35.4375 C 144.664062 35.625 144.570312 35.8125 144.476562 36.003906 C 142.503906 38.257812 140.53125 40.421875 138.648438 42.675781 C 138.554688 42.769531 138.554688 42.863281 138.460938 42.863281 C 138.367188 42.769531 138.367188 42.675781 138.367188 42.582031 C 138.273438 37.128906 138.273438 31.679688 138.179688 26.226562 C 138.179688 23.125 138.085938 19.929688 138.085938 16.824219 C 138.085938 16.542969 138.085938 16.542969 137.804688 16.449219 C 137.144531 16.261719 136.394531 16.074219 135.734375 15.792969 C 135.828125 15.699219 135.925781 15.699219 136.019531 15.699219 L 144.476562 15.699219 C 144.855469 15.699219 144.761719 15.699219 144.761719 16.074219 L 144.761719 27.261719 C 144.855469 27.261719 144.855469 27.261719 144.949219 27.164062 C 147.863281 23.78125 150.871094 20.398438 153.785156 17.015625 C 153.972656 16.824219 154.160156 16.730469 154.441406 16.730469 L 161.398438 16.730469 C 161.398438 16.921875 161.304688 16.921875 161.304688 17.015625 C 158.859375 19.835938 156.511719 22.558594 154.066406 25.378906 L 151.714844 28.105469 C 151.433594 28.386719 151.527344 28.386719 151.714844 28.574219 L 158.859375 37.976562 C 159.707031 39.011719 160.457031 40.042969 161.304688 41.171875 C 161.210938 41.171875 161.304688 41.265625 161.304688 41.359375 Z M 161.304688 41.359375 "/>
<path style=" stroke:none;fill-rule:nonzero;fill:rgb(12.941176%,26.666667%,34.117647%);fill-opacity:1;" d="M 239.980469 31.773438 C 240.265625 34.121094 241.957031 36.003906 244.304688 36.566406 C 246.9375 37.128906 249.664062 36.660156 251.824219 35.0625 C 251.921875 34.96875 252.015625 34.875 252.203125 34.875 C 252.296875 34.875 252.390625 35.0625 252.390625 35.0625 C 253.140625 36.378906 253.894531 37.695312 254.644531 39.105469 C 254.835938 39.386719 254.929688 39.386719 254.550781 39.574219 C 252.765625 40.796875 250.699219 41.640625 248.535156 42.019531 C 246.1875 42.488281 243.742188 42.394531 241.484375 41.734375 C 238.007812 40.796875 235.28125 38.164062 234.34375 34.6875 C 233.964844 33.464844 233.777344 32.242188 233.683594 31.019531 C 233.589844 29.140625 233.777344 27.355469 234.246094 25.566406 C 235.09375 21.996094 238.007812 19.269531 241.578125 18.519531 C 243.179688 18.140625 244.871094 18.046875 246.46875 18.140625 C 247.972656 18.234375 249.382812 18.519531 250.792969 19.082031 C 253.613281 20.117188 255.492188 22.652344 255.773438 25.566406 C 255.960938 27.449219 255.773438 29.328125 255.210938 31.113281 C 255.210938 31.300781 255.117188 31.394531 254.929688 31.394531 C 252.296875 31.488281 249.757812 31.488281 247.125 31.585938 C 244.871094 31.679688 242.613281 31.679688 240.359375 31.773438 Z M 244.964844 27.824219 L 249.851562 27.824219 C 249.945312 27.824219 250.039062 27.730469 250.039062 27.636719 L 250.039062 26.882812 C 250.039062 25.097656 248.722656 23.5 246.9375 23.21875 C 245.902344 23.03125 244.777344 23.03125 243.742188 23.21875 C 242.332031 23.40625 241.109375 24.347656 240.546875 25.660156 C 240.265625 26.226562 240.074219 26.882812 239.980469 27.542969 C 239.980469 27.824219 239.886719 27.824219 240.265625 27.824219 Z M 244.964844 27.824219 "/>
<path style=" stroke:none;fill-rule:nonzero;fill:rgb(0.392157%,75.294118%,44.313725%);fill-opacity:1;" d="M 40.890625 37.882812 C 40.796875 37.882812 40.796875 37.976562 40.703125 37.976562 C 39.199219 39.855469 37.222656 41.171875 34.875 41.828125 C 33.371094 42.207031 31.867188 42.394531 30.363281 42.394531 C 29.234375 42.394531 28.011719 42.113281 26.976562 41.640625 C 25.285156 40.796875 24.0625 39.292969 23.59375 37.507812 C 23.21875 36.378906 23.03125 35.15625 23.03125 33.933594 L 23.03125 20.023438 C 23.03125 19.929688 23.125 19.835938 23.21875 19.835938 L 29.140625 19.835938 C 29.515625 19.835938 29.515625 19.835938 29.515625 20.210938 L 29.515625 32.335938 C 29.515625 33.089844 29.609375 33.839844 29.796875 34.59375 C 29.796875 34.78125 29.890625 34.96875 29.984375 35.0625 C 30.457031 36.472656 31.679688 37.410156 33.183594 37.507812 C 35.8125 37.695312 38.445312 36.378906 39.761719 34.027344 C 39.949219 33.746094 40.042969 33.371094 40.042969 32.992188 L 40.042969 20.210938 C 40.042969 19.738281 39.949219 19.738281 40.515625 19.738281 L 46.246094 19.738281 C 46.4375 19.738281 46.4375 19.835938 46.4375 19.929688 L 46.4375 35.15625 C 46.4375 35.4375 46.4375 35.71875 46.53125 36.003906 C 46.625 36.566406 47 36.941406 47.5625 37.035156 L 47.753906 37.035156 C 47.941406 37.035156 47.941406 37.128906 47.941406 37.316406 L 47.941406 41.640625 C 47.941406 41.828125 47.941406 41.925781 47.753906 41.925781 C 46.4375 42.207031 45.121094 42.207031 43.804688 42.019531 C 43.238281 41.925781 42.675781 41.640625 42.207031 41.359375 C 41.640625 40.890625 41.265625 40.324219 41.171875 39.574219 C 40.984375 39.105469 40.890625 38.539062 40.890625 37.882812 Z M 40.890625 37.882812 "/>
<path style=" stroke:none;fill-rule:nonzero;fill:rgb(0.392157%,75.294118%,44.313725%);fill-opacity:1;" d="M 79.148438 30.832031 L 79.148438 25.566406 C 79.148438 25.378906 79.242188 25.097656 79.335938 24.910156 C 80.652344 22.84375 82.625 21.339844 84.882812 20.398438 C 86.386719 19.835938 88.078125 19.457031 89.675781 19.363281 C 91.460938 19.269531 93.246094 19.457031 94.941406 19.929688 C 97.761719 20.679688 100.109375 22.371094 101.707031 24.816406 C 102.929688 26.695312 103.589844 28.953125 103.492188 31.207031 C 103.304688 35.53125 100.675781 39.480469 96.632812 41.171875 C 95.128906 41.828125 93.53125 42.207031 91.839844 42.300781 C 90.050781 42.488281 88.171875 42.300781 86.386719 41.828125 C 83.566406 41.078125 81.027344 39.386719 79.335938 36.941406 C 79.148438 36.660156 79.054688 36.378906 79.054688 36.097656 C 79.148438 34.308594 79.148438 32.523438 79.148438 30.832031 Z M 91.179688 37.507812 C 93.53125 37.410156 95.691406 35.90625 96.539062 33.652344 C 97.101562 32.335938 97.289062 30.832031 97.007812 29.421875 C 96.351562 25.945312 92.964844 23.59375 89.488281 24.253906 C 88.078125 24.535156 86.855469 25.191406 85.914062 26.226562 C 84.507812 27.824219 83.847656 29.984375 84.316406 32.054688 C 84.789062 35.34375 87.324219 37.507812 91.179688 37.507812 Z M 91.179688 37.507812 "/>
<path style=" stroke:none;fill-rule:nonzero;fill:rgb(12.941176%,26.666667%,34.117647%);fill-opacity:1;" d="M 261.695312 22.464844 C 261.976562 22.277344 262.164062 22.089844 262.355469 21.902344 C 263.765625 20.773438 265.363281 19.835938 266.960938 19.082031 C 268.652344 18.425781 270.4375 18.140625 272.222656 18.328125 C 274.199219 18.425781 275.890625 19.644531 276.546875 21.527344 C 276.925781 22.558594 277.207031 23.59375 277.300781 24.722656 C 277.488281 26.882812 277.582031 28.953125 277.488281 31.113281 C 277.488281 32.898438 277.394531 34.6875 277.300781 36.472656 L 277.019531 40.421875 L 277.019531 40.609375 C 276.925781 41.078125 277.019531 40.984375 276.546875 40.984375 C 274.667969 40.984375 272.695312 40.890625 270.8125 40.796875 C 270.53125 40.796875 270.53125 40.796875 270.53125 40.515625 C 270.625 39.574219 270.71875 38.632812 270.71875 37.695312 C 270.8125 36.378906 270.90625 35.0625 270.90625 33.839844 C 270.90625 32.148438 271.003906 30.363281 270.90625 28.671875 C 270.90625 28.011719 270.8125 27.261719 270.625 26.601562 C 270.53125 26.320312 270.4375 26.132812 270.34375 25.851562 C 270.0625 25.097656 269.308594 24.535156 268.464844 24.535156 C 267.710938 24.441406 266.960938 24.535156 266.300781 24.816406 C 265.550781 25.097656 264.796875 25.472656 264.140625 25.851562 C 263.386719 26.320312 262.636719 26.882812 261.976562 27.449219 C 261.789062 27.542969 261.695312 27.824219 261.695312 28.011719 C 261.695312 31.394531 261.789062 34.78125 261.789062 38.164062 L 261.789062 40.515625 C 261.789062 40.890625 261.882812 40.890625 261.414062 40.890625 C 260.378906 40.984375 259.347656 40.984375 258.3125 41.078125 C 257.464844 41.078125 256.527344 41.171875 255.679688 41.171875 C 255.398438 41.171875 255.398438 41.171875 255.398438 40.890625 L 255.398438 40.324219 C 255.398438 40.136719 255.398438 39.949219 255.585938 39.949219 C 255.679688 39.855469 255.679688 39.761719 255.585938 39.667969 C 255.398438 39.292969 255.304688 38.914062 255.304688 38.445312 C 255.304688 36.285156 255.210938 34.027344 255.210938 31.867188 C 255.210938 31.394531 255.210938 31.394531 255.679688 31.394531 C 256.054688 31.394531 256.054688 31.488281 256.148438 31.019531 C 256.621094 29.328125 256.808594 27.636719 256.714844 25.851562 C 256.621094 24.15625 256.054688 22.464844 255.117188 21.054688 C 255.023438 20.960938 254.929688 20.773438 255.023438 20.679688 L 255.023438 19.363281 C 255.023438 18.988281 255.023438 18.988281 255.304688 18.988281 C 256.242188 18.894531 257.183594 18.894531 258.03125 18.800781 C 259.0625 18.707031 260.003906 18.707031 261.039062 18.613281 L 261.132812 18.613281 C 261.320312 18.613281 261.414062 18.613281 261.414062 18.800781 C 261.414062 19.457031 261.507812 20.117188 261.507812 20.679688 C 261.601562 21.433594 261.601562 21.902344 261.695312 22.464844 Z M 261.695312 22.464844 "/>
<path style=" stroke:none;fill-rule:nonzero;fill:rgb(12.941176%,26.666667%,34.117647%);fill-opacity:1;" d="M 218.457031 23.03125 C 218.738281 22.84375 218.925781 22.652344 219.207031 22.464844 C 220.335938 21.527344 221.652344 20.773438 222.96875 20.117188 C 224.472656 19.457031 226.164062 19.175781 227.855469 19.363281 C 229.640625 19.457031 231.238281 20.585938 231.804688 22.371094 C 232.085938 23.3125 232.273438 24.253906 232.367188 25.191406 C 232.554688 27.542969 232.554688 29.890625 232.554688 32.242188 C 232.554688 33.839844 232.460938 35.53125 232.367188 37.128906 C 232.273438 37.976562 232.179688 38.726562 232.179688 39.574219 C 232.179688 39.855469 232.179688 39.855469 231.898438 39.855469 C 230.113281 39.855469 228.324219 39.761719 226.632812 39.761719 C 226.351562 39.761719 226.351562 39.761719 226.445312 39.480469 C 226.539062 38.164062 226.726562 36.847656 226.726562 35.53125 C 226.820312 33.277344 226.820312 31.113281 226.820312 28.859375 C 226.820312 28.011719 226.726562 27.261719 226.445312 26.507812 C 226.164062 25.566406 225.316406 24.910156 224.378906 24.910156 C 223.53125 24.910156 222.6875 25.097656 221.933594 25.472656 C 220.710938 26.039062 219.679688 26.789062 218.738281 27.730469 C 218.644531 27.824219 218.550781 28.011719 218.644531 28.105469 L 218.644531 39.480469 C 218.644531 39.667969 218.550781 39.667969 218.363281 39.761719 C 217.421875 39.761719 216.480469 39.855469 215.449219 39.949219 C 214.601562 39.949219 213.851562 40.042969 213.003906 40.042969 C 212.816406 40.042969 212.816406 40.042969 212.816406 39.855469 C 212.816406 39.667969 212.816406 39.480469 213.003906 39.386719 L 213.566406 38.820312 C 213.757812 38.539062 213.757812 38.539062 213.566406 38.351562 C 213.378906 38.070312 213.191406 37.789062 212.910156 37.507812 C 212.816406 37.316406 212.722656 37.128906 212.722656 36.941406 C 212.722656 34.308594 212.628906 31.679688 212.535156 29.046875 C 212.535156 27.355469 212.441406 25.757812 212.441406 24.0625 C 212.441406 23.875 212.535156 23.59375 212.722656 23.5 C 213.191406 23.21875 213.566406 22.9375 213.945312 22.558594 C 214.132812 22.464844 214.132812 22.371094 214.039062 22.183594 C 213.660156 21.527344 213.191406 20.867188 212.628906 20.398438 C 212.441406 20.304688 212.347656 20.023438 212.347656 19.835938 C 212.347656 17.578125 212.253906 15.226562 212.253906 12.972656 C 212.253906 12.597656 212.253906 12.597656 212.535156 12.597656 C 214.320312 12.503906 216.199219 12.40625 217.984375 12.3125 L 218.078125 12.3125 C 218.363281 12.3125 218.363281 12.3125 218.363281 12.597656 L 218.363281 22.652344 Z M 218.457031 23.03125 "/>
<path style=" stroke:none;fill-rule:nonzero;fill:rgb(0.392157%,75.294118%,44.313725%);fill-opacity:1;" d="M 109.320312 24.0625 C 109.414062 24.0625 109.414062 24.0625 109.414062 23.96875 C 110.542969 22.371094 112.140625 21.242188 113.929688 20.585938 C 116.089844 19.738281 118.441406 19.457031 120.789062 19.835938 C 123.234375 20.117188 125.300781 21.902344 125.960938 24.253906 C 126.242188 25.191406 126.429688 26.226562 126.523438 27.261719 C 126.523438 27.824219 126.617188 28.480469 126.617188 29.046875 L 126.617188 41.828125 C 126.617188 42.394531 126.710938 42.300781 126.148438 42.300781 L 120.414062 42.300781 C 120.320312 42.300781 120.320312 42.300781 120.320312 42.207031 L 120.320312 29.984375 C 120.320312 29.140625 120.226562 28.292969 120.039062 27.449219 C 119.757812 26.132812 118.628906 25.097656 117.3125 24.816406 C 116.558594 24.722656 115.714844 24.722656 114.960938 24.910156 C 113.269531 25.378906 111.765625 26.414062 110.730469 27.917969 C 110.542969 28.105469 110.449219 28.292969 110.355469 28.574219 C 110.167969 29.046875 109.980469 29.515625 109.980469 29.984375 L 109.980469 42.113281 C 109.980469 42.394531 109.980469 42.394531 109.699219 42.394531 L 103.964844 42.394531 C 103.683594 42.394531 103.683594 42.394531 103.683594 42.019531 L 103.683594 36.941406 C 103.683594 36.753906 103.777344 36.566406 103.871094 36.378906 C 105.84375 32.992188 105.84375 28.859375 103.871094 25.472656 C 103.777344 25.285156 103.683594 25.003906 103.683594 24.816406 L 103.683594 20.398438 C 103.683594 20.304688 103.777344 20.210938 103.871094 20.210938 L 109.132812 20.210938 C 109.320312 20.210938 109.414062 20.304688 109.414062 20.398438 L 109.414062 23.96875 C 109.320312 23.96875 109.320312 24.0625 109.320312 24.0625 Z M 109.320312 24.0625 "/>
<path style=" stroke:none;fill-rule:nonzero;fill:rgb(0.392157%,75.294118%,44.313725%);fill-opacity:1;" d="M 18.613281 25.097656 L 17.765625 26.132812 C 16.824219 27.261719 15.792969 28.480469 14.851562 29.609375 C 14.757812 29.796875 14.476562 29.890625 14.289062 29.890625 L 8.835938 29.890625 C 8.648438 29.890625 8.554688 29.890625 8.367188 29.984375 C 8.460938 29.984375 8.554688 29.984375 8.648438 30.078125 L 10.339844 30.644531 C 10.527344 30.644531 10.621094 30.832031 10.621094 31.019531 L 10.621094 34.402344 C 10.621094 34.59375 10.527344 34.78125 10.433594 34.875 L 6.296875 39.761719 C 5.640625 40.515625 5.074219 41.265625 4.417969 42.019531 L 4.136719 42.300781 L 4.136719 13.816406 C 4.136719 13.160156 4.230469 13.347656 3.664062 13.160156 C 2.820312 12.878906 2.066406 12.691406 1.222656 12.40625 L 29.328125 12.40625 C 29.328125 12.503906 29.234375 12.597656 29.234375 12.691406 C 27.917969 14.195312 26.601562 15.792969 25.378906 17.296875 C 25.285156 17.484375 25.003906 17.578125 24.816406 17.484375 L 8.273438 17.484375 C 8.460938 17.578125 8.554688 17.671875 8.742188 17.671875 C 9.304688 17.859375 9.777344 17.953125 10.339844 18.140625 C 10.714844 18.234375 10.621094 18.234375 10.621094 18.519531 L 10.621094 24.722656 C 10.621094 25.285156 10.527344 25.191406 11.09375 25.191406 L 18.613281 25.191406 Z M 18.613281 25.097656 "/>
<path style=" stroke:none;fill-rule:nonzero;fill:rgb(0.392157%,75.294118%,44.313725%);fill-opacity:1;" d="M 70.3125 22.371094 L 67.773438 25.757812 L 67.304688 25.472656 C 65.988281 24.628906 64.484375 23.96875 62.886719 23.59375 C 61.664062 23.3125 60.347656 23.21875 59.125 23.5 C 58.65625 23.59375 58.1875 23.78125 57.808594 23.96875 C 56.964844 24.441406 56.492188 25.378906 56.777344 26.320312 C 56.871094 26.789062 57.152344 27.164062 57.527344 27.355469 C 57.902344 27.542969 58.28125 27.730469 58.75 27.917969 C 59.785156 28.292969 60.910156 28.574219 61.945312 28.765625 C 63.542969 29.140625 65.140625 29.609375 66.738281 30.175781 C 67.585938 30.457031 68.433594 30.832031 69.089844 31.394531 C 70.59375 32.429688 71.441406 34.214844 71.15625 36.003906 C 71.0625 37.976562 69.9375 39.667969 68.339844 40.703125 C 67.117188 41.453125 65.707031 42.019531 64.296875 42.207031 C 60.253906 42.863281 56.210938 42.300781 52.546875 40.515625 C 52.359375 40.421875 52.074219 40.230469 51.886719 40.136719 C 51.699219 40.042969 51.699219 39.949219 51.699219 39.761719 L 51.699219 37.507812 C 51.699219 37.128906 51.699219 37.128906 51.417969 37.035156 C 51.417969 36.941406 51.511719 36.847656 51.511719 36.753906 C 51.792969 36.378906 52.074219 35.90625 52.359375 35.53125 C 52.453125 35.34375 52.546875 35.34375 52.734375 35.4375 C 53.390625 35.90625 54.050781 36.285156 54.800781 36.566406 C 56.210938 37.316406 57.808594 37.789062 59.40625 38.070312 C 60.628906 38.257812 61.757812 38.257812 62.980469 38.070312 C 63.542969 37.976562 64.015625 37.789062 64.484375 37.507812 C 65.140625 37.128906 65.519531 36.285156 65.328125 35.53125 C 65.234375 35.0625 64.953125 34.6875 64.578125 34.402344 C 64.296875 34.214844 64.015625 34.121094 63.730469 34.027344 C 62.414062 33.558594 61.007812 33.183594 59.597656 32.804688 C 57.996094 32.429688 56.398438 31.960938 54.800781 31.394531 C 54.050781 31.113281 53.390625 30.738281 52.828125 30.269531 C 51.792969 29.515625 51.230469 28.292969 51.230469 27.070312 C 51.042969 24.722656 52.265625 22.464844 54.238281 21.242188 C 55.554688 20.398438 57.058594 19.835938 58.65625 19.644531 C 61.289062 19.269531 64.015625 19.457031 66.550781 20.304688 C 67.867188 20.773438 69.183594 21.433594 70.3125 22.277344 C 70.03125 22.183594 70.125 22.277344 70.3125 22.371094 C 70.21875 22.277344 70.21875 22.371094 70.3125 22.371094 Z M 70.3125 22.371094 "/>
<path style=" stroke:none;fill-rule:nonzero;fill:rgb(12.941176%,26.666667%,34.117647%);fill-opacity:1;" d="M 182.453125 13.160156 C 182.453125 13.253906 182.546875 13.441406 182.453125 13.535156 L 182.453125 18.894531 C 182.453125 18.988281 182.453125 19.082031 182.640625 19.082031 L 182.925781 19.082031 C 184.992188 19.082031 187.058594 18.988281 189.128906 18.988281 C 189.597656 18.988281 189.597656 18.894531 189.503906 19.363281 C 189.503906 20.773438 189.410156 22.277344 189.410156 23.6875 C 189.410156 23.96875 189.410156 23.96875 189.128906 23.96875 C 187.058594 24.0625 184.992188 24.0625 182.925781 24.15625 L 182.734375 24.15625 C 182.453125 24.15625 182.453125 24.15625 182.453125 24.441406 L 182.453125 31.960938 C 182.453125 32.523438 182.546875 33.089844 182.640625 33.652344 C 182.828125 34.402344 183.300781 34.96875 184.050781 35.25 C 184.710938 35.53125 185.367188 35.625 186.027344 35.53125 C 186.777344 35.4375 187.53125 35.34375 188.28125 35.0625 C 188.5625 34.96875 188.5625 34.96875 188.65625 35.25 C 188.847656 36.753906 189.035156 38.257812 189.128906 39.761719 L 189.128906 40.042969 C 189.128906 40.230469 189.128906 40.324219 188.941406 40.324219 C 186.871094 41.078125 184.617188 41.359375 182.453125 41.265625 C 181.609375 41.265625 180.667969 41.078125 179.914062 40.703125 C 178.410156 40.136719 177.285156 38.914062 176.8125 37.410156 C 176.4375 36.472656 176.25 35.53125 176.15625 34.59375 C 176.0625 33.464844 176.0625 32.335938 175.96875 31.207031 C 175.96875 29.046875 175.875 26.882812 175.875 24.722656 L 175.875 24.628906 C 175.875 24.441406 175.875 24.347656 175.6875 24.347656 L 174.933594 24.347656 C 174.183594 24.347656 173.523438 24.347656 172.773438 24.441406 C 172.488281 24.441406 172.488281 24.441406 172.488281 24.15625 C 172.488281 22.652344 172.585938 21.242188 172.585938 19.738281 L 172.585938 19.550781 C 172.585938 19.175781 172.585938 19.175781 172.960938 19.175781 L 175.496094 19.175781 C 175.875 19.175781 175.875 19.175781 175.875 18.800781 C 175.875 17.390625 175.78125 15.980469 175.78125 14.570312 C 175.78125 14.007812 175.78125 14.007812 176.34375 14.007812 C 178.035156 13.816406 179.632812 13.535156 181.324219 13.347656 C 181.703125 13.253906 182.078125 13.160156 182.453125 13.160156 Z M 182.453125 13.160156 "/>
<path style=" stroke:none;fill-rule:nonzero;fill:rgb(12.941176%,26.666667%,34.117647%);fill-opacity:1;" d="M 208.210938 25.945312 C 207.929688 25.566406 207.644531 25.285156 207.363281 25.003906 C 206.425781 24.15625 205.203125 23.6875 203.886719 23.6875 C 201.160156 23.5 198.714844 25.285156 198.152344 28.011719 C 197.777344 29.703125 197.871094 31.394531 198.433594 32.992188 C 199.1875 35.0625 201.160156 36.472656 203.414062 36.472656 C 205.109375 36.566406 206.800781 36.003906 208.117188 34.875 C 208.398438 34.6875 208.585938 34.402344 208.867188 34.214844 C 209.054688 34.308594 209.054688 34.402344 209.148438 34.496094 C 209.996094 35.625 210.84375 36.847656 211.6875 37.976562 C 211.96875 38.351562 211.875 38.257812 211.6875 38.539062 C 210.464844 40.042969 208.867188 41.078125 206.988281 41.640625 C 204.542969 42.394531 201.910156 42.488281 199.375 41.734375 C 196.179688 40.796875 193.640625 38.351562 192.605469 35.25 C 191.949219 33.464844 191.664062 31.679688 191.761719 29.796875 C 191.761719 28.011719 192.136719 26.320312 192.886719 24.722656 C 194.390625 21.433594 197.398438 19.082031 200.972656 18.519531 C 203.414062 18.046875 206.046875 18.328125 208.304688 19.363281 C 209.902344 20.023438 211.3125 21.242188 212.253906 22.746094 C 212.253906 22.84375 212.253906 22.84375 212.347656 22.9375 L 212.347656 23.125 L 212.15625 23.21875 L 208.585938 25.945312 C 208.398438 25.851562 208.304688 25.945312 208.210938 25.945312 Z M 208.210938 25.945312 "/>
<path style=" stroke:none;fill-rule:nonzero;fill:rgb(12.941176%,26.666667%,33.72549%);fill-opacity:1;" d="M 63.921875 9.210938 C 63.921875 10.808594 63.167969 12.3125 61.945312 13.347656 C 61.007812 14.195312 59.878906 14.757812 58.65625 15.039062 C 57.902344 15.226562 57.058594 15.320312 56.304688 15.132812 C 55.929688 15.039062 55.460938 15.226562 55.179688 15.511719 C 54.613281 16.355469 53.675781 16.824219 52.640625 16.824219 C 52.171875 16.824219 51.605469 16.730469 51.136719 16.636719 C 50.949219 16.542969 50.761719 16.636719 50.570312 16.730469 C 49.726562 17.671875 48.691406 18.328125 47.46875 18.800781 C 45.589844 19.457031 43.429688 19.082031 41.925781 17.671875 C 41.171875 17.015625 40.703125 16.074219 40.609375 15.132812 C 40.421875 13.253906 41.359375 11.375 42.957031 10.339844 C 43.523438 9.964844 44.085938 9.683594 44.648438 9.492188 C 45.308594 9.304688 45.871094 8.929688 46.246094 8.367188 C 46.71875 7.707031 47.375 7.144531 48.128906 6.675781 C 49.160156 6.109375 50.289062 5.921875 51.417969 6.203125 C 51.605469 6.203125 51.699219 6.296875 51.886719 6.296875 C 52.546875 6.484375 53.203125 6.296875 53.675781 5.828125 C 54.332031 5.171875 55.179688 4.699219 56.117188 4.417969 C 58.1875 3.664062 60.441406 4.042969 62.132812 5.453125 C 63.074219 6.109375 63.730469 7.238281 63.921875 8.367188 Z M 63.921875 9.210938 "/>
<path style=" stroke:none;fill-rule:nonzero;fill:rgb(12.941176%,26.666667%,34.117647%);fill-opacity:1;" d="M 171.269531 30.550781 C 171.269531 33.464844 171.363281 37.035156 171.363281 40.515625 C 171.363281 40.984375 171.457031 40.984375 170.890625 40.984375 L 165.253906 41.265625 C 164.96875 41.265625 164.96875 41.265625 164.96875 40.984375 C 164.875 38.820312 164.875 36.660156 164.78125 34.496094 C 164.78125 32.992188 164.6875 31.394531 164.6875 29.890625 C 164.6875 28.199219 164.59375 26.601562 164.59375 24.910156 C 164.59375 23.59375 164.5 22.277344 164.5 21.054688 L 164.5 19.929688 C 164.5 19.644531 164.5 19.644531 164.78125 19.644531 C 165.628906 19.550781 166.472656 19.550781 167.320312 19.457031 L 170.890625 19.269531 L 170.984375 19.269531 C 171.363281 19.269531 171.363281 19.269531 171.363281 19.644531 C 171.175781 23.03125 171.175781 26.507812 171.269531 30.550781 Z M 171.269531 30.550781 "/>
<path style=" stroke:none;fill-rule:nonzero;fill:rgb(12.941176%,26.666667%,34.117647%);fill-opacity:1;" d="M 71.816406 22.371094 C 71.816406 22.277344 71.722656 22.277344 71.628906 22.277344 C 71.253906 22.089844 70.96875 21.621094 71.15625 21.242188 L 71.15625 20.492188 C 71.15625 20.117188 71.0625 20.117188 71.535156 20.117188 L 77.269531 20.117188 C 77.550781 20.117188 77.550781 20.117188 77.550781 20.398438 L 77.550781 41.828125 C 77.550781 42.394531 77.644531 42.300781 77.078125 42.300781 L 71.347656 42.300781 C 71.15625 42.300781 71.15625 42.300781 71.15625 42.113281 L 71.15625 39.574219 C 71.15625 39.480469 71.253906 39.292969 71.347656 39.292969 C 72.003906 38.632812 72.378906 37.789062 72.566406 36.941406 C 72.945312 35.71875 72.851562 34.402344 72.378906 33.183594 C 72.191406 32.617188 71.816406 32.148438 71.347656 31.773438 C 71.253906 31.679688 71.15625 31.585938 71.15625 31.394531 L 71.15625 23.40625 C 71.15625 23.21875 71.253906 23.125 71.347656 23.03125 C 71.535156 22.84375 71.628906 22.558594 71.816406 22.371094 Z M 71.816406 22.371094 "/>
<path style=" stroke:none;fill-rule:nonzero;fill:rgb(13.333333%,27.058824%,34.509804%);fill-opacity:1;" d="M 61.664062 18.988281 C 61.101562 18.894531 60.628906 18.800781 60.066406 18.707031 C 57.808594 18.425781 55.460938 18.988281 53.578125 20.398438 C 52.546875 21.242188 51.511719 22.183594 50.761719 23.3125 L 49.914062 24.441406 L 47.375 20.023438 C 48.316406 19.363281 49.160156 18.800781 50.101562 18.140625 C 51.042969 17.484375 50.761719 17.578125 51.980469 17.578125 C 52.546875 17.578125 53.109375 17.578125 53.675781 17.484375 C 54.332031 17.390625 54.894531 17.015625 55.367188 16.542969 C 55.648438 16.167969 56.117188 15.980469 56.589844 15.980469 C 57.996094 15.886719 59.40625 15.699219 60.816406 15.605469 C 61.007812 15.605469 61.101562 15.605469 61.101562 15.792969 C 61.289062 16.824219 61.476562 17.859375 61.664062 18.988281 Z M 61.664062 18.988281 "/>
<path style=" stroke:none;fill-rule:nonzero;fill:rgb(13.333333%,27.058824%,34.509804%);fill-opacity:1;" d="M 74.355469 17.109375 L 71.441406 17.109375 C 71.15625 17.109375 71.15625 17.109375 71.15625 16.824219 L 71.15625 11.75 C 71.15625 11.46875 71.15625 11.46875 71.441406 11.46875 L 77.269531 11.46875 C 77.550781 11.46875 77.550781 11.46875 77.550781 11.75 L 77.550781 16.824219 C 77.550781 17.109375 77.550781 17.109375 77.269531 17.109375 Z M 74.355469 17.109375 "/>
<path style=" stroke:none;fill-rule:nonzero;fill:rgb(13.333333%,27.058824%,34.509804%);fill-opacity:1;" d="M 167.976562 9.492188 C 169.011719 9.398438 170.046875 9.398438 171.078125 9.304688 C 171.269531 9.304688 171.269531 9.304688 171.269531 9.492188 L 171.269531 14.476562 C 171.269531 14.757812 171.269531 14.757812 170.984375 14.757812 C 170.140625 14.851562 169.199219 14.851562 168.355469 14.851562 C 167.226562 14.945312 166.097656 14.945312 165.0625 15.039062 C 164.78125 15.039062 164.78125 15.039062 164.6875 14.757812 C 164.6875 13.253906 164.59375 11.75 164.59375 10.152344 L 164.59375 9.871094 C 164.59375 9.683594 164.6875 9.683594 164.78125 9.683594 L 165.347656 9.683594 C 166.191406 9.589844 167.132812 9.589844 167.976562 9.492188 Z M 167.976562 9.492188 "/>
<path style=" stroke:none;fill-rule:nonzero;fill:rgb(16.078431%,29.019608%,36.470588%);fill-opacity:1;" d="M 279.367188 15.511719 C 279.554688 14.945312 279.742188 14.476562 279.933594 13.910156 C 280.027344 13.816406 279.933594 13.535156 280.121094 13.535156 C 280.308594 13.535156 280.496094 13.441406 280.683594 13.535156 C 280.871094 13.535156 280.777344 13.628906 280.777344 13.722656 L 280.777344 16.167969 L 280.683594 16.261719 C 280.214844 16.261719 280.214844 16.261719 280.214844 15.792969 L 280.214844 15.039062 L 280.121094 15.039062 C 280.027344 15.320312 279.839844 15.699219 279.742188 15.980469 C 279.742188 16.167969 279.554688 16.261719 279.367188 16.261719 C 279.367188 16.261719 279.273438 16.261719 279.273438 16.261719 C 279.179688 16.261719 278.992188 16.167969 278.992188 16.074219 C 278.804688 15.792969 278.710938 15.414062 278.617188 15.132812 C 278.617188 15.039062 278.617188 15.039062 278.523438 15.039062 L 278.523438 16.074219 C 278.523438 16.355469 278.523438 16.355469 278.238281 16.355469 C 278.050781 16.355469 277.957031 16.261719 277.957031 16.167969 L 277.957031 13.816406 C 277.957031 13.628906 277.957031 13.628906 278.144531 13.628906 C 278.710938 13.628906 278.710938 13.628906 278.804688 14.101562 C 278.992188 14.664062 279.179688 15.132812 279.367188 15.511719 Z M 279.367188 15.511719 "/>
<path style=" stroke:none;fill-rule:nonzero;fill:rgb(16.078431%,29.019608%,36.470588%);fill-opacity:1;" d="M 277.675781 14.101562 L 277.300781 14.101562 C 276.925781 14.101562 276.925781 14.101562 276.925781 14.476562 L 276.925781 16.074219 C 276.925781 16.261719 276.828125 16.355469 276.734375 16.355469 L 276.546875 16.355469 C 276.453125 16.355469 276.359375 16.355469 276.359375 16.167969 L 276.359375 14.757812 C 276.359375 14.570312 276.453125 14.382812 276.359375 14.195312 C 276.265625 14.007812 275.984375 14.195312 275.796875 14.101562 C 275.609375 14.101562 275.609375 14.007812 275.609375 13.910156 C 275.609375 13.535156 275.609375 13.535156 275.984375 13.535156 C 276.546875 13.535156 277.019531 13.535156 277.582031 13.441406 C 277.863281 13.441406 277.863281 13.441406 277.863281 13.722656 L 277.863281 13.910156 Z M 277.675781 14.101562 "/>
</g>
</svg>
