<svg width="24" height="32" viewBox="0 0 24 32" fill="none" xmlns="http://www.w3.org/2000/svg">
<g clip-path="url(#clip0_5782_869)">
<path d="M11.588 0C8.51565 0.00317666 5.57004 1.22507 3.39756 3.39756C1.22508 5.57004 0.00317666 8.51565 0 11.588C0 19.517 10.37 31.158 10.811 31.65C10.9089 31.7589 11.0286 31.8461 11.1624 31.9057C11.2962 31.9653 11.441 31.9962 11.5875 31.9962C11.734 31.9962 11.8788 31.9653 12.0126 31.9057C12.1464 31.8461 12.2661 31.7589 12.364 31.65C12.806 31.158 23.175 19.517 23.175 11.588C23.1718 8.51582 21.9501 5.57036 19.7778 3.39791C17.6055 1.22545 14.6602 0.00344132 11.588 0ZM11.588 17.418C10.4349 17.418 9.30777 17.0761 8.34903 16.4355C7.39029 15.7949 6.64304 14.8843 6.20178 13.819C5.76052 12.7538 5.64507 11.5815 5.87003 10.4506C6.09498 9.31971 6.65023 8.28091 7.46557 7.46557C8.28091 6.65023 9.31971 6.09497 10.4506 5.87002C11.5815 5.64507 12.7538 5.76052 13.819 6.20178C14.8843 6.64304 15.7949 7.39029 16.4355 8.34903C17.0761 9.30776 17.418 10.4349 17.418 11.588C17.4161 13.1336 16.8013 14.6155 15.7084 15.7084C14.6155 16.8013 13.1336 17.4161 11.588 17.418Z" fill="#AAAAAA"/>
</g>
<defs>
<clipPath id="clip0_5782_869">
<rect width="23.175" height="31.996" fill="white"/>
</clipPath>
</defs>
</svg>
