<svg width="32" height="32" viewBox="0 0 32 32" fill="none" xmlns="http://www.w3.org/2000/svg">
<g clip-path="url(#clip0_5782_873)">
<path d="M32 16C32 20.2434 30.3143 24.3131 27.3137 27.3137C24.3131 30.3143 20.2435 32 16 32C11.7565 32 7.68687 30.3143 4.68629 27.3137C1.68571 24.3131 0 20.2434 0 16C-3.16314e-09 15.8499 0.0295645 15.7012 0.0870056 15.5626C0.144447 15.4239 0.22864 15.2979 0.334777 15.1917C0.440914 15.0856 0.566918 15.0014 0.705593 14.944C0.844268 14.8865 0.992899 14.857 1.143 14.857C1.2931 14.857 1.44173 14.8865 1.58041 14.944C1.71908 15.0014 1.84509 15.0856 1.95122 15.1917C2.05736 15.2979 2.14155 15.4239 2.19899 15.5626C2.25644 15.7012 2.286 15.8499 2.286 16C2.28161 19.0606 3.29964 22.0351 5.17851 24.4512C7.05737 26.8673 9.68942 28.5867 12.6569 29.3363C15.6243 30.086 18.7571 29.823 21.5581 28.5891C24.359 27.3552 26.6676 25.2212 28.1174 22.5256C29.5672 19.8301 30.0751 16.7275 29.5605 13.7104C29.0459 10.6933 27.5383 7.93453 25.277 5.87194C23.0157 3.80935 20.1303 2.56115 17.0787 2.32546C14.0271 2.08976 10.9842 2.88008 8.433 4.57097H9.142C9.44514 4.57097 9.73587 4.69139 9.95022 4.90575C10.1646 5.1201 10.285 5.41083 10.285 5.71397C10.285 6.01711 10.1646 6.30784 9.95022 6.5222C9.73587 6.73655 9.44514 6.85697 9.142 6.85697H5.714C5.56386 6.8571 5.41517 6.82763 5.27644 6.77023C5.1377 6.71284 5.01165 6.62865 4.90548 6.52249C4.79932 6.41632 4.71513 6.29027 4.65774 6.15153C4.60034 6.0128 4.57087 5.86411 4.571 5.71397V2.28597C4.571 1.98283 4.69142 1.6921 4.90578 1.47775C5.12013 1.26339 5.41086 1.14297 5.714 1.14297C6.01714 1.14297 6.30787 1.26339 6.52222 1.47775C6.73658 1.6921 6.857 1.98283 6.857 2.28597V2.87297C9.25593 1.20254 12.0666 0.221226 14.984 0.0355941C17.9013 -0.150038 20.8137 0.467103 23.405 1.82001C25.9963 3.17291 28.1675 5.20987 29.6827 7.70972C31.198 10.2096 31.9994 13.0768 32 16ZM26.286 16C26.286 18.0343 25.6827 20.023 24.5525 21.7146C23.4223 23.4061 21.8158 24.7245 19.9363 25.503C18.0568 26.2815 15.9886 26.4852 13.9933 26.0883C11.998 25.6914 10.1652 24.7118 8.7267 23.2733C7.28818 21.8347 6.30853 20.002 5.91164 18.0067C5.51475 16.0114 5.71845 13.9432 6.49697 12.0637C7.2755 10.1842 8.59388 8.57772 10.2854 7.44748C11.9769 6.31724 13.9656 5.71397 16 5.71397C18.728 5.71397 21.3443 6.79767 23.2733 8.72667C25.2023 10.6557 26.286 13.272 26.286 16ZM20.063 17.335L17.143 15.389V10.289C17.143 9.98583 17.0226 9.6951 16.8082 9.48075C16.5939 9.26639 16.3031 9.14597 16 9.14597C15.6969 9.14597 15.4061 9.26639 15.1918 9.48075C14.9774 9.6951 14.857 9.98583 14.857 10.289V16C14.857 16.1881 14.9035 16.3734 14.9923 16.5393C15.0811 16.7052 15.2094 16.8466 15.366 16.951L18.795 19.237C18.9195 19.3273 19.061 19.3916 19.211 19.4259C19.361 19.4603 19.5164 19.464 19.6678 19.4368C19.8193 19.4097 19.9637 19.3522 20.0924 19.2679C20.2211 19.1836 20.3315 19.0742 20.4169 18.9462C20.5023 18.8183 20.561 18.6744 20.5894 18.5232C20.6179 18.3719 20.6155 18.2166 20.5825 18.0663C20.5494 17.916 20.4864 17.774 20.3971 17.6486C20.3079 17.5233 20.1942 17.4173 20.063 17.337V17.335Z" fill="#AAAAAA"/>
</g>
<defs>
<clipPath id="clip0_5782_873">
<rect width="32" height="32" fill="white"/>
</clipPath>
</defs>
</svg>
