<svg width="40" height="40" viewBox="0 0 40 40" fill="none" xmlns="http://www.w3.org/2000/svg">
<g clip-path="url(#clip0_5782_891)">
<path fill-rule="evenodd" clip-rule="evenodd" d="M19.5392 32.2519C17.0248 32.2519 14.5669 31.5063 12.4762 30.1094C10.3856 28.7125 8.75612 26.727 7.7939 24.404C6.83169 22.081 6.57992 19.5248 7.07045 17.0588C7.56099 14.5927 8.77179 12.3274 10.5497 10.5495C12.3277 8.77154 14.5929 7.56074 17.059 7.07021C19.5251 6.57967 22.0813 6.83144 24.4043 7.79366C26.7273 8.75587 28.7127 10.3853 30.1097 12.476C31.5066 14.5666 32.2522 17.0246 32.2522 19.539C32.2482 22.9094 30.9075 26.1407 28.5242 28.524C26.141 30.9073 22.9097 32.248 19.5392 32.2519Z" fill="#AAAAAA"/>
<path fill-rule="evenodd" clip-rule="evenodd" d="M19.5434 4.89995C19.4643 4.90116 19.3857 4.88647 19.3124 4.85675C19.239 4.82703 19.1724 4.78288 19.1165 4.72692C19.0605 4.67096 19.0164 4.60433 18.9866 4.53099C18.9569 4.45764 18.9422 4.37908 18.9434 4.29995V0.599948C18.945 0.441302 19.0087 0.289596 19.1209 0.177411C19.2331 0.0652266 19.3848 0.00151065 19.5434 -5.24689e-05C19.6225 -0.00126693 19.7011 0.0134229 19.7745 0.0431458C19.8478 0.0728686 19.9144 0.117019 19.9704 0.172978C20.0264 0.228937 20.0705 0.295564 20.1002 0.368908C20.13 0.442252 20.1447 0.520819 20.1434 0.599948V4.30595C20.1457 4.38507 20.1317 4.46382 20.1022 4.5373C20.0728 4.61079 20.0286 4.67744 19.9723 4.73313C19.916 4.78882 19.849 4.83237 19.7752 4.86106C19.7014 4.88976 19.6225 4.90299 19.5434 4.89995Z" fill="#AAAAAA"/>
<path fill-rule="evenodd" clip-rule="evenodd" d="M27.1704 6.94202C27.0663 6.94393 26.9633 6.92023 26.8705 6.87301C26.8021 6.83636 26.7417 6.78636 26.693 6.72597C26.6443 6.66557 26.6081 6.59602 26.5868 6.52142C26.5654 6.44683 26.5593 6.36871 26.5687 6.29169C26.5781 6.21466 26.6028 6.1403 26.6415 6.07301L28.5194 2.84302C28.556 2.77453 28.606 2.71408 28.6664 2.66529C28.7268 2.61649 28.7963 2.58035 28.871 2.55898C28.9456 2.53762 29.0238 2.53148 29.1008 2.54093C29.1779 2.55038 29.2522 2.57524 29.3195 2.61401C29.3879 2.65396 29.4477 2.7072 29.4952 2.77058C29.5428 2.83397 29.5771 2.90623 29.5963 2.98311C29.6155 3.05998 29.6191 3.13992 29.6069 3.21822C29.5948 3.29652 29.5671 3.37159 29.5255 3.43902L27.6704 6.64201C27.6235 6.73378 27.5518 6.81055 27.4634 6.86358C27.375 6.91661 27.2735 6.94378 27.1704 6.94202Z" fill="#AAAAAA"/>
<path fill-rule="evenodd" clip-rule="evenodd" d="M32.7338 12.53C32.6311 12.5298 32.5305 12.5018 32.4425 12.449C32.3545 12.3961 32.2823 12.3205 32.2338 12.23C32.1563 12.0922 32.1344 11.93 32.1727 11.7766C32.2111 11.6232 32.3066 11.4902 32.4398 11.405L35.6698 9.55003C35.7371 9.5114 35.8115 9.48666 35.8886 9.47728C35.9656 9.4679 36.0437 9.47405 36.1183 9.49541C36.1929 9.51676 36.2624 9.55286 36.3228 9.60158C36.3832 9.65029 36.4332 9.71065 36.4699 9.77904C36.5466 9.91293 36.5679 10.0715 36.5294 10.2209C36.491 10.3703 36.3956 10.4988 36.2638 10.579L33.0338 12.434C32.9482 12.5003 32.842 12.5343 32.7338 12.53Z" fill="#AAAAAA"/>
<path fill-rule="evenodd" clip-rule="evenodd" d="M38.5058 20.135H34.7758C34.6967 20.1362 34.6182 20.1216 34.5449 20.0919C34.4715 20.0621 34.4048 20.0179 34.3488 19.962C34.2929 19.906 34.2488 19.8394 34.2191 19.7661C34.1893 19.6927 34.1746 19.6142 34.1759 19.535C34.1774 19.3764 34.2412 19.2247 34.3533 19.1125C34.4655 19.0003 34.6172 18.9366 34.7758 18.9351H38.5098C38.6685 18.9366 38.8203 19.0003 38.9324 19.1125C39.0446 19.2247 39.1082 19.3764 39.1098 19.535C39.111 19.6145 39.0963 19.6934 39.0664 19.767C39.0364 19.8406 38.9918 19.9074 38.9354 19.9634C38.879 20.0195 38.8119 20.0635 38.7381 20.093C38.6643 20.1225 38.5853 20.1368 38.5058 20.135Z" fill="#AAAAAA"/>
<path fill-rule="evenodd" clip-rule="evenodd" d="M35.9628 29.6189C35.8551 29.6242 35.749 29.5917 35.6628 29.527L32.4328 27.6709C32.3009 27.5907 32.2056 27.4623 32.1671 27.3129C32.1287 27.1634 32.15 27.0049 32.2267 26.871C32.2634 26.8026 32.3134 26.7422 32.3738 26.6935C32.4342 26.6448 32.5038 26.6086 32.5784 26.5873C32.653 26.5659 32.7311 26.5598 32.8081 26.5692C32.8852 26.5786 32.9595 26.6033 33.0268 26.642L36.2567 28.5199C36.3886 28.6001 36.4839 28.7286 36.5224 28.8781C36.5609 29.0275 36.5395 29.1861 36.4628 29.3199C36.4141 29.4102 36.342 29.4857 36.2539 29.5383C36.1659 29.591 36.0654 29.6187 35.9628 29.6189Z" fill="#AAAAAA"/>
<path fill-rule="evenodd" clip-rule="evenodd" d="M29.0234 36.559C28.9208 36.5587 28.8201 36.5307 28.732 36.4779C28.644 36.4251 28.5719 36.3494 28.5234 36.2589L26.6454 33.0289C26.6067 32.9616 26.582 32.8873 26.5726 32.8103C26.5632 32.7333 26.5694 32.6552 26.5908 32.5806C26.6121 32.506 26.6483 32.4364 26.697 32.376C26.7457 32.3156 26.806 32.2657 26.8744 32.229C27.0083 32.1523 27.1668 32.1308 27.3163 32.1693C27.4657 32.2078 27.5942 32.3031 27.6744 32.4349L29.5304 35.6649C29.5709 35.7306 29.5978 35.8037 29.6093 35.88C29.6209 35.9563 29.617 36.0341 29.5978 36.1088C29.5785 36.1835 29.5444 36.2536 29.4974 36.3148C29.4504 36.376 29.3916 36.4271 29.3244 36.465C29.2369 36.5279 29.1313 36.5609 29.0234 36.559Z" fill="#AAAAAA"/>
<path fill-rule="evenodd" clip-rule="evenodd" d="M19.5433 39.101C19.3847 39.0995 19.233 39.0357 19.1208 38.9235C19.0087 38.8113 18.9449 38.6596 18.9434 38.5009V34.7759C18.9449 34.6173 19.0087 34.4656 19.1208 34.3535C19.233 34.2413 19.3847 34.1775 19.5433 34.176C19.6225 34.1748 19.7011 34.1895 19.7744 34.2192C19.8478 34.2489 19.9144 34.293 19.9703 34.3489C20.0263 34.4049 20.0704 34.4716 20.1002 34.545C20.1299 34.6183 20.1446 34.6968 20.1434 34.7759V38.51C20.1434 38.5883 20.1278 38.6659 20.0975 38.7382C20.0673 38.8105 20.0229 38.8761 19.9671 38.9311C19.9113 38.9861 19.845 39.0294 19.7723 39.0585C19.6995 39.0877 19.6217 39.1022 19.5433 39.101Z" fill="#AAAAAA"/>
<path fill-rule="evenodd" clip-rule="evenodd" d="M10.0826 36.5591C9.97491 36.5645 9.86874 36.5319 9.78257 36.4671C9.71418 36.4304 9.65386 36.3804 9.60514 36.32C9.55643 36.2596 9.52032 36.1901 9.49897 36.1155C9.47762 36.0409 9.47143 35.9628 9.48081 35.8858C9.49019 35.8088 9.51493 35.7343 9.55357 35.6671L11.4086 32.4371C11.4491 32.3692 11.5026 32.3101 11.5661 32.263C11.6295 32.2159 11.7016 32.1819 11.7783 32.1628C11.855 32.1436 11.9346 32.1398 12.0128 32.1515C12.0909 32.1633 12.1659 32.1903 12.2336 32.2311C12.3654 32.3113 12.4607 32.4399 12.4992 32.5893C12.5377 32.7387 12.5163 32.8972 12.4396 33.0311L10.5846 36.2612C10.5332 36.3495 10.4601 36.4231 10.3723 36.4753C10.2844 36.5274 10.1847 36.5563 10.0826 36.5591Z" fill="#AAAAAA"/>
<path fill-rule="evenodd" clip-rule="evenodd" d="M3.1415 29.6189C3.03561 29.6168 2.93192 29.5883 2.83988 29.5359C2.74784 29.4835 2.67036 29.409 2.6145 29.319C2.57573 29.2517 2.55087 29.1773 2.54142 29.1002C2.53196 29.0232 2.53811 28.945 2.55947 28.8704C2.58083 28.7957 2.61698 28.7261 2.66578 28.6658C2.71457 28.6054 2.77502 28.5555 2.8435 28.5189L6.07351 26.641C6.1408 26.6024 6.21515 26.5776 6.29217 26.5682C6.3692 26.5589 6.44731 26.5649 6.52191 26.5863C6.59651 26.6077 6.66606 26.6438 6.72645 26.6925C6.78685 26.7412 6.83685 26.8016 6.8735 26.87C6.9502 27.0039 6.97158 27.1623 6.9331 27.3118C6.89463 27.4612 6.79933 27.5897 6.6675 27.6699L3.43751 29.526C3.35104 29.5873 3.24748 29.6197 3.1415 29.6189Z" fill="#AAAAAA"/>
<path fill-rule="evenodd" clip-rule="evenodd" d="M4.30607 20.135H0.60007C0.520941 20.1362 0.442375 20.1215 0.36903 20.0918C0.295686 20.0621 0.229059 20.0179 0.1731 19.9619C0.117141 19.906 0.0729907 19.8393 0.0432678 19.766C0.013545 19.6927 -0.00114486 19.6141 6.96014e-05 19.535C0.00163272 19.3763 0.0653487 19.2246 0.177533 19.1124C0.289718 19.0003 0.441424 18.9366 0.60007 18.935H4.30607C4.3852 18.9338 4.46376 18.9484 4.53711 18.9782C4.61045 19.0079 4.67708 19.052 4.73304 19.108C4.789 19.1639 4.83315 19.2306 4.86287 19.304C4.89259 19.3773 4.90728 19.4559 4.90607 19.535C4.90916 19.6146 4.89576 19.694 4.8667 19.7682C4.83764 19.8424 4.79356 19.9098 4.73721 19.9661C4.68087 20.0225 4.61348 20.0665 4.53929 20.0956C4.46509 20.1246 4.38569 20.1381 4.30607 20.135Z" fill="#AAAAAA"/>
<path fill-rule="evenodd" clip-rule="evenodd" d="M6.36755 12.53C6.25987 12.5353 6.15371 12.5028 6.06755 12.438L2.84155 10.582C2.77306 10.5454 2.71262 10.4955 2.66382 10.4351C2.61503 10.3747 2.57888 10.3051 2.55752 10.2305C2.53615 10.1559 2.53001 10.0777 2.53947 10.0006C2.54892 9.92359 2.57377 9.84921 2.61255 9.78195C2.65115 9.71222 2.70327 9.65088 2.76584 9.6015C2.82842 9.55213 2.90021 9.51571 2.97701 9.49439C3.05382 9.47307 3.1341 9.46727 3.21317 9.47733C3.29224 9.48738 3.36853 9.51309 3.43755 9.55295L6.66755 11.408C6.80057 11.4933 6.89597 11.6262 6.93426 11.7796C6.97255 11.9329 6.95083 12.0951 6.87355 12.233C6.81976 12.3199 6.74555 12.3924 6.65737 12.4442C6.56919 12.4959 6.4697 12.5254 6.36755 12.53Z" fill="#AAAAAA"/>
<path fill-rule="evenodd" clip-rule="evenodd" d="M11.9331 6.94194C11.8292 6.94456 11.7263 6.9207 11.6341 6.8726C11.5419 6.82449 11.4634 6.75371 11.4061 6.66694L9.55114 3.43694C9.51128 3.36792 9.48554 3.29163 9.47549 3.21256C9.46544 3.13349 9.47126 3.05321 9.49258 2.9764C9.5139 2.8996 9.55029 2.82781 9.59967 2.76523C9.64904 2.70266 9.71038 2.65054 9.78012 2.61194C9.84737 2.57316 9.92175 2.54831 9.99881 2.53886C10.0759 2.5294 10.154 2.53554 10.2287 2.55691C10.3033 2.57827 10.3729 2.61442 10.4333 2.66321C10.4936 2.71201 10.5436 2.77245 10.5801 2.84094L12.4351 6.07094C12.5118 6.20483 12.5332 6.36338 12.4947 6.51281C12.4563 6.66224 12.3609 6.79074 12.2291 6.87094C12.1368 6.91585 12.0358 6.94008 11.9331 6.94194Z" fill="#AAAAAA"/>
<path fill-rule="evenodd" clip-rule="evenodd" d="M23.8459 26.7551C23.7741 26.762 23.7019 26.7459 23.6399 26.7091L19.5399 25.1281L15.4629 26.7091C15.3698 26.7492 15.2678 26.7639 15.1671 26.7518C15.0665 26.7397 14.9708 26.7012 14.8899 26.6401C14.8102 26.5851 14.7468 26.5096 14.7065 26.4216C14.6662 26.3336 14.6504 26.2363 14.6609 26.1401L14.9129 21.7651L12.1179 18.3751C12.0578 18.2939 12.0181 18.1994 12.0021 18.0997C11.9861 18 11.9942 17.898 12.0259 17.8021C12.0562 17.7078 12.1099 17.6226 12.1819 17.5546C12.254 17.4866 12.342 17.4379 12.4379 17.413L16.6759 16.3131L19.0579 12.6021C19.1107 12.5232 19.1823 12.4589 19.2664 12.4149C19.3504 12.3708 19.444 12.3485 19.5389 12.35C19.6363 12.3489 19.7326 12.3712 19.8196 12.415C19.9067 12.4589 19.9818 12.5231 20.0389 12.6021L22.4209 16.3131L26.6589 17.413C26.753 17.4415 26.8393 17.4915 26.9108 17.559C26.9823 17.6265 27.0371 17.7097 27.0709 17.8021C27.1044 17.8992 27.1113 18.0034 27.0911 18.1041C27.0709 18.2048 27.0242 18.2984 26.9559 18.3751L24.1839 21.7651L24.4359 26.1401C24.437 26.2375 24.4146 26.3337 24.3708 26.4207C24.3269 26.5077 24.2628 26.583 24.1839 26.6401C24.0901 26.7203 23.9691 26.7614 23.8459 26.7551Z" fill="#AAAAAA"/>
</g>
<defs>
<clipPath id="clip0_5782_891">
<rect width="39.101" height="39.101" fill="white"/>
</clipPath>
</defs>
</svg>
