<svg width="32" height="32" viewBox="0 0 32 32" fill="none" xmlns="http://www.w3.org/2000/svg">
<g clip-path="url(#clip0_5782_906)">
<path d="M16 0C12.8355 0 9.74207 0.938384 7.11088 2.69649C4.4797 4.45459 2.42894 6.95345 1.21793 9.87706C0.0069325 12.8007 -0.309921 16.0177 0.307443 19.1214C0.924806 22.2251 2.44866 25.0761 4.6863 27.3137C6.92394 29.5513 9.77487 31.0752 12.8786 31.6926C15.9823 32.3099 19.1993 31.9931 22.1229 30.7821C25.0466 29.5711 27.5454 27.5203 29.3035 24.8891C31.0616 22.2579 32 19.1645 32 16C32 11.7565 30.3143 7.68687 27.3137 4.68629C24.3131 1.68571 20.2435 0 16 0ZM16 4.874C17.1357 4.874 18.2458 5.21076 19.1901 5.8417C20.1344 6.47264 20.8703 7.36942 21.3049 8.41863C21.7395 9.46784 21.8532 10.6224 21.6317 11.7362C21.4101 12.85 20.8632 13.8732 20.0602 14.6762C19.2572 15.4792 18.2341 16.0261 17.1202 16.2477C16.0064 16.4692 14.8519 16.3555 13.8026 15.9209C12.7534 15.4863 11.8566 14.7504 11.2257 13.8061C10.5948 12.8618 10.258 11.7517 10.258 10.616C10.258 9.09313 10.863 7.63263 11.9398 6.55579C13.0166 5.47896 14.4771 4.874 16 4.874ZM16 28.5C14.0361 28.5013 12.0997 28.0393 10.348 27.1514C8.59633 26.2635 7.07888 24.9748 5.91901 23.39C6.16048 21.9274 6.71719 20.5348 7.55053 19.3088C8.38386 18.0828 9.47388 17.0527 10.745 16.29C11.4327 16.9804 12.2524 17.5251 13.1553 17.8916C14.0582 18.2581 15.0257 18.4388 16 18.423C16.9739 18.4389 17.9411 18.2586 18.8437 17.8926C19.7464 17.5267 20.5661 16.9826 21.254 16.293C22.5244 17.0565 23.6138 18.0868 24.4469 19.3126C25.28 20.5385 25.8369 21.9307 26.079 23.393C24.9191 24.977 23.4019 26.2651 21.6506 27.1525C19.8993 28.0399 17.9633 28.5015 16 28.5Z" fill="#AAAAAA"/>
</g>
<defs>
<clipPath id="clip0_5782_906">
<rect width="31.996" height="31.996" fill="white"/>
</clipPath>
</defs>
</svg>
