<svg width="31" height="31" viewBox="0 0 31 31" fill="none" xmlns="http://www.w3.org/2000/svg">
<g clip-path="url(#clip0_5782_876)">
<mask id="mask0_5782_876" style="mask-type:luminance" maskUnits="userSpaceOnUse" x="0" y="0" width="32" height="32">
<path d="M0 0H31.008V31.008H0V0Z" fill="white"/>
</mask>
<g mask="url(#mask0_5782_876)">
<path d="M8.47852 8.23605C8.47852 6.37291 9.21865 4.58607 10.5361 3.26863C11.8535 1.95119 13.6404 1.21106 15.5035 1.21106C17.3667 1.21106 19.1535 1.95119 20.4709 3.26863C21.7884 4.58607 22.5285 6.37291 22.5285 8.23605C22.5285 10.0992 21.7884 11.886 20.4709 13.2035C19.1535 14.5209 17.3667 15.2611 15.5035 15.2611C13.6404 15.2611 11.8535 14.5209 10.5361 13.2035C9.21865 11.886 8.47852 10.0992 8.47852 8.23605Z" stroke="#AAAAAA" stroke-width="2.5"/>
<path d="M13.1424 29.7971H3.67734C3.31012 29.7964 2.94769 29.7138 2.61643 29.5553C2.28516 29.3969 1.99343 29.1665 1.76245 28.881C1.53148 28.5955 1.36707 28.2621 1.28125 27.9051C1.19543 27.548 1.19036 27.1763 1.26636 26.8171C1.95164 23.5478 3.74091 20.6139 6.33374 18.508C8.92657 16.4021 12.1651 15.2524 15.5054 15.2521C17.977 15.2483 20.4085 15.8772 22.5683 17.0791" stroke="#AAAAAA" stroke-width="2.5"/>
<path d="M27.0117 19.0161L29.2607 21.2401C29.43 21.4075 29.5645 21.6068 29.6562 21.8266C29.7479 22.0463 29.7952 22.282 29.7952 22.5201C29.7952 22.7582 29.7479 22.9939 29.6562 23.2137C29.5645 23.4334 29.43 23.6327 29.2607 23.8001L27.0117 26.0411" stroke="#AAAAAA" stroke-width="2.5"/>
<path d="M28.9488 22.4701H20.8028C20.3216 22.47 19.8452 22.5646 19.4007 22.7486C18.9562 22.9327 18.5522 23.2025 18.212 23.5426C17.8717 23.8828 17.6018 24.2866 17.4177 24.7311C17.2335 25.1756 17.1388 25.652 17.1388 26.1331C17.1355 26.6126 17.227 27.088 17.4081 27.532C17.5892 27.9761 17.8563 28.3799 18.194 28.7203C18.5317 29.0607 18.9334 29.331 19.376 29.5156C19.8186 29.7003 20.2932 29.7956 20.7728 29.7961" stroke="#AAAAAA" stroke-width="2.5"/>
</g>
</g>
<defs>
<clipPath id="clip0_5782_876">
<rect width="31.008" height="31.008" fill="white"/>
</clipPath>
</defs>
</svg>
