<svg width="32" height="29" viewBox="0 0 32 29" fill="none" xmlns="http://www.w3.org/2000/svg">
<g clip-path="url(#clip0_5782_908)">
<path d="M0.935698 22.499H25.4357C25.6549 22.4989 25.8672 22.4221 26.0357 22.282C26.2707 22.082 31.6357 17.467 31.9657 7.5H5.6537C5.3277 16.548 0.384698 20.8 0.332698 20.843C0.186194 20.9669 0.0811534 21.1327 0.0317128 21.318C-0.0177279 21.5034 -0.00919572 21.6995 0.0561611 21.8799C0.121518 22.0603 0.240563 22.2163 0.397274 22.327C0.553986 22.4377 0.740843 22.4977 0.932698 22.499H0.935698Z" fill="#AAAAAA"/>
<path d="M31.0596 1.87499H26.3726V0.937988C26.3726 0.689348 26.2738 0.450891 26.098 0.275076C25.9222 0.0992606 25.6837 0.000488281 25.4351 0.000488281C25.1865 0.000488281 24.948 0.0992606 24.7722 0.275076C24.5964 0.450891 24.4976 0.689348 24.4976 0.937988V1.87499H19.7476V0.937988C19.7476 0.689348 19.6488 0.450891 19.473 0.275076C19.2972 0.0992606 19.0587 0.000488281 18.8101 0.000488281C18.5615 0.000488281 18.323 0.0992606 18.1472 0.275076C17.9714 0.450891 17.8726 0.689348 17.8726 0.937988V1.87499H13.1856V0.937988C13.1856 0.689348 13.0868 0.450891 12.911 0.275076C12.7352 0.0992606 12.4967 0.000488281 12.2481 0.000488281C11.9995 0.000488281 11.761 0.0992606 11.5852 0.275076C11.4094 0.450891 11.3106 0.689348 11.3106 0.937988V1.87499H6.6226C6.49921 1.87378 6.37683 1.8972 6.2626 1.94386C6.14838 1.99053 6.04461 2.0595 5.95736 2.14675C5.87011 2.234 5.80113 2.33777 5.75447 2.45199C5.70781 2.56622 5.68439 2.6886 5.68559 2.81199V5.62399H31.9966V2.81199C31.9978 2.6886 31.9744 2.56622 31.9277 2.45199C31.8811 2.33777 31.8121 2.234 31.7248 2.14675C31.6376 2.0595 31.5338 1.99053 31.4196 1.94386C31.3054 1.8972 31.183 1.87378 31.0596 1.87499Z" fill="#AAAAAA"/>
<path d="M27.2395 23.72C26.7343 24.1416 26.0976 24.3733 25.4396 24.375H5.68555V27.187C5.68542 27.3101 5.70955 27.4321 5.75658 27.5459C5.80361 27.6597 5.87261 27.7631 5.95963 27.8502C6.04665 27.9373 6.14999 28.0064 6.26374 28.0536C6.37749 28.1007 6.49942 28.125 6.62255 28.125H31.0585C31.3071 28.125 31.5454 28.0263 31.7211 27.8506C31.8968 27.6748 31.9956 27.4365 31.9956 27.188V16.678C30.9755 19.3612 29.3476 21.7716 27.2395 23.72Z" fill="#AAAAAA"/>
</g>
<defs>
<clipPath id="clip0_5782_908">
<rect width="31.997" height="28.124" fill="white"/>
</clipPath>
</defs>
</svg>
