<svg width="32" height="32" viewBox="0 0 32 32" fill="none" xmlns="http://www.w3.org/2000/svg">
<g clip-path="url(#clip0_5782_913)">
<path d="M29.8161 26.1811H24.7251C23.1821 26.1811 21.7022 25.5681 20.6111 24.477C19.5201 23.3859 18.9071 21.9061 18.9071 20.3631C18.9071 18.8201 19.5201 17.3402 20.6111 16.2491C21.7022 15.1581 23.1821 14.5451 24.7251 14.5451H29.8161C30.0089 14.5451 30.1938 14.4685 30.3302 14.3322C30.4665 14.1958 30.5431 14.0109 30.5431 13.8181V11.6361C30.5417 10.9065 30.2654 10.2042 29.7692 9.66932C29.2731 9.13442 28.5935 8.80619 27.8661 8.75009L23.6891 1.45009C23.5005 1.12006 23.2484 0.83066 22.9474 0.598599C22.6463 0.366537 22.3023 0.196411 21.9351 0.0980425C21.5679 -0.000326067 21.1849 -0.0249879 20.8082 0.025481C20.4314 0.0759498 20.0684 0.200549 19.7401 0.392086L5.42309 8.72709H2.90809C2.1363 8.72709 1.39608 9.03347 0.850059 9.57893C0.304039 10.1244 -0.00311114 10.8643 -0.00390625 11.6361L-0.00390625 29.0901C-0.00337605 29.862 0.303657 30.6022 0.849706 31.1479C1.39575 31.6936 2.13613 32.0001 2.90809 32.0001H27.6341C28.4054 31.9993 29.1448 31.6926 29.6902 31.1472C30.2356 30.6018 30.5423 29.8624 30.5431 29.0911V26.9081C30.5431 26.7153 30.4665 26.5304 30.3302 26.394C30.1938 26.2577 30.0089 26.1811 29.8161 26.1811ZM24.5911 5.96009L26.1761 8.72809H19.8371L24.5911 5.96009ZM8.31309 8.72709L20.4721 1.64909C20.6333 1.5541 20.8119 1.49226 20.9974 1.46719C21.1828 1.44212 21.3714 1.45432 21.5521 1.50309C21.7353 1.55184 21.907 1.63665 22.0571 1.75255C22.2072 1.86845 22.3326 2.01312 22.4261 2.17809L11.1841 8.72709H8.31309Z" fill="#AAAAAA"/>
<path d="M29.8158 16H24.7248C23.5676 16 22.4577 16.4597 21.6394 17.278C20.8211 18.0964 20.3613 19.2062 20.3613 20.3635C20.3613 21.5208 20.8211 22.6306 21.6394 23.449C22.4577 24.2673 23.5676 24.727 24.7248 24.727H29.8158C30.3944 24.7265 30.9491 24.4964 31.3582 24.0873C31.7672 23.6782 31.9973 23.1235 31.9978 22.545V18.182C31.9973 17.6035 31.7672 17.0488 31.3582 16.6397C30.9491 16.2306 30.3944 16.0005 29.8158 16ZM24.7248 21.818C24.4372 21.818 24.1561 21.7327 23.917 21.573C23.6779 21.4132 23.4916 21.1861 23.3815 20.9204C23.2715 20.6547 23.2427 20.3624 23.2988 20.0803C23.3549 19.7983 23.4933 19.5392 23.6967 19.3359C23.9 19.1325 24.1591 18.994 24.4412 18.9379C24.7232 18.8818 25.0156 18.9106 25.2812 19.0207C25.5469 19.1307 25.774 19.3171 25.9338 19.5562C26.0935 19.7953 26.1788 20.0764 26.1788 20.364C26.1783 20.7495 26.0249 21.119 25.7524 21.3916C25.4798 21.6641 25.1103 21.8175 24.7248 21.818Z" fill="#AAAAAA"/>
</g>
<defs>
<clipPath id="clip0_5782_913">
<rect width="31.998" height="31.999" fill="white"/>
</clipPath>
</defs>
</svg>
