<svg width="503" height="331" viewBox="0 0 503 331" fill="none" xmlns="http://www.w3.org/2000/svg">
<path d="M224.774 312.279C223.372 313.105 220.222 313.976 216.107 313.976C204.451 313.976 198.428 305.487 198.428 294.245C198.428 280.778 206.635 273.275 216.843 273.275C220.797 273.275 223.809 274.216 225.165 275.042L223.602 282.131C222.039 281.374 219.9 280.663 217.188 280.663C211.118 280.663 206.428 284.93 206.428 293.718C206.428 301.633 210.429 306.612 217.234 306.612C219.533 306.612 222.085 306.015 223.602 305.327L224.774 312.279Z" fill="#9FE870"/>
<path d="M259.168 293.236C259.168 306.176 252.454 314.022 242.592 314.022C232.568 314.022 226.729 305.166 226.729 293.924C226.729 282.086 233.189 273.252 243.143 273.252C253.512 273.275 259.168 282.338 259.168 293.236ZM234.775 293.764C234.775 301.495 237.879 306.933 242.983 306.933C248.132 306.933 251.098 301.197 251.098 293.511C251.098 286.422 248.201 280.342 242.937 280.342C237.787 280.365 234.775 286.101 234.775 293.764Z" fill="#9FE870"/>
<path d="M292.71 298.284C292.549 293.534 292.411 287.799 292.411 282.063H292.25C291.193 287.11 289.791 292.731 288.503 297.343L284.388 312.761H278.433L274.824 297.481C273.72 292.846 272.571 287.225 271.766 282.063H271.674C271.467 287.386 271.329 293.488 271.077 298.398L270.479 313.403H263.421L265.582 273.918H275.744L279.054 287.087C280.112 291.653 281.146 296.586 281.905 301.197H282.066C283.008 296.632 284.158 291.424 285.261 287.018L288.871 273.895H298.826L300.688 313.38H293.216L292.71 298.284Z" fill="#9FE870"/>
<path d="M335.058 298.284C334.897 293.534 334.759 287.799 334.759 282.063H334.598C333.541 287.11 332.138 292.731 330.851 297.343L326.735 312.761H320.781L317.172 297.481C316.068 292.846 314.919 287.225 314.114 282.063H314.022C313.815 287.386 313.677 293.488 313.424 298.398L312.826 313.403H305.769L307.93 273.918H318.091L321.402 287.087C322.459 291.653 323.494 296.586 324.253 301.197H324.414C325.356 296.632 326.506 291.424 327.609 287.018L331.219 273.895H341.173L343.035 313.38H335.564L335.058 298.284Z" fill="#9FE870"/>
<path d="M356.553 273.918V313.403H348.897V273.918H356.553Z" fill="#9FE870"/>
<path d="M363.405 304.203C365.451 305.442 368.623 306.658 371.865 306.658C375.359 306.658 377.222 304.96 377.222 302.39C377.222 299.935 375.612 298.513 371.566 296.815C365.956 294.521 362.301 290.896 362.301 285.16C362.301 278.415 367.106 273.275 375.061 273.275C378.877 273.275 381.659 274.216 383.682 275.271L381.981 282.476C380.624 281.718 378.233 280.594 374.923 280.594C371.612 280.594 370.026 282.361 370.026 284.403C370.026 286.927 371.934 288.028 376.279 289.978C382.233 292.548 385.038 296.196 385.038 301.748C385.038 308.378 380.693 313.999 371.428 313.999C367.566 313.999 363.772 312.829 361.864 311.59L363.405 304.203Z" fill="#9FE870"/>
<path d="M390.441 304.203C392.487 305.442 395.659 306.658 398.901 306.658C402.396 306.658 404.258 304.96 404.258 302.39C404.258 299.935 402.648 298.513 398.602 296.815C392.993 294.521 389.337 290.896 389.337 285.16C389.337 278.415 394.142 273.275 402.097 273.275C405.913 273.275 408.695 274.216 410.718 275.271L409.017 282.476C407.66 281.718 405.269 280.594 401.959 280.594C398.648 280.594 397.062 282.361 397.062 284.403C397.062 286.927 398.97 288.028 403.315 289.978C409.27 292.548 412.074 296.196 412.074 301.748C412.074 308.378 407.729 313.999 398.464 313.999C394.602 313.999 390.809 312.829 388.9 311.59L390.441 304.203Z" fill="#9FE870"/>
<path d="M424.903 273.918V313.403H417.247V273.918H424.903Z" fill="#9FE870"/>
<path d="M462.4 293.236C462.4 306.176 455.687 314.022 445.824 314.022C435.8 314.022 429.961 305.166 429.961 293.924C429.961 282.086 436.421 273.252 446.376 273.252C456.744 273.275 462.4 282.338 462.4 293.236ZM438.007 293.764C438.007 301.495 441.111 306.933 446.215 306.933C451.365 306.933 454.33 301.197 454.33 293.511C454.33 286.422 451.434 280.342 446.169 280.342C441.019 280.365 438.007 286.101 438.007 293.764Z" fill="#9FE870"/>
<path d="M467.389 313.403V273.918H476.309L483.321 288.395C485.321 292.548 487.321 297.481 488.838 301.931H488.999C488.494 296.723 488.356 291.378 488.356 285.481V273.941H495.368V313.403H487.367L480.148 298.169C478.148 293.947 475.941 288.854 474.286 284.219L474.125 284.288C474.332 289.496 474.424 295.071 474.424 301.518V313.403H467.389Z" fill="#9FE870"/>
<path opacity="0.23" d="M43.6123 316.247C43.6123 321.295 76.1203 321.295 113.571 321.295C151.022 321.295 191.875 319.414 191.875 317.073C191.875 314.733 151.045 312.852 113.571 312.852C76.0973 312.852 43.6123 310.03 43.6123 316.247Z" fill="#2E2E3D"/>
<path d="M54.7163 158.399C49.0377 159.432 48.0951 158.583 45.3823 158.239C42.6695 157.894 37.2668 156.518 39.2439 151.401C40.1176 149.153 40.6923 148.602 43.3592 149.107C46.026 149.612 47.4974 152.503 52.2793 152.801C57.0612 153.099 54.7163 158.399 54.7163 158.399Z" fill="#EFAEA6"/>
<path opacity="0.46" d="M118.629 231.405C118.583 231.405 118.56 231.381 118.537 231.358C118.56 231.358 118.606 231.381 118.629 231.405Z" fill="#1F1F39"/>
<path d="M88.5807 214.793C89.8452 214.403 92.3971 213.623 92.3971 213.623C92.3971 213.623 92.581 213.738 90.6039 212.889C89.2015 212.499 81.132 209.86 76.6719 209.7C81.7987 211.581 86.7185 214.219 88.5807 214.793Z" fill="#9FE870"/>
<path d="M63.1772 304.96C61.9588 301.908 59.8896 293.924 59.8896 293.924L68.1202 291.217L71.1318 303.262L66.7177 308.631L63.1772 304.96Z" fill="#EFAEA6"/>
<path d="M62.1425 303.836C61.2229 303.927 61.8437 304.616 61.9586 306.015C62.2345 309.227 51.4292 312.944 49.8658 313.747C49.0612 314.16 49.1761 319.001 53.3603 317.578C56.9928 316.34 68.6028 312.462 72.5571 311.086C73.3847 310.81 73.9135 309.984 73.8445 309.112C73.5916 305.992 71.9133 301.61 70.7638 301.885C68.9476 301.931 66.0279 303.491 62.1425 303.836Z" fill="#1F1F39"/>
<path d="M180.817 297.618C180.817 297.618 184.726 298.283 188.22 298.765C188.22 298.765 188.22 298.765 188.243 298.765C189.301 298.903 190.312 299.017 191.163 299.109C191.577 299.155 191.945 299.178 192.266 299.201L197.094 297.48L193.991 291.263L193.301 291.148L191.554 290.827L181.737 289.037L180.817 297.48V297.618Z" fill="#EFAEA6"/>
<path d="M192.886 300.532C193.346 300.761 193.783 301.037 194.174 301.381C197.3 303.996 201.852 310.948 201.83 312.462C201.83 313.357 207.554 315.56 206.864 311.2C206.175 306.887 201.715 297.71 202.381 293.58C202.519 292.708 202.059 291.859 201.255 291.515C198.381 290.253 193.714 289.68 193.415 290.804C193.369 290.896 193.323 290.987 193.277 291.102C192.564 292.777 192.473 295.805 191.116 299.086C191.093 299.155 191.047 299.247 191.024 299.316C190.679 300.188 191.599 299.981 192.886 300.532Z" fill="#1F1F39"/>
<path d="M60.027 300.944C60.6477 300.876 61.2225 300.807 61.7743 300.715C65.7745 300.187 68.4874 299.66 70.1427 299.27C71.5221 298.948 72.1658 298.742 72.1658 298.742C71.1772 292.777 60.9006 258.614 62.8318 256.71C64.5331 255.012 73.7521 251.41 83.6378 247.854C87.0634 246.638 90.5578 245.422 93.8454 244.298C102.605 241.292 109.893 238.952 110.237 238.837H110.26C111.87 241.705 118.353 254.485 124.123 265.497C127.779 272.449 131.135 278.69 132.86 281.305C138.722 290.276 187.944 299.568 187.944 299.568C188.036 299.292 188.151 299.017 188.266 298.742C189.461 295.736 190.956 292.731 191.599 290.781C191.99 289.611 192.059 288.027 191.622 287.798C182.886 285.848 147.665 276.281 145.251 272.449C142.354 267.86 138.285 250.883 136.446 239.939C136.124 238.057 135.871 236.36 135.687 234.96C135.067 230.303 134.308 225.806 133.618 221.905C132.331 214.747 131.181 209.7 131.181 209.7L105.134 213.371L100.88 217.317C94.3282 219.336 53.4978 241.797 48.6699 246.294C42.8764 251.594 58.9465 298.788 60.027 300.944Z" fill="#4B4B5B"/>
<path d="M111.066 159.546C115.181 159.363 115.916 156.724 115.916 156.724C117.48 153.994 118.583 147.776 118.215 144.725C117.802 141.375 117.503 141.559 117.503 141.559L112.261 144.358L109.801 145.666C109.801 145.666 110.008 147.019 109.341 149.245C108.858 150.805 109.686 150.53 107.962 152.778C106.674 154.453 109.41 156.747 111.066 159.546Z" fill="#EFAEA6"/>
<path opacity="0.14" d="M109.8 145.666C109.823 146.996 109.639 148.304 109.226 149.589C113.686 151.906 116.536 148.556 115.456 147.203C114.789 146.354 112.26 144.358 112.26 144.358L109.8 145.666Z" fill="#1F1F39"/>
<path d="M110.766 134.699C109.64 137.154 105.157 141.008 106.858 141.605C108.559 142.201 104.467 146.79 106.283 147.501C110.651 149.245 116.721 148.281 118.077 146.354C119.434 144.427 121.25 138.393 121.25 138.393L110.766 134.699Z" fill="#EFAEA6"/>
<path d="M114.445 138.76C112.997 138.416 112.836 138.737 112.031 137.911C111.226 137.085 113.387 136.351 111.686 135.41C109.985 134.446 108.031 133.62 108.582 131.487C109.387 128.389 111.893 129.812 113.41 130.753C114.399 131.349 115.48 129.147 117.572 130.018C119.204 130.684 118.652 131.601 120.101 132.267C120.974 132.68 123.25 131.831 124.262 133.414C126.124 136.328 123.089 138.003 124.469 140.916C126.078 144.312 118.353 147.501 117.893 146.629C117.388 145.597 119.48 143.44 118.882 142.545C118.008 141.215 117.48 142.178 116.146 142.752C114.698 143.371 112.698 142.729 114.675 141.238C116.652 139.7 115.755 139.081 114.445 138.76Z" fill="#1F1F39"/>
<path d="M117.434 153.099C114.491 152.021 112.008 157.642 109.548 157.642C108.054 157.642 109.134 156.449 108.697 155.623C107.525 153.489 107.893 153.076 107.019 153.856C91.9836 167.531 99.1105 218.441 103.525 214.243C107.939 210.044 126.676 224.223 129.159 222.365C137.159 216.399 129.595 208.346 129.388 206.144C128.584 197.747 123.066 161.29 123.066 161.29C123.066 161.29 121.618 157.619 117.434 153.099Z" fill="white"/>
<path d="M107.502 153.512C89.5464 153.214 81.9137 157.573 74.1891 156.243C66.4414 154.912 51.7278 151.975 49.4747 152.021C47.7045 152.067 46.8309 155.05 47.1067 158.835C61.3836 162.552 69.4531 165.19 74.4879 166.315C80.1435 167.576 92.2363 167.141 94.5353 169.618C97.0182 172.303 94.7652 187.101 94.0065 191.139C93.2478 195.177 90.627 211.581 98.0988 219.818C101.156 223.191 109.893 224.407 111.87 222.8C115.249 220.047 103.616 207.865 104.076 189.671C104.352 179.3 101.662 173.014 103.386 164.571C104.191 160.671 105.594 156.954 107.502 153.512Z" fill="#9FE870"/>
<path opacity="0.18" d="M107.502 153.512C89.5464 153.214 81.9137 157.573 74.1891 156.243C66.4414 154.912 51.7278 151.975 49.4747 152.021C47.7045 152.067 46.8309 155.05 47.1067 158.835C61.3836 162.552 69.4531 165.19 74.4879 166.315C80.1435 167.576 92.2363 167.141 94.5353 169.618C97.0182 172.303 94.7652 187.101 94.0065 191.139C93.2478 195.177 90.627 211.581 98.0988 219.818C101.156 223.191 109.893 224.407 111.87 222.8C115.249 220.047 103.616 207.865 104.076 189.671C104.352 179.3 101.662 173.014 103.386 164.571C104.191 160.671 105.594 156.954 107.502 153.512Z" fill="#173303"/>
<path opacity="0.55" d="M115.755 216.812C117.686 227.068 129.894 236.176 136.377 239.939C136.055 238.057 135.802 236.36 135.618 234.96C134.998 230.303 134.239 225.806 133.549 221.905L115.755 216.812Z" fill="#1F1F39"/>
<path d="M109.019 183.476C109.042 184.669 109.156 185.862 109.409 187.055C110.099 190.703 111.616 194.879 112.743 198.366C113.272 199.995 113.732 201.463 114.007 202.656C116.398 213.417 114.582 219.519 118.307 224.2C121.41 228.123 137.227 231.335 145.021 225.898C148.056 223.787 138.469 220.483 135.296 216.766C130.33 210.962 130.905 204.377 130.215 198.687C129.549 193.181 130.261 185.77 130.537 177.052C130.698 171.5 129.043 162.781 126.583 160.166C120.468 153.65 117.525 153.168 117.525 153.168C117.18 155.371 113.732 162.322 111.318 170.238C111.295 170.284 111.295 170.329 111.272 170.398C111.18 170.697 111.111 170.972 111.019 171.27C109.938 175.033 109.134 178.956 109.019 182.673C109.019 182.948 109.019 183.223 109.019 183.476Z" fill="#9FE870"/>
<path d="M4.50586 75.6888C5.03463 87.5963 32.8066 141.972 34.4619 145.046C35.1516 146.331 37.0368 148.075 38.4852 148.878C40.0485 149.773 41.1291 149.589 39.6577 146.675C39.4278 146.239 39.1519 145.735 38.8071 145.161C38.4622 144.61 38.0714 143.991 37.6116 143.28C31.7261 134.515 14.5065 93.2862 8.50613 78.3732C7.33364 75.4365 6.43703 73.0733 5.93124 71.5361C5.93124 71.5361 5.14958 73.4863 4.50586 75.6888Z" fill="#9FE870"/>
<path opacity="0.79" d="M4.50586 75.6888C5.03463 87.5963 32.8066 141.972 34.4619 145.046C34.0021 145.367 33.5653 145.712 33.1515 146.125C32.6917 146.721 33.4504 147.386 34.6688 146.813C34.9907 146.652 36.3011 148.35 38.0714 150.92C38.5312 150.346 38.6691 149.589 38.4852 148.878C38.3473 148.235 37.9564 147.501 37.3127 146.675C36.7839 145.987 36.2092 145.184 35.6114 144.266C28.7374 133.712 18.2309 108.98 16.0699 103.772C14.5295 100.032 9.54069 83.8107 8.50613 78.3732C7.33364 75.4365 6.43703 73.0733 5.93124 71.5361C5.93124 71.5361 5.14958 73.4863 4.50586 75.6888Z" fill="#9FE870"/>
<path d="M33.7267 147.042C34.0486 147.042 34.3705 146.974 34.6693 146.813C34.9912 146.652 36.3016 148.35 38.0719 150.92C42.7389 157.757 50.5555 170.834 51.4981 172.257C52.7855 174.207 54.7397 171.637 55.4294 169.641C56.0961 167.714 47.13 157.918 39.6812 146.698C39.3593 146.217 39.0375 145.735 38.7156 145.23C38.7156 145.23 38.7616 145.207 38.8305 145.161C39.0604 145.046 39.2674 144.886 39.4743 144.748C39.4743 144.748 39.4743 144.748 39.4973 144.725C39.7272 144.565 39.9111 144.381 40.072 144.152C40.3019 143.807 40.2789 143.417 39.6122 143.119C39.1064 142.89 38.3937 143.004 37.6351 143.28C36.9454 143.555 36.2786 143.876 35.6349 144.266C35.2211 144.519 34.8303 144.771 34.4624 145.023C34.0026 145.345 33.5658 145.689 33.152 146.102C32.8301 146.538 33.106 146.997 33.7267 147.042Z" fill="#4B4B5B"/>
<path d="M33.0366 146.63C33.1515 146.882 33.4274 147.042 33.7033 147.042C34.531 146.951 35.0827 146.446 35.3356 146.354C36.5081 146.056 37.6806 145.643 38.8071 145.184C39.037 145.069 39.2669 144.932 39.4508 144.771C39.4508 144.771 39.4508 144.771 39.4738 144.748C39.6807 144.565 39.8646 144.381 40.0486 144.175C40.1865 143.991 40.2095 143.762 40.1175 143.555C39.9796 143.372 39.7957 143.234 39.5888 143.165C39.083 142.936 38.3703 143.05 37.6116 143.326C36.9219 143.601 36.2552 143.922 35.6115 144.312C35.1977 144.565 34.8068 144.817 34.439 145.069C33.9792 145.391 33.5424 145.735 33.1286 146.148C33.0366 146.262 32.9906 146.446 33.0366 146.63Z" fill="#0D0D0D"/>
<path opacity="0.73" d="M33.0371 146.629C35.612 144.175 38.3018 143.578 40.095 143.532C39.9571 143.349 39.7732 143.211 39.5662 143.142C39.0605 142.913 38.3478 143.027 37.5891 143.303C36.8994 143.578 36.2327 143.899 35.589 144.289C35.1751 144.542 34.7843 144.794 34.4165 145.046C33.9567 145.368 33.5199 145.712 33.106 146.125C33.0371 146.262 32.9911 146.446 33.0371 146.629Z" fill="#F1F1F1"/>
<path d="M58.1646 163.194C54.1184 159.088 52.8769 159.225 50.44 157.94C48.003 156.656 39.1978 153.902 41.4738 159.982C42.3245 162.231 43.29 163.539 45.75 164.686C48.2099 165.81 52.3251 163.217 57.245 167.278C60.9464 170.307 58.1646 163.194 58.1646 163.194Z" fill="#EFAEA6"/>
<path opacity="0.18" d="M109.019 183.476C109.042 184.669 109.156 185.862 109.409 187.055C110.099 190.703 111.616 194.879 112.743 198.366C113.295 187.996 120.399 170.834 120.399 170.834L111.019 171.27C109.938 175.033 109.134 178.956 109.019 182.673C109.019 182.948 109.019 183.224 109.019 183.476Z" fill="#173303"/>
<path d="M118.284 155.83C94.0525 166.865 89.0407 164.663 85.4312 164.456C81.8448 164.25 53.1762 156.38 51.9347 156.862C48.808 158.078 51.291 163.883 52.2336 165.121C55.751 169.756 73.6833 172.188 82.5345 174.345C89.4775 176.042 114.606 171.798 114.606 171.798C114.606 171.798 126.859 169.114 125.457 162.231C124.055 155.348 118.284 155.83 118.284 155.83Z" fill="#9FE870"/>
<path opacity="0.18" d="M109.065 158.835C109.364 158.698 111.341 164.571 114.859 166.957C115.824 167.622 117.181 168.54 118.33 168.77C122.17 169.527 126.078 169.94 130.009 169.986C129.503 168.334 130.101 167.622 128.768 164.571C125.503 165.099 120.698 165.42 118.951 164.961C117.687 164.617 116.468 164.089 115.364 163.378C113.318 162.116 111.686 160.441 110.445 158.996C109.824 158.262 109.847 157.298 108.996 157.137C107.87 156.931 108.674 159.019 109.065 158.835Z" fill="#1F1F39"/>
<path d="M107.548 157.252C107.709 156.38 108.536 155.807 109.433 155.967C109.456 155.967 109.502 155.99 109.525 155.99C110.49 156.174 110.513 156.587 111.203 157.39C113.318 159.845 116.537 162.965 120.744 164.066C124.951 165.168 135.573 161.015 141.688 163.355C147.803 165.695 148.884 171.638 157.827 174.46C166.77 177.282 177.162 174.895 179.805 175.767C182.449 176.639 183.99 177.465 183.76 178.52C183.53 179.576 181.921 181.136 179.92 181.618C177.92 182.1 161.046 180.723 156.723 179.461C149.665 177.419 144.447 170.009 139.872 168.907C135.297 167.806 125.135 168.999 119.755 167.875C113.755 166.636 109.87 158.835 109.433 159.065C108.996 159.271 108.582 159.478 107.846 159.156C107.295 158.927 107.41 157.849 107.548 157.252Z" fill="#EFA500"/>
<path d="M38.8301 153.65C39.037 151.562 39.4738 149.589 40.6923 151.218C41.9108 152.824 44.6236 155.554 44.2557 156.197C43.8879 156.839 42.1177 157.642 41.1061 156.931C40.0945 156.22 38.8301 153.65 38.8301 153.65Z" fill="#EFAEA6"/>
<path d="M43.4282 152.182C40.3475 151.631 38.3933 150.461 38.9221 149.773C39.4509 149.084 41.6809 148.901 41.6809 148.901L44.4167 150.53L43.4282 152.182Z" fill="#EFAEA6"/>
<path opacity="0.55" d="M83.6152 247.854C87.0408 246.638 90.5352 245.422 93.8228 244.298C102.582 241.293 109.87 238.952 110.215 238.838H110.238C108.72 235.97 108.422 234.616 108.422 234.616C108.422 234.616 91.133 243.151 83.6152 247.854Z" fill="#1F1F39"/>
<path d="M21.588 89.8223C22.9674 105.08 38.3478 123.87 38.3478 123.87C38.3478 123.87 86.443 89.3405 134.377 104.414C182.312 119.488 17.8866 48.7313 21.588 89.8223Z" fill="#9FE870"/>
<path opacity="0.55" d="M124.101 265.498C127.756 272.449 131.113 278.69 132.837 281.305C138.699 290.276 187.921 299.568 187.921 299.568C188.013 299.293 188.128 299.017 188.243 298.742C185.714 298.352 183.254 297.916 180.863 297.434C156.655 292.502 139.228 281.925 124.101 265.498Z" fill="#1F1F39"/>
<path d="M148.148 154.682C148.148 154.636 148.171 154.59 148.171 154.567C148.309 154.315 148.631 154.2 148.907 154.315L205.256 171.958C205.509 172.004 205.67 172.234 205.624 172.486C205.624 172.509 205.624 172.532 205.601 172.555C205.463 172.807 205.141 172.922 204.865 172.807L148.516 155.164C148.309 155.118 148.148 154.912 148.148 154.682Z" fill="#9FE870"/>
<path d="M160.701 155.279C160.701 155.233 160.724 155.187 160.724 155.164C160.885 154.912 161.207 154.797 161.506 154.912L184.082 161.634C184.404 161.726 184.565 162.001 184.45 162.231C184.289 162.483 183.967 162.598 183.668 162.483L161.092 155.761C160.862 155.715 160.701 155.508 160.701 155.279Z" fill="#9FE870"/>
<path d="M143.826 157.711C143.826 157.665 143.849 157.619 143.849 157.596C144.01 157.344 144.332 157.229 144.631 157.344L167.207 164.066C167.529 164.158 167.69 164.433 167.575 164.663C167.414 164.915 167.092 165.03 166.793 164.915L144.217 158.193C144.01 158.147 143.849 157.94 143.826 157.711Z" fill="#9FE870"/>
<g opacity="0.79">
<path d="M155.092 258.064C155.092 258.041 155.092 258.018 155.115 257.972C155.207 257.811 155.414 257.742 155.598 257.788L193.186 269.558C193.347 269.581 193.462 269.742 193.439 269.902C193.439 269.925 193.439 269.925 193.416 269.948C193.324 270.109 193.117 270.178 192.933 270.132L155.345 258.362C155.207 258.339 155.092 258.224 155.092 258.064Z" fill="white"/>
<path d="M163.46 258.454C163.46 258.431 163.46 258.408 163.483 258.362C163.598 258.201 163.805 258.133 164.012 258.201L179.07 262.675C179.277 262.744 179.392 262.928 179.323 263.065C179.208 263.226 179.001 263.295 178.794 263.226L163.736 258.729C163.575 258.752 163.46 258.614 163.46 258.454Z" fill="white"/>
<path d="M152.218 260.083C152.218 260.06 152.218 260.037 152.241 259.991C152.356 259.83 152.563 259.761 152.77 259.83L167.828 264.327C168.035 264.396 168.15 264.58 168.081 264.717C167.966 264.878 167.759 264.947 167.552 264.878L152.494 260.404C152.333 260.358 152.218 260.243 152.218 260.083Z" fill="white"/>
</g>
<path d="M287.56 129.858C283.445 129.124 279.399 128.321 275.398 127.472C275.398 128.229 275.398 129.009 275.398 129.789C275.398 151.539 273.398 168.402 269.421 180.379C265.444 192.378 259.788 198.366 252.454 198.366C245.12 198.366 239.534 192.378 235.718 180.379C231.901 168.402 229.993 151.539 229.993 129.789C229.993 128.183 229.993 126.623 230.016 125.063C230.062 121.736 230.154 118.547 230.292 115.45C218.613 111.733 208.566 108.062 200.796 105.034C197.094 103.588 193.899 102.28 191.278 101.202C190.404 110.104 189.99 119.625 189.99 129.766C189.99 148.786 191.508 165.718 194.565 180.562C197.623 195.406 201.899 207.796 207.44 217.822C212.98 227.825 219.601 235.442 227.326 240.627C235.051 245.812 243.511 248.405 252.707 248.405C261.742 248.405 270.134 245.812 277.858 240.627C285.583 235.442 292.204 227.848 297.745 217.822C303.285 207.819 307.607 195.406 310.734 180.562C312.435 172.28 313.654 163.883 314.367 155.44C314.964 148.557 315.309 141.307 315.401 133.735C305.929 132.818 296.618 131.487 287.56 129.858Z" fill="#9FE870"/>
<path d="M321.7 73.5781C318.573 58.8716 314.251 46.5282 308.711 36.5021C303.17 26.4989 296.549 18.9047 288.824 13.6966C281.1 8.48857 272.708 5.91895 263.673 5.91895C254.477 5.91895 245.994 8.51152 238.292 13.6966C230.567 18.8818 223.946 26.4989 218.406 36.5021C212.865 46.5053 208.566 58.8716 205.531 73.5781C204.037 80.8511 202.956 88.2158 202.267 95.6264C210.359 98.9991 224.061 104.368 241.304 109.852C241.993 94.9152 243.787 82.8701 246.729 73.7617C250.546 61.9001 256.132 55.9578 263.466 55.9578C270.8 55.9578 276.456 61.9001 280.433 73.7617C284.272 85.1873 286.249 101.225 286.387 121.851C299.584 124.673 312.941 126.784 326.39 128.137C326.413 126.83 326.413 125.499 326.413 124.168C326.367 105.148 324.827 88.2846 321.7 73.5781Z" fill="#9FE870"/>
<path d="M407.155 70.458C404.488 88.7895 398.924 102.602 390.464 111.871C382.027 121.14 372.325 124.971 361.358 123.365C350.254 121.759 342.001 115.312 336.621 104.047C331.241 92.7816 329.908 77.9604 332.575 59.6288C335.219 41.5267 340.713 27.8527 349.082 18.5836C357.45 9.31464 367.198 5.48314 378.302 7.08916C389.268 8.67223 397.476 15.1192 402.925 26.4072C408.373 37.6952 409.799 52.3559 407.155 70.458ZM360.6 63.6898C359.519 71.0316 359.634 76.6067 360.876 80.3923C362.14 84.2009 364.071 86.2887 366.692 86.6787C369.313 87.0688 371.773 85.6004 374.072 82.3196C376.371 79.0387 378.049 73.7159 379.107 66.3741C380.141 59.2847 380.026 53.8931 378.739 50.2222C377.452 46.5513 375.52 44.5093 372.9 44.1193C370.279 43.7293 367.819 45.1288 365.543 48.2949C363.29 51.4611 361.634 56.6003 360.6 63.6898ZM458.974 18.423C463.94 20.3273 468.377 23.3558 471.987 27.2561C475.596 31.1565 477.137 35.9286 476.631 41.5956C476.01 45.7024 474.792 49.6715 473.021 53.4342C471.067 57.6328 468.814 61.6708 466.285 65.5711L359.335 237.691C354.576 235.741 350.783 232.873 347.932 229.11C345.082 225.324 343.932 220.598 344.438 214.931C344.99 211.077 345.748 207.245 346.714 203.46C347.656 199.72 349.473 195.567 352.208 190.956L458.974 18.423ZM487.735 197.173C485.068 215.505 479.504 229.316 471.044 238.585C462.607 247.854 452.905 251.686 441.939 250.08C430.835 248.474 422.581 242.027 417.201 230.762C411.822 219.497 410.488 204.676 413.155 186.344C415.799 168.242 421.294 154.568 429.662 145.299C438.03 136.03 447.778 132.198 458.882 133.804C469.849 135.387 478.056 141.834 483.505 153.122C488.953 164.41 490.379 179.071 487.735 197.173ZM441.203 190.405C440.122 197.747 440.237 203.322 441.479 207.108C442.743 210.916 444.675 213.004 447.295 213.394C449.916 213.784 452.376 212.316 454.675 209.035C456.974 205.754 458.652 200.431 459.71 193.089C460.745 186 460.63 180.608 459.342 176.937C458.055 173.266 456.124 171.225 453.503 170.835C450.882 170.444 448.422 171.844 446.146 175.01C443.893 178.199 442.238 183.316 441.203 190.405Z" fill="#9FE870"/>
<path d="M318.251 33.8186C318.022 33.7268 317.838 33.5432 317.769 33.3138C315.401 24.3201 310.32 17.8502 302.227 13.5369C301.86 13.3304 301.722 12.8944 301.929 12.5274C302.112 12.1603 302.572 12.0226 302.94 12.2291C311.4 16.7489 316.734 23.5171 319.217 32.9467C319.332 33.3367 319.079 33.7497 318.688 33.8644C318.55 33.8644 318.389 33.8644 318.251 33.8186Z" fill="#9FE870"/>
<path d="M318.826 20.5341C318.665 20.4653 318.527 20.3506 318.436 20.2129C315.953 15.9914 313.309 12.8711 310.136 10.3474C307.055 7.89246 303.423 6.01113 298.733 4.451C298.342 4.31334 298.135 3.90037 298.273 3.51033C298.411 3.1203 298.825 2.91381 299.216 3.05147C308.803 6.2635 314.757 11.0357 319.723 19.4787C319.93 19.8229 319.815 20.2817 319.447 20.4882C319.263 20.58 319.033 20.6029 318.826 20.5341Z" fill="#9FE870"/>
<path d="M112.674 61.625C109.042 64.7911 106.283 63.2539 104.421 61.7856C104.007 61.4414 103.386 61.7856 103.57 62.2444C104.742 65.2041 105.386 66.6725 100.075 66.2365C99.8456 66.1907 99.5927 66.3283 99.5467 66.5807C99.5237 66.7413 99.5697 66.9019 99.6846 67.0166C103.846 71.1234 101.386 73.0048 98.1443 75.1385C97.7995 75.3679 97.9374 75.8497 98.3742 75.9644C102.374 77.1345 106.191 73.0277 105.892 79.2912C105.869 79.7271 106.513 80.0024 106.835 79.7041C110.789 76.0562 110.467 77.4328 114.743 80.553C115.157 80.8513 115.709 80.553 115.594 80.1171C114.283 75.4826 117.019 75.0926 119.801 74.6796C120.307 74.6108 120.353 74.0143 119.87 73.8078C114.122 71.1693 117.893 68.7603 120.629 67.5672C121.134 67.3608 120.882 66.6495 120.307 66.6725C116.054 66.7184 114.03 67.8655 113.594 61.9921C113.548 61.6709 113.226 61.4644 112.927 61.5103C112.835 61.5103 112.743 61.5562 112.674 61.625Z" fill="#9FE870"/>
<path opacity="0.18" d="M230.291 115.473C230.153 118.547 230.061 121.759 230.015 125.086C221.417 120.13 204.933 110.242 200.795 105.08C208.566 108.085 218.635 111.756 230.291 115.473Z" fill="#1F1F39"/>
<path opacity="0.18" d="M315.378 133.758C315.286 141.329 314.941 148.579 314.344 155.462C304.596 146.744 292.595 135.685 287.537 129.858C296.618 131.487 305.929 132.818 315.378 133.758Z" fill="#1F1F39"/>
</svg>
