<?xml version="1.0" encoding="UTF-8"?>
<svg id="Layer_1" data-name="Layer 1" xmlns="http://www.w3.org/2000/svg" viewBox="0 0 120 119.99">
  <defs>
    <style>
      .cls-1 {
        fill: #173303;
      }

      .cls-1, .cls-2 {
        isolation: isolate;
        stroke-width: 0px;
      }

      .cls-2 {
        fill: #9fe870;
      }
    </style>
  </defs>
  <path class="cls-1" d="m87.5,119.98c-17.95,0-32.5-14.55-32.5-32.5s14.55-32.5,32.5-32.5,32.5,14.55,32.5,32.5c-.02,17.94-14.56,32.48-32.5,32.5Zm0-60c-15.19,0-27.5,12.31-27.5,27.5s12.31,27.5,27.5,27.5,27.5-12.31,27.5-27.5c-.02-15.18-12.32-27.48-27.5-27.5Z"/>
  <path class="cls-2" d="m87.5,99.98c-1.38,0-2.5-1.12-2.5-2.5v-1.31c0-4.8,2.52-9.4,6.93-12.63,3.34-2.45,4.07-7.14,1.62-10.48-2.45-3.34-7.14-4.07-10.48-1.62-1.93,1.41-3.07,3.66-3.07,6.05,0,1.38-1.12,2.5-2.5,2.5s-2.5-1.12-2.5-2.5c0-6.9,5.6-12.5,12.5-12.5,6.9,0,12.5,5.6,12.5,12.5,0,3.98-1.9,7.73-5.12,10.08-1.82,1.33-4.88,4.22-4.88,8.6v1.31c0,1.38-1.12,2.5-2.5,2.5Z"/>
  <circle class="cls-2" cx="87.73" cy="107.72" r="2.27"/>
  <path class="cls-1" d="m44.2,77.73c-.38,0-.76-.09-1.1-.25-6.09-3.01-12.92-4.2-19.67-3.41-2.16.26-4.32-.42-5.95-1.86-1.58-1.4-2.48-3.41-2.49-5.52V7.94c.02-3.76,2.78-6.94,6.5-7.48,11.94-1.76,23.21,1.55,33.5,9.91C65.29,2.02,76.54-1.32,88.51.46c3.71.54,6.47,3.72,6.49,7.47v34.55c0,1.38-1.12,2.5-2.5,2.5s-2.5-1.12-2.5-2.5V7.94c0-1.27-.94-2.34-2.2-2.53-11.25-1.67-21.44,1.64-31.15,10.11-.94.82-2.34.82-3.28,0C43.65,7.04,33.48,3.73,22.22,5.4c-1.26.18-2.21,1.25-2.22,2.53v58.75c0,.68.29,1.33.8,1.79.56.5,1.31.73,2.06.63,7.7-.91,15.5.45,22.44,3.89,1.24.61,1.75,2.11,1.15,3.34-.42.86-1.3,1.4-2.26,1.4h0Z"/>
  <path class="cls-1" d="m107.5,49.98c-1.38,0-2.5-1.12-2.5-2.5v-30c0-1.38-1.12-2.5-2.5-2.5h-10c-1.38,0-2.5-1.12-2.5-2.5s1.12-2.5,2.5-2.5h10c4.14,0,7.5,3.36,7.5,7.5v30c0,1.38-1.12,2.5-2.5,2.5Z"/>
  <path class="cls-1" d="m42.5,84.98H7.5c-4.14,0-7.5-3.36-7.5-7.5V17.48c.05-4.11,3.35-7.43,7.45-7.5h10.05c1.38,0,2.5,1.12,2.5,2.5s-1.12,2.5-2.5,2.5H7.5c-1.37.03-2.47,1.13-2.5,2.5v60c0,1.38,1.12,2.5,2.5,2.5h35c1.38,0,2.5,1.12,2.5,2.5s-1.12,2.5-2.5,2.5Z"/>
  <path class="cls-1" d="m55,59.98c-1.38,0-2.5-1.12-2.5-2.5V12.48c0-1.38,1.12-2.5,2.5-2.5s2.5,1.12,2.5,2.5v45c0,1.38-1.12,2.5-2.5,2.5Z"/>
</svg>