<?xml version="1.0" encoding="UTF-8"?>
<svg id="Layer_1" data-name="Layer 1" xmlns="http://www.w3.org/2000/svg" viewBox="0 0 120.18 120.09">
  <defs>
    <style>
      .cls-1 {
        fill: #173303;
      }

      .cls-1, .cls-2 {
        isolation: isolate;
      }

      .cls-1, .cls-2, .cls-3 {
        stroke-width: 0px;
      }

      .cls-2 {
        fill: #9fe870;
      }

      .cls-3 {
        fill: #204356;
      }
    </style>
  </defs>
  <path class="cls-2" d="m51.35,33.77c0,6.88-4.68,9.73-7.79,11.59-1.4.85-2.82,1.71-2.82,2.35v1.84c0,1.14-.93,2.07-2.07,2.07s-2.07-.93-2.07-2.07v-1.84c0-3,2.56-4.53,4.84-5.9,2.98-1.81,5.8-3.49,5.8-8.05s-3.84-8.57-8.57-8.57-8.57,3.84-8.57,8.57c0,1.14-.93,2.07-2.07,2.07s-2.07-.93-2.07-2.07c0-7.01,5.68-12.69,12.69-12.69s12.69,5.68,12.69,12.69h0Z"/>
  <path class="cls-1" d="m40.84,56.81c0,1.22-.98,2.2-2.2,2.2-1.22,0-2.2-.98-2.2-2.2,0-1.22.98-2.2,2.2-2.2h0c1.22,0,2.2.98,2.2,2.2Z"/>
  <path class="cls-3" d="m99.9,95.68c0,1.14-.93,2.07-2.07,2.07h-37.27c-1.14,0-2.07-.93-2.07-2.07s.93-2.07,2.07-2.07h37.27c1.14,0,2.06.91,2.07,2.05,0,0,0,.01,0,.02Z"/>
  <path class="cls-2" d="m99.9,79.19c0,1.14-.93,2.07-2.07,2.07h-37.27c-1.14,0-2.07-.93-2.07-2.07s.93-2.07,2.07-2.07h37.27c1.14,0,2.07.93,2.07,2.07Z"/>
  <path class="cls-1" d="m115.76,97.49c2.84-5.68,4.32-11.95,4.32-18.3-.01-21.61-16.82-39.48-38.39-40.81C80.32,15.84,60.93-1.31,38.39.07S-1.31,20.84.07,43.38c.34,5.5,1.78,10.88,4.25,15.81L.05,79.3c-.15.69.07,1.4.57,1.89.39.39.92.6,1.48.6.15,0,.29-.02.44-.05l20.11-4.27c4.93,2.45,10.3,3.89,15.79,4.23,1.34,21.56,19.21,38.37,40.81,38.38,6.35,0,12.62-1.49,18.3-4.32l20.11,4.27c.14.03.29.05.44.05,1.14.01,2.07-.9,2.09-2.04,0-.15-.01-.3-.04-.45l-4.38-20.1Zm-91.9-24.04c-.3-.15-.62-.23-.96-.23-.15,0-.29.02-.44.05l-17.7,3.75,3.75-17.7c.1-.47.03-.97-.18-1.4C-1.08,39.93,5.88,17.71,23.87,8.29c17.99-9.42,40.22-2.46,49.63,15.53,9.42,17.99,2.46,40.22-15.53,49.63-10.68,5.59-23.43,5.59-34.11,0h0Zm73.84,38.12c-.49-.12-1.01-.06-1.45.18-17.99,9.42-40.21,2.47-49.63-15.53-2.35-4.49-3.75-9.42-4.1-14.47,12.55-.51,24.17-6.76,31.52-16.95h23.78c1.14,0,2.07-.93,2.07-2.07s-.93-2.07-2.07-2.07h-21.14c3.09-5.56,4.83-11.76,5.07-18.12,20.23,1.4,35.5,18.93,34.1,39.17-.35,5.07-1.75,10.01-4.1,14.51-.22.45-.29.96-.18,1.45l3.75,17.65-17.63-3.75Z"/>
</svg>