<svg xmlns="http://www.w3.org/2000/svg" width="32" height="32" viewBox="0 0 32 32">
  <g id="Group_19670" data-name="Group 19670" transform="translate(-356 -579)">
    <g id="phone_2_" data-name="phone (2)" transform="translate(364 557)">
      <path id="Path_14922" data-name="Path 14922" d="M187.969,31h-3.717a3.253,3.253,0,0,0-.465,6.472V38.9a.465.465,0,0,0,.793.328L186.3,37.5h1.666a3.253,3.253,0,1,0,0-6.5Zm-3.717,3.717a.465.465,0,1,1,.465-.465A.465.465,0,0,1,184.252,34.717Zm1.859,0a.465.465,0,1,1,.465-.465A.465.465,0,0,1,186.111,34.717Zm1.859,0a.465.465,0,1,1,.465-.465A.465.465,0,0,1,187.969,34.717Z" transform="translate(-175.393)" fill="#276cf6"/>
      <path id="Path_14923" data-name="Path 14923" d="M10.439,111.8a1.4,1.4,0,0,0,1.394-1.394v-1.859a.464.464,0,0,0-.318-.441l-2.781-.929a.465.465,0,0,0-.4.054l-1.182.788a8.178,8.178,0,0,1-3.335-3.335L4.6,103.5a.465.465,0,0,0,.054-.4l-.929-2.781A.464.464,0,0,0,3.283,100H1.394A1.39,1.39,0,0,0,0,101.387C0,106.741,5.085,111.8,10.439,111.8Z" transform="translate(0 -66.863)" fill="#276cf6"/>
    </g>
    <circle id="Ellipse_1737" data-name="Ellipse 1737" cx="15.5" cy="15.5" r="15.5" transform="translate(356.5 579.5)" fill="none" stroke="#276cf6" stroke-width="1"/>
  </g>
</svg>
