<svg xmlns="http://www.w3.org/2000/svg" width="70" height="70" viewBox="0 0 70 70">
  <g id="_192-smile" data-name="192-smile" transform="translate(-0.5 -0.016)">
    <circle id="Ellipse_1528" data-name="Ellipse 1528" cx="35" cy="35" r="35" transform="translate(0.5 0.016)" fill="#ffd93b"/>
    <path id="Path_11969" data-name="Path 11969" d="M118.624,302.49a22.22,22.22,0,0,1-21.537-16.738,1.447,1.447,0,1,1,2.8-.717,19.328,19.328,0,0,0,37.461,0,1.448,1.448,0,1,1,2.807.717A22.216,22.216,0,0,1,118.624,302.49Z" transform="translate(-83.976 -245.501)" fill="#3e4347"/>
    <path id="Path_11970" data-name="Path 11970" d="M118.535,83.777A34.76,34.76,0,0,1,56.72,105.6,34.76,34.76,0,0,0,105.6,56.72,34.721,34.721,0,0,1,118.535,83.777Z" transform="translate(-49.129 -49.129)" fill="#f4c534"/>
    <ellipse id="Ellipse_1529" data-name="Ellipse 1529" cx="5.327" cy="6.33" rx="5.327" ry="6.33" transform="translate(18.097 23.471)" fill="#3e4347"/>
    <path id="Path_11971" data-name="Path 11971" d="M179.088,196.837a1.148,1.148,0,0,1-1.534-.365.992.992,0,1,1,1.488-1.217A1.152,1.152,0,0,1,179.088,196.837Z" transform="translate(-153.262 -168.397)" fill="#5a5f63"/>
    <ellipse id="Ellipse_1530" data-name="Ellipse 1530" cx="5.327" cy="6.33" rx="5.327" ry="6.33" transform="translate(40.553 23.471)" fill="#3e4347"/>
    <path id="Path_11972" data-name="Path 11972" d="M344.448,196.837a1.148,1.148,0,0,1-1.534-.365.992.992,0,1,1,1.488-1.217A1.152,1.152,0,0,1,344.448,196.837Z" transform="translate(-296.17 -168.397)" fill="#5a5f63"/>
  </g>
</svg>
