<svg xmlns="http://www.w3.org/2000/svg" width="28" height="29.258" viewBox="0 0 28 29.258">
  <g id="driver" transform="translate(-11 0)">
    <path id="Path_14931" data-name="Path 14931" d="M37.216,42.842a14,14,0,1,0-24.432,0Z" transform="translate(0 -20.743)" fill="#f6f4f5"/>
    <path id="Path_14932" data-name="Path 14932" d="M67.9,82.137h-.53v-1.7a2.252,2.252,0,0,0,2.238-2.245V73.8a2.252,2.252,0,0,0-2.245-2.245H57.644A2.252,2.252,0,0,0,55.4,73.8v4.384a2.252,2.252,0,0,0,2.238,2.245v1.7h-.53a6.348,6.348,0,0,0-6.329,6.329v1.1H74.232v-1.1A6.348,6.348,0,0,0,67.9,82.137Zm-1.885,0H58.993v-1.7h7.025Z" transform="translate(-37.505 -67.469)" fill="#f6f6f6"/>
    <path id="Path_14933" data-name="Path 14933" d="M65.665,291.7a4.419,4.419,0,0,0-3.982-3.15,2.366,2.366,0,0,1-1.039-.435,13.142,13.142,0,0,0-3.539-1.4,2.019,2.019,0,0,1-.419-.655l-3.3,3.025-3.343-2.93a1.968,1.968,0,0,1-.351.533l-.025.027a13.11,13.11,0,0,0-3.539,1.4,2.365,2.365,0,0,1-1.039.435A4.419,4.419,0,0,0,41.1,291.7a14,14,0,0,0,24.56,0Z" transform="translate(-28.385 -269.715)" fill="#e0467c"/>
    <g id="Group_18042" data-name="Group 18042" transform="translate(21.657 14.573)">
      <path id="Path_14934" data-name="Path 14934" d="M203.811,255.027a6.354,6.354,0,0,1-.916.876,3.358,3.358,0,0,1-4.111,0,6.35,6.35,0,0,1-.916-.876,5.081,5.081,0,0,1-.371,1.869l3.343,2.93,3.3-3.025A5.277,5.277,0,0,1,203.811,255.027Z" transform="translate(-197.496 -255.027)" fill="#f9bd91"/>
    </g>
    <path id="Path_14935" data-name="Path 14935" d="M197.866,255.027a5.081,5.081,0,0,1-.371,1.869l2.016,1.767.3-2.218a3.34,3.34,0,0,1-1.03-.542A6.353,6.353,0,0,1,197.866,255.027Z" transform="translate(-175.838 -240.454)" fill="#e5a876"/>
    <path id="Path_14936" data-name="Path 14936" d="M41.105,332.634a14.043,14.043,0,0,0,2.073,2.853,9.925,9.925,0,0,1,1.986-6.011l-.077.008A4.419,4.419,0,0,0,41.105,332.634Z" transform="translate(-28.385 -310.649)" fill="#d92662"/>
    <g id="Group_18043" data-name="Group 18043" transform="translate(19.473 0)">
      <path id="Path_14937" data-name="Path 14937" d="M171.237,136.752Z" transform="translate(-170.554 -128.937)" fill="#494970"/>
      <path id="Path_14938" data-name="Path 14938" d="M163.792.063c-3.062.417-3.353,2.153-3.354,2.79a.351.351,0,0,1-.194.316c-1.593.775-.734,4.509-.734,4.509a1.3,1.3,0,0,1,.452.136,2.737,2.737,0,0,1,.151-.559,2.342,2.342,0,0,1,.2-.409,1.256,1.256,0,0,0,.192-.768c-.057-.779-.03-2.314,1-2.777a3.787,3.787,0,0,1,2.621.062,2.163,2.163,0,0,0,1.365,0,3.787,3.787,0,0,1,2.621-.062c1.025.461,1.056,1.989,1,2.77a1.268,1.268,0,0,0,.192.774,2.357,2.357,0,0,1,.21.422,2.736,2.736,0,0,1,.146.545,1.087,1.087,0,0,1,.575-.132c.024-.817.1-1.7.1-1.7C171.243,1.541,167.089-.386,163.792.063Z" transform="translate(-159.278 0)" fill="#494970"/>
    </g>
    <g id="Group_18045" data-name="Group 18045" transform="translate(19.473 0.024)">
      <path id="Path_14939" data-name="Path 14939" d="M171.237,136.752Z" transform="translate(-170.554 -128.962)" fill="#3a3a60"/>
      <g id="Group_18044" data-name="Group 18044">
        <path id="Path_14940" data-name="Path 14940" d="M164.156.425c-.122.01-.244.023-.364.039-3.062.417-3.353,2.153-3.354,2.79a.351.351,0,0,1-.194.316c-1.593.775-.734,4.509-.734,4.509a1.3,1.3,0,0,1,.452.136c.153-.954.6-1.026.548-1.735-.057-.779-.03-2.314,1-2.777a3.555,3.555,0,0,1,2.351-.022A1.9,1.9,0,0,1,164.156.425Z" transform="translate(-159.278 -0.425)" fill="#3a3a60"/>
      </g>
    </g>
    <path id="Path_14941" data-name="Path 14941" d="M337.843,134.251a.864.864,0,0,0-.919.026,2.884,2.884,0,0,1,.009.85l-.242,1.765c0,.142,0,.282-.013.419.591.178.885-.352.934-.716a2.711,2.711,0,0,1,.1-.462C337.874,135.642,338.441,134.8,337.843,134.251Z" transform="translate(-307.068 -126.463)" fill="#f9bd91"/>
    <path id="Path_14942" data-name="Path 14942" d="M337.426,134.251a.892.892,0,0,0-.935.026,2.837,2.837,0,0,1,.009.85l-.247,1.765c0,.142,0,.282-.013.419a.759.759,0,0,0,.95-.716,2.676,2.676,0,0,1,.106-.462C337.457,135.642,338.034,134.8,337.426,134.251Z" transform="translate(-306.655 -126.463)" fill="#f9bd91"/>
    <g id="Group_18046" data-name="Group 18046" transform="translate(29.585 9.399)">
      <path id="Path_14943" data-name="Path 14943" d="M336.382,164.588l-.129.923c0,.142,0,.282-.013.419a.759.759,0,0,0,.95-.716,2.568,2.568,0,0,1,.213-.733A.689.689,0,0,1,336.382,164.588Z" transform="translate(-336.24 -164.481)" fill="#e5a876"/>
    </g>
    <path id="Path_14944" data-name="Path 14944" d="M150.526,134.251a.892.892,0,0,1,.935.026,2.839,2.839,0,0,0-.009.85l.247,1.765c0,.142,0,.282.013.419a.759.759,0,0,1-.95-.716,2.674,2.674,0,0,0-.106-.462C150.5,135.642,149.918,134.8,150.526,134.251Z" transform="translate(-131.296 -126.463)" fill="#f9bd91"/>
    <g id="Group_18047" data-name="Group 18047" transform="translate(19.252 9.399)">
      <path id="Path_14945" data-name="Path 14945" d="M156.426,164.588l.129.923q0,.213.013.419a.759.759,0,0,1-.95-.716,2.569,2.569,0,0,0-.213-.733A.689.689,0,0,0,156.426,164.588Z" transform="translate(-155.404 -164.481)" fill="#e5a876"/>
    </g>
    <path id="Path_14946" data-name="Path 14946" d="M179.844,57.74a2.362,2.362,0,0,0-.21-.423,1.272,1.272,0,0,1-.192-.776c.057-.783.026-2.314-1-2.776a3.8,3.8,0,0,0-2.627.062,2.169,2.169,0,0,1-1.368,0,3.8,3.8,0,0,0-2.627-.062c-1.031.464-1.058,2-1,2.783a1.259,1.259,0,0,1-.193.769,2.353,2.353,0,0,0-.205.41,2.829,2.829,0,0,0-.16,1.411l.243,1.77a6.5,6.5,0,0,0,2.513,5.17,3.452,3.452,0,0,0,4.227,0,6.5,6.5,0,0,0,2.513-5.17L180,59.138A2.832,2.832,0,0,0,179.844,57.74Z" transform="translate(-150.133 -50.491)" fill="#fcd2ae"/>
    <g id="Group_18048" data-name="Group 18048" transform="translate(20.099 3.06)">
      <path id="Path_14947" data-name="Path 14947" d="M174.774,66.079a7.389,7.389,0,0,1-1.883-5.17l-.182-1.77a3.717,3.717,0,0,1,.12-1.411,2.715,2.715,0,0,1,.154-.41,1.6,1.6,0,0,0,.144-.769c-.043-.781-.022-2.319.75-2.783A1.433,1.433,0,0,1,174,53.7a3.421,3.421,0,0,0-2.183.067c-1.031.464-1.058,2-1,2.783a1.259,1.259,0,0,1-.193.769,2.351,2.351,0,0,0-.205.41,2.829,2.829,0,0,0-.16,1.411l.243,1.77a6.5,6.5,0,0,0,2.513,5.17,3.452,3.452,0,0,0,2.815.651A2.349,2.349,0,0,1,174.774,66.079Z" transform="translate(-170.233 -53.552)" fill="#f9bd91"/>
    </g>
    <g id="Group_18049" data-name="Group 18049" transform="translate(23.43 19.275)">
      <path id="Path_14948" data-name="Path 14948" d="M230.129,337.335l-.029.027-.05-.044-1.52.657.517.691a1.009,1.009,0,0,1,.168.349l1.174-1.329Z" transform="translate(-228.53 -337.318)" fill="#e88aab"/>
    </g>
    <g id="Group_18050" data-name="Group 18050" transform="translate(20.042 16.115)">
      <path id="Path_14949" data-name="Path 14949" d="M171.073,282.059a.175.175,0,0,0-.224-.021l-1.552,1.08a.167.167,0,0,0-.033.244l2.435,2.919a.621.621,0,0,0,.838.107l1.647-1.178Z" transform="translate(-169.225 -282.007)" fill="#f571a0"/>
    </g>
    <g id="Group_18051" data-name="Group 18051" transform="translate(20.034 16.115)">
      <path id="Path_14950" data-name="Path 14950" d="M170.95,282.059a.175.175,0,0,0-.224-.021l-1.566,1.09a.151.151,0,0,0-.03.221l1.412,1.692c0-.021,0-.042,0-.064a1.4,1.4,0,0,1,2.071-1.236Z" transform="translate(-169.095 -282.007)" fill="#e88aab"/>
    </g>
    <path id="Path_14951" data-name="Path 14951" d="M240.3,338.08l-.755,1.027a1.011,1.011,0,0,0-.2.6v4.012a.265.265,0,0,0,.265.265h1.273a.265.265,0,0,0,.265-.265v-3.662a1.011,1.011,0,0,1,.2-.605l.517-.691Z" transform="translate(-215.303 -318.761)" fill="#d92662"/>
    <g id="Group_18052" data-name="Group 18052" transform="translate(25 16.115)">
      <path id="Path_14952" data-name="Path 14952" d="M259.335,282.038a.175.175,0,0,0-.224.021L256,285.211l1.647,1.178a.621.621,0,0,0,.838-.107l2.446-2.933a.151.151,0,0,0-.03-.221Z" transform="translate(-256 -282.007)" fill="#e88aab"/>
    </g>
    <path id="Path_14953" data-name="Path 14953" d="M341.865,384.451l-.585.249a1.21,1.21,0,0,1-1.583-.636l-.128-.3a1.21,1.21,0,0,1,.636-1.583l.585-.249a1.21,1.21,0,0,1,1.583.636l.128.3A1.21,1.21,0,0,1,341.865,384.451Z" transform="translate(-309.702 -360.016)" fill="#e5a876"/>
    <path id="Path_14954" data-name="Path 14954" d="M115.778,384.451l.585.249a1.21,1.21,0,0,0,1.583-.636l.128-.3a1.21,1.21,0,0,0-.636-1.583l-.585-.249a1.21,1.21,0,0,0-1.583.636l-.128.3A1.21,1.21,0,0,0,115.778,384.451Z" transform="translate(-98.1 -360.016)" fill="#e5a876"/>
    <path id="Path_14955" data-name="Path 14955" d="M168.724,366.226a6.876,6.876,0,0,1,7.7.035l1.232-1.947a9.181,9.181,0,0,0-10.167-.034Z" transform="translate(-147.55 -342.032)" fill="#494970"/>
    <g id="Group_18053" data-name="Group 18053" transform="translate(19.943 21.314)">
      <path id="Path_14956" data-name="Path 14956" d="M169.124,374.548a1.292,1.292,0,0,1,.2-1.555,9.15,9.15,0,0,0-1.832.934l1.231,1.946a6.854,6.854,0,0,1,1.326-.693A1.29,1.29,0,0,1,169.124,374.548Z" transform="translate(-167.494 -372.993)" fill="#3a3a60"/>
    </g>
    <path id="Path_14957" data-name="Path 14957" d="M323.061,388.9l-1.259,1.928a6.912,6.912,0,0,1,1.222,1.019,1.341,1.341,0,0,1,.317,1.33A1.162,1.162,0,0,0,324,394.6h0a14,14,0,0,0,2.525-1.534A9.213,9.213,0,0,0,323.061,388.9Z" transform="translate(-293.042 -366.674)" fill="#fff"/>
    <path id="Path_14958" data-name="Path 14958" d="M107.581,393.069a14,14,0,0,0,2.525,1.534h0a1.162,1.162,0,0,0,.656-1.43,1.341,1.341,0,0,1,.317-1.33,6.915,6.915,0,0,1,1.222-1.019l-1.259-1.928A9.213,9.213,0,0,0,107.581,393.069Z" transform="translate(-91.062 -366.673)" fill="#fff"/>
    <path id="Path_14959" data-name="Path 14959" d="M209.526,465.279a14.059,14.059,0,0,0,2.817-.284,2.831,2.831,0,0,0-3.87-2.345l-.013.005c-.051.021-.1.043-.151.067l-.038.018c-.055.027-.109.055-.162.086a2.83,2.83,0,0,0-1.4,2.121c0,.016,0,.032,0,.048A14.058,14.058,0,0,0,209.526,465.279Z" transform="translate(-184.525 -436.022)" fill="#494970"/>
    <path id="Path_14960" data-name="Path 14960" d="M360.352,396.155l-1.21.516a1.3,1.3,0,0,0-.683,1.7l1.04,2.438a14.061,14.061,0,0,0,3.177-2.509l-.623-1.461A1.3,1.3,0,0,0,360.352,396.155Z" transform="translate(-327.506 -373.42)" fill="#fcd2ae"/>
    <path id="Path_14961" data-name="Path 14961" d="M359.142,398.922a1.3,1.3,0,0,0-.683,1.7l1.04,2.438a14.018,14.018,0,0,0,1.413-.934l-.928-2.175a1.382,1.382,0,0,1,.291-1.511Z" transform="translate(-327.506 -375.671)" fill="#f9bd91"/>
    <path id="Path_14962" data-name="Path 14962" d="M79.611,396.671l-1.21-.516a1.3,1.3,0,0,0-1.7.683l-.573,1.343a14.062,14.062,0,0,0,3.159,2.552l1.008-2.362A1.3,1.3,0,0,0,79.611,396.671Z" transform="translate(-61.406 -373.42)" fill="#fcd2ae"/>
    <path id="Path_14963" data-name="Path 14963" d="M78.4,396.155a1.3,1.3,0,0,0-1.7.683l-.573,1.343a14.074,14.074,0,0,0,1.377,1.3l.793-1.858a1.427,1.427,0,0,1,1.509-.849,1.286,1.286,0,0,0-.2-.105Z" transform="translate(-61.407 -373.42)" fill="#f9bd91"/>
  </g>
</svg>
