<svg width="272" height="272" viewBox="0 0 272 272" fill="none" xmlns="http://www.w3.org/2000/svg">
<path fill-rule="evenodd" clip-rule="evenodd" d="M221 151.371H51V230.047C51 233.8 53.4608 237.111 57.0563 238.19C74.137 243.311 122.17 257.723 133.556 261.14C135.15 261.616 136.85 261.616 138.444 261.14C149.83 257.723 197.863 243.311 214.944 238.19C218.539 237.111 221 233.8 221 230.047C221 210.344 221 151.371 221 151.371Z" fill="url(#paint0_linear_6404_30)"/>
<path fill-rule="evenodd" clip-rule="evenodd" d="M221 151.371H136C136 151.371 135.175 261.497 136 261.497C136.824 261.497 137.645 261.378 138.444 261.14C149.829 257.723 197.863 243.311 214.944 238.19C218.539 237.111 221 233.8 221 230.047C221 210.344 221 151.371 221 151.371Z" fill="url(#paint1_linear_6404_30)"/>
<path fill-rule="evenodd" clip-rule="evenodd" d="M136 178.949L51.0001 151.371C51.0001 151.371 36.0954 173.471 29.4314 183.348C28.6834 184.457 28.5006 185.847 28.9341 187.109C29.3719 188.372 30.3706 189.353 31.6414 189.77C47.7871 195.014 95.5826 210.544 108.12 214.615C109.918 215.202 111.89 214.526 112.952 212.958C118.652 204.547 136 178.949 136 178.949Z" fill="url(#paint2_linear_6404_30)"/>
<path fill-rule="evenodd" clip-rule="evenodd" d="M221 151.371L136 178.949C136 178.949 153.349 204.547 159.048 212.958C160.11 214.526 162.082 215.202 163.88 214.615C176.418 210.544 224.213 195.014 240.359 189.77C241.63 189.353 242.628 188.372 243.066 187.109C243.5 185.847 243.317 184.457 242.569 183.348C235.905 173.471 221 151.371 221 151.371Z" fill="url(#paint3_linear_6404_30)"/>
<path fill-rule="evenodd" clip-rule="evenodd" d="M115.426 93.4404C114.363 91.8807 112.395 91.2049 110.598 91.7914C98.0687 95.8587 50.2605 111.392 34.1147 116.641C32.844 117.053 31.841 118.035 31.4075 119.297C30.974 120.56 31.1567 121.954 31.9047 123.059C38.0417 132.162 51 151.372 51 151.372L136 123.7C136 123.7 120.734 101.248 115.426 93.4404Z" fill="url(#paint4_linear_6404_30)"/>
<path fill-rule="evenodd" clip-rule="evenodd" d="M240.095 123.059C240.843 121.954 241.026 120.56 240.593 119.297C240.159 118.035 239.156 117.053 237.885 116.641C221.739 111.392 173.931 95.8587 161.402 91.7914C159.605 91.2049 157.637 91.8807 156.574 93.4404C151.266 101.248 136 123.7 136 123.7L221 151.372C221 151.372 233.958 132.162 240.095 123.059Z" fill="url(#paint5_linear_6404_30)"/>
<path fill-rule="evenodd" clip-rule="evenodd" d="M221 151.371L136 123.699L51 151.371L136 178.949L221 151.371Z" fill="url(#paint6_linear_6404_30)"/>
<path fill-rule="evenodd" clip-rule="evenodd" d="M136 178.949V123.699L51 151.371L136 178.949Z" fill="url(#paint7_linear_6404_30)"/>
<path fill-rule="evenodd" clip-rule="evenodd" d="M118.924 135.906C117.156 134.75 115.562 133.513 114.147 132.217C112.421 130.632 109.731 130.747 108.141 132.476C106.556 134.202 106.671 136.892 108.401 138.477C110.139 140.075 112.098 141.597 114.274 143.021C116.238 144.304 118.873 143.752 120.156 141.788C121.44 139.825 120.887 137.19 118.924 135.906Z" fill="#8DA3BE"/>
<path fill-rule="evenodd" clip-rule="evenodd" d="M105.681 122.85C104.418 121.137 103.352 119.416 102.476 117.694C101.414 115.603 98.8508 114.77 96.7598 115.833C94.6688 116.895 93.8358 119.458 94.8983 121.549C95.9778 123.666 97.2868 125.786 98.8381 127.89C100.228 129.777 102.888 130.181 104.78 128.791C106.667 127.397 107.07 124.737 105.681 122.85Z" fill="#8DA3BE"/>
<path fill-rule="evenodd" clip-rule="evenodd" d="M99.467 105.506C99.5095 103.793 99.7603 102.132 100.219 100.538C100.865 98.2853 99.5605 95.9265 97.3038 95.2805C95.0513 94.6345 92.6925 95.9393 92.0465 98.196C91.3963 100.474 91.0308 102.85 90.967 105.294C90.9118 107.64 92.7648 109.59 95.1108 109.646C97.4568 109.705 99.4075 107.852 99.467 105.506Z" fill="#8DA3BE"/>
<path fill-rule="evenodd" clip-rule="evenodd" d="M106.003 91.3108C107.096 90.2993 108.32 89.3643 109.658 88.5185C111.643 87.2648 112.238 84.6383 110.989 82.6578C109.735 80.673 107.108 80.078 105.124 81.3275C103.326 82.4623 101.694 83.716 100.228 85.076C98.5064 86.6698 98.4044 89.36 99.9982 91.0813C101.592 92.8025 104.282 92.9045 106.003 91.3108Z" fill="#8DA3BE"/>
<path fill-rule="evenodd" clip-rule="evenodd" d="M121.809 83.9799C123.947 83.5847 126.212 83.3297 128.601 83.2319C130.947 83.1299 132.766 81.1452 132.668 78.8034C132.57 76.4617 130.586 74.6384 128.24 74.7362C125.435 74.8552 122.774 75.1569 120.262 75.6202C117.959 76.0494 116.429 78.2679 116.858 80.5714C117.283 82.8792 119.502 84.4049 121.809 83.9799Z" fill="#8DA3BE"/>
<path fill-rule="evenodd" clip-rule="evenodd" d="M143.96 83.729C147.586 83.7715 150.96 83.644 154.092 83.3678C156.43 83.1595 158.16 81.094 157.951 78.7565C157.743 76.4233 155.678 74.6935 153.34 74.9018C150.471 75.1525 147.382 75.2715 144.058 75.229C141.712 75.2035 139.787 77.0863 139.761 79.428C139.732 81.774 141.614 83.7035 143.96 83.729Z" fill="#8DA3BE"/>
<path fill-rule="evenodd" clip-rule="evenodd" d="M168.062 80.7632C172.269 79.4755 175.822 77.8265 178.797 75.9353C180.774 74.673 181.36 72.0465 180.098 70.066C178.84 68.0897 176.209 67.5032 174.229 68.7655C171.836 70.287 168.967 71.596 165.576 72.633C163.336 73.3215 162.069 75.6973 162.758 77.9413C163.442 80.1853 165.822 81.4475 168.062 80.7632Z" fill="#8DA3BE"/>
<path fill-rule="evenodd" clip-rule="evenodd" d="M189.695 64.0382C191.701 59.8902 192.47 55.5042 192.274 51.2754C192.164 48.9294 190.171 47.1189 187.829 47.2294C185.487 47.3399 183.672 49.3289 183.783 51.6707C183.919 54.5437 183.4 57.5229 182.04 60.3407C181.02 62.4529 181.904 64.9987 184.017 66.0187C186.129 67.0387 188.675 66.1504 189.695 64.0382Z" fill="#8DA3BE"/>
<path fill-rule="evenodd" clip-rule="evenodd" d="M186.987 36.2484C183.889 32.0621 179.686 29.1466 175.104 28.2074C172.805 27.7399 170.557 29.2189 170.085 31.5181C169.618 33.8174 171.101 36.0656 173.396 36.5374C176.039 37.0771 178.368 38.8919 180.158 41.3101C181.556 43.1929 184.221 43.5881 186.103 42.1941C187.99 40.7959 188.386 38.1311 186.987 36.2484Z" fill="#8DA3BE"/>
<path fill-rule="evenodd" clip-rule="evenodd" d="M131.465 29.0309C136.064 2.99116 175.916 4.67416 152.715 29.0309H131.465Z" fill="url(#paint8_linear_6404_30)"/>
<path fill-rule="evenodd" clip-rule="evenodd" d="M131.465 35.627C136.064 61.6625 175.916 59.9837 152.715 35.627H131.465Z" fill="url(#paint9_linear_6404_30)"/>
<path fill-rule="evenodd" clip-rule="evenodd" d="M131.083 36.6211H159.541C161.887 36.6211 163.791 34.7171 163.791 32.3711C163.791 30.0251 161.887 28.1211 159.541 28.1211H131.083C128.741 28.1211 126.833 30.0251 126.833 32.3711C126.833 34.7171 128.741 36.6211 131.083 36.6211Z" fill="#8DA3BE"/>
<defs>
<linearGradient id="paint0_linear_6404_30" x1="51" y1="206.434" x2="221" y2="206.434" gradientUnits="userSpaceOnUse">
<stop stop-color="#CADCF0"/>
<stop offset="1" stop-color="#A1A1A1"/>
</linearGradient>
<linearGradient id="paint1_linear_6404_30" x1="135.634" y1="206.434" x2="221" y2="206.434" gradientUnits="userSpaceOnUse">
<stop stop-color="#DFECFF"/>
<stop offset="1" stop-color="#CCCCCC"/>
</linearGradient>
<linearGradient id="paint2_linear_6404_30" x1="51.5654" y1="151.337" x2="63.4451" y2="229.934" gradientUnits="userSpaceOnUse">
<stop stop-color="#E9F3FC"/>
<stop offset="1" stop-color="#CADCF0"/>
</linearGradient>
<linearGradient id="paint3_linear_6404_30" x1="136.344" y1="178.66" x2="225.95" y2="230.195" gradientUnits="userSpaceOnUse">
<stop stop-color="#E9F3FC"/>
<stop offset="1" stop-color="#CADCF0"/>
</linearGradient>
<linearGradient id="paint4_linear_6404_30" x1="39.8735" y1="134.878" x2="52.6959" y2="74.4332" gradientUnits="userSpaceOnUse">
<stop stop-color="#E9F3FC"/>
<stop offset="1" stop-color="#CADCF0"/>
</linearGradient>
<linearGradient id="paint5_linear_6404_30" x1="158.755" y1="90.7672" x2="163.339" y2="165.375" gradientUnits="userSpaceOnUse">
<stop stop-color="#E9F3FC"/>
<stop offset="1" stop-color="#CADCF0"/>
</linearGradient>
<linearGradient id="paint6_linear_6404_30" x1="51" y1="151.324" x2="221" y2="151.324" gradientUnits="userSpaceOnUse">
<stop stop-color="#CADCF0"/>
<stop offset="1" stop-color="#A4BBDB"/>
</linearGradient>
<linearGradient id="paint7_linear_6404_30" x1="144.704" y1="122.462" x2="146.536" y2="191.113" gradientUnits="userSpaceOnUse">
<stop stop-color="#A4BBDB"/>
<stop offset="1" stop-color="#8DA3BE"/>
</linearGradient>
<linearGradient id="paint8_linear_6404_30" x1="131.465" y1="19.5789" x2="159.919" y2="19.5789" gradientUnits="userSpaceOnUse">
<stop stop-color="#E9F3FC"/>
<stop offset="1" stop-color="#CADCF0"/>
</linearGradient>
<linearGradient id="paint9_linear_6404_30" x1="131.465" y1="45.079" x2="159.919" y2="45.079" gradientUnits="userSpaceOnUse">
<stop stop-color="#E9F3FC"/>
<stop offset="1" stop-color="#CADCF0"/>
</linearGradient>
</defs>
</svg>
