<svg xmlns="http://www.w3.org/2000/svg" width="70.003" height="64.281" viewBox="0 0 70.003 64.281">
  <g id="_047-phone-call" data-name="047-phone-call" transform="translate(0 -20.927)">
    <circle id="Ellipse_1524" data-name="Ellipse 1524" cx="31.049" cy="31.049" r="31.049" transform="translate(7.905 20.927)" fill="#ffd93b"/>
    <path id="Path_11948" data-name="Path 11948" d="M163.358,95.416a31.05,31.05,0,0,1-55.217,19.494A31.051,31.051,0,0,0,151.8,71.247,31.011,31.011,0,0,1,163.358,95.416Z" transform="translate(-93.355 -43.44)" fill="#f4c534"/>
    <path id="Path_11949" data-name="Path 11949" d="M17.452,161.973l8.3,14.377a13.061,13.061,0,0,1-6.132,1.1,5.308,5.308,0,0,1-3.553-1.682Q-.39,158.111,3.552,133.628a5.284,5.284,0,0,1,2.069-3.415,13.071,13.071,0,0,1,5.71-2.406l.9,16.578s-1.608-.179-2.616-.252a1.153,1.153,0,0,0-1.157.623,39.8,39.8,0,0,0,5.637,18.971,1.153,1.153,0,0,0,1.31-.112C16.2,163,17.452,161.973,17.452,161.973Z" transform="translate(-2.409 -92.267)" fill="#d03f3f"/>
    <g id="Group_16943" data-name="Group 16943" transform="translate(8.743 35.267)">
      <path id="Path_11950" data-name="Path 11950" d="M67.977,127.172l.777,14.357a.435.435,0,0,1-.158.361,4.867,4.867,0,0,1-3.332,1.186.438.438,0,0,1-.433-.416l-.886-16.39a.442.442,0,0,1,.442-.464,4.829,4.829,0,0,1,3.456,1.072A.451.451,0,0,1,67.977,127.172Z" transform="translate(-63.945 -125.807)" fill="#e24b4b"/>
      <path id="Path_11951" data-name="Path 11951" d="M119.58,380.5l-7.191-12.452a.441.441,0,0,0-.328-.217,4.885,4.885,0,0,0-3.439.825.44.44,0,0,0-.136.586l8.208,14.215a.442.442,0,0,0,.623.147,4.837,4.837,0,0,0,2.31-2.785A.441.441,0,0,0,119.58,380.5Z" transform="translate(-102.346 -334.703)" fill="#e24b4b"/>
    </g>
    <path id="Path_11952" data-name="Path 11952" d="M151.336,147.258c0,5-3.076,9.035-6.9,9.035-3.8,0-6.876-4.036-6.876-9.035s3.078-9.035,6.876-9.035C148.258,138.223,151.336,142.261,151.336,147.258Z" transform="translate(-118.756 -101.259)" fill="#fff"/>
    <circle id="Ellipse_1525" data-name="Ellipse 1525" cx="3.537" cy="3.537" r="3.537" transform="translate(22.151 44.47)" fill="#3e4347"/>
    <ellipse id="Ellipse_1526" data-name="Ellipse 1526" cx="1.148" cy="0.689" rx="1.148" ry="0.689" transform="translate(27.423 48.024) rotate(-135)" fill="#fff"/>
    <g id="Group_16944" data-name="Group 16944" transform="translate(0 23.316)">
      <path id="Path_11953" data-name="Path 11953" d="M316.277,182.3c-1.73,1.549-2.312,1.048-4.233,1.418-12.1.392-14.782,10.857-10.431-3.688-.153,1.811-.35,3.6-.545,5.39C304.6,181.888,313.227,178.34,316.277,182.3Z" transform="translate(-258.688 -160.666)" fill="#3e4347"/>
      <path id="Path_11954" data-name="Path 11954" d="M189.767,292.766c-1.072.816,1.214,4.375,6.184,6.806,6.2,3.03,14.825,3.944,18.857-1.658,3.859-5.366,1.326-13.156-.271-11.8-1.536,1.389-5.036,5.228-9.017,7.558C196.971,298.677,190.456,291.442,189.767,292.766Z" transform="translate(-163.597 -252.111)" fill="#3e4347"/>
      <path id="Path_11955" data-name="Path 11955" d="M308.154,123.258a1.469,1.469,0,0,1-1.724,1.179c-7.377-1.418-15.189,2.706-15.276,2.75a1.475,1.475,0,0,1-1.4-2.6c.372-.175,8.816-4.649,17.219-3.056A1.469,1.469,0,0,1,308.154,123.258Z" transform="translate(-249.474 -109.872)" fill="#3e4347"/>
      <path id="Path_11956" data-name="Path 11956" d="M3.882,67.962.115,62.053a.74.74,0,0,1,1.247-.8l3.767,5.909a.74.74,0,0,1-1.247.8Z" transform="translate(0 -57.837)" fill="#3e4347"/>
      <path id="Path_11957" data-name="Path 11957" d="M45.776,47.416,45,39.206a.738.738,0,0,1,1.47-.14l.774,8.21a.737.737,0,1,1-1.468.14Z" transform="translate(-38.843 -38.399)" fill="#3e4347"/>
      <path id="Path_11958" data-name="Path 11958" d="M75.228,51.173a.74.74,0,0,1-.394-.967l3.124-7.444a.738.738,0,1,1,1.361.571L76.2,50.778A.74.74,0,0,1,75.228,51.173Z" transform="translate(-64.552 -41.773)" fill="#3e4347"/>
      <path id="Path_11959" data-name="Path 11959" d="M135.078,67.049a1.47,1.47,0,0,1-1.789,1.07c-10.431-2.6-14.6,4.824-14.751,5.15a1.5,1.5,0,0,1-2.01.588,1.473,1.473,0,0,1-.61-1.986c.066-.088,5.368-9.776,18.092-6.613A1.471,1.471,0,0,1,135.078,67.049Z" transform="translate(-99.923 -61.037)" fill="#3e4347"/>
    </g>
    <path id="Path_11960" data-name="Path 11960" d="M266.925,363.384c5.456,1.544,11.5,1.2,14.7-3.211a5.629,5.629,0,0,0-6.578-1.713,9.2,9.2,0,0,1-2.833.512A5.216,5.216,0,0,0,266.925,363.384Z" transform="translate(-230.43 -291.035)" fill="#e24b4b"/>
  </g>
</svg>
