<svg xmlns="http://www.w3.org/2000/svg" width="65.593" height="70.001" viewBox="0 0 65.593 70.001">
  <g id="_166-happy-3" data-name="166-happy-3" transform="translate(-16.12)">
    <circle id="Ellipse_1527" data-name="Ellipse 1527" cx="32.796" cy="32.796" r="32.796" transform="translate(16.12 0)" fill="#ffd93b"/>
    <path id="Path_11961" data-name="Path 11961" d="M127.647,78.705a32.617,32.617,0,0,1-6.84,20.05v15.072a2.078,2.078,0,0,1-3.049,1.84l-11.639-6.145a32.289,32.289,0,0,1-11.259,1.995A32.662,32.662,0,0,1,69.336,99.293a32.791,32.791,0,0,0,46.109-46.109A32.693,32.693,0,0,1,127.647,78.705Z" transform="translate(-45.941 -45.913)" fill="#f4c534"/>
    <path id="Path_11962" data-name="Path 11962" d="M111.466,130.461a9.8,9.8,0,1,1-9.811-9.789A9.788,9.788,0,0,1,111.466,130.461Z" transform="translate(-65.389 -104.174)" fill="#fff"/>
    <path id="Path_11963" data-name="Path 11963" d="M138.229,162.244a4.766,4.766,0,1,1-4.777-4.756A4.758,4.758,0,0,1,138.229,162.244Z" transform="translate(-97.185 -135.957)" fill="#3e4347"/>
    <g id="Group_16945" data-name="Group 16945" transform="translate(36.875 16.498)">
      <path id="Path_11964" data-name="Path 11964" d="M170.073,173.119c-.337.337-1.067.168-1.61-.374-.525-.525-.693-1.253-.357-1.59s1.067-.168,1.59.357C170.242,172.052,170.41,172.782,170.073,173.119Z" transform="translate(-167.932 -164.102)" fill="#fff"/>
      <path id="Path_11965" data-name="Path 11965" d="M296.362,130.461a9.8,9.8,0,1,1-9.811-9.789A9.788,9.788,0,0,1,296.362,130.461Z" transform="translate(-261.882 -120.672)" fill="#fff"/>
    </g>
    <path id="Path_11966" data-name="Path 11966" d="M323.109,162.244a4.766,4.766,0,1,1-4.777-4.756A4.758,4.758,0,0,1,323.109,162.244Z" transform="translate(-256.789 -135.957)" fill="#3e4347"/>
    <path id="Path_11967" data-name="Path 11967" d="M354.953,173.119c-.337.337-1.068.168-1.61-.374-.525-.525-.693-1.253-.357-1.59s1.067-.168,1.59.357C355.122,172.052,355.29,172.782,354.953,173.119Z" transform="translate(-290.661 -147.605)" fill="#fff"/>
    <path id="Path_11968" data-name="Path 11968" d="M168.572,321.247a19.758,19.758,0,0,1-32.473.133.962.962,0,0,1,1.256-1.391c9.8,5.359,19.781,5.27,29.986-.158A.963.963,0,0,1,168.572,321.247Z" transform="translate(-103.421 -276.004)" fill="#3e4347"/>
  </g>
</svg>
