<svg width="346" height="346" viewBox="0 0 346 346" fill="none" xmlns="http://www.w3.org/2000/svg">
<path d="M131.241 0H119.311V11.9307H131.241V0Z" fill="#173303"/>
<path d="M155.101 0H143.17V11.9307H155.101V0Z" fill="#173303"/>
<path d="M178.97 0H167.039V11.9307H178.97V0Z" fill="#173303"/>
<path d="M190.884 0H178.953V11.9307H190.884V0Z" fill="#173303"/>
<path d="M214.753 0H202.822V11.9307H214.753V0Z" fill="#173303"/>
<path d="M226.677 0H214.746V11.9307H226.677V0Z" fill="#173303"/>
<path d="M238.612 0H226.682V11.9307H238.612V0Z" fill="#173303"/>
<path d="M143.169 11.9238H131.238V23.8545H143.169V11.9238Z" fill="#173303"/>
<path d="M155.101 11.9238H143.17V23.8545H155.101V11.9238Z" fill="#173303"/>
<path d="M167.034 11.9238H155.104V23.8545H167.034V11.9238Z" fill="#173303"/>
<path d="M190.884 11.9238H178.953V23.8545H190.884V11.9238Z" fill="#173303"/>
<path d="M214.753 11.9238H202.822V23.8545H214.753V11.9238Z" fill="#173303"/>
<path d="M250.544 11.9238H238.613V23.8545H250.544V11.9238Z" fill="#173303"/>
<path d="M119.31 23.8613H107.379V35.792H119.31V23.8613Z" fill="#173303"/>
<path d="M143.169 23.8613H131.238V35.792H143.169V23.8613Z" fill="#173303"/>
<path d="M155.101 23.8613H143.17V35.792H155.101V23.8613Z" fill="#173303"/>
<path d="M214.753 23.8613H202.822V35.792H214.753V23.8613Z" fill="#173303"/>
<path d="M226.677 23.8613H214.746V35.792H226.677V23.8613Z" fill="#173303"/>
<path d="M238.612 23.8613H226.682V35.792H238.612V23.8613Z" fill="#173303"/>
<path d="M119.31 35.7891H107.379V47.7198H119.31V35.7891Z" fill="#173303"/>
<path d="M178.97 35.7891H167.039V47.7198H178.97V35.7891Z" fill="#173303"/>
<path d="M226.677 35.7891H214.746V47.7198H226.677V35.7891Z" fill="#173303"/>
<path d="M238.612 35.7891H226.682V47.7198H238.612V35.7891Z" fill="#173303"/>
<path d="M119.31 47.7266H107.379V59.6573H119.31V47.7266Z" fill="#173303"/>
<path d="M143.169 47.7266H131.238V59.6573H143.169V47.7266Z" fill="#173303"/>
<path d="M155.101 47.7266H143.17V59.6573H155.101V47.7266Z" fill="#173303"/>
<path d="M167.034 47.7266H155.104V59.6573H167.034V47.7266Z" fill="#173303"/>
<path d="M190.884 47.7266H178.953V59.6573H190.884V47.7266Z" fill="#173303"/>
<path d="M226.677 47.7266H214.746V59.6573H226.677V47.7266Z" fill="#173303"/>
<path d="M107.378 59.6504H95.4473V71.5811H107.378V59.6504Z" fill="#173303"/>
<path d="M119.31 59.6504H107.379V71.5811H119.31V59.6504Z" fill="#173303"/>
<path d="M143.169 59.6504H131.238V71.5811H143.169V59.6504Z" fill="#173303"/>
<path d="M155.101 59.6504H143.17V71.5811H155.101V59.6504Z" fill="#173303"/>
<path d="M178.97 59.6504H167.039V71.5811H178.97V59.6504Z" fill="#173303"/>
<path d="M190.884 59.6504H178.953V71.5811H190.884V59.6504Z" fill="#173303"/>
<path d="M226.677 59.6504H214.746V71.5811H226.677V59.6504Z" fill="#173303"/>
<path d="M238.612 59.6504H226.682V71.5811H238.612V59.6504Z" fill="#173303"/>
<path d="M250.544 59.6504H238.613V71.5811H250.544V59.6504Z" fill="#173303"/>
<path d="M107.378 71.584H95.4473V83.5147H107.378V71.584Z" fill="#173303"/>
<path d="M131.241 71.584H119.311V83.5147H131.241V71.584Z" fill="#173303"/>
<path d="M155.101 71.584H143.17V83.5147H155.101V71.584Z" fill="#173303"/>
<path d="M178.97 71.584H167.039V83.5147H178.97V71.584Z" fill="#173303"/>
<path d="M202.817 71.584H190.887V83.5147H202.817V71.584Z" fill="#173303"/>
<path d="M226.677 71.584H214.746V83.5147H226.677V71.584Z" fill="#173303"/>
<path d="M250.544 71.584H238.613V83.5147H250.544V71.584Z" fill="#173303"/>
<path d="M131.241 83.5137H119.311V95.4444H131.241V83.5137Z" fill="#173303"/>
<path d="M143.169 83.5137H131.238V95.4444H143.169V83.5137Z" fill="#173303"/>
<path d="M202.817 83.5137H190.887V95.4444H202.817V83.5137Z" fill="#173303"/>
<path d="M214.753 83.5137H202.822V95.4444H214.753V83.5137Z" fill="#173303"/>
<path d="M226.677 83.5137H214.746V95.4444H226.677V83.5137Z" fill="#173303"/>
<path d="M250.544 83.5137H238.613V95.4444H250.544V83.5137Z" fill="#173303"/>
<path d="M11.9307 95.4434H0V107.374H11.9307V95.4434Z" fill="#173303"/>
<path d="M47.7198 95.4434H35.7891V107.374H47.7198V95.4434Z" fill="#173303"/>
<path d="M71.5811 95.4434H59.6504V107.374H71.5811V95.4434Z" fill="#173303"/>
<path d="M83.5147 95.4434H71.584V107.374H83.5147V95.4434Z" fill="#173303"/>
<path d="M107.378 95.4434H95.4473V107.374H107.378V95.4434Z" fill="#173303"/>
<path d="M131.241 95.4434H119.311V107.374H131.241V95.4434Z" fill="#173303"/>
<path d="M155.101 95.4434H143.17V107.374H155.101V95.4434Z" fill="#173303"/>
<path d="M167.034 95.4434H155.104V107.374H167.034V95.4434Z" fill="#173303"/>
<path d="M178.97 95.4434H167.039V107.374H178.97V95.4434Z" fill="#173303"/>
<path d="M250.544 95.4434H238.613V107.374H250.544V95.4434Z" fill="#173303"/>
<path d="M262.476 95.4434H250.545V107.374H262.476V95.4434Z" fill="#173303"/>
<path d="M286.341 95.4434H274.41V107.374H286.341V95.4434Z" fill="#173303"/>
<path d="M11.9307 107.379H0V119.31H11.9307V107.379Z" fill="#173303"/>
<path d="M71.5811 107.379H59.6504V119.31H71.5811V107.379Z" fill="#173303"/>
<path d="M95.4444 107.379H83.5137V119.31H95.4444V107.379Z" fill="#173303"/>
<path d="M143.169 107.379H131.238V119.31H143.169V107.379Z" fill="#173303"/>
<path d="M167.034 107.379H155.104V119.31H167.034V107.379Z" fill="#173303"/>
<path d="M202.817 107.379H190.887V119.31H202.817V107.379Z" fill="#173303"/>
<path d="M250.544 107.379H238.613V119.31H250.544V107.379Z" fill="#173303"/>
<path d="M262.476 107.379H250.545V119.31H262.476V107.379Z" fill="#173303"/>
<path d="M274.413 107.379H262.482V119.31H274.413V107.379Z" fill="#173303"/>
<path d="M310.194 107.379H298.264V119.31H310.194V107.379Z" fill="#173303"/>
<path d="M345.999 107.379H334.068V119.31H345.999V107.379Z" fill="#173303"/>
<path d="M11.9307 119.307H0V131.237H11.9307V119.307Z" fill="#173303"/>
<path d="M71.5811 119.307H59.6504V131.237H71.5811V119.307Z" fill="#173303"/>
<path d="M83.5147 119.307H71.584V131.237H83.5147V119.307Z" fill="#173303"/>
<path d="M131.241 119.307H119.311V131.237H131.241V119.307Z" fill="#173303"/>
<path d="M167.034 119.307H155.104V131.237H167.034V119.307Z" fill="#173303"/>
<path d="M178.97 119.307H167.039V131.237H178.97V119.307Z" fill="#173303"/>
<path d="M202.817 119.307H190.887V131.237H202.817V119.307Z" fill="#173303"/>
<path d="M214.753 119.307H202.822V131.237H214.753V119.307Z" fill="#173303"/>
<path d="M238.612 119.307H226.682V131.237H238.612V119.307Z" fill="#173303"/>
<path d="M262.476 119.307H250.545V131.237H262.476V119.307Z" fill="#173303"/>
<path d="M310.194 119.307H298.264V131.237H310.194V119.307Z" fill="#173303"/>
<path d="M322.126 119.307H310.195V131.237H322.126V119.307Z" fill="#173303"/>
<path d="M334.056 119.307H322.125V131.237H334.056V119.307Z" fill="#173303"/>
<path d="M11.9307 131.238H0V143.169H11.9307V131.238Z" fill="#173303"/>
<path d="M47.7198 131.238H35.7891V143.169H47.7198V131.238Z" fill="#173303"/>
<path d="M71.5811 131.238H59.6504V143.169H71.5811V131.238Z" fill="#173303"/>
<path d="M107.378 131.238H95.4473V143.169H107.378V131.238Z" fill="#173303"/>
<path d="M119.31 131.238H107.379V143.169H119.31V131.238Z" fill="#173303"/>
<path d="M167.034 131.238H155.104V143.169H167.034V131.238Z" fill="#173303"/>
<path d="M190.884 131.238H178.953V143.169H190.884V131.238Z" fill="#173303"/>
<path d="M202.817 131.238H190.887V143.169H202.817V131.238Z" fill="#173303"/>
<path d="M238.612 131.238H226.682V143.169H238.612V131.238Z" fill="#173303"/>
<path d="M250.544 131.238H238.613V143.169H250.544V131.238Z" fill="#173303"/>
<path d="M262.476 131.238H250.545V143.169H262.476V131.238Z" fill="#173303"/>
<path d="M274.413 131.238H262.482V143.169H274.413V131.238Z" fill="#173303"/>
<path d="M286.341 131.238H274.41V143.169H286.341V131.238Z" fill="#173303"/>
<path d="M298.269 131.238H286.338V143.169H298.269V131.238Z" fill="#173303"/>
<path d="M322.126 131.238H310.195V143.169H322.126V131.238Z" fill="#173303"/>
<path d="M334.056 131.238H322.125V143.169H334.056V131.238Z" fill="#173303"/>
<path d="M59.6573 143.17H47.7266V155.101H59.6573V143.17Z" fill="#173303"/>
<path d="M71.5811 143.17H59.6504V155.101H71.5811V143.17Z" fill="#173303"/>
<path d="M83.5147 143.17H71.584V155.101H83.5147V143.17Z" fill="#173303"/>
<path d="M95.4444 143.17H83.5137V155.101H95.4444V143.17Z" fill="#173303"/>
<path d="M119.31 143.17H107.379V155.101H119.31V143.17Z" fill="#173303"/>
<path d="M131.241 143.17H119.311V155.101H131.241V143.17Z" fill="#173303"/>
<path d="M143.169 143.17H131.238V155.101H143.169V143.17Z" fill="#173303"/>
<path d="M155.101 143.17H143.17V155.101H155.101V143.17Z" fill="#173303"/>
<path d="M167.034 143.17H155.104V155.101H167.034V143.17Z" fill="#173303"/>
<path d="M214.753 143.17H202.822V155.101H214.753V143.17Z" fill="#173303"/>
<path d="M226.677 143.17H214.746V155.101H226.677V143.17Z" fill="#173303"/>
<path d="M238.612 143.17H226.682V155.101H238.612V143.17Z" fill="#173303"/>
<path d="M250.544 143.17H238.613V155.101H250.544V143.17Z" fill="#173303"/>
<path d="M262.476 143.17H250.545V155.101H262.476V143.17Z" fill="#173303"/>
<path d="M274.413 143.17H262.482V155.101H274.413V143.17Z" fill="#173303"/>
<path d="M310.194 143.17H298.264V155.101H310.194V143.17Z" fill="#173303"/>
<path d="M334.056 143.17H322.125V155.101H334.056V143.17Z" fill="#173303"/>
<path d="M345.999 143.17H334.068V155.101H345.999V143.17Z" fill="#173303"/>
<path d="M11.9307 155.104H0V167.034H11.9307V155.104Z" fill="#173303"/>
<path d="M35.792 155.104H23.8613V167.034H35.792V155.104Z" fill="#173303"/>
<path d="M47.7198 155.104H35.7891V167.034H47.7198V155.104Z" fill="#173303"/>
<path d="M71.5811 155.104H59.6504V167.034H71.5811V155.104Z" fill="#173303"/>
<path d="M155.101 155.104H143.17V167.034H155.101V155.104Z" fill="#173303"/>
<path d="M167.034 155.104H155.104V167.034H167.034V155.104Z" fill="#173303"/>
<path d="M238.612 155.104H226.682V167.034H238.612V155.104Z" fill="#173303"/>
<path d="M250.544 155.104H238.613V167.034H250.544V155.104Z" fill="#173303"/>
<path d="M286.341 155.104H274.41V167.034H286.341V155.104Z" fill="#173303"/>
<path d="M35.792 167.039H23.8613V178.97H35.792V167.039Z" fill="#173303"/>
<path d="M47.7198 167.039H35.7891V178.97H47.7198V167.039Z" fill="#173303"/>
<path d="M83.5147 167.039H71.584V178.97H83.5147V167.039Z" fill="#173303"/>
<path d="M119.31 167.039H107.379V178.97H119.31V167.039Z" fill="#173303"/>
<path d="M167.034 167.039H155.104V178.97H167.034V167.039Z" fill="#173303"/>
<path d="M178.97 167.039H167.039V178.97H178.97V167.039Z" fill="#173303"/>
<path d="M250.544 167.039H238.613V178.97H250.544V167.039Z" fill="#173303"/>
<path d="M262.476 167.039H250.545V178.97H262.476V167.039Z" fill="#173303"/>
<path d="M274.413 167.039H262.482V178.97H274.413V167.039Z" fill="#173303"/>
<path d="M310.194 167.039H298.264V178.97H310.194V167.039Z" fill="#173303"/>
<path d="M322.126 167.039H310.195V178.97H322.126V167.039Z" fill="#173303"/>
<path d="M334.056 167.039H322.125V178.97H334.056V167.039Z" fill="#173303"/>
<path d="M345.999 167.039H334.068V178.97H345.999V167.039Z" fill="#173303"/>
<path d="M23.8545 178.953H11.9238V190.884H23.8545V178.953Z" fill="#173303"/>
<path d="M47.7198 178.953H35.7891V190.884H47.7198V178.953Z" fill="#173303"/>
<path d="M59.6573 178.953H47.7266V190.884H59.6573V178.953Z" fill="#173303"/>
<path d="M107.378 178.953H95.4473V190.884H107.378V178.953Z" fill="#173303"/>
<path d="M119.31 178.953H107.379V190.884H119.31V178.953Z" fill="#173303"/>
<path d="M131.241 178.953H119.311V190.884H131.241V178.953Z" fill="#173303"/>
<path d="M143.169 178.953H131.238V190.884H143.169V178.953Z" fill="#173303"/>
<path d="M167.034 178.953H155.104V190.884H167.034V178.953Z" fill="#173303"/>
<path d="M202.817 178.953H190.887V190.884H202.817V178.953Z" fill="#173303"/>
<path d="M214.753 178.953H202.822V190.884H214.753V178.953Z" fill="#173303"/>
<path d="M310.194 178.953H298.264V190.884H310.194V178.953Z" fill="#173303"/>
<path d="M334.056 178.953H322.125V190.884H334.056V178.953Z" fill="#173303"/>
<path d="M11.9307 190.887H0V202.817H11.9307V190.887Z" fill="#173303"/>
<path d="M23.8545 190.887H11.9238V202.817H23.8545V190.887Z" fill="#173303"/>
<path d="M35.792 190.887H23.8613V202.817H35.792V190.887Z" fill="#173303"/>
<path d="M47.7198 190.887H35.7891V202.817H47.7198V190.887Z" fill="#173303"/>
<path d="M59.6573 190.887H47.7266V202.817H59.6573V190.887Z" fill="#173303"/>
<path d="M83.5147 190.887H71.584V202.817H83.5147V190.887Z" fill="#173303"/>
<path d="M95.4444 190.887H83.5137V202.817H95.4444V190.887Z" fill="#173303"/>
<path d="M107.378 190.887H95.4473V202.817H107.378V190.887Z" fill="#173303"/>
<path d="M190.884 190.887H178.953V202.817H190.884V190.887Z" fill="#173303"/>
<path d="M214.753 190.887H202.822V202.817H214.753V190.887Z" fill="#173303"/>
<path d="M250.544 190.887H238.613V202.817H250.544V190.887Z" fill="#173303"/>
<path d="M262.476 190.887H250.545V202.817H262.476V190.887Z" fill="#173303"/>
<path d="M286.341 190.887H274.41V202.817H286.341V190.887Z" fill="#173303"/>
<path d="M334.056 190.887H322.125V202.817H334.056V190.887Z" fill="#173303"/>
<path d="M23.8545 202.822H11.9238V214.753H23.8545V202.822Z" fill="#173303"/>
<path d="M59.6573 202.822H47.7266V214.753H59.6573V202.822Z" fill="#173303"/>
<path d="M95.4444 202.822H83.5137V214.753H95.4444V202.822Z" fill="#173303"/>
<path d="M107.378 202.822H95.4473V214.753H107.378V202.822Z" fill="#173303"/>
<path d="M131.241 202.822H119.311V214.753H131.241V202.822Z" fill="#173303"/>
<path d="M143.169 202.822H131.238V214.753H143.169V202.822Z" fill="#173303"/>
<path d="M155.101 202.822H143.17V214.753H155.101V202.822Z" fill="#173303"/>
<path d="M167.034 202.822H155.104V214.753H167.034V202.822Z" fill="#173303"/>
<path d="M178.97 202.822H167.039V214.753H178.97V202.822Z" fill="#173303"/>
<path d="M202.817 202.822H190.887V214.753H202.817V202.822Z" fill="#173303"/>
<path d="M274.413 202.822H262.482V214.753H274.413V202.822Z" fill="#173303"/>
<path d="M286.341 202.822H274.41V214.753H286.341V202.822Z" fill="#173303"/>
<path d="M310.194 202.822H298.264V214.753H310.194V202.822Z" fill="#173303"/>
<path d="M345.999 202.822H334.068V214.753H345.999V202.822Z" fill="#173303"/>
<path d="M11.9307 214.746H0V226.677H11.9307V214.746Z" fill="#173303"/>
<path d="M35.792 214.746H23.8613V226.677H35.792V214.746Z" fill="#173303"/>
<path d="M59.6573 214.746H47.7266V226.677H59.6573V214.746Z" fill="#173303"/>
<path d="M83.5147 214.746H71.584V226.677H83.5147V214.746Z" fill="#173303"/>
<path d="M143.169 214.746H131.238V226.677H143.169V214.746Z" fill="#173303"/>
<path d="M155.101 214.746H143.17V226.677H155.101V214.746Z" fill="#173303"/>
<path d="M214.753 214.746H202.822V226.677H214.753V214.746Z" fill="#173303"/>
<path d="M226.677 214.746H214.746V226.677H226.677V214.746Z" fill="#173303"/>
<path d="M250.544 214.746H238.613V226.677H250.544V214.746Z" fill="#173303"/>
<path d="M274.413 214.746H262.482V226.677H274.413V214.746Z" fill="#173303"/>
<path d="M286.341 214.746H274.41V226.677H286.341V214.746Z" fill="#173303"/>
<path d="M334.056 214.746H322.125V226.677H334.056V214.746Z" fill="#173303"/>
<path d="M345.999 214.746H334.068V226.677H345.999V214.746Z" fill="#173303"/>
<path d="M47.7198 226.68H35.7891V238.61H47.7198V226.68Z" fill="#173303"/>
<path d="M71.5811 226.68H59.6504V238.61H71.5811V226.68Z" fill="#173303"/>
<path d="M95.4444 226.68H83.5137V238.61H95.4444V226.68Z" fill="#173303"/>
<path d="M119.31 226.68H107.379V238.61H119.31V226.68Z" fill="#173303"/>
<path d="M131.241 226.68H119.311V238.61H131.241V226.68Z" fill="#173303"/>
<path d="M214.753 226.68H202.822V238.61H214.753V226.68Z" fill="#173303"/>
<path d="M226.677 226.68H214.746V238.61H226.677V226.68Z" fill="#173303"/>
<path d="M238.612 226.68H226.682V238.61H238.612V226.68Z" fill="#173303"/>
<path d="M250.544 226.68H238.613V238.61H250.544V226.68Z" fill="#173303"/>
<path d="M334.056 226.68H322.125V238.61H334.056V226.68Z" fill="#173303"/>
<path d="M345.999 226.68H334.068V238.61H345.999V226.68Z" fill="#173303"/>
<path d="M11.9307 238.611H0V250.542H11.9307V238.611Z" fill="#173303"/>
<path d="M47.7198 238.613H35.7891V250.544H47.7198V238.613Z" fill="#173303"/>
<path d="M59.6573 238.613H47.7266V250.544H59.6573V238.613Z" fill="#173303"/>
<path d="M83.5147 238.613H71.584V250.544H83.5147V238.613Z" fill="#173303"/>
<path d="M95.4444 238.613H83.5137V250.544H95.4444V238.613Z" fill="#173303"/>
<path d="M107.378 238.613H95.4473V250.544H107.378V238.613Z" fill="#173303"/>
<path d="M119.31 238.611H107.379V250.542H119.31V238.611Z" fill="#173303"/>
<path d="M143.169 238.611H131.238V250.542H143.169V238.611Z" fill="#173303"/>
<path d="M190.884 238.613H178.953V250.544H190.884V238.613Z" fill="#173303"/>
<path d="M202.817 238.613H190.887V250.544H202.817V238.613Z" fill="#173303"/>
<path d="M238.612 238.613H226.682V250.544H238.612V238.613Z" fill="#173303"/>
<path d="M250.544 238.613H238.613V250.544H250.544V238.613Z" fill="#173303"/>
<path d="M262.476 238.613H250.545V250.544H262.476V238.613Z" fill="#173303"/>
<path d="M274.413 238.611H262.482V250.542H274.413V238.611Z" fill="#173303"/>
<path d="M286.341 238.613H274.41V250.544H286.341V238.613Z" fill="#173303"/>
<path d="M298.269 238.611H286.338V250.542H298.269V238.611Z" fill="#173303"/>
<path d="M322.126 238.613H310.195V250.544H322.126V238.613Z" fill="#173303"/>
<path d="M107.378 250.543H95.4473V262.474H107.378V250.543Z" fill="#173303"/>
<path d="M119.31 250.543H107.379V262.474H119.31V250.543Z" fill="#173303"/>
<path d="M131.241 250.543H119.311V262.474H131.241V250.543Z" fill="#173303"/>
<path d="M143.169 250.543H131.238V262.474H143.169V250.543Z" fill="#173303"/>
<path d="M155.101 250.543H143.17V262.474H155.101V250.543Z" fill="#173303"/>
<path d="M238.612 250.543H226.682V262.474H238.612V250.543Z" fill="#173303"/>
<path d="M250.544 250.543H238.613V262.474H250.544V250.543Z" fill="#173303"/>
<path d="M298.269 250.543H286.338V262.474H298.269V250.543Z" fill="#173303"/>
<path d="M322.126 250.543H310.195V262.474H322.126V250.543Z" fill="#173303"/>
<path d="M334.056 250.543H322.125V262.474H334.056V250.543Z" fill="#173303"/>
<path d="M345.999 250.543H334.068V262.474H345.999V250.543Z" fill="#173303"/>
<path d="M131.241 262.482H119.311V274.413H131.241V262.482Z" fill="#173303"/>
<path d="M143.169 262.482H131.238V274.413H143.169V262.482Z" fill="#173303"/>
<path d="M202.817 262.482H190.887V274.413H202.817V262.482Z" fill="#173303"/>
<path d="M214.753 262.482H202.822V274.413H214.753V262.482Z" fill="#173303"/>
<path d="M250.544 262.482H238.613V274.413H250.544V262.482Z" fill="#173303"/>
<path d="M274.413 262.482H262.482V274.413H274.413V262.482Z" fill="#173303"/>
<path d="M298.269 262.482H286.338V274.413H298.269V262.482Z" fill="#173303"/>
<path d="M334.056 262.482H322.125V274.413H334.056V262.482Z" fill="#173303"/>
<path d="M107.378 274.41H95.4473V286.341H107.378V274.41Z" fill="#173303"/>
<path d="M131.241 274.41H119.311V286.341H131.241V274.41Z" fill="#173303"/>
<path d="M143.169 274.41H131.238V286.341H143.169V274.41Z" fill="#173303"/>
<path d="M178.97 274.41H167.039V286.341H178.97V274.41Z" fill="#173303"/>
<path d="M226.677 274.41H214.746V286.341H226.677V274.41Z" fill="#173303"/>
<path d="M250.544 274.41H238.613V286.341H250.544V274.41Z" fill="#173303"/>
<path d="M298.269 274.41H286.338V286.341H298.269V274.41Z" fill="#173303"/>
<path d="M310.194 274.41H298.264V286.341H310.194V274.41Z" fill="#173303"/>
<path d="M322.126 274.41H310.195V286.341H322.126V274.41Z" fill="#173303"/>
<path d="M131.241 286.338H119.311V298.269H131.241V286.338Z" fill="#173303"/>
<path d="M143.169 286.338H131.238V298.269H143.169V286.338Z" fill="#173303"/>
<path d="M155.101 286.338H143.17V298.269H155.101V286.338Z" fill="#173303"/>
<path d="M190.884 286.338H178.953V298.269H190.884V286.338Z" fill="#173303"/>
<path d="M202.817 286.338H190.887V298.269H202.817V286.338Z" fill="#173303"/>
<path d="M214.753 286.338H202.822V298.269H214.753V286.338Z" fill="#173303"/>
<path d="M226.677 286.338H214.746V298.269H226.677V286.338Z" fill="#173303"/>
<path d="M250.544 286.338H238.613V298.269H250.544V286.338Z" fill="#173303"/>
<path d="M262.476 286.338H250.545V298.269H262.476V286.338Z" fill="#173303"/>
<path d="M274.413 286.338H262.482V298.269H274.413V286.338Z" fill="#173303"/>
<path d="M286.341 286.338H274.41V298.269H286.341V286.338Z" fill="#173303"/>
<path d="M298.269 286.338H286.338V298.269H298.269V286.338Z" fill="#173303"/>
<path d="M107.378 298.264H95.4473V310.194H107.378V298.264Z" fill="#173303"/>
<path d="M119.31 298.264H107.379V310.194H119.31V298.264Z" fill="#173303"/>
<path d="M155.101 298.264H143.17V310.194H155.101V298.264Z" fill="#173303"/>
<path d="M167.034 298.264H155.104V310.194H167.034V298.264Z" fill="#173303"/>
<path d="M238.612 298.264H226.682V310.194H238.612V298.264Z" fill="#173303"/>
<path d="M250.544 298.264H238.613V310.194H250.544V298.264Z" fill="#173303"/>
<path d="M274.413 298.264H262.482V310.194H274.413V298.264Z" fill="#173303"/>
<path d="M298.269 298.264H286.338V310.194H298.269V298.264Z" fill="#173303"/>
<path d="M310.194 298.264H298.264V310.194H310.194V298.264Z" fill="#173303"/>
<path d="M322.126 298.264H310.195V310.194H322.126V298.264Z" fill="#173303"/>
<path d="M334.056 298.264H322.125V310.194H334.056V298.264Z" fill="#173303"/>
<path d="M119.31 310.195H107.379V322.126H119.31V310.195Z" fill="#173303"/>
<path d="M131.241 310.195H119.311V322.126H131.241V310.195Z" fill="#173303"/>
<path d="M143.169 310.195H131.238V322.126H143.169V310.195Z" fill="#173303"/>
<path d="M167.034 310.195H155.104V322.126H167.034V310.195Z" fill="#173303"/>
<path d="M178.97 310.195H167.039V322.126H178.97V310.195Z" fill="#173303"/>
<path d="M238.612 310.195H226.682V322.126H238.612V310.195Z" fill="#173303"/>
<path d="M250.544 310.195H238.613V322.126H250.544V310.195Z" fill="#173303"/>
<path d="M298.269 310.195H286.338V322.126H298.269V310.195Z" fill="#173303"/>
<path d="M310.194 310.195H298.264V322.126H310.194V310.195Z" fill="#173303"/>
<path d="M322.126 310.195H310.195V322.126H322.126V310.195Z" fill="#173303"/>
<path d="M345.999 310.195H334.068V322.126H345.999V310.195Z" fill="#173303"/>
<path d="M119.31 322.125H107.379V334.056H119.31V322.125Z" fill="#173303"/>
<path d="M131.241 322.125H119.311V334.056H131.241V322.125Z" fill="#173303"/>
<path d="M155.101 322.125H143.17V334.056H155.101V322.125Z" fill="#173303"/>
<path d="M167.034 322.125H155.104V334.056H167.034V322.125Z" fill="#173303"/>
<path d="M190.884 322.125H178.953V334.056H190.884V322.125Z" fill="#173303"/>
<path d="M202.817 322.125H190.887V334.056H202.817V322.125Z" fill="#173303"/>
<path d="M214.753 322.125H202.822V334.056H214.753V322.125Z" fill="#173303"/>
<path d="M238.612 322.125H226.682V334.056H238.612V322.125Z" fill="#173303"/>
<path d="M250.544 322.125H238.613V334.056H250.544V322.125Z" fill="#173303"/>
<path d="M262.476 322.125H250.545V334.056H262.476V322.125Z" fill="#173303"/>
<path d="M274.413 322.125H262.482V334.056H274.413V322.125Z" fill="#173303"/>
<path d="M298.269 322.125H286.338V334.056H298.269V322.125Z" fill="#173303"/>
<path d="M334.056 322.125H322.125V334.056H334.056V322.125Z" fill="#173303"/>
<path d="M107.378 334.068H95.4473V345.999H107.378V334.068Z" fill="#173303"/>
<path d="M119.31 334.068H107.379V345.999H119.31V334.068Z" fill="#173303"/>
<path d="M155.101 334.068H143.17V345.999H155.101V334.068Z" fill="#173303"/>
<path d="M202.817 334.068H190.887V345.999H202.817V334.068Z" fill="#173303"/>
<path d="M214.753 334.068H202.822V345.999H214.753V334.068Z" fill="#173303"/>
<path d="M250.544 334.068H238.613V345.999H250.544V334.068Z" fill="#173303"/>
<path d="M262.476 334.068H250.545V345.999H262.476V334.068Z" fill="#173303"/>
<path d="M286.341 334.068H274.41V345.999H286.341V334.068Z" fill="#173303"/>
<path d="M298.269 334.068H286.338V345.999H298.269V334.068Z" fill="#173303"/>
<path d="M334.056 334.068H322.125V345.999H334.056V334.068Z" fill="#173303"/>
<path d="M70.9877 0H12.5272H0V12.5272V70.9877V83.5149H12.5272H70.9877H83.5149V70.9877V12.5272V0H70.9877ZM70.9877 70.9877H12.5272V12.5272H70.9877V70.9877Z" fill="#173303"/>
<path d="M333.476 0H275.016H262.488V12.5272V70.9877V83.5149H275.016H333.476H346.003V70.9877V12.5272V0H333.476ZM333.476 70.9877H275.016V12.5272H333.476V70.9877Z" fill="#173303"/>
<path d="M70.9877 262.488H12.5272H0V275.016V333.476V346.003H12.5272H70.9877H83.5149V333.476V275.016V262.488H70.9877ZM70.9877 333.476H12.5272V275.016H70.9877V333.476Z" fill="#173303"/>
<path d="M59.6535 23.8613H23.8613V59.6535H59.6535V23.8613Z" fill="#173303"/>
<path d="M322.13 23.8613H286.338V59.6535H322.13V23.8613Z" fill="#173303"/>
<path d="M59.6535 286.338H23.8613V322.13H59.6535V286.338Z" fill="#173303"/>
</svg>
