<svg width="208" height="42" viewBox="0 0 208 42" fill="none" xmlns="http://www.w3.org/2000/svg">
<path d="M2.19922 20.3002C2.19922 13.1002 7.59922 8.2002 14.5992 8.2002C19.6992 8.2002 22.6992 11.0002 24.3992 13.9002L20.0992 16.0002C19.0992 14.1002 16.9992 12.6002 14.5992 12.6002C10.3992 12.6002 7.29922 15.9002 7.29922 20.3002C7.29922 24.7002 10.3992 28.0002 14.5992 28.0002C16.9992 28.0002 19.0992 26.5002 20.0992 24.6002L24.3992 26.7002C22.6992 29.6002 19.7992 32.4002 14.5992 32.4002C7.59922 32.4002 2.19922 27.5002 2.19922 20.3002Z" fill="#9FE870"/>
<path d="M26.1992 23.5006C26.1992 18.7006 29.5992 14.6006 35.0992 14.6006C40.6992 14.6006 44.0992 18.7006 44.0992 23.5006C44.0992 28.3006 40.6992 32.4006 35.0992 32.4006C29.4992 32.4006 26.1992 28.4006 26.1992 23.5006ZM39.3992 23.5006C39.3992 20.9006 37.7992 18.6006 35.0992 18.6006C32.2992 18.6006 30.7992 20.9006 30.7992 23.5006C30.7992 26.2006 32.2992 28.4006 35.0992 28.4006C37.8992 28.5006 39.3992 26.2006 39.3992 23.5006Z" fill="#204356"/>
<path d="M47.2988 32.0002V8.7002H51.6988V32.0002H47.2988Z" fill="#204356"/>
<path d="M55.0996 23.5006C55.0996 18.7006 58.4996 14.6006 63.9996 14.6006C69.5996 14.6006 72.9996 18.7006 72.9996 23.5006C72.9996 28.3006 69.5996 32.4006 63.9996 32.4006C58.4996 32.4006 55.0996 28.4006 55.0996 23.5006ZM68.3996 23.5006C68.3996 20.9006 66.7996 18.6006 64.0996 18.6006C61.2996 18.6006 59.7996 20.9006 59.7996 23.5006C59.7996 26.2006 61.2996 28.4006 64.0996 28.4006C66.7996 28.5006 68.3996 26.2006 68.3996 23.5006Z" fill="#204356"/>
<path d="M76.2988 32.0002V15.1002H80.6988V17.4002C81.8988 15.9002 83.9988 14.7002 86.0988 14.7002V19.0002C85.7988 18.9002 85.3988 18.9002 84.8988 18.9002C83.3988 18.9002 81.4988 19.7002 80.6988 20.8002V32.0002H76.2988Z" fill="#204356"/>
<path d="M97.9004 32.0002V8.7002H108.8C113.9 8.7002 116.6 12.1002 116.6 16.2002C116.6 20.3002 113.8 23.7002 108.8 23.7002H102.8V32.0002H97.9004ZM111.6 16.2002C111.6 14.2002 110.1 13.0002 108.2 13.0002H102.9V19.3002H108.2C110.2 19.3002 111.6 18.1002 111.6 16.2002Z" fill="#9FE870"/>
<path d="M129.8 32.0006V30.2006C128.6 31.6006 126.6 32.4006 124.4 32.4006C121.7 32.4006 118.5 30.6006 118.5 26.8006C118.5 22.8006 121.7 21.3006 124.4 21.3006C126.6 21.3006 128.6 22.0006 129.8 23.4006V21.1006C129.8 19.4006 128.3 18.3006 126.1 18.3006C124.3 18.3006 122.6 19.0006 121.2 20.3006L119.5 17.3006C121.6 15.5006 124.2 14.6006 126.9 14.6006C130.8 14.6006 134.3 16.1006 134.3 21.0006V32.0006H129.8ZM129.8 27.9006V25.8006C129.1 24.8006 127.7 24.3006 126.2 24.3006C124.4 24.3006 123 25.2006 123 26.9006C123 28.5006 124.4 29.4006 126.2 29.4006C127.7 29.4006 129.1 28.9006 129.8 27.9006Z" fill="#204356"/>
<path d="M138.699 32.0002V8.7002H143.099V32.0002H138.699Z" fill="#204356"/>
<path d="M146.5 23.5006C146.5 18.6006 150.1 14.6006 155.3 14.6006C160.3 14.6006 163.8 18.4006 163.8 23.9006V24.9006H151.2C151.5 27.0006 153.2 28.8006 156.1 28.8006C157.5 28.8006 159.5 28.2006 160.6 27.1006L162.6 30.0006C160.9 31.5006 158.3 32.3006 155.6 32.3006C150.3 32.4006 146.5 29.0006 146.5 23.5006ZM155.2 18.2006C152.4 18.2006 151.2 20.3006 151 21.9006H159.3C159.3 20.3006 158.1 18.2006 155.2 18.2006Z" fill="#204356"/>
<path d="M167.8 27.8V19H165V15.1H167.8V10.5H172.3V15.1H175.7V19H172.3V26.6C172.3 27.6 172.9 28.5 173.8 28.5C174.5 28.5 175.1 28.3 175.3 28L176.2 31.4C175.5 32 174.3 32.5 172.5 32.5C169.4 32.4 167.8 30.8 167.8 27.8Z" fill="#204356"/>
<path d="M179.601 27.8V19H176.801V15.1H179.601V10.5H184.101V15.1H187.501V19H184.101V26.6C184.101 27.6 184.701 28.5 185.601 28.5C186.301 28.5 186.901 28.3 187.101 28L188.001 31.4C187.301 32 186.101 32.5 184.301 32.5C181.301 32.4 179.601 30.8 179.601 27.8Z" fill="#204356"/>
<path d="M189.5 23.5006C189.5 18.6006 193.1 14.6006 198.3 14.6006C203.3 14.6006 206.8 18.4006 206.8 23.9006V24.9006H194.2C194.5 27.0006 196.2 28.8006 199.1 28.8006C200.5 28.8006 202.5 28.2006 203.6 27.1006L205.6 30.0006C203.9 31.5006 201.3 32.3006 198.6 32.3006C193.4 32.4006 189.5 29.0006 189.5 23.5006ZM198.2 18.2006C195.4 18.2006 194.2 20.3006 194 21.9006H202.3C202.3 20.3006 201.2 18.2006 198.2 18.2006Z" fill="#204356"/>
</svg>
