<svg width="164" height="42" viewBox="0 0 164 42" fill="none" xmlns="http://www.w3.org/2000/svg">
<path d="M3.09961 32.0002V8.7002H19.5996V13.0002H8.09961V18.0002H19.3996V22.4002H8.09961V32.0002H3.09961Z" fill="#9FE870"/>
<path d="M21.9004 23.4996C21.9004 18.6996 25.3004 14.5996 30.8004 14.5996C36.4004 14.5996 39.8004 18.6996 39.8004 23.4996C39.8004 28.2996 36.4004 32.3996 30.8004 32.3996C25.2004 32.3996 21.9004 28.3996 21.9004 23.4996ZM35.2004 23.4996C35.2004 20.8996 33.6004 18.5996 30.9004 18.5996C28.1004 18.5996 26.6004 20.8996 26.6004 23.4996C26.6004 26.1996 28.1004 28.3996 30.9004 28.3996C33.6004 28.4996 35.2004 26.1996 35.2004 23.4996Z" fill="#204356"/>
<path d="M54.4996 32.0002V21.8002C54.4996 19.5002 53.2996 18.6002 51.3996 18.6002C49.5996 18.6002 48.2996 19.6002 47.4996 20.6002V32.0002H43.0996V15.1002H47.4996V17.3002C48.5996 16.0002 50.5996 14.7002 53.3996 14.7002C57.0996 14.7002 58.8996 16.8002 58.8996 20.1002V32.0002H54.4996Z" fill="#204356"/>
<path d="M64.2004 27.8V19H61.4004V15.1H64.2004V10.5H68.7004V15.1H72.1004V19H68.7004V26.6C68.7004 27.6 69.3004 28.5 70.2004 28.5C70.9004 28.5 71.5004 28.3 71.7004 28L72.6004 31.4C71.9004 32 70.7004 32.5 68.9004 32.5C65.9004 32.4 64.2004 30.8 64.2004 27.8Z" fill="#204356"/>
<path d="M82.5996 28.6998L85.2996 24.8998C86.8996 26.5998 89.4996 28.0998 92.6996 28.0998C95.3996 28.0998 96.7996 26.7998 96.7996 25.4998C96.7996 21.3998 83.3996 24.1998 83.3996 15.3998C83.3996 11.4998 86.7996 8.2998 92.2996 8.2998C95.9996 8.2998 99.0996 9.3998 101.4 11.5998L98.5996 15.1998C96.6996 13.3998 94.1996 12.5998 91.7996 12.5998C89.6996 12.5998 88.4996 13.4998 88.4996 14.8998C88.4996 18.5998 101.9 16.0998 101.9 24.7998C101.9 29.0998 98.8996 32.2998 92.5996 32.2998C87.9996 32.3998 84.7996 30.8998 82.5996 28.6998Z" fill="#9FE870"/>
<path d="M116.5 31.9996V29.8996C115.3 31.1996 113.3 32.4996 110.5 32.4996C106.8 32.4996 105 30.4996 105 27.1996V15.1996H109.4V25.4996C109.4 27.7996 110.6 28.5996 112.5 28.5996C114.2 28.5996 115.6 27.6996 116.4 26.6996V15.0996H120.8V31.9996H116.5Z" fill="#204356"/>
<path d="M124.9 10.6C124.9 9.1 126.1 8 127.6 8C129.1 8 130.3 9.2 130.3 10.6C130.3 12.1 129.1 13.3 127.6 13.3C126.2 13.3 124.9 12.1 124.9 10.6ZM125.4 32V15.1H129.8V32H125.4Z" fill="#204356"/>
<path d="M135.101 27.8V19H132.301V15.1H135.101V10.5H139.601V15.1H143.001V19H139.601V26.6C139.601 27.6 140.201 28.5 141.101 28.5C141.801 28.5 142.401 28.3 142.601 28L143.501 31.4C142.801 32 141.601 32.5 139.801 32.5C136.801 32.4 135.101 30.8 135.101 27.8Z" fill="#204356"/>
<path d="M145 23.4996C145 18.5996 148.6 14.5996 153.8 14.5996C158.8 14.5996 162.3 18.3996 162.3 23.8996V24.8996H149.7C150 26.9996 151.7 28.7996 154.6 28.7996C156 28.7996 158 28.1996 159.1 27.0996L161.1 29.9996C159.4 31.4996 156.8 32.2996 154.1 32.2996C148.9 32.3996 145 28.9996 145 23.4996ZM153.7 18.1996C150.9 18.1996 149.7 20.2996 149.5 21.8996H157.8C157.8 20.2996 156.7 18.1996 153.7 18.1996Z" fill="#204356"/>
</svg>
