<svg width="280" height="42" viewBox="0 0 280 42" fill="none" xmlns="http://www.w3.org/2000/svg">
<path d="M3.09961 22.7002V8.7002H8.09961V22.6002C8.09961 25.9002 9.99961 28.1002 13.5996 28.1002C17.1996 28.1002 19.0996 25.9002 19.0996 22.6002V8.7002H24.1996V22.7002C24.1996 28.5002 20.7996 32.5002 13.6996 32.5002C6.59961 32.4002 3.09961 28.4002 3.09961 22.7002Z" fill="#9FE870"/>
<path d="M27.1992 29.7992L29.0992 26.6992C30.2992 27.8992 32.7992 28.9992 34.8992 28.9992C36.7992 28.9992 37.6992 28.1992 37.6992 27.1992C37.6992 24.3992 27.6992 26.6992 27.6992 19.9992C27.6992 17.1992 30.1992 14.6992 34.5992 14.6992C37.4992 14.6992 39.6992 15.6992 41.3992 16.9992L39.5992 19.9992C38.5992 18.8992 36.6992 17.9992 34.5992 17.9992C32.9992 17.9992 31.8992 18.6992 31.8992 19.6992C31.8992 22.1992 41.8992 20.0992 41.8992 26.8992C41.8992 29.9992 39.2992 32.2992 34.5992 32.2992C31.7992 32.3992 28.9992 31.3992 27.1992 29.7992Z" fill="#204356"/>
<path d="M55.4992 31.9996V30.1996C54.2992 31.5996 52.2992 32.3996 50.0992 32.3996C47.3992 32.3996 44.1992 30.5996 44.1992 26.7996C44.1992 22.7996 47.3992 21.2996 50.0992 21.2996C52.2992 21.2996 54.2992 21.9996 55.4992 23.3996V21.0996C55.4992 19.3996 53.9992 18.2996 51.7992 18.2996C49.9992 18.2996 48.2992 18.9996 46.8992 20.2996L45.1992 17.2996C47.2992 15.4996 49.8992 14.5996 52.5992 14.5996C56.4992 14.5996 59.9992 16.0996 59.9992 20.9996V31.9996H55.4992ZM55.4992 27.8996V25.7996C54.7992 24.7996 53.3992 24.2996 51.8992 24.2996C50.0992 24.2996 48.6992 25.1996 48.6992 26.8996C48.6992 28.4996 50.0992 29.3996 51.8992 29.3996C53.3992 29.3996 54.7992 28.8996 55.4992 27.8996Z" fill="#204356"/>
<path d="M63.9988 36.2998L65.9988 33.0998C67.3988 34.5998 69.0988 35.1998 71.2988 35.1998C73.4988 35.1998 75.9988 34.2998 75.9988 30.9998V29.2998C74.6988 30.9998 72.7988 31.9998 70.7988 31.9998C66.5988 31.9998 63.2988 28.9998 63.2988 23.3998C63.2988 17.8998 66.4988 14.7998 70.7988 14.7998C72.7988 14.7998 74.6988 15.6998 75.9988 17.3998V15.1998H80.4988V30.9998C80.4988 37.3998 75.4988 38.9998 71.3988 38.9998C68.3988 38.8998 66.1988 38.1998 63.9988 36.2998ZM75.9988 25.9998V20.4998C75.2988 19.3998 73.6988 18.5998 72.1988 18.5998C69.6988 18.5998 67.8988 20.3998 67.8988 23.2998C67.8988 26.1998 69.6988 27.9998 72.1988 27.9998C73.5988 27.8998 75.1988 27.0998 75.9988 25.9998Z" fill="#204356"/>
<path d="M83.7988 23.4996C83.7988 18.5996 87.3988 14.5996 92.5988 14.5996C97.5988 14.5996 101.099 18.3996 101.099 23.8996V24.8996H88.3988C88.6988 26.9996 90.3988 28.7996 93.2988 28.7996C94.6988 28.7996 96.6988 28.1996 97.7988 27.0996L99.7988 29.9996C98.0988 31.4996 95.4988 32.2996 92.7988 32.2996C87.6988 32.3996 83.7988 28.9996 83.7988 23.4996ZM92.4988 18.1996C89.6988 18.1996 88.4988 20.2996 88.2988 21.8996H96.5988C96.5988 20.2996 95.4988 18.1996 92.4988 18.1996Z" fill="#204356"/>
<path d="M112.199 20.3002C112.199 12.9002 117.799 8.2002 124.599 8.2002C129.499 8.2002 132.499 10.7002 134.299 13.4002L130.199 15.6002C129.099 14.0002 127.199 12.6002 124.699 12.6002C120.499 12.6002 117.399 15.9002 117.399 20.3002C117.399 24.7002 120.499 28.0002 124.699 28.0002C126.799 28.0002 128.699 27.1002 129.699 26.2002V23.4002H123.499V19.1002H134.599V28.1002C132.199 30.8002 128.899 32.5002 124.699 32.5002C117.799 32.5002 112.199 27.7002 112.199 20.3002Z" fill="#9FE870"/>
<path d="M149.801 31.9996V29.8996C148.601 31.1996 146.601 32.4996 143.801 32.4996C140.101 32.4996 138.301 30.4996 138.301 27.1996V15.1996H142.701V25.4996C142.701 27.7996 143.901 28.5996 145.801 28.5996C147.501 28.5996 148.901 27.6996 149.601 26.6996V15.0996H154.001V31.9996H149.801Z" fill="#204356"/>
<path d="M158.201 10.6C158.201 9.1 159.401 8 160.901 8C162.401 8 163.601 9.2 163.601 10.6C163.601 12.1 162.401 13.3 160.901 13.3C159.401 13.3 158.201 12.1 158.201 10.6ZM158.601 32V15.1H163.001V32H158.601Z" fill="#204356"/>
<path d="M179.1 32.0002V29.8002C177.8 31.5002 175.9 32.4002 173.9 32.4002C169.6 32.4002 166.4 29.2002 166.4 23.5002C166.4 18.0002 169.6 14.6002 173.9 14.6002C175.9 14.6002 177.8 15.5002 179.1 17.2002V8.7002H183.6V32.0002H179.1ZM179.1 26.5002V20.5002C178.4 19.4002 176.8 18.6002 175.2 18.6002C172.7 18.6002 170.9 20.6002 170.9 23.5002C170.9 26.4002 172.7 28.4002 175.2 28.4002C176.8 28.5002 178.4 27.7002 179.1 26.5002Z" fill="#204356"/>
<path d="M186.9 23.4996C186.9 18.5996 190.5 14.5996 195.7 14.5996C200.7 14.5996 204.2 18.3996 204.2 23.8996V24.8996H191.6C191.9 26.9996 193.6 28.7996 196.5 28.7996C197.9 28.7996 199.9 28.1996 201 27.0996L203 29.9996C201.3 31.4996 198.7 32.2996 196 32.2996C190.8 32.3996 186.9 28.9996 186.9 23.4996ZM195.7 18.1996C192.9 18.1996 191.7 20.2996 191.5 21.8996H199.8C199.7 20.2996 198.6 18.1996 195.7 18.1996Z" fill="#204356"/>
<path d="M207.4 32.0002V8.7002H211.8V32.0002H207.4Z" fill="#204356"/>
<path d="M215.801 10.6C215.801 9.1 217.001 8 218.501 8C220.001 8 221.201 9.2 221.201 10.6C221.201 12.1 220.001 13.3 218.501 13.3C217.001 13.3 215.801 12.1 215.801 10.6ZM216.201 32V15.1H220.601V32H216.201Z" fill="#204356"/>
<path d="M236.501 32.0002V21.8002C236.501 19.5002 235.301 18.6002 233.401 18.6002C231.601 18.6002 230.301 19.6002 229.601 20.6002V32.0002H225.201V15.1002H229.601V17.3002C230.701 16.0002 232.701 14.7002 235.501 14.7002C239.201 14.7002 241.001 16.8002 241.001 20.1002V32.0002H236.501Z" fill="#204356"/>
<path d="M244.201 23.4996C244.201 18.5996 247.801 14.5996 253.001 14.5996C258.001 14.5996 261.501 18.3996 261.501 23.8996V24.8996H248.901C249.201 26.9996 250.901 28.7996 253.801 28.7996C255.201 28.7996 257.201 28.1996 258.301 27.0996L260.301 29.9996C258.601 31.4996 256.001 32.2996 253.301 32.2996C248.101 32.3996 244.201 28.9996 244.201 23.4996ZM253.001 18.1996C250.201 18.1996 249.001 20.2996 248.801 21.8996H257.101C257.101 20.2996 255.901 18.1996 253.001 18.1996Z" fill="#204356"/>
<path d="M263.201 29.8002L265.101 26.7002C266.301 27.9002 268.801 29.0002 270.901 29.0002C272.801 29.0002 273.701 28.2002 273.701 27.2002C273.701 24.4002 263.701 26.7002 263.701 20.0002C263.701 17.2002 266.201 14.7002 270.601 14.7002C273.501 14.7002 275.701 15.7002 277.401 17.0002L275.601 20.0002C274.601 18.9002 272.701 18.0002 270.601 18.0002C269.001 18.0002 267.901 18.7002 267.901 19.7002C267.901 22.2002 277.901 20.1002 277.901 26.9002C277.901 30.0002 275.301 32.3002 270.601 32.3002C267.801 32.4002 265.001 31.4002 263.201 29.8002Z" fill="#204356"/>
</svg>
