<svg width="80" height="42" viewBox="0 0 80 42" fill="none" xmlns="http://www.w3.org/2000/svg">
<path d="M3 32.0002V8.7002H8V27.7002H17.9V32.0002H3Z" fill="#9FE870"/>
<path d="M20.0996 23.4996C20.0996 18.6996 23.4996 14.5996 28.9996 14.5996C34.5996 14.5996 37.9996 18.6996 37.9996 23.4996C37.9996 28.2996 34.5996 32.3996 28.9996 32.3996C23.4996 32.3996 20.0996 28.3996 20.0996 23.4996ZM33.3996 23.4996C33.3996 20.8996 31.7996 18.5996 29.0996 18.5996C26.2996 18.5996 24.7996 20.8996 24.7996 23.4996C24.7996 26.1996 26.2996 28.3996 29.0996 28.3996C31.7996 28.4996 33.3996 26.1996 33.3996 23.4996Z" fill="#204356"/>
<path d="M40.9988 36.2992L42.9988 33.0992C44.3988 34.5992 46.1988 35.1992 48.2988 35.1992C50.3988 35.1992 52.9988 34.2992 52.9988 30.8992V29.1992C51.6988 30.8992 49.7988 31.8992 47.7988 31.8992C43.5988 31.8992 40.2988 28.8992 40.2988 23.2992C40.2988 17.7992 43.4988 14.6992 47.7988 14.6992C49.7988 14.6992 51.6988 15.5992 52.9988 17.2992V15.0992H57.4988V30.8992C57.4988 37.2992 52.4988 38.8992 48.3988 38.8992C45.2988 38.8992 43.0988 38.1992 40.9988 36.2992ZM52.8988 25.9992V20.4992C52.1988 19.3992 50.5988 18.5992 49.0988 18.5992C46.5988 18.5992 44.7988 20.3992 44.7988 23.2992C44.7988 26.1992 46.5988 27.9992 49.0988 27.9992C50.5988 27.8992 52.1988 27.0992 52.8988 25.9992Z" fill="#204356"/>
<path d="M60.6992 23.4996C60.6992 18.6996 64.0992 14.5996 69.5992 14.5996C75.1992 14.5996 78.5992 18.6996 78.5992 23.4996C78.5992 28.2996 75.1992 32.3996 69.5992 32.3996C64.0992 32.3996 60.6992 28.3996 60.6992 23.4996ZM73.9992 23.4996C73.9992 20.8996 72.3992 18.5996 69.6992 18.5996C66.8992 18.5996 65.3992 20.8996 65.3992 23.4996C65.3992 26.1996 66.8992 28.3996 69.6992 28.3996C72.3992 28.4996 73.9992 26.1996 73.9992 23.4996Z" fill="#204356"/>
</svg>
