<svg xmlns="http://www.w3.org/2000/svg" width="23.424" height="30.751" viewBox="0 0 23.424 30.751"><defs><style>.a{fill:#dfdfdf;}.b{fill:#204356;}</style></defs><g transform="translate(-61)"><path class="a" d="M84.16,7.471,76.953.264A.9.9,0,0,0,76.316,0H63.7A2.706,2.706,0,0,0,61,2.7V28.049a2.706,2.706,0,0,0,2.7,2.7H81.721a2.706,2.706,0,0,0,2.7-2.7V8.108A.909.909,0,0,0,84.16,7.471Zm-6.943-4.4,4.131,4.131H78.117a.9.9,0,0,1-.9-.9Zm4.5,25.874H63.7a.9.9,0,0,1-.9-.9V2.7a.9.9,0,0,1,.9-.9H75.415v4.5a2.706,2.706,0,0,0,2.7,2.7h4.5V28.049A.9.9,0,0,1,81.721,28.949Z" transform="translate(0)"/><path class="b" d="M162.712,212H151.9a.9.9,0,0,0,0,1.8h10.811a.9.9,0,0,0,0-1.8Z" transform="translate(-84.594 -199.267)"/><path class="b" d="M162.712,272H151.9a.9.9,0,1,0,0,1.8h10.811a.9.9,0,1,0,0-1.8Z" transform="translate(-84.594 -255.663)"/><path class="b" d="M162.712,332H151.9a.9.9,0,1,0,0,1.8h10.811a.9.9,0,1,0,0-1.8Z" transform="translate(-84.594 -312.06)"/><path class="b" d="M159.108,392H151.9a.9.9,0,1,0,0,1.8h7.207a.9.9,0,1,0,0-1.8Z" transform="translate(-84.594 -368.456)"/></g></svg>