<svg width="758" height="93" viewBox="0 0 758 93" fill="none" xmlns="http://www.w3.org/2000/svg">
<g clip-path="url(#clip0_799_1790)">
<path d="M438.486 88.8005H437.495C431.03 88.8005 424.557 88.8005 418.085 88.8005C417.783 88.8199 417.481 88.7614 417.207 88.6305C416.934 88.4997 416.698 88.3008 416.521 88.0524C408.938 78.4814 401.337 68.9221 393.717 59.3746C393.497 59.0065 393.193 58.6968 392.831 58.4711V59.6499C392.831 63.8425 392.831 68.0351 392.887 72.2277C392.899 72.536 392.849 72.8436 392.741 73.1322C392.633 73.4208 392.469 73.6844 392.258 73.9076C386.887 80.0718 381.534 86.2454 376.2 92.4285C376.025 92.6332 375.885 92.8873 375.592 92.9861C375.313 92.7391 375.445 92.4003 375.438 92.118C375.252 77.0274 375.068 61.9367 374.887 46.8461C374.775 38.1503 374.661 29.4451 374.545 20.7305C374.545 19.8764 374.545 19.8693 373.693 19.6081L367.926 17.8224C368.164 17.6759 368.444 17.6138 368.722 17.646H391.972C392.97 17.646 392.852 17.646 392.852 18.6906V49.4718C393.236 49.5424 393.32 49.26 393.466 49.0977C401.556 39.7713 409.641 30.438 417.722 21.0975C417.93 20.8282 418.199 20.6137 418.506 20.4723C418.814 20.331 419.151 20.267 419.488 20.2858C425.472 20.3211 431.463 20.2858 437.446 20.2858H438.438C438.507 20.7163 438.242 20.8716 438.075 21.0692C431.511 28.7722 424.941 36.4728 418.364 44.171L411.927 51.7093C411.229 52.521 411.375 52.3798 411.927 53.0786C418.443 61.732 424.948 70.3831 431.442 79.0319C433.643 81.954 435.84 84.8738 438.033 87.7912C438.289 88.0688 438.448 88.4231 438.486 88.8005Z" fill="#173303"/>
<path d="M654.001 62.212C654.358 65.38 655.688 68.3552 657.805 70.7191C659.922 73.083 662.718 74.7164 665.801 75.3898C673.216 77.0061 680.072 75.5451 686.377 71.3313L687.299 70.7031C687.641 70.816 687.697 71.1195 687.83 71.3525C689.859 75.0416 691.888 78.7354 693.918 82.4339C694.358 83.2315 694.567 83.1398 693.597 83.7821C688.651 87.1533 683.078 89.4709 677.217 90.5934C670.807 91.8467 664.197 91.5711 657.911 89.7887C647.99 86.8454 641.573 80.2388 638.411 70.3502C637.417 67.0794 636.833 63.6956 636.672 60.278C636.323 55.1854 636.824 50.0699 638.152 45.145C641.036 34.6141 647.962 28.2686 658.288 25.5371C662.628 24.4844 667.105 24.1295 671.554 24.4854C675.637 24.6353 679.665 25.485 683.466 26.9982C691.453 30.3509 695.978 36.3716 696.969 45.0674C697.482 50.2535 697.008 55.4908 695.573 60.4968C695.562 60.5974 695.532 60.6947 695.484 60.7831C695.435 60.8715 695.369 60.949 695.29 61.011C695.212 61.073 695.121 61.1182 695.024 61.1439C694.928 61.1695 694.827 61.1751 694.728 61.1602C687.606 61.3249 680.482 61.4991 673.356 61.6826L654.79 62.1696C654.553 62.1696 654.302 62.1979 654.001 62.212ZM667.554 51.2222V51.1587H669.104L680.212 51.1022C680.484 51.1022 680.764 51.1022 681.043 51.1022C681.322 51.1022 681.476 50.9681 681.469 50.6646C681.469 49.9587 681.469 49.2529 681.406 48.5471C681.008 43.3169 678.536 39.6114 672.839 38.3056C669.921 37.6717 666.904 37.6548 663.979 38.2561C662.076 38.5722 660.281 39.3641 658.758 40.5598C657.235 41.7555 656.032 43.3171 655.258 45.1026C654.478 46.7789 653.949 48.5629 653.687 50.3964C653.569 51.1939 653.562 51.2081 654.386 51.2081L667.554 51.2222Z" fill="#173303"/>
<path d="M108.711 78.9474C108.612 78.9711 108.52 79.0162 108.44 79.0795C108.361 79.1429 108.296 79.2231 108.25 79.3144C104.158 84.7069 98.7473 88.0667 92.3238 89.9018C88.2844 91.0409 84.0926 91.5291 79.9027 91.3487C76.7437 91.2749 73.6323 90.5546 70.7563 89.2312C65.9317 86.902 62.9992 82.9705 61.4213 77.938C60.4534 74.6909 59.9825 71.3133 60.0249 67.9223C59.9969 55.2456 59.9969 42.5666 60.0249 29.8852C60.0249 29.7087 60.0249 29.5323 60.0249 29.3558C60.0249 29.01 60.1645 28.8477 60.5136 28.8547H76.3977C77.4101 28.8547 77.4172 28.8547 77.4172 29.8852C77.4172 41.0938 77.4172 52.307 77.4172 63.525C77.3621 65.6619 77.5803 67.7971 78.0665 69.8775C78.1921 70.3504 78.3248 70.8233 78.4924 71.2891C79.9795 75.5241 82.9958 77.7757 87.3666 77.9804C95.1725 78.3474 101.114 74.9947 105.331 68.4093C105.9 67.5397 106.192 66.5153 106.169 65.4731C106.169 53.6999 106.169 41.9337 106.169 30.1817C106.169 28.77 105.995 28.9111 107.468 28.9041H122.312C122.549 28.9041 122.794 28.9041 123.01 28.9041C123.422 28.9041 123.555 29.1018 123.534 29.4829C123.513 29.8641 123.534 30.0475 123.534 30.3228V71.6138C123.512 72.3816 123.564 73.1498 123.687 73.9077C123.798 74.6079 124.129 75.2532 124.633 75.7468C125.136 76.2405 125.784 76.5561 126.48 76.6464C126.684 76.6942 126.892 76.7249 127.102 76.7381C127.583 76.7381 127.723 77.0063 127.716 77.4862C127.716 81.5048 127.716 85.521 127.716 89.5348C127.716 89.9371 127.632 90.1983 127.185 90.2406C123.61 90.7841 120.043 91.2005 116.447 90.4735C114.854 90.1858 113.348 89.5286 112.048 88.5537C111.242 87.9745 110.565 87.2302 110.063 86.3692C109.56 85.5082 109.242 84.5498 109.13 83.5564C108.948 82.0601 108.85 80.5284 108.711 78.9474Z" fill="#173303"/>
<path d="M213.505 59.5014C213.505 54.6101 213.505 49.7258 213.505 44.8344C213.49 44.1743 213.678 43.5259 214.043 42.9781C217.725 37.3277 223.065 32.9838 229.312 30.5554C233.501 28.8857 237.939 27.9455 242.439 27.7745C247.282 27.4602 252.143 27.9804 256.815 29.3131C264.495 31.6212 270.911 35.8773 275.408 42.7239C278.852 47.9733 280.585 54.1804 280.365 60.4755C280.142 71.197 273.816 82.6032 261.569 88.0028C257.4 89.8124 252.957 90.8936 248.429 91.2002C243.384 91.6386 238.303 91.1872 233.411 89.8662C225.444 87.6287 218.867 83.3373 214.203 76.3002C213.731 75.6189 213.486 74.8027 213.505 73.9709C213.526 69.1431 213.505 64.3223 213.505 59.5014ZM246.39 77.9518C252.395 77.7048 257.967 74.3733 261.088 67.3644C262.654 63.7118 263.07 59.6608 262.282 55.7606C260.752 47.2907 254.336 41.8487 246.663 41.1923C240.812 40.6982 235.771 42.4839 231.805 46.8812C227.658 51.4832 226.443 57.0452 227.399 63.0659C228.824 71.9664 235.924 77.9659 246.39 77.9659V77.9518Z" fill="#173303"/>
<path d="M713.391 36.3219L715.263 34.8468C719.125 31.716 723.388 29.1258 727.935 27.1462C732.491 25.232 737.441 24.4736 742.353 24.9369C748.022 25.4592 752.037 28.3319 754.174 33.7386C755.262 36.6125 755.926 39.6331 756.143 42.7027C756.646 48.5699 756.837 54.4604 756.715 60.3484C756.603 65.2892 756.478 70.2299 756.184 75.1072C755.961 78.7705 755.64 82.4125 755.291 86.0617C755.281 86.2697 755.26 86.477 755.228 86.6828C754.97 87.9604 755.333 87.7769 753.992 87.7486C748.735 87.6286 743.477 87.4804 738.22 87.3322C737.431 87.3322 737.403 87.3322 737.487 86.4993C737.745 83.9301 737.926 81.3538 738.129 78.7846C738.408 75.199 738.632 71.6063 738.701 68.0137C738.792 63.2282 738.862 58.4426 738.632 53.6641C738.587 51.7433 738.334 49.8332 737.878 47.9681C737.707 47.2588 737.474 46.5665 737.179 45.9C736.745 44.8632 736.035 43.9686 735.128 43.3156C734.22 42.6626 733.152 42.277 732.041 42.2015C730 42.0225 727.945 42.2996 726.022 43.0132C723.968 43.7462 722.012 44.735 720.199 45.9565C718.161 47.3414 716.2 48.84 714.327 50.4456C714.086 50.6325 713.895 50.8781 713.773 51.1594C713.651 51.4408 713.601 51.7489 713.629 52.0549C713.713 61.4142 713.782 70.7734 713.838 80.1327C713.838 82.2643 713.838 84.3959 713.838 86.5275C713.838 87.6357 713.971 87.544 712.861 87.6075C710.068 87.7698 707.275 87.911 704.482 88.0592L697.228 88.4333C696.439 88.4756 696.432 88.4333 696.418 87.6498C696.418 87.1628 696.418 86.6758 696.418 86.1888C696.366 85.9667 696.391 85.7334 696.489 85.5278C696.587 85.3222 696.752 85.1569 696.956 85.0595C697.298 84.8971 697.277 84.643 697.074 84.3536C696.32 83.3725 696.376 82.2361 696.334 81.0644C696.244 74.952 696.118 68.8465 696.013 62.7129C696.013 61.3012 696.013 61.3012 697.347 61.3012C698.499 61.2518 698.38 61.4565 698.701 60.2001C699.974 55.5841 700.509 50.7924 700.286 46.0059C699.993 41.2063 698.757 36.7243 695.887 32.7999C695.636 32.4679 695.504 32.06 695.51 31.6423C695.51 30.4565 695.462 29.2637 695.434 28.1132C695.434 27.2026 695.434 27.1885 696.299 27.1391L703.861 26.6944L712.037 26.1792C712.139 26.1864 712.242 26.1864 712.344 26.1792C712.84 26.1015 713.042 26.2992 713.042 26.8074C713.091 28.5861 713.175 30.3365 713.259 32.1434C713.238 33.4492 713.315 34.7691 713.391 36.3219Z" fill="#173303"/>
<path d="M594.977 38.0512L596.939 36.4701C600.108 33.8636 603.61 31.6986 607.349 30.033C611.595 28.1895 616.228 27.4401 620.831 27.852C626.207 28.332 629.908 31.1059 631.772 36.2726C632.66 38.8092 633.214 41.4528 633.42 44.1354C633.891 50.6505 634.024 57.1861 633.818 63.7152C633.748 68.2278 633.541 72.7286 633.196 77.2176C633.022 79.4763 632.778 81.735 632.554 83.9936C632.477 84.7842 632.463 84.7983 631.688 84.7842C626.843 84.6854 622 84.5818 617.159 84.4736C616.509 84.4736 616.502 84.4736 616.565 83.7677C616.921 80.1186 617.263 76.4694 617.424 72.8062C617.741 66.6325 617.796 60.4519 617.592 54.2641C617.574 52.0975 617.251 49.9444 616.635 47.8693C615.685 44.933 613.954 43.6343 610.882 43.5355C608.518 43.5109 606.184 44.0604 604.074 45.1377C600.828 46.6976 598.07 48.9704 595.361 51.3208C595.212 51.4639 595.1 51.6418 595.036 51.8387C594.971 52.0357 594.956 52.2456 594.991 52.4501C594.991 57.7203 595.016 62.9952 595.067 68.2748C595.067 73.3003 595.144 78.3329 595.186 83.3584C595.172 83.5699 595.172 83.7821 595.186 83.9936C595.242 84.5018 594.998 84.643 594.488 84.6995C591.863 84.8195 589.237 84.9677 586.612 85.1088C584.399 85.2218 582.186 85.3206 579.979 85.4547C579.532 85.4547 579.351 85.377 579.351 84.9041C579.316 84.6471 579.342 84.3855 579.426 84.1404C579.509 83.8952 579.649 83.6733 579.833 83.4925C580.353 82.9788 580.841 82.4318 581.292 81.855C581.871 81.1491 581.864 81.1491 581.369 80.4433C580.873 79.7375 580.252 78.8481 579.658 78.0717C579.348 77.6679 579.178 77.1715 579.176 76.6601C579.06 69.3995 578.925 62.1365 578.771 54.8711C578.688 50.255 578.618 45.646 578.513 41.0369C578.471 40.7347 578.515 40.4267 578.638 40.1483C578.762 39.87 578.96 39.6324 579.211 39.4628C580.377 38.6441 581.466 37.7195 582.618 36.8866C583.093 36.5408 583.086 36.2725 582.807 35.7926C581.741 33.9501 580.43 32.264 578.911 30.7812C578.709 30.6068 578.546 30.3905 578.434 30.1469C578.322 29.9033 578.263 29.6382 578.262 29.3695C578.164 23.0171 578.038 16.7282 577.919 10.4039C577.919 9.45106 577.843 9.48636 578.778 9.43695L593.699 8.61816H593.901C594.76 8.61816 594.774 8.61817 594.781 9.42282C594.781 11.4838 594.781 13.5449 594.816 15.6059C594.844 22.763 594.874 29.9224 594.907 37.0842L594.977 38.0512Z" fill="#173303"/>
<path d="M296.144 40.8956C296.325 40.8956 296.381 40.7828 296.458 40.6769C299.586 36.1596 303.887 33.2303 308.928 31.3387C314.932 29.0262 321.425 28.3164 327.779 29.2777C334.964 30.3718 339.649 34.5502 341.904 41.5097C342.693 44.1869 343.162 46.9499 343.3 49.7397C343.426 51.3772 343.454 53.0148 343.454 54.6805C343.454 66.4914 343.454 78.2975 343.454 90.0989C343.454 91.56 343.587 91.3624 342.169 91.3624H326.537C326.222 91.3624 326.111 91.2071 326.118 90.9107C326.125 90.6142 326.118 90.3531 326.118 90.0708C326.118 79.0693 326.118 68.0677 326.118 57.0662C326.171 54.7224 325.889 52.383 325.28 50.1209C324.142 46.2529 321.719 43.726 317.704 42.9426C315.584 42.5601 313.405 42.676 311.337 43.2814C306.619 44.5782 302.5 47.5021 299.691 51.5466C299.297 52.1208 298.941 52.7196 298.622 53.3394C297.995 54.5056 297.677 55.8165 297.701 57.1438C297.743 68.0418 297.701 78.9399 297.701 89.8308C297.701 90.0779 297.701 90.3249 297.701 90.5366C297.701 91.3201 297.701 91.3341 296.891 91.3341H281.223C280.35 91.3341 280.343 91.3342 280.343 90.3884C280.343 85.6734 280.343 80.9585 280.343 76.2718C280.34 75.7157 280.493 75.1701 280.783 74.6978C283.452 70.0508 284.829 64.7614 284.77 59.3884C284.778 54.1557 283.419 49.0135 280.832 44.4813C280.499 43.9135 280.327 43.2638 280.336 42.6038C280.336 38.7994 280.336 34.9949 280.336 31.1834C280.336 30.9435 280.336 30.6964 280.336 30.4776C280.336 30.2588 280.476 29.9624 280.832 29.9765C281.034 29.9765 281.244 29.9765 281.453 29.9765H294.845C295.017 29.987 295.19 29.987 295.362 29.9765C295.85 29.92 296.06 30.1177 296.025 30.6259C296.025 32.2705 296.025 33.908 296.025 35.5667C296.025 37.2254 296.025 38.7782 296.025 40.3875C296.046 40.5145 295.969 40.7333 296.144 40.8956Z" fill="#173303"/>
<path d="M47.6665 43.7613C46.7658 44.8483 46.0327 45.7235 45.2996 46.5846C42.6324 49.7962 39.9513 52.9935 37.2981 56.2191C37.1285 56.455 36.9025 56.6436 36.6411 56.767C36.3798 56.8905 36.0918 56.9448 35.804 56.925C30.7839 56.925 25.7708 56.925 20.7507 56.925C20.3294 56.8711 19.9015 56.917 19.5008 57.0591C19.8988 57.2003 20.1991 57.2991 20.4505 57.3838C22.0354 57.8778 23.6203 58.3932 25.2122 58.8449C25.3206 58.8595 25.425 58.8959 25.5193 58.9521C25.6135 59.0082 25.6957 59.083 25.7608 59.1719C25.8259 59.2607 25.8727 59.362 25.8984 59.4695C25.9241 59.577 25.9282 59.6886 25.9104 59.7977C25.9104 62.9387 25.9104 66.0796 25.9104 69.2205C25.9089 69.4851 25.8543 69.7467 25.7499 69.9893C25.6455 70.232 25.4934 70.4507 25.303 70.6322L13.9431 84.2618L8.79737 90.4307C8.60978 90.7376 8.33813 90.9827 8.01539 91.1365V89.866C8.01539 64.0186 8.01539 38.1735 8.01539 12.3307C8.01539 10.5874 8.28071 10.9967 6.61898 10.4603C4.41265 9.75445 2.19935 9.091 0 8.2793H77.0889C77.2006 8.58986 76.8934 8.73804 76.7328 8.93567C73.179 13.213 69.5971 17.4762 66.0642 21.7747C65.8843 22.002 65.6503 22.1795 65.3842 22.2906C65.118 22.4017 64.8282 22.4428 64.5421 22.41H31.5379H20.5343H19.3962C19.7901 22.6904 20.2408 22.8784 20.7157 22.9605C22.168 23.4263 23.6272 23.8569 25.0795 24.3086C26.0919 24.6263 25.8964 24.591 25.9034 25.4591C25.9034 31.1481 25.9034 36.8395 25.9034 42.5332C25.9034 43.9872 25.7288 43.8036 27.1811 43.8036H47.6665V43.7613Z" fill="#173303"/>
<path d="M189.117 36.1309L182.197 45.5114L180.899 44.6927C177.221 42.2505 173.146 40.4825 168.862 39.4695C165.492 38.6308 161.986 38.5154 158.57 39.1307C157.351 39.3792 156.175 39.8073 155.079 40.4012C152.517 41.8129 151.77 44.4668 152.286 47.0219C152.428 47.6034 152.687 48.1489 153.047 48.624C153.408 49.099 153.862 49.4932 154.381 49.7817C155.414 50.4178 156.518 50.9272 157.669 51.2992C160.539 52.214 163.451 52.982 166.397 53.6002C170.851 54.5982 175.241 55.8663 179.544 57.3976C181.861 58.2273 184.066 59.3465 186.107 60.7291C190.562 63.7994 192.147 68.1544 191.735 73.434C191.288 79.0806 188.558 83.365 183.915 86.4566C180.54 88.6727 176.728 90.1179 172.744 90.6915C161.772 92.4541 150.529 90.8614 140.459 86.1178C139.83 85.8284 139.237 85.4613 138.615 85.1649C138.424 85.0893 138.262 84.951 138.157 84.7719C138.052 84.5928 138.009 84.3832 138.036 84.1768C138.036 82.0593 138.036 79.9912 138.036 77.8949C138.036 76.9632 138.036 76.9632 137.177 76.6667C137.128 76.3632 137.373 76.1797 137.512 75.9609C138.21 74.8175 139.02 73.7022 139.74 72.5517C140.012 72.1141 140.235 72.1 140.64 72.3682C142.478 73.5491 144.38 74.6237 146.338 75.5868C150.285 77.6288 154.526 79.0271 158.905 79.73C162.143 80.2821 165.453 80.251 168.68 79.6382C170.113 79.3653 171.473 78.7932 172.674 77.9584C173.557 77.3599 174.246 76.5101 174.652 75.5165C175.059 74.5228 175.165 73.4298 174.957 72.3752C174.847 71.7167 174.595 71.0905 174.22 70.5406C173.845 69.9907 173.355 69.5304 172.786 69.1919C172.048 68.7338 171.261 68.362 170.44 68.0838C166.723 66.7651 162.938 65.653 159.101 64.7523C154.624 63.7021 150.216 62.3678 145.905 60.7573C143.929 60.0006 142.07 58.9645 140.382 57.6799C139.021 56.649 137.913 55.3149 137.144 53.7811C136.375 52.2474 135.966 50.5552 135.948 48.8359C135.669 41.8834 138.539 36.5544 144.173 32.6724C147.819 30.2227 151.978 28.6641 156.322 28.1198C163.609 27.0686 171.038 27.7107 178.043 29.9973C181.768 31.2164 185.261 33.0635 188.377 35.4604C188.572 35.6087 188.761 35.764 188.942 35.9192C189.005 35.9263 189.026 35.9968 189.117 36.1309Z" fill="#173303"/>
<path d="M496.306 10.5312C496.422 10.9001 496.458 11.2904 496.41 11.6747C496.41 16.3802 496.41 21.0857 496.41 25.7913C496.41 26.0312 496.41 26.2783 496.41 26.4971C496.41 26.7159 496.529 26.9488 496.836 26.9418H497.534C503.239 26.8782 508.95 26.8007 514.654 26.7442C515.862 26.7442 515.848 26.5183 515.807 27.9088C515.699 31.8802 515.592 35.8588 515.485 39.8443C515.485 40.656 515.485 40.6631 514.703 40.6843L497.688 41.1007H497.276C496.536 41.1007 496.522 41.1007 496.522 41.8559C496.522 44.1922 496.522 46.5356 496.522 48.8719C496.522 53.4457 496.543 58.0194 496.585 62.5932C496.572 64.1647 496.765 65.7311 497.157 67.2516C497.407 68.2195 497.875 69.1155 498.526 69.8689C499.177 70.6222 499.992 71.2123 500.907 71.5925C502.632 72.3364 504.512 72.6417 506.381 72.4819C508.451 72.3458 510.497 71.9474 512.469 71.2961C513.307 71.035 513.307 71.042 513.405 71.9102C513.87 76.0322 514.336 80.1542 514.801 84.2762C514.801 84.5233 514.801 84.7703 514.871 84.9821C514.962 85.4479 514.759 85.6879 514.312 85.8008C508.531 87.5866 502.687 88.9135 496.578 88.5112C494.179 88.3921 491.818 87.8598 489.596 86.9372C487.613 86.087 485.825 84.8337 484.341 83.2552C482.858 81.6767 481.711 79.8067 480.973 77.7614C480 75.2199 479.377 72.5552 479.123 69.8421C478.781 66.7152 478.774 63.5743 478.732 60.4334C478.643 54.4621 478.562 48.4908 478.487 42.5195C478.48 42.4161 478.48 42.3123 478.487 42.2088C478.536 41.7218 478.362 41.503 477.845 41.503C477.147 41.5454 476.393 41.503 475.667 41.503L469.655 41.6724C468.782 41.6724 468.789 41.6725 468.81 40.8325C468.917 36.7434 469.02 32.659 469.117 28.5793C469.117 28.4029 469.117 28.2335 469.117 28.057C469.117 26.9842 469.055 27.0406 470.151 27.0335L477.21 26.97C478.25 26.97 478.25 27.0477 478.229 25.9466C478.169 22.0363 478.103 18.126 478.034 14.2157C478.034 12.7053 478.034 12.7335 479.43 12.5429C483.989 11.95 488.549 11.3289 493.101 10.7289C494.211 10.7783 495.244 10.6583 496.306 10.5312Z" fill="#173303"/>
<path d="M567.075 45.9422C566.364 44.9638 565.554 44.0625 564.659 43.253C561.984 40.9955 558.646 39.693 555.164 39.5474C546.82 39.0392 541.018 44.6011 539.482 51.5465C538.362 56.0818 538.605 60.8516 540.18 65.2466C541.203 68.076 543.068 70.5155 545.519 72.2294C547.97 73.9434 550.885 74.8476 553.865 74.8177C558.542 74.9686 563.118 73.4183 566.761 70.4486C567.462 69.8493 568.122 69.2032 568.737 68.5146C569.128 68.6699 569.24 68.9805 569.435 69.2204C571.753 72.439 574.057 75.6647 576.375 78.8833C577.073 79.8291 576.941 79.6667 576.298 80.4502C572.93 84.5349 568.432 87.511 563.382 88.9978C556.576 91.1901 549.271 91.2418 542.435 89.146C533.289 86.3227 527.194 80.1114 523.814 71.1473C522.035 66.328 521.235 61.1956 521.461 56.0567C521.561 51.1856 522.659 46.3883 524.687 41.9684C529.149 32.4327 536.612 26.7719 546.827 24.8944C553.567 23.5714 560.546 24.3771 566.817 27.2024C571.318 29.1112 575.113 32.3996 577.667 36.6041C577.793 36.8088 577.911 37.0206 578.03 37.2323C578.059 37.2759 578.08 37.325 578.089 37.3768C578.099 37.4286 578.099 37.4818 578.088 37.5334C578.077 37.5849 578.055 37.6336 578.025 37.6765C577.995 37.7194 577.956 37.7555 577.911 37.7828L577.499 38.1075L567.766 45.5964C567.579 45.7837 567.336 45.9049 567.075 45.9422Z" fill="#173303"/>
<path d="M465.676 58.845C465.613 67.0044 465.822 76.6743 465.822 86.3723C465.822 87.6993 466.025 87.5793 464.608 87.6569C459.487 87.9298 454.367 88.1981 449.247 88.4616C448.367 88.511 448.374 88.5039 448.353 87.5722C448.181 81.6103 448.009 75.6437 447.837 69.6724C447.718 65.381 447.634 61.0895 447.522 56.7981C447.406 52.1867 447.285 47.58 447.159 42.978C447.069 39.3853 446.992 35.7926 446.894 32.1929C446.894 31.1483 446.796 30.0754 446.775 29.059C446.775 28.2614 446.775 28.2473 447.55 28.1979L454.386 27.7815L464.112 27.1815H464.426C465.445 27.1251 465.445 27.1251 465.452 28.1485C465.543 37.8537 465.606 47.6153 465.676 58.845Z" fill="#173303"/>
<path d="M193.438 36.0675C193.315 35.9207 193.175 35.7902 193.019 35.6792C192.492 35.4685 192.059 35.0703 191.802 34.5594C191.545 34.0485 191.481 33.4604 191.623 32.9054C191.669 32.2003 191.669 31.4929 191.623 30.7879C191.623 29.8491 191.434 29.7785 192.656 29.7856H208.331C209.197 29.7856 209.197 29.7855 209.211 30.6325V31.1549C209.211 50.7817 209.211 70.4107 209.211 90.0422C209.211 91.4538 209.427 91.3127 207.954 91.3198H192.908C192.663 91.3198 192.419 91.3198 192.209 91.3198C191.825 91.3198 191.658 91.2139 191.658 90.7904C191.658 88.4823 191.658 86.1813 191.658 83.8732C191.668 83.7022 191.714 83.5353 191.792 83.3833C191.87 83.2312 191.979 83.0976 192.112 82.991C193.805 81.1281 195.006 78.863 195.603 76.4056C196.433 72.8765 196.482 69.3473 195.023 65.9664C194.368 64.503 193.417 63.195 192.23 62.1267C192.068 62.0071 191.936 61.8497 191.846 61.6679C191.756 61.4861 191.711 61.2852 191.714 61.082C191.714 53.7508 191.714 46.4173 191.714 39.0814C191.701 38.6613 191.843 38.2515 192.112 37.9309C192.496 37.3662 192.935 36.738 193.438 36.0675Z" fill="#173303"/>
<path d="M200.322 21.4993H192.439C191.643 21.4993 191.629 21.4993 191.629 20.6947C191.629 15.9891 191.629 11.2836 191.629 6.57809C191.629 5.78756 191.629 5.77344 192.432 5.77344H208.4C209.196 5.77344 209.21 5.77344 209.21 6.57103C209.21 11.2766 209.21 15.9821 209.21 20.6876C209.21 21.4781 209.21 21.4923 208.407 21.4993H200.322Z" fill="#173303"/>
<path d="M456.655 0.444676C459.447 0.30351 462.24 0.162341 465.033 0C465.424 0 465.626 0.0846788 465.599 0.508176C465.599 0.578759 465.599 0.649376 465.599 0.719959C465.599 5.25609 465.599 9.79215 465.599 14.3283C465.599 15.0341 465.599 15.0342 464.831 15.0836C462.415 15.2177 459.999 15.3306 457.583 15.4435L448.506 15.8529C447.606 15.8529 447.613 15.8529 447.585 14.9706C447.482 10.7356 447.375 6.51481 447.264 2.30807C447.264 2.0328 447.264 1.75043 447.264 1.47516C447.264 1.07284 447.396 0.910454 447.794 0.903395C448.346 0.903395 448.89 0.825823 449.449 0.79759L456.696 0.451741L456.655 0.444676Z" fill="#173303"/>
<path d="M745.963 3.3242H744.057V1.96191H749.51V3.3242H747.569V9.13316H745.963V3.3242Z" fill="#173303"/>
<path d="M756.324 6.38762C756.324 5.52651 756.261 4.48194 756.261 3.44437C756.038 4.35489 755.745 5.37829 755.472 6.21823L754.607 9.04154H753.357L752.596 6.26062C752.365 5.42068 752.121 4.39723 751.953 3.4373C751.911 4.40429 751.884 5.5124 751.828 6.40175L751.702 9.12624H750.215L750.669 1.95508H752.805L753.503 4.34776C753.727 5.18064 753.943 6.06999 754.104 6.91699C754.306 6.08411 754.551 5.13828 754.802 4.3407L755.563 1.95508H757.658L758.042 9.12624H756.478L756.324 6.38762Z" fill="#173303"/>
</g>
<defs>
<clipPath id="clip0_799_1790">
<rect width="758" height="93" fill="white"/>
</clipPath>
</defs>
</svg>
