<svg width="307" height="165" viewBox="0 0 307 165" fill="none" xmlns="http://www.w3.org/2000/svg">
<g clip-path="url(#clip0_798_1772)">
<path d="M97.1559 72.5507C97.0777 72.5533 97.0016 72.5762 96.935 72.6171C96.8684 72.6579 96.8137 72.7154 96.7761 72.7839C92.952 77.8083 87.8219 80.813 81.7657 82.3547C78.3445 83.2355 74.81 83.5981 71.2807 83.4301C68.2132 83.2785 65.2391 82.6898 62.5163 81.2122C58.549 79.0702 56.171 75.6749 54.8592 71.4695C54.0112 68.6421 53.5936 65.7037 53.6206 62.7526C53.5952 51.5381 53.5952 40.3256 53.6206 29.115C53.6206 28.9634 53.6206 28.8235 53.6206 28.6632C53.6206 28.3572 53.7637 28.229 54.0588 28.2377C54.2399 28.2377 54.421 28.2377 54.6022 28.2377H68.1693C68.3505 28.2377 68.5316 28.2377 68.7127 28.2377C69.0049 28.2377 69.1568 28.3543 69.1451 28.6632C69.1451 28.9051 69.1451 29.1441 69.1451 29.386V58.8736C69.1017 60.8598 69.3318 62.8426 69.8287 64.7664C70.0189 65.4621 70.2722 66.1391 70.5854 66.789C71.9993 69.7034 74.3832 71.2742 77.5589 71.5365C83.8721 72.0611 88.9788 69.718 92.9344 64.8335C93.0484 64.6936 93.1506 64.542 93.2587 64.3992C94.845 62.2251 94.845 62.2251 94.845 59.5235V29.5055C94.845 29.3539 94.845 29.214 94.845 29.0537C94.845 28.2727 94.845 28.264 95.6426 28.264H109.391C110.51 28.264 110.375 28.2028 110.375 29.316C110.375 41.4884 110.375 53.6627 110.375 65.8389C110.346 66.5299 110.385 67.222 110.492 67.9052C110.805 69.4673 111.526 70.2105 113.078 70.5282C114.097 70.7292 114.097 70.7292 114.097 71.7464C114.097 75.0221 114.097 78.2988 114.097 81.5765C114.097 82.4508 114.097 82.4508 113.244 82.5907C110.673 82.9842 108.1 83.2202 105.497 82.9696C103.961 82.8494 102.468 82.4075 101.114 81.6727C98.9497 80.4458 97.6613 78.6418 97.4889 76.1092C97.3808 74.9085 97.2611 73.7427 97.1559 72.5507Z" fill="#173303"/>
<path d="M190.831 55.3522C190.831 51.0564 190.831 46.7577 190.831 42.459C190.82 41.8016 191.016 41.1572 191.392 40.6171C194.693 35.6452 199.204 32.1654 204.69 29.8952C208.351 28.4111 212.236 27.552 216.183 27.3538C220.396 27.1032 224.568 27.3538 228.652 28.4525C235.079 30.1662 240.606 33.3866 244.775 38.6528C249.304 44.3767 251.255 50.9398 250.411 58.15C249.16 68.7933 243.306 76.1608 233.595 80.5557C229.902 82.2256 225.999 83.0212 221.959 83.3185C217.292 83.7118 212.592 83.2616 208.085 81.9895C202.242 80.2934 197.208 77.3061 193.27 72.6111C192.542 71.7274 191.859 70.8072 191.225 69.8541C190.94 69.4315 190.797 68.9294 190.816 68.4202C190.837 64.0749 190.831 59.7033 190.831 55.3522ZM234.74 55.3901C234.711 54.9092 234.685 54.4283 234.658 53.9504C234.261 47.0987 229.508 40.1625 220.752 39.1716C213.551 38.3585 207.743 42.1297 205.038 47.1337C203.133 50.6571 202.601 54.4196 203.206 58.319C204.375 65.9547 210.323 71.2705 218.065 71.5998C223.802 71.8417 228.497 69.7463 231.845 65.0017C233.87 62.1339 234.705 58.8727 234.74 55.3901Z" fill="#173303"/>
<path d="M264.605 38.8925C264.821 38.9566 264.862 38.8575 264.897 38.7905C267.553 35.0018 271.169 32.4284 275.435 30.7352C281.052 28.4534 287.189 27.7479 293.18 28.6951C299.393 29.6802 303.501 33.2969 305.523 39.248C306.233 41.3406 306.528 43.5118 306.782 45.6917C306.95 47.397 307.017 49.1107 306.983 50.8239C306.983 61.3409 306.983 71.8589 306.983 82.3778C306.983 83.6281 307.126 83.459 305.864 83.462C301.432 83.462 297.001 83.462 292.572 83.462C292.391 83.4518 292.209 83.4518 292.028 83.462C291.532 83.5203 291.394 83.2696 291.444 82.8266C291.462 82.6168 291.444 82.407 291.444 82.1971C291.444 72.5195 291.444 62.8418 291.444 53.1642C291.492 51.0884 291.241 49.0166 290.699 47.0119C289.504 42.9318 286.422 40.5857 282.172 40.5333C278.134 40.4837 274.64 41.9701 271.529 44.4298C269.428 46.091 267.681 48.0611 266.562 50.55C266.235 51.2579 266.067 52.029 266.071 52.8086C266.089 62.667 266.089 72.5243 266.071 82.3807C266.071 83.6164 266.209 83.4678 264.95 83.4678C260.519 83.4678 256.088 83.4678 251.657 83.4678C251.447 83.4678 251.233 83.4678 251.023 83.4678C250.678 83.4882 250.523 83.3396 250.544 82.9927C250.544 82.815 250.544 82.6343 250.544 82.4536C250.544 78.3968 250.544 74.34 250.544 70.2803C250.537 69.7438 250.672 69.2151 250.935 68.7473C255.773 59.7905 255.757 50.8404 250.886 41.8972C250.669 41.5388 250.55 41.1298 250.541 40.7111C250.556 37.1643 250.541 33.6204 250.541 30.0736C250.541 29.2518 250.541 29.2459 251.4 29.2459H263.728H264.181C264.473 29.2459 264.614 29.4004 264.605 29.6947C264.605 29.9046 264.605 30.1144 264.605 30.3242V38.9012V38.8925Z" fill="#173303"/>
<path d="M0.0253906 10.0488H68.8342C68.9773 10.3403 68.7436 10.451 68.6209 10.5996C65.4424 14.3738 62.2522 18.1391 59.0882 21.9249C58.9258 22.1344 58.7136 22.3003 58.4708 22.4076C58.2281 22.515 57.9624 22.5604 57.6976 22.5398C46.5397 22.5243 35.3846 22.5243 24.2325 22.5398H17.5424C17.4781 22.8487 17.7206 22.8313 17.8696 22.8662L22.3627 24.2418C23.1282 24.4779 23.1311 24.4808 23.1311 25.2852C23.1311 30.3076 23.1311 35.3281 23.1311 40.3466C23.1311 41.594 22.9909 41.457 24.2325 41.457H42.3688C42.3864 41.833 42.1526 41.967 42.0066 42.139C39.1202 45.5692 36.2163 48.9877 33.3445 52.4325C33.1827 52.6426 32.9713 52.8095 32.7292 52.9183C32.4871 53.0271 32.2217 53.0745 31.9568 53.0562C27.4344 53.03 22.9003 53.0358 18.3896 53.0329H17.4664C17.5658 53.3593 17.8082 53.3243 17.9864 53.3855C19.5114 53.8577 21.0335 54.3327 22.5673 54.7815C22.6557 54.7919 22.7411 54.8198 22.8186 54.8636C22.8961 54.9073 22.964 54.9661 23.0184 55.0364C23.0728 55.1067 23.1127 55.1871 23.1355 55.273C23.1584 55.3588 23.1638 55.4484 23.1516 55.5363C23.1321 58.3633 23.1321 61.1892 23.1516 64.0142C23.1383 64.4038 22.9751 64.7733 22.6958 65.0459C19.4316 68.9084 16.1693 72.7719 12.909 76.6364C11.2204 78.6356 9.53177 80.6359 7.84318 82.6371C7.69587 82.8735 7.49594 83.073 7.25889 83.2199C7.0427 82.9547 7.15372 82.6371 7.15372 82.3718C7.15372 59.496 7.15372 36.6201 7.15372 13.7442C7.15372 12.0976 7.36114 12.4619 5.86828 11.9956C4.17384 11.4623 2.47066 10.9523 0.773298 10.4306C0.522053 10.3548 0.273713 10.2732 0.0253906 10.1945V10.0488Z" fill="#173303"/>
<path d="M56.9995 161.637C56.7142 161.747 56.4056 161.783 56.1026 161.742C51.1011 161.742 46.0966 161.742 41.0922 161.759C40.8287 161.775 40.5655 161.724 40.3277 161.61C40.0899 161.495 39.8854 161.322 39.7337 161.107C33.8753 153.809 28.0061 146.523 22.1262 139.249L21.4601 138.43C21.2351 138.797 21.3228 139.129 21.3228 139.432C21.3228 142.617 21.3315 145.803 21.3491 148.992C21.3628 149.213 21.3322 149.434 21.259 149.644C21.1857 149.853 21.0714 150.045 20.9225 150.21C16.6806 155.013 12.4484 159.825 8.22595 164.648C8.12954 164.761 8.0419 164.884 7.93381 165.006C7.592 164.767 7.72051 164.473 7.71759 164.234C7.58515 154.519 7.45955 144.812 7.34075 135.113L7.0077 109.42C7.0077 108.663 7.00769 108.657 6.27441 108.432C5.06785 108.056 3.85544 107.695 2.64596 107.325C2.32266 107.273 2.0197 107.134 1.76953 106.923H20.2769C20.458 106.923 20.6392 106.923 20.8203 106.923C21.1679 106.902 21.314 107.063 21.2936 107.403C21.2936 107.613 21.2936 107.823 21.2936 108.033C21.2936 115.517 21.2936 122.997 21.2936 130.474C21.2575 130.805 21.2752 131.139 21.3461 131.465C21.6383 131.465 21.7259 131.196 21.872 131.03C28.1667 123.867 34.4595 116.698 40.7504 109.525C40.8718 109.357 41.0316 109.22 41.2165 109.126C41.4014 109.032 41.6061 108.983 41.8138 108.983C46.6955 109.001 51.5802 108.983 56.4619 108.983C56.6021 108.983 56.7395 109.015 57.0082 109.047C56.7657 109.339 56.6021 109.543 56.4239 109.738L36.4705 132.82C35.7138 133.694 35.7109 133.694 36.4296 134.632L56.3918 160.836C56.5963 161.092 56.7774 161.334 56.9995 161.637Z" fill="#173303"/>
<path d="M122.482 70.4378C123.318 69.1788 124.124 67.9839 124.91 66.7744C125.135 66.4247 125.339 66.483 125.646 66.6608C126.384 67.1232 127.134 67.5691 127.896 67.9985C132.149 70.3883 136.593 72.2855 141.442 73.0899C144.402 73.5795 147.376 73.7311 150.347 73.1802C151.75 72.9572 153.089 72.4365 154.273 71.6531C154.959 71.2072 155.519 70.5937 155.9 69.8708C156.281 69.148 156.47 68.3399 156.45 67.5234C156.464 66.7819 156.28 66.0499 155.916 65.4033C155.552 64.7566 155.021 64.2188 154.378 63.8455C153.573 63.371 152.716 62.9887 151.825 62.706C148.533 61.5257 145.138 60.6951 141.749 59.8412C138.36 58.9873 135.03 58.0925 131.772 56.953C129.945 56.3324 128.196 55.5052 126.558 54.4875C123.177 52.3512 121.512 49.3086 121.483 45.3043C121.442 39.7349 123.762 35.3954 128.188 32.1022C131.245 29.8721 134.793 28.4059 138.535 27.8268C146.528 26.4862 154.332 27.2206 161.857 30.3157C164.219 31.3118 166.442 32.6099 168.469 34.1772C169.053 34.6144 169.132 34.5765 168.656 35.2089C166.85 37.6162 165.05 40.0264 163.257 42.4395C162.83 43.0078 162.818 43.0223 162.196 42.6085C159.015 40.5684 155.664 38.8723 151.971 37.9193C148.731 37.0799 145.45 36.7535 142.123 37.2868C140.839 37.488 139.603 37.9174 138.471 38.5546C136.096 39.8981 135.62 42.422 136.157 44.5582C136.388 45.4821 137.034 46.1261 137.785 46.6507C138.616 47.1964 139.515 47.6333 140.458 47.9505C143.07 48.9035 145.786 49.4573 148.483 50.0897C152.395 50.9582 156.256 52.045 160.046 53.345C162.159 54.0635 164.174 55.0425 166.044 56.2594C168.562 57.9439 170.49 60.1151 171.045 63.1577C172.117 69.0477 170.63 74.1274 165.88 78.021C162.959 80.4224 159.526 81.7893 155.854 82.5674C151.657 83.4227 147.358 83.6729 143.09 83.3106C138.189 82.959 133.364 81.9149 128.757 80.2097C127.184 79.6016 125.644 78.9099 124.144 78.1376C123.881 78.0417 123.659 77.8599 123.512 77.6219C123.366 77.3838 123.305 77.1034 123.338 76.8261C123.385 75.0542 123.356 73.2793 123.353 71.5045C123.341 70.7234 123.338 70.7234 122.482 70.4378Z" fill="#173303"/>
<path d="M225.264 141.274C225.223 141.356 225.2 141.446 225.196 141.538C225.193 141.631 225.211 141.722 225.247 141.807C226.786 148.166 230.797 151.314 236.997 151.821C241.998 152.229 246.55 150.947 250.681 148.14C251.265 147.735 251.285 147.741 251.651 148.396C253.234 151.233 254.814 154.071 256.389 156.909C256.708 157.492 256.702 157.492 256.123 157.865C251.537 160.832 246.596 162.872 241.113 163.455C236.848 163.913 232.617 163.746 228.475 162.581C220.727 160.369 215.638 155.371 213.099 147.77C211.787 143.835 211.466 139.779 211.638 135.667C211.731 132.688 212.246 129.738 213.166 126.903C215.524 119.786 220.49 115.35 227.616 113.226C231.151 112.171 234.788 111.976 238.449 112.139C241.662 112.285 244.803 112.792 247.797 113.952C252.878 115.904 256.421 119.355 258.057 124.604C258.837 127.101 258.975 129.68 258.875 132.274C258.757 134.797 258.354 137.299 257.675 139.732C257.485 140.431 257.479 140.426 256.778 140.443L230.017 141.09C228.814 141.119 227.607 141.143 226.403 141.18C226.021 141.157 225.637 141.189 225.264 141.274ZM235.682 132.764V132.697C238.694 132.697 241.706 132.697 244.718 132.697C245.302 132.697 246.074 132.953 246.471 132.58C246.912 132.161 246.605 131.385 246.576 130.773C246.377 126.562 244.002 123.726 239.886 122.832C237.342 122.282 234.705 122.335 232.185 122.986C231.026 123.267 229.937 123.782 228.986 124.502C228.036 125.221 227.244 126.127 226.661 127.165C225.788 128.679 225.211 130.345 224.96 132.073C224.852 132.752 224.852 132.761 225.571 132.761C228.946 132.767 232.316 132.768 235.682 132.764Z" fill="#173303"/>
<path d="M271.561 121.267C272.145 120.815 272.563 120.483 272.99 120.154C275.564 118.114 278.351 116.355 281.301 114.908C285.241 112.964 289.638 112.129 294.018 112.492C298.561 112.885 301.745 115.115 303.425 119.378C304.418 121.897 304.804 124.534 305.014 127.209C305.464 132.881 305.438 138.558 305.274 144.238C305.125 149.484 304.816 154.73 304.231 159.976C304.231 160.037 304.231 160.095 304.231 160.156C304.126 160.975 304.126 160.993 303.311 160.972C299.245 160.869 295.178 160.763 291.111 160.652C290.317 160.631 290.311 160.62 290.393 159.824C290.679 157.046 290.902 154.263 291.062 151.474C291.461 145.535 291.51 139.578 291.208 133.633C291.143 132.341 290.921 131.062 290.547 129.824C290.369 129.245 290.123 128.689 289.814 128.168C288.938 126.667 287.585 125.95 285.876 125.837C283.831 125.685 281.929 126.181 280.083 126.982C278.08 127.891 276.197 129.044 274.479 130.415C273.717 130.998 272.992 131.642 272.227 132.225C272.045 132.356 271.901 132.533 271.81 132.738C271.72 132.943 271.685 133.168 271.71 133.391C271.742 135.282 271.739 137.179 271.751 139.071L271.882 159.629C271.882 159.839 271.865 160.051 271.882 160.261C271.926 160.693 271.722 160.844 271.298 160.844C270.153 160.888 269.011 160.961 267.865 161.022C264.887 161.179 261.909 161.337 258.932 161.494C258.298 161.529 258.283 161.526 258.265 160.876C258.265 160.454 258.265 160.034 258.265 159.611C258.24 159.478 258.258 159.34 258.316 159.218C258.375 159.095 258.47 158.994 258.59 158.929C258.917 158.766 258.92 158.524 258.718 158.271C258.149 157.554 258.178 156.717 258.166 155.869C258.102 151.151 258.017 146.433 257.944 141.714C257.927 140.645 257.944 140.645 259.037 140.589C259.805 140.551 259.817 140.554 260.007 139.823C261.047 135.874 261.587 131.872 261.175 127.781C260.851 124.487 259.872 121.43 257.912 118.746C257.655 118.412 257.519 118.001 257.526 117.58C257.526 116.677 257.526 115.776 257.456 114.876C257.427 114.401 257.605 114.235 258.061 114.211C259.565 114.138 261.067 114.042 262.572 113.955C265.201 113.803 267.804 113.663 270.422 113.5C271.167 113.454 271.169 113.436 271.205 114.191C271.298 116.26 271.391 118.33 271.482 120.401C271.505 120.629 271.529 120.859 271.561 121.267Z" fill="#173303"/>
<path d="M179.082 122.654L180.139 121.801C182.588 119.833 185.167 118.067 188.027 116.765C191.767 115.077 195.658 114.343 199.748 114.832C203.599 115.29 206.26 117.301 207.7 120.903C208.468 122.927 208.939 125.051 209.097 127.21C209.552 132.164 209.52 137.119 209.43 142.073C209.348 146.43 209.155 150.781 208.734 155.121C208.635 156.138 208.501 157.161 208.419 158.166C208.387 158.565 208.217 158.673 207.835 158.662C206.751 158.629 205.664 158.621 204.58 158.6L196.625 158.452C195.866 158.434 195.86 158.425 195.941 157.691C196.677 150.757 196.973 143.784 196.827 136.812C196.797 134.889 196.716 132.966 196.272 131.083C196.137 130.466 195.936 129.865 195.673 129.291C195.386 128.64 194.931 128.076 194.354 127.657C193.778 127.239 193.101 126.98 192.392 126.907C190.676 126.719 188.94 126.96 187.341 127.609C185.296 128.375 183.487 129.579 181.767 130.911C181.03 131.494 180.341 132.115 179.602 132.683C179.424 132.817 179.284 132.995 179.195 133.199C179.107 133.404 179.073 133.627 179.096 133.849C179.131 136.853 179.134 139.858 179.155 142.863C179.186 147.734 179.222 152.603 179.263 157.47C179.263 157.589 179.263 157.709 179.263 157.831C179.263 158.495 179.263 158.513 178.565 158.548C174.954 158.742 171.343 158.926 167.732 159.099C167.487 159.099 167.11 159.306 167.005 158.988C166.915 158.795 166.883 158.581 166.912 158.371C166.941 158.161 167.03 157.963 167.168 157.802C167.601 157.344 168.027 156.878 168.439 156.397C168.909 155.846 168.904 155.838 168.497 155.263C168.336 155.01 168.158 154.767 167.963 154.538C167.022 153.541 166.774 152.378 166.756 151.011C166.645 142.388 166.464 133.767 166.271 125.143C166.254 124.453 166.388 123.978 167.005 123.567C167.834 123.025 168.597 122.378 169.386 121.774C169.941 121.349 169.944 121.343 169.567 120.714C168.764 119.333 167.769 118.074 166.61 116.974C166.443 116.83 166.31 116.651 166.221 116.449C166.132 116.248 166.089 116.029 166.096 115.809C166.029 110.971 165.935 106.136 165.854 101.298C165.854 100.549 165.854 100.537 166.569 100.497C170.482 100.287 174.394 100.08 178.305 99.8758C179.023 99.8408 179.035 99.8495 179.038 100.619C179.056 105.878 179.069 111.138 179.079 116.397C179.085 118.385 179.082 120.399 179.082 122.654Z" fill="#173303"/>
<path d="M115.336 148.202C115.506 149.018 115.616 149.846 115.663 150.679C115.973 153.392 116.247 156.111 116.586 158.822C116.639 159.268 116.461 159.405 116.101 159.521C112.228 160.687 108.304 161.614 104.229 161.658C102.388 161.693 100.551 161.479 98.7684 161.022C94.7018 159.941 91.8913 157.438 90.2612 153.588C89.2299 151.151 88.8004 148.587 88.5784 145.967C88.482 144.769 88.4674 143.568 88.447 142.367C88.371 137.121 88.3067 131.852 88.2249 126.595C88.2045 125.242 88.3009 125.429 87.0564 125.429C85.1603 125.455 83.2585 125.513 81.3625 125.554C80.6613 125.572 80.6526 125.554 80.6672 124.884C80.7353 121.608 80.8074 118.333 80.8833 115.06C80.9009 114.302 80.9125 114.299 81.7159 114.287C83.4016 114.264 85.0902 114.27 86.7759 114.223C88.1899 114.182 88 114.357 87.9883 113.017C87.9649 110.394 87.9123 107.788 87.8714 105.177C87.8714 104.725 87.886 104.271 87.8422 103.825C87.7984 103.379 88.0263 103.201 88.4586 103.152C89.8931 102.982 91.3246 102.787 92.759 102.601L100.91 101.537L101.179 101.508C102.198 101.409 102.181 101.283 102.181 102.382C102.181 105.928 102.181 109.474 102.181 113.02C102.181 113.229 102.181 113.442 102.181 113.649C102.16 113.996 102.309 114.13 102.657 114.124C103.653 114.11 104.646 114.124 105.643 114.107L116.218 113.961C116.429 113.961 116.642 113.961 116.852 113.961C117.182 113.941 117.372 114.057 117.343 114.418C117.343 114.599 117.343 114.78 117.343 114.961C117.253 117.953 117.163 120.951 117.071 123.954C117.071 124.695 117.071 124.695 116.32 124.695C111.925 124.798 107.527 124.895 103.127 124.986C102.946 124.986 102.765 124.986 102.584 124.986C102.539 124.985 102.494 124.994 102.452 125.012C102.411 125.03 102.374 125.056 102.343 125.089C102.312 125.122 102.288 125.161 102.274 125.203C102.259 125.246 102.253 125.291 102.257 125.336C102.257 125.578 102.257 125.817 102.257 126.058C102.288 131.407 102.321 136.756 102.356 142.105C102.367 142.765 102.427 143.424 102.534 144.075C102.969 146.867 104.477 148.578 107.845 149.1C110.004 149.435 112.102 149.012 114.176 148.441C114.544 148.368 114.895 148.161 115.336 148.202Z" fill="#173303"/>
<path d="M158.772 146.103C159.45 147.027 160.14 147.971 160.817 148.918C162.056 150.62 163.301 152.319 164.531 154.03C165.071 154.779 165.115 154.561 164.452 155.362C161.781 158.545 158.366 160.608 154.449 161.887C151.261 162.922 147.969 163.193 144.63 163.053C141.579 162.986 138.568 162.343 135.757 161.159C129.57 158.457 125.453 153.815 123.329 147.49C120.741 139.791 120.925 132.14 124.621 124.808C128.293 117.522 134.402 113.485 142.421 112.311C147.158 111.565 152.01 112.134 156.444 113.958C160.181 115.499 163.298 117.828 165.463 121.308C165.574 121.485 165.67 121.672 165.787 121.847C165.829 121.89 165.86 121.943 165.878 122.001C165.896 122.059 165.9 122.12 165.89 122.179C165.88 122.239 165.855 122.295 165.819 122.344C165.783 122.393 165.736 122.432 165.682 122.459C165.533 122.561 165.389 122.677 165.249 122.785L157.987 128.323C157.358 128.798 157.44 128.905 156.897 128.177C153.163 123.237 144.758 122.176 139.859 126.315C137.393 128.398 136.026 131.071 135.544 134.207C135.112 137.028 135.167 139.843 136.006 142.597C137.586 147.817 141.778 150.923 147.247 150.923C151.586 150.923 155.331 149.504 158.363 146.354C158.463 146.222 158.609 146.132 158.772 146.103Z" fill="#173303"/>
<path d="M172.871 34.6398C172.495 34.3483 172.156 34.0569 171.776 33.8092C171.605 33.7199 171.464 33.582 171.371 33.4129C171.279 33.2437 171.239 33.051 171.256 32.8591C171.291 31.839 171.256 30.819 171.256 29.7961C171.256 29.1549 171.273 29.1403 171.902 29.1374C173.92 29.1374 175.942 29.1374 177.961 29.1374H186.018C187.096 29.1374 187.005 29.0762 187.005 30.0992V56.2469C187.005 64.99 187.005 73.7331 187.005 82.4762C187.005 83.5749 187.128 83.47 185.971 83.47H172.316H171.595C171.55 83.4761 171.504 83.4715 171.461 83.4566C171.418 83.4418 171.379 83.4171 171.347 83.3845C171.315 83.3519 171.291 83.3124 171.277 83.2691C171.264 83.2257 171.26 83.1798 171.268 83.1349C171.268 82.925 171.268 82.7152 171.268 82.5025C171.268 80.7538 171.291 79.0052 171.268 77.2741C171.257 77.0387 171.293 76.8035 171.376 76.5827C171.458 76.3618 171.584 76.1598 171.747 75.9888C173.632 73.8565 174.807 71.1924 175.109 68.3648C175.425 65.8527 175.255 63.4104 174.233 61.0556C173.652 59.7622 172.792 58.6127 171.715 57.6895C171.575 57.5824 171.463 57.4433 171.389 57.284C171.315 57.1247 171.28 56.9499 171.288 56.7744C171.288 50.2812 171.288 43.7889 171.288 37.2977C171.284 36.9372 171.41 36.5873 171.644 36.3126C172.042 35.7734 172.436 35.2226 172.871 34.6398Z" fill="#173303"/>
<path d="M78.149 137.494C78.1958 144.914 78.2406 152.334 78.2834 159.754C78.2834 160.812 78.4967 160.8 77.2229 160.864C73.2809 161.058 69.3418 161.267 65.4057 161.491C64.6724 161.531 64.6695 161.543 64.6519 160.774C64.5497 156.629 64.4562 152.485 64.3423 148.341C64.1378 140.867 63.9255 133.391 63.7054 125.915C63.6148 122.642 63.5389 119.369 63.4571 116.096C63.4571 115.916 63.4571 115.735 63.4571 115.557C63.4249 115.178 63.5885 115.027 63.9742 115.006C65.8059 114.907 67.6406 114.785 69.4723 114.674L77.1353 114.208C77.2843 114.208 77.4274 114.193 77.5852 114.182C77.8949 114.155 78.0292 114.304 78.0205 114.604C78.0205 114.782 78.0205 114.963 78.0205 115.143L78.1607 137.494H78.149Z" fill="#173303"/>
<path d="M179.096 21.7794C176.745 21.7794 174.394 21.7794 172.044 21.7794C171.278 21.7794 171.264 21.7794 171.264 21.0712C171.264 16.8959 171.264 12.7186 171.264 8.53938C171.264 7.86908 171.264 7.85742 171.977 7.85742C176.738 7.85742 181.5 7.85742 186.262 7.85742C186.993 7.85742 187.001 7.85742 187.001 8.60642C187.001 12.7526 187.001 16.8997 187.001 21.0479C187.001 21.7677 187.001 21.7764 186.239 21.7764C183.859 21.7823 181.478 21.7833 179.096 21.7794Z" fill="#173303"/>
<path d="M71.0692 93.6268C73.237 93.5307 75.4018 93.4461 77.5665 93.3208C78.0398 93.2946 78.1187 93.4782 78.1187 93.8833C78.1187 95.9233 78.1187 97.9634 78.1187 100.003C78.1187 101.385 78.1187 102.769 78.1187 104.151C78.1187 104.888 78.1187 104.903 77.3883 104.935C74.7415 105.06 72.0947 105.174 69.4449 105.29L64.6625 105.497C64.0578 105.52 64.0461 105.515 64.0315 104.94C63.9477 101.519 63.8659 98.0965 63.7861 94.6731C63.7715 94.0173 63.7861 93.997 64.4931 93.9591C66.5089 93.8541 68.5247 93.7667 70.5405 93.6676C70.7187 93.6676 70.8998 93.6414 71.0809 93.6297L71.0692 93.6268Z" fill="#173303"/>
<path d="M292.781 1.48924H290.666V0H296.719V1.48924H294.569V7.85422H292.781V1.48924Z" fill="#173303"/>
<path d="M304.281 4.84659C304.245 3.90233 304.21 2.75991 304.21 1.61747H304.175C303.93 2.62002 303.591 3.73913 303.299 4.66008L302.341 7.72599H300.95L300.109 4.68339C299.852 3.76245 299.583 2.64333 299.396 1.61747H299.37C299.323 2.6783 299.288 3.89068 299.229 4.86991L299.089 7.85422H297.441L297.944 0H300.316L301.087 2.62293C301.333 3.53222 301.578 4.51144 301.753 5.43238H301.789C302.011 4.5231 302.279 3.48558 302.536 2.61127L303.378 0.00290832H305.715L306.144 7.85714H304.406L304.281 4.84659Z" fill="#173303"/>
</g>
<defs>
<clipPath id="clip0_798_1772">
<rect width="307" height="165" fill="white"/>
</clipPath>
</defs>
</svg>
