<svg width="61" height="61" viewBox="0 0 61 61" fill="none" xmlns="http://www.w3.org/2000/svg">
<g id="Layer_1" clip-path="url(#clip0_1731_2547)">
<circle id="Ellipse 186" cx="30.5" cy="30.5" r="30.5" fill="#9FE870"/>
<path id="Vector" d="M21.4856 27.2132C21.4723 27.216 21.4598 27.2222 21.4492 27.2313C21.4386 27.2404 21.4301 27.2521 21.4244 27.2656C20.8907 28.0181 20.142 28.5531 19.298 28.785C18.7615 28.9504 18.2043 29.0211 17.6474 28.9946C17.2287 28.9886 16.8155 28.8895 16.4327 28.7035C16.1307 28.5447 15.8633 28.3168 15.6487 28.0351C15.4341 27.7533 15.2773 27.4244 15.1888 27.0705C15.0611 26.6031 14.9975 26.1176 15.0001 25.6297C15.0001 23.8017 15.0001 21.9747 15.0001 20.1487V20.073C15.0001 20.0235 15.0187 20.0002 15.0639 20.0002H17.1743C17.3099 20.0002 17.3099 20.0002 17.3099 20.1487C17.3099 21.7651 17.3099 23.3797 17.3099 24.9922C17.3031 25.2998 17.3325 25.607 17.3976 25.9062C17.4135 25.9732 17.4321 26.043 17.4534 26.1071C17.5283 26.386 17.6838 26.6307 17.8966 26.8045C18.1095 26.9782 18.3681 27.0716 18.6335 27.0705C19.11 27.1097 19.587 27.0013 20.0099 26.7579C20.4329 26.5144 20.7849 26.1457 21.0257 25.6937C21.1 25.5683 21.138 25.4212 21.1347 25.2717C21.1347 23.5757 21.1347 21.8796 21.1347 20.1836C21.1347 19.9857 21.1134 20.0002 21.3075 20.0002H23.378C23.4339 20.0002 23.4498 20.0293 23.4471 20.0847C23.4445 20.14 23.4471 20.1662 23.4471 20.204V26.1682C23.4437 26.2783 23.4508 26.3886 23.4684 26.4971C23.4824 26.5976 23.5257 26.6904 23.5918 26.7617C23.6579 26.833 23.7433 26.8791 23.8352 26.893C23.8626 26.8956 23.8902 26.8956 23.9176 26.893C23.9814 26.893 24 26.9308 24 27.0007C24 27.5828 24 28.165 24 28.7471C24 28.8054 24 28.8432 23.9282 28.8519C23.4589 28.9551 22.9766 28.967 22.5036 28.8869C22.2945 28.8442 22.0972 28.7496 21.9268 28.6103C21.819 28.5275 21.7285 28.4206 21.6611 28.2967C21.5938 28.1727 21.5512 28.0346 21.5361 27.8914C21.5174 27.6585 21.5042 27.4402 21.4856 27.2132Z" fill="#173303"/>
<path id="Vector_2" d="M36.0003 24.4968C36.0003 23.8053 36.0003 23.1167 36.0003 22.4253C35.9974 22.3317 36.0257 22.2397 36.081 22.1624C36.631 21.3626 37.4299 20.748 38.3649 20.4052C38.9908 20.1698 39.6538 20.0374 40.326 20.0137C41.0502 19.9668 41.7774 20.0403 42.4754 20.2309C43.6118 20.5207 44.5997 21.1949 45.2555 22.1281C45.7723 22.8691 46.0317 23.7469 45.9969 24.6368C45.9677 25.4742 45.6873 26.286 45.1891 26.9754C44.6909 27.6648 43.9959 28.2029 43.1868 28.5256C42.5639 28.7821 41.8996 28.9348 41.2228 28.977C40.4687 29.0391 39.709 28.9753 38.9777 28.7884C37.8049 28.5112 36.7813 27.828 36.1049 26.8712C36.0333 26.7756 35.9966 26.6601 36.0003 26.5426C36.0032 25.8597 36.0003 25.1797 36.0003 24.4968ZM40.9149 27.1055C41.394 27.0867 41.8571 26.9348 42.2474 26.6684C42.6376 26.402 42.9381 26.0326 43.1121 25.6054C43.3469 25.0894 43.4095 24.5167 43.2915 23.9654C43.2018 23.5028 42.9793 23.0732 42.6487 22.7247C42.3181 22.3762 41.8926 22.1225 41.4197 21.992C40.9469 21.8615 40.4453 21.8594 39.9713 21.9859C39.4972 22.1124 39.0694 22.3625 38.7356 22.7081C38.4458 23.013 38.235 23.3788 38.1202 23.7758C38.0055 24.1729 37.99 24.5901 38.0749 24.994C38.2902 26.2597 39.3514 27.1055 40.9149 27.1055Z" fill="#173303"/>
<path id="Vector_3" d="M48.2528 21.7297C48.2785 21.7297 48.287 21.7122 48.2984 21.6977C48.7391 21.0724 49.3591 20.6026 50.0726 20.3533C50.9292 20.0211 51.8553 19.9209 52.761 20.0623C53.2305 20.1162 53.6733 20.3128 54.0323 20.6267C54.3912 20.9405 54.6498 21.3572 54.7745 21.8228C54.8873 22.2081 54.9552 22.6056 54.9767 23.0071C54.9938 23.2429 54.9995 23.4786 54.9995 23.7172C54.9995 25.4166 54.9995 27.1159 54.9995 28.8153C54.9995 29.0278 55.0194 28.9987 54.8172 28.9987H52.7041C52.6642 28.9987 52.6243 28.9987 52.5845 28.9987C52.5446 28.9987 52.5247 28.9754 52.5247 28.9317V24.0547C52.532 23.7169 52.4917 23.3798 52.405 23.0537C52.3447 22.792 52.2101 22.5544 52.0181 22.3706C51.826 22.1869 51.5852 22.0651 51.3257 22.0207C51.0242 21.9641 50.7139 21.9811 50.4201 22.0702C49.7467 22.2546 49.1587 22.6761 48.7598 23.2603C48.7034 23.3428 48.653 23.4294 48.6088 23.5193C48.518 23.6864 48.4728 23.8753 48.4778 24.0664C48.4778 25.6348 48.4778 27.2032 48.4778 28.7717V28.8764C48.4778 28.9899 48.4778 28.9928 48.3611 28.9928H46.134C46.0116 28.9928 46.0087 28.9928 46.0087 28.8561C46.0087 28.1781 46.0087 27.4971 46.0087 26.8191C46.0092 26.7391 46.0309 26.6607 46.0714 26.5922C46.4401 25.9291 46.634 25.1796 46.634 24.417C46.634 23.6544 46.4401 22.9049 46.0714 22.2418C46.0224 22.1606 45.9977 22.0666 46.0002 21.9712C46.0002 21.4242 46.0002 20.8771 46.0002 20.3271C46.0002 20.2922 46.0002 20.2573 46.0002 20.2224C46.0002 20.1874 46.0201 20.1467 46.0685 20.1496H48.1389C48.2101 20.1496 48.2357 20.17 48.2329 20.2427C48.2329 20.4813 48.2329 20.717 48.2329 20.9528V21.6453C48.2386 21.6744 48.2272 21.7064 48.2528 21.7297Z" fill="#173303"/>
<path id="Vector_4" d="M12.8012 22.15C12.6701 22.305 12.5674 22.4426 12.4619 22.5596C12.0826 23.0249 11.7005 23.4872 11.3212 23.9554C11.2969 23.9894 11.2644 24.0164 11.227 24.0339C11.1895 24.0513 11.1483 24.0585 11.1074 24.0549H8.96004C8.90035 24.0482 8.83996 24.0552 8.78324 24.0753L8.91726 24.1222C9.1454 24.1953 9.37068 24.2685 9.59881 24.3358C9.61412 24.3376 9.62891 24.3425 9.6423 24.3503C9.6557 24.3581 9.66741 24.3686 9.67674 24.3812C9.68606 24.3938 9.69281 24.4082 9.69657 24.4235C9.70034 24.4388 9.70103 24.4548 9.69862 24.4704C9.69862 24.9268 9.69862 25.3833 9.69862 25.8369C9.69532 25.9124 9.66364 25.9837 9.61022 26.0358L7.99047 28.008L7.25759 28.9005C7.22967 28.9431 7.19131 28.9774 7.14637 29V17.5881C7.14637 17.3365 7.18344 17.395 6.9439 17.3189C6.63022 17.2165 6.31368 17.12 6 17H16.9961C17.0132 17.0468 16.9704 17.0673 16.9476 17.0966C16.44 17.7169 15.9295 18.3343 15.4248 18.9546C15.3994 18.9878 15.3661 19.0139 15.3282 19.0302C15.2903 19.0466 15.249 19.0528 15.2081 19.0483H8.76327C8.81874 19.0901 8.88338 19.1172 8.95149 19.1273L9.57315 19.3233C9.71573 19.3702 9.69007 19.3643 9.69007 19.4901V21.9627C9.69007 22.1734 9.6644 22.1441 9.87258 22.147H12.7955L12.8012 22.15Z" fill="#173303"/>
<path id="Vector_5" d="M32.6153 21.2119L31.6237 22.5343L31.4408 22.4203C30.9171 22.0759 30.3367 21.826 29.7262 21.6821C29.2444 21.5636 28.743 21.547 28.2545 21.6337C28.0802 21.6699 27.9118 21.7303 27.7544 21.8132C27.5925 21.902 27.4651 22.0423 27.3925 22.2118C27.32 22.3812 27.3065 22.5701 27.3543 22.7481C27.3736 22.8284 27.4088 22.9042 27.4579 22.9707C27.5069 23.0373 27.5689 23.0934 27.6401 23.1357C27.7876 23.2264 27.946 23.2982 28.1116 23.3494C28.5207 23.48 28.9367 23.5885 29.3575 23.6743C29.9944 23.8155 30.6223 23.9945 31.2379 24.2102C31.5686 24.3276 31.8835 24.4856 32.1752 24.6804C32.4661 24.8717 32.6963 25.1416 32.839 25.4585C32.9817 25.7755 33.031 26.1264 32.9811 26.4703C32.9566 26.8437 32.8423 27.2057 32.6478 27.5257C32.4533 27.8457 32.1844 28.1143 31.8637 28.3086C31.3793 28.6187 30.8334 28.8209 30.2634 28.9014C28.6951 29.1501 27.088 28.9258 25.6483 28.2573C25.5597 28.2145 25.474 28.1632 25.3854 28.1205C25.3581 28.1104 25.335 28.0914 25.32 28.0665C25.3049 28.0417 25.2988 28.0125 25.3025 27.9837C25.3025 27.6987 25.3025 27.3909 25.3025 27.0973C25.3025 26.9662 25.3025 26.9662 25.1796 26.9235C25.1796 26.8807 25.2053 26.8551 25.2253 26.8237C25.3311 26.6641 25.4425 26.5045 25.5454 26.342C25.5826 26.2822 25.614 26.2793 25.674 26.3164C25.9365 26.4838 26.2084 26.6361 26.4884 26.7724C27.0528 27.0585 27.6582 27.2556 28.2831 27.3567C28.748 27.4332 29.2228 27.4284 29.6862 27.3424C29.8911 27.304 30.0857 27.2235 30.2577 27.1059C30.3833 27.021 30.4811 26.9012 30.539 26.7613C30.5969 26.6215 30.6124 26.4678 30.5835 26.3192C30.5677 26.226 30.5316 26.1374 30.4778 26.0596C30.424 25.9818 30.3537 25.9167 30.272 25.8689C30.1669 25.8041 30.0547 25.7516 29.9376 25.7122C29.4063 25.527 28.8654 25.37 28.3173 25.2419C27.6763 25.0919 27.0454 24.9015 26.4284 24.6719C26.1466 24.5634 25.8812 24.4167 25.6397 24.2358C25.4457 24.0902 25.2877 23.9023 25.1778 23.6864C25.0678 23.4705 25.0088 23.2324 25.0053 22.9903C24.9758 22.5395 25.0698 22.0892 25.2772 21.6876C25.4846 21.2859 25.7976 20.9481 26.1827 20.7103C26.7032 20.3653 27.2971 20.1458 27.9173 20.069C28.9595 19.9211 30.0217 20.0117 31.0236 20.334C31.5557 20.5063 32.0552 20.7664 32.501 21.1036C32.5289 21.1238 32.5556 21.1457 32.581 21.1691C32.581 21.1691 32.601 21.1919 32.6153 21.2119Z" fill="#173303"/>
<path id="Vector_6" d="M33.3233 20.9046C33.2927 20.881 33.2758 20.8573 33.252 20.8485C33.1627 20.8174 33.0892 20.7594 33.0449 20.685C33.0007 20.6107 32.9886 20.5249 33.011 20.4434C33.0188 20.345 33.0188 20.2462 33.011 20.1478C33.011 20.0118 32.9804 20 33.1875 20H35.8491C35.995 20 35.995 20 35.9984 20.1212V28.8127C35.9984 29.0255 36.0324 28.9989 35.7846 28.9989H33.2316C33.1909 28.9989 33.1502 28.9989 33.1094 28.9989C33.0687 28.9989 33.0144 28.9842 33.0144 28.9221C33.0144 28.5851 33.0144 28.248 33.0144 27.911C33.0149 27.8859 33.0218 27.8611 33.0348 27.8386C33.0477 27.8161 33.0662 27.7964 33.089 27.7809C33.3761 27.5087 33.5783 27.1769 33.6764 26.8172C33.8382 26.3132 33.8036 25.7767 33.5779 25.2918C33.4671 25.0765 33.3038 24.8848 33.0992 24.7301C33.0728 24.7116 33.0515 24.6882 33.0368 24.6616C33.0221 24.635 33.0145 24.6058 33.0144 24.5763V21.3481C33.0124 21.2874 33.0366 21.2284 33.0823 21.1825C33.1637 21.0938 33.2384 21.0022 33.3233 20.9046Z" fill="#173303"/>
<path id="Vector_7" d="M34.4796 19H33.1395C33.0034 19 33 19 33 18.8974V17.1026C33 17.0026 33 17 33.1395 17H35.8605C35.9966 17 36 17 36 17.1V18.8949C36 18.9949 36 18.9949 35.8639 18.9974L34.4796 19Z" fill="#173303"/>
<path id="Vector_8" d="M16 43.4886H13.4001C13.3616 43.4906 13.3232 43.4836 13.2884 43.4681C13.2536 43.4525 13.2234 43.429 13.2005 43.3997C12.2224 42.2546 11.253 41.1123 10.2925 39.9728C10.2637 39.9288 10.2245 39.8916 10.178 39.8644V40.0062C10.178 40.5064 10.178 41.0067 10.178 41.507C10.1798 41.5441 10.1737 41.5812 10.1601 41.616C10.1465 41.6509 10.1256 41.6828 10.0988 41.7099L8.04467 43.9333C8.02413 43.9583 8.00652 43.9889 7.96837 44C7.93316 43.9694 7.94783 43.9305 7.94783 43.8944L7.88621 38.4859C7.88621 37.4464 7.85686 36.4098 7.84219 35.3703C7.84219 35.2675 7.84219 35.2675 7.73362 35.2341L7 35.0229C7.02982 35.0054 7.06485 34.9976 7.09977 35.0006H10.0665C10.1927 35.0006 10.178 35.0007 10.178 35.1257V38.7916C10.2279 38.7916 10.2367 38.7666 10.2573 38.7471L13.3502 35.412C13.3758 35.3787 13.4101 35.3523 13.4497 35.3352C13.4892 35.3182 13.5328 35.3111 13.5761 35.3147H15.9912C15.9912 35.3675 15.9677 35.387 15.9442 35.4092L13.4323 38.169C13.1594 38.4692 12.8836 38.7694 12.6107 39.0723C12.5227 39.1668 12.5403 39.1501 12.6107 39.2335L15.0991 42.3352L15.9413 43.383C15.9708 43.4124 15.9911 43.4489 16 43.4886Z" fill="#173303"/>
<path id="Vector_9" d="M42.3052 40.519C42.3517 40.8971 42.5268 41.2523 42.806 41.5347C43.0852 41.8171 43.4544 42.0124 43.8615 42.0931C44.3271 42.1882 44.8092 42.1941 45.2775 42.1105C45.7457 42.0269 46.1899 41.8555 46.582 41.6073L46.7036 41.5323C46.7492 41.5462 46.7553 41.5823 46.7735 41.61C47.041 42.0515 47.3116 42.4929 47.576 42.9344C47.6368 43.0287 47.6642 43.0176 47.5335 43.0954C46.8798 43.4956 46.1449 43.7722 45.3722 43.9088C44.5254 44.0573 43.6523 44.0241 42.8219 43.8117C42.2091 43.6616 41.6494 43.3688 41.1975 42.962C40.7457 42.5552 40.4172 42.0482 40.2442 41.4907C40.1143 41.0999 40.0368 40.6963 40.0132 40.2885C39.969 39.6802 40.0358 39.0695 40.2108 38.4812C40.3679 37.9036 40.6997 37.378 41.1685 36.9646C41.6372 36.5512 42.2239 36.2667 42.8614 36.1435C43.435 36.0165 44.027 35.9734 44.6153 36.0158C45.1549 36.0342 45.6872 36.1356 46.1899 36.3156C46.6826 36.481 47.1127 36.7723 47.4291 37.1548C47.7455 37.5373 47.9347 37.9948 47.9742 38.4728C48.0412 39.0927 47.9773 39.7185 47.7858 40.3163C47.7843 40.3283 47.7802 40.3398 47.7736 40.3503C47.7671 40.3608 47.7583 40.3699 47.7478 40.3772C47.7373 40.3845 47.7253 40.3897 47.7125 40.3926C47.6996 40.3955 47.6863 40.396 47.6733 40.394L44.8524 40.4579L42.3994 40.5134L42.3052 40.519ZM44.0956 39.2085H44.2992H45.7674H45.8768C45.9164 39.2085 45.9346 39.2085 45.9346 39.1558C45.9346 39.0725 45.9346 38.9892 45.9346 38.9059C45.9364 38.6122 45.8232 38.3276 45.6152 38.1035C45.4072 37.8794 45.1183 37.7308 44.8008 37.6844C44.4148 37.6108 44.0164 37.6108 43.6305 37.6844C43.3789 37.7213 43.1416 37.8154 42.9403 37.9581C42.739 38.1007 42.5802 38.2872 42.4784 38.5006C42.3767 38.7015 42.3071 38.9146 42.2717 39.1336C42.2717 39.228 42.2717 39.2308 42.3629 39.2308L44.0956 39.2085Z" fill="#173303"/>
<path id="Vector_10" d="M49.3292 37.4591L49.5729 37.272C50.0786 36.8796 50.6363 36.5551 51.231 36.3071C51.8245 36.0601 52.4716 35.9596 53.1147 36.0147C53.4566 36.028 53.7866 36.1404 54.0622 36.3373C54.3378 36.5343 54.5465 36.8068 54.6615 37.1199C54.8043 37.4818 54.8915 37.8621 54.9203 38.2486C54.986 38.9875 55.0111 39.7293 54.9955 40.4708C54.9805 41.0877 54.9654 41.7076 54.9263 42.3246C54.8962 42.7866 54.8541 43.2427 54.8089 43.7018C54.8104 43.728 54.8104 43.7544 54.8089 43.7807C54.7758 43.9415 54.8089 43.9181 54.6464 43.9152L52.5851 43.8626C52.4828 43.8626 52.4798 43.8626 52.4888 43.7573C52.5219 43.4357 52.546 43.1111 52.5731 42.7866C52.6092 42.3363 52.6393 41.886 52.6483 41.4328C52.6483 40.8334 52.6694 40.231 52.6483 39.6287C52.6421 39.3871 52.6088 39.1469 52.549 38.9123C52.526 38.8236 52.4937 38.7374 52.4527 38.655C52.3968 38.5243 52.3042 38.4115 52.1856 38.3293C52.067 38.2471 51.9271 38.1989 51.7817 38.1901C51.5145 38.1659 51.2452 38.1999 50.9933 38.2895C50.7247 38.3824 50.469 38.5072 50.2319 38.6609C49.9647 38.8339 49.7085 39.0223 49.4646 39.2252C49.4333 39.2489 49.4085 39.2797 49.3922 39.3148C49.376 39.35 49.3688 39.3885 49.3713 39.4269C49.3713 40.5965 49.3894 41.7807 49.3984 42.9561C49.3984 43.2251 49.3984 43.4942 49.3984 43.7602C49.3984 43.9006 49.3984 43.8889 49.269 43.8977L48.1706 43.9532L47.2227 44C47.1204 44 47.1204 44 47.1174 43.9035C47.1144 43.807 47.1174 43.7778 47.1174 43.7193C47.1111 43.691 47.1148 43.6615 47.1279 43.6355C47.141 43.6095 47.1627 43.5885 47.1896 43.576C47.2348 43.5556 47.2317 43.5234 47.2047 43.4912C47.125 43.3685 47.091 43.223 47.1084 43.079C47.1084 42.31 47.0783 41.5409 47.0662 40.7719C47.0662 40.5994 47.0662 40.5994 47.2408 40.5936C47.4153 40.5877 47.3762 40.6141 47.4183 40.4562C47.5835 39.8749 47.6536 39.272 47.6259 38.6696C47.6058 38.0742 47.4059 37.4977 47.0512 37.0117C47.0172 36.9703 46.9991 36.9186 47 36.8655C47 36.7164 47 36.5731 47 36.4182C47 36.2632 47 36.3012 47.1114 36.2954L48.1014 36.2369L49.1697 36.1755H49.2118C49.275 36.1755 49.2991 36.1901 49.2991 36.2544C49.2991 36.4767 49.3171 36.6989 49.3292 36.924C49.3021 37.1024 49.3111 37.2661 49.3292 37.4591Z" fill="#173303"/>
<path id="Vector_11" d="M35.1496 37.4578L35.396 37.2752C35.7899 36.969 36.2257 36.7151 36.6915 36.5204C37.2205 36.3044 37.7975 36.2164 38.371 36.2643C38.6776 36.2753 38.9731 36.3759 39.2172 36.5524C39.4614 36.7289 39.6423 36.9728 39.7353 37.2507C39.8457 37.5487 39.9142 37.8593 39.9388 38.1744C39.998 38.9369 40.0143 39.7018 39.9875 40.4659C39.9875 40.9945 39.956 41.5204 39.9101 42.049C39.8901 42.3215 39.8585 42.5777 39.8328 42.842C39.8328 42.9346 39.8328 42.9373 39.7238 42.9346L37.9125 42.8992C37.8322 42.8992 37.8322 42.8992 37.8408 42.812C37.8838 42.3842 37.9239 41.9564 37.9469 41.5286C37.987 40.802 37.9937 40.0754 37.9669 39.3488C37.965 39.095 37.9255 38.8427 37.8494 38.5994C37.8124 38.448 37.7201 38.314 37.5889 38.2211C37.4577 38.1283 37.2961 38.0828 37.1329 38.0926C36.8345 38.0883 36.5395 38.1528 36.2731 38.2807C35.8788 38.4754 35.5135 38.7192 35.1868 39.0054C35.1681 39.0217 35.1541 39.0423 35.146 39.0652C35.138 39.0881 35.1363 39.1125 35.141 39.1362V40.9918C35.141 41.5804 35.1457 42.1689 35.1553 42.7575C35.1553 42.782 35.1553 42.8065 35.1553 42.8311C35.1553 42.8556 35.1324 42.9074 35.0722 42.9101L34.092 42.9591C33.8054 42.9727 33.5388 42.9837 33.2637 43C33.2092 43 33.1863 43 33.1863 42.9346C33.1823 42.9048 33.1856 42.8745 33.1961 42.8461C33.2065 42.8177 33.2238 42.792 33.2465 42.7711C33.3111 42.7105 33.3715 42.6459 33.427 42.5777C33.5016 42.4986 33.4987 42.4959 33.427 42.4142L33.215 42.1417C33.1738 42.0943 33.1524 42.0342 33.1548 41.9727L33.1032 39.4196C33.1032 38.8747 33.0831 38.3297 33.0717 37.8011C33.0665 37.7654 33.0722 37.729 33.0879 37.6962C33.1036 37.6634 33.1288 37.6356 33.1605 37.6158C33.3067 37.5204 33.4471 37.4114 33.5847 37.3134C33.6449 37.2752 33.6449 37.2425 33.6076 37.1853C33.4751 36.9698 33.3122 36.7727 33.1232 36.5994C33.0975 36.5788 33.0769 36.5528 33.063 36.5236C33.0491 36.4944 33.0423 36.4626 33.043 36.4305C33.043 35.6894 33.0143 34.951 33 34.2098C33 34.0981 33 34.1008 33.106 34.0954L34.9661 34H34.9919C35.098 34 35.1008 34 35.1008 34.0954C35.1008 34.3351 35.1008 34.5777 35.1008 34.8202C35.1008 35.6594 35.1008 36.4959 35.1008 37.3351C35.1524 37.3651 35.1496 37.4114 35.1496 37.4578Z" fill="#173303"/>
<path id="Vector_12" d="M22.9255 34C22.9387 34.0479 22.9429 34.0988 22.9377 34.1489V36.0518C22.9377 36.0905 22.9377 36.1113 22.9817 36.1084H23.0598L24.8763 36.0815C25.0057 36.0815 25.0032 36.0547 24.9984 36.2304C24.9984 36.7426 24.9764 37.2519 24.9642 37.7611C24.9642 37.8653 24.9642 37.8653 24.8812 37.8683L23.0769 37.9219H23.033C22.9548 37.9219 22.9524 37.9219 22.9524 38.0172V38.9105V40.6675C22.9506 40.8685 22.9711 41.0688 23.0134 41.2631C23.0395 41.3873 23.0891 41.5024 23.1582 41.5991C23.2273 41.6958 23.314 41.7714 23.4114 41.8199C23.5942 41.9169 23.7937 41.9578 23.9925 41.9391C24.2117 41.9213 24.4282 41.8703 24.637 41.7872C24.7273 41.7544 24.7274 41.7544 24.7371 41.8676C24.7859 42.3947 24.8348 42.9218 24.8812 43.4488C24.8812 43.4816 24.8812 43.5114 24.8812 43.5441C24.8812 43.5769 24.869 43.6305 24.8201 43.6484C24.2162 43.9034 23.579 44.0215 22.9402 43.9968C22.6885 43.9798 22.4409 43.9114 22.2077 43.7943C21.9974 43.6856 21.8076 43.5254 21.6501 43.3236C21.4926 43.1218 21.3708 42.8826 21.2922 42.621C21.1886 42.2961 21.122 41.9555 21.0944 41.6085C21.0578 41.2095 21.0578 40.8075 21.0529 40.4174C21.0432 39.651 21.035 38.8867 21.0285 38.1244C21.0273 38.1105 21.0273 38.0965 21.0285 38.0827C21.0285 38.0201 21.0139 37.9934 20.9601 37.9963C20.9064 37.9993 20.8063 37.9963 20.7282 37.9963L20.091 38.0172C19.9982 38.0172 19.9982 38.0172 20.0006 37.91C20.0128 37.3859 20.0226 36.8647 20.0324 36.3406C20.0336 36.3188 20.0336 36.2969 20.0324 36.2751C20.0324 36.1381 20.0324 36.1441 20.1422 36.1441H20.8918C21.0016 36.1441 21.0016 36.1441 20.9992 36.0131L20.9772 34.5241C20.9772 34.3305 20.9772 34.3335 21.1286 34.3097L22.5788 34.0774L22.9255 34Z" fill="#173303"/>
<path id="Vector_13" d="M31.6139 38.593C31.5303 38.4754 31.4352 38.3663 31.3297 38.2673C30.999 37.9949 30.5865 37.838 30.1563 37.821C29.7069 37.7817 29.2586 37.9087 28.8985 38.1774C28.5385 38.4461 28.2921 38.8373 28.2073 39.2752C28.0668 39.8223 28.0965 40.3985 28.2925 40.9287C28.4199 41.2725 28.6525 41.5686 28.958 41.7759C29.2635 41.9832 29.6267 42.0913 29.9972 42.0853C30.5751 42.1019 31.1401 41.9148 31.5911 41.5575C31.6765 41.4849 31.7571 41.4071 31.8326 41.3245C31.8809 41.3414 31.8951 41.3807 31.9179 41.4087C32.202 41.799 32.4861 42.1892 32.7702 42.5766C32.8526 42.6889 32.8384 42.672 32.7702 42.7647C32.3544 43.2577 31.7996 43.6173 31.1763 43.7978C30.3351 44.0615 29.4327 44.0674 28.588 43.8146C28.0566 43.6611 27.5704 43.3835 27.1703 43.0054C26.7703 42.6272 26.4682 42.1595 26.2895 41.6417C26.0719 41.0594 25.9753 40.4398 26.0054 39.8198C26.0194 39.2376 26.1538 38.6644 26.4003 38.1354C26.6445 37.593 27.0228 37.1201 27.5004 36.76C27.978 36.3999 28.5396 36.1643 29.1335 36.0748C29.9661 35.9148 30.8284 36.0129 31.6025 36.3555C32.1574 36.582 32.6264 36.9748 32.9435 37.4785L32.9861 37.5543C32.9905 37.5584 32.994 37.5635 32.9964 37.569C32.9988 37.5746 33 37.5805 33 37.5865C33 37.5926 32.9988 37.5985 32.9964 37.6041C32.994 37.6096 32.9905 37.6146 32.9861 37.6188L32.935 37.6581C32.5344 37.9613 32.1366 38.2617 31.7332 38.5621C31.7174 38.5765 31.6983 38.5869 31.6774 38.5923C31.6566 38.5977 31.6348 38.5979 31.6139 38.593Z" fill="#173303"/>
<path id="Vector_14" d="M18.9843 40.1424C18.9843 41.2061 18.9989 42.4667 18.9989 43.7273C18.9989 43.9 19.0208 43.8848 18.8723 43.8939L17.2483 44C17.1558 44 17.1583 44 17.1534 43.8848C17.1363 43.1061 17.1169 42.3303 17.0998 41.5515C17.0876 40.9939 17.0779 40.4333 17.0657 39.8758L17.0292 38.0576L17 36.6545C17 36.5182 17 36.3818 17 36.2455C17 36.1091 17 36.1394 17.0828 36.1333L17.8132 36.0788L18.8406 36H18.8747C18.9818 36 18.9818 36 18.9843 36.1273C18.9696 37.4091 18.977 38.6788 18.9843 40.1424Z" fill="#173303"/>
<path id="Vector_15" d="M17.1355 33.0892L18.2457 33.0312C18.2976 33.0312 18.325 33.0313 18.322 33.0984V34.9192C18.322 35.0077 18.322 35.0107 18.2213 35.0168L17.2606 35.0656L16.0406 35.1174C15.9216 35.1174 15.9247 35.1174 15.9216 35.0015C15.9216 34.4495 15.8911 33.8944 15.8789 33.3423C15.8789 33.3057 15.8789 33.2692 15.8789 33.2326C15.8789 33.196 15.8972 33.1594 15.9491 33.1563C16.0009 33.1533 16.0955 33.1563 16.1687 33.1563L17.1294 33.1106L17.1355 33.0892Z" fill="#173303"/>
</g>
<defs>
<clipPath id="clip0_1731_2547">
<rect width="61" height="61" fill="white"/>
</clipPath>
</defs>
</svg>
