<svg width="61" height="61" viewBox="0 0 61 61" fill="none" xmlns="http://www.w3.org/2000/svg">
<g id="Layer_1" clip-path="url(#clip0_1731_2530)">
<path id="Vector" d="M54.3632 0H6.6368C2.9714 0 0 2.9714 0 6.6368V54.3632C0 58.0286 2.9714 61 6.6368 61H54.3632C58.0286 61 61 58.0286 61 54.3632V6.6368C61 2.9714 58.0286 0 54.3632 0Z" fill="#9FE870"/>
<path id="Vector_2" d="M20.8835 27.0933C20.8683 27.0962 20.854 27.1027 20.8418 27.1123C20.8296 27.1218 20.8198 27.1341 20.8133 27.1482C20.2009 27.9368 19.3418 28.4973 18.3733 28.7403C17.7577 28.9136 17.1183 28.9877 16.4793 28.9599C15.9988 28.9536 15.5246 28.8499 15.0854 28.6549C14.7389 28.4886 14.4321 28.2497 14.1858 27.9545C13.9395 27.6593 13.7596 27.3147 13.658 26.9439C13.5115 26.4541 13.4385 25.9453 13.4415 25.4341C13.4415 23.5187 13.4415 21.6043 13.4415 19.691V19.6117C13.4415 19.5598 13.4628 19.5354 13.5147 19.5354H15.9364C16.0919 19.5354 16.0919 19.5354 16.0919 19.691C16.0919 21.3847 16.0919 23.0765 16.0919 24.7662C16.0841 25.0884 16.118 25.4103 16.1926 25.7239C16.2109 25.794 16.2322 25.8672 16.2566 25.9343C16.3425 26.2266 16.521 26.483 16.7653 26.6651C17.0095 26.8472 17.3062 26.945 17.6108 26.9439C18.1576 26.9849 18.7049 26.8713 19.1903 26.6162C19.6756 26.3612 20.0795 25.9748 20.3558 25.5012C20.4411 25.3698 20.4847 25.2156 20.4809 25.059C20.4809 23.2818 20.4809 21.5047 20.4809 19.7276C20.4809 19.5202 20.4565 19.5354 20.6791 19.5354H23.0551C23.1191 19.5354 23.1374 19.5659 23.1344 19.6239C23.1313 19.6818 23.1344 19.7093 23.1344 19.7489V25.9984C23.1305 26.1138 23.1386 26.2293 23.1588 26.343C23.1749 26.4483 23.2246 26.5455 23.3004 26.6203C23.3762 26.695 23.4742 26.7433 23.5797 26.7578C23.6111 26.7606 23.6428 26.7606 23.6742 26.7578C23.7474 26.7578 23.7688 26.7975 23.7688 26.8707C23.7688 27.4807 23.7688 28.0907 23.7688 28.7007C23.7688 28.7617 23.7688 28.8013 23.6864 28.8105C23.1479 28.9186 22.5945 28.931 22.0516 28.8471C21.8118 28.8024 21.5853 28.7032 21.3898 28.5573C21.2661 28.4705 21.1622 28.3585 21.085 28.2286C21.0077 28.0988 20.9588 27.9541 20.9414 27.804C20.9201 27.56 20.9048 27.3312 20.8835 27.0933Z" fill="#173303"/>
<path id="Vector_3" d="M36.8714 24.1556C36.8714 23.4175 36.8714 22.6824 36.8714 21.9443C36.8685 21.8445 36.8973 21.7462 36.9537 21.6637C37.5149 20.81 38.33 20.1539 39.2839 19.788C39.9225 19.5367 40.599 19.3954 41.2847 19.3701C42.0236 19.32 42.7656 19.3985 43.4777 19.6019C44.6372 19.9113 45.645 20.6309 46.3142 21.6271C46.8414 22.4181 47.1061 23.3551 47.0706 24.305C47.0407 25.1989 46.7546 26.0655 46.2464 26.8014C45.7381 27.5373 45.029 28.1117 44.2036 28.4561C43.568 28.7299 42.8903 28.8929 42.1997 28.938C41.4303 29.0042 40.6552 28.9361 39.9092 28.7367C38.7126 28.4407 37.6682 27.7115 36.9781 26.6901C36.9051 26.5881 36.8676 26.4648 36.8714 26.3394C36.8744 25.6104 36.8714 24.8845 36.8714 24.1556ZM41.8856 26.9402C42.3744 26.9202 42.8469 26.7581 43.245 26.4737C43.6432 26.1893 43.9498 25.7949 44.1273 25.339C44.3668 24.7881 44.4307 24.1768 44.3103 23.5883C44.2188 23.0945 43.9918 22.636 43.6545 22.264C43.3172 21.892 42.8831 21.6211 42.4006 21.4819C41.9182 21.3426 41.4065 21.3403 40.9228 21.4753C40.4392 21.6103 40.0027 21.8773 39.6621 22.2463C39.3664 22.5717 39.1514 22.9621 39.0343 23.386C38.9172 23.8098 38.9014 24.2552 38.9881 24.6863C39.2077 26.0374 40.2904 26.9402 41.8856 26.9402Z" fill="#173303"/>
<path id="Vector_4" d="M49.4772 21.3501C49.5046 21.3501 49.5138 21.3318 49.526 21.3165C49.998 20.6612 50.662 20.1688 51.4261 19.9074C52.3435 19.5593 53.3354 19.4542 54.3053 19.6024C54.8081 19.6589 55.2824 19.865 55.6668 20.194C56.0512 20.5229 56.3281 20.9597 56.4617 21.4477C56.5825 21.8515 56.6552 22.2682 56.6782 22.689C56.6965 22.9361 56.7026 23.1831 56.7026 23.4332C56.7026 25.2144 56.7026 26.9956 56.7026 28.7768C56.7026 28.9995 56.724 28.969 56.5074 28.969H54.2443C54.2016 28.969 54.1589 28.969 54.1162 28.969C54.0735 28.969 54.0522 28.9446 54.0522 28.8988V23.787C54.06 23.433 54.0169 23.0796 53.9241 22.7378C53.8595 22.4636 53.7153 22.2145 53.5096 22.0219C53.304 21.8292 53.046 21.7016 52.7681 21.6551C52.4453 21.5958 52.1129 21.6136 51.7982 21.7069C51.0771 21.9003 50.4473 22.3421 50.0201 22.9544C49.9598 23.0409 49.9057 23.1316 49.8584 23.2258C49.7612 23.401 49.7128 23.599 49.7181 23.7992C49.7181 25.4432 49.7181 27.0871 49.7181 28.7311V28.8409C49.7181 28.9598 49.7181 28.9629 49.5931 28.9629H47.208C47.0768 28.9629 47.0738 28.9629 47.0738 28.8195C47.0738 28.1089 47.0738 27.3952 47.0738 26.6845C47.0744 26.6006 47.0975 26.5185 47.1409 26.4466C47.5358 25.7517 47.7434 24.9661 47.7434 24.1668C47.7434 23.3674 47.5358 22.5818 47.1409 21.8869C47.0885 21.8017 47.062 21.7032 47.0646 21.6032C47.0646 21.0298 47.0646 20.4564 47.0646 19.88C47.0646 19.8434 47.0646 19.8068 47.0646 19.7702C47.0646 19.7336 47.086 19.6909 47.1378 19.6939H49.3552C49.4314 19.6939 49.4589 19.7153 49.4558 19.7915C49.4558 20.0416 49.4558 20.2887 49.4558 20.5357V21.2616C49.4619 21.2921 49.4497 21.3257 49.4772 21.3501Z" fill="#173303"/>
<path id="Vector_5" d="M11.5711 21.784C11.4308 21.9457 11.321 22.089 11.2082 22.211C10.8025 22.696 10.3938 23.1779 9.98818 23.6659C9.96216 23.7013 9.92745 23.7295 9.88738 23.7477C9.84732 23.7658 9.80325 23.7734 9.75943 23.7696H7.46278C7.39894 23.7626 7.33435 23.7699 7.27368 23.7909L7.41702 23.8397C7.66102 23.916 7.90197 23.9922 8.14597 24.0624C8.16234 24.0642 8.17817 24.0694 8.19249 24.0775C8.20681 24.0856 8.21934 24.0966 8.22932 24.1097C8.23929 24.1228 8.24651 24.1378 8.25053 24.1538C8.25456 24.1698 8.2553 24.1864 8.25273 24.2027C8.25273 24.6785 8.25273 25.1543 8.25273 25.627C8.2492 25.7058 8.21531 25.7801 8.15818 25.8344L6.42577 27.8901L5.64193 28.8204C5.61206 28.8648 5.57104 28.9005 5.52298 28.9241V17.0291C5.52298 16.7668 5.56262 16.8278 5.30642 16.7485C4.97092 16.6417 4.63238 16.5411 4.29688 16.416H16.0577C16.076 16.4648 16.0302 16.4862 16.0058 16.5167C15.4629 17.1633 14.917 17.8068 14.3771 18.4534C14.3499 18.488 14.3144 18.5151 14.2739 18.5322C14.2333 18.5493 14.1891 18.5558 14.1453 18.551H7.25233C7.31165 18.5946 7.38078 18.6229 7.45363 18.6334L8.11852 18.8377C8.27102 18.8865 8.24358 18.8804 8.24358 19.0116V21.5888C8.24358 21.8084 8.21613 21.7779 8.43878 21.781H11.565L11.5711 21.784Z" fill="#173303"/>
<path id="Vector_6" d="M33.1513 20.6309L32.0929 22.0461L31.8977 21.9241C31.3387 21.5555 30.7193 21.2881 30.0677 21.1341C29.5535 21.0072 29.0184 20.9895 28.4969 21.0823C28.3109 21.121 28.1312 21.1857 27.9632 21.2744C27.7904 21.3694 27.6544 21.5195 27.577 21.7009C27.4996 21.8822 27.4852 22.0843 27.5362 22.2748C27.5568 22.3608 27.5943 22.4418 27.6467 22.5131C27.6991 22.5843 27.7652 22.6443 27.8412 22.6896C27.9987 22.7867 28.1678 22.8635 28.3444 22.9184C28.7811 23.0581 29.225 23.1742 29.6742 23.2661C30.354 23.4171 31.0242 23.6086 31.6811 23.8395C32.0342 23.9651 32.3702 24.1342 32.6816 24.3427C32.992 24.5474 33.2377 24.8362 33.39 25.1754C33.5423 25.5146 33.5949 25.8901 33.5417 26.2581C33.5156 26.6577 33.3936 27.0451 33.186 27.3876C32.9784 27.73 32.6913 28.0174 32.3491 28.2254C31.832 28.5572 31.2494 28.7736 30.6411 28.8598C28.9672 29.1259 27.2519 28.8858 25.7154 28.1705C25.6208 28.1247 25.5293 28.0698 25.4348 28.0241C25.4056 28.0133 25.381 27.9929 25.3649 27.9663C25.3489 27.9397 25.3423 27.9085 25.3463 27.8777C25.3463 27.5727 25.3463 27.2433 25.3463 26.9291C25.3463 26.7888 25.3463 26.7888 25.2152 26.7431C25.2152 26.6973 25.2426 26.6699 25.264 26.6363C25.3768 26.4655 25.4958 26.2947 25.6056 26.1209C25.6452 26.0568 25.6787 26.0538 25.7428 26.0934C26.023 26.2726 26.3132 26.4355 26.6121 26.5814C27.2143 26.8876 27.8605 27.0985 28.5275 27.2067C29.0237 27.2886 29.5305 27.2834 30.025 27.1914C30.2437 27.1503 30.4515 27.0641 30.635 26.9383C30.769 26.8474 30.8734 26.7192 30.9353 26.5696C30.9971 26.4199 31.0136 26.2554 30.9827 26.0965C30.9659 25.9967 30.9274 25.9019 30.8699 25.8186C30.8125 25.7354 30.7375 25.6657 30.6503 25.6146C30.5381 25.5452 30.4183 25.489 30.2934 25.4468C29.7263 25.2486 29.149 25.0806 28.564 24.9436C27.8798 24.783 27.2064 24.5793 26.548 24.3336C26.2473 24.2175 25.964 24.0605 25.7062 23.8669C25.4992 23.7111 25.3305 23.51 25.2132 23.279C25.0958 23.0479 25.0328 22.7931 25.0291 22.5341C24.9976 22.0516 25.0979 21.5697 25.3193 21.1399C25.5406 20.7101 25.8747 20.3486 26.2857 20.0941C26.8413 19.7249 27.4751 19.49 28.1371 19.4078C29.2494 19.2495 30.3831 19.3465 31.4524 19.6915C32.0204 19.8758 32.5534 20.1541 33.0292 20.515C33.0591 20.5367 33.0876 20.5601 33.1146 20.5851C33.1146 20.5851 33.136 20.6095 33.1513 20.6309Z" fill="#173303"/>
<path id="Vector_7" d="M33.81 20.6208C33.7825 20.5964 33.7673 20.572 33.7459 20.5628C33.6657 20.5308 33.5997 20.4709 33.5599 20.3942C33.5201 20.3175 33.5093 20.229 33.5294 20.145C33.5364 20.0435 33.5364 19.9415 33.5294 19.84C33.5294 19.6997 33.5019 19.6875 33.688 19.6875H36.0792C36.2103 19.6875 36.2103 19.6875 36.2134 19.8126V28.7795C36.2134 28.9991 36.2439 28.9717 36.0212 28.9717H33.7276C33.691 28.9717 33.6544 28.9717 33.6178 28.9717C33.5812 28.9717 33.5324 28.9564 33.5324 28.8924C33.5324 28.5447 33.5324 28.197 33.5324 27.8493C33.5329 27.8233 33.5392 27.7978 33.5508 27.7746C33.5624 27.7514 33.579 27.731 33.5995 27.7151C33.8575 27.4342 34.0391 27.0919 34.1272 26.7208C34.2726 26.2009 34.2415 25.6474 34.0387 25.147C33.9392 24.9249 33.7925 24.7271 33.6087 24.5675C33.585 24.5484 33.5658 24.5243 33.5526 24.4968C33.5394 24.4694 33.5325 24.4393 33.5324 24.4089V21.0783C33.5307 21.0157 33.5524 20.9548 33.5934 20.9075C33.6666 20.816 33.7337 20.7214 33.81 20.6208Z" fill="#173303"/>
<path id="Vector_8" d="M34.858 18.4181H33.6563C33.5343 18.4181 33.5312 18.4181 33.5312 18.2961V16.1611C33.5312 16.0421 33.5313 16.0391 33.6563 16.0391H36.0963C36.2183 16.0391 36.2214 16.0391 36.2214 16.158V18.293C36.2214 18.412 36.2213 18.412 36.0993 18.415L34.858 18.4181Z" fill="#173303"/>
<path id="Vector_9" d="M14.7254 44.6787H12.0231C11.9832 44.6809 11.9433 44.6732 11.9071 44.6561C11.8709 44.6391 11.8395 44.6133 11.8157 44.5811C10.7991 43.3245 9.79156 42.0709 8.79319 40.8204C8.76332 40.7721 8.72259 40.7314 8.67424 40.7015V40.857C8.67424 41.406 8.67424 41.955 8.67424 42.504C8.6761 42.5448 8.66976 42.5855 8.65562 42.6237C8.64147 42.662 8.61981 42.697 8.59189 42.7267L6.45689 45.1667C6.43554 45.1941 6.41724 45.2277 6.37759 45.2399C6.34099 45.2063 6.35624 45.1636 6.35624 45.124L6.29219 39.1887C6.29219 38.048 6.26169 36.9103 6.24644 35.7696C6.24644 35.6568 6.24644 35.6568 6.13359 35.6202L5.37109 35.3884C5.40209 35.3692 5.43849 35.3606 5.47479 35.364H8.55834C8.68949 35.364 8.67424 35.364 8.67424 35.5012V39.5242C8.72609 39.5242 8.73524 39.4967 8.75659 39.4754L11.9713 35.8154C11.9979 35.7789 12.0335 35.7499 12.0747 35.7311C12.1158 35.7124 12.1611 35.7047 12.2061 35.7086H14.7163C14.7163 35.7666 14.6919 35.7879 14.6675 35.8123L12.0567 38.841C11.773 39.1704 11.4863 39.4998 11.2027 39.8322C11.1112 39.9359 11.1295 39.9176 11.2027 40.0091L13.7891 43.4129L14.6644 44.5628C14.6951 44.5951 14.7162 44.6352 14.7254 44.6787Z" fill="#173303"/>
<path id="Vector_10" d="M43.2954 41.191C43.342 41.6064 43.5178 41.9967 43.7979 42.3069C44.0781 42.6172 44.4485 42.8317 44.857 42.9204C45.3242 43.0248 45.8079 43.0313 46.2778 42.9394C46.7476 42.8476 47.1933 42.6593 47.5867 42.3866L47.7087 42.3043C47.7545 42.3195 47.7606 42.3592 47.7789 42.3897C48.0473 42.8746 48.3187 43.3596 48.5841 43.8445C48.6451 43.9482 48.6725 43.936 48.5414 44.0214C47.8854 44.4611 47.1481 44.7649 46.3728 44.9151C45.5231 45.0782 44.6471 45.0417 43.8139 44.8083C43.199 44.6435 42.6374 44.3218 42.184 43.8749C41.7307 43.428 41.4011 42.871 41.2275 42.2585C41.0972 41.8293 41.0193 41.3858 40.9957 40.9379C40.9514 40.2696 41.0184 39.5986 41.1939 38.9523C41.3515 38.3178 41.6845 37.7404 42.1549 37.2863C42.6252 36.8321 43.2139 36.5195 43.8535 36.3842C44.429 36.2447 45.023 36.1973 45.6134 36.2439C46.1548 36.2642 46.6889 36.3755 47.1933 36.5733C47.6876 36.755 48.1192 37.075 48.4366 37.4952C48.7541 37.9154 48.944 38.418 48.9836 38.9432C49.0508 39.6241 48.9866 40.3116 48.7945 40.9684C48.793 40.9815 48.7889 40.9942 48.7823 41.0057C48.7758 41.0172 48.767 41.0273 48.7564 41.0353C48.7459 41.0433 48.7338 41.049 48.7209 41.0522C48.7081 41.0554 48.6947 41.0559 48.6817 41.0538L45.8513 41.1239L43.3899 41.1849L43.2954 41.191ZM45.0918 39.7514H45.2962H46.7693H46.8791C46.9188 39.7514 46.9371 39.7514 46.9371 39.6935C46.9371 39.602 46.9371 39.5105 46.9371 39.419C46.9389 39.0963 46.8253 38.7836 46.6166 38.5374C46.4079 38.2913 46.1181 38.128 45.7994 38.077C45.4122 37.9961 45.0124 37.9961 44.6252 38.077C44.3728 38.1176 44.1346 38.221 43.9326 38.3776C43.7307 38.5343 43.5713 38.7393 43.4692 38.9737C43.3671 39.1943 43.2973 39.4285 43.2618 39.6691C43.2618 39.7728 43.2618 39.7758 43.3533 39.7758L45.0918 39.7514Z" fill="#173303"/>
<path id="Vector_11" d="M51.1732 37.7935L51.4203 37.5983C51.9328 37.189 52.4981 36.8505 53.1008 36.5918C53.7024 36.3341 54.3583 36.2293 55.0101 36.2868C55.3566 36.3007 55.691 36.4179 55.9704 36.6233C56.2498 36.8288 56.4613 37.1131 56.5778 37.4397C56.7226 37.8171 56.811 38.2138 56.8401 38.617C56.9068 39.3877 56.9322 40.1615 56.9164 40.935C56.9011 41.5785 56.8859 42.2251 56.8462 42.8687C56.8157 43.3506 56.773 43.8264 56.7273 44.3052C56.7288 44.3327 56.7288 44.3602 56.7273 44.3876C56.6937 44.5553 56.7273 44.5309 56.5626 44.5279L54.4733 44.473C54.3696 44.473 54.3666 44.473 54.3757 44.3632C54.4093 44.0277 54.4337 43.6891 54.4611 43.3506C54.4977 42.8809 54.5282 42.4112 54.5374 41.9384C54.5374 41.3132 54.5587 40.6849 54.5374 40.0566C54.5311 39.8046 54.4973 39.554 54.4367 39.3093C54.4134 39.2168 54.3807 39.1269 54.3391 39.0409C54.2824 38.9046 54.1886 38.7869 54.0684 38.7012C53.9482 38.6155 53.8063 38.5652 53.659 38.556C53.3882 38.5308 53.1152 38.5662 52.8599 38.6597C52.5877 38.7566 52.3286 38.8867 52.0882 39.047C51.8174 39.2275 51.5577 39.4241 51.3105 39.6357C51.2788 39.6604 51.2536 39.6925 51.2371 39.7292C51.2207 39.7659 51.2134 39.806 51.2159 39.8461C51.2159 41.0661 51.2342 42.3014 51.2434 43.5275C51.2434 43.8081 51.2434 44.0887 51.2434 44.3662C51.2434 44.5126 51.2434 44.5004 51.1122 44.5096L49.999 44.5675L49.0382 44.6163C48.9345 44.6163 48.9345 44.6163 48.9315 44.5157C48.9284 44.415 48.9315 44.3845 48.9315 44.3235C48.9251 44.294 48.9288 44.2632 48.9421 44.2361C48.9554 44.209 48.9775 44.1871 49.0047 44.1741C49.0504 44.1527 49.0474 44.1192 49.0199 44.0856C48.9392 43.9577 48.9047 43.8059 48.9223 43.6556C48.9223 42.8534 48.8918 42.0513 48.8796 41.2491C48.8796 41.0692 48.8796 41.0692 49.0565 41.0631C49.2334 41.057 49.1938 41.0844 49.2365 40.9197C49.4039 40.3134 49.475 39.6846 49.4469 39.0562C49.4265 38.4351 49.2239 37.8337 48.8644 37.3268C48.8299 37.2836 48.8116 37.2297 48.8125 37.1743C48.8125 37.0188 48.8125 36.8693 48.8125 36.7077C48.8125 36.546 48.8125 36.5857 48.9254 36.5796L49.9288 36.5186L51.0116 36.4545H51.0543C51.1183 36.4545 51.1427 36.4698 51.1427 36.5369C51.1427 36.7687 51.161 37.0005 51.1732 37.2353C51.1458 37.4214 51.1549 37.5922 51.1732 37.7935Z" fill="#173303"/>
<path id="Vector_12" d="M35.4691 38.0208L35.7314 37.8165C36.1506 37.4737 36.6144 37.1895 37.11 36.9716C37.673 36.7298 38.287 36.6313 38.8973 36.6849C39.2235 36.6972 39.538 36.8098 39.7978 37.0074C40.0577 37.205 40.2502 37.478 40.3491 37.789C40.4667 38.1226 40.5395 38.4703 40.5657 38.823C40.6287 39.6765 40.646 40.5327 40.6175 41.388C40.6175 41.9797 40.584 42.5684 40.5352 43.1601C40.5138 43.4651 40.4803 43.7518 40.4528 44.0476C40.4528 44.1513 40.4528 44.1544 40.3369 44.1513L38.4093 44.1117C38.3239 44.1117 38.3239 44.1117 38.3331 44.0141C38.3788 43.5352 38.4215 43.0564 38.4459 42.5775C38.4886 41.7642 38.4958 40.9509 38.4673 40.1375C38.4653 39.8535 38.4232 39.5711 38.3422 39.2988C38.3029 39.1293 38.2046 38.9792 38.065 38.8753C37.9254 38.7714 37.7534 38.7205 37.5797 38.7315C37.2622 38.7266 36.9482 38.7989 36.6647 38.9419C36.2452 39.1599 35.8565 39.4328 35.5088 39.7532C35.4889 39.7715 35.4739 39.7945 35.4654 39.8201C35.4568 39.8457 35.455 39.8731 35.46 39.8996V41.9767C35.46 42.6355 35.4651 43.2943 35.4752 43.9531C35.4752 43.9805 35.4752 44.008 35.4752 44.0354C35.4752 44.0629 35.4508 44.1208 35.3868 44.1239L34.3437 44.1788C34.0387 44.194 33.755 44.2062 33.4622 44.2245C33.4043 44.2245 33.3799 44.2245 33.3799 44.1513C33.3756 44.118 33.3792 44.084 33.3903 44.0523C33.4014 44.0205 33.4198 43.9918 33.4439 43.9683C33.5127 43.9005 33.5769 43.8282 33.6361 43.7518C33.7154 43.6633 33.7123 43.6603 33.6361 43.5688L33.4104 43.2638C33.3666 43.2107 33.3438 43.1434 33.3463 43.0747L33.2914 40.2168C33.2914 39.6068 33.2701 38.9968 33.2579 38.4051C33.2524 38.3652 33.2584 38.3245 33.2752 38.2878C33.2919 38.2511 33.3187 38.2198 33.3524 38.1977C33.508 38.091 33.6574 37.969 33.8038 37.8592C33.8679 37.8165 33.8679 37.7799 33.8282 37.7158C33.6873 37.4747 33.5138 37.254 33.3128 37.0601C33.2854 37.0369 33.2635 37.0079 33.2487 36.9752C33.2339 36.9425 33.2266 36.9069 33.2274 36.871C33.2274 36.0414 33.1969 35.2148 33.1816 34.3852C33.1816 34.2602 33.1816 34.2632 33.2945 34.2571L35.2739 34.1504H35.3014C35.4142 34.1504 35.4173 34.1504 35.4173 34.2571C35.4173 34.5255 35.4173 34.797 35.4173 35.0684C35.4173 36.0078 35.4173 36.9442 35.4173 37.8836C35.4722 37.9171 35.4691 37.969 35.4691 38.0208Z" fill="#173303"/>
<path id="Vector_13" d="M22.391 34.4141C22.4075 34.4631 22.4127 34.5152 22.4063 34.5666V36.5155C22.4063 36.5552 22.4063 36.5765 22.4612 36.5735H22.5588L24.828 36.546C24.9896 36.546 24.9866 36.5186 24.9805 36.6985C24.9805 37.2231 24.953 37.7447 24.9378 38.2662C24.9378 38.373 24.9378 38.373 24.8341 38.376L22.5801 38.4309H22.5252C22.4276 38.4309 22.4246 38.4309 22.4246 38.5285V39.4435V41.243C22.4223 41.4489 22.4479 41.6541 22.5008 41.853C22.5334 41.9803 22.5954 42.0982 22.6817 42.1972C22.768 42.2962 22.8763 42.3737 22.998 42.4234C23.2263 42.5227 23.4756 42.5646 23.7239 42.5454C23.9977 42.5272 24.2682 42.4749 24.5291 42.3898C24.6419 42.3563 24.6419 42.3563 24.6541 42.4722C24.7151 43.012 24.7761 43.5519 24.8341 44.0917C24.8341 44.1253 24.8341 44.1558 24.8341 44.1893C24.8341 44.2229 24.8188 44.2778 24.7578 44.2961C24.0033 44.5573 23.2074 44.6783 22.4093 44.6529C22.0949 44.6356 21.7855 44.5655 21.4943 44.4455C21.2315 44.3342 20.9944 44.1702 20.7977 43.9634C20.6009 43.7567 20.4487 43.5118 20.3506 43.2438C20.2211 42.9111 20.138 42.5622 20.1035 42.2068C20.0578 41.7981 20.0578 41.3864 20.0517 40.9868C20.0395 40.202 20.0293 39.4191 20.0212 38.6383C20.0197 38.6241 20.0197 38.6098 20.0212 38.5956C20.0212 38.5316 20.0029 38.5041 19.9358 38.5072C19.8687 38.5102 19.7436 38.5072 19.646 38.5072L18.85 38.5285C18.7341 38.5285 18.7341 38.5285 18.7371 38.4187C18.7524 37.8819 18.7646 37.3482 18.7768 36.8114C18.7783 36.789 18.7783 36.7666 18.7768 36.7443C18.7768 36.604 18.7768 36.6101 18.914 36.6101H19.8504C19.9876 36.6101 19.9876 36.6101 19.9846 36.4759L19.9571 34.9509C19.9571 34.7526 19.9571 34.7557 20.1462 34.7313L21.9579 34.4934L22.391 34.4141Z" fill="#173303"/>
<path id="Vector_14" d="M31.7726 39.0573C31.6829 38.9296 31.5807 38.811 31.4676 38.7035C31.1125 38.4076 30.6697 38.2371 30.2079 38.2186C29.7254 38.1759 29.2442 38.3139 28.8577 38.6058C28.4711 38.8977 28.2067 39.3227 28.1156 39.7985C27.9648 40.3929 27.9967 41.0189 28.2071 41.5949C28.3439 41.9685 28.5936 42.2902 28.9215 42.5154C29.2494 42.7406 29.6394 42.8581 30.0371 42.8515C30.6574 42.8696 31.264 42.6663 31.7482 42.2781C31.8398 42.1992 31.9263 42.1147 32.0074 42.025C32.0593 42.0433 32.0745 42.086 32.0989 42.1165C32.4039 42.5404 32.7089 42.9644 33.0139 43.3853C33.1024 43.5073 33.0871 43.489 33.0139 43.5896C32.5676 44.1252 31.9719 44.516 31.3029 44.712C30.3998 44.9986 29.4311 45.005 28.5243 44.7303C27.9539 44.5636 27.4319 44.262 27.0025 43.8511C26.573 43.4403 26.2487 42.9322 26.0569 42.3696C25.8233 41.737 25.7195 41.0638 25.7519 40.3902C25.7669 39.7577 25.9112 39.1349 26.1758 38.5602C26.438 37.971 26.8441 37.4571 27.3568 37.0659C27.8695 36.6747 28.4724 36.4187 29.1099 36.3215C30.0037 36.1477 30.9294 36.2542 31.7604 36.6265C32.356 36.8725 32.8595 37.2992 33.2 37.8465L33.2457 37.9288C33.2504 37.9334 33.2542 37.9388 33.2567 37.9449C33.2593 37.9509 33.2606 37.9574 33.2606 37.9639C33.2606 37.9705 33.2593 37.9769 33.2567 37.983C33.2542 37.989 33.2504 37.9944 33.2457 37.999L33.1908 38.0417C32.7608 38.3711 32.3338 38.6974 31.9007 39.0238C31.8837 39.0395 31.8632 39.0508 31.8408 39.0566C31.8185 39.0625 31.795 39.0627 31.7726 39.0573Z" fill="#173303"/>
<path id="Vector_15" d="M18.3315 40.7475C18.3315 41.818 18.3498 43.0868 18.3498 44.3556C18.3498 44.5295 18.3772 44.5142 18.1912 44.5234L16.1568 44.6301C16.0409 44.6301 16.044 44.6301 16.0379 44.5142C16.0165 43.7304 15.9921 42.9496 15.9708 42.1657C15.9555 41.6045 15.9433 41.0403 15.9281 40.4791L15.8823 38.6491L15.8457 37.2369C15.8457 37.0997 15.8457 36.9624 15.8457 36.8252C15.8457 36.6879 15.8457 36.7184 15.9494 36.7123L16.8644 36.6574L18.1515 36.5781H18.1942C18.3284 36.5781 18.3284 36.5781 18.3315 36.7062C18.3132 37.9964 18.3223 39.2743 18.3315 40.7475Z" fill="#173303"/>
<path id="Vector_16" d="M17.1355 33.0892L18.2457 33.0312C18.2976 33.0312 18.325 33.0313 18.322 33.0984V34.9192C18.322 35.0077 18.322 35.0107 18.2213 35.0168L17.2606 35.0656L16.0406 35.1174C15.9216 35.1174 15.9247 35.1174 15.9216 35.0015C15.9216 34.4495 15.8911 33.8944 15.8789 33.3423C15.8789 33.3057 15.8789 33.2692 15.8789 33.2326C15.8789 33.196 15.8972 33.1594 15.9491 33.1563C16.0009 33.1533 16.0955 33.1563 16.1687 33.1563L17.1294 33.1106L17.1355 33.0892Z" fill="#173303"/>
</g>
<defs>
<clipPath id="clip0_1731_2530">
<rect width="61" height="61" fill="white"/>
</clipPath>
</defs>
</svg>
