<svg xmlns="http://www.w3.org/2000/svg" width="42.201" height="38.793" viewBox="0 0 42.201 38.793">
  <g id="shopping-bag_1_" data-name="shopping-bag (1)" transform="translate(0)">
    <path id="Path_19530" data-name="Path 19530" d="M226.574,241.821h-20.4a2.546,2.546,0,0,1-2.533-2.811l2.173-20.787a.849.849,0,0,1,.849-.764H226.1a.849.849,0,0,1,.844.764l2.173,20.787a2.546,2.546,0,0,1-2.541,2.811Z" transform="translate(-186.928 -203.028)" fill="#4e937e"/>
    <path id="Union_87" data-name="Union 87" d="M5.393,8.53q-.031-1.9-.054-3.8C5.33,4,5.322,3.267,5.31,2.538c0-.071,0-.071-.08-.1L4.7,2.29a.117.117,0,0,1,.075-.012H6.912c.092,0,.08,0,.08.084V4.95c.037.009.045-.017.058-.03L9.278,2.567A.2.2,0,0,1,9.441,2.5h1.741c.008.038-.017.05-.034.067q-.9.971-1.811,1.941l-.593.634c-.062.066-.05.059,0,.118l1.795,2.176c.2.248.4.494.606.739a.137.137,0,0,1,.046.081H9.316a.176.176,0,0,1-.146-.062c-.7-.806-1.394-1.608-2.1-2.414A.293.293,0,0,0,6.991,5.7v.1c0,.35,0,.705,0,1.055A.184.184,0,0,1,6.941,7Q6.2,7.779,5.46,8.56a.1.1,0,0,1-.054.045C5.38,8.585,5.393,8.56,5.393,8.53ZM.739,6.854V.337C.739.192.76.225.61.183.405.121.2.065,0,0H7.087C7.1.025,7.07.036,7.054.055,6.728.412,6.4.771,6.073,1.131a.161.161,0,0,1-.138.055H1.783a.378.378,0,0,0,.121.05c.134.038.267.071.4.108.1.029.075.025.075.1V2.875c0,.124-.017.107.121.107H4.383l-.217.239c-.246.272-.492.539-.734.81a.159.159,0,0,1-.138.058H1.908a.282.282,0,0,0-.117.013c.037.007.062.02.088.024l.438.126a.055.055,0,0,1,.051.024.089.089,0,0,1,.017.056q-.006.392,0,.793a.158.158,0,0,1-.059.112L1.281,6.385c-.158.171-.317.343-.471.518a.2.2,0,0,1-.071.059Z" transform="translate(23.131 22.295)" fill="#fff"/>
    <path id="Path_19531" data-name="Path 19531" d="M232.79,239.01l-2.173-20.787a.849.849,0,0,0-.844-.764h-1.648q.436,4.3.874,8.608a13.143,13.143,0,0,1-13.066,14.471l-8.283.006a2.546,2.546,0,0,0,2.207,1.273h20.4a2.546,2.546,0,0,0,2.535-2.808Z" transform="translate(-190.609 -203.029)" fill="#61cb93"/>
    <path id="Path_19532" data-name="Path 19532" d="M284.232,110.314a.637.637,0,0,1-.637-.637v-9.628a5.776,5.776,0,0,0-11.553,0v9.628a.637.637,0,0,1-1.273,0v-9.628a7.049,7.049,0,0,1,14.1,0v9.628A.637.637,0,0,1,284.232,110.314Z" transform="translate(-248.372 -89.181)" fill="#f3f0f3"/>
    <circle id="Ellipse_1893" data-name="Ellipse 1893" cx="1.485" cy="1.485" r="1.485" transform="translate(34.375 19.037)" fill="#fff"/>
    <path id="Path_19533" data-name="Path 19533" d="M416.172,272.09a1.485,1.485,0,0,1-1.392,2.291,1.484,1.484,0,1,0,1.392-2.291Z" transform="translate(-380.16 -253.045)" fill="#f3f0f3"/>
    <path id="Path_19534" data-name="Path 19534" d="M30.527,200.677H10.044A2.546,2.546,0,0,1,7.508,197.9l2.226-24.629a.849.849,0,0,1,.849-.772H29.992a.849.849,0,0,1,.849.772L33.066,197.9a2.546,2.546,0,0,1-2.538,2.775Z" transform="translate(-7.498 -161.884)" fill="#00815f"/>
    <path id="Path_19535" data-name="Path 19535" d="M36.779,197.9l-2.225-24.629a.849.849,0,0,0-.849-.772H32.051l1.224,13.541A12.259,12.259,0,0,1,21.066,199.4H11.56a2.541,2.541,0,0,0,2.207,1.273H34.244a2.546,2.546,0,0,0,2.535-2.775Z" transform="translate(-11.215 -161.884)" fill="#1cb669"/>
    <path id="Path_19536" data-name="Path 19536" d="M88.572,65.314a.637.637,0,0,1-.637-.637V55.049a5.776,5.776,0,1,0-11.553,0v9.628a.637.637,0,1,1-1.273,0V55.049a7.049,7.049,0,1,1,14.1,0v9.628A.637.637,0,0,1,88.572,65.314Z" transform="translate(-69.371 -48)" fill="#f3f0f3"/>
    <ellipse id="Ellipse_1894" data-name="Ellipse 1894" cx="1.582" cy="1.438" rx="1.582" ry="1.438" transform="translate(4.767 16.302)" fill="#fff"/>
    <circle id="Ellipse_1895" data-name="Ellipse 1895" cx="1.485" cy="1.485" r="1.485" transform="translate(17.74 16.19)" fill="#fff"/>
    <path id="Path_19537" data-name="Path 19537" d="M82.208,238.55a1.484,1.484,0,0,1-1.241,2.3,1.5,1.5,0,0,1-.152-.008,1.485,1.485,0,1,0,1.393-2.292Zm-12.826,0a1.483,1.483,0,0,1-1.24,2.3,1.5,1.5,0,0,1-.152-.008,1.485,1.485,0,1,0,1.392-2.292Z" transform="translate(-62.856 -222.356)" fill="#f3f0f3"/>
    <path id="Union_86" data-name="Union 86" d="M6.824,10.795q-.039-2.4-.069-4.812c-.01-.922-.021-1.849-.037-2.771,0-.09,0-.09-.1-.123L5.947,2.9a.148.148,0,0,1,.1-.016h2.7c.116,0,.1,0,.1.106V6.264c.047.012.057-.021.074-.038l2.82-2.978a.25.25,0,0,1,.206-.085h2.2c.01.048-.022.063-.042.085Q12.967,4.477,11.816,5.7l-.751.8c-.079.084-.063.074,0,.149L13.337,9.41c.253.314.512.625.766.935a.173.173,0,0,1,.058.1H11.789a.223.223,0,0,1-.184-.078c-.883-1.02-1.764-2.034-2.652-3.055a.371.371,0,0,0-.105-.1v.128c0,.443,0,.892.005,1.335a.233.233,0,0,1-.069.182q-.943.98-1.875,1.969a.123.123,0,0,1-.069.057C6.808,10.864,6.824,10.833,6.824,10.795ZM.935,8.673V.426C.935.243.962.285.772.231.513.153.253.082,0,0H8.969c.01.031-.022.046-.042.069C8.514.521,8.1.976,7.685,1.431a.2.2,0,0,1-.174.069H2.256a.479.479,0,0,0,.153.063c.169.048.338.09.507.137.122.037.1.031.1.127V3.639c0,.157-.022.136.153.136H5.546l-.275.3c-.312.344-.623.682-.929,1.026a.2.2,0,0,1-.174.073H2.414a.357.357,0,0,0-.148.017c.047.009.079.025.111.03l.554.159A.07.07,0,0,1,3,5.412a.112.112,0,0,1,.021.071q-.008.5,0,1a.2.2,0,0,1-.074.141L1.621,8.08c-.2.217-.4.434-.6.656a.25.25,0,0,1-.089.074Z" transform="translate(5.135 21.154)" fill="#fff"/>
  </g>
</svg>
