<svg id="Group_19302" data-name="Group 19302" xmlns="http://www.w3.org/2000/svg" width="44.491" height="39.131" viewBox="0 0 44.491 39.131">
  <path id="Path_17201" data-name="Path 17201" d="M2482.76,1159.791a52.147,52.147,0,0,0,4.433,4.065c.651.357,3.742,1.233,4.841,1.6.561.4.775.689,1.2.829,0,0,1.022.22,1.238-.155s.1-1.6-.079-1.613-1.938-.041-1.938-.041a19.888,19.888,0,0,1-4.347-2.357c-1.207-1-2.552-2.406-3.965-3.822Z" transform="translate(-2462.423 -1150.974)" fill="#ea8271"/>
  <path id="Path_17202" data-name="Path 17202" d="M3211.3,1059a47.036,47.036,0,0,1-3.8-3.494l1.5-2.206c.844.844,2.491,2.84,4,4.175A3.027,3.027,0,0,1,3211.3,1059Z" transform="translate(-3188.013 -1047.016)" fill="#1f4073"/>
  <path id="Path_17203" data-name="Path 17203" d="M3199.551,1428.492a3.61,3.61,0,0,0,1.895-1.717l-.531-.476a4.166,4.166,0,0,1-1.916,1.737Z" transform="translate(-3176.377 -1416.317)" fill="#1f4073"/>
  <ellipse id="Ellipse_1781" data-name="Ellipse 1781" cx="0.465" cy="0.585" rx="0.465" ry="0.585" transform="translate(30.677 15.623) rotate(-110.726)" fill="#151426"/>
  <path id="Path_17204" data-name="Path 17204" d="M3245.728,2195.156a2.74,2.74,0,0,1-1.937-1.2c-.119-.329,1.664-3.547,2.615-4.771.069-.088.015-.183.052-.25a.529.529,0,0,1,.187-.186c-.078-.036-.159-.007-.239-.049s-.155-.165-.242-.2c-1.611-.658-3.566-1.723-4.468-3.5,0,0,8.8.462,8.822,2.973C3250.533,2189.418,3246.344,2195.075,3245.728,2195.156Z" transform="translate(-3225.874 -2167.494)" fill="#a7a7a8"/>
  <path id="Path_17205" data-name="Path 17205" d="M3777.976,3166.5l-.811,1.365-.425.3c-.288.84,1.029.469,1.772.413-.2-.515.482-1.089.913-1.637Z" transform="translate(-3760.085 -3139.263)" fill="#ea8271"/>
  <path id="Path_17206" data-name="Path 17206" d="M3605.231,3323.8a1.786,1.786,0,0,0-.625,1.1c1.718.874,4.886,1.842,5.007,1.429.08-.511-.336-.52-1.019-.934-.8-.485-.974-1.53-1.557-1.7C3606.382,3323.865,3606.277,3324.681,3605.231,3323.8Z" transform="translate(-3588.576 -3294.903)" fill="#1f4073"/>
  <path id="Path_17207" data-name="Path 17207" d="M3682.146,3345.766a6.921,6.921,0,0,1-2.011-1.593.046.046,0,0,1,.012-.061.039.039,0,0,1,.056.011c.009.015,1.457,1.634,2.141,1.606C3682.451,3345.725,3682.43,3345.85,3682.146,3345.766Z" transform="translate(-3662.105 -3315.106)" fill="#fff"/>
  <path id="Path_17208" data-name="Path 17208" d="M3604.368,3425.2a3.561,3.561,0,0,0,1.266.468,19.794,19.794,0,0,0,2.12.784,4.189,4.189,0,0,0,1.857.259.844.844,0,0,0,.071-.358,6.8,6.8,0,0,1-3.684-1.283,9.9,9.9,0,0,0-1.324-.271A.7.7,0,0,0,3604.368,3425.2Z" transform="translate(-3588.636 -3395.002)" fill="#eaeaea"/>
  <path id="Path_17209" data-name="Path 17209" d="M3736.4,3089.928a3.217,3.217,0,0,0,1.336.778c.286.014,1.067-1.463,1.067-1.463l-1.724-.843A11.967,11.967,0,0,0,3736.4,3089.928Z" transform="translate(-3719.065 -3061.937)" fill="#a7a7a8"/>
  <path id="Path_17210" data-name="Path 17210" d="M3866.727,3484.554l-2.1-.8a.412.412,0,0,1-.239-.532h0a.413.413,0,0,1,.532-.239l2.1.8a.412.412,0,0,1,.239.532h0A.412.412,0,0,1,3866.727,3484.554Z" transform="translate(-3848.815 -3452.58)" fill="#b9bdc1"/>
  <ellipse id="Ellipse_1782" data-name="Ellipse 1782" cx="0.328" cy="0.328" rx="0.328" ry="0.328" transform="translate(16.681 30.861)" fill="#151426"/>
  <ellipse id="Ellipse_1783" data-name="Ellipse 1783" cx="0.174" cy="0.174" rx="0.174" ry="0.174" transform="translate(16.122 30.746)" fill="#151426"/>
  <ellipse id="Ellipse_1784" data-name="Ellipse 1784" cx="0.174" cy="0.174" rx="0.174" ry="0.174" transform="translate(17.55 31.287)" fill="#151426"/>
  <path id="Path_17211" data-name="Path 17211" d="M3506.818,3532.82l-4.768-.876a.315.315,0,0,1-.253-.366l.005-.029a.315.315,0,0,1,.366-.253l4.768.875a.315.315,0,0,1,.253.366l-.005.029A.313.313,0,0,1,3506.818,3532.82Z" transform="translate(-3485.127 -3500.437)" fill="#a5aaad"/>
  <ellipse id="Ellipse_1785" data-name="Ellipse 1785" cx="0.233" cy="0.233" rx="0.233" ry="0.233" transform="translate(21.398 31.804)" fill="#151426"/>
  <path id="Path_17212" data-name="Path 17212" d="M3650.376,3247.151l.063-.019-.876-2.833-.063.02Z" transform="translate(-3629.837 -3216.291)" fill="#b9bdc1"/>
  <path id="Path_17213" data-name="Path 17213" d="M3716.813,2939.933a.033.033,0,0,0,.03-.018,2.284,2.284,0,0,1,1.034-1.058,10.075,10.075,0,0,0,1.793-1.389c3.027-3.054,4.057-2.381,4.885-1.84a1.453,1.453,0,0,0,.982.353.034.034,0,0,0,.029-.038.033.033,0,0,0-.038-.029,1.393,1.393,0,0,1-.938-.343c-.848-.554-1.9-1.243-4.968,1.847a10.08,10.08,0,0,1-1.781,1.38,2.368,2.368,0,0,0-1.058,1.084.033.033,0,0,0,.014.045A.019.019,0,0,0,3716.813,2939.933Z" transform="translate(-3705.633 -2910.149)" fill="#151426"/>
  <path id="Path_17214" data-name="Path 17214" d="M3546.161,3410.28a.1.1,0,0,0,0-.2l-10.441-.18a.1.1,0,0,0-.1.1.1.1,0,0,0,.1.1l10.441.18Zm-9.923,5.1h.011l9.934-1.12a.1.1,0,1,0-.023-.2l-9.934,1.119a.1.1,0,0,0-.087.11A.1.1,0,0,0,3536.238,3415.383Z" transform="translate(-3524.54 -3380.249)" fill="#151426"/>
  <path id="Path_17215" data-name="Path 17215" d="M4368.919,3321a2.419,2.419,0,1,1-2.419,2.419A2.419,2.419,0,0,1,4368.919,3321Zm0,3.514a1.095,1.095,0,1,0-1.095-1.095A1.094,1.094,0,0,0,4368.919,3324.514Z" transform="translate(-4357.846 -3292.23)" fill="#b9bdc1"/>
  <path id="Path_17216" data-name="Path 17216" d="M2557.758,2229.951a.492.492,0,0,0,.155-.068l11.054-7.776a.5.5,0,0,0,.138-.69c-.153-.229-.461-.042-.69.11l-11.053,7.775c-.229.153-.291.213-.138.441A.5.5,0,0,0,2557.758,2229.951Z" transform="translate(-2537.756 -2203.444)" fill="#108060"/>
  <path id="Path_17217" data-name="Path 17217" d="M3262,2716.684l4.1-2.884.418.673-4.287,3.017Z" transform="translate(-3242.079 -2691.052)" fill="#1f4073"/>
  <path id="Path_17218" data-name="Path 17218" d="M3639.158,2979.734l-.358-.728.452-.306.417.675Z" transform="translate(-3618.961 -2953.324)" fill="#12305b"/>
  <path id="Path_17219" data-name="Path 17219" d="M2557.629,2226.7a.5.5,0,0,0,.4-.207l9.305-13.807a.5.5,0,0,0-.113-.694c-.223-.161-.406.027-.566.25l-9.433,13.67a.5.5,0,0,0,.114.694A.489.489,0,0,0,2557.629,2226.7Z" transform="translate(-2536 -2194.155)" fill="#108060"/>
  <path id="Path_17220" data-name="Path 17220" d="M2518.386,2262.1a.5.5,0,0,0,.395-.194l9.695-13.417a.5.5,0,0,0-.789-.607l-9.7,13.417a.5.5,0,0,0,.395.8Z" transform="translate(-2496.757 -2229.561)" fill="#108060"/>
  <path id="Path_17221" data-name="Path 17221" d="M2528.331,2313.9l9.7-13.417-.273-.282-9.552,13.416Z" transform="translate(-2506.307 -2281.552)" fill="#0e684c"/>
  <path id="Path_17222" data-name="Path 17222" d="M3817.442,2764a7.942,7.942,0,1,1-7.942,7.942A7.942,7.942,0,0,1,3817.442,2764Zm0,14.812a6.869,6.869,0,1,0-6.869-6.869A6.869,6.869,0,0,0,3817.442,2778.812Z" transform="translate(-3806.369 -2740.753)" fill="#151426"/>
  <path id="Path_17223" data-name="Path 17223" d="M3903.282,2850.7a7.082,7.082,0,1,1-7.083,7.082A7.082,7.082,0,0,1,3903.282,2850.7Zm0,13.644a6.563,6.563,0,1,0-6.562-6.563A6.563,6.563,0,0,0,3903.282,2864.344Z" transform="translate(-3892.208 -2826.595)" fill="#4c4860"/>
  <path id="Path_17224" data-name="Path 17224" d="M4421.889,3374.4a1.889,1.889,0,1,1-1.889,1.889A1.889,1.889,0,0,1,4421.889,3374.4Zm0,2.745a.855.855,0,1,0-.855-.855A.854.854,0,0,0,4421.889,3377.145Z" transform="translate(-4410.815 -3345.101)" fill="#151426"/>
  <ellipse id="Ellipse_1786" data-name="Ellipse 1786" cx="0.855" cy="0.855" rx="0.855" ry="0.855" transform="translate(10.219 30.334)" fill="#4c4860"/>
  <path id="Path_17225" data-name="Path 17225" d="M3519.135,2263.585a.249.249,0,0,0,.082-.013c.14-.044.216-.194.229-.158l-4.394-13.634c-.1-.315-.252-.392-.392-.347s-.216.195-.114.51l4.394,13.633C3518.919,2263.514,3519.023,2263.585,3519.135,2263.585Z" transform="translate(-3497.506 -2231.277)" fill="#151426"/>
  <path id="Path_17226" data-name="Path 17226" d="M3527.433,2520.477l.947-.3L3525.047,2509l-.947.3Z" transform="translate(-3506.535 -2488.282)" fill="#108060"/>
  <path id="Path_17227" data-name="Path 17227" d="M3661.2,2515.921a1.991,1.991,0,0,0,.937-.339l-1.993-6.682-.947.3Z" transform="translate(-3641.635 -2488.182)" fill="#1f4073"/>
  <path id="Path_17228" data-name="Path 17228" d="M3816.2,2709.771a.261.261,0,0,0,.2-.086l7.613-8.3a.265.265,0,0,0-.391-.359l-7.613,8.3a.265.265,0,0,0,.2.444Z" transform="translate(-3805.131 -2678.318)" fill="#108060"/>
  <path id="Path_17229" data-name="Path 17229" d="M3815.609,2696.518l-3.5,3.814a1.038,1.038,0,0,0,.426.321l3.462-3.777C3816.3,2696.591,3815.9,2696.17,3815.609,2696.518Z" transform="translate(-3797.119 -2673.81)" fill="#1f4073"/>
  <path id="Path_17230" data-name="Path 17230" d="M3876.955,2744.6l.177.593-.367.4-.065-.719Z" transform="translate(-3858.784 -2721.546)" fill="#12305b"/>
  <path id="Path_17231" data-name="Path 17231" d="M3529.932,3539.5a.265.265,0,0,0,.264-.244c.012-.146-.1-.437-.243-.449l-10.556-.692a.265.265,0,0,0-.042.529l10.556.855Z" transform="translate(-3508.302 -3507.189)" fill="#108060"/>
  <path id="Path_17232" data-name="Path 17232" d="M3556.061,3592.673l-10.46-1.074,10.58.59Z" transform="translate(-3534.548 -3560.146)" fill="#0e684c"/>
  <path id="Path_17233" data-name="Path 17233" d="M3659.871,2214.895c.061-.372-.048-.624-.857-.692s-1.452-.2-2.219-.327a18.1,18.1,0,0,0-2.437-.678c-.651.029-.757,1.315.479,1.822.88.361,1.233.028,3.166.126C3659.379,2215.214,3659.851,2215.017,3659.871,2214.895Z" transform="translate(-3639.327 -2195.411)" fill="#151426"/>
  <rect id="Rectangle_9680" data-name="Rectangle 9680" width="0.463" height="1.091" transform="translate(17.634 21.431) rotate(-107.71)" fill="#151426"/>
  <path id="Path_17234" data-name="Path 17234" d="M2584.061,2322.1l.259.76-.645.223-1.175.116Z" transform="translate(-2553.138 -2303.235)" fill="#0e684c"/>
  <ellipse id="Ellipse_1787" data-name="Ellipse 1787" cx="0.775" cy="0.775" rx="0.775" ry="0.775" transform="translate(10.923 33.738)" fill="#151426"/>
  <ellipse id="Ellipse_1788" data-name="Ellipse 1788" cx="0.451" cy="0.451" rx="0.451" ry="0.451" transform="translate(11.349 32.428)" fill="#151426"/>
  <path id="Path_17235" data-name="Path 17235" d="M4513.915,3697.085l-.415,1.5.763-.094.337-1.792Z" transform="translate(-4502.566 -3664.206)" fill="#151426"/>
  <g id="Group_18525" data-name="Group 18525" transform="translate(19.467 25.824)">
    <path id="Path_17236" data-name="Path 17236" d="M3586.9,3026.236a.027.027,0,0,0,.016,0,.033.033,0,0,0,.014-.045c-.291-.551.14-1.134,1.589-2.152a.034.034,0,0,0,.008-.047.033.033,0,0,0-.047-.008c-1.484,1.043-1.921,1.649-1.61,2.238A.033.033,0,0,0,3586.9,3026.236Z" transform="translate(-3586.774 -3023.974)" fill="#151426"/>
  </g>
  <g id="Group_18526" data-name="Group 18526" transform="translate(21.329 21.017)">
    <rect id="Rectangle_9681" data-name="Rectangle 9681" width="0.066" height="8.096" transform="matrix(-0.576, -0.817, 0.817, -0.576, 0.038, 4.717)" fill="#b9bdc1"/>
  </g>
  <g id="Group_18527" data-name="Group 18527" transform="translate(19.439 27.872)">
    <ellipse id="Ellipse_1789" data-name="Ellipse 1789" cx="0.209" cy="0.209" rx="0.209" ry="0.209" transform="translate(0)" fill="#108060"/>
  </g>
  <g id="Group_18534" data-name="Group 18534" transform="translate(27.941 14.389)">
    <path id="Path_17237" data-name="Path 17237" d="M2282.573,1963.766h0c1.5-.016,2.647-.544,2.928-1.348.217-.621-.1-1.316-.886-1.958a.033.033,0,0,0-.047,0,.032.032,0,0,0,0,.047c.766.624,1.073,1.293.866,1.885-.271.777-1.4,1.289-2.866,1.3a.033.033,0,0,0-.033.034A.034.034,0,0,0,2282.573,1963.766Z" transform="translate(-2279.354 -1959.561)" fill="#151426"/>
    <path id="Path_17238" data-name="Path 17238" d="M2122.407,1961.655a.033.033,0,0,0,.028-.015.033.033,0,0,0-.009-.046c-2.412-1.6-1.927-4.691-1.458-7.677.432-2.753.84-5.353-1.169-6.41a.033.033,0,1,0-.031.058c1.967,1.035,1.563,3.613,1.134,6.342-.472,3.007-.96,6.118,1.487,7.743A.034.034,0,0,0,2122.407,1961.655Z" transform="translate(-2114.612 -1946.74)" fill="#151426"/>
    <path id="Path_17239" data-name="Path 17239" d="M1248.417,2763.968a7.942,7.942,0,1,1-8.249,7.622A7.942,7.942,0,0,1,1248.417,2763.968Zm-.585,14.8a6.87,6.87,0,1,0-6.593-7.136A6.87,6.87,0,0,0,1247.832,2778.767Z" transform="translate(-1239.495 -2755.103)" fill="#151426"/>
    <path id="Path_17240" data-name="Path 17240" d="M1334.192,2850.636a7.082,7.082,0,1,1-7.356,6.8A7.082,7.082,0,0,1,1334.192,2850.636Zm-.539,13.635a6.563,6.563,0,1,0-6.3-6.817A6.563,6.563,0,0,0,1333.653,2864.271Z" transform="translate(-1325.304 -2840.913)" fill="#4c4860"/>
    <path id="Path_17241" data-name="Path 17241" d="M1811.8,3333.214a2.3,2.3,0,1,1-2.387,2.205A2.3,2.3,0,0,1,1811.8,3333.214Zm-.139,3.514a1.219,1.219,0,1,0-1.17-1.266A1.219,1.219,0,0,0,1811.662,3336.728Z" transform="translate(-1803.102 -3318.71)" fill="#b9bdc1"/>
    <ellipse id="Ellipse_1790" data-name="Ellipse 1790" cx="0.812" cy="0.812" rx="0.812" ry="0.812" transform="translate(7.796 15.987)" fill="#151426"/>
    <path id="Path_17242" data-name="Path 17242" d="M2485.737,2002.085a.324.324,0,0,0,.128-.021.332.332,0,0,0,.2-.426l-1.307-3.61a.332.332,0,0,0-.622.231l1.307,3.61A.331.331,0,0,0,2485.737,2002.085Z" transform="translate(-2481.866 -1996.55)" fill="#151426"/>
    <path id="Path_17243" data-name="Path 17243" d="M2012.157,2584.319a.268.268,0,0,0,.1-.016c.137-.052.274-.2.222-.338l-3.563-9.558a.348.348,0,0,0-.407-.159c-.137.052-.274.2-.222.339l3.564,9.558A.371.371,0,0,0,2012.157,2584.319Z" transform="translate(-2003.559 -2567.254)" fill="#b9bdc1"/>
    <path id="Path_17244" data-name="Path 17244" d="M2042.764,2613.458l-3.564-9.558.2.008,3.564,9.557Z" transform="translate(-2034.335 -2596.629)" fill="#a5aaad"/>
    <path id="Path_17245" data-name="Path 17245" d="M2382.992,2170.143l.676-.267-1.516-4.076-1.151.443,1.338,3.6A.507.507,0,0,0,2382.992,2170.143Z" transform="translate(-2378.429 -2162.873)" fill="#108060"/>
    <path id="Path_17246" data-name="Path 17246" d="M2390,2170l1.534,4.1-.31.122-1.529-4.1Z" transform="translate(-2386.386 -2167.031)" fill="#fff" opacity="0.26"/>
    <rect id="Rectangle_9682" data-name="Rectangle 9682" width="0.463" height="1.332" transform="matrix(-0.355, -0.935, 0.935, -0.355, 2.546, 3.457)" fill="#151426"/>
    <path id="Path_17247" data-name="Path 17247" d="M1997.1,1937.2h0a.5.5,0,0,0,.293-.641l-2.755-7.383-.932.348,2.755,7.383A.5.5,0,0,0,1997.1,1937.2Zm-6.146-15.341a.321.321,0,0,0,.114-.016l2.27-.627c.175-.056.2-.315.148-.49a.46.46,0,0,0-.485-.289l-2.288.607c-.283.084-.186.422-.13.6A.414.414,0,0,0,1990.949,1921.856Z" transform="translate(-1988.309 -1919.928)" fill="#151426"/>
    <path id="Path_17248" data-name="Path 17248" d="M2369.4,1871.869a.5.5,0,0,0,.036-.983l-1.779-.311a.5.5,0,0,0-.189.977l1.779.312A.516.516,0,0,0,2369.4,1871.869Z" transform="translate(-2364.464 -1870.566)" fill="#151426"/>
    <g id="Group_18528" data-name="Group 18528" transform="translate(4.256 6.322)">
      <rect id="Rectangle_9683" data-name="Rectangle 9683" width="0.881" height="1.007" transform="translate(0.308 1.178) rotate(-110.445)" fill="#108060"/>
    </g>
    <g id="Group_18529" data-name="Group 18529" transform="translate(4.235 6.102)">
      <path id="Path_17249" data-name="Path 17249" d="M2385.021,2486.172l.308-.115a.339.339,0,0,1,.436.2h0l-.944.352h0A.339.339,0,0,1,2385.021,2486.172Z" transform="translate(-2384.8 -2486.035)"/>
    </g>
    <g id="Group_18530" data-name="Group 18530" transform="translate(5.846 7.5)">
      <path id="Path_17250" data-name="Path 17250" d="M2157.821,2630.316l.4-.147-1.073-2.878a.423.423,0,0,0-.544-.249h0Z" transform="translate(-2156.6 -2627.014)" fill="#151426"/>
    </g>
    <g id="Group_18531" data-name="Group 18531" transform="translate(6.949 10.594)">
      <path id="Path_17251" data-name="Path 17251" d="M2148.1,2940.173c.255-.146.385-.545.2-1.113l-.474-.061c.077.208.039.3-.041.329Z" transform="translate(-2147.785 -2939)" fill="#151426"/>
    </g>
    <g id="Group_18532" data-name="Group 18532" transform="translate(0.053 0.763)">
      <path id="Path_17252" data-name="Path 17252" d="M2254.637,1953.4a.036.036,0,0,0,.016,0,17.25,17.25,0,0,1,1.793-.762c1.558-.6,3.323-1.274,4.229-2.57a1.651,1.651,0,0,0,.326-1.339,2.116,2.116,0,0,0-1.266-1.248.033.033,0,1,0-.029.06,2.055,2.055,0,0,1,1.231,1.206,1.59,1.59,0,0,1-.318,1.285c-.894,1.28-2.649,1.952-4.2,2.546a17.017,17.017,0,0,0-1.8.764.033.033,0,0,0-.014.045A.038.038,0,0,0,2254.637,1953.4Z" transform="translate(-2254.603 -1947.47)" fill="#151426"/>
    </g>
    <g id="Group_18533" data-name="Group 18533" transform="translate(0 0.761)">
      <path id="Path_17253" data-name="Path 17253" d="M2275.212,1953.161a.034.034,0,0,0,.017-.005,17.8,17.8,0,0,1,2.241-1.048c1.488-.617,3.028-1.255,3.649-2.279.535-.883.566-1.509-.752-2.483a.033.033,0,1,0-.04.054c1.284.949,1.259,1.528.734,2.394-.61,1.005-2.139,1.64-3.618,2.253a17.773,17.773,0,0,0-2.25,1.052.034.034,0,0,0,.019.062Z" transform="translate(-2275.177 -1947.339)" fill="#151426"/>
    </g>
  </g>
  <g id="Group_18535" data-name="Group 18535" transform="translate(27.699 20.776)">
    <ellipse id="Ellipse_1791" data-name="Ellipse 1791" cx="0.209" cy="0.209" rx="0.209" ry="0.209" transform="translate(0)" fill="#108060"/>
  </g>
  <g id="Group_18536" data-name="Group 18536" transform="translate(16.322 25.334)">
    <path id="Path_17254" data-name="Path 17254" d="M3584.919,2975.277a1.5,1.5,0,0,0,.877-.265.034.034,0,1,0-.038-.055c-.662.457-1.4.211-2.179-.051-.915-.306-1.861-.623-2.72.236a.033.033,0,0,0,.047.046c.83-.83,1.756-.52,2.651-.22A4.407,4.407,0,0,0,3584.919,2975.277Z" transform="translate(-3580.85 -2974.586)" fill="#151426"/>
  </g>
  <g id="Group_18537" data-name="Group 18537" transform="translate(21.012 25.524)">
    <ellipse id="Ellipse_1792" data-name="Ellipse 1792" cx="0.209" cy="0.209" rx="0.209" ry="0.209" transform="translate(0 0)" fill="#1f4073"/>
  </g>
  <g id="Group_18538" data-name="Group 18538" transform="translate(13.287 26.029)">
    <rect id="Rectangle_9684" data-name="Rectangle 9684" width="0.066" height="4.386" transform="matrix(-0.732, -0.682, 0.682, -0.732, 0.049, 3.254)" fill="#b9bdc1"/>
  </g>
  <g id="Group_18539" data-name="Group 18539" transform="translate(16.092 25.706)">
    <ellipse id="Ellipse_1793" data-name="Ellipse 1793" cx="0.209" cy="0.209" rx="0.209" ry="0.209" transform="translate(0 0)" fill="#1f4073"/>
  </g>
  <g id="Group_18540" data-name="Group 18540" transform="translate(8.17 29.228)">
    <path id="Path_17255" data-name="Path 17255" d="M4383.032,3371.165a2.765,2.765,0,0,0,1.566-.6.033.033,0,0,0,.009-.046.034.034,0,0,0-.047-.008c-1.229.865-1.978.589-2.314.348a1.59,1.59,0,0,1-.553-1.682c.273-.921,1.2-.952,2.269-.988a3.625,3.625,0,0,0,2.773-.864.033.033,0,0,0,0-.047.033.033,0,0,0-.046,0,3.515,3.515,0,0,1-2.724.841c-1.052.035-2.043.067-2.33,1.035a1.657,1.657,0,0,0,.577,1.754A1.385,1.385,0,0,0,4383.032,3371.165Z" transform="translate(-4381.57 -3367.269)" fill="#151426"/>
  </g>
  <g id="Group_18541" data-name="Group 18541" transform="translate(13.036 29.003)">
    <ellipse id="Ellipse_1794" data-name="Ellipse 1794" cx="0.209" cy="0.209" rx="0.209" ry="0.209" transform="translate(0 0)" fill="#108060"/>
  </g>
  <g id="Group_18543" data-name="Group 18543" transform="translate(19.038 29.75)">
    <path id="Path_17256" data-name="Path 17256" d="M3443.527,3517.572a.326.326,0,0,0-.026-.3.286.286,0,0,0,.052.005.321.321,0,0,0,.231-.1.328.328,0,0,0,.091-.279c.014.008.028.016.043.023a.322.322,0,0,0,.125.025.35.35,0,0,0,.126-.025.324.324,0,0,0,.177-.177.358.358,0,0,0,.015-.051.5.5,0,0,1,.718.227.324.324,0,0,0,.124.025.329.329,0,0,0,.172-.05.314.314,0,0,0,0,.053.321.321,0,0,0,.1.231.326.326,0,0,0,.231.1.222.222,0,0,0,.047-.005c-.008.014-.016.028-.023.043a.329.329,0,0,0,0,.251.323.323,0,0,0,.177.177.36.36,0,0,0,.051.015.5.5,0,0,1-.227.718.238.238,0,0,1-.257.387.324.324,0,0,0-.1.231.258.258,0,0,0,0,.047.326.326,0,0,0-.292-.021.315.315,0,0,0-.192.228.5.5,0,0,1-.718-.227.326.326,0,0,0-.3.025.33.33,0,0,0-.09-.283.238.238,0,0,1-.258-.384.322.322,0,0,0-.177-.176.3.3,0,0,0-.051-.015.325.325,0,0,0,0-.527A.336.336,0,0,0,3443.527,3517.572Z" transform="translate(-3442.342 -3515.74)" fill="#151426"/>
    <path id="Path_17257" data-name="Path 17257" d="M3348.884,3419.9a2.283,2.283,0,1,1-2.283,2.283A2.283,2.283,0,0,1,3348.884,3419.9Zm-1.226,2.576a.253.253,0,0,0-.086.108.25.25,0,0,0,0,.192.253.253,0,0,0,.233.155.3.3,0,0,0,.037,0,1.4,1.4,0,0,1,.5.614.342.342,0,0,1,.541.107.251.251,0,0,1,.449-.089.254.254,0,0,0,.1-.019.25.25,0,0,0,.136-.137.257.257,0,0,0,.016-.133.249.249,0,0,0,.129.036.251.251,0,0,0,.214-.384.3.3,0,0,0,.039,0,1.144,1.144,0,0,1,.34-.7.343.343,0,0,1-.109-.546.249.249,0,0,0-.137-.136.257.257,0,0,0-.133-.016,1.4,1.4,0,0,1-.5-.614.342.342,0,0,1-.54-.108.343.343,0,0,1-.545.11.342.342,0,0,1-.458.306.342.342,0,0,1-.309.462.342.342,0,0,1-.107.54A.253.253,0,0,0,3347.658,3422.476Z" transform="translate(-3346.6 -3419.9)" fill="#151426"/>
    <path id="Path_17258" data-name="Path 17258" d="M3367.854,3441.1l.589.98-.548.33-.581-.968A1.135,1.135,0,0,0,3367.854,3441.1Zm-.117-1.606,1.04-.625.329.548-1.021.613A1.118,1.118,0,0,0,3367.736,3439.489Zm-1.549.076-.623-1.036.548-.329.63,1.049A1.117,1.117,0,0,0,3366.188,3439.565Zm-1.287,1.627,1-.6a1.121,1.121,0,0,0,.309.56l-.977.587Z" transform="translate(-3364.72 -3438.019)" fill="#313144"/>
    <path id="Path_17259" data-name="Path 17259" d="M3467.7,3545.344l.2-.117a.55.55,0,0,0,.188-.754l-.094-.157a1.127,1.127,0,0,1,.556-.317l.086.144a.549.549,0,0,0,.755.188l.152-.091a1.136,1.136,0,0,1,.35.537l-.173.1a.55.55,0,0,0-.188.755l.127.211a1.124,1.124,0,0,1-.54.342l-.135-.224a.55.55,0,0,0-.755-.188l-.216.13A1.13,1.13,0,0,1,3467.7,3545.344Z" transform="translate(-3466.522 -3542.769)" fill="#242435"/>
    <g id="Group_18542" data-name="Group 18542" transform="translate(0 0)">
      <path id="Path_17260" data-name="Path 17260" d="M3348.884,3420.1a2.084,2.084,0,1,0,2.085,2.084,2.087,2.087,0,0,0-2.085-2.084Zm0-.2a2.283,2.283,0,1,1-2.283,2.283,2.283,2.283,0,0,1,2.283-2.283Z" transform="translate(-3346.6 -3419.9)" fill="#313144"/>
    </g>
  </g>
  <g id="Group_18544" data-name="Group 18544" transform="translate(20.888 31.685)">
    <path id="Path_17261" data-name="Path 17261" d="M3140.469,3615.8l4.375.8.119-.647-4.375-.8a.329.329,0,0,0-.383.264h0A.327.327,0,0,0,3140.469,3615.8Z" transform="translate(-3140.2 -3615.15)" fill="#a5aaad"/>
    <ellipse id="Ellipse_1795" data-name="Ellipse 1795" cx="0.233" cy="0.233" rx="0.233" ry="0.233" transform="translate(0.2 0.116)" fill="#151426"/>
    <path id="Path_17262" data-name="Path 17262" d="M2955.512,3689.425h2.252a.412.412,0,0,0,.412-.413h0a.412.412,0,0,0-.412-.413h-2.252a.412.412,0,0,0-.412.413h0A.413.413,0,0,0,2955.512,3689.425Z" transform="translate(-2951.579 -3687.871)" fill="#b9bdc1"/>
    <ellipse id="Ellipse_1796" data-name="Ellipse 1796" cx="0.328" cy="0.328" rx="0.328" ry="0.328" transform="translate(4.727 0.813)" fill="#151426"/>
    <ellipse id="Ellipse_1797" data-name="Ellipse 1797" cx="0.174" cy="0.174" rx="0.174" ry="0.174" transform="translate(5.645 0.967)" fill="#151426"/>
    <ellipse id="Ellipse_1798" data-name="Ellipse 1798" cx="0.174" cy="0.174" rx="0.174" ry="0.174" transform="translate(4.119 0.967)" fill="#151426"/>
  </g>
  <g id="Group_18548" data-name="Group 18548" transform="translate(0 11.042)">
    <path id="Path_17263" data-name="Path 17263" d="M4415.412,2538.911h10.88a.811.811,0,0,0,.812-.811h-12.5A.811.811,0,0,0,4415.412,2538.911Z" transform="translate(-4414.088 -2528.135)" fill="#1f4073"/>
    <path id="Path_17264" data-name="Path 17264" d="M4369.67,1549.4h12.462a.469.469,0,0,0,.47-.47v-8.961a.469.469,0,0,0-.47-.47H4369.67a.47.47,0,0,0-.47.47v8.961A.47.47,0,0,0,4369.67,1549.4Z" transform="translate(-4369.137 -1539.436)" fill="#29b56c"/>
    <path id="Path_17265" data-name="Path 17265" d="M4416.563,1548.931v-8.961a.469.469,0,0,1,.47-.47h12.462a.5.5,0,0,1-.5.519s-9.355.006-10.687.709c-1.216.643-1.277,7.739-1.277,7.739a.464.464,0,0,1-.469.464Z" transform="translate(-4416.499 -1539.436)" fill="#0e684c"/>
    <path id="Path_17266" data-name="Path 17266" d="M4442.328,1604.42c.456-2.6,3.5-4.108,9.026-3.609a1.983,1.983,0,0,0,2.166-1.972h0s-11.3-.411-11.715,0S4442.328,1604.42,4442.328,1604.42Z" transform="translate(-4440.773 -1598.005)" fill="#fff" opacity="0.28"/>
    <path id="Path_17267" data-name="Path 17267" d="M4410.426,1542.647a.519.519,0,0,0,.37-.153.528.528,0,0,0,.155-.375c0-.07.075-7.065,1.245-7.684,1.3-.688,10.564-.7,10.658-.7a.563.563,0,0,0,.561-.584.062.062,0,1,0-.124.005.437.437,0,0,1-.437.454c-.383,0-9.386.014-10.715.716-1.234.652-1.308,7.5-1.311,7.793a.4.4,0,0,1-.119.287.392.392,0,0,1-.288.116h0a.063.063,0,0,0-.063.062.061.061,0,0,0,.061.063A.009.009,0,0,0,4410.426,1542.647Z" transform="translate(-4410.357 -1533.09)" fill="#2f2f42"/>
    <g id="Group_18545" data-name="Group 18545" transform="translate(5.761 10.727)">
      <path id="Path_17268" data-name="Path 17268" d="M4614.194,2624.4a.154.154,0,0,0,.135-.23l-5.017-9.094a.155.155,0,1,0-.271.149l5.016,9.095A.155.155,0,0,0,4614.194,2624.4Z" transform="translate(-4609.022 -2614.99)" fill="#1e1d28"/>
    </g>
    <g id="Group_18546" data-name="Group 18546" transform="translate(11.205 10.726)">
      <path id="Path_17269" data-name="Path 17269" d="M4289.958,2620.773a.152.152,0,0,0,.068-.016.155.155,0,0,0,.071-.208l-2.764-5.625a.156.156,0,0,0-.279.138l2.764,5.625A.156.156,0,0,0,4289.958,2620.773Z" transform="translate(-4287.038 -2614.837)" fill="#1e1d28"/>
    </g>
    <g id="Group_18547" data-name="Group 18547" transform="translate(1.391 10.726)">
      <path id="Path_17270" data-name="Path 17270" d="M3908.156,2615.211h16.336a.156.156,0,1,0,0-.311h-16.336a.156.156,0,1,0,0,.311Z" transform="translate(-3908 -2614.9)" fill="#1e1d28"/>
    </g>
  </g>
  <path id="Path_17271" data-name="Path 17271" d="M3145.671,3284.035l.022,1.724-.192.407c.037.931,1.185.068,1.892-.269-.279-.315-.117-1.543-.02-2.2Z" transform="translate(-3121.793 -3255.3)" fill="#ffbf9f"/>
  <path id="Path_17272" data-name="Path 17272" d="M2807,3453.662a1.876,1.876,0,0,0-.193,1.318c2.013.2,5.482-.056,5.443-.5-.115-.531-.527-.381-1.353-.527-.967-.17-1.535-1.127-2.171-1.073C2808.156,3453.286,2808.363,3454.125,2807,3453.662Z" transform="translate(-2783.298 -3422.798)" fill="#108060"/>
  <path id="Path_17273" data-name="Path 17273" d="M2911.964,3488.812a7.268,7.268,0,0,1-2.574-.795.048.048,0,0,1-.012-.063.04.04,0,0,1,.059-.011c.015.011,2.048,1.046,2.707.759C2912.247,3488.656,2912.274,3488.786,2911.964,3488.812Z" transform="translate(-2884.274 -3457.51)" fill="#fff"/>
  <path id="Path_17274" data-name="Path 17274" d="M2801.9,3607.389a3.738,3.738,0,0,0,1.417-.023,20.725,20.725,0,0,0,2.373-.037,4.423,4.423,0,0,0,1.917-.452.883.883,0,0,0-.066-.377,7.144,7.144,0,0,1-4.094.145,10.335,10.335,0,0,0-1.4.238A.727.727,0,0,0,2801.9,3607.389Z" transform="translate(-2778.602 -3574.899)" fill="#eaeaea"/>
  <path id="Path_17275" data-name="Path 17275" d="M3139.71,3259.062a3.552,3.552,0,0,0,1.63.041c.253-.134.168-1.8.168-1.8l-2,.071A12.661,12.661,0,0,0,3139.71,3259.062Z" transform="translate(-3115.863 -3229.162)" fill="#ddd"/>
  <path id="Path_17276" data-name="Path 17276" d="M3069.362,1875.69a1.41,1.41,0,0,0-.723-1.124c-2.389-1.763-5.355-2.26-6.26-3.034l-4.661-1.333s-1.454,2.519-.487,3.7c1.424,1.736,5.333,2.1,7.976,2.587a2.355,2.355,0,0,0,.613.007c.01.165-.216.335-.206.511.013.215.262.438.273.666.151,3.034.086,6.928.7,6.928l1.89.041c.428,0,.7-3.232.845-6.978C3069.355,1876.906,3069.362,1876.168,3069.362,1875.69Z" transform="translate(-3042.885 -1855.815)" fill="#ddd"/>
  <path id="Path_17277" data-name="Path 17277" d="M3266.181,2483.747c-.011-.228-.26-.45-.273-.667-.01-.175.216-.346.206-.51a.978.978,0,0,1-.613-.007,2.653,2.653,0,0,1,2.086,0A1.533,1.533,0,0,0,3266.181,2483.747Z" transform="translate(-3243.177 -2461.894)" fill="#bebebf"/>
  <path id="Path_17278" data-name="Path 17278" d="M3547.444,887.79A6.888,6.888,0,0,0,3546,884.9a3.555,3.555,0,0,0-2.342,1.723c-.743,1.034-.763,2.586-2.2,5.643-.276.586-.821,1.53-.859,1.654s.011.183-.02.286c-.065.215-.3.434-.319.579a.59.59,0,0,0,.062.28s.345,1.448,2.42,1.255c1.675-.156,1.455-.437,2.565-.318a8.951,8.951,0,0,1,.767-3.28s1.477.02,1.422-1.134C3547.442,890.52,3547.374,888.681,3547.444,887.79Z" transform="translate(-3525.808 -880.284)" fill="#108060"/>
  <path id="Path_17279" data-name="Path 17279" d="M3541.922,1366.386h0a.935.935,0,0,0,.56-.943l-2.344-1.942A11.283,11.283,0,0,0,3541.922,1366.386Z" transform="translate(-3520.801 -1354.139)" fill="#0e684c"/>
  <path id="Path_17280" data-name="Path 17280" d="M3650.067,619.964c-2.746-1.067-1.683,2.513-3.367,4.415C3650.067,624.379,3648.309,620.941,3650.067,619.964Z" transform="translate(-3629.438 -617.783)" fill="#41474e"/>
  <path id="Path_17281" data-name="Path 17281" d="M3451.01,827.777c-.382,0-.506.677-1.206,1.085a3.876,3.876,0,0,0-1.4-1.854,3.121,3.121,0,0,0,.509-.42l.187-.288Z" transform="translate(-3428.415 -822.266)" fill="#ffbf9f"/>
  <path id="Path_17282" data-name="Path 17282" d="M3252.564,475.491c-.688-1.889.215-3.564,2.275-3.511.892.021,1.294.5,1.27,2.082,0,.128-.1.127-.12.267a1.386,1.386,0,0,0,.39.9c.073.049.044.176-.011.22a1.268,1.268,0,0,1-.256.145l-.029.187-.259.322.222.209a2.262,2.262,0,0,0-.1.252.367.367,0,0,1-.33.581l-1.139-.174A3.133,3.133,0,0,1,3252.564,475.491Z" transform="translate(-3231.883 -471.458)" fill="#ffbf9f"/>
  <path id="Path_17283" data-name="Path 17283" d="M3254.706,811.45a.435.435,0,0,0,.233-.1.244.244,0,0,0,.076-.149.977.977,0,0,1-.577.192A.45.45,0,0,0,3254.706,811.45Zm-.495,1.551c-1.347-.282-1.618-.568-1.811-1.08a1.041,1.041,0,0,0,.671.906C3253.236,812.887,3254.211,813,3254.211,813Z" transform="translate(-3230.476 -807.316)" fill="#ea8271"/>
  <path id="Path_17284" data-name="Path 17284" d="M3287.751,443.147s-1.108-.564-.533-2.512a2.161,2.161,0,0,1,2.844-1.192l.063.023c1.312.641,1.131,1.411,1.131,1.411s-.289-1.17-1.245-1.161a3.872,3.872,0,0,1-.07,2.211,1.57,1.57,0,0,1-1.352.674A1.958,1.958,0,0,1,3287.751,443.147Z" transform="translate(-3267.07 -439.115)" fill="#41474e"/>
  <path id="Path_17285" data-name="Path 17285" d="M3285.428,871.088a.186.186,0,0,1,.127.053c.085.12-.052.209-.257.167a.653.653,0,0,1-.5-.418C3284.9,870.836,3285.176,871.1,3285.428,871.088Z" transform="translate(-3261.363 -866.406)" fill="#ea8271"/>
  <path id="Path_17286" data-name="Path 17286" d="M3298.117,872.1l-.035.251a.749.749,0,0,1-.582-.253Z" transform="translate(-3274.025 -867.611)" fill="#fff"/>
  <path id="Path_17287" data-name="Path 17287" d="M3284.2,855.362a2.12,2.12,0,0,0,.654.038c.032,0,.109-.028.12-.053.026-.058,0-.146-.011-.147a.165.165,0,0,0-.1.031.614.614,0,0,1-.185.075c-.123.026-.279.014-.446.035A.04.04,0,0,0,3284.2,855.362Z" transform="translate(-3260.758 -850.88)" fill="#ea8271"/>
  <g id="Group_18550" data-name="Group 18550" transform="translate(22.993 2.558)">
    <path id="Path_17288" data-name="Path 17288" d="M3329.035,721.846c0,.115-.05.214-.116.221s-.122-.08-.124-.2.049-.214.116-.221S3329.033,721.731,3329.035,721.846Z" transform="translate(-3328.246 -721.213)" fill="#49071d"/>
    <path id="Path_17289" data-name="Path 17289" d="M3320.73,717.241c.008.044.094-.036.145-.07a.545.545,0,0,1,.2-.083c.182-.035.216.033.244-.009s-.146-.128-.393-.06A.27.27,0,0,0,3320.73,717.241Z" transform="translate(-3320.452 -716.601)" fill="#49071d"/>
    <path id="Path_17290" data-name="Path 17290" d="M3370.561,723.907c-.114.07-.179.085-.261-.007.039.179.117.219.186.19Z" transform="translate(-3370.184 -723.44)" fill="#49071d"/>
    <g id="Group_18549" data-name="Group 18549" transform="translate(0)">
      <path id="Path_17291" data-name="Path 17291" d="M3296.785,677.794a1.788,1.788,0,0,0-.848.03.119.119,0,0,1-.145-.083l0-.012a.076.076,0,0,1,.057-.082,1.376,1.376,0,0,1,.985-.017.117.117,0,0,1,.06.049v0C3296.934,677.748,3296.87,677.813,3296.785,677.794Z" transform="translate(-3295.789 -677.545)" fill="#49071d"/>
    </g>
  </g>
  <g id="Group_18551" data-name="Group 18551" transform="translate(19.786 0)">
    <path id="Path_17292" data-name="Path 17292" d="M3283.5,422.523a2.127,2.127,0,0,1,1.151-2.975c1.554-.463,3.007.194,3.094,1.525C3286.422,421.5,3284.624,422.44,3283.5,422.523Z" transform="translate(-3283.3 -419.4)" fill="#108060"/>
  </g>
  <g id="Group_18552" data-name="Group 18552" transform="translate(22.747 1.398)">
    <path id="Path_17293" data-name="Path 17293" d="M3123.818,560.4l1.63.254a.885.885,0,0,1-.95.869c-.682-.026-2.127-.28-2.127-.28C3122.908,561,3123.322,560.442,3123.818,560.4Z" transform="translate(-3122.371 -560.4)" fill="#0e684c"/>
  </g>
  <g id="Group_18553" data-name="Group 18553" transform="translate(20.987 2.742)">
    <path id="Path_17294" data-name="Path 17294" d="M3510.712,696.216l0,.008a.608.608,0,0,0,.072.523.655.655,0,0,0,.214.23.323.323,0,0,1,.146.171c.079.23.278.312.41.194l0,0a.941.941,0,0,0,.1-.644,2.518,2.518,0,0,0-.145-.484A.43.43,0,0,0,3510.712,696.216Z" transform="translate(-3510.679 -695.95)" fill="#ffbf9f"/>
    <path id="Path_17295" data-name="Path 17295" d="M3534.133,709.926a.037.037,0,0,0,.036-.021l.008-.017c.033-.066.08-.157.053-.225a.107.107,0,0,0-.07-.063.466.466,0,0,0-.088-.021c-.045-.007-.052-.008-.065-.063-.009-.033.031-.063.075-.091a.113.113,0,0,0,.028-.021s0,0,0,0a.176.176,0,0,0,.108-.112.335.335,0,0,0-.091-.268.264.264,0,0,0-.212-.126.472.472,0,0,0-.314.188.038.038,0,0,0,.061.047s.124-.161.253-.159a.186.186,0,0,1,.151.094c.08.111.087.172.08.2a.1.1,0,0,1-.067.063.091.091,0,0,0-.028.017l-.014.009c-.042.028-.131.084-.108.175s.065.109.128.118a.4.4,0,0,1,.074.017c.018.006.023.015.025.02.015.037-.026.115-.051.163l-.009.017a.038.038,0,0,0,.017.052Z" transform="translate(-3533.474 -708.77)" fill="#ea8271"/>
  </g>
  <g id="Group_18554" data-name="Group 18554" transform="translate(19.679 4.342)">
    <path id="Path_17296" data-name="Path 17296" d="M3536.4,857.715l.434-.2.222-.214c1.469,1.468,1.527,2.7,1.271,3.48C3538.276,859.629,3537.362,858,3536.4,857.715Z" transform="translate(-3536.405 -857.3)" fill="#1f4073"/>
  </g>
  <g id="Group_18555" data-name="Group 18555" transform="translate(18.711 5.891)">
    <path id="Path_17297" data-name="Path 17297" d="M2561.06,1158.815a54.1,54.1,0,0,0,4.433,3.941c.651.357,3.742,1.047,4.841,1.416.56.4.774.689,1.2.829,0,0,1.022.22,1.238-.155s.1-1.6-.079-1.613l-2.1-.207a20.822,20.822,0,0,1-4.125-1.972l-3.8-4.053Z" transform="translate(-2560.21 -1155.577)" fill="#ffbf9f"/>
    <path id="Path_17298" data-name="Path 17298" d="M3269.9,1019.781a45.347,45.347,0,0,1-3.8-3.369l1.74-2.912c1.055.948,2.146,2.712,3.952,4.7A3.5,3.5,0,0,1,3269.9,1019.781Z" transform="translate(-3266.1 -1013.5)" fill="#108060"/>
    <path id="Path_17299" data-name="Path 17299" d="M3254.152,1439.033a3.609,3.609,0,0,0,1.895-1.716l-.486-.516a4.352,4.352,0,0,1-1.96,1.778Z" transform="translate(-3250.23 -1432.603)" fill="#1f4073"/>
    <ellipse id="Ellipse_1799" data-name="Ellipse 1799" cx="0.465" cy="0.585" rx="0.465" ry="0.585" transform="translate(11.19 9.733) rotate(-110.726)" fill="#151426"/>
  </g>
  <path id="Union_85" data-name="Union 85" d="M4.362,6.9q-.025-1.534-.044-3.076c-.007-.59-.013-1.182-.023-1.771,0-.058,0-.058-.064-.078L3.8,1.852a.1.1,0,0,1,.061-.01H5.591c.074,0,.064,0,.064.068V4c.03.008.037-.013.047-.024l1.8-1.9a.16.16,0,0,1,.132-.054H9.044c.007.031-.014.04-.027.054q-.73.785-1.465,1.57l-.48.513c-.051.053-.041.048,0,.1l1.452,1.76c.162.2.327.4.49.6a.111.111,0,0,1,.037.065H7.535a.142.142,0,0,1-.118-.05c-.564-.652-1.128-1.3-1.7-1.952a.237.237,0,0,0-.067-.061V4.7c0,.283,0,.57,0,.853a.149.149,0,0,1-.044.116q-.6.626-1.2,1.258a.078.078,0,0,1-.044.037C4.352,6.944,4.362,6.924,4.362,6.9ZM.6,5.543V.272C.6.155.615.182.493.148.328.1.162.053,0,0H5.732c.007.02-.014.029-.027.044-.263.289-.53.58-.793.87A.13.13,0,0,1,4.8.959H1.442a.306.306,0,0,0,.1.04c.108.031.216.058.324.088.078.023.061.02.061.081V2.326c0,.1-.014.087.1.087H3.545l-.176.193c-.2.22-.4.436-.594.656a.129.129,0,0,1-.111.047H1.543a.228.228,0,0,0-.094.011c.03.006.051.016.071.019l.354.1a.045.045,0,0,1,.041.019.072.072,0,0,1,.013.045q-.005.317,0,.641a.128.128,0,0,1-.048.09l-.844.929C.908,5.3.78,5.441.655,5.583A.16.16,0,0,1,.6,5.631Z" transform="translate(2.393 13.305)" fill="#fff"/>
</svg>
