<svg xmlns="http://www.w3.org/2000/svg" width="18" height="25.038" viewBox="0 0 18 25.038">
  <path id="restaurant-place" d="M12,0A8.51,8.51,0,0,0,3.5,8.5c0,8.218,7.839,15.09,8.173,15.378a.5.5,0,0,0,.654,0C12.661,23.589,20.5,16.717,20.5,8.5A8.51,8.51,0,0,0,12,0Zm0,6.5c0,1.343-.553,2.216-1.5,2.439V12.5a.5.5,0,0,1-1,0V8.939C8.553,8.716,8,7.843,8,6.5v-1a.5.5,0,0,1,1,0v1c0,.854.244,1.214.5,1.372V5.5a.5.5,0,0,1,1,0V7.872c.256-.159.5-.519.5-1.372v-1a.5.5,0,0,1,1,0Zm3.5,6a.5.5,0,0,1-1,0V10h-1c-.16,0-.684-.07-.684-.969a7.024,7.024,0,0,1,.538-2.351C13.81,5.565,14.364,5,15,5a.5.5,0,0,1,.5.5Z" transform="translate(-3 0.5)" fill="#29b56c" stroke="rgba(0,0,0,0)" stroke-width="1"/>
</svg>
